<?xml version="1.0" encoding="UTF-8"?><svg id="a" xmlns="http://www.w3.org/2000/svg" viewBox="0 0 3762 1327"><path d="M3259.59,316.59c108.34-.27,217.14.86,325.33,3.49,48.51,1.18,113.17-11.36,140.69,39.31,13.2,24.29,13.53,61.97,14.47,89.53,4.7,137.94.75,283.95-2.16,422-1.49,70.59,13.8,155.33-86.92,155.27-165-.11-330.77-2.33-496.1-2.28-59.1.02-127.32,4.81-185.98.17-49-3.88-73.73-38-77.02-84.98-6-85.59,7.79-177.73,2.01-264.17,9.18-86.81-7.89-181.75-2-268,6.59-96.56,80.95-84.99,153.16-86.84,71.09-1.82,143.35-3.31,214.51-3.49ZM2900,401c-1.37,12.22,1,26.53,0,39l830-2v-37c0-3.79-6.93-26.48-9.01-30.99-13.27-28.76-48.22-39.95-77.91-42.09-83.96-6.03-179.38.13-263.98.17l-401.84.16c-41.23,1.83-72.66,31.87-77.26,72.74ZM3730,450h-827c-5.42,0-1.01,13.51-.91,16.92,3.77,127.86,1.72,256.26,0,384.17-.74,54.34-18.73,130.42,44.56,157.27,26.95,11.44,47.15,7.6,74.27,7.56,201.71-.26,402.71-1.37,604.16,0,26.3.18,50.02,5.58,73.91-11.92,43.22-31.65,29.29-103.05,28.92-148.91-1-123.6-1.62-246.56,2.16-370,.36-11.66-.43-23.44-.08-35.08Z" fill="#29a8ee"/><path d="M1400.89,778.67c-2.54-11.34-9.86-20.49-21.17-26.44l-.34-.18-53.69-9.94c6.43-14.81,10.21-45.01-.86-55.96-.93-.92-1.97-1.49-2.99-1.83,9.91-4.79,17.39-16.64,19.89-32.33,2.62-16.42-.88-36.95-14.73-43.23-3.12-1.42-8.93-1.32-15.66-1.21-3.91.06-11.58.19-14.21-.72,5.56-9.94,4.8-28.91-4.11-36.18-4.81-3.93-15.44-3.57-24.81-3.24-3.46.12-6.72.23-9.02.08-34.59-2.28-70.5-4.82-109.77-7.77l-.31-.02-198.01,34.5-.6.8c-2,2.69-2.8,5.08-2.43,7.33.54,3.31,3.38,5.27,6.12,7.17,2.41,1.67,4.91,3.4,5.99,5.98,1.34,3.2,2.18,8.58,2.43,15.6-3.74,2.81-23.88,6.17-34.93,8.01-8.11,1.35-15.12,2.52-18.48,3.56-2.5.77-5.88,2.14-6.39,5.05-.53,3.04,2.33,5.19,4.62,6.91.75.56,1.68,1.26,1.99,1.65,2.6,3.3,4.17,4.59,5.56,5.72.95.78,1.77,1.45,2.93,2.8,9.48,11.08,10.18,34.57,9.6,48.93l-7.46.99-3.25,11.36,41.9,6c-.19.09-.38.2-.58.32-.72.45-3.32,1.43-5.84,2.38-12.46,4.69-22.84,9.07-23.71,15.14-.23,1.62.13,4.02,3.15,6.3l.39.29.47.12c13.54,3.59,19.63,12.22,20.75,29.62-4.14,1.53-13.23,4.27-22.78,7.15-38.95,11.73-44.32,14.06-45,17.1-1.51,6.81,6.07,8.69,10.14,9.71.9.22,2.09.52,2.62.74,1.79,3.42,6.44,25.17,6.93,30.53.55,6.06,1.69,18.68-2.86,22.86-1.4,1.29-3.36,1.69-5.98,1.22l-3.44-.61,1.7,10.98,256.18,92.55,236.72-151.75.27-.36c11.44-15.2,16.32-33.02,13.03-47.69ZM1134.8,605.49c-18.54-1.15-37.37-2.02-55.6-2.86-19.68-.91-40.03-1.84-60.02-3.14-3.96-.26-7.93-.87-12.13-1.52-3.15-.49-6.33-.98-9.53-1.32,21.74-4.2,44.24-7.38,66.11-10.46,27.02-3.81,54.96-7.76,81.6-13.63l101.73,5.12-112.17,27.82ZM1294.15,618.34l-8.74,3.14c.19-.14.38-.27.57-.41,1.36-.99,2.65-1.92,4-2.23,1.31-.3,2.72-.45,4.18-.51ZM941.3,649.33c2.93-.67,5.87-1.44,8.77-2.19,8.35-2.17,16.99-4.42,24.32-4.12,23.65.95,56.66,8.19,88.59,15.18,18.11,3.97,35.21,7.72,49.77,10.13,1.25.21,2.58.87,3.87,1.51,1.8.9,3.66,1.83,5.67,1.72l.32-.02.3-.1c27.59-8.76,55.86-17.07,83.2-25.11,19.47-5.73,39.47-11.61,59.3-17.67l-149.31,53.64-174.79-32.98ZM1278.61,612.05l-139.78,41.87c5.97-13.17,6.77-25.46,2.49-38.09l145.13-32.97c1.79.89,2.74,3.05,2.82,6.43.21,8.46-5.55,20.74-10.66,22.76ZM1132.58,632.71c-.77,12.09-7.38,24.29-13.44,24.95l-144.61-25.76c-.01-7.46-1.1-17.35-4.14-25.09l154.24,9.72c8,1.6,8.23,11.82,7.95,16.17ZM1321.5,669.52l-188.44,73.79c7.59-18.52,1.88-37-3.82-53.67l195.31-66.72c2.17,1.04,3.82,4.26,4.7,9.19,2.32,13.04-1.79,32.72-7.76,37.41ZM930.35,661.34l185.16,33.47c8.63,6.91,12.34,27.58,7.46,42.31-1.88,5.67-5.76,12.41-13.59,12.48l-170.03-32.8-.16-.23c4.7-20.31-1.73-39.76-8.84-55.23ZM953.88,747.61c3.69-2.3,23.4-10.34,26.92-10.76l136.22,25.62,171.91-66.64,8.67-.66-101.78,75.86-242.28-23.21c.11-.06.23-.13.34-.2ZM1155.34,883.68c7.57-2.79,14.51-6.84,21.24-10.76,2.57-1.5,5.23-3.04,7.86-4.49,2.52-1.38,5.01-2.72,7.49-4.04,3.07-1.65,6.25-3.36,9.39-5.09,23.63-13.1,47.76-26.22,71.1-38.91,32.67-17.76,66.45-36.13,99.34-54.7,1.9-1.01,3.75-1.1,5.67-.26,5.21,2.28,9.44,10.47,10.78,15.56,4.08,15.54-2.79,27.03-10.92,37.11l-211.18,135.71-2.91.76c3.88-22.27,1.35-44.97-7.86-70.89ZM939.57,820.52l.12.55-27.2-7.38,40.17-13.88c-1.15,3.91-3.1,9.55-3.76,10.63-.85,1.15-2.31,1.6-3.86,2.08-2.38.74-6.81,2.12-5.48,8ZM1244.45,820.31c1.02-1.25,2.09-2.45,3.23-3.5,9.07-8.41,18.49-16.78,27.6-24.87,13.34-11.86,27.14-24.11,40.17-36.79,5.34-2,20.03,1.54,30.82,4.14,2.95.71,5.72,1.38,8.21,1.93l-110.02,59.09ZM1201.58,824.86c-.85,10-6.9,28.34-14.28,28.75l-227.34-39.47c5.68-11.31,6.35-28.84,4.38-41.4-.59-3.77-2.54-7.25-4.42-10.62-.65-1.17-1.28-2.29-1.83-3.39,42.21,6.18,85.54,9.71,127.47,13.12,32.91,2.68,66.94,5.45,100.13,9.48,16.69,4.03,17.12,28.99,15.88,43.53ZM1307.17,746.45l-94.66,86.92c.04-3.29.18-6.98.32-10.86.38-10,.76-20.34-.36-27.88-.68-4.59-3.66-9.6-6.28-14.01-.19-.33-.38-.65-.57-.96l109.14-80.15c11.81,13.03.54,34.73-7.59,46.94ZM1166.5,864.13l-22.99,12.25-192.04-52.11,215.02,39.86ZM913.86,880.69c7.88-13.19,4.66-28.05,1.54-42.46-.96-4.45-1.88-8.7-2.47-12.83l227.45,61.88c15.08,21.89,17.5,51.83,6.2,75.49l-232.72-82.08Z" fill="#cc7275"/><path d="M269.6,26.6l539.47-.67c69.12,8.05,77.75,48.77,80.51,109.08,5.35,116.89,2.69,240.54-1.66,357.91-.96,26,3.67,47.63-7.53,72.47-26.09,57.82-95.67,45.26-147.47,46.53-128.34,3.17-257.49,2.88-385.84,0-31.32-.7-66.47,3.33-96.77-3.23-82.21-17.81-64.8-86.46-66.23-151.77-2.34-106.53-2.37-213.3,0-320,1.38-61.95,16.11-103.81,85.51-110.32ZM880,128v-29c0-34.15-39.46-62.07-71.03-64.97-55.83-5.13-126.67,3.45-183.89,4.05-86.7.91-173.59-.6-260-2.16-40.68-.74-103.05-8.88-137.75,12.41-22.44,13.76-33.65,47.41-35.36,72.69-.28,4.17.03,2.57,2.96,3,90.73.56,181.41,1.03,272.14,1.91,4.73.05,9.11,2.12,13.84,2.16,133,1.2,266.1-1.07,399.08-.08ZM880.01,139.99l-686.14-5.12c-5.1,3.57.03,20.31.21,26.04,3.48,111.11-.56,221.28-2.16,332-.84,57.9,15.43,106.34,81.01,111.16,66.92,4.92,137.1-1.87,203.98-2.17,88.07-.4,176.28,1.18,264.01,2.18,63.71.72,131.82,5.97,139.05-75.11,9.43-105.8-9.93-224.73-2.06-332.06l2.11-56.92Z" fill="#cc7275"/><path d="M317.59,712.59c109.79-1.07,222.5-4.34,331.36,1.42,54.22,2.87,81.84,39.09,85.13,90.91,3.81,59.86-.35,127.35-.17,188.17.21,70.71,4.59,145.24.17,216-4.24,67.83-38.09,89.56-103,93-152.28,8.06-316.11-1.69-470,0-69.61.76-124.29-5.6-131.05-89.11-5.94-73.3-.35-150.47.06-223.87.31-55.74-2.76-112.86-1.69-168.1,1.13-58.67,21.88-106.7,88.61-107.17,66.42-.47,133.93-.59,200.58-1.24ZM726,813.98c-3.19-12.22-3.77-25.01-7.92-37.06-15.06-43.68-50.78-52.68-92.98-55.02-164.99-9.15-338.33,7.13-504.19,0-24.01,1.41-43.42,5.61-59.93,24.07-17.55,19.64-22.07,43.51-25.01,68.99l690.03-.99ZM35.99,825.99c-.7,7.18,1.87,13.79,2.1,20.91,3.78,116.41-4.33,233.94-2.13,350.02.54,28.37,11.96,67.38,37.4,82.72,27.7,16.71,55.86,12.43,85.56,12.28,113.39-.57,226.62-3.03,340.16-2,42.97.39,91.35,5.55,134,4.16,106.48-3.46,92.18-76.71,92.83-157.16.77-96.49-5.06-195.74-2-292,.17-5.26,4.83-16.79.2-20.04l-688.13,1.12Z" fill="#cc7275"/><path d="M1735.09,1021.07c.89-.8,8.47-5.79,2.25-4.76-117.58,54.51-238.18,109.66-368.6,125.43-178.72,21.62-383.24,5.11-563.66-1.83-8.76-.34-42.59,1.81-47.1-.89-6.12-3.66-1.65-18.07,6.91-19.14,23.79-2.97,50.46,1.41,74.13,2.09,151.1,4.36,307.27,16.04,458.06,8.1,112.27-5.91,207.7-30.74,310.85-73.15,40.46-16.63,79.63-36.89,120.05-52.96.54-3.33-4.83-2.15-7.06-2.07-9.39.32-28.94,8.28-25.03-8.61.44-1.89,2.49-1.83,3.97-2.34l82.25-8.11c3.41,3.89,2.37,8.18-.02,12.27-9.56,16.42-43.29,35.68-54.99,52.99-2.47,2.19-6.51,2.94-9.22,1.02-9.34-6.6,12.74-24,17.2-28.05Z" fill="#cc7275"/><path d="M1756,411.98c-86.28-63.21-179.08-130.3-279.46-169.52-172.27-67.3-377.55-14.75-555.64,1.27-9.87-.77-19.58-15.16-5.85-17.69,15.89-2.92,37.18-2.19,53.94-4.06,127.54-14.27,283.26-40.28,409.73-23.7,146.06,19.15,269.8,125.76,390.31,201.67-.57-8.02-18.28-24.56-16.81-30.55.98-4.01,5.65-6.38,9.76-4.48,7.43,3.43,36.69,53.07,46.81,61.29,2.13,3.69,5.39,12.06,1.33,14.92-7.67,3.77-13.58-4.6-19.71-6.53-16.38-5.17-46.88-7.07-60.94-15.06-2.61-1.49-5.55-3-5.53-6.53.07-13.75,25.16-.24,32.06-1.02Z" fill="#cc7275"/><path d="M2489.48,656.44c1.2,1.23,2.46,4.59,2.12,6.25l-3.51,4.39-26.08,12.9c17.64.5,35.42-.57,53.07-.06,75.05,2.16,150.66,2.9,226.01,2.18,36.9-.35,85.98-6.62,122-2.19,14.11,1.73,3.75,18.86-6,20.2-21.91,3-46.27-1.89-68.02-2.18-106.48-1.42-212.56-1.71-319.07.1l19.66,10.28-.57,9.81-5.88,1.86c-26.48-5.87-50.53-23.24-77.81-22.38-2.61-.77-5.56-3.84-5.53-6.62.1-7.99,39.91-23.76,47.62-26.46s37.02-13.14,41.98-8.07Z" fill="#29a8ee"/><path d="M1745.99,761.98l-40.91-4.06c-81.7-1.48-164.71,1.24-246-4-7.81-.5-33.31,3.82-33.2-6.95,1.26-5.05,8.18-8.4,13.03-9.05l319.08,2.07-30.12-14.88c-4.63-4.64,2.09-9.37,7.09-9.27,19.93,8.97,42.61,12.82,62.39,21.81,7.23,3.29,13.15,4.86,14.26,13.88,1.59,12.94-11.5,7.24-21.71,9.38-15.88,3.32-41.08,18.4-55.12,19.08-5.53.27-10.83-4.57-7.89-10.02l19.1-7.99Z" fill="#cc7275"/><path d="M2268.02,872.98c-5.89-8.41-17.18-4.03-26.02-4.98v-28c41.1,44.76,88.83,20.52,84.07-39.07-3.23-40.48-68.94-120.05-91.68-158.32-12.73-21.42-23.23-46.23-35.95-67.94.62-10.97,9.1-9.08,14.99-12.23,15.24-8.16,22.52-36.72,17.67-52.55-2.75-8.97-14.12-9.91-15.23-18.76-2.94-23.47,4.79-18.08,13.03-31.22,6.56-10.46,2.72-28.6-2.55-39.27-3.59-7.26-34.91-49.98-40.45-53.55-7.13-4.6-13.56-3.48-19.77-6.23-4.99-2.21-10.89-8.67-18.16-11.84-41.48-18.04-60.46,3.23-95.94,14-16.6,5.04-25.08,1.61-40.11,15.89-5.2,4.94-36.88,48.14-39.67,54.33-6.72,14.98-7.31,44.17,4.65,56.84,5.86,6.21,15.11,7.04,21.08,13.02-16.02,19.56-3.13,52.91,15.06,66.83,7.31,5.6,13.75,5.99,19.98,10.02,7.8,5.06,14.45,17.7,23.96,22.04l.81,25.8c-61.52,14.04-115.89,48.71-154.63,98.36-4.75,6.08-31.22,44.51-31.1,48.84.14,4.98,8.16,8.98,7.9,15.76-.21,5.4-5.6,14.97-7,21.21-8.52,38.16-11.69,80.92,26.11,104.03l.95,2.9-46.99,75.17c-5.28,14.34,13.9,11.63,22.63,12.25l18.29,50.7,34.05.95c2.08,20.66,3.43,45.68,12.99,64.01h32l3-3v-61l244,4v57l3,3h32c8.32-6.66,9.31-56.25,13.09-59.9l37.09-1.92,14.9-52.09c6.76-1.1,27.67,3.71,27.88-7.05l-79.94-128.06ZM2222.39,648.61c22.78,38.68,77.1,102.12,88.21,141.79,11.95,42.63-16.33,83.54-55.43,42.43-8.32-8.75-15.1-18.38-21.17-28.8l7.98-2.03c1.23,12.81,17.22,35.42,17.14,9.98-20.07-43.51-42.5-86.05-62.54-129.55-1.96-4.26-4.21-14.48-5.59-16.41-1.39-1.94-11.51-4.71-15.45-7.99-7.68-6.4-10.3-14.46-7.54-24.01-6.86-1.62-13.61,2.02-17.96-5.02.03-5.69,33.33-4.1,18.65-18.73l-18.68,1.72c.29-16.44,30.21-9.14,31.97-15.04,1.88-6.29-6.23-7.24-8.6-11.5-1.79-3.22-7.02-23.7-5.37-25.44l8.91,4.07c16.94,26.73,29.6,57.57,45.47,84.53ZM2233.87,790.81l-7.84,5.19c-3.01-8.63-4.92-16.36-3.56-25.59.47-3.21.19-5.95,3.51-2.41l7.89,22.81ZM1992.14,475.14c-3.53,1.59-5.77,8.91-8.61,2.38-4.12-9.48-3.9-29.55-.04-39.02,1.16-2.85,33.82-46.6,36.7-49.3,12.99-12.21,21.64-9.21,36.23-13.77,31.97-10,56.03-30.62,90.94-11.78,14.32,7.73,9.14,8.46,27.21,12.79,10.11,2.42,20.32,24.41,26.59,33.41,8.96,12.87,21.26,18.43,16.82,38.16-5.73-4.11-10.76.59-16.48-.31-6.51-1.02-18.58-10.03-19.19-17.02-.28-3.18,7.3-8.02,1.76-11.75-6.18-4.16-24.45,8.96-33.82-8.18-3.34-6.1-.24-12.9-9.25-12.93-13.31-.04-3.29,10.42-2.96,15.35.84,12.3-30.09,13.98-39.68,11.47-11.72-3.07-17.85-20.38-26.18-7.23l2.9,12.55c-9.71,10.67-23.16,15.38-36.58,8.59-2.82-1.43-2.85-5.04-6.37-5.73-12.04-2.35-8.91,8.96-4.17,16.04-.68,3.21-14.02,7.81-17.68,8.03-6.92.43-10.95-3.75-15.63-4.35-7.12-.92-8.98,5.92-5.69,11.49,2.52,4.26,13.11,3.15,15.01,7.94-3.9,1.01-8.13,1.5-11.85,3.17ZM2055.06,583.94c-4.73-3.91-15.53-17.34-19.1-18.9-3.84-1.67-8.17-.64-12.06-1.94-11.11-3.7-31.68-47.2-9.76-50.41l-6.33-27.74,10.28-15.87c9.1.47,18.69-13.31,23.32-14.67,5.16-1.52,11.81.29,17.42-.58,11.79-1.82,23.1-10.16,30.09-19.4,11.4,5.02,25.24,5.78,37.2,2.68,6.21-1.61,16.63-8.97,20.88-8.97,3,0,9.12,3.74,12.91,4.98,2.99.98,8.07.16,9.73,1.23.75.48,1.88,5.34,3.5,7.48,7.96,10.52,16.35,19.1,30.86,18.16l-1.99,52,14.06-1.19c7.88,7.7,1.57,33.71-6.06,38.18-4.07,2.39-10.09-.36-14.04,1.96-4.08,2.4-1.71,10.91-7.92,9.03-4.88-16.52-29.58-22.01-32.08-1.04-1.3,10.93,2.08,18.71,3.97,28.95-4.8,1.45-11.23,2.56-15,6.04-7.63,7.02-.71,14.77-17.92,15.67-26.97,1.42-51.38-8.67-71.95-25.66ZM2130.79,649.79c-10.78,8.61-58.79,4.81-58.79-6.79v-31c20.18,7.59,38.36,11.2,60.13,10.87,3.23,2.25,3.52,23.03-1.34,26.91ZM2134,664.02l-29.97,53.97-32.02-57.98c20.47,8.17,40.61,10.5,62,4ZM2051.89,644.07c9.09,23.6,21.33,46.95,34.5,68.54,5.75,9.43,16.21,33.41,27.29,18.07,13.28-18.38,28.64-54.44,38.14-75.9.52-1.17-.18-4.44,3.15-2.77,2.82,1.42,5.09,8.64,7.71,11.31,3.56,3.61,15.65,9.8,16.8,11.19,2.47,2.98,31.78,65.39,32.99,70.07,5.23,20.18-11.95,38.18,7.45,65.94,1.48,2.12,8.06,4.76,8.06,6.47v51l-94.58,1.7c-10.65-3.11-6.4-44.55-28.94-33.23-4.93,11.09,1.93,22.92,5.52,33.49-1.96-.05-3.65,1.12-5.52,1.47-28.15,5.4-76.89-6.87-107.54-1.39l-12.61-4.39c-1.66-18.98-2.48-37.65-2.43-56.75.02-5.18,2.14-10.1,2.17-15.81.21-36.09-7.53-74.36-19.64-108.18,26.05-19.01,55.86-33.5,87.44-40.86ZM2067.6,884.46c-18.11,4.79-18.53,6.78-36.85-.22-2.53-.97-6.15-.43-6.76-4.24h48c.84,5.43-.86,3.53-4.4,4.46ZM1953,694.04c2.94.02,11.44,36.21,12.41,41.55,2.14,11.82,8.21,53.28,5.44,62.28-1.1,3.58-11.57,23.07-14.21,23.92-24.44-3.53-46.39-17.58-61.48-36.95-2.12-2.72-6.94-4.94-7.07-9.84,16.18-30.45,37.76-59.42,64.91-80.96ZM1970,828v32c-2.69-1.14-14.71-2.95-14.04-7.01l14.04-24.99ZM1886.9,886.1c-10.29-19.06-7.93-59.91.95-79.26,1-2.17,1.84-5.58,5.11-4.83,1.81.41,22.99,18.72,29.7,22.32,8.51,4.57,17.65,8.48,27.34,9.68l-6.18,15.85-15.81-1.86.91,8.07,118.33,43.87c7.43.56,16.25-5.81,23.87-7.82,12.11-3.2,45.45-13.05,46.87,5.87l-17.98-5.98c-.32,3.43-.28,6.19,1.84,9.14,5.71,7.93,36,13.11,44.69,20.77,1.65,1.45,3.9,5.02,3.4,6.94-3.18,12.03-35.68-9.98-41.89-11.95-6.72-2.13-6.32-.83-7.78,5.85l25.73,13.28c.09,3.46,1.11,4.28-2.84,3.85-4.74-.51-19.04-7.6-21.14-.86-2.59,8.31,11.6,8.45,15.98,8.98l2,4c-8.12.43-14.86-.86-22.74-1.88l-3.32,7.85c-13.55-.66-24.23-13.3-37.41-15.49-11.25-1.87-25.1-.87-37.25-2.75-33.75-5.22-115.22-21.86-132.37-53.63ZM2098,974c-19.28-.1-38.85.92-58.03-1.03l5-17c5.61-6.94,26.76,8.82,34.47,11.57,5.76,2.06,12.46,3.91,18.55,4.45v2ZM2110,972c11.27-1.35,31.46-16.11,26-27.98,5.25-1.01,3.11.82,4.17,2.85,3.82,7.3,4.42,15.86,14.82,15.32,15.07-.78,1.9-15.68,1.44-21.54-.25-3.26,3.16-6.24,3.57-9.83,1.59-13.99-14.82-16.21-17.99-27.84,5.91-.32,17.74-5.88,21.61.39l26.37,70.61c-26.64-.03-53.36.11-80,.02v-2ZM1964,1107c-2.62,4.09-12.36,4.54-15.04,1.04l-8.99-49.01,24.03-1.03v49ZM2247.12,1108.12l-15.12,1.88v-47l21.99-2.99-6.87,48.11ZM2292.68,1049.67c-7.18,2.48-16.41-1.53-23.6-1.75-112.16-3.52-228.47,4.18-340.17-1.84-6.01-.32-18.74-1.12-23.95-2.05-7.9-1.42-10.5-29.64-15-37l418.03.99c-3.45,7.32-8.7,39.37-15.31,41.65ZM1870.01,991.01l43.07-67.07c37.75,16.37,78.19,24.93,118.92,30.08-2.74,10.47-9.81,20.37-7.75,31.72l175.86,1.46c7.12-1.72,4.76-8.35,3.34-13.58-3.83-14.08-23.33-69.53-29.96-80.13-1.3-2.08-2.38-4.1-4.5-5.5h-33v-5.99s121.68-1.68,121.68-1.68l70.32,113.65-457.99-2.97ZM1956.14,596.78l-11.31,5.15.27,14.08-11.86,4.14-5.18-11.33-13.89,1.02-3.92-12.63,11.76-5.23-2.15-12.66c9.82-7.56,15.15-6.6,16.23,6.6l15.99-1.06,4.06,11.92ZM2267,509.87c6.18.91,2.73,7.51,8.98,6.13-.02-5.76,6.34-24.35,12.64-23.68l9.07,3.98c1.72,2.73-8.41,37.84-10.81,41.57-4.56,7.11-8.29,2-14.54-.2l-.36-15.67c-13.93,13.1-22.39-14.71-4.98-12.13ZM2252.59,589.58c17.52-5.21,10.36-41.09-11.11-37.28-20.97,3.73-18.02,45.93,11.11,37.28ZM2240.95,567.95c1.39-2.01,5.54-2.9,7.01-1.93.54.35,2.58,7.66,1.07,10.01-2.93,4.55-13.33-.47-8.08-8.08ZM1904.01,534l7.67.33c1.47.89,2.04,11.34,8.31,9.66,3.52-3.87-15.82-16.59,2-20.02l-5.96-2.02.85-8.07c3.43-5.02,24.84-.02,20.19,10.08-1.99,4.32-7.35,4.62-9.05,6.06-1.21,1.03,4.81,2.7,5.59,7.41,3.65,22.24-34.3,22.51-29.59-3.43ZM2258.02,636.05l-9.77-2.28c-1.78-11.04.03-15.35,11.77-13.75l-.03-8.03h12.02s.06,11.95.06,11.95l9.07,1.92.87,12.15-11.94.07-1.92,9.06c-11.01,3.78-13.16-1.32-10.13-11.09ZM2309.73,570.29c2,12.84,19.77,31.59,7.2,41.69-5.12,1.11-12.11-17.94-12.95-21.97l-7.25,5.83-6.43-5.13c5-8.63,7-24.83,19.43-20.42ZM1989.98,608l-8.94,4.01c-11.89-2.49,16.48-31.04,20.58-18.63,2.17,6.58,2.15,38.37-4.81,40.45-11.91,3.57-4.56-22.69-6.83-25.82ZM1951.98,550.97c1.04-.86,23.49-8.42,25.53-8.65,7.01-.8,10.03,9.61,6.59,12.69-1.18,1.06-22.99,8.25-25.62,8.61-10.1,1.38-11.3-8.66-6.5-12.65ZM2310.18,510.83c6.54,8.1-4.52,17.67-11.68,10.66-6.79-6.66,4.26-19.85,11.68-10.66ZM2082.02,839.04c2.18,1,3.87,1.8,6.01.04l18-35.07c9.39,7.08,16.47,27.66,24.86,34.13,1.98,1.53,3.09,2.37,5.76,1.67,4.79-1.25,19.93-32.83,19.35-38.61-.42-4.22-18.9-40.74-22-42.33-8.73-4.51-11.3,11.73-13.63,16.5-4.05,8.31-7.87,17.11-13.36,24.6-3.02,0-16.44-34.21-20.94-39.06-3.33-3.58-7.17-3.26-10.16.54-2,2.55-18.09,39.19-18.07,41.61,3.5,7.05,18.14,33.2,24.19,35.98ZM2129.52,784.57c1.25-1.94-.21-3.58,4.45-2.57,6.98,15.51,11.31,21.76,2,37.99-4.6,1.17-3.28-.92-4.54-2.52-10.67-13.52-11.48-18.09-1.91-32.9ZM2079.52,784.57c1.25-1.94-.21-3.58,4.45-2.57,6.55,15.47,13.44,23.9-.97,37.95-11.47-14.88-14.2-18.81-3.48-35.39ZM2034.91,840.1c5.94-.56,21.42-31.61,21.07-36.95-.17-2.66-17.64-37.88-19.89-40.25-1.45-1.52-2.68-2.93-5.02-2.8-2.06.39-5.23.86-6.57,2.43l-18.01,42.2c5.5,7.07,19.54,36.21,28.41,35.37ZM2030.02,782c11.98,12.16,16.62,27.58,2,39.99l-11.32-18.98,9.32-21.01ZM2179.95,837.04c4.51,4.07,7.9,4.8,11.81-.29,2.92-3.79,15.95-28.14,16.03-31.71.09-4.06-17.95-40.49-20.83-43.01-2.02-1.77-2.57-2.66-5.63-1.84-5.72,1.53-19.21,35.59-22.47,42.8-.02,4.47,17.2,30.54,21.08,34.04ZM2182.02,782c1.54-1.18,11.95,20.82,11.87,23-.06,1.74-7.73,16.99-8.9,16.95-14.22-15.2-11.46-22.92-2.98-39.96ZM2138.14,470.78c-3.49-22.63,43.37-3.94,35.8,7.16-2.48,3.63-26.65-5.68-32.58-4.3l-3.22-2.86ZM2086.15,468.97c-.66,8.19-24.75,5.64-31.18,10.39l-4.6-4.67c-.41-1.87.96-4.64,2.25-6.1,5.67-6.42,34.8-15.26,33.53.38ZM2122.16,575.85c-11.52-8.31,25.21-29.45,27.72-14.62.8,4.72-24.95,16.61-27.72,14.62ZM2102.88,531.92l18.13-9.53c18.7,14.57-19.71,31.06-18.13,9.53ZM2150.84,501.94c-12.28,0-10.3-15.32-3.68-21.87,12.28,0,10.3,15.32,3.68,21.87ZM2075.52,484.49c3.91,4.3,4.88,22.1-4.34,19.33-5.63-1.69-7.85-17.82-1.23-20.92,1.58-.67,4.62.54,5.57,1.59Z" fill="#717171"/><path d="M3432,872c-.99.79-1.92,3.24-4.07,4.84-31.6,23.44-70.48,36.72-109.92,37.14l36.6-18.37c26.17-15.37,54.22-43.25,69.39-69.61,33.48-58.18,34.27-133.24,2-192-18.16-33.06-54-67.15-88.65-82.35-9.22-4.04-15.59-8.14-25.35-5.65-38.96,9.94-85.39,55.18-104,90-31.24,58.45-28.81,125.38,0,184,14.57,29.64,41.29,55.17,69.38,73.62l38.62,20.36c-42.8.06-83.21-15.19-116-41.98-91.95-75.13-91.88-212.48,0-288,26.77-22,68.64-41.35,104-40,5.18-3.41,14.94-2.41,20.98-1.98,43.81,3.12,75.83,16.55,109.02,43.98,91.59,75.68,90.44,211.99-2,286ZM3264.08,783.09c7.56-9.59,9.68-27.93-3.97-32.19-37.6-11.72-43.99,49.56-8.98,54.97,16.74,2.59,26.13.27,38.87-9.87,3.39-2.7,5.1-3.62,6.99-7.99,24.08,28.57,61.4,23.21,85.06-2.96,7.08-7.83,28.8-40.61,6.93-39.23-10.69.68-11.12,15.05-16.99,23.17-3.58,4.95-17.31,17.82-23.08,18.91-26.17,4.9-27.77-6.7-23.97-27.97,2.67-14.96,17.4-74.15,25.76-83.23,6.4-6.95,15.89-10.19,25.3-8.67-44.89,39.55,31.5,56,30.09,11.05-1.09-34.71-54.09-37.05-71.09-11.1-14.77-15.6-28.4-19.94-49-15.97-21.78,4.2-36.01,16.88-46.36,36.64-2.37,4.52-9.79,18.59-2.34,21.06,17.76,5.89,18.9-18.77,29.63-29.77,3-3.08,15.44-11.22,19.07-11.93,11.32-2.2,23.94,1.83,24.04,14.93.16,20.12-19.18,71.58-26.04,93.07-.04.13-1.68.43-2,2-.12.58-.03,1.38,0,2-7.3,6.87-13.67,9.43-23.99,7.98-.23-3.15,4.11-2.4,6.07-4.89Z" fill="#29a8ee"/><path d="M3314.03,377.99l7.93-17.12,5.85,1.35c-.86,13.1,2.29,24.77,5.83,37.16.4,1.4,4.16,6.61-.64,6.57-7.93-.06-8.87-18.07-11.04-23.94-3.44-.55-1.59,3.84-3.03,5.92-5.02,7.27-12.03-3.92-10.97-9.93-5.46,1.57-7.78,20.37-10.08,21.91-1.85,1.24-7.25-.48-7.89-3s14.94-29.06,12.01-36.92c10.25-1.48,9.72,10.9,12.01,17.99Z" fill="#29a8ee"/><path d="M2997.55,358.42c6.89-.27,20.56,7.9,22.03,15.05,2,9.74-9.51,23.94-19,26.1-34.08,7.76-31.28-40.04-3.03-41.15ZM2995.46,366.36c-14.55,4.26-19.03,26.65-2.31,27.62,22.89,1.32,24.99-34.26,2.31-27.62Z" fill="#29a8ee"/><path d="M3096.02,398l1.97,25.99c-7.83,9.01-11.28-36.13-5.79-44.78,11.51-18.12,43.26,17.77,13.86,21.98-4.79.69-6.24-1.37-10.04-3.19ZM3099.24,382.16c-1.82.56-3.67,2.74-3.33,4.85,16.22,24.09,19.37-9.76,3.33-4.85Z" fill="#29a8ee"/><path d="M3469.99,401.99l-7.04-1.94-.97-12.05c-5.78,5.24-9,4.15-15.97,2.01v10.99c-8.73,4.84-6.79-22.51-5.06-25.04,6.29-9.2,11.95,10,14.05,10.01l7.11-13.88,5.99.81c4.92,3.65-2.59,22.09,1.89,29.1Z" fill="#29a8ee"/><path d="M3410,390.02c3.4,12.15,13.44,7.85,22.97,5.95,5.29,8.22-9.36,9.63-15.28,8.93-20.44-2.41-14.97-27.44-.23-30.55,20.73-4.37,13.21,26.03-7.46,15.67ZM3423.99,380.01c-4.95-.51-10.53-.15-9.98,5.98,4.95.51,10.53.15,9.98-5.98Z" fill="#29a8ee"/><path d="M3258.01,373.99l1.03,26.02c-3.58,5.77-7.91-1.86-7.13-5.94l-19.89,7.92c-1.42-7.02,4.45-9.11,9.97-10.02.41-3.72-5.2-1.28-7.15-3.8-7.65-9.85,15.93-16.83,23.18-14.19ZM3251.99,380.01c-.53-.54-12.21.13-11.98,3.97l11.98,2.01v-5.98Z" fill="#29a8ee"/><path d="M3371.99,399.99c-6.42,1.4-5.82-2.01-8.98-5.96-22.5,22.86-33.01-11.9-11.5-17.56,15.35-4.03,18.73,11.73,20.48,23.51ZM3359.99,382.01c-7.59-1.22-14.63,4.12-13.98,11.98,9.09.68,14.61-2.26,13.98-11.98Z" fill="#29a8ee"/><path d="M3641.99,399.99c-7.95,2.57-6.43-7.48-10.92-5.93-17.26,20.53-33.69-7.83-12.56-16.53,17.87-7.36,19.79,9.46,23.48,22.46ZM3629.99,382.01c-17.07-4.31-18.67,20.07-4.85,10.13,1.67-1.2,6.2-8.92,4.85-10.13Z" fill="#29a8ee"/><path d="M3227.99,399.99c-7.95,2.57-6.43-7.48-10.92-5.93-17.26,20.53-33.69-7.83-12.56-16.53,17.87-7.36,19.79,9.46,23.48,22.46ZM3215.99,382.01c-17.07-4.31-18.67,20.07-4.85,10.13,1.67-1.2,6.2-8.92,4.85-10.13Z" fill="#29a8ee"/><path d="M3552.02,390c22.31-28.64,15.87-12.84,15.97,12.01h-5.98s-.03-12.01-.03-12.01c-5.63,1.83-7.88,14.1-14.92,11.98-5.86-1.77-1.54-11.38-1.44-14.98.11-3.89-5.31-16.53,5.44-11.06l.96,14.06Z" fill="#29a8ee"/><path d="M3583.99,371.99l.02,10c1.86,2.2,18.32-15.4,19.98-6.96,1.13,5.71-11.58,8.46-12,9.99-1.21,4.35,7.45,4.01,10.16,7.83,2.11,2.97,2.13,5.69,1.84,9.13-7.06-.74-9.26-9.24-16.99-10.02-6.72-.67,1.59,11.3-8.98,8.04v-28.02s5.98,0,5.98,0Z" fill="#29a8ee"/><path d="M3510,399.98c-7.11,1.19-7.81-.4-11-5.95-16.75,19.99-35.05-6.68-12.5-16.52,16.29-7.1,19.13,11.45,23.49,22.46ZM3498,382.02c-8.4-1.46-16.49,2.86-15.99,11.97,10.55,1.67,13.27-2.91,15.99-11.97Z" fill="#29a8ee"/><path d="M3063.99,371.99l.02,10c1.82,2.17,18.5-15.43,19.98-6.96.68,3.88-8.7,8.33-11.97,9.01l1.23,4.13c4.62-.19,15.88,10.54,7.72,13.81-3.57,1.43-3.23-3.74-6.17-5.71-2.68-1.8-6.59-3.5-9.77-4.31-1.74.08-.86,9.89-7.02,8.03v-28s5.98,0,5.98,0Z" fill="#29a8ee"/><path d="M3131.99,374.01l-1.97,9.99c5.48-2.94,11.14-2.67,16.64-.15,12.61,13.7-18.28,26.33-22.26,12.75-1.69-5.79-3.01-25.68,7.59-22.59ZM3141.99,388.01c-6.51-.62-13.51-.62-11.98,7.98,6.51.62,13.51.62,11.98-7.98Z" fill="#29a8ee"/><path d="M3052.02,374.01v5.98s-12.03,0-12.03,0c4.02,30.53-14.14,27.69-5.99.03l-12.01-.03v-5.98c10.75-2.61,19.31-1.28,30.03,0Z" fill="#29a8ee"/><path d="M3194.02,374.01v5.98s-12.03,0-12.03,0c3.35,26.55-10.91,31.55-6.81,1.87l-11.14-4.86c8.88-8.5,19.62-3.15,29.97-2.99Z" fill="#29a8ee"/><path d="M3402.02,374.01v5.98s-12.03,0-12.03,0c-1.34,1.31,3.42,23.8-4.96,22-5.89-1.26,1.01-17.43-1.02-21.99l-11.97-3c8.94-8.52,19.56-3.14,29.98-2.99Z" fill="#29a8ee"/><path d="M3539.99,379.99h-14s-.33,18.67-.33,18.67l-5.64,3.34v-22s-10.02,0-10.02,0l.02-5.94c1.75-2.17,30.83-4.01,29.98,5.94Z" fill="#29a8ee"/><path d="M3159.99,375.99c-.9,8.9,3.41,20.03-4.99,25.97-7-6.66,1.35-17.42-.99-25.97h5.98Z" fill="#29a8ee"/><path d="M718.03,397.99c2.68.59,2.26-2.08,2.93-4,4.98-14.32,8.13-29.8,13.55-44.48,3.39-9.17,13.77-37.02,18.54-43.46,6.66-9,23.55-7.62,27.92,1.98,5.1,11.22-12.58,40.19-16.99,52.94-7.15,20.68-12.28,62.65-26.89,77.11-10.6,10.49-26.16,11.3-33.17-2.98-14.46-61.33-43.22-119.73-51.9-182.09l-3.97-.99c-27.06,50.58-57.02,99.41-81.76,151.27-15.65,32.81-38.1,104.09-67.62,122.38-36.48,22.6-62.96-35.08-71.19-62.14-15.68-51.58-14.31-110.55-24.47-163.51-36.56,48.51-60.3,104.25-74.85,163.15-3.39,13.73-9.15,58.58-13.72,66.28-6.74,11.36-23.36,7-26.01-4.87-1.92-8.57.46-28.02,1.6-37.54,7.48-62.45,48.79-147.89,83.91-200.09,22.55-33.52,49.07-42.6,62.62,3.5,19.32,65.74-3.47,145.39,40.7,203.43,3.91.98,5.54-1.36,7.64-3.97,11.88-14.78,24.61-47.09,34.75-65.24,24.07-43.07,50.41-84.93,73.39-128.61,12.62-23.99,23.52-54.62,37.35-76.65,9.89-15.74,25.81-25.46,42.29-11.08,17.03,14.85,23.49,86.73,28.26,111.74,4.99,26.12,10.26,52.25,17.07,77.94Z" fill="#cc7275"/><path d="M684.02,90c-3.04,4.39,5.34,17.81-1.02,21.96-6.35-.27-9.01-38.91,2.41-41.63,18.01-5.44,25.89,30.96-1.39,19.67ZM695.99,85.99c1.11-7.19-6.5-14.02-11.98-6.96.67,5.96,6.98,7.79,11.98,6.96Z" fill="#cc7275"/><path d="M769.99,71.98l-11.98,3.01c3.59,4.45,22.89,8.85,17.12,17.12-7.45,5.55-24.26,5.5-23.12-6.1,1.47-1.59,14.64,5.64,15.97.02-4.88-1.64-22-6.33-17.08-14.12,1.98-3.14,20.4-10.48,19.09.07Z" fill="#cc7275"/><path d="M460.01,90.01c-3.33,5,6.33,18.59,1.99,21.01-3.29,1.83-5.56-6.05-5.87-8.15-.93-6.3-1.83-28.99,4.35-31.56,20.89-8.68,26.57,29.63-.46,18.69ZM473.99,85.99c-1.14-17.05-19.52-8.13-8.71-.11l8.71.11Z" fill="#cc7275"/><path d="M488,84.02c4.08,9.14,8.88,4.71,15.22,4.18,2.99-.25,5.56-1.61,4.76,2.77-8.87,7.94-19.7,5.81-25.69-4.42-1.22-4.52.98-8.15,3.68-11.58,15.26-19.41,30.57,12.36,2.03,9.05ZM497.99,74.01c-3.64-.65-6.62,2.2-5.98,5.98h5.98s0-5.98,0-5.98Z" fill="#cc7275"/><path d="M559.49,81.51c-4.18,4.02-13.42-.45-13.47,5.46,5.43,6.7,13.19.21,19.97,1.04,5.74,5.09-21.77,13.15-25.64.59-2.48-8.5,2.61-18.07,11.5-19.65,5.98-1.07,13.27,7.14,7.64,12.56ZM555.99,74.01c-12.1-.72-9.61,11.97-.01,2.96v-2.96Z" fill="#cc7275"/><path d="M646.45,74.42c7.39-9.5,30.11-2.36,27.33,8.17-3.79,14.37-35.82,14.03-27.33-8.17ZM652.15,85.85c2.21,3.13,17.1.89,15.84-4.82-2.07-9.35-22.56-4.7-15.84,4.82Z" fill="#cc7275"/><path d="M414.02,81.99c5.84-2.83,5.59-14.19,13.97-12l-2.02,24-3.99-9.99c-5.08,2.49-7.21,9.44-13.97,7.99l-1.92-18.81,6.98-1.25.95,10.06Z" fill="#cc7275"/><path d="M347.99,91.99c-5.25,1.76-5.36-5.53-6.04-5.99-.84-.58-10.19,10.44-18.78,4.21-4.86-26.7,26.6-26.25,24.81,1.78ZM337.99,76.01c-4.43-2.48-14.37,7.87-11.98,9.98,7.07.95,12.88-2.15,11.98-9.98Z" fill="#cc7275"/><path d="M302.14,77.88h7.72c.1-4.56-.14-10.48,6.13-9.87v25.98c-7.16.44-6.23-6.94-6-11.98l-7.69,2.34-.3,7.67h-5.98s0-26.02,0-26.02c5.17,1.73,6.33,7.04,6.12,11.88Z" fill="#cc7275"/><path d="M731.99,91.99c-5.25,1.76-5.36-5.53-6.04-5.99-.81-.56-12.3,10.51-18.09,5.14-13.92-9.92,22.81-40.31,24.12.85ZM721.99,76.01c-4.43-2.48-14.37,7.87-11.98,9.98,7.07.95,12.88-2.15,11.98-9.98Z" fill="#cc7275"/><path d="M359.99,69.99l.03,12.01c6.08-2.22,6.69-12.31,13.97-11.99-1.04,7.58,2.91,17.94-3.02,23.97l-2.99-9.98c-5.02,2.42-7.17,9.43-13.97,7.99v-22s5.98,0,5.98,0Z" fill="#cc7275"/><path d="M599.99,69.99l.03,12.01,13.97-11.99c-.4,3.9,1.8,23.95-2.99,23.95l-3.02-9.96c-5.02,2.42-7.17,9.43-13.97,7.99v-22s5.98,0,5.98,0Z" fill="#cc7275"/><path d="M789.96,85.99l6.05-15.99c9.96.37,4.89,14.84,5.97,21.99-4.3.82-5.46-2.58-6.04-5.99l-10.66,5.68c-10.01-5.29-7.2-12.48-5.28-21.68,12.47.41-2.48,15.59,9.95,15.98Z" fill="#cc7275"/><path d="M533.99,91.99c-10.92.82-1.81-16.18-9.01-16.03-11.7.25-3.37,9.92-9.98,16-4.45-.05-2.82-16.5-3.01-19.97l20.07-1.14,1.93,21.14Z" fill="#cc7275"/><path d="M402,73.99l-9.14,1.87-.87,16.15h-5.98s-.02-18.02-.02-18.02l-4.97,1.24-3.01-5.21c1.11-1.55,25.79-5.99,23.99,3.97Z" fill="#cc7275"/><path d="M643.99,70.03c1.83,7.58-7.95,1.43-11.14,5.83-3.84,5.3,5.7,14.74-3.82,16.13l-1.18-14.77-1.78-2.27c-4.36.65-8.53,1.14-8.06-4.93,8.72-2.89,17.27-2.93,25.98,0Z" fill="#cc7275"/><path d="M589.99,70.03c2.17,7.38-8.52,2.49-10,3.96l-.33,14.67-5.64,3.33-.02-18c-3.99,1.28-7.47,2.94-7.98-2.96,1.12-5.39,19.65-2.88,23.98-1Z" fill="#cc7275"/><path d="M362.28,61.79c4.59,3.05,9.05-8.86,11.71-5.78s-5.82,13.76-10.55,11.67c-11.1-.79-6.74-19.76-1.17-5.9Z" fill="#cc7275"/><path d="M432.01,79.99c-1.42-9.36,19.95-6.76,19.95-2.99-4.9,5.56-13.53,2.2-19.95,2.99Z" fill="#cc7275"/><path d="M741.03,84.01c6.61-1.47,7.02,12.4-2.01,9.97-5.51-1.48-1.31-9.23,2.01-9.97Z" fill="#cc7275"/><path d="M226.01,1081.99l146.64-104.34c44.43-15.89,52.58,35.23,38.32,66.32l-24.95,46.03c29.51-13.24,69.38-41.64,101.51-45.5,69.68-8.37,33.17,101.4,14.47,133.48,34.66-11.4,70.39-21.76,103.35-37.63,16.01-7.71,52.49-34.85,64.13-37.85,26.09-6.72,37.01,19.21,15.19,35.17-30.34,22.19-140.89,75.16-177.11,84.89-15.77,4.24-35.98,6.72-45.63-9.49-21.51-36.14,22.18-85.05,22.06-123.06-2.22-2.41-53.36,24.25-59.33,27.65-20.99,11.95-79.17,57.88-97.75,58.46-2.41.08-4.74.12-6.91-1.11-5.72-2.78-11.79-27.82-11.8-34.26-.01-10.15,15.76-36.03,21.46-46.1,11.94-21.07,26.42-40.58,38.33-61.67l-2.96-.97c-49.21,32.66-94.97,81.17-145.19,110.82-13.97,8.25-40.05,23.35-51.61,3.93-9.03-15.16,1.27-26.54,4.83-40.71,13.33-53.1,38.35-97.52,64.65-145.35l26.03-65.31c-3.29-13.49-34.45,1.56-41.78,5.56-21.17,11.55-64.25,51.69-78.79,71.21-8.48,11.38-16.8,40.5-36.23,25.87-13.12-9.88-1.87-28.85,4.02-40.08,21.56-41.09,74.73-89.6,118.51-105.49,20.69-7.51,38.62-9.96,56.54,4.5,31.75,25.61,16.22,61.64,4.01,94.06-17.12,45.49-46.99,85.22-64.03,130.95Z" fill="#cc7275"/><path d="M245.99,767.99l-8.73-3.84c-15.12,12.22,9.54,10.35,18.47,9.58l4.13-14.87,16.15-.87,1.05,28.06-5.04,1.95-1.86-7.13c-7.54-2.34-14.79-2.19-14.25,7.07l-5.9.07v-8.03s-20.01-.98-20.01-.98l-3.65-4.43c-4.14-13.88,21.75-26.44,19.65-6.59ZM269.99,763.99l-7.94.03-2.05,11.96,10.01.03-.02-12.02Z" fill="#cc7275"/><path d="M500.26,757.75c1.56,2.22,9.86-.92,9.56,11.03-.31,12.57-8.24,9.46-9.55,11.48-2.3,3.52,3.49,17.36-3.23,17.72-4.97-3.34.55-14.29-3.42-17.61-2.27-1.9-12.25,1.19-11.63-9.2.55-9.2,10.4-11.43,11.61-13.57,1.9-3.36-1.9-10.36,3.42-13.56,5.38,2.94,1.55,11.29,3.26,13.71ZM500.02,776c6.41-2.55,5.76-14.57-2.01-13.99l2.01,13.99ZM493.99,764.01c-7.16-.5-6.27,7.26-5.98,11.99h5.98s0-11.99,0-11.99Z" fill="#cc7275"/><path d="M460.02,778l1.97,21.99c-7.04,7.98-15-39.27,1.48-41.65,18.81-2.72,19.09,33.36-3.45,19.66ZM471.99,775.99l-1.85-9.13c-16.05-3.23-10.58,9.95,1.85,9.13Z" fill="#cc7275"/><path d="M368.16,777.85l17.82-1.84-.14,5.81c-37.7,14.82-25.99-31.91-7.86-22.88,11.02,5.49-1.36,20.49-11.01,13.1l1.19,5.8ZM375.99,764.01c-3.73-.52-6.92,0-7.99,3.97h7.99s0-3.97,0-3.97Z" fill="#cc7275"/><path d="M412.01,779.99c-1.19-8.73,14.13-.05,17.98-7l-14.01.09-1.98-5.07,11.98-3.99-11.06,1.7c-8.36-11.25,12.4-9.53,18.01-1.67,11.31,15.86-9.16,17.38-20.93,15.94Z" fill="#cc7275"/><path d="M320.02,770c3.86.74,10.01-15.47,13.01-10.03,2.11,3.81,2.39,18.57-2.06,22.01l-2.99-9.98c-5.43,3.03-5.87,11.84-13.97,9.99.76-6.32-1.28-14.81.26-20.72,2.16-8.25,8.33,3.69,5.75,8.73Z" fill="#cc7275"/><path d="M307.99,779.99c-5.13.76-5.13-.03-7-4.06-29.14,18.81-21.45-24.97-.98-14.95,4.46,2.18,8.01,13.99,7.99,19.02ZM297.99,766.01c-4.08-1.34-12.95,2.19-11.98,6.96,1.49,7.33,15.06-1.6,11.98-6.96Z" fill="#cc7275"/><path d="M407.98,764c-18.02-7.76-7.84,9.12-14.98,17.96-7.25-6.91.86-17.38-1-25.97l14.05.96,1.93,7.05Z" fill="#cc7275"/><path d="M321.47,746.72c.43.25.67,3.27,1.56,3.37,5.04.57,6.28-4.46,10.96-4.09,1.2,13.36-21.12,14.9-17.98,0,1.95-.05,3.61-.4,5.46.71Z" fill="#cc7275"/><path d="M357.99,764.01c-.22,9.61-13.38,5.13-20,5.98l1.25-6.15c6.07-2.58,12.37,1.17,18.75.17Z" fill="#cc7275"/><path d="M443.02,774.02c6.8-1.83,9.18,6.55,3.96,7.96-6.8,1.83-9.18-6.55-3.96-7.96Z" fill="#cc7275"/></svg>