<?xml version="1.0" encoding="UTF-8"?><svg id="a" xmlns="http://www.w3.org/2000/svg" width="1782.74" height="766.92" viewBox="0 0 1782.74 766.92"><path d="M1310.52,632.36l212.01,8-6-27.99,12.03,8.95,9.94,13.03c.27-13.33,1.04-25.42-3.97-37.98,2-2.1,11.72,10.27,12.89,12.08,2.32,3.58,4.33,15.45,8.07,13.89,5.66-2.37,20.77-41.18,35.02-41.97l-16,44.94c5.61,7.66,12.82-6.04,18.14-9.82,2.06-1.47,14.7-8.29,15.87-7.11-3.29,13.28-17.15,22.99-15.15,38.09l43.94,5.46,4.78-5.01,6.41-18.53,7.03,23.94c4.76-.05,16.57-54.33,15.02-61.95l5.47,15.5,4.48,32.48c3.01-15.35,11.06-28.6,19.19-41.82,4.93-8.01,12.91-20.14,18.88-27.12,1.39-1.62,7.91-9.2,9.95-7.03-9.47,29.54-26.68,56.46-29.98,87.98,3.13,3.41,13.11-11.89,14.7-13.28,7.08-6.24,16.15-10.3,25.28-12.7,3.55,3.41-14.96,15.73-16.08,17.41-1.42,2.12-6.84,19.63-5.92,20.57,27.71,3.3,85.9,17.6,24.02,33.02-98.63,24.58-233.97,26.01-336.99,31.01-305.71,14.85-614.08,14.15-919.94,3.9-135.46-4.54-286.84-6.91-419.83-30.17-8.71-1.52-51.44-8.53-48.91-20.45s59.74-19.8,71.66-21.3c-2.83-14.79-12.9-26.61-22.01-37.97,7.42-3.14,33.48,20.66,35.99,17.97-6.24-29.31-17.83-56.82-29.98-83.98,3.39-3.36,19.22,16.17,21.65,19.33,11.32,14.74,24.53,36.85,28.36,54.65,3.29.53,1.87-2.69,1.99-4.95.79-14.32-.17-33.73,9.97-45.04l12.05,69.98,4.95-23,4.04-4.98c7.88,26.39,6.89,31.76,36.98,25.98l-11.98-27.98c3.19-3.13,24.78,17.27,29.98,17.98,1.75-2.01-8.05-30.25-9.95-35.03-2.48-6.23-6.08-10.9-8.03-16.95,23.32,9.1,32.81,35.91,40.01,57.98,5.74-2.64,3.82-13.74,5.33-17.99.64-1.8,9.82-19.25,10.68-19.98.38-.32,3.82-.75,3.99,1.01.8,8.26-4.6,23.17-2,32.97,3.15-.33,3.04-4.6,5.87-7.1,2.47-2.17,8.06-6.36,11.09-6.93,8.88-1.68-6.56,12.51-2.97,16.02l59.99-1.99c1.2,6.85-7.19,20.09-3.67,25.69,2.89,4.61,71.96,29.66,82.74,32.43,9.39.21,8.03-8.53,4.67-14.87-4.44-8.38-35.79-25.99-37.74-39.25-.25-1.72,1.66-5.68,2-8l70-2c-.39,3.08.64,7.35,0,10-.06.24-3.11,1.01-3.58,3.34-1.01,5.09-4.24,27.91-.15,30.39l88.73,2.27c6.16-.55,6.16-7.17,3.97-11.97-3.61-7.94-43.84-18.05-52.97-26.03v-10l285.99-6.01-10.97-28.01c7.86-1.39,29.5,31.93,32.97,28.01l-2.97-30.01c5.28,1.72,9.6,8.97,12.61,13.39,2.67,3.93,9.64,21.2,14.36,16.64,3.26-3.14-4.8-51.83-5.97-60.01,10.44,9.5,17.58,28.05,19.98,42,1.36,7.9.71,17.48,2.55,26.45.69,3.38,7.18,25.16,8.47,25.53,6.97,2.02,6.25-6.07,8.92-9.04,1.95-2.18,5.3-2.96,6.98-5.02,4.05-4.98,5.83-21.77,15.07-16.75,2.43,7.27.17,24.89,3.91,29.94,5.24,7.09,8.82-1.94,12.11-7.11,9.24-4.92,13.24,4.93,22,6,.64.08,1.35,0,2,0-2.16,6.18,6.74,5.06,7.94.78.36-1.29-1.93-2.53-1.94-2.78-.08-3.27.32-6.81,0-10,11.26-7.79,10.62,30.67,20,6,.66-1.73,1.11-3.7,2-6,4.25.48,4.48.25,4-4,.32-.3-.18-2.8,0-4,3.83.68,4.65-.19,4-4,.61-.58,1.45-2.88,2-4,4.1.57,4.59.1,4-4,.47-.66.68-2.27,2-4l6,4c-4.43,3.71-4.91,22.14-6,24-.11.18-3.48-.78-4.04,1.31-1.25,4.68.44,11.64,6.03,10.69.41-1.69-.52-4.97,0-6,2.77-5.39,10.11-4.9,14-18,1-3.36,5.47-6.73-2-6-.13-2.66.14-5.35,0-8-.38-7.19-1-9.93,0-18,1.22-9.78,6.74-24.27,12.33-32.67,1.36-2.04,3.14-4.76,5.65-5.33-1.16,18.77-5.71,37.03-3.97,55.99,4.79,1.12,3.24-.85,4.45-2.61,6.31-9.15,11.68-19.31,21.52-25.38.07,4.84-6.08,27.92-3.97,30,4.23,4.18,15.56-14.8,18.9-18.1,3.51-3.47,9.58-7.63,14.07-9.93l-8.97,28.01,269.99,6.01c-.1,1.99.02,4.01,0,6,1.79,1.57,15.59-2.4,18-4ZM1677.52,640.36v2c1.3-.67,1.3-1.33,0-2Z" fill="#7aa77d"/><path d="M556.52,414.36c.76,8.32-2.09,50.38,1.87,53.13l277.09.85c2.95-1.51,13.55-1.28,14.74-2.27.56-.47,3-9.6,5.48-13.52,20.38-32.19,72.51-22.04,80.03,15.94l272.78-.13,2-2c1.43-17.18-1.94-37.22,0-54,1.08-9.34,4.89-11.82,14.67-9.62,2.87.64,4.92,3.53,5.33,3.62,1.32,18.69-1.8,39.62,0,58,.11,1.17-.53,2.52.33,3.61l31.2,13.95c2.27.21,3.74,4.06,4.48,4.44l1.99,17.99c-10.64.07-21.35-.06-31.99.01-97.96.68-196.04-.51-294,0l18,99.99c-4.95,4.72-8.16,10.98-12,16-1.32,1.73-1.53,3.34-2,4-.22.31-.78-2.53-4,4-.55,1.12-1.39,3.42-2,4-1.46,1.39-2.86-3.46-4,4-.18,1.2.32,3.7,0,4-1.66,1.56-1.23-3.16-4,4-.89,2.3-1.34,4.27-2,6-11.38,5.66-7.38-3.51-11.6-11.41-1.21-2.26-5.43-7.76-7.43-8.58-6.92-2.81-1.05,13.18-.97,13.98.32,3.19-.08,6.73,0,10-1.79.94-3.97,1.98-6,2-.65,0-1.36.08-2,0-.01-7.8-14.66-14.67-20.14-11.11-1.94,1.26-1.3,4.23-1.86,5.11-3.29,5.16-6.86,14.19-12.11,7.11-3.73-5.04-1.48-22.67-3.91-29.94-9.24-5.02-11.02,11.77-15.07,16.75-1.68,2.06-5.02,2.85-6.98,5.02-2.68,2.98-1.96,11.07-8.92,9.04-1.29-.37-7.78-22.15-8.47-25.53-1.84-8.97-1.19-18.55-2.55-26.45l20-101.99c-108.58-1.47-217.44,1.94-326,0-16.63-.3-33.3-1.57-50-2,5.44-9.47,14.66-23.35,16-34,13.93-.46,28.08.63,42,0,3.32-.15,6.69.13,10.01.01v-72.01c3.75-.02,9.86-4.7,16.03-1.03,3.39,2.02,5.56,14.68,5.96,19.03ZM887.99,468.71c-18.26,3.74-15.1,38.7,9.08,33.26,19.2-4.32,12.18-37.61-9.08-33.26Z" fill="#b58a5b"/><path d="M376.52,138.36c3.77,6.57,8.94,14.48,14,20,.98,8.41,4.65,10.02,12,12,1.1.3,2.75-.23,4,0,1.67,6.36,3.83,15.24,12,14,0,.67,0,1.33,0,2-3.01.28-3.01,5.72,0,6,0,.67,0,1.33,0,2-.21,20.24-6.44,51.66-3.88,68.88.89,5.99,13.84,42.69,17.05,46.95,30.78,17.59,61.05,36.1,90.96,55.1,3.56,2.26,4.97.94,3.87,7.07-5.78,3.45-8.81,11.7-10,18-15.46,1.86-18-.08-33.92-5.08-32.43-10.17-66.46-22.58-96.08-38.92.22-7.39-9.4-13.97-13.65-21.35-9.91-17.22-17.77-38.87-27.32-56.68-2.4-4.47-5.06-11.06-9.03-13.97v33c0,9.35,12.31,49.1,16.47,59.53,5.68,14.24,13.67,24.61,21.53,37.47-4.39,1.84-12.96,6.81-16,10-.65.09-1.36-.11-2,0-16.74,2.97-33.81,10.75-50,16-1.33.06-2.68-.1-4,0-2.13.16-4.15.96-6,2-1.24-.16-2.72-.04-4,0-3.48.11-3.78,1.96-4,2-1.26.21-2.73-.2-4,0-2.06.32-4.98-.79-6,2-2.62-.21-5.36.02-8,0-4.93-.03-9.34.36-14,2-1.99-.12-4.02.15-6,0-5.93-.44-12.05.3-18,0-4.42-4.36-6.83.98-5.98-12.95,4.68-77.22,49.26-215.84,120.64-255.39,8.27-4.58,24.69-8.58,29.34-11.66Z" fill="#5d85af"/><path d="M482.52,468.36c-1.34,10.65-10.56,24.53-16,34-7.25,12.61-17.83,23.8-22,38l-61.02,89.99c-3.62,4.06-8.71.93-12.98,0-10.98-2.36-20.94-7.99-32-10-2.18-3.25-5.27-5.84-3.19-10,15.44-33.02,32.26-65.59,47.64-98.61,1.67-3.58.95-8.08,1.55-9.39.77-1.67,13.6-18.86,12-19.98-23.53-2.89-47.41-3.48-70.98-6.04-18.57-2.01-38.72-6.82-57.02-7.98-7.64-6.62-15.71-7.72-22.85-16.15-9.84-11.63-7.73-17.9-11.15-29.85,5.98-1.07,17.77,3.32,16-4,1.98.15,4.01-.12,6,0,.18.01-.3,1.59,2.98,1.94,5.26.56,12.81,1.88,11.02-3.94,2.64.02,5.38-.21,8,0,1.75.14,6.99,6.13,6-2,1.27-.2,2.74.21,4,0,3.1,3.69,4.75,2.52,4-2,1.28-.04,2.76-.16,4,0,2.04.25,6.93,6.06,6-2,1.32-.1,2.67.06,4,0,13.79-.58,28.19-5.85,42.05-10.94,3.07-1.13,6.66-1.23,7.95-5.06.64-.11,1.35.09,2,0,3.55-.48,7.96-2.09,10.98-2,11.3.36,85.26,27.34,95.68,34.33,14.15,9.49,19.43,25.03,17.34,41.66Z" fill="#88513f"/><path d="M1348.52,294.36c19.11,3.27,28.36,47.62,31.42,63.58,3.92,20.49,12.73,67.91,9.68,86.51-1.06,6.5-5.79,18.23-9.1,23.9-8.54,14.64-14.4,17.53-22,36-1.22,2.97-5.38,15.61-7.35,16.1-6.3,1.54-29.54-7.08-36.65-10.1-14.25-6.06-33.6-16.64-48-24-.73-.38-2.21-4.22-4.48-4.44l-31.2-13.95c-.86-1.09-.21-2.44-.33-3.61,9.87-3.63,15.94-14.33,24.17-20.83,17.74-14.02,46.11-20.87,41.83-49.17,17.45-3.74,17.69-3.98,30.05-16.95,11.8-12.37,39.15-44.44,27.06-61.17-11.59-16.04-24.91,2.72-31.94,12.29-5.6,7.62-12.21,23.48-17.17,28.83-1.86,2.01-2.82,3.67-6,2.98l1.99-39.99c3.46-5.56,5.38-17.7,14-18,2.13-.07,4.97,1.96,8.49,1.57,7.59-.84,20.78-10.37,25.51-9.57Z" fill="#ecc861"/><path d="M1560.52,440.36c-1.34,8.74-3.41,17.54-6,26-3.95.76-21.79,13.17-28.65,16.35-13.45,6.25-35.94,10.12-45.86,16.15-2.41,1.46-4.64,2.53-5.49,5.49,1.38,9.82,6.95,67.66,3.48,71.61-.79.9-3.33.2-3.48.39-7.64,1.64-17.61.66-24,4-.15-.22-3.25-.06-4.88-2.03-5.21-6.28-11.09-56.32-13.12-67.97-.47-2.69-.77-5.5-3.98-6-.12,1.98.08,4.01-.02,6-.43,8.33,1.4,55.44-.51,57.61-.79.9-3.36.2-3.49.39h-26c-.12-.28-2.83-.83-3.54-3.38-4.93-17.61-3.81-42.23-4.46-60.62.28-.01,2.26-1.95,4.84-2.08,5.3-.26,32.02,1.29,33.17.09.64-.67.57-13.09,2.6-18.4,2.36-6.17,8.37-9.34,9.38-15.6-18.73,2.94-13.72-8.6-13.99-22.01,8.17-2.18,31.5-17.84,38-18,2.3-.06,18.54,7.39,24.31,8.69,23.48,5.3,47.8,2.73,71.69,3.31Z" fill="#4b6978"/><path d="M1526.52,296.36c10.78-.55,18.95,9.14,22.99,18.01,10.69,23.41,14.91,100.51,11.01,125.99-23.9-.58-48.21,1.99-71.69-3.31-5.77-1.3-22.01-8.75-24.31-8.69l2-26c30.85-2.67,43.55-3.07,58-33.96l-24.8-13.92c-9.1,15.14-12.81,25.45-33.19,25.87-1.62-11.17,6.01-28.67-10.01-29.99.07-.63-2.14-3.23-1.91-5.15,1.06-8.86,8.39-25.52,15.91-30.85,7.28-.76,10.53-10.64,17.46-11.7,4.93-.76,9.35,4.66,17.35,3.65,7.85-.99,13.97-9.58,21.19-9.95Z" fill="#cd4f49"/><path d="M1290.52,236.36c-10.84-32.82,37.43-44.79,60.12-33.12,6.25,3.21,13.75,13.89,17.33,14.84,8.67,2.3,19.87-7.81,32.42,5.42,13.23,13.94-.73,39.74,2.6,57.51,1.13,6.06,15.89,14.17,13.52,17.34-10.91,3.55-27.77,3.6-36.02-5.52-16.4-18.13,3.88-37.26-6.98-56.45-3.03,15.69-7.52,41.85-26.99,43.99-.2-.27-4.47-.51-6.15-2.76-5.35-7.19,1.7-18.8.16-27.24-13.65,3.23-28.34-10.85-36.1-20.97-2.23-2.9-1.37-10.9-6.07-5.77-.5.55-7.61,12.03-7.84,12.74Z" fill="#5e463f"/><path d="M478.52,80.36c-11.21,2.63-26.81-5.02-38.59-1.58-8.96,2.62-9.5,19.31-14.44,21.57-4.21,1.92-3.52-6.96-6.94-9.02-15.22-9.19-11.03,13.03-12.46,19.61-1.92,8.8-15.23,14.55-23.57,15.43,3.2-23.94-20.65-56.59,1.14-77.86,1.38-1.35,19.16-15.13,20.31-15.69,20.91-10.16,45.82,3.21,64.94,10.15,9.99,3.63,25.08,1.17,23.25,17.85-.62,5.63-8.04,18.23-13.64,19.54Z" fill="#5e463f"/><path d="M1296.52,394.36c-8.42,1.8-62.51,12.8-66,12-.4-.09-2.45-2.98-5.33-3.62-9.78-2.19-13.59.28-14.67,9.62-13.06-4.47-19.57-14.28-8.89-25.89,7.25-7.88,15.64-4.5,23.41-6.59,8.88-2.39,42.62-15.89,49.4-20.6,6.41-4.45,20.82-30.47,26.07-38.93l-1.99,39.99c3.18.69,4.14-.97,6-2.98,4.96-5.35,11.57-21.21,17.17-28.83,7.03-9.57,20.36-28.33,31.94-12.29,12.09,16.73-15.27,48.8-27.06,61.17-12.36,12.97-12.61,13.21-30.05,16.95Z" fill="#dba386"/><path d="M1314.52,510.36l16,78c-7.6,6.57-12.86,11.97-24,10,1.05-9.47-4.58-11.32-7-18-7.09-19.61-14.14-39.01-23.03-57.98-3.2.32-3.76,8.61-3.95,11.01-.69,8.48-1.65,44.81-.02,50.98-6.99,7.74-14.31,4.62-22,6l-14-86c10.64-.07,21.35.06,31.99-.01l-1.99-17.99c14.4,7.36,33.75,17.94,48,24Z" fill="#dba386"/><path d="M478.52,80.36c-2.12,20.44-8.93,78.17-35.53,79.54-5.76.3-17.57-6.07-18.34-5.51s-7.93,16.21-8.12,17.98c-3.48.05-6.67-1.4-10-2-1.25-.23-2.9.3-4,0-.3-5.31-7.18-6.74-12-12-5.06-5.52-10.23-13.43-14-20,2.23-1.48,5.58-8.87,6-12,8.34-.88,21.66-6.63,23.57-15.43,1.43-6.58-2.76-28.8,12.46-19.61,3.41,2.06,2.72,10.94,6.94,9.02,4.94-2.25,5.47-18.95,14.44-21.57,11.78-3.44,27.38,4.21,38.59,1.58Z" fill="#dba386"/><path d="M268.52,468.36c18.3,1.16,38.45,5.97,57.02,7.98,23.57,2.56,47.45,3.15,70.98,6.04,1.6,1.12-11.23,18.31-12,19.98-30.34.13-60.72-.14-91.08-.08-11.96.02-23.82.13-35.84,0-12.94-.14-45.76,2.56-55.67-.33-14.09-4.11-14.78-30.98,7.54-33.63,14.83-1.77,43.56-.94,59.05.05Z" fill="#b58a5b"/><path d="M418.52,194.36c5.94-1.21,3.5,2.98,4.53,6.37,5.21,16.99,26.16,80.26,34.58,91.52,11.19,14.96,65.41,51.68,83.49,64.07,1.77,1.22,1.22,3.91,1.39,4.04-4.84,1.47-5.87,7.77-8.92,10.16s-6.2,1.31-7.08,1.84c1.1-6.13-.31-4.81-3.87-7.07-29.91-19-60.18-37.51-90.96-55.1-3.21-4.26-16.16-40.96-17.05-46.95-2.56-17.22,3.67-48.64,3.88-68.88Z" fill="#4a7595"/><path d="M1456.52,350.36c16.02,1.32,8.39,18.83,10.01,29.99,20.38-.42,24.09-10.73,33.19-25.87l24.8,13.92c-14.45,30.88-27.15,31.29-58,33.96-12.95,1.12-26.93,1.12-40,2-4.04.27-8.67-.8-12.58.4-.92.28-9.22,7.03-9.42,7.6-8.03-.38-13.82-13.33-10.19-19.03,11.28-17.7,59.51-17.36,62.19-42.97Z" fill="#dba386"/><path d="M1468.52,228.36c18.22.98,43.09,1.88,42.01,26,8.63-3.47,19.25-7.08,15.57,6.56-3.02,11.21-6.53,4.72-3.58,21.45.87,4.93,1.4,9.57,4,14-7.22.37-13.34,8.96-21.19,9.95-8,1.01-12.42-4.41-17.35-3.65-6.93,1.07,4.51-1.88,2.56-10.29-24.64,1.04-27.31-23.89-26.08-43.08.39-6.12,4.43-16.96,4.07-20.92Z" fill="#dba386"/><path d="M1426.52,404.36c.21,13.97-.28,28.04,0,42,.27,13.41-4.74,24.95,13.99,22.01-1.01,6.26-7.02,9.43-9.38,15.6-2.03,5.31-1.96,17.73-2.6,18.4-1.15,1.2-27.87-.36-33.17-.09-2.58.13-4.56,2.07-4.84,2.08-10.6.48-21.39-.35-32,0,7.6-18.47,13.46-21.36,22-36,5.32-.05,10.68.07,16,0,3.33-.04,6.68.07,10.01,0,1.9-3.59-1.96-8.81-2.01-9.99-.29-7.22,2.21-13.54,2.13-21-.07-6.61-3.8-20.44-2.13-25,.21-.57,8.5-7.32,9.42-7.6,3.91-1.2,8.54-.13,12.58-.4Z" fill="#b58a5b"/><path d="M1468.52,228.36c-.37-4.03-7.28-12.71-3.9-19.91,20.68-3.78,37.75-15.38,59.32-6.51,2.93,1.21,20.21,14.71,22,16.97,2.24,2.84,4.73,16.44,4.73,20.44-.02,16.52-13.39,35.77-28.14,43-2.94-16.73.56-10.24,3.58-21.45,3.67-13.63-6.94-10.03-15.57-6.56,1.08-24.12-23.79-25.02-42.01-26Z" fill="#b58a5b"/><path d="M1290.52,236.36c.23-.71,7.34-12.19,7.84-12.74,4.7-5.13,3.84,2.86,6.07,5.77,7.76,10.12,22.45,24.21,36.1,20.97,1.54,8.44-5.51,20.05-.16,27.24,1.68,2.26,5.95,2.5,6.15,2.76.76,1,1.83,11.49,2,14-4.73-.81-17.92,8.73-25.51,9.57-3.52.39-6.37-1.64-8.49-1.57,4.84-22.82-19.09-6.36-25.11-25.89-2.07-6.71-1.12-33.31,1.11-40.11Z" fill="#dba386"/><path d="M1474.52,504.36c.85-2.96,3.08-4.03,5.49-5.49,9.92-6.04,32.41-9.91,45.86-16.15,6.86-3.19,24.7-15.59,28.65-16.35,5.09-.98,18.88-.39,24.14.86,20.86,4.95,21.18,35.03-3.04,37.23-32.07,2.92-68.55-2.37-101.1-.1Z" fill="#b58a5b"/><path d="M334.52,634.36c7.55.95,21.89,16.14,34,8,1.94,13.26,33.3,30.87,37.74,39.25,3.36,6.34,4.72,15.08-4.67,14.87-10.78-2.77-79.85-27.82-82.74-32.43-3.52-5.6,4.88-18.84,3.67-25.69,4.37-.57,6.96-4.63,12-4Z" fill="#5c5452"/><path d="M556.52,414.36c-.4-4.34-2.57-17.01-5.96-19.03-6.17-3.68-12.28,1.01-16.04,1.03-5.83.02-13.94-6.49-18-6,1.19-6.3,4.22-14.55,10-18,.89-.53,4.15.46,7.08-1.84s4.08-8.69,8.92-10.16c9.64,7.17,30.23-.99,35.11,21.89,4.68,21.95-5.57,21.43-21.11,32.11Z" fill="#dba386"/><path d="M1476.52,584.36c2.27,5.42,9.58,11.92,4.17,19.14-4.1,5.48-53.43,29.46-51.87,12.2.42-4.67,18.4-21.12,21.7-27.35,9.79,1.73,16.93-2.22,26-4Z" fill="#4b6978"/><path d="M1310.52,632.36c-2.41,1.6-16.21,5.57-18,4,.02-1.99-.1-4.01,0-6,.62-11.86,12.8-21.18,14-32,11.14,1.97,16.4-3.43,24-10,4.77-.18,9.16,7.63,9.64,11.48,1.23,9.77-8.18,10.55-13.7,15.46-4.41,3.93-12.68,14.89-15.94,17.06Z" fill="#4a7595"/><path d="M1424.52,576.36c1.3,5.3,10.6,12.28,2.96,19.97-4.68,4.71-46.95,16.2-50.97,12.02-.02-2.18-.32-4.46.41-6.59,1.08-3.17,20.73-23.32,23.6-23.4,7.15-.21,15.67,5.62,24-2Z" fill="#4b6978"/><path d="M370.52,630.36c-.13,1.3.19,2.73,0,4-.34,2.32-2.25,6.28-2,8-12.11,8.14-26.45-7.05-34-8-.1-4.88.41-10.33,4-14,11.06,2.01,21.02,7.64,32,10Z" fill="#dba386"/><path d="M1424.52,568.36c-.22.33-.26,6.92,0,8-8.33,7.62-16.85,1.79-24,2-.37-3.17-.78-7.11-2-10h26Z" fill="#dba386"/><path d="M1474.52,576.36c-.46.63,1.44,6.67,2,8-9.07,1.78-16.21,5.73-26,4-.43-1.91.61-7.11,0-8,6.39-3.34,16.36-2.36,24-4Z" fill="#dba386"/><path d="M416.52,172.36c-.52,4.68,1.96,8.55,2,12-8.17,1.24-10.33-7.64-12-14,3.33.6,6.52,2.05,10,2Z" fill="#4a7595"/><path d="M1404.52,458.36c.05,1.18,3.91,6.4,2.01,9.99-3.32.07-6.68-.04-10.01,0,.28-4.77,4.16-7.82,8-10Z" fill="#5c5452"/><path d="M250.52,418.36c1.77,7.32-10.02,2.93-16,4-.06-.21-1.84-3.84-2-4,5.95.3,12.07-.44,18,0Z" fill="#714331"/><path d="M1432.52,510.36h-4c.1-1.99-.1-4.02.02-6,3.21.5,3.51,3.31,3.98,6Z" fill="#b58a5b"/><path d="M418.52,192.36c-3.01-.28-3.01-5.72,0-6,.03,2,.01,4,0,6Z" fill="#4a7595"/><path d="M1591.52,576.36c1.3.67,1.3,1.33,0,2v-2Z" fill="#7aa77d"/><path d="M476.52,640.36c9.13,7.97,49.37,18.09,52.97,26.03,2.18,4.81,2.19,11.42-3.97,11.97l-88.73-2.27c-4.09-2.48-.86-25.3.15-30.39.46-2.34,3.52-3.11,3.58-3.34,12.59,2.87,24.13,3.55,36-2Z" fill="#5e463f"/><path d="M476.52,628.36v12c-11.87,5.55-23.41,4.87-36,2,.64-2.65-.39-6.92,0-10,.08-.62,2.16-2.5,2-4,7.21,1.41,25.62.37,34,0Z" fill="#dba386"/><path d="M962.52,622.36c.14,2.65-.13,5.34,0,8,.11,2.19-.62,5.04,2,6-3.89,13.1-11.23,12.61-14,18l-2-6c1.09-1.86,1.57-20.29,6-24,1.04-.87,6.15-1.09,8-2Z" fill="#b58a5b"/><path d="M910.52,644.36c-.08-.8-5.95-16.79.97-13.98,2,.81,6.22,6.32,7.43,8.58,4.22,7.9.22,17.06,11.6,11.41-9.38,24.67-8.74-13.79-20-6Z" fill="#8f9e6e"/><path d="M962.52,622.36c-1.85.91-6.96,1.13-8,2l-6-4c3.84-5.02,7.05-11.28,12-16h2c-1,8.07-.38,10.81,0,18Z" fill="#8f9e6e"/><path d="M902.52,656.36c-8.76-1.07-12.76-10.92-22-6,.56-.88-.08-3.85,1.86-5.11,5.48-3.56,20.13,3.31,20.14,11.11Z" fill="#8f9e6e"/><path d="M948.52,648.36l2,6c-.53,1.03.4,4.31,0,6-5.59.95-7.28-6.02-6.03-10.69.56-2.09,3.93-1.13,4.04-1.31Z" fill="#8f9e6e"/><path d="M910.52,654.36c0,.25,2.29,1.49,1.94,2.78-1.19,4.27-10.09,5.39-7.94-.78,2.03-.02,4.21-1.06,6-2Z" fill="#8f9e6e"/><path d="M962.52,630.36c7.47-.73,3,2.64,2,6-2.62-.96-1.89-3.81-2-6Z" fill="#8f9e6e"/><path d="M946.52,624.36c.59,4.1.1,4.57-4,4,3.22-6.53,3.78-3.69,4-4Z" fill="#8f9e6e"/><path d="M936.52,640.36c.48,4.25.25,4.48-4,4,2.77-7.16,2.34-2.44,4-4Z" fill="#8f9e6e"/><path d="M940.52,632.36c.65,3.81-.17,4.68-4,4,1.14-7.46,2.54-2.61,4-4Z" fill="#8f9e6e"/><path d="M516.52,504.36c-9.21,41.55-18.9,83.39-32.38,123.65-1.66,1.11-5.36.25-7.62.35-8.38.37-26.79,1.41-34,0-.5-.1-6.91-3.62-7.14-3.95-2.62-3.7,9.5-73.02,9.14-84.05,4.17-14.2,14.75-25.39,22-38,16.7.43,33.37,1.7,50,2Z" fill="#714331"/><path d="M524.52,468.36c-13.92.63-28.07-.46-42,0,2.09-16.63-3.18-32.17-17.34-41.66-10.42-6.99-84.38-33.97-95.68-34.33-3.02-.1-7.43,1.51-10.98,2,3.04-3.19,11.61-8.16,16-10,1.23-.52,3.07-1.91,4-2,11.96-1.21,70.65,11.61,85.65,15.35,28.54,7.12,62.43,15.56,62.51,51.66.01,6.11-3.43,12.47-2.16,18.99Z" fill="#714331"/><path d="M887.99,468.71c21.26-4.35,28.28,28.94,9.08,33.26-24.18,5.44-27.34-29.52-9.08-33.26Z" fill="#90623f"/><path d="M386.52,346.36l-8,36c-.93.09-2.77,1.48-4,2-7.86-12.86-15.85-23.23-21.53-37.47-4.16-10.43-16.47-50.18-16.47-59.53v-33c3.97,2.91,6.64,9.5,9.03,13.97,9.55,17.81,17.41,39.46,27.32,56.68,4.25,7.38,13.86,13.96,13.65,21.35Z" fill="#4a7595"/><path d="M356.52,394.36c-1.28,3.82-4.87,3.93-7.95,5.06-13.87,5.09-28.26,10.37-42.05,10.94,16.19-5.25,33.26-13.03,50-16Z" fill="#714331"/><path d="M270.52,416.36c1.79,5.82-5.76,4.49-11.02,3.94-3.28-.35-2.8-1.93-2.98-1.94,4.66-1.64,9.07-2.03,14-2Z" fill="#714331"/><path d="M390.52,158.36c4.82,5.26,11.7,6.69,12,12-7.35-1.98-11.02-3.59-12-12Z" fill="#4a7595"/><path d="M284.52,414.36c.99,8.13-4.25,2.14-6,2,1.02-2.79,3.94-1.68,6-2Z" fill="#714331"/><path d="M302.52,410.36c.93,8.06-3.96,2.25-6,2,1.85-1.04,3.87-1.84,6-2Z" fill="#714331"/><path d="M292.52,412.36c.75,4.52-.9,5.69-4,2,.22-.04.52-1.89,4-2Z" fill="#714331"/><path d="M1272.52,584.36c1.22,4.62,13.45,11.19,6.15,21.16-2.57,3.5-36.7,19.19-42.13,20.05-24.03,3.81-.41-19.34,4.92-25.33,3.25-3.65,1.5-8.52,9.07-9.88s15.01,1.74,22-6Z" fill="#4b6978"/></svg>