<?xml version="1.0" encoding="UTF-8"?>
<svg xmlns="http://www.w3.org/2000/svg" viewBox="0 0 800 800">
    <path d="M768.29,365.51c-63.35-82.74-125.86-166.13-188.88-249.12-3.02-4.12,2.68-7.21,4.07-11.62,1.88-6.01.07-10.84-5.26-14.18-5.96-3.73-13.13.56-19.57,1.34-46.94,5.68-95.66,9.13-142.88,13.12-9.8.83-19.4,3.14-29.51,2,.78-21.7-13.78-40.39-37.05-35.56-21.45,4.45-21.51,28.68-16.97,45.52l-194.6,52.91c-15.17-.56-31.56,10.9-22.01,27.27,4.96,8.49,11.23,6.95,19.16,7.86,1.36.16,1.81-.51,1.37,1.38-36.92,115.01-72.46,230.47-109.62,345.39-2.76,8.53-10.76,24.04-9.04,32.5,2.25,11.03,31,25.35,41.23,28.76,22.58,7.54,37.89,5.19,60.57.5,62.67-12.96,125.59-32.76,188.18-46.82,27.47-8.95,48.34-25.41,61.96-51.04,4.43-8.34,9.85-18.4,4.01-27.35-68.05-96.47-136.86-192.45-202.19-290.8.38-1.73,16.91-4.44,19.98-5.05,43.18-8.51,92.39-19.11,135.67-24.33,4.83-.58,9.78-1.47,14.67-.95,6.43,6.6,8.93,15.13,17.7,19.52l1,39.78,36.98,327.92c-3.47,7.45-11.02,11.96-11.99,21.09-.92,8.61,2.86,12.26-5.5,18.5-2.14,1.6-4.78,2.72-7.24,3.76-22.52,9.6-46.51,16.43-69.23,25.77-21.2,8.72-55.22,20.37-62.75,44.25-7.78,24.68,6.45,26.95,25.47,33.97,19.97,7.37,43.54,15.57,64.03,20.97,48.1,12.68,66.45,6.21,109.9-13.53,40.04-18.2,79.96-38.04,119.34-57.66,15.15-7.55,35.99-16.34,49.67-25.33,15.76-10.36,12.78-28.03.33-39.72-9.13-8.57-23.68-12.23-35.79-14.21-27.93-4.57-56.53-2.92-84.73-3.27-3.33.29-2.26,3.13-2.53,5.49-.12,1.03.65,3.38-1.46,2.5-5.98-2.49-6.14-13.98-7.79-19.21-2.68-8.48-8.83-11.02-16.2-14.8-24-110.93-42.27-223.14-65.84-334.16-1.2-5.64-7.23-24.3-6.51-28.06.64-3.32,4.21-8.76,5.37-13.7.83-3.54.1-7.39,1.68-10.82l157.76-39.23-69.28,315.21c-4.2,16.05-13.26,25.28,1.81,38.75,35.19,31.45,79.32,14.61,119.48,5.54,39.2-8.86,83.92-17.54,121.98-29.02,21.39-6.45,45.03-23.63,52.77-45.23,7.31-20.4-1.24-23.09-11.73-36.79ZM116.59,475.87c-2.52.33-6.59,1.79-8.33-.33l57.99-15.48c-5.33,5.53-14.29,7.87-21.57,9.92-8.47,2.39-19.38,4.77-28.09,5.9ZM140.26,430.04c1.73-6.97-10.53-6.24-15.49-5.98-3.15.16-9.66,3.19-11.51,0,9.99-1.78,23.86-8.36,31.91.62.06,1.26-3.77,6.74-4.91,5.37ZM150.26,458.05c1.53,1.38-.15,1.82-1.5,2-9.81,1.3-15.28-9.53-11.49-18.01,1.77.09.82,3.29,1.46,5.02,1.88,5.11,5.69,10.44,11.53,10.98ZM130.66,534.99c-1.22-.01-1.89-.43-2.26-1.61-2.31-7.08,12.26-18.08,12.79-26.92.38-6.3-4.52-7.76-9.99-5.98-3.52,1.15-5.83,7.63-8.8-.19-.89-6.62,19.27-13.18,25.72-4.62,7.39,9.82-1.54,20.03-6.86,28.35l14.96-1.94.97,6.84c-.8,1.1-23.9,6.08-26.52,6.05ZM173.75,540.04c-1.93.46-3.87-6.8-4.39-8.6-3.76-12.97-10.58-42.97-11.98-56.03-.12-1.13-.21-2.24-.12-3.37l4.91.1,13.69,64.92-2.1,2.98ZM270.26,500.03c-4.51-.36-9.75,3.45-13.99,1.5-1.74-.8-12.2-16.1-13-15.49l-4.21,20.79-14.8,3.2c-1.14-1.03,9.62-24.79,9-29.42-.63-4.63-21.12-22.49-20-23.57l14.31-3.08,12.19,15.05,5.01-18.97,13.49-3-8.02,28.44c.53,3.76,17.36,17.38,19.53,21.55.53,1.01.62,1.88.5,3ZM245.75,375.03c-1.06-4.02-2.76-5.53-6.97-6.02-12-1.38-22.97,1.9-34.52,4.01.24-1.43,1.84-1.92,2.96-2.53,7.1-3.88,36.28-10.19,41.77-4.2,2.9,3.16.12,7.32-3.23,8.73ZM257.26,410.05c-.31,4.96-5.88,2.78-8.89,1.38-6.97-3.25-11.19-11.98-8.09-19.39l6.46,12.02,10.53,5.98ZM276.25,412.05c.6,2.59-.77,1.74-1.89,2.57-6.22,4.63-13.5,6.91-20.89,9.14-18.08,5.46-38.41,9.2-57.22,10.27.35-1.91,2.08-1.66,3.45-2.04,9.79-2.73,21.62-3.78,31.75-6.25,15.2-3.71,29.81-9.3,44.79-13.7ZM285.74,511.04l-2.44-2.54c-3.56-22.03-10.24-43.46-14.75-65.25-.61-2.97-3.31-14.23-2.15-16.05,2.74-1.42,4.26-1.45,5.6,1.61,3.2,22.86,14.54,49.16,16.23,71.75.28,3.72.9,8.25-2.49,10.48ZM356.26,495.03l-51,12c-4.81-32.65-13.79-64.51-20.78-96.72-5.55-9.4-31.51-.04-35.54-15.46-3.64-13.94,11.13-12.1,11.13-24.32-.01-21-38.9-11.86-50.77-7.96-9.45,3.11-29.04,10.69-25.57,23.49,3.22,11.9,19.78,7.02,21.47,17.53,3.07,19.12-25.88,19.34-25.94,32.93l21,93.5-10.96,1.98-17.16-74.34c-7.99-6.38-26.39-.31-29.67-13.38-2.11-8.41,11.4-9.23,9.84-20.79-1.66-12.32-27.58-7.79-35.88-5.77-8.37,2.04-24.47,7.01-25.19,16.85-1.11,15.19,16.08,7.23,16.78,20.24.8,14.68-26.35,12.24-20.5,29.48l15.72,68.71-63.97,15.04,115.01-362.99,201.99,289.99ZM202.76,374.04v-1c.65.33.65.67,0,1ZM497.94,618.22c8.15-3.62,36.54-19.29,42.84-19.22,2.45.02,4.16,1.76,6.48,2.06l-40.33,25.16c-36.71,17.29-95.32,53.44-136.45,42.11-9.26-2.55-28.6-12.46-32.21-21.8-.66-1.71.42-1.4,1.5-1.51,6.03-.65,16.77,5.24,23.04,6.98,39.75,10.99,98.37-17.44,135.12-33.77ZM605.37,396.93l-.11-10.89c4.61-.63,11.22.86,15.5,0,7.55-1.52,12-11.85,4.85-16.85-7.34-5.12-15.55-.04-23.29.81l-3.1-31.31,32.46-7.72,2.59,12.07-22.04,4.48.04,9.52c13.13-4.96,29.8-1.01,31.74,14.77,2.46,20.04-22.05,29.78-38.64,25.13ZM623.47,302.76c-19.25,5.1-40.38,8.29-60.21,9.27l59.21-14.27,36.78-11.71c2.19,1.97-11.53,8.35-12.64,8.85-7.08,3.2-15.62,5.86-23.14,7.86ZM633.37,283.46c1.12.83,2.49-.02,1.89,2.57-13.63,1.72-25.11-11.8-19.23-24.73.61-1.35.1-1.59,2.23-1.26-.95,11.83,6.85,17.31,15.11,23.42ZM621.26,241.04c2.26-6.7-7.33-7.72-12.46-8.03-6.1-.37-16.9.84-22.93,2.15-5.51,1.19-10.94,5.26-16.61,4.39,10.43-6.87,45.41-16.03,55.72-9.73,6.35,3.88-1.58,13.52-3.72,11.22ZM673.69,403.98c-1.21,1.77-3.31,3.3-4.92,1.05-5.4-28.45-13.44-56.42-19.22-84.78-.64-3.13-4.13-14.91-.66-16.09,1.19-.4,3.36-.37,4.42.34,7.25,26.43,14.2,53.55,19.46,80.53,1.02,5.21,3.93,14.53.92,18.95ZM695.26,401.04c.03-2.08.14-4.17-.26-6.25-6.98-36.59-17.46-73.44-24.97-110.03-6.32-12.63-39.35-1.95-44.09-19.91-4-15.16,15-17.29,13.87-29.87-2.02-22.49-43.32-14.72-57.76-10.66-12.67,3.56-44.39,15.37-34.21,33.63,5.76,10.34,22.07,4.6,24.99,19.03,4.17,20.67-31,21.54-31.47,38.64,8.54,33.8,13.27,70.88,22.58,104.23,1.06,3.79,1.66,7.06,4.32,10.16l-70.99,16.01,70.01-319.99,195.99,258.98-67.99,16.01ZM560.76,313.04v-1c.65.33.65.67,0,1Z" fill="#8a8a8a"/>
</svg>