<?xml version="1.0" encoding="UTF-8"?>
<svg
  xmlns="http://www.w3.org/2000/svg"
  xmlns:xlink="http://www.w3.org/1999/xlink"
  viewBox="0 0 500 500"
>
  <defs>
    <symbol id="question-mark-bold" viewBox="0 0 119.1 186.57">
      <path d="M18.66,54.18L0,30.16C6.3,21.04,15.25,13.74,26.84,8.24,38.42,2.75,50.99,0,64.53,0l-2.43,32.2c-8.01,0-15.89,2-23.64,6.01-7.75,4.01-14.36,9.33-19.81,15.97ZM60.19,186.57c-6.47,0-11.97-2.28-16.48-6.84-4.52-4.56-6.77-10.03-6.77-16.42s2.26-11.97,6.77-16.48c4.51-4.51,10.01-6.77,16.48-6.77s11.97,2.26,16.48,6.77c4.52,4.52,6.77,10.01,6.77,16.48s-2.26,11.87-6.77,16.42c-4.52,4.56-10.01,6.84-16.48,6.84ZM42.94,121.53v-10.73c0-8.77,2.06-16.25,6.2-22.43,4.13-6.18,10.46-12.08,18.98-17.7,4.6-2.98,8.13-6.45,10.61-10.41,2.47-3.96,3.71-8.16,3.71-12.59,0-4.94-1.75-8.75-5.24-11.44-3.49-2.68-8.52-4.03-15.08-4.03L64.53,0c17.29,0,30.71,3.77,40.25,11.31s14.31,18.17,14.31,31.88c0,10.31-2.54,19.7-7.6,28.18-5.07,8.48-12.71,16-22.94,22.55-4.18,2.73-7.24,5.9-9.2,9.52-1.96,3.62-2.94,8.07-2.94,13.35v4.73h-33.48Z"
        fill="#919191"/>
    </symbol>

    <symbol id="question-mark-regular" viewBox="0 0 94.22 154.56">
      <path d="M14.61,38.32L0,23.18c4.94-6.99,11.98-12.6,21.12-16.83C30.26,2.12,40.16,0,50.82,0l-.21,20.11c-6.64,0-13.16,1.66-19.59,4.98-6.42,3.32-11.89,7.73-16.41,13.23ZM47.22,154.56c-4.31,0-7.99-1.54-11.06-4.61-3.07-3.07-4.61-6.76-4.61-11.06s1.54-8.08,4.61-11.12c3.07-3.03,6.76-4.55,11.06-4.55s8.08,1.52,11.12,4.55c3.03,3.04,4.55,6.74,4.55,11.12s-1.52,7.99-4.55,11.06c-3.04,3.07-6.74,4.61-11.12,4.61ZM36.42,104.17v-10.16c0-6.99,1.45-13.14,4.34-18.47,2.89-5.33,7.23-9.83,13.02-13.5,5.72-3.53,10-7.39,12.86-11.59,2.86-4.2,4.29-8.73,4.29-13.6,0-5.29-1.77-9.4-5.29-12.33-3.53-2.93-8.54-4.39-15.03-4.39l.21-20.11c13.76,0,24.44,3.12,32.02,9.37,7.59,6.25,11.38,15.05,11.38,26.41,0,7.83-1.96,14.96-5.88,21.38-3.92,6.42-9.79,12.14-17.63,17.15-4.52,2.96-7.91,6.19-10.16,9.69-2.26,3.49-3.39,7.32-3.39,11.49v8.68h-20.75Z"
        fill="#919191"/>
    </symbol>

    <linearGradient id="circle-gradient" x1="104.98" y1="394.98" x2="394.95" y2="105.02" gradientUnits="userSpaceOnUse">
      <stop offset="0" stop-color="#919191"/>
      <stop offset="1" stop-color="rgba(123, 123, 123, 0.85)"/>
    </linearGradient>
  </defs>

  <!-- Circle -->
  <path
    d="M455.03,250c0,112.69-91.13,204.42-203.82,205.03
       85.66-28.86,147.02-109.65,147.02-205.03
       s-61.36-176.18-147.02-205.03
       c112.69.61,203.82,92.34,203.82,205.03ZM104.2,250
       c0-95.38,61.66-176.18,147.02-205.03h-1.21
       c-113.3,0-205.03,91.73-205.03,205.03
       s91.73,205.03,205.03,205.03h1.21
       c-85.35-28.86-147.02-109.65-147.02-205.03Z"
    fill="url(#circle-gradient)"
  />

  <!-- CENTER (bold) -->
  <g>
    <animateTransform
      attributeName="transform"
      type="translate"
      dur="3.5s"
      repeatCount="indefinite"
      values="0 0; 0 -10; 0 0; 0 10; 0 0"
      keyTimes="0;0.25;0.5;0.75;1"
    />
    <use
      width="119.1"
      height="186.57"
      transform="translate(200 156.13) scale(.84)"
      xlink:href="#question-mark-bold"
    />
  </g>

  <!-- LEFT (regular) -->
  <g>
    <animateTransform
      attributeName="transform"
      type="translate"
      dur="5s"
      repeatCount="indefinite"
      values="0 0; 0 -6; 0 0; 0 6; 0 0"
      keyTimes="0;0.25;0.5;0.75;1"
    />
    <use
      width="94.22"
      height="154.56"
      transform="translate(131.97 250.75) rotate(-18.31) scale(.58)"
      xlink:href="#question-mark-regular"
    />
  </g>

  <!-- RIGHT (regular) -->
  <g>
    <animateTransform
      attributeName="transform"
      type="translate"
      dur="4s"
      repeatCount="indefinite"
      values="0 0; 0 -8; 0 0; 0 8; 0 0"
      keyTimes="0;0.25;0.5;0.75;1"
    />
    <use
      width="94.22"
      height="154.56"
      transform="translate(319.98 233.12) rotate(23.63) scale(.58)"
      xlink:href="#question-mark-regular"
    />
  </g>
</svg>
