<?xml version="1.0" encoding="UTF-8"?>
<svg id="a" data-name="Слой 1" xmlns="http://www.w3.org/2000/svg" width="928.25" height="928.25" viewBox="0 0 928.25 928.25">
  <g>
    <g>
      <path d="M461.15,648.98c-6.34-.63-18.68-9.32-26.18-4.79-9.16,5.53-42.69,70.1-47.98,83.02-1.83,4.47-4.12,8.87-3.54,13.96-1.19-.82-2.84-3.23-3.48-2.99-1.42.53-1.89,3.02-2.77,3.76-.84.7-3.75.04-3.75.23v16c0,2.48,10.45-2.22,10-1-9.15,6.55-17.05,15.13-26,22-.33-6.22.5-10.31,2.11-16.17,2.23-6.28,11.97-26.02,11.9-31.33-.05-3.94-10.71,6.94-12.4,8.62-.83.82-1.65,1.64-2.45,2.47-.63.63-1.24,1.26-1.85,1.9-.3.3-.6.61-.89.91-.45.47-.9.95-1.35,1.42-.58.61-1.15,1.22-1.71,1.83-3.96,4.24-7.71,8.51-11.31,12.81-.69.83-1.38,1.66-2.06,2.49-2.37,2.88-4.67,5.77-6.92,8.67-.6.77-1.19,1.54-1.78,2.31-1.36,1.78-2.7,3.56-4.02,5.35-2.53,3.42-5.01,6.85-7.46,10.31-1.11,1.56-2.2,3.12-3.3,4.7-.23.32-.45.64-.68.97-.81,1.17-1.63,2.35-2.44,3.53-1.15,1.67-2.3,3.35-3.44,5.03-.73,1.06-1.46,2.13-2.18,3.2-1.46,2.14-2.91,4.28-4.37,6.44-1.76,2.6-3.53,5.21-5.32,7.84-6.19-2-12.64-3.64-19.59-4.86,2.2-2.46,4.37-4.94,6.51-7.44,6.96-4.85,17.33-17.31,23.51-23.99,8.22-8.89,33.55-35.84,38.35-44.65,7.39-13.52-19.83,9.92-21.37,9.62-6.06-1.2,7.34-13.52,9.02-14.96,5.38-4.61,14.5-8.54,19.96-13.05,26.1-21.56,40.04-59.14,62.5-84.48-19.11,9.47-35.57,24.64-48.94,41.04-3.03,3.72-17.3,25.94-19.04,25.97-9.33.16,8.74-25.27,10.5-27.51,7.09-9.02,16.29-16.55,24.02-24.96-29.02,14.88-52.85,36.79-70.51,63.97-6.97,10.73-29.82,50.98-30,62-.01.77-.16,3.87-.01,4,.69.6,15.41.47,18,2.01-2.61,2.48-5.95,4.13-8.99,5.99-5.67,3.47-14.71,6.71-18,13-2.38,1.68-7.9,6.64-13.22,11.43-2.56-.16-5.2-.25-7.92-.29,1.17-1.76,2.13-3.12,2.31-3.47,36.91-72.11,65.63-180.59,166.36-177.71,7.66.22,41.93,6.82,44.46,13.56.8,2.13-1.26,1.39-2.29,1.29Z" fill="#b3b3b1"/>
      <path d="M525.45,273.17c.02.32-.07.7,0,1,.27.32.91.69,1,1s-.06.68,0,1c.82.53.03.82,0,1-.11.77.43,1.92-.45,1.92-3.16,0-20.42-6.54-25.55-7.92l-3.5.99,4.5,16.01c3.99,2.09,9.2,8.93,12.71,9.78,6.34,1.53,15.06-1.48,21.29-2.77-4.54,8.82-22.64,4.25-9,12.99,3.79.39,11.85,1.72,15,3.99-1.64.24-14.38,2.56-14.99,3.02-1.73,1.28,7.84,2.76,7.01,12.48-1.72,20.04-20.17,40.51-39.66,44.47-1.58.32-11.12-.11-11.76.07-.35.1-3.6,4.28-6.6,2.99.78,1.54.49,2.68,2.46,3.07,5.07,1,27.45-2.01,28.53-1.08,2.65,2.27-4.39,14.74-5.44,17.05-.94,2.08-.25,4.63-1.31,6.69-2.49,4.85-8.03,4.4-8.25,9.25,5.68,3.93,11.91,6.02,18,9,5.31,2.6,10.29,2.84,15.53,8.97,6.2,7.26,4.86,17.28,5.47,18.03,2.21,2.7,7.41-9.59,4.99,3.01,2.55.96,3.05-9.04,3.02-9.56-.29-6.97-5.51-17.43-12.02-20.44-2.66-1.23-11.72-1.49-14.6-3.95-2.13-1.82-.15-3.95-.91-5.01-2.77-3.87-8.13-5.52-8.49-11.03l8.61,6.87c19.78,6.43,7.61-1.16,5.61-9.61-3.18-13.43,1.83-3.55,6.08-1.08,1.84,1.07,10.47,4.77,11.69,3.8,1.01-.81-13.2-16.56-8.88-23.34,3.9-6.13,3.21,4.9,4.09,6.16.33.48,9.42,6.64,9.79,6.19.8-.99-4.96-23.78,3.51-23.02.24.02.64,3.64,3.53,1.57,1.29-.93,3.21-6.65,6.49-9.51,4.93-4.31,12.83-3.44,12.47-10.03-4.32,1.73-17.56,4.79-10.59-4.09.76-.96,16.91-9.26,12.07-10.93-1.04-.36-7.77,2.17-9.49,1.01-2.69-1.82,5.06-6.73,8-6.99.09-1.14.54-2,1-3,.76-5.28,8.2-9.29,6-15-2.93-1.4-9.2-2.17-10.58-6.9-2.74-9.4,1.69-7.8,8.58-7.11-2.35-1.58-3.38-4.03-5-5.99-.75-.91-1.42-1.36-2-2-2.5-.04-2.58-.91-3-3-.55-.38-5.55-1.89,0-2,4.55-.09,12.05,4.55,16.52,4,2.01-.25,1.9-.26,1.29-2.31-1.37-4.59-17.71-10.62-23.27-15.73-3.51-3.23-14.95-19.83-11.53-23.96.53-.63,19.26,9.34,13.98,3.02-2.1-2.52-12.58-7.89-15.57-10.98-5.25-5.43-7.03-13.58-10.42-20.05-2.95,7.98-2.64,14.93-5.22,22.28-1.12,3.18-7.49,11.65-7.6,12.37-.19,1.27,5.62,12.12,6.38,15.28.69,2.85.3,5.3.44,8.06Z" fill="#b3b3b1"/>
      <path d="M456.45,463.17c4.75,11.2,3.98,25.31-2,36-2.74,4.9-7.81,9.46-14,9,1.99-8.11-2.1-2.06-4.01-3.99-.67-.68-2.2-18.71-8.48-15.99-2.15.93,1.74,19.34-6.51,20.99-.87-3.73-5.26-7.67-2.01-14-7.17,4.76-4.58,21.56,4.01,23,.21.83,1.88,2.2,2,3,.23,1.51-.77,3.48-1,5-3.2-1.39-8.47-2.5-11.24-4.26-8.88-5.66-5.33-16.9-6.25-16.73-3.21.58-12.62,28.97-15.66,30.8-7.31,4.39-2.92-17.71-2.85-20.8-10.39,6.91-16.15,18.2-11.31,30.72.5,1.29,4.73,2.97,3.31,4.27-4.21,3.86-11.03-11.81-11.54-14.95-.82-5.06,3.07-15.42,2.53-16.05-.48-.57-8.12,6.29-8.98,7.51-5.4,7.67-4.75,13.09-2.01,21.49,2.38,7.28,8.98,10.74,8.98,11.5,0,.93-14.55,10.56-15.48,10.48-7.12-.62,9.84-17.03,1.57-14.41-11.1,3.51-12.99,19.15-14.57,19.43-3.9.69-2.56-21.9,1.49-24.99l-14.98,8.99c1.29-3.86,8.62-14.69,8.55-17.52-.04-1.66-9.31-8.82-10.94-14.58-.96-3.39-.84-9.44-.16-12.93,3.59-18.62,19.3-22.94,27.54-35.95.15-.24-.15-.75,0-1,1.36.38,2.16-.68,3-1,2.87-1.11,4.7-1.72,7-4-.44.74-3.95,11.76-3.93,12.59.16,6.88,5.93-8.15,6.37-8.65,3.32-3.73,14.99-5.58,19.56-8.94,1.93,2.77-9.38,17.92-5.99,24,6.02-.92,19.9-25.44,21.51-25.99,7.1-2.44-1.46,25.95-.51,26.98,2.84,3.07,8.62-6.11,9.99-8,10.53-2.32,14.66-13.45,21.28-20.73.79-.87,3.93,1.12,2.74-4.27l4,15.99c1.15.23,1.38-1.17,1.99-1.99,1.47-2.01,1.48-4.04,2.99-4.99l.02,33.99c11.75-12.02,3.01-26.95.99-40.99,5.72-10.64,8.28-9.14,13,2ZM419.45,493.67l.5.5v-1s-.5.5-.5.5ZM349.44,542.17c.71-.79.59-14.95,2.72-20.78,1.22-3.36,10.94-17.38,10.28-18.19-.12-.15-3.1-1.06-3.78-.84-4.33,1.26-17.42,17.9-18.71,17.8-4.61-.35,4.41-22.66,6.48-24.49-13.64,6.41-21.36,23.63-12.61,37.16,1.41,2.17,14.96,10.09,15.63,9.35Z" fill="#b3b3b1"/>
      <path d="M402.45,281.17c.34.36.56.7,1,1,2.24,1.5,12.56-5.47,16.77-6.73,7.8-2.33,18.06-3.91,26.23-5.27-3.63,6.67-15.47,8.71-19,15-.66.4-1.66.74-2,1-.36.28-.71.64-1,1-4.84,6.12,8.36-1.85,9-2l2.99,1.99c-2.99.47-9.84,5.39-9.99,8.01-1.33.66-2.84-.31-5.05,1.74-4.41,4.1-4.44,13.98-6.46,19.31-.23.61-2.45.66-2.57,1.51-.25,1.68,13.98,17.09,15,23.01,1.52,8.8-2.14,14.6-6.93,21.43-.09.13-1.43-1.5-1.97-.51,1.88,4.21,5.13,8.07,5.06,13.02-.22,16.52-26.29,13.04-32.58,22.5-1.01,1.51-1.33,3.53,1.49,2.99-.63.44-4.8,6.45-4,8-.2-.21-2.25.46-2.83-.14-.66-.68-.97-6.1-2.31-8.22-8.54-13.54-37.08-15.95-28.9-35.88.29-.7,2.46-1.43,3.04-2.75,2.88,5.84-4.58,12,4.74,13.75,3.52.66,18.47-3.67,19.79-5.71,1.81-2.81-1.56-9.65-1.64-13.54-.13-6.31,12.06-42.06,15.19-49.69,1.16-2.82,8.65-6.59,4.99-12.36-3.95-6.22-17.37-8.55-21.56-21.46-3.11-9.59-2.19-14.79,2.72-23.28.27-.47,3.63-5.01,4.76-4.69-1.1,10.18-6.15,19.63.17,29.33,2.67,4.1,11.35,10.7,15.83,6.67.16.22-.17.83,0,1ZM371.68,384.98c2.19,3.82,38.58,5.15,40.51-2.28.88-3.37-4.1-2.15-5.02-2.55-4.9-2.14-13.25-4.08-20.93-2.76-1.46.25-14.23,4.26-14.8,4.79-.12.11-.13,2.16.24,2.8Z" fill="#b3b3b1"/>
      <path d="M461.45,609.18c20.46,10.05,41.65,18.15,58.52,33.96,26.69,25.01,49.04,66.96,49.47,104.02-2.87.55-1.62-.78-2.26-2.19-5.27-11.66-8.39-25.88-13.88-38.16-30.16-67.38-102.04-120.91-176.52-82.81-2.18,1.11-6.34,2.04-6.33,5.16,39.29-11.96,80.22-15.06,115.46,9.04s60.21,62.31,72.79,101.21c1.33,4.12,4.77,23.27,5.61,24.18,1.2,1.31,8,.85,9.72-.33,7.12-4.91,1.39-39.21-.86-47.32-13.91-50.09-59.86-97.46-111.72-106.76Z" fill="#b3b3b1"/>
      <path d="M644.45,324.17c.28,3.43-5.88,2.84-7.08,4.66-2.73,4.15.69,12.2-5.92,17.34-.54.42-1.41.6-2,1-.66,1.54-1.66,2.17-3,3v1c-3.85,4.94-13.46,9.41-20,12-.38.24-.64.75-1,1l-3,2c-1,.49-2.55,1.85-3.51,1.91-.49.03-1.07-1.5-1.49-1.91-.48-.46-1.89,1.17-2.06-1.45-.61-9.41,11.38-17.84,11.06-27.55-.32,0-.69-.05-1,0l-10,5c-.33.32-.73.64-1,1-3.91,13.41-.16,28.51-10,40-.18.55-.79,1.14-1,2,11.83,11.6,20.28,4.82,32-2,4.48-3.59,8.25-7.68,12-12-.27-2.06-.34-3.42,2-3,7.72-9.68,19.66-28.07,18-41-.02-.16-.87-2.91-1-3-.15-.11-1.48-.03-2,0Z" fill="#b3b3b1"/>
      <path d="M364.75,55.48c-14.76,14.91-17.63,39.8-4.81,56.7,1.7,2.25,21.29,22.96,22.73,23.75,6.32,3.44,1.19-7.9-.34-11.15-3.26-6.94-9.8-13-12.36-20.64-9.31-27.77,3.81-49.61,28.46-61.95-9.24-2.15-27.38,6.92-33.69,13.29Z" fill="#b3b3b1"/>
      <path d="M346.45,148.17c-7.6-16.72-23.68-30.99-43.27-27.77-4.08.67-19.85,10.51-20.72,8.76-1.22-2.44,10.46-20.43,13.35-22.63,24.39-18.59,74.2,9.95,60.64,40.64-2.18,0-6.83,3.24-10,1ZM297.45,116.16c5.75-4.21,40.98-.14,42-2,.22-.39-6.33-5.77-6.74-5.97-8.3-3.98-20.5-4.34-28.93-.66-4.8,2.09-5.57,3.57-6.33,8.63ZM349.44,144.17c2.37-11.96-5.64-21.6-16.99-23.99l16.99,23.99Z" fill="#b3b3b1"/>
      <path d="M414.45,556.17c-2.89,1.57-5.64,3.69-8,5,33.59-.05,64.26,7.37,96,16.99-14.66-20.85-36.48-28.95-61.47-26.96-9,.72-17.58,4.63-26.53,4.97Z" fill="#b3b3b1"/>
      <path d="M696.45,448.17c-3,2.61-6.86-.17-10.23.19-3.12.33-5.11,3.72-5.5,3.8-2.69.56-5.67-1.17-6.67-.97-.58.12-.58,1.76-1.37,1.9-27.03,4.89-57.2,2.57-80.23,18.07,13.72-1.86,27.57-4.23,41.46-5.02,13.56-.77,29.72,1.21,42.54.04-.51-2.6.5-1.58,1.48-2.04,6.11-2.88,17.6-4.59,24.52-6.96.3-.1.7.1,1,0,1.4-5.31,11.94-2.98,1-7-1.81-.67-5.9-1.56-8-2Z" fill="#b3b3b1"/>
      <path d="M602.45,438.17c.52-6.38,8.45-24.5-3-19v-14.5c0-1.74-12.49,1.07-12.88,1.61-1.3,1.8,1.86,16.96-4.08,22.31-.48.43-2.26-.78-4.05.99-2.71,2.66-4.49,11.63-7.17,15.9-2.31,3.69-5.41,5.03-6.81,6.69l-2.51,6.97,42.51-17.99c-.03-1.9-2.24.03-1.99-2.98Z" fill="#b3b3b1"/>
      <path d="M298.45,205.17c1.24-14.26-2.11-5.99-14.68-10.82-3.02-1.16-6.19-3.27-8.79-5.21-1.11-.83-10.96-13.29-11.53-8.45-1.18,9.92,15.47,16.9,22.75,20.43.4.19,7.56-.02,4.24,3.05-.32.3-2.92-1.27-4.72-.34-14.37,7.43-18.29,19.93-40.27,9.35.05,4.96,16.95,10.85,16.98,11.97.07,2.42-10.28,1.95-12.22,1.76-2.09-.21-9.64-4.32-8.76-1.25.2.69,9.49,8.38,10.44,8.7,14.9,5.09,30.06-7.33,37.55-19.19,2.03-9.22,4.67-6.29,6-8.01.96-1.24-3.08-3.94-1.99-4.99.21-.2,4.72,1.5,4.99,3Z" fill="#b3b3b1"/>
      <path d="M301.45,246.17c4.6-.49,3.99-5.66,8.08-9.42,2.29-2.1,12.63-7.58,15.42-7.58h22.5c.35,0-.17,4.57,4.99.02-9.89-5.02-21.14-4.69-31.73-6.63-4.37-2.48-2.3-34.11-.6-40.48,2.64-9.89,8.07-21.15,16.33-27.41-2.19-.51-9.03,1.42-10.59,2.41-10.34,6.54-19.22,69.27-22.25,83.8-.38,1.81.87,3.9-2.15,3.3-.09.64.09,1.36,0,2Z" fill="#b3b3b1"/>
      <path d="M462.45,449.17c2.08,5.45,6.93,15.95,8.56,23.94.76,3.68.38,7.36.45,11.06,4.95-9.46,3.59-21.5-1.01-30.99,12.63,6.39,12.87,30.97,7.99,41.99-6.28,17.85,4.55,6.76,8.02-1.48,2.1-5,1.84-10.94,3.98-15.52-9.01-3.36-3.97-20.95-4.98-29.52-.49-4.2-3.87-7.8-3.02-12.48-9.35-2.35-3.62-.83-6.49,5-7.71,15.68-7.3-2.49-13.51-7-.4-.29-2.33.28-3,0s-1.46-.88-2-1c.64,5.6,3.02,10.83,5,16Z" fill="#b3b3b1"/>
      <path d="M570.45,877.17c3.79-.86,1.26,4.31,1.99,5.01s6.99,1.2,7.76-2.76c.86-4.36-1.11-29.73-1.78-35.73-1.27-11.33,1.01-17.09-11.98-16.52v14.5c0,9.22-14.32,37.91-13.99,40.01.14.94,3.14.24,3.99,1.49,1.59-.24,3.81.74,5.12-.6,1.7-1.74,4.76-16.97,5.89-20.39,2.83,4.07,2.13,10.56,2.99,14.99Z" fill="#b3b3b1"/>
      <path d="M442.45,43.19c-1.79,3.76,8.94,1.91,9.45,2.02,7.99,1.72,28.85,12.61,34.58,18.43,8.87,9.01,10,20.76,11.95,32.53,17.16-31.88-14.86-59.44-46.48-55.99-1.45.16-9.29,2.56-9.5,3.01Z" fill="#b3b3b1"/>
      <path d="M513.45,429.17c5.22,28.19-3.11,5.05-9.33,1.34-1.23-.73-7.77-3.09-8.66-2.33-.82.71,10.93,13.68,3.98,19.99-.99.9-10.59-11.39-13.98-11,.15,5.84,6.06,10.09,6.93,15.57.51,3.23-1.42,14.84-.92,15.43,1.48,1.77,9.66-8.74,10.44-10.04,2.34-3.88,4.24-17.25,6.55-3.95.24,1.38,0,3.46,0,5,0,1,0,2,0,3v2c3.28-2.82,12.31-12.09,12.87-15.6.39-2.42.45-13.74-.5-15.44-1.76-3.17-6.04-3.04-7.37-3.96Z" fill="#b3b3b1"/>
      <path d="M503.45,149.17c-.51,4.34.43,2.32,2.43,3.03,7.45,2.66,11.38,3.52,13.62,12.41s.55,7.63-6.05,11.56c13.23,10.17,53.61.65,34.01-19.99,1.82,14.12-11.09,19.06-23.01,17.99.53-2.93,6.09-2.89,7.81-5.66.76-1.22,2.17-5.27,2.14-6.72-.29-12.39-22.72-11.74-30.95-12.61Z" fill="#b3b3b1"/>
      <path d="M516.45,60.18c-3.26,2.68,26.87,31.15,25.13,37.85,10.97.19,9.67-17.52,5.83-24.08-3.94-6.72-24.96-18.69-30.95-13.77Z" fill="#b3b3b1"/>
      <path d="M340.44,98.17c-6.23-24.74,13.59-42.55,31.01-55.99-27.36-.31-57.48,33.7-31.01,55.99Z" fill="#b3b3b1"/>
      <path d="M359.45,396.17c-13.43,3.33-17.7,15.18-31,19.54-2.31.76-3.72,1.46-4,1.46h-14c9.96,8.74,21.95.9,32.99,0l-9.99,7.98c3.66-.03,7.34.09,11,.01l-1.48-1.99c4.33-.07,28.45-12.66,23.48-18-2.48-2.66-20.09,15.4-6.99-9.01Z" fill="#b3b3b1"/>
      <path d="M611.45,82.18c-.86.79,3.54,14.85,1.55,23.05-1.9,7.85-14.51,20.12-13.55,20.94,5.04,4.3,20.93-8.91,22.58-16,1.8-7.73-6.45-22.11-5.58-22.99,4.41-4.46,24.61,16.87,22.01,23.99,12.73-12.73-21.64-33.9-27.01-28.98Z" fill="#b3b3b1"/>
      <path d="M575.45,791.17c-.98-.08-5.78-.2-6,0-.9.85,3.05,23.5,3.88,24.41.78.86,9.77.95,10.13.59.21-.21-.04-4.85,0-6.01.08-3.1-3.03-13.97,1.44-11.94,7.4,3.35,1.7,22.92,13.98,19.81,2.87-.73-.26-11.34-1.23-13.56-3.53-8.05-13.91-12.66-22.2-13.3Z" fill="#b3b3b1"/>
      <path d="M637.45,443.17c-1.09.53-3.17.74-2.99,1.99,13.42.69,27.68-.89,40.99.01-1.96-5.63,20.86-14.36,17.01-16.99-3.81-2.61-48.69,11.95-55.01,14.99Z" fill="#b3b3b1"/>
      <path d="M445.69,29.41c-10.15.81-30.26,7.31-37.25,17.26-10.61,15.08,9.31-.05,15.34-2.66,15.18-6.59,35.41-11.44,51.66-6.84.69-2.45-3.42-2.89-5.04-3.45-5.89-2.01-19.07-4.77-24.71-4.32Z" fill="#b3b3b1"/>
      <path d="M593.45,846.17l-4.49-17.01c-6.62-4.83-2.61,12.29-2.46,16.51.07,1.88.84,4.09-2.05,3.5.62,11.32,2.65,22.54,2.05,33.95,7.23.6,9.95,2.1,10-6.47.04-7.88-2.04-22.06-3.05-30.48Z" fill="#b3b3b1"/>
      <path d="M549.03,117.64l-4.08-7.47-21.49-9.51c1.57-3.1,14.89-1.72,15.99-2.49,1.6-1.13-7.7-11.19-14.26-10.78-4.16.26-18.38,10.23-18.73,13.3-.38,3.38,18.98,4.49,23.19,5.79,5.86,1.81,14.4,7.32,19.4,11.16Z" fill="#b3b3b1"/>
      <path d="M553.45,403.17c-6.05-5.05-11.09.07-14.25,6.25-1.1,2.15-.51,6.51-.75,6.76-1.38,1.43-9.36-2.65-11.01,1.99,4.5.56,12.58,6.53,15,10,3.23-11.3,6.25-5.62,9,2-.8-8.82-15.94-33.06,5.47-14.97,3,2.53,9.16,14.18,10.56,7.42,1.59-7.71-6.41-10.64-10.54-14.43-1.85-1.7-3.25-4.83-3.48-5.02Z" fill="#b3b3b1"/>
      <path d="M338.45,448.17c-5.31,2.47.97,5.05-5,5-1.91,1.38,1.78.68,1.65,4.28s-4.21,25.92-5.38,28.49c-.91,2-13.01,10.67-15.3,13.98-5.1,7.39-9.35,21.48-2.99,29.24-5.19-21.69,17.74-29.86,23.47-47.04,1.55-4.66,6.44-29.6,5.55-33.3-.26-1.1-1.95-.57-2.02-.67Z" fill="#b3b3b1"/>
      <path d="M601.11,829.5c-1.23-1.25-4.96-3.62-5.63-.78-1.19,5.03,11.41,40.83,9.11,49.81,1.16,2.59,5.66,2.37,6.7,0,2.31-5.26-5.52-44.27-10.18-49.03Z" fill="#b3b3b1"/>
      <path d="M468.45,141.17c4.35-17.71,22.85-24.43,38.99-27.02-15.53-5.49-34.08-.55-41.48,15.02-1.2,2.52-6.5,15.47-1.51,14.99,2.65-.8,3.56-2.88,4-3Z" fill="#b3b3b1"/>
      <path d="M363.45,600.17c-3.42-.48-2.41,0-3.3,2.16-2.63,6.43-4.8,13.84-7.69,17.83.97-.05,2.03.15,2.99.01,1.61-.22,28.83-12.89,28.99-14.51.11-1.08-17.49-4.07-20.99-5.49Z" fill="#b3b3b1"/>
      <path d="M505.45,46.19c-1.13,3.26,29.4-.14,32.47.01,6.49.33,11.69,2.64,17.52,4.96-7.45-10.79-24.11-12.68-36.24-10.74-1.88.3-13.5,5.06-13.74,5.77Z" fill="#b3b3b1"/>
      <path d="M504.46,130.19c7.31,2.09,15.83.73,23.23,2.24,3.75.77,26.23,11.43,10.25-1.25-10.06-7.99-22.76-6.42-33.48-.99Z" fill="#b3b3b1"/>
      <path d="M618.45,148.18c5.14,6.19,22.02,4.64,26.04-1.48,1.31-1.99,3.59-11.18-.04-10.05-1.57.49-11.08,8.29-15.99,10.02-2.8.98-6.98.95-10.01,1.51Z" fill="#b3b3b1"/>
      <path d="M274.76,252.52c-.24.05-.39,1.51-1.03,1.6-5.82.86-17.57-4.6-18.27-3.95-1.55,1.44,4.4,5.46,5.45,6.03,10.63,5.81,26.24,3.89,30.05-9.01-4.95,3.98-10.42,4.15-16.2,5.33Z" fill="#b3b3b1"/>
      <path d="M473.45,394.17c.61-.24,2.29-1.06,1.99-1.98l-12.38-2.07-14.6-6.94c-.71,5.97-1.02,5.62-6.01,7.98,7.65.62,23.13,4.65,29.99,4.01.46-.04.79-.92,1-1Z" fill="#b3b3b1"/>
      <path d="M285.85,271.58c-4.61,3-6.33,5.93-13.04,6.49-3.38.28-17.19-3.27-17.34-2.41-.17.98,8.23,6.61,9.95,7.04,11.18,2.79,18.97-2.55,24.02-12.04-.94-1.52-2.7.34-3.59.92Z" fill="#b3b3b1"/>
      <path d="M322.45,316.17c1.03,2.02.43,4.59,2.42,7.08,3.63,4.53,25.63,10.49,27.58.92h-17.5c-1.01,0-10.42-6.13-11.5-8h-1Z" fill="#b3b3b1"/>
      <path d="M318.45,462.17c1.19-19.13,10.52-5.81,15.01-20.99.83,3.2,3.79,4.7,3.99,4.99-3.64-19.25-25.09,4.35-19,16Z" fill="#b3b3b1"/>
      <path d="M591.45,312.17c-4.55.12-1.08,5.96-1,9,7.06,6,15.17,4.06,22.99.98-6.82-3.47-18.78-.99-21.99-9.98Z" fill="#b3b3b1"/>
      <path d="M571.45,770.17c.65,3.23-.15,8.37,3,10,3.05-.18,13.5,1.5,13.99.99,4.69-4.8-14.19-10.78-16.99-10.99Z" fill="#b3b3b1"/>
      <path d="M326.45,404.17c3.63-2.29,3.53-9.71,2.93-13.43-.75-4.66-10.96-18.74-8.87-9.13,1.43,6.59,7.26,14.18,4.95,22.56.33.03.67-.04,1,0Z" fill="#b3b3b1"/>
      <path d="M316.45,285.17c-1.02-3.25-11.22-2.66-11.99-.44-.24.71,2.32,12.62,7.99,8.44.43-.32.68-.57,1-1,.27-.36.01-2.8,1-4,.65-.79,1.44-2.58,2-3Z" fill="#b3b3b1"/>
      <path d="M479.45,685.17l-5,54c2.76-17.56,5.21-36.13,5-54Z" fill="#b3b3b1"/>
      <path d="M657.45,310.17c-4.07,1.61-7.49,2.56-11.99,2.01,4.23,7.31,19.56,6.47,24.99,0-6.51,3.5-10.57,3.41-17.99,2.99l4.99-4.99Z" fill="#b3b3b1"/>
      <path d="M653.45,159.17c3.93-5.52,4.53-9.1,4.01-15.99,3.45-.77,2.39,3.97,3.09,5.91.13.36,1.88-.01,1.9.08l-6.97-10.51c2.72,6.7-.37,14.03-2.03,20.51Z" fill="#b3b3b1"/>
      <path d="M463.45,697.17c5.92-10.12,6.21-23.52,13.51-32.99l2.49,18.99c-.52-2.99.7-20.12,0-20.99-4.56-5.69-15.54,32.4-15.99,34.99Z" fill="#b3b3b1"/>
      <path d="M658.45,163.17c3.08-4.47,4.95-5.43,4-12l-4,12Z" fill="#b3b3b1"/>
      <path d="M457.45,717.17c1.82-5.39,4.02-10.3,5-16l-5,16Z" fill="#b3b3b1"/>
      <path d="M582.45,131.17c2.85,2.03,5.28,4.52,0,4,1.26,1.01,6.52,8.84,7.99,11-9.1-6.26-17.26-7.08-27.79-4.3-19.68,5.2-4.12,5.29,2.33,11.27,13.17,12.2,2.53,28.32-12.52,31.02,22.29,7.66,44.11-13.99,22.51-33,9.16,3.68,14.12,10.35,18,19.01,7.12-4.15-2.88-24.73,6.04-15.04,7.64,8.3,11.82,36.43,1.16,42.27-5.12,2.81-21.14,3.09-26.71,1.79,1.79,2.35,1.14,16.32-.01,17-3.63,2.1-9.53-16.91-13.98-12.99-2.61,2.29,5.4,14.7,6,17.99,11.35,10.39-9.8,11.41-10.01,12.51-.58,3.08,8.14,3.92,10.01,3.49,1.39-.45,3.39-.4,5-1,.39-.15.84-2.17,1.99-2-.45,38.87,29.99,57.97,65.01,41,0-.86-3.9-.13,0-4-23.68,9.07-53.05.45-55.99-28,12.25,15.75,35.97,17.49,50.96,4.49-14.11,3.64-27.37,6.15-40.47-3.54-.95-.7-11.1-11.41-10.5-11.94.63-.55,13.26,5.22,15.75,5.74,12.54,2.6,40.01-.74,51.25-6.75-1.41-2.48-5.93.74-7,0-.28-.19.64-2.66-.55-3.07-1.09-.38-17.9.79-12.18-3.19,2.68-1.87,7.19-1.91,9.81-4.15.41-.35,6.27-8.11,6.44-8.61,1.61-4.62-4.57-9.01-4.59-9.56-.05-1.57,1-3.82,1.06-7.41-2.81,13.65-14.9,18.59-27.53,19.97-8.14.89-19.53-4.37-9.48,5.53,4.37,4.31,10.54,6.39,15,10.49-9.8,5.62-42.46-23.53-37.99-27.98.66-.66,13.93,2.37,18.54,2.04,18.1-1.29,32.68-15.94,25.49-34.58-.48-1.25.63-1.84-2.03-1.45.11,7.81-2.92,15.68-9.1,20.41-12.3,9.41-2.85-2.66-1.93-10.93,2.65-23.92-8.84-38.44-29.98-47.48Z" fill="#b3b3b1"/>
      <path d="M643.45,169.17c4.22-2.16,1.59-.91,4-3l-4,3Z" fill="#b3b3b1"/>
      <path d="M659.45,309.17l3-2c-.16.14-2.59,1.76-3,2Z" fill="#b3b3b1"/>
      <path d="M468.45,62.17c-.18-.16-2.23.14-3.58-.95-.43-.34.82-2.68.53-2.92-6.87-5.64-11.28-3.8-18.51-4.03-2.17-.07-.65-2.69-2.93-2.12-.86.22-.24,1.85-1.2,1.99-21.93,3.29-35.35,14.49-45.29,34.02-3.65-4.53,6.76-20.21,5.98-21s-12.55,7.6-12.98,7c-1.32-1.86,2.04-12.86.98-16-10.49,9.81-15.85,35.34-4.82,46.34,4.7,4.68,1.44-2.23,1.95-6.69.36-3.07,1.05-8.74,3.87-10.64,2.07,8.96,3.68,20.02,6.99,28.53,4.26,10.96,12.82,18.92,14.03,30.47,2.38-1.68,4.7-4.82,5-5-3.69-12.19-5.96-24.01-.65-36.17.69-1.58,1.27-4.46,3.64-3.82-6.55,17.12,13.93,32.04,23.01,44.99,2.97-.19,6.12-1.82,8-2-1.89-12.26,2.94-25.71,13.09-33.41,5.02-3.81,9.55-3.91,13.63-6.34,1.08-.64,1.73.04,1.27-2.24-16.48-3.23-28.25,6.39-30.86,22.63-.52,3.21,1.24,21.04-3.97,14.7-9.27-11.28-7.78-36.18,4.9-44.77,6.26-4.24,13.55-3.71,19.91-7.07-17.66-5.58-33.87,3.14-42.48,18.49-5.4-9.94,16.93-36.71-5.42-21.42-4.21,2.88-14.63,19.3-12,7,6.21-29.02,53.21-29.37,71.44-11.6-1.38-7.38-8.1-13.26-13.51-17.97.44.28,2.42.39,1.99-.99-2.09-.77-4.45-.58-1.99.99Z" fill="#b3b3b1"/>
      <path d="M462.45,700.17c.93-.38.88-1.18,1-2-.93.38-.88,1.18-1,2Z" fill="#b3b3b1"/>
      <path d="M650.45,163.17c.96-.89,2.18-1,2-3-.82.94-1.7,1.71-2,3Z" fill="#b3b3b1"/>
      <path d="M467.44,651.16c.46-1.1-2.06-1.7-2.97-1.5.85,1.05,1.5,1.83,2.97,1.5Z" fill="#b3b3b1"/>
      <path d="M568.45,61.18c-.91.72,3.33,5.34,2.51,6.97-23.55-14.26-6.11-.09-1.65,9.67,6.17,13.49,4.22,21.31-1.85,34.36,24.28-15.29,15.04,5.83,16.48,5.98.43.04,6.36-5.29,6.56-5.68,2.97-5.77-.77-20.1-4.02-25.81,6.83,2.71,10.45,9.58,13.96,15.51,7.01-16.54-5.5-35.18-21.77-39.71-1.95-.54-9.07-2.19-10.21-1.28Z" fill="#b3b3b1"/>
      <polygon points="502.95 131.17 502.45 131.67 502.95 132.17 502.95 131.17" fill="#b3b3b1"/>
      <path d="M579.45,134.17c.26.14.77-.15,1,0h-1Z" fill="#b3b3b1"/>
      <polygon points="493.95 427.17 493.45 427.67 493.95 428.17 493.95 427.17" fill="#b3b3b1"/>
      <path d="M386.45,743.17h-1c.09.02.31,1.98,1,0Z" fill="#b3b3b1"/>
      <path d="M289.45,162.17c.06.03.42-1.14.83-.91,3.85,2.18,8.74,10.35,15.14,10.42-4.26-6.73-5.01-17.28-3.97-25.01.99-7.38,10.35-15.89,1.26-12.73-13.34,4.63-10.48,17.6-12.28,19.23-5.69,5.19-16.25-19.67-16.81-23.48-.35-2.37,1.26-12.08.82-12.52-3.45-3.45-11.62,11.27-12.31,14.18-2.49,10.45.74,23.23,6.83,31.79-1.29-3.49-2.11-23.37-.5-24.97,1.89-1.87,2.91,9.59,3.99,11.99.67,1.5,7.42,9.7,8.51,10,.89.24-.17-2.73,1.98-1.99.36.12,4.12,2.82,6.52,3.99Z" fill="#b3b3b1"/>
      <path d="M671.45,312.17c.4-.27.65-.7,1-1l-1,1Z" fill="#b3b3b1"/>
      <path d="M410.45,404.17c1.78,7.58,10.22,20.54,18.99,17.02-2.32-.93-13.61-8.38-10.98-11.01.88-.88,20.09,8.85,22.95,9.56,6.73,1.66,19.56.76,27.35-2.75,1.95-.88,6.68-3.45,7.2-5.78-12.49,6.67-26.7,6.42-39.51.96.42-2.74,4.78.02,5.49.02h25c5.09,0,24.26-11.23,20.49-14.99-.63-.63-11.47,8.26-15.6,8.87-8.32,1.23-19.24.04-27.4-1.87-2.36-.55-6.76-.03-6-3-.28.13-.75-.14-1,0-.09.05.44,2-.56,2.07-2.8.2-14.53-8.73-20.44-6.07,1.81,3.57,4.09,5.48,6.99,7.99-2.08.43-10.32-1.93-11.99-2.99-1.09.24-.8,1.81-1,2Z" fill="#b3b3b1"/>
      <path d="M390.46,232.19c-1.64,2.74,9.99,1.22,12.47.96,8.31-.89,16.91-3.67,25.13-4.87,7.59-1.11,16.99.54,23.39-3.09-9.64-8.66-55.73-1.77-60.98,7.01Z" fill="#b3b3b1"/>
      <path d="M537.46,498.19c23.78.61,46.79,4.32,69.23,12.24,8.06,2.85,22.31,11.62,29.33,12.67,13.12,1.96,30.87-3.82,44.42-2.93-.08-2.72-6.79-5.03-9.31-6.18-40.62-18.49-89.91-27.36-133.68-15.8Z" fill="#b3b3b1"/>
      <path d="M516.45,513.19c-.79,1.56,30.84,6.65,33.99,7.49,6.48,1.73,49.37,16.79,50.01,21.01.5,3.24-16.52.1-13.03,4l56.02,8.47c-23.67-19.76-59.3-39.29-90.53-41.96-4.18-.36-35.64-.64-36.47.99Z" fill="#b3b3b1"/>
      <path d="M530.95,557.17c-.46.07-2.84.97-2.49,1.99,11.5-1.24,41.58,10.46,50.48,9.03,2.21-.36-8.33-10.62-9.45-11.56-23.78-19.98-64.71-40.4-95.04-24.47,21.19.78,46.44,7.12,65.01,17.5,2.78,1.55,8.8,4.5,9.98,7.52-5.73.62-13.01-.85-18.5,0Z" fill="#b3b3b1"/>
      <path d="M589.45,484.16c9.49-.14,19.04.11,28.48,1.03,12.98,1.27,31.23,6.68,43.05,6.01,2.38-.13,33.47-6.8,33.48-8.53.02-4.09-50.6-5.64-55.55-5.54-15.51.33-35.04,1.54-49.46,7.02Z" fill="#b3b3b1"/>
      <path d="M411.45,600.17c.82-.07,11.92-7.01,14.41-8.13,2.89-1.3,13.27-2.85,10.59-5.85-.81-.91-22.03-8.76-22.99-8.02-1.19.93-1.36,18.55-4.03,21.48-.02.89,1.33.57,2.02.52Z" fill="#b3b3b1"/>
      <path d="M506.45,308.17c-11.12,1.87-11.18,10.84-21.34,14.25-7.56,2.54-26.79,2.22-34.72.31-3.77-.91-14.47-8.25-14.93-7.55-5.12,7.81,17.25,13.4,22.63,13.86,19.01,1.62,41.13-3.35,51.36-20.86-.62.05-.69-.39-3,0Z" fill="#b3b3b1"/>
      <path d="M465.45,310.17c-7.79-.8-28.96-5.32-31.99,2.99l35.99-.99c-.22-.03-1.78-1.77-4-2Z" fill="#b3b3b1"/>
      <path d="M423.45,449.17c7.06-4.54,13.91-10.35,21-14.99l-69,6c7.03,8.88,18.33,11.17,29,11.99,1.88-.18,2.37-.86,3-1,1.54-.34,4.06-2.64,6,0,3.43-.3,6.57-1.73,10-2Z" fill="#b3b3b1"/>
    </g>
    <g>
      <path d="M755.82,822.44c-.36-.11-.72-.21-1.08-.32-.78-.23-1.56-.49-2.34-.76-.38-.13-.76-.27-1.14-.41-2.16-.79-4.3-1.69-6.42-2.67-.47-.22-.94-.44-1.41-.66-4.91-2.35-9.72-5.05-14.47-7.62-.68-.36-1.36-.73-2.04-1.08-.55-.29-1.09-.58-1.63-.86-1.61-.84-3.22-1.64-4.82-2.4,2.22,3.72,4.49,7.53,6.84,11.36.47.77.95,1.53,1.43,2.3,1.42,2.29,2.89,4.59,4.4,6.87.51.76,1.01,1.52,1.53,2.27,1.53,2.26,3.11,4.5,4.74,6.69,1.09,1.46,2.2,2.9,3.33,4.32.57.7,1.14,1.4,1.72,2.1,4.41-6.48,8.09-12.94,11.41-19.12-.02,0-.04,0-.05-.01ZM580.12,134.14c.13-.02.25-.02.33.03-.09-.06-.2-.05-.33-.03ZM580.12,134.14c.13-.02.25-.02.33.03-.09-.06-.2-.05-.33-.03ZM859.86,727.26c-4.58-7.32-33.2-45.29-33.91-48.14-.46-1.84,5.46-19.03,4.24-28.19-2.62-19.61-51.14-56.47-68.02-67.98-4.61-3.14-33.68-18.31-33.7-20.28,0-2.49,40.76-24.34,40.96-28,.2-3.74-41.93-26.46-41.98-29.01,0-1.52,26.7-10.59,26.98-13.99.31-3.86-40.11-23.62-39.96-26,.12-1.88,33.71-17.51,30.97-21.49-2.38-3.47-37.49-6.7-38.99-8.02-1.33-1.18,12.09-17.13,6.3-19.8-10.81-4.97-41.89,1.36-54.3,2.8,6.7-3.72,20.28-14.66,20.81-22.76.61-9.41-14.49,3.04-15.8-2.75-.25-1.06,9.87-7.65,11.96-10.01,1.98-2.24,10.12-15.16,8.02-17.47-.48-.53-8.62,1.95-13.99,1-7.93-1.4-17.6-10.59-14.51-19.99,4.98,11.58,16.22,13.19,27.51,11-3.29,4.41-9.37,7.76-14.99,6l1.99,1.99c15.93,2.36,38.67-32.69,15-36.99,16.59-1.74,29.26-18.12,29.07-34.5-.06-5.35-5.7-15.92-5.07-16.5.33-.31,5.17-.69,8.34-3.16,4.52-3.53,10.99-19.39,6.65-22.85-1.06-.84-12.71,12.2-24.51,10.01-5.09-.95,9.99-6.66,12.44-8.58,19.7-15.46,16.01-53.58-2-68.86-3.26-2.77-12.52-5.98-12.92-6.58-.62-.97,6.15-12.81,4.75-22.24-1.52-10.22-20.83-32.14-31.15-29.57-4.78,1.19.9,3.62,1.39,4.29,4.12,5.49,9.67,13.04,4.02,19.53,3.23-8.99-16.48-22.23-16.9-23.67-.28-.97,2.64-12.49,1.21-19.15-2.95-13.72-20.28-29.08-33.05-33.95-6.57-2.51-19.75-3.1-23.28-4.72-1-.47-9.31-12.2-15.3-15.7-8.2-4.78-15.2-4.07-21.93-7.08-3.04-1.36-7.27-6.41-11.39-8.6-11.23-5.95-26.25-7.55-38.76-6.01-4.75.58-16.71,6.16-19.07,5.91-1.1-.12-14.63-9.11-19.28-10.79-15.33-5.53-31.37-6.71-47.45-3.93-6.32,1.09-15.97,6.24-20.41,6.67-9.12.87-21.94-1.89-32.62-.7-17.21,1.92-49.11,15.11-54.96,33.04-1.41,4.31-1.3,14.16-1.82,14.68-2.89,2.92-24.59-7.14-12.01-23.22,5.15-6.6,14.16-7.55,21.5-9.81,1.31-.41,1.83.88,1.51-1.97h-15.5c-18.11,0-38.76,20.51-37.53,39.54.4,6.1,6.51,15.7,6.03,16.45-.56.85-13.81,6.02-18.01,9.5-10.83,8.97-18.32,23.71-18.04,38.02.13,6.77,5.96,19.23,5.81,21.83-.22,4.09-4.56,7.8-3.67,16.06,1.26,11.74,13.11,16,12.9,17.09-.13.72-11.31,7.52-12.95,6.48-2.51-1.59.86-15.37-2.51-14.94-1.8.23-11.77,6.87-13.38,8.62-10.98,12.01-8.93,30.8.87,42.83,1.5,1.84,5.82,3.28,6.47,4.53,1.21,2.34.52,7.16,2.54,11.24,3.35,6.76,19.73,11.08,19.94,12.25.05.25-2.3,4.51-2.56,4.58-4.19,1.29-15.57-10.39-10.31,2.32,2.39,5.78,6.85,9.03,12.16,11.84,1.49.78,4.56.6,4.73.77,1.07.99-12.31,12.51-3.64,27.14,9.71,16.37,28.5,4.66,29.64,5.86.68.7-1.31,15.58-1.02,19.52,1.27,17.37,9.53,28.65,12.78,43.22.95,4.24-.65,9.74.47,13.53,1.13,3.84,11.51,6.44,3.06,8.49-10.97,2.65-16.52-8.92-17.78-8.75-3.6.49.3,12.07,1.67,14.31,2.5,4.1,7.58,5.27,7.83,5.69,1.07,1.8-4.34,4.22-5.45,6.04-6.31,10.37-3.73,22.11,4.04,30.85,8.76,9.86,2.93-6.94,9.4-9.91-1.57,6.62-1.07,13.6.29,20.22.8,3.86,5.73,13.53,5.69,14.3-.48,9.12-27.84,5.77-14.92,14.93,1.85,1.31,6.75,2.25,6.95,2.56.45.75-7.12,10.04-7.91,15.58-1.15,8.14,1.26,21.59,7.42,27.39,2.97,2.79,10.2,4.53,10.49,5.03.62,1.13-14.21,9.43-15.55,19.92-.66,5.12,3.56,16.92,8.55,19.07v-15.5c0-.71,3.12-5.22,4.99-4.49-2.89,9.85-4.37,17.53,2.02,26.48,1.57,2.21,9.24,7.2,8.98,7.99-.89,2.73-40.2,32.91-41.98,39.04-.92,3.18,16.1,2.87,15.98,3.97-.21,2.01-28.68,22.27-29.02,28.01-.14,2.33,1.26,1.53,2.82,2.16,6.92,2.75,16.15,1.84,23.2,4.32-5.84,2.37-10.83,7.97-15.02,12.49-32.16,34.81-52.45,81.78-71.72,128.57,11.59-1.8,23.23-2.82,34.65-2.92,1.68-.01,3.34-.01,4.96.02,1.17-1.76,2.13-3.12,2.31-3.47,36.91-72.11,65.63-180.59,166.36-177.71,7.66.22,41.93,6.82,44.46,13.56.8,2.13-1.26,1.39-2.29,1.29-6.34-.63-18.68-9.32-26.18-4.79-9.16,5.53-42.69,70.1-47.98,83.02-1.83,4.47-4.12,8.87-3.54,13.96.45.31.88,1.75,2,2h1c9.83-2.97,43.73-32.81,50.5-33.02,1.57-.05,1.69-.22,1.51,1.52l-57.5,91.51c-2.13,1.8-4.28,3.58-6.47,5.32-1.6,1.28-3.21,2.54-4.84,3.79-4.82,3.71-9.76,7.3-14.78,10.81-.8.57-1.6,1.13-2.41,1.69-.49.34-.99.69-1.48,1.02-1.03.72-2.07,1.44-3.12,2.15-1.1.75-2.21,1.51-3.32,2.26-2.02,1.37-4.06,2.73-6.09,4.09-2.1,1.41-4.2,2.81-6.31,4.21,6.5,3.32,13.26,6.86,20.56,10.54.91-.81,1.82-1.61,2.74-2.4,7.16-6.15,23.25-19.78,31.73-22.27.55-.16,11.24-1.3,11.27-.73.26,4.42-19.87,13.32-15.98,17.5,2.14,2.31,11.77-7.8,9.49,3.01-.08.4-.18.8-.28,1.2-.21.87-.46,1.74-.76,2.61-.1.32-.21.65-.33.97-.12.34-.25.69-.38,1.03-.17.45-.35.9-.55,1.35-.17.4-.34.79-.52,1.19-.96,2.12-2.1,4.24-3.39,6.35-.21.34-.42.68-.63,1.01-.68,1.09-1.4,2.17-2.16,3.26,12.8,5.41,27.38,10.84,44.54,16.02.28-.51.55-1.02.83-1.54.84-1.58,1.69-3.15,2.55-4.72,1.96-3.61,3.93-7.21,5.89-10.81,2.37-4.33,4.73-8.66,7.07-13,1.57-2.9,3.12-5.8,4.65-8.71,3.06-5.81,6.06-11.67,8.93-17.6.55-1.13,1.1-2.27,1.63-3.41.88-1.84,1.74-3.68,2.58-5.53,14.28-31.33,24.49-64.4,38.82-95.66,2.77,26.75-2.19,57.59-10.29,83.19-.44,1.39-.9,2.76-1.38,4.11-.28.81-.57,1.62-.87,2.42-.37,1.01-.76,2.01-1.16,3-.17.43-.34.86-.53,1.29-.29.73-.6,1.45-.91,2.16-.1.24-.21.48-.32.72-.32.74-.65,1.48-.99,2.21-.16.34-.32.69-.49,1.03-.31.69-.64,1.37-.99,2.05-.14.31-.3.62-.46.93-.35.71-.71,1.41-1.09,2.11-.12.24-.25.49-.38.73-.41.78-.83,1.55-1.26,2.31-.11.21-.23.41-.35.62-.51.92-1.04,1.83-1.59,2.74-.43.73-.87,1.45-1.31,2.16-.88,1.43-1.79,2.84-2.73,4.23-.47.7-.94,1.39-1.42,2.08-.63.91-1.28,1.82-1.94,2.72-.6.83-1.2,1.64-1.82,2.45-.18.23-.36.46-.54.7-.56.73-1.12,1.46-1.7,2.17-.69.87-1.39,1.74-2.1,2.59l-.02.02c-.63.77-1.27,1.53-1.93,2.28-.16.2-.34.4-.52.6-.62.73-1.27,1.46-1.92,2.18-.68.76-1.37,1.52-2.07,2.27-3.1,3.36-6.35,6.62-9.71,9.8-1.42,1.34-2.86,2.67-4.32,3.99-.69.63-1.39,1.24-2.08,1.85-.15.14-.3.27-.45.41-.67.58-1.33,1.16-2.01,1.74-1.65,1.44-3.32,2.85-5.01,4.24-.82.68-1.64,1.35-2.46,2.02,5.97,1.75,12.24,3.47,18.85,5.15,29.37,7.46,79.98,20.32,132.84,21.76,6.32,0,12.64,0,18.96-.01,35.42-1.01,70.84-8,100.62-25.94,15.8-9.51,27.09-20.35,35.79-31.37-.99-.98-1.97-1.98-2.94-2.98-.94-.98-1.87-1.97-2.8-2.97-.14-.15-.27-.29-.41-.45-.82-.89-1.63-1.79-2.43-2.7-.03-.02-.05-.05-.07-.07-.91-1.03-1.81-2.07-2.71-3.12-.72-.85-1.44-1.69-2.14-2.55-.43-.51-.86-1.03-1.28-1.55-.56-.68-1.12-1.36-1.67-2.05-1.1-1.38-2.2-2.76-3.28-4.15-1.09-1.39-2.17-2.79-3.23-4.2-1.93-2.55-3.85-5.11-5.74-7.69-1.89-2.58-3.77-5.17-5.65-7.76-.39-.54-.78-1.08-1.17-1.62-1.25-1.73-2.5-3.45-3.76-5.17-.82-1.13-1.64-2.26-2.47-3.38-15.71-21.38-30.67-43.57-45.16-65.82,1.69-.27,3.7,1.02,5.03,1.96,14.39,10.12,30.9,29.9,44.94,42.06,4.28,3.71,8.67,7.55,13.18,11.38,1.13.96,2.27,1.92,3.41,2.87.82.69,1.64,1.37,2.47,2.05.54.44,1.08.88,1.62,1.32.94.77,1.89,1.54,2.85,2.29,1.09.87,2.2,1.74,3.31,2.59,3.04,2.35,6.14,4.63,9.3,6.8.61.43,1.23.85,1.85,1.26.53.36,1.06.71,1.6,1.06.71.47,1.42.93,2.14,1.38.48.31.96.61,1.44.9.8.5,1.61.99,2.42,1.47.62.36,1.24.72,1.86,1.07,1.28.73,2.57,1.44,3.87,2.13,1.37.72,2.76,1.42,4.15,2.08.57.27,1.14.54,1.71.79.02.02.04.02.06.03,7.85-14.93,14.22-27.79,25.05-34.96-.72.25-1.45.48-2.19.71-.35.11-.7.21-1.05.31-.35.1-.71.2-1.06.29-.34.09-.68.18-1.02.27-.74.18-1.5.35-2.26.51-.7.14-1.42.28-2.13.4-.37.07-.73.13-1.1.18-.74.12-1.48.22-2.22.31-.65.08-1.3.15-1.95.2-1.34.12-2.68.2-4.02.24-.26.01-.51.02-.76.02-9.97.17-20.04-1.92-28.51-6.48,7.06-1.67,13.86.56,21.21-.26,4.64-.52,15.42-3.06,17.78-7.7-32.79-6.64-60.31-25.87-87.72-43.8-26.05-17.04-113.87-84.37-137.24-88.76-1.32-.25-7.27-1.92-7.03,1.03,10.25,8.35,22.37,16.21,28.5,28.48-34.27-28.72-66.21-58.03-113.07-62.05-1.74-.15-1.01,2.2-2.85,2.13-1.56-.06-3.28-1.86-5.17-1.96-2.52-.15-12.82.56-12.42-2.08,21.49-4.31,44.9.55,66.01,5.48,38.45,8.98,74.83,24.89,107.72,46.28,41.28,26.85,134.11,109.81,182.52,100.98,22.93-4.18,2.78-29.86,2.74-36.26-.05-8.42,10.3,10.78,10.87,12.15,2.76,6.74,3.78,12.9,3.42,18.46-.02.35-.05.7-.09,1.04-.02.22-.04.44-.07.66-.03.25-.06.51-.1.76-.08.62-.19,1.23-.32,1.83-.05.28-.11.55-.18.83-.05.23-.1.45-.17.68-.06.26-.13.52-.21.77-.13.49-.28.97-.45,1.44-.11.32-.22.63-.34.94-.23.62-.48,1.22-.76,1.82-.08.17-.16.35-.24.52-.08.17-.17.35-.26.52-.16.32-.32.64-.5.95-1.21,2.21-2.69,4.27-4.4,6.16-.44.49-.89.97-1.36,1.43-.19.19-.38.37-.57.55-.29.28-.58.55-.89.82-.18.17-.37.33-.56.49-.31.28-.64.55-.97.81-.26.21-.53.42-.8.63-.58.45-1.19.89-1.81,1.32-.23.15-.46.3-.68.45-.55.36-1.1.71-1.67,1.05,1.43-.43,2.93-.77,4.5-1.04,17.64-2.99,39.57,4.64,60.82,18.4-.35-.98-.72-1.97-1.09-2.95-.59-1.57-1.18-3.14-1.8-4.71-.31-.83-.63-1.65-.96-2.48-.11-.28-.22-.57-.34-.85-.39-.99-.78-1.98-1.19-2.97-2.15-5.35-4.39-10.66-6.72-15.93-.51-1.17-1.03-2.33-1.55-3.49-2.73-6.1-5.57-12.17-8.5-18.19-.54-1.13-1.09-2.25-1.64-3.37-1.03-2.11-2.07-4.21-3.12-6.3-4-7.97-8.12-15.87-12.31-23.71-1.17-2.22-2.36-4.43-3.55-6.63-2.96-5.46-5.94-10.9-8.94-16.32.52.49,1.05.98,1.56,1.48.52.5,1.04,1,1.55,1.51.47.46.94.93,1.41,1.41.09.09.18.19.27.28.46.46.91.93,1.36,1.41,4.58,4.81,8.89,10,12.93,15.5.72.97,1.42,1.95,2.11,2.94.55.77,1.09,1.55,1.63,2.34.83,1.22,1.65,2.45,2.45,3.7.41.63.82,1.27,1.22,1.91,1.61,2.56,3.17,5.16,4.67,7.81.75,1.32,1.49,2.66,2.21,4.01.36.67.72,1.34,1.07,2.02.96,1.83,1.89,3.67,2.79,5.53.43.89.86,1.79,1.29,2.7.44.93.87,1.87,1.29,2.81.53,1.15,1.04,2.31,1.54,3.48.28.63.55,1.27.81,1.91.42.99.83,1.99,1.23,2.99.42,1.01.82,2.03,1.21,3.04.07.19.15.39.22.58.42,1.08.82,2.15,1.21,3.24.53,1.43,1.04,2.88,1.54,4.32.62,1.8,1.21,3.61,1.78,5.43.23.73.46,1.45.68,2.18.35,1.15.69,2.31,1.02,3.47.34,1.18.67,2.37.99,3.55.4,1.48.78,2.96,1.15,4.44.29,1.17.56,2.35.83,3.52.03.11.05.22.08.34.24,1.03.46,2.06.68,3.08.57,2.69,1.09,5.38,1.55,8.06,23.13,15.98,45.01,38.9,59.16,62.85-15.85-46.77-36.48-92.16-62.57-133.78ZM672.45,311.17l-.31.31c-.21.24-.42.51-.69.69-.23.15-.74-.14-1,0-5.44,6.48-20.76,7.32-25,.01,4.51.55,7.93-.4,12-2.01.5-.2,1.51-.72,2-1l.22-.14s.04-.02.06-.04c.04-.02.08-.05.13-.08.07-.04.14-.09.21-.13.07-.05.15-.1.23-.15.16-.11.33-.22.51-.34.16-.11.33-.22.48-.33.35-.23.68-.45.9-.6.04-.03.08-.06.11-.09l.09-.06.06-.04c9.88-9.04,7.04-27.05,8.49-26.99,6.82.24,11.09,22.65,1.51,30.99ZM586.56,406.28c.4-.54,12.89-3.35,12.89-1.61v14.5c11.45-5.5,3.52,12.62,3,19,5.52,2.11,10.76-2.53,14.51-5.98-.87,1.36-2.4,5.35-3.21,6.04-4.55,3.88-28.09,11.63-35.66,15.08-4.07,1.86-17.31,10.32-19.16,10.85-2.97.86,1.94-9.6,2.47-10.3.93-1.22,2.68-1.25,3.05-1.69,1.4-1.66,4.5-3,6.81-6.69,2.68-4.27,4.46-13.24,7.17-15.9,1.79-1.76,3.58-.56,4.05-.99,5.95-5.35,2.78-20.51,4.08-22.31ZM615.45,383.17c-8.94,7.17-14.16,12.95-26.32,7.82-3.51-1.48-6.33-3.2-5.68-5.82.21-.86.82-1.45,1-2,2.11-6.39,4.4-12.01,5.72-18.78,1.79-9.21-1.78-13.27,4.28-21.22.27-.36.67-.68,1-1,4.04-3.97,4.53-4.1,10-5,.31-.05.68,0,1,0,1.15.02,2.81-3.33,1.55,3.05-1.7,8.64-12.49,16.05-10.55,25.95.41.4.99,1.94,1.48,1.91.97-.06,2.52-1.42,3.52-1.91.38-.18,1.86-1.22,2.69-1.79.12-.08.22-.15.31-.21.36-.25.62-.76,1-1,2.05-1.29,2.79-3.87,3-4-.5-6.41,4.89-11.99,6.56-17.94,1.08-3.87-1.01-10.56,2.44-12.56.39-.22,8.24-2.36,8.69-2.36,4.91-.05,3.69,17.6,2.31,20.86.59-.4,1.46-.58,2-1,4.42-8,1-21.33,13-22,.52-.03,1.85-.11,2,0l.99-1v4c1.67,12.93-10.28,31.32-17.99,41-.49.62-.7,1.51-2,3-3.75,4.32-7.52,8.41-12,12ZM619.5,403.22c.51-.55,11.63-2.54,14.63-3.87,2.89-1.29,15.66-10.88,16.31-10.17.43.45-1.6,10.87-2.22,12.26-1.9,4.24-10.07,8.06-14.4,8.38-2.88.22-18.85-1.69-14.32-6.6ZM698.95,286.19c3.32.11,3.44,13.91,2.86,16.84-.55,2.73-7.95,15.73-10.36,13.13-.56-.61,5.19-13.1,5.75-15.74.47-2.21-.6-14.3,1.75-14.23ZM699.45,192.18c5.67-6.03,10,21.79,9.87,24.38-.84,17.03-18.37,34.25-33.87,21.62,12.07.68,22.73-3.95,26.48-16.03.81-2.6,3.68-14.64-1.53-10.31-6.25,5.2-8.97,22.95-25.94,13.34.76-.06,2.39.25,2.74-.23,6.48-9.02,12.52-20.4,11.26-31.77,17.52,22.53,10.09-.05,10.99-1ZM647.45,166.17c.8-.7,1.92-2.01,3-3,.29-1.29,1.18-2.06,2-3,.3-.35.74-.64,1-1,1.66-6.49,4.75-13.81,2.03-20.51l2.96,4.46,1.67,2.52,2.34,3.53c.13.6-.09,1.37,0,2,.95,6.57-.92,7.53-4,12-5.11,7.41-10.44,9.91-20,8.99.63-2.5,3.52-2.24,5-2.99l4-3ZM644.48,146.71c-4.02,6.11-20.89,7.66-26.03,1.47,3.03-.55,7.21-.52,10.01-1.5,4.91-1.73,14.42-9.53,15.99-10.02,3.63-1.13,1.34,8.06.03,10.05ZM613,105.22c1.99-8.19-2.41-22.25-1.55-23.04,5.37-4.91,39.75,16.25,27.01,28.98,2.61-7.11-17.59-28.45-22.01-23.98-.87.88,7.39,15.26,5.58,22.99-1.65,7.08-17.54,20.29-22.58,15.99-.95-.81,11.65-13.08,13.55-20.94ZM570.96,68.14c.83-1.63-3.41-6.24-2.51-6.96,1.15-.91,8.26.73,10.22,1.27,16.26,4.53,28.77,23.17,21.76,39.71-3.51-5.92-7.13-12.79-13.95-15.5,3.25,5.7,6.99,20.04,4.02,25.81-.2.38-6.13,5.72-6.56,5.68-1.44-.15,7.8-21.27-16.48-5.98,6.07-13.05,8.01-20.87,1.85-34.36-4.46-9.75-21.89-23.92,1.65-9.67ZM505.45,46.19c.25-.71,11.86-5.47,13.75-5.77,12.13-1.94,28.8-.05,36.24,10.74-5.83-2.32-11.03-4.63-17.52-4.96-3.07-.16-33.6,3.25-32.47-.01ZM529.64,106.48c-4.21-1.3-23.57-2.42-23.19-5.79.35-3.07,14.57-13.04,18.73-13.31,6.57-.41,15.87,9.65,14.27,10.78-1.1.77-14.42-.6-15.99,2.49l21.49,9.52,4.09,7.47c-5-3.84-13.54-9.35-19.4-11.16ZM527.69,132.43c-7.4-1.52-15.92-.16-23.23-2.24,10.72-5.43,23.42-7,33.48.99,15.98,12.68-6.5,2.01-10.25,1.25ZM541.58,98.03c1.74-6.7-28.38-35.17-25.13-37.85,6-4.93,27.02,7.04,30.96,13.77,3.84,6.55,5.14,24.26-5.83,24.08ZM498.43,96.16c-1.95-11.77-3.07-23.51-11.95-32.53-5.72-5.81-26.59-16.71-34.58-18.42-.51-.11-11.24,1.73-9.45-2.03.22-.45,8.06-2.85,9.5-3.01,31.62-3.45,63.64,24.11,46.48,55.99ZM408.44,46.66c7-9.95,27.11-16.44,37.25-17.26,5.64-.45,18.82,2.31,24.71,4.32,1.62.55,5.73,1,5.04,3.45-16.25-4.61-36.48.24-51.66,6.83-6.02,2.62-25.95,17.75-15.34,2.66ZM398.44,42.19c-24.65,12.34-37.77,34.18-28.46,61.95,2.56,7.64,9.1,13.7,12.36,20.64,1.53,3.25,6.65,14.59.34,11.15-1.45-.79-21.04-21.51-22.74-23.75-12.82-16.9-9.95-41.79,4.81-56.7,6.31-6.37,24.45-15.45,33.69-13.29ZM371.45,42.18c-17.43,13.44-37.25,31.25-31.01,55.99-26.48-22.29,3.65-56.3,31.01-55.99ZM295.59,58.33c4.7-3.48.95,5.93.89,8.36-.08,3.32-.19,6.22.43,9.52,1.01,5.38,8.14,12.5,7.54,12.95-.83.63-7.27-1.05-8.54-1.95-6.37-4.48-5.35-25.14-.32-28.88ZM262.13,131.35c.69-2.9,8.86-17.62,12.31-14.17.45.44-1.17,10.14-.81,12.52.57,3.81,11.12,28.66,16.81,23.47,1.8-1.64-1.06-14.6,12.28-19.23,9.09-3.16-.28,5.35-1.27,12.73-1.04,7.74-.29,18.28,3.97,25.01-6.4-.06-11.29-8.23-15.14-10.42-.41-.23-.78.94-.83.91,1.77,5.47-.26,12.44,2.68,17.73,1.34,2.4,4.84,1.5,5.32,5.26-8.69-.57-18.48-8.54-22.38-16.11-.94-1.84-9.08-20.62-2.62-18.88-1.08-2.41-2.1-13.87-3.99-11.99-1.61,1.59-.79,21.48.5,24.97-6.09-8.57-9.32-21.35-6.83-31.8ZM260.91,256.21c-1.05-.58-7-4.6-5.45-6.03.69-.65,12.45,4.8,18.27,3.94.63-.09.79-1.55,1.03-1.6,5.78-1.17,11.25-1.34,16.2-5.32-3.81,12.89-19.42,14.82-30.05,9.01ZM282.45,235.67l.5-.5v1l-.5-.5ZM265.42,282.7c-1.72-.43-10.12-6.06-9.95-7.04.15-.86,13.96,2.69,17.35,2.41,6.7-.56,8.42-3.49,13.03-6.49.89-.58,2.66-2.43,3.59-.92-5.05,9.49-12.84,14.83-24.02,12.04ZM277.09,313.03c-7-5.3-2.47-19.05,1.35-15.86.27.23.58,5.22,1.59,6.92,3.52,5.89,10.41,3.3,11.41,4.09,1.81,1.41-5.69,11.41-14.35,4.85ZM289.97,230.19c-12.59,13.4-1.67-4.63-.76-7.76.7-2.39-.21-5.25.24-7.26-7.49,11.85-22.66,24.28-37.55,19.19-.95-.33-10.24-8.01-10.44-8.71-.89-3.07,6.67,1.04,8.75,1.26,1.94.19,12.29.66,12.22-1.76-.03-1.12-16.93-7.02-16.97-11.97,21.98,10.57,25.89-1.93,40.26-9.36,1.8-.92,4.4.64,4.72.35,3.32-3.06-3.84-2.86-4.24-3.05-7.28-3.53-23.93-10.51-22.75-20.43.57-4.84,10.42,7.62,11.53,8.45,2.6,1.93,5.77,4.05,8.79,5.21,12.56,4.83,15.92-3.44,14.68,10.82-.68,7.78-3.05,19.24-8.48,25.02ZM294.95,322.17l-.5-.5.5-.5v1ZM304.46,276.68c1.53-1.28,29.65-2.75,33.52-2.54,7.93.44,32.04,7.01,34.98,15.07,4.21,11.58-9.93,3.21-13.5,2.45-15.52-3.34-30.5-3.27-46.01.51-.32.43-.57.68-1,1,4.31,1.37-1.61,6.7-4.46,3.95-2.97-2.87-7.81-16.87-3.53-20.44ZM307.47,322.7c.19-2.36,3.38-27.45,9.99-23.04,1.71,1.15-.54,4.97.21,7.73,1.05,3.91,3.24,5.79,4.78,8.78h1c-.87-3.14,2.76-1.67,3-2.01.71-.99-9.07-15.86,9.61-16.9,4.7-.26.99,1.27,1.48,4.31,2.79,17.22,18.96,14.64,30.92,8.11,2.37,18.38-21.26,46.96-22.91,60.08-1.55,12.33,13.59,18.53,11.89,21.39-.85,1.45-29.32,13.24-30.99,13.02-.33-.04-.67.03-1,0-8.19-29.43-20.5-49.53-17.98-81.47ZM310.45,417.17h14c.28,0,1.69-.7,4-1.46,13.3-4.36,17.57-16.21,31-19.54,7.47,5.15,17.07,3.29,12.17,14.67-5.1,11.83-15.35,14.09-27.17,14.33-3.66.07-7.35-.04-11-.01l9.99-7.98c-11.04.89-23.03,8.73-32.99-.01ZM384.73,419.28l15.71,12.88c-8.57-.82-22.51,1.69-28.98-4.97l13.27-7.91ZM311.44,529.17c-6.37-7.76-2.12-21.85,2.99-29.24,2.28-3.32,14.38-11.98,15.29-13.99,1.17-2.56,5.25-25,5.38-28.49.13-3.6-3.57-2.9-1.65-4.28-1.33-.01-1.57-2.11-5.56-.05-4.57,2.37-6.86,9.79-8.95,14.04-.89-1.01-.58-3.61-.49-4.99-6.09-11.65,15.36-35.25,19-16,.5.74.7,1.56,1,2,.06.09,1.75-.43,2.01.67.89,3.69-4,28.63-5.55,33.29-5.73,17.18-28.66,25.35-23.47,47.04ZM325.07,527.06c-.96-3.39-.84-9.44-.16-12.94,3.59-18.62,19.3-22.93,27.54-35.95-3.22,1.55-4.23-1.98-4.5-2-.45-.03-6.29,5.73-2.5-3l-3.01,1.49c4.54-9.57,1.04-24.31,3.04-32.96,2.41-10.45,19.83-3.24,25.61-2.67,25.16,2.47,63.19-10.88,86.36-5.86.54.12,1.34.73,2,1h3c6.21,4.51,5.81,22.68,13.51,7,2.87-5.83-2.86-7.35,6.49-5,.99.25,2.18-.1,3,1,3.39-.39,12.99,11.9,13.98,11,6.96-6.31-4.8-19.29-3.98-19.99.89-.77,7.44,1.59,8.66,2.33,6.22,3.71,14.56,26.85,9.34-1.34-4.91-3.37-.71-5.08-4-10-6.09-2.98-12.33-5.07-18-9-.33-.22-1.85.22-2-.01-.7-1.14,10.96-22.88,8.99-24.98-.91-.98-19.88,11.86-24.99,8.99-.21.08-.54.96-1,1-5.51,2.08-46.81-4.9-48-7.01-.25-.45,5.18-5.54,5.74-7.74,2.29-9.04-3.64-13.15-9.74-18.25-.09.13-1.44-1.5-1.97-.51,1.88,4.21,5.12,8.07,5.06,13.02-.23,16.52-26.29,13.04-32.58,22.5-1.01,1.51-1.33,3.53,1.49,2.99,3.32-2.34,15.42-6.49,18.99-2.98-4.62-.27-1.25,4.18.01,4.98,1.67,1.06,9.92,3.42,11.99,2.99-2.9-2.51-5.18-4.42-6.99-7.99-5.92-11.65,16.68.85,21,4,.25-.14.72.13,1,0,.03-.01.06-.04.08-.09.02-.03.04-.07.05-.12.04-.11.07-.24.09-.39.02-.09.03-.17.04-.26.03-.22.05-.46.08-.64,0-.08.02-.15.03-.21.01-.07.02-.12.04-.16,0-.02.01-.04.02-.05.01-.04.02-.05.04-.05,1.67.12,5.89,2.56,5.53,4.97,8.16,1.91,19.07,3.1,27.4,1.87,4.12-.61,14.96-9.5,15.59-8.86,3.76,3.76-15.4,14.99-20.49,14.99h-25c-.71,0-5.07-2.76-5.49-.02,12.8,5.47,27.02,5.71,39.5-.95-.52,2.34-5.25,4.9-7.2,5.78-7.79,3.52-20.62,4.41-27.35,2.75-2.87-.7-22.08-10.43-22.96-9.55-2.62,2.62,8.67,10.08,10.99,11.01-8.77,3.52-17.21-9.44-18.99-17.02-10.62,10.1-1.58,14.23,6,21.99-6.08-1.45-15.09-3.54-19.92-7.57-3.91-3.27-4.4-6.52-8.08-10.42-.2-.21-2.25.46-2.83-.14-.66-.68-.97-6.1-2.31-8.22-8.54-13.54-37.08-15.95-28.9-35.89.29-.7,2.46-1.43,3.04-2.75,9.83-22.39,14.79-44.19,23.52-66.88-5.94-11.97-14.01-22.85-13.53-37.11-8.2,3.39-1.63,12.57-11.99,2l1.51,5.96c-8.67-4.71-25.05-10.47-34.75-9.69-5.15.41-22.91,10.68-23.76,9.71-.63-.72,2.62-16.31,3-18.99.09-.64-.09-1.36,0-2,3.12-21.45,8.16-58.58,16.82-77.68,5.39-11.89,8-11.79,19.94-15.06,3.76-1.03,9.45,1.86,8.24-3.26-7.6-16.72-23.68-30.99-43.27-27.77-4.08.67-19.85,10.5-20.73,8.76-1.21-2.44,10.47-20.43,13.36-22.63,24.39-18.59,74.19,9.95,60.64,40.64,5.09-.01,15.65,4.17,16.48,4.01,1.58-.28-1.28-4.9,2.5-4.01l2.03,8,4.98-6c1.01,9.94.84,14.86,7.02,3.01,2.08.18.73,5.68,2.57,6.02,4.67.84,17.43-9.21,21.42-12.03-1.21-11.56-9.77-19.51-14.03-30.47-3.3-8.5-4.92-19.57-6.98-28.53-2.82,1.91-3.52,7.58-3.87,10.65-.52,4.46,2.74,11.37-1.96,6.69-11.02-11-5.67-36.53,4.83-46.34,1.06,3.14-2.3,14.14-.98,16,.43.6,12.18-7.8,12.98-7,.78.79-9.63,16.47-5.98,21,9.94-19.53,23.36-30.74,45.29-34.02.96-.15.35-1.78,1.21-2,2.27-.57.75,2.05,2.92,2.12,7.23.23,11.65-1.61,18.52,4.03.29.24-.96,2.58-.53,2.92,1.35,1.09,3.39.79,3.58.95-2.46-1.57-.1-1.76,1.99-.99.42,1.38-1.55,1.27-1.99.99,5.41,4.71,12.13,10.6,13.51,17.97-18.23-17.76-65.23-17.42-71.44,11.6-2.63,12.3,7.79-4.12,12-7,22.36-15.29.03,11.49,5.42,21.42,8.62-15.35,24.82-24.07,42.48-18.49-6.36,3.36-13.64,2.83-19.9,7.07-12.68,8.58-14.17,33.49-4.91,44.76,5.21,6.35,3.46-11.49,3.98-14.69,2.6-16.24,14.37-25.87,30.85-22.63.47,2.28-.19,1.6-1.27,2.24-4.08,2.43-8.61,2.53-13.63,6.34-10.15,7.7-14.98,21.15-13.09,33.41,4.71-.46,6.64,1.62,12,0-4.99.48.31-12.48,1.51-14.99,7.4-15.57,25.95-20.51,41.48-15.03-16.14,2.59-34.64,9.31-38.99,27.02,2.7-.72,16.1-3.31,17.51-2.97,1.37.32-3.35,5.26-.02,4.97,8.47-3.08,17.49-4.51,26.5-3.99-5.92,2.61-25.07,8.29-8.99,9.99,8.23.87,30.67.22,30.95,12.61.04,1.45-1.38,5.5-2.14,6.72-1.72,2.77-7.27,2.73-7.8,5.66,11.91,1.07,24.82-3.86,23-17.98,19.6,20.64-20.78,30.16-34.01,19.99-1.1.65-4.73-1.76-2.78,4.27,1.76,5.42,16.3,8.64,21.33,8.74,4.77.1,17.92-5.91,9.99,3.03-4.47,5.03-12.13,7.22-18.54,7.45,14.13,7.1,22.26-1.79,25,19.51,1.22.49,8.76,11.1,9.04,5.47.35-6.72-8.71-11.4-9.25-12.81-1.13-2.97-2.53-19.32.21-21.16,5.17-3.47,6.36,4.14,8.52,4.49,2.55.41,1.06-3.55,4.74-2.84,2.29.44,8.54,6.1,11.74,6.85,5.57,1.3,21.59,1.02,26.71-1.79,10.66-5.84,6.48-33.97-1.16-42.26-8.92-9.69,1.09,10.89-6.03,15.04-3.88-8.66-8.84-15.33-18-19.01,21.6,19.01-.22,40.67-22.51,33.01,15.05-2.7,25.69-18.82,12.52-31.02-6.45-5.98-22.01-6.07-2.33-11.27,10.53-2.78,18.68-1.96,27.79,4.3-1.48-2.16-6.73-9.99-7.99-11-.53-.43-1.4-.62-2-1-.09-.06-.2-.05-.33-.03-.05.01-.11.02-.17.03-.18.03-.37.07-.5,0-5.28-2.94-10.74-3.38-15.99-5.99,8.31-2.92,12.17.08,18.99,2.99,21.14,9.04,32.63,23.56,29.98,47.48-.92,8.27-10.37,20.34,1.93,10.93,6.18-4.73,9.21-12.6,9.09-20.4,2.67-.39,1.56.2,2.04,1.45,7.19,18.64-7.39,33.29-25.5,34.58-4.61.33-17.87-2.69-18.53-2.03-4.47,4.44,28.19,33.6,37.99,27.98-4.46-4.1-10.63-6.18-15-10.49-10.05-9.9,1.33-4.64,9.47-5.53,12.63-1.38,24.72-6.32,27.53-19.97.37-22.38.28-8.37,15.66-15.84,3.04-1.48,10.49-6.55,13.3-8.73,2.32-1.8,10.29-11.61,11.03-11.95,5.14-2.33-1.24,14.04-3.94,17.07-5.18,5.77-16.36,6.81-17.05,7.46-2.23,2.1,17.18,5.96,15.8,19.22-.14,1.38-3.24,8.75-4.3,8.75-1.52,0-3.83-8.26-5.05-9.93-4.41-6.04-12.85-10.59-20.45-10.04l10.83,9.65c6.6,10.41,1.73,24.69-8.83,30.34-11.24,6.01-38.71,9.35-51.25,6.75-2.49-.52-15.12-6.29-15.75-5.74-.6.53,9.56,11.24,10.5,11.94,13.1,9.69,26.37,7.17,40.48,3.54-15,13-38.72,11.26-50.97-4.49,2.93,28.45,32.31,37.07,55.99,28l36.01-14.49c-1.59,4.49-4.34,8.92-8.1,11.9-4.83,3.8-17.26,5.93-17.77,6.73-.39.59-1.11,10.24-2.64,13.86-2.92,6.89-10.32,12.9-18,13.09-3.42.08-13.74-1.43-16.5-3.08,12.19.7,26.96-11.62,27-24.01-35.03,16.97-65.47-2.13-65.01-41-1.15-.17-1.6,1.85-1.99,2-.53,2.55-.39,7.1-1.26,9.25-1.46,3.64-8.6,7.58-4.23,1.74-6.62-1.8-11.48-7.15-15.49-12.5,5.9,3,7.73,5.96,15.3,4.51,1.04-.19.58-1.97.68-2-1.87.43-10.6-.4-10.01-3.49.21-1.1,21.36-2.12,10.01-12.51,2.51,13.93-17.2,2.14-18,3.01-.74.8,3.03,5.37-.51,5.01-4.46-.47-10.35-11.36-1.67-10.43h.02c-.07-.03-.14-.05-.2-.07-.07-.02-.14-.05-.21-.08-.6-.23-1.24-.53-1.91-.87-.21-.1-.43-.21-.64-.33-.72-.38-1.46-.8-2.19-1.24-.24-.14-.47-.29-.71-.43-.24-.14-.47-.28-.7-.43-.47-.29-.93-.59-1.37-.87,0,0-.02,0-.02-.01-.39-.24-.76-.48-1.12-.72-.91-.59-1.73-1.12-2.4-1.55-.31-.19-.59-.36-.83-.5-.13-.08-.24-.14-.35-.2s-.2-.11-.28-.14c-.05-.03-.1-.05-.15-.07-.05-.02-.1-.04-.14-.05-.06-.02-.1-.03-.13-.02-1.16.22-.13,3-.49,3.99,3.4,6.47,5.17,14.62,10.42,20.05,2.99,3.09,13.47,8.45,15.57,10.97,5.27,6.33-13.46-3.65-13.98-3.01-3.42,4.12,8.01,20.72,11.53,23.95,5.56,5.11,21.9,11.14,23.27,15.73.61,2.05.72,2.07-1.29,2.31-4.47.55-11.97-4.09-16.52-4,.08.64-.12,1.39,0,2,2.95,2.06,1.58,1.43,3,3,.58.64,1.25,1.09,2,2,3,2.21,6.52,2.99,10,4,1.6.46,6.74,3.28,8,2,.38-.39-.38-3.58-.01-4.49,1.54-3.74,16.25,14.36,19,15l-7.99-.5c4.39,6.1,15.97,4.61,22.99,6-8.03,7.45-18.6,1.8-25.99,1.99,3.21,9,15.17,6.51,21.99,9.98-7.83,3.08-15.94,5.02-22.99-.98,0,.18-1.13,1.12-1.11,2.35.02,1.18,2.81.09,2.1,1.63-.08.18-2.43-.41-2.79,2.73-.37,3.19.95,5.82.4,8.3-.74,3.32-10.52,31.63-11.61,32.99-2.21,2.74-6.05-14.57-6-15.99-19.84,8.2,4.48,30.8,3,31.98-5.42,4.35-19.89-8.07-20.99-6.98-1.2,1.19,4.78,15.96,10.42,18.07,3.45,1.28,11.28-.37,9.54,3.39-2.02,4.39-15.79,4.62-19.96,3.53.23.2,1.63,3.32,3.48,5.02,4.13,3.8,12.13,6.72,10.54,14.44-1.39,6.75-7.56-4.9-10.55-7.43-21.42-18.09-6.27,6.15-5.47,14.97.06.17,1.59.45,1.78,1.56.46,2.65-2.69,12.7-5.77,14.44-.06-5-1.76-13.34-5.01-18-2.42-3.47-10.5-9.44-15-10-.1.28-.78.63-1,1,6.51,3.01,11.73,13.47,12.02,20.44.02.52-.48,10.52-3.02,9.56-1.78,9.26-13.07,15.67-13.03,18.5.08,5.58,13.29-.71,15.02-3.49-.41,4.89-7.72,12.77-12.57,12.96-3.95.16-8.75-6.74-10.42-4.97-.4.42-1.09,7.58-3.18,11.32-1.51,2.72-12.72,14.72-12.57,8.44.23-10.49,6.19-16.91,7.75-25.76-5.58,4.76-13.36,6.36-16,12-2.15,4.58-1.88,10.51-3.99,15.52-3.46,8.24-14.29,19.33-8.01,1.48-.14.31-3.56.5-3.02,4.99-1.76.5-.44-2.32-1.48-1.99-1.22.4-18.47,13.06-21.04,15-.23.17-4.26,6.42-3.42,1.55.21-1.2,2.5-2.88,2.78-4.32.34-1.83.16-3.38.25-5.09.01-.21.03-.42.05-.63,0-.08.01-.16.02-.24.03-.2.06-.41.09-.63.02-.15.05-.3.09-.45.04-.2.09-.4.14-.61.06-.21.12-.42.19-.64.04-.14.09-.28.15-.42.06-.16.12-.32.19-.49.07-.17.14-.34.22-.51.13-.3.29-.61.46-.93-.02.03-.04.05-.06.08-.13.21-.26.43-.4.63-.09.15-.19.29-.29.43-.05.09-.11.17-.17.25-.09.13-.18.26-.28.38-.15.21-.31.42-.48.62-.18.24-.38.47-.58.7-.03.03-.06.07-.09.1-.46.52-.96,1.02-1.48,1.49-.13.12-.27.24-.4.34-.13.13-.27.24-.4.34-.41.33-.84.64-1.27.92-.15.1-.29.19-.44.27-.3.19-.6.36-.91.51-.2.1-.4.2-.61.29-.2.09-.41.18-.62.26-.19.08-.38.15-.58.21-.23.08-.46.15-.69.21-.16.05-.33.09-.49.12-.04.01-.08.02-.12.03-.28.06-.56.11-.85.15-.26.04-.53.06-.8.08-.27.02-.53.03-.8.03s-.57-.01-.86-.03c-1.84,7.5-3.73,4.44-5.98,6.52-2.57,2.39-1.84,6.75-9.02,6.48.23,1.51-.77,3.48-1,5-.99,6.67-4.57,11.53-10.46,15.04-.35.21-7.39,3.33-7.54,2.95-.31-.78,6.96-12.2,2.5-11.98-1.54.07-21.51,17.37-22.14,21.05-10.3,3.51-17.03-.8-26.36-5.06,2.37,7.28,8.98,10.74,8.98,11.5,0,.93-14.55,10.56-15.48,10.48-7.12-.62,9.84-17.03,1.57-14.41-11.1,3.51-12.99,19.14-14.58,19.42-3.89.7-2.55-21.89,1.5-24.99l-14.98,8.99c1.28-3.86,8.61-14.69,8.55-17.52-.04-1.67-9.31-8.83-10.94-14.58ZM493.45,427.67l.5-.5v1l-.5-.5ZM502.95,131.17v1l-.5-.5.5-.5ZM667.13,239.52c-.38,6.11-7.97,15.8-13.69,18.14-17.09,7.01,4.4-14.08,8.65-17.85,1.18-1.05,5.51-7.71,5.04-.29ZM557.43,261.69c-2.23-1.93-2.83-4.56-4.98-6.51,11.63-1.74,19.59,19.18,4.98,6.51ZM560.45,249.67l.5-.5v1l-.5-.5ZM479.33,681.16c0,.3.01.57.02.83,0,.08,0,.16,0,.23.01.07.01.14.01.21.01.08.02.16.02.23.01.1.02.2.03.28l.03.23c0,.67-.01,1.33,0,2,.21,17.87-2.24,36.44-5,54-1.83,11.63-4.33,28.39-8.28,39.22-10.88,29.79-7.87-12.84-9.73-15.21-.71-.92-15.33,14.53-18.96,13.5,5.89-20.09,13.28-39.69,19.97-59.51l5-16c.05-.32-.05-.67,0-1,.12-.82.07-1.62,1-2,.05-.33-.06-.68,0-1,.45-2.59,11.44-40.68,15.99-34.99.61.75-.21,13.51-.11,18.98ZM464.47,649.66c.91-.2,3.43.4,2.97,1.5-1.47.33-2.12-.45-2.97-1.5ZM537.49,879.73c-2.13,1.42-5.04.02-5.84-2.28-1.48-4.26,8.62-47.82,11.8-49.78,1.59-.98,5.87-.55,7.99-1.5-2.46,6.44-11.52,51.94-13.95,53.56ZM581.45,880.67c-.76,3.11-7.11,3.45-9.37,2.56-1.18-.46-1.39-4.8-1.63-6.06-.86-4.44-.15-10.92-2.99-14.99-1.13,3.42-4.19,18.65-5.89,20.39-1.31,1.34-3.53.36-5.12.6-1.59.23-10.27,1.14-11.03-.57-1.16-2.61,6.87-54.57,9.08-56.37.89-.73,22.27-.3,23.01.58,1.73,2.08,4.96,49.7,3.94,53.86ZM586.5,883.12c.59-11.41-1.43-22.63-2.05-33.95-.16-2.94-1.83-22.2-1.01-23,.25-.25,6.54-.14,6.9.11,1.07.77,2.77,17.1,3.11,19.89,1.01,8.41,3.09,22.6,3.05,30.48-.05,8.57-2.77,7.07-10,6.47ZM647.94,726.19c1.94,1.4,1.76,2.85,0,.98v-.98ZM611.3,878.52c-1.04,2.38-5.54,2.59-6.7,0,2.29-8.97-10.31-44.77-9.12-49.8.68-2.84,4.41-.47,5.64.78,4.66,4.75,12.49,43.76,10.18,49.02ZM597.64,804.47c.98,2.22,4.1,12.84,1.23,13.57-12.28,3.11-6.58-16.46-13.98-19.81-4.47-2.03-1.36,8.84-1.44,11.94,1.5.69,1.25,6.75,1,7-1.37,1.39-34.03-.78-38.99,2,.32-18.29,9.13-34.2,29.99-28,8.28.65,18.67,5.25,22.19,13.3ZM588.44,781.16c-.49.51-10.94-1.17-13.99-.99-3,.18-17.31,3.45-17.95,1.4-2.35-7.48,9.14-11.85,14.95-11.4,2.8.22,21.68,6.19,16.99,10.99ZM553.3,706.82c5.5,12.28,8.61,26.5,13.89,38.16.63,1.4-.62,2.73,2.25,2.18-.43-37.05-22.78-79.01-49.47-104.02-16.87-15.8-38.06-23.91-58.52-33.96,51.87,9.31,97.81,56.67,111.72,106.76,2.25,8.11,7.99,42.41.87,47.32-1.72,1.19-8.52,1.64-9.72.33-.84-.91-4.28-20.06-5.61-24.18-12.58-38.9-38.85-78-72.79-101.21-35.25-24.1-76.18-21-115.47-9.04-.01-3.12,4.16-4.05,6.33-5.16,74.49-38.09,146.37,15.44,176.52,82.82ZM413.45,575.18l31.99,13.98c-.82,0-1.62.03-2.42.09-.75.06-1.51.14-2.25.25-.55.08-1.1.18-1.65.29-.42.08-.85.17-1.27.27-.71.16-1.4.35-2.09.55-.48.14-.97.28-1.45.44-.25.08-.5.16-.75.25-.83.27-1.64.57-2.45.89-.52.2-1.04.41-1.56.62-4.57,1.86-9.01,4.11-13.61,5.85-.55.21-1.1.41-1.65.6-.59.21-1.18.41-1.78.59-.26.08-.53.16-.79.23-.02.01-.03.01-.05.02-.02.01-.05.02-.07.02-.02.01-.03.02-.05.02-.02.01-.04.02-.06.02-.02.01-.03.01-.04.01-.42.12-.21,2.18-4.22,1.83-9.85-.84-24.24-10.5-37.28-9.9-2.6.12-12.11,3.7-12.5,5.58-.06.31,5,2.08,6,2.49,3.51,1.43,21.1,4.41,20.99,5.49-.16,1.62-27.39,14.29-28.99,14.51-6.82,7.22-16.01,11.43-23.53,17.97-4.17,3.63-9.8,9.37-13.43,13.57-2.07,2.38-7.96,13.26-8.73,13.5-.83.27-17.33-1.66-17.31-2.53.09-2.96,30.26-24.04,29-25.5-.04-.05-.1-.09-.18-.13-.05-.03-.09-.05-.14-.07-.5-.22-1.47-.44-2.72-.65-.23-.03-.48-.07-.73-.11-.26-.04-.52-.08-.79-.12-.27-.04-.55-.07-.83-.11-.43-.06-.88-.12-1.32-.17-.3-.04-.6-.07-.91-.11-.31-.04-.62-.08-.93-.11-.32-.04-.63-.07-.95-.11h-.01c-.31-.03-.63-.07-.95-.11-.73-.08-1.45-.16-2.15-.25-.54-.06-1.08-.12-1.61-.18-3.55-.41-6.45-.81-6.75-1.2-.02-.02-.03-.05-.03-.07.09-4.39,61.95-47.73,70.1-52.91,11.7-7.45,23.88-12.92,35.9-19.6,2.36-1.31,5.11-3.43,8-5,27.17-14.79,53.66-30.19,80.51-44.99,46.02-25.34,91.98-52.4,142.49-68.01,6.32-3.05,51.2-17.6,55-14.99,3.86,2.63-18.96,11.36-17,16.99,5.85.4,15.2,1.79,21,3,2.1.44,6.18,1.33,8,2,16.9-.02,8.38,3.74-1,7-.3.1-.7-.1-1,0-6.94,4.14-17.97,8.27-26,9,.53,2.69,48.53,20.57,48.99,24.51.31,2.57-47.16,7.36-50.99,9.5l45,33.98-76,.02,34.99,37.98c-11.51-.94-89.26-17.93-93.99-13.98-1.22,1.02,15.68,25.54,15.98,27.51.31,1.98-.08,1.34-1.47,1.48-10-.23-78.48-21.89-81.51-18.99-1.42,1.36,11.74,28.75,12.49,33-38.6-8.4-76.64-25.08-116.49-26ZM801.28,683.5c-5.12,7.14-23.48,23.45-31.77,25.23-17.21,3.68-50.36-13.09-66.08-21.04-60.16-30.4-113.69-74.04-175.98-100.51,25.33,5.74,48.99,17.2,72.35,28.14,41.72,19.52,83.09,46.59,124.97,64.02,32.73,13.62,61.7,23.7,76.86-18.49,9.83-27.38-6.69-7.35-19.19-3.19-20.1,6.68-45.07-1.8-64.5-8.48-36.17-12.42-69.21-32.51-104.48-47.03,44.91,7.03,86.45,27.77,130.57,37.94,11.79,2.72,24.68,6.41,36.92,5.08,2.48-.26,11.22-1.83,9.32-4.32l-39.34-51.66c31.58,21.29,81.64,50.59,50.35,94.31ZM580.12,134.14c.13-.02.25-.02.33.03-.09-.06-.2-.05-.33-.03ZM580.12,134.14c.13-.02.25-.02.33.03-.09-.06-.2-.05-.33-.03ZM271.45,804.17c5.3-3.73,14.7-7.12,18-13-5.67,3.47-14.71,6.71-18,13ZM274.52,813.68c-5.7-1.58-5.29-5.27-3.07-9.51-2.38,1.68-7.9,6.64-13.22,11.43,6.31.36,12.17,1.05,17.71,2.01,2.2-2.46,4.37-4.94,6.51-7.44-2.32,1.62-5.5,4.19-7.93,3.51Z" fill="#575956"/>
      <path d="M508.45,462.17c-3.27-.64-1.59,1.68-2,4,.71-.61,1.29-1.39,2-2v-2Z" fill="#575956"/>
      <path d="M383.45,757.17c-9.15,6.55-17.05,15.13-26,22,.74,13.97,3.13,13.18,13.01,5.51,4.05-3.15,32.97-30.96,33.58-33.47,2.75-11.33-17.97,4.09-20.59,5.96Z" fill="#575956"/>
      <path d="M310.45,717.17c-6.97,10.73-29.82,50.98-30,62l30-62Z" fill="#575956"/>
      <path d="M485.45,265.17c-1,.68-2.6,1.84-3,2.99,6.61-1.51,12.08,1.43,18,3.01,5.13,1.37,22.39,7.91,25.55,7.92.88,0,.34-1.14.45-1.92v-1c-.06-.32.08-.69,0-1-.39-.2-.9-.57-1-1-.07-.3.02-.68,0-1-13.28-21.16-21.88-11.74-40-8Z" fill="#575956"/>
      <path d="M485.45,265.17c4.71-3.21,25.67-6.87,12.27-12.77-10.32-4.54-20.79,1.28-30.26,4.28,7.68-6.02,19.4-11.15,28.99-8.52-12.98-15.6-32.3,1.5-46.61,2.89-15.97,1.55-32.83-7.84-36.4,17.11-4.16-4.87,2.86-13.75,2.95-17.56.13-5.2-8.61,5.97-9.65,9.36-1.71,5.54-2.1,12.6-.29,18.2-6.48-.4-3.69-18.69-6.51-15-3.92,5.14-.78,12.58,2.51,17.01.16.22-.17.83,0,1l1,1c2.24,1.5,12.56-5.47,16.77-6.73,7.8-2.33,18.06-3.91,26.23-5.27,12.93-2.17,26.15-2.35,39-5Z" fill="#575956"/>
      <path d="M444.45,146.17c-9.08-12.95-29.55-27.87-23.01-44.99-2.37-.64-2.95,2.24-3.64,3.82-5.32,12.17-3.04,23.99.65,36.17,11.13-6.71,2.97,5.88,4.01,6.99.75.81,5.64-2.83,7.59-2.97,3.82-.28,9.42,1.3,14.4.98Z" fill="#575956"/>
      <path d="M427.45,285.17c-.66.4-1.66.74-2,1l-1,1c-4.84,6.12,8.36-1.85,9-2,18.96-4.33,49.07-3.74,65,7.99-24.74-7.47-48.36-9.66-72,2.01-.22,3.93,4.96,1.28,7.99,2.01-13.32,5.99-10.25,19.45,3.35,8.83,6.35-4.95,7.49-12.79,20.14-10.88,1.71.26,1.17,5.79,2.37,8.7,1.18,2.87,3.12,4.25,5.15,6.33,2.22.23,3.78,1.97,4,2,6.17.9,17.72.73,22.07-4.43,1.25-1.48.75-4.37.94-4.57.76-.82,10.55,7.64,13.99,5,2.31-.39,2.38.05,3,0,4.62-.36,12.46-.47,17,0-13.64-8.74,4.46-4.17,9-12.99-6.22,1.28-14.95,4.29-21.29,2.77-3.52-.85-8.72-7.68-12.71-9.78-20.47-10.75-53.52-15.55-74-3Z" fill="#575956"/>
      <path d="M572.45,306.17v-.5s.5-.5.5-.5l.5.5-1,.5c.22.21-.2,1.48,0,2,6.84,3.26-3.97,10.59-6,15-.46,1-.91,1.86-1,3-2.94.27-10.69,5.18-8,6.99,1.72,1.16,8.45-1.37,9.49-1.01,4.84,1.67-11.31,9.97-12.07,10.93-6.97,8.87,6.26,5.82,10.59,4.09,3.78-1.52,15.71-16.61,16.02-19.49.28-2.62-5.18.35-7.76.82-.39.07-.22,1.62-.3,1.64-.84.16-1.75-1.9-3.29-1.83-2.56.11-5.28,5.58-4.67-2.14,1.71-.16,5.79,1.23,5.99,1,.67-.76,3.9-20.66,8.1-16.38.74.75,3.46,12.01,5.87,4.89.98-2.88-16.52-16.61-20.96-17.02.3-3.11,6.16-.91,8.31-1.47,1.08-.28.57-1.92.68-2.01-7.45-1.47-15.96,1-7.94,8.44,2.09,1.93,6.67,2.31,6.94,2.56Z" fill="#575956"/>
      <path d="M362.45,472.17c-.44.74-3.95,11.76-3.93,12.59.16,6.88,5.93-8.15,6.37-8.65,3.32-3.73,14.99-5.58,19.56-8.94-.24-.34-4.43-5.45-5-6-5.24,1.32-14.25,6.41-17,11Z" fill="#575956"/>
      <path d="M423.45,518.17c-.78-3.07-1.22-5.64-2-9-.87-3.73-5.26-7.67-2.01-14-7.17,4.76-4.58,21.56,4.01,23Z" fill="#575956"/>
      <path d="M355.45,476.17c2.2-8.57,10.09-17.08-2.77-8.75-.49.32-.13,1.67-.23,1.75-.96.72-3.12-.58-6,3,5.04,1.37,5.67-2.8,6-3,1.39-.86,3.53-1.71,5.01-2.49-1.49,3.47-3.08,7.27-5.01,10.49,1.36.38,2.16-.68,3-1Z" fill="#575956"/>
      <polygon points="419.95 493.17 419.45 493.67 419.95 494.17 419.95 493.17" fill="#575956"/>
      <path d="M371.44,382.18c-.12.11-.13,2.16.24,2.8,2.19,3.82,38.58,5.15,40.51-2.28.88-3.37-4.1-2.15-5.02-2.55-4.9-2.14-13.25-4.08-20.93-2.76-1.46.25-14.23,4.26-14.8,4.79Z" fill="#575956"/>
      <path d="M623.45,352.17c.98-.42,1.91-.91,3-1v-1c-.8.5-2.64.11-3,2Z" fill="#575956"/>
      <path d="M303.78,107.53c-4.8,2.09-5.57,3.57-6.33,8.63,5.75-4.21,40.98-.14,42-2,.22-.39-6.33-5.77-6.74-5.97-8.3-3.98-20.5-4.34-28.93-.66Z" fill="#575956"/>
      <path d="M332.45,120.18l16.99,23.99c2.37-11.96-5.64-21.6-16.99-23.99Z" fill="#575956"/>
      <path d="M316.45,285.17c-.56.42-1.35,2.21-2,3,17.37-4.7,33.76-5.85,51-.01-8.66-10.15-39.64-9.98-49-2.99Z" fill="#575956"/>
      <path d="M508.45,459.17c0-1.54.24-3.62,0-5v5Z" fill="#575956"/>
    </g>
    <g>
      <path d="M438.46,711.67l-57.5,91.51c-2.13,1.8-4.28,3.58-6.47,5.32-1.6,1.28-3.21,2.54-4.84,3.79-4.82,3.71-9.76,7.3-14.78,10.81-.8.57-1.6,1.13-2.41,1.69-.49.34-.99.69-1.48,1.02-1.03.72-2.07,1.44-3.12,2.15-1.1.75-2.21,1.51-3.32,2.26-2.02,1.37-4.06,2.73-6.09,4.09-2.1,1.41-4.2,2.81-6.31,4.21-12.47-6.39-24-11.96-36.61-16.05,1.79-2.63,3.56-5.24,5.32-7.84,1.46-2.15,2.91-4.3,4.37-6.44.72-1.07,1.45-2.14,2.18-3.2,1.14-1.68,2.29-3.36,3.44-5.03.81-1.18,1.63-2.36,2.44-3.53.23-.33.45-.65.68-.97,1.1-1.58,2.19-3.14,3.3-4.7,2.44-3.46,4.92-6.89,7.46-10.31,1.32-1.79,2.66-3.57,4.02-5.35.59-.77,1.18-1.54,1.78-2.31,2.25-2.9,4.55-5.79,6.92-8.67.68-.83,1.37-1.66,2.06-2.49,3.6-4.3,7.35-8.57,11.31-12.81.56-.61,1.13-1.22,1.71-1.83.45-.47.9-.95,1.35-1.42.29-.3.59-.61.89-.91.61-.64,1.22-1.27,1.85-1.9.8-.83,1.62-1.65,2.45-2.47,1.69-1.68,12.35-12.56,12.4-8.62.07,5.31-9.67,25.05-11.9,31.33-1.61,5.86-2.44,9.95-2.11,16.17.74,13.97,3.13,13.18,13,5.51,4.05-3.15,32.98-30.96,33.58-33.47,2.75-11.33-17.96,4.08-20.58,5.96.45-1.22-10,3.48-10,1v-16c0-.19,2.91.47,3.75-.23.88-.74,1.35-3.23,2.77-3.76.64-.24,2.29,2.17,3.48,2.99.45.31.88,1.75,2,2,.09.02.31,1.98,1,0,9.83-2.97,43.73-32.81,50.5-33.02,1.57-.05,1.69-.22,1.51,1.52Z" fill="#8d8d8c"/>
      <path d="M398.44,823.66c-.03-.57-10.72.57-11.27.73-8.48,2.49-24.57,16.12-31.73,22.27-.92.79-1.83,1.59-2.74,2.4,9.06,4.56,18.96,9.31,30.25,14.08.76-1.09,1.48-2.17,2.16-3.26.21-.33.42-.67.63-1.01,1.29-2.11,2.43-4.23,3.39-6.35.18-.4.35-.79.52-1.19.2-.45.38-.9.55-1.35.13-.34.26-.69.38-1.03.12-.32.23-.65.33-.97.3-.87.55-1.74.76-2.61.1-.4.2-.8.28-1.2,2.28-10.81-7.35-.7-9.49-3.01-3.89-4.18,16.24-13.08,15.98-17.5Z" fill="#8d8d8c"/>
      <path d="M669.45,366.17l-1.99-1.99c5.62,1.76,11.7-1.58,14.99-6-11.29,2.18-22.53.58-27.51-11.01-3.1,9.41,6.57,18.6,14.51,19.99v-1Z" fill="#8d8d8c"/>
      <path d="M527.45,587.18c62.28,26.47,115.82,70.11,175.97,100.51,15.72,7.95,48.87,24.72,66.08,21.04,8.29-1.77,26.66-18.08,31.77-25.23,31.3-43.71-18.76-73.02-50.35-94.31l39.34,51.66c1.9,2.49-6.84,4.05-9.32,4.32-12.24,1.32-25.13-2.36-36.92-5.08-44.12-10.17-85.65-30.91-130.57-37.94,35.27,14.51,68.31,34.6,104.48,47.03,19.43,6.68,44.4,15.16,64.5,8.47,12.51-4.16,29.03-24.19,19.19,3.19-15.16,42.19-44.13,32.11-76.85,18.5-41.89-17.43-83.25-44.5-124.97-64.03-23.36-10.94-47.02-22.4-72.35-28.13Z" fill="#8d8d8c"/>
      <path d="M810.73,751.27c-.02.35-.05.7-.09,1.04-.02.22-.04.44-.07.66-.03.25-.06.51-.1.76-.08.62-.19,1.23-.32,1.83-.05.28-.11.55-.18.83-.05.23-.1.45-.17.68-.06.26-.13.52-.21.77-.13.49-.28.97-.45,1.44-.11.32-.22.63-.34.94-.23.62-.48,1.22-.76,1.82-.08.17-.16.35-.24.52-.08.17-.17.35-.26.52-.16.32-.32.64-.5.95-1.21,2.21-2.69,4.27-4.4,6.16-.44.49-.89.97-1.36,1.43-.19.19-.38.37-.57.55-.29.28-.58.55-.89.82-.18.17-.37.33-.56.49-.31.28-.64.55-.97.81-.26.21-.53.42-.8.63-.58.45-1.19.89-1.81,1.32-.23.15-.46.3-.68.45-.55.36-1.1.71-1.67,1.05h-.02s-.04.04-.07.05c-.45.27-.9.53-1.37.78-.27.15-.54.3-.81.44-.39.21-.78.41-1.17.6-1.39.69-2.83,1.32-4.31,1.89-.32.13-.63.25-.95.36-.3.11-.59.22-.89.32,0,0,0,0,0,0-.72.25-1.45.48-2.19.71-.35.11-.7.21-1.05.31-.35.1-.71.2-1.06.29-.34.09-.68.18-1.02.27-.74.18-1.5.35-2.26.51-.7.14-1.42.28-2.13.4-.37.07-.73.13-1.1.18-.74.12-1.48.22-2.22.31-.65.08-1.3.15-1.95.2-1.34.12-2.68.2-4.02.24-.26.01-.51.02-.76.02-9.97.17-20.04-1.92-28.51-6.48,7.06-1.67,13.86.56,21.21-.26,4.64-.52,15.42-3.06,17.78-7.7-32.79-6.64-60.31-25.87-87.72-43.8-26.05-17.04-113.87-84.37-137.24-88.76-1.32-.25-7.27-1.92-7.03,1.03,10.25,8.35,22.37,16.21,28.5,28.48-34.27-28.72-66.21-58.03-113.07-62.05-1.74-.15-1.01,2.2-2.85,2.13-1.56-.06-3.28-1.86-5.17-1.96-2.52-.15-12.82.56-12.42-2.08,21.49-4.31,44.9.55,66.01,5.48,38.45,8.98,74.83,24.89,107.72,46.28,41.28,26.85,134.11,109.81,182.52,100.98,22.93-4.18,2.78-29.86,2.74-36.26-.05-8.42,10.3,10.78,10.87,12.15,2.76,6.74,3.78,12.9,3.42,18.46Z" fill="#8d8d8c"/>
      <path d="M282.45,810.17c6.96-4.85,17.33-17.31,23.51-23.99,8.22-8.89,33.55-35.84,38.35-44.65,7.38-13.53-19.83,9.91-21.37,9.61-6.07-1.19,7.34-13.52,9.02-14.96,5.38-4.61,14.5-8.54,19.96-13.04,26.1-21.56,40.04-59.15,62.5-84.48-19.11,9.47-35.58,24.64-48.94,41.05-3.03,3.72-17.3,25.94-19.04,25.97-9.33.15,8.74-25.27,10.5-27.51,7.09-9.02,16.3-16.55,24.02-24.96-29.02,14.88-52.86,36.79-70.51,63.97l-30,62c-.01.77-.16,3.87,0,4,.68.59,15.4.47,18,2.01-2.61,2.48-5.95,4.12-8.99,5.99-3.3,5.88-12.7,9.27-18,13-2.22,4.24-2.63,7.93,3.07,9.51,2.43.68,5.61-1.9,7.93-3.51Z" fill="#8d8d8c"/>
      <path d="M758.68,817.15c-.91,1.74-1.84,3.51-2.81,5.3-.02,0-.04,0-.05-.01-.36-.11-.72-.21-1.08-.32-.78-.23-1.56-.49-2.34-.76-.38-.13-.76-.27-1.14-.41-2.16-.79-4.3-1.69-6.42-2.67-.47-.22-.94-.44-1.41-.66-4.91-2.35-9.72-5.05-14.47-7.62-.68-.36-1.36-.73-2.04-1.08-.55-.29-1.09-.58-1.63-.86-1.61-.84-3.22-1.64-4.82-2.4,2.22,3.72,4.49,7.53,6.84,11.36.47.77.95,1.53,1.43,2.3,1.42,2.29,2.89,4.59,4.4,6.87.5.76,1,1.51,1.53,2.27,1.52,2.26,3.1,4.5,4.74,6.69,1.08,1.46,2.19,2.9,3.33,4.32.56.71,1.13,1.41,1.72,2.1-1.89,2.77-3.9,5.55-6.08,8.32-.99-.98-1.97-1.98-2.94-2.98-.94-.98-1.87-1.97-2.8-2.97-.14-.15-.27-.29-.41-.45-.82-.89-1.63-1.79-2.43-2.7-.03-.02-.05-.05-.07-.07-.91-1.03-1.81-2.07-2.71-3.12-.72-.85-1.44-1.69-2.14-2.55-.43-.51-.86-1.03-1.28-1.55-.56-.68-1.12-1.36-1.67-2.05-1.1-1.38-2.2-2.76-3.28-4.15-1.09-1.4-2.16-2.8-3.23-4.2-1.93-2.55-3.84-5.11-5.74-7.69-1.89-2.58-3.77-5.17-5.65-7.76-.39-.54-.78-1.08-1.17-1.62-1.25-1.73-2.5-3.45-3.76-5.17-.82-1.13-1.64-2.26-2.47-3.38-15.71-21.38-30.67-43.57-45.16-65.82,1.69-.27,3.7,1.02,5.03,1.96,14.39,10.12,30.9,29.9,44.94,42.06,4.28,3.71,8.67,7.55,13.18,11.38,1.13.96,2.27,1.92,3.41,2.87.82.69,1.64,1.37,2.47,2.05.54.44,1.08.88,1.62,1.32.94.77,1.89,1.54,2.85,2.29,1.09.87,2.2,1.74,3.31,2.59,3.04,2.35,6.14,4.63,9.3,6.8.61.43,1.23.85,1.85,1.26.53.36,1.06.71,1.6,1.06.71.47,1.42.93,2.14,1.38.48.31.96.61,1.44.9.8.5,1.61.99,2.42,1.47.62.36,1.24.72,1.86,1.07,1.28.74,2.57,1.45,3.87,2.13,1.37.72,2.76,1.42,4.15,2.08.57.27,1.14.54,1.71.79.02.02.04.02.06.03Z" fill="#8d8d8c"/>
      <path d="M591.45,312.17c7.39-.19,17.96,5.46,25.99-1.99-7.02-1.39-18.6.1-22.99-6l7.99.49c-2.75-.63-17.46-18.74-19-15-.38.92.39,4.1,0,4.5-1.25,1.28-6.39-1.54-8-2,.93,3.64-1.54,2.61-2,3-.11.09.4,1.73-.68,2.01-2.15.57-8.01-1.64-8.31,1.47,4.44.42,21.94,14.14,20.96,17.02-2.42,7.13-5.13-4.13-5.87-4.89-4.2-4.27-7.43,15.62-8.1,16.38-.2.23-4.28-1.16-5.99-1-.62,7.72,2.11,2.25,4.67,2.14,1.55-.07,2.45,1.99,3.29,1.83.08-.02-.09-1.57.3-1.64,2.58-.47,8.04-3.44,7.76-.82-.31,2.88-12.24,17.97-16.02,19.49.36,6.58-7.55,5.71-12.47,10.03-3.27,2.86-5.19,8.59-6.49,9.51-2.9,2.08-3.29-1.54-3.53-1.57-8.47-.76-2.71,22.03-3.51,23.02-.36.45-9.46-5.72-9.79-6.19-.88-1.26-.19-12.29-4.09-6.16-4.32,6.78,9.89,22.54,8.88,23.34-1.22.97-9.85-2.73-11.69-3.8-4.25-2.47-9.26-12.35-6.08,1.08,2,8.46,14.17,16.05-5.61,9.61l-8.61-6.87c.36,5.52,5.71,7.17,8.49,11.03.76,1.06-1.22,3.19.91,5.01,2.88,2.46,11.94,2.72,14.6,3.95.22-.37.9-.72,1-1,1.64-4.64,9.62-.56,11.01-1.99.24-.24-.35-4.61.75-6.76,3.15-6.18,8.2-11.3,14.25-6.25,4.17,1.09,17.94.86,19.97-3.53,1.73-3.76-6.1-2.1-9.54-3.39-5.64-2.1-11.62-16.88-10.42-18.07,1.09-1.08,15.56,11.34,20.99,6.99,1.47-1.18-22.85-23.78-3.01-31.99-.04,1.42,3.79,18.73,6,15.99,1.1-1.36,10.87-29.67,11.61-32.99.55-2.48-.77-5.11-.4-8.3s2.71-2.55,2.79-2.73c.71-1.54-2.08-.46-2.1-1.63s1.11-2.17,1.11-2.35c-.08-3.04-3.55-8.88,1-9Z" fill="#8d8d8c"/>
      <path d="M490.15,801.37c-.44,1.39-.9,2.76-1.38,4.11-.28.81-.57,1.62-.87,2.42-.37,1.01-.76,2.01-1.16,3-.17.43-.34.86-.53,1.29-.29.73-.6,1.45-.91,2.16-.1.24-.21.48-.32.72-.32.74-.65,1.48-.99,2.21-.16.34-.32.69-.49,1.03-.32.69-.65,1.37-.99,2.05-.14.31-.3.62-.46.93-.35.71-.71,1.41-1.09,2.11-.12.24-.25.49-.38.73-.41.78-.83,1.55-1.26,2.31-.11.21-.23.41-.35.62-.52.92-1.05,1.83-1.59,2.74-.43.73-.87,1.45-1.31,2.16-.89,1.43-1.8,2.84-2.73,4.23-.47.7-.94,1.39-1.42,2.08-.64.91-1.29,1.82-1.94,2.72-.6.82-1.21,1.64-1.82,2.45-.18.23-.36.46-.54.7-.56.73-1.13,1.45-1.7,2.17-.69.87-1.39,1.73-2.1,2.59l-.02.02c-.63.77-1.28,1.53-1.93,2.28-.16.2-.34.4-.52.6-.63.73-1.27,1.46-1.92,2.18-.68.76-1.37,1.52-2.07,2.27-3.1,3.36-6.35,6.62-9.71,9.8-1.42,1.34-2.86,2.67-4.32,3.99-.69.63-1.39,1.24-2.08,1.85-.15.14-.3.27-.45.41-.67.58-1.33,1.16-2.01,1.74-1.65,1.44-3.32,2.85-5.01,4.24-.82.68-1.64,1.35-2.46,2.02l-3.83-1.13h0c.28-.52.55-1.03.83-1.55.84-1.58,1.69-3.15,2.55-4.72,1.96-3.61,3.93-7.21,5.89-10.81,2.37-4.33,4.73-8.66,7.07-13,1.57-2.9,3.12-5.8,4.65-8.71,3.06-5.81,6.06-11.67,8.93-17.6.55-1.13,1.1-2.27,1.63-3.41.88-1.84,1.74-3.68,2.58-5.53,14.28-31.33,24.49-64.4,38.82-95.66,2.77,26.75-2.19,57.59-10.29,83.19Z" fill="#8d8d8c"/>
      <path d="M424.45,526.17c-3.2-1.39-8.47-2.5-11.24-4.26-8.88-5.66-5.33-16.9-6.25-16.73-3.21.58-12.62,28.97-15.66,30.8-7.31,4.39-2.92-17.71-2.85-20.8-10.39,6.91-16.15,18.2-11.31,30.72.5,1.29,4.73,2.97,3.31,4.27-4.21,3.86-11.03-11.81-11.54-14.95-.82-5.06,3.07-15.42,2.53-16.05-.48-.57-8.12,6.29-8.98,7.51-5.4,7.67-4.75,13.09-2.01,21.49,9.33,4.26,16.06,8.57,26.36,5.06.63-3.69,20.6-20.98,22.14-21.06,4.45-.21-2.81,11.2-2.5,11.99.15.38,7.19-2.74,7.53-2.95,5.89-3.52,9.47-8.37,10.46-15.04Z" fill="#8d8d8c"/>
      <path d="M648.45,231.17c10.56-5.65,15.43-19.93,8.84-30.34l-10.83-9.66c7.59-.55,16.04,4,20.45,10.04,1.22,1.67,3.53,9.93,5.05,9.93,1.06,0,4.16-7.37,4.3-8.75,1.37-13.25-18.03-17.12-15.8-19.22.69-.65,11.87-1.68,17.04-7.46,2.71-3.02,9.09-19.4,3.95-17.07-.74.34-8.71,10.15-11.03,11.95-2.81,2.19-10.26,7.26-13.3,8.73-15.38,7.47-15.29-6.54-15.66,15.84-.06,3.59-1.12,5.83-1.06,7.41.02.55,6.2,4.95,4.59,9.56-.18.51-6.04,8.26-6.44,8.61-2.62,2.24-7.13,2.28-9.81,4.15-5.72,3.98,11.09,2.82,12.18,3.19,1.19.41.27,2.88.55,3.07,1.07.74,5.58-2.48,7,0Z" fill="#8d8d8c"/>
      <path d="M462.45,449.17c-2.06,3.25,0,14.5-6,14,4.75,11.2,3.98,25.31-2,36-2.92,4.99-1.49,7.53-2.18,11.23-.27,1.44-2.57,3.12-2.77,4.32-.84,4.87,3.19-1.38,3.42-1.55,2.57-1.94,19.82-14.6,21.05-15,1.04-.34-.28,2.49,1.48,1.99-.54-4.49,2.88-4.68,3.02-4.99,4.87-11.03,4.64-35.6-7.99-41.99,4.6,9.49,5.95,21.53,1.01,30.99-.07-3.7.31-7.38-.45-11.06-1.64-7.98-6.48-18.49-8.56-23.94Z" fill="#8d8d8c"/>
      <path d="M509.45,419.17c3.3,4.92-.9,6.63,4,10,1.34.92,5.61.79,7.37,3.96.95,1.7.88,13.02.5,15.44-.56,3.51-9.59,12.79-12.87,15.6-.71.61-1.29,1.39-2,2-1.56,8.85-7.51,15.27-7.75,25.76-.14,6.28,11.06-5.72,12.57-8.44,2.09-3.75,2.78-10.9,3.18-11.32,1.67-1.77,6.47,5.14,10.41,4.98,4.85-.2,12.17-8.07,12.57-12.97-1.73,2.79-14.94,9.07-15.02,3.49-.04-2.83,11.26-9.24,13.03-18.5,2.41-12.59-2.79-.31-4.99-3.01-.61-.75.73-10.77-5.47-18.03-5.24-6.13-10.22-6.37-15.53-8.97Z" fill="#8d8d8c"/>
      <path d="M482.45,436.17c-.85,4.68,2.53,8.28,3.02,12.48,1,8.57-4.03,26.16,4.98,29.52,2.64-5.64,10.43-7.24,16-12,.41-2.32-1.27-4.64,2-4,0-1,0-2,0-3v-5c-2.31-13.3-4.21.07-6.55,3.95-.78,1.3-8.96,11.81-10.44,10.04-.5-.59,1.43-12.2.92-15.43-.87-5.48-6.77-9.73-6.93-15.57-.82-1.1-2.01-.75-3-1Z" fill="#8d8d8c"/>
      <path d="M863.27,798.19c-1.53-1.07-3.07-2.1-4.61-3.08,0-.01-.01-.01-.01-.01-.35-.98-.72-1.97-1.09-2.95-.59-1.57-1.18-3.14-1.8-4.71-.31-.83-.63-1.65-.96-2.48-.11-.28-.22-.57-.34-.85-.39-.99-.78-1.98-1.19-2.97-2.15-5.35-4.39-10.66-6.72-15.93-.51-1.17-1.03-2.33-1.55-3.49-2.73-6.1-5.57-12.17-8.5-18.19-.54-1.13-1.08-2.25-1.64-3.37-1.03-2.11-2.07-4.21-3.12-6.3-4-7.97-8.12-15.87-12.31-23.71-1.17-2.22-2.36-4.43-3.55-6.63-2.96-5.46-5.94-10.9-8.94-16.32.52.49,1.05.98,1.56,1.48.52.5,1.04,1,1.55,1.51.47.46.94.93,1.41,1.41.09.09.18.19.27.28.46.46.91.93,1.36,1.41,4.58,4.81,8.89,10,12.93,15.5.72.97,1.42,1.95,2.11,2.94.55.77,1.09,1.55,1.63,2.34.83,1.22,1.65,2.45,2.45,3.7.41.63.82,1.27,1.22,1.91,1.61,2.56,3.17,5.16,4.67,7.81.75,1.33,1.48,2.66,2.21,4.01.36.67.72,1.34,1.07,2.02.96,1.83,1.89,3.67,2.79,5.53.43.89.86,1.79,1.29,2.7.44.93.87,1.87,1.29,2.81.53,1.15,1.04,2.31,1.54,3.48.28.63.55,1.27.81,1.91.42.99.83,1.99,1.23,2.99.42,1.01.82,2.03,1.21,3.04.07.19.15.39.22.58.42,1.08.82,2.15,1.21,3.24.53,1.43,1.04,2.88,1.54,4.32.62,1.8,1.21,3.61,1.78,5.43.23.73.46,1.45.68,2.18.35,1.15.69,2.31,1.02,3.47.34,1.18.67,2.37.99,3.55.4,1.48.78,2.96,1.15,4.44.29,1.17.56,2.35.83,3.52.03.11.05.22.08.34.24,1.03.46,2.06.68,3.08.57,2.69,1.09,5.38,1.55,8.06Z" fill="#8d8d8c"/>
      <path d="M699.45,192.18c-.9.96,6.53,23.53-11,1,1.27,11.37-4.78,22.75-11.26,31.77-.34.47-1.98.16-2.74.23,16.98,9.6,19.69-8.14,25.94-13.34,5.21-4.33,2.34,7.71,1.53,10.31-3.75,12.08-14.41,16.71-26.48,16.03,15.5,12.62,33.03-4.6,33.87-21.63.13-2.59-4.2-30.4-9.87-24.38Z" fill="#8d8d8c"/>
      <path d="M573.45,199.17c-3.2-.75-9.45-6.41-11.74-6.85-3.67-.71-2.19,3.25-4.73,2.84-2.16-.35-3.35-7.96-8.53-4.49-2.74,1.84-1.33,18.18-.21,21.16.53,1.41,9.6,6.09,9.25,12.81-.29,5.63-7.82-4.98-9.05-5.47-.26-.11-.67.09-1,0-11.74-3.02-5.3,9.52-.51,10.02,3.54.37-.23-4.2.52-5.01.8-.87,20.51,10.93,18-3.01-.59-3.29-8.6-15.7-6-17.99,4.45-3.92,10.35,15.09,13.98,12.99,1.16-.67,1.8-14.65.01-17Z" fill="#8d8d8c"/>
      <path d="M637.45,271.17c-3.9,3.87,0,3.14,0,4-.03,12.39-14.81,24.71-27,24.01,2.76,1.65,13.08,3.16,16.5,3.08,7.68-.19,15.08-6.2,18-13.09,1.53-3.62,2.26-13.27,2.64-13.86.51-.8,12.95-2.93,17.77-6.73,3.77-2.97,6.52-7.41,8.1-11.9l-36.01,14.49Z" fill="#8d8d8c"/>
      <path d="M392.45,400.17c-.63.44-4.8,6.45-4,8,3.68,3.9,4.17,7.15,8.08,10.42,4.83,4.03,13.84,6.12,19.92,7.57-7.58-7.76-16.62-11.89-6-21.99.2-.19-.09-1.76,1-2-1.25-.8-4.63-5.25,0-4.98-3.57-3.51-15.67.64-18.99,2.98Z" fill="#8d8d8c"/>
      <path d="M609.45,359.17c1.09-.68,12.2-6.24,14-7,.36-1.89,2.2-1.5,3-2,1.34-.83,2.34-1.46,3-3,1.38-3.26,2.6-20.91-2.31-20.86-.45,0-8.3,2.14-8.69,2.37-3.45,2-1.36,8.69-2.44,12.56-1.67,5.95-7.06,11.53-6.56,17.94Z" fill="#8d8d8c"/>
      <path d="M272.45,150.17c-6.45-1.74,1.68,17.04,2.62,18.88,3.89,7.57,13.68,15.54,22.38,16.11-.48-3.76-3.98-2.86-5.32-5.26-2.94-5.29-.91-12.26-2.68-17.73-2.4-1.17-6.16-3.87-6.52-3.99-2.15-.74-1.09,2.23-1.98,1.99-1.08-.29-7.83-8.5-8.51-10Z" fill="#8d8d8c"/>
      <path d="M421.45,509.17c.78,3.36,1.22,5.93,2,9,.21.83,1.88,2.2,2,3,7.18.27,6.45-4.09,9.02-6.48,2.25-2.08,4.14.97,5.98-6.52,1.99-8.11-2.1-2.06-4.01-3.99-.67-.68-2.2-18.71-8.48-15.99-2.15.93,1.74,19.34-6.51,20.99Z" fill="#8d8d8c"/>
      <path d="M662.45,307.17l-3,2c-.49.28-1.5.8-2,1l-4.99,4.99c7.42.42,11.48.51,17.99-2.99.27-.14.77.15,1,0l1-1c9.58-8.34,5.31-30.75-1.51-30.99-1.45-.05,1.38,17.95-8.49,26.99Z" fill="#8d8d8c"/>
      <path d="M359.45,396.17c-13.09,24.4,4.51,6.34,6.99,9.01,4.97,5.34-19.15,17.93-23.48,18l1.48,1.99c11.82-.24,22.07-2.5,27.17-14.33,4.9-11.38-4.7-9.52-12.17-14.67Z" fill="#8d8d8c"/>
      <path d="M619.5,403.23c-4.53,4.91,11.44,6.82,14.33,6.6,4.32-.33,12.5-4.14,14.39-8.39.62-1.39,2.65-11.8,2.23-12.26-.65-.71-13.43,8.88-16.32,10.17s-14.11,3.32-14.63,3.88Z" fill="#8d8d8c"/>
      <path d="M662.45,149.17c-.02-.09-1.77.28-1.9-.08-.71-1.94.35-6.68-3.09-5.91.53,6.89-.08,10.48-4.01,15.99-.26.36-.7.65-1,1,.18,2-1.04,2.11-2,3-1.08.99-2.19,2.3-3,3-2.41,2.09.22.84-4,3-1.47.75-4.37.49-5,2.99,9.56.92,14.89-1.57,20-8.99l4-12c-.09-.63.13-1.4,0-2Z" fill="#8d8d8c"/>
      <path d="M662.09,239.81c-4.25,3.77-25.74,24.86-8.65,17.85,5.72-2.35,13.31-12.03,13.69-18.14.47-7.41-3.86-.76-5.05.29Z" fill="#8d8d8c"/>
      <path d="M298.45,205.17c-.27-1.5-4.78-3.2-4.99-3-1.09,1.05,2.95,3.75,1.99,4.99-1.33,1.72-3.97-1.2-6,8.01-.44,2.01.46,4.87-.24,7.26-.91,3.13-11.83,21.16.75,7.76,5.43-5.78,7.81-17.24,8.48-25.02Z" fill="#8d8d8c"/>
      <path d="M691.45,316.17c2.41,2.6,9.81-10.41,10.35-13.13.58-2.93.47-16.73-2.86-16.84-2.35-.08-1.28,12.01-1.75,14.23-.56,2.64-6.32,15.13-5.75,15.74Z" fill="#8d8d8c"/>
      <path d="M551.45,430.17c-2.75-7.62-5.77-13.3-9-2,3.25,4.66,4.95,13,5.01,18,3.08-1.74,6.23-11.79,5.77-14.44-.19-1.11-1.72-1.39-1.78-1.56Z" fill="#8d8d8c"/>
      <path d="M337.45,446.17c-.2-.29-3.16-1.79-3.99-4.99-4.49,15.19-13.83,1.86-15.01,20.99-.09,1.38-.4,3.98.49,4.99,2.09-4.26,4.38-11.68,8.95-14.04,3.99-2.07,4.23.04,5.56.05,5.97.05-.31-2.53,5-5-.3-.44-.5-1.26-1-2Z" fill="#8d8d8c"/>
      <path d="M565.45,237.17c-.1.03.36,1.81-.67,2-7.58,1.44-9.41-1.51-15.3-4.52,4.01,5.35,8.87,10.7,15.49,12.51-4.38,5.84,2.77,1.89,4.23-1.75.87-2.15.73-6.7,1.25-9.25-1.61.6-3.61.55-5,1Z" fill="#8d8d8c"/>
      <path d="M437.45,401.17c-4.32-3.15-26.92-15.65-21-4,5.91-2.66,17.64,6.27,20.44,6.07,1-.07.46-2.02.56-2.07Z" fill="#8d8d8c"/>
      <path d="M582.45,131.17c-6.81-2.91-10.68-5.91-18.99-2.99,5.25,2.6,10.71,3.05,15.99,5.99h1c.6.38,1.47.57,2,1,5.28.52,2.85-1.97,0-4Z" fill="#8d8d8c"/>
      <path d="M352.45,469.17c-.33.2-.96,4.37-6,3-.28.34-.85.66-1,1-3.79,8.73,2.05,2.97,2.51,3,.27.02,1.27,3.54,4.49,2,.15-.24-.15-.75,0-1,1.94-3.22,3.52-7.02,5.01-10.49-1.48.78-3.62,1.63-5.01,2.49Z" fill="#8d8d8c"/>
      <path d="M552.45,255.18c2.15,1.95,2.75,4.58,4.97,6.51,14.61,12.67,6.65-8.25-4.97-6.51Z" fill="#8d8d8c"/>
      <path d="M438.45,401.17c-.76,2.97,3.64,2.45,6,3,.36-2.41-3.86-4.85-5.53-4.97-.18-.01-.16,1.83-.47,1.97Z" fill="#8d8d8c"/>
      <polygon points="560.95 249.17 560.45 249.67 560.95 250.17 560.95 249.17" fill="#8d8d8c"/>
      <path d="M647.94,726.2v.98c1.76,1.87,1.94.42,0-.98Z" fill="#8d8d8c"/>
      <polygon points="282.95 235.17 282.45 235.67 282.95 236.17 282.95 235.17" fill="#8d8d8c"/>
      <path d="M463.45,697.17c-.06.32.05.67,0,1-.12.82-.07,1.62-1,2-.05.33.06.68,0,1-.98,5.7-3.18,10.61-5,16-6.69,19.82-14.08,39.42-19.97,59.51,3.64,1.02,18.25-14.43,18.97-13.51,1.86,2.37-1.15,45,9.72,15.21,3.95-10.82,6.45-27.59,8.28-39.22l5-54c0-.67,0-1.33,0-2l-2.49-18.99c-7.31,9.47-7.6,22.87-13.51,32.99Z" fill="#8d8d8c"/>
      <path d="M404.45,452.17c-12.89,1.24-24.94,1.76-35.96-5.54-2.44-1.62-4.14-6.55-8.56-7.43,2.36,11.43,12.68,15.31,19.51,21.97.57.55,4.76,5.66,5,6,1.93,2.77-9.38,17.92-5.99,24,6.02-.92,19.9-25.44,21.51-25.99,7.1-2.44-1.46,25.95-.51,26.98,2.84,3.07,8.62-6.11,9.99-8,2.07-2.84,11.31-17,10.69-19.55s-16.91-4.87-13.69-7.44c.37-.29,7.01-1.49,8.98-2.53,2.98-1.56,5.24-3.7,8.02-5.48-3.43.27-6.57,1.7-10,2-1.97.18-4.02-.12-6,0-.63.14-1.12.82-3,1Z" fill="#8d8d8c"/>
      <path d="M333.81,532.82c1.41,2.17,14.96,10.09,15.63,9.35.71-.79.59-14.95,2.72-20.78,1.22-3.36,10.94-17.38,10.28-18.19-.12-.15-3.1-1.06-3.78-.84-4.33,1.26-17.42,17.9-18.71,17.8-4.61-.35,4.41-22.66,6.48-24.49-13.64,6.41-21.36,23.63-12.61,37.16Z" fill="#8d8d8c"/>
      <path d="M439.45,473.17c1.47-2.01,1.48-4.04,2.99-4.99l.02,33.99c11.75-12.02,3.01-26.95.99-40.99-1.8,3.35-3.64,8.16-4,12Z" fill="#8d8d8c"/>
      <polygon points="572.45 306.17 573.45 305.67 572.95 305.17 572.45 305.67 572.45 306.17" fill="#8d8d8c"/>
    </g>
    <g opacity=".9">
      <path d="M494.96,511.19c46.02-25.35,91.97-52.4,142.49-68.01-1.09.53-3.17.74-2.99,1.99,13.42.69,27.68-.89,40.99.01,5.85.4,15.2,1.79,21,3-3,2.61-6.86-.17-10.23.19-3.12.33-5.11,3.72-5.5,3.8-2.69.56-5.67-1.17-6.67-.97-.58.12-.58,1.76-1.37,1.9-27.03,4.89-57.2,2.57-80.23,18.07,13.72-1.86,27.57-4.23,41.46-5.02,13.56-.77,29.72,1.21,42.54.04-.51-2.6.5-1.58,1.48-2.04,6.11-2.88,17.6-4.59,24.52-6.96-6.94,4.14-17.97,8.27-26,9,.53,2.69,48.53,20.57,48.99,24.51.3,2.58-47.16,7.37-50.99,9.5l45,33.98-76,.02,34.99,37.98c-11.52-.93-89.26-17.93-93.99-13.98-1.22,1.02,15.67,25.54,15.98,27.51s-.09,1.34-1.47,1.48c-10-.24-78.49-21.89-81.51-19-1.42,1.36,11.73,28.75,12.48,33.01-38.59-8.4-76.64-25.09-116.48-26l31.99,13.98c-12.47-.05-22.58,7.77-33.99,11.01.82-.07,11.92-7.01,14.41-8.13,2.89-1.3,13.27-2.85,10.59-5.85-.81-.91-22.03-8.76-22.99-8.02-1.19.93-1.36,18.55-4.03,21.48-.02.89,1.33.57,2.02.52-.42.12-.21,2.18-4.22,1.83-9.85-.85-24.24-10.5-37.28-9.91-2.6.12-12.11,3.7-12.49,5.58-.06.32,5,2.09,5.99,2.49-3.42-.48-2.41,0-3.3,2.16-2.63,6.43-4.8,13.84-7.69,17.83.97-.05,2.03.15,2.99.01-6.82,7.22-16.01,11.43-23.53,17.97-4.17,3.63-9.8,9.37-13.44,13.56-2.07,2.38-7.96,13.26-8.73,13.51-.83.27-17.33-1.66-17.31-2.54.09-2.95,30.26-24.04,28.99-25.49-1.16-1.34-21.01-2.44-20.99-3.51.09-4.39,61.95-47.73,70.09-52.91,11.7-7.45,23.89-12.92,35.9-19.6,33.59-.05,64.26,7.37,96,16.99-14.66-20.85-36.48-28.95-61.47-26.96-9,.72-17.58,4.63-26.53,4.97,27.17-14.79,53.66-30.19,80.51-44.99ZM590.45,471.67l.5.5v-1s-.5.5-.5.5ZM617.93,485.19c12.98,1.27,31.23,6.68,43.05,6.01,2.38-.13,33.47-6.8,33.48-8.53.02-4.09-50.6-5.64-55.55-5.54-15.51.33-35.04,1.54-49.46,7.02,9.49-.14,19.04.11,28.48,1.03ZM606.69,510.43c8.06,2.85,22.31,11.62,29.33,12.67,13.12,1.96,30.87-3.82,44.42-2.93-.08-2.72-6.79-5.03-9.31-6.18-40.62-18.49-89.91-27.36-133.68-15.8,23.78.61,46.79,4.32,69.23,12.24ZM550.44,520.68c6.48,1.73,49.37,16.79,50.01,21.01.5,3.24-16.52.1-13.03,4l56.02,8.47c-23.67-19.76-59.3-39.29-90.53-41.96-4.18-.36-35.64-.64-36.47.99s30.84,6.65,33.99,7.49ZM528.45,559.16c11.5-1.24,41.58,10.46,50.48,9.03,2.21-.36-8.33-10.62-9.45-11.56-23.78-19.98-64.71-40.4-95.04-24.47,21.19.78,46.44,7.12,65.01,17.5,2.78,1.55,8.8,4.5,9.98,7.52-5.73.62-13.01-.85-18.5,0-.46.07-2.84.97-2.49,1.99Z" fill="#fefefe"/>
      <path d="M433.45,285.17l2.99,1.99c-2.99.47-9.84,5.39-9.99,8.01-1.33.66-2.84-.31-5.05,1.74-4.41,4.1-4.44,13.98-6.46,19.31-.23.61-2.45.66-2.57,1.51-.25,1.68,13.98,17.09,15,23.01,1.52,8.8-2.14,14.6-6.93,21.43,6.1,5.1,12.03,9.21,9.74,18.25-.56,2.21-5.99,7.29-5.74,7.74,1.18,2.12,42.49,9.1,48,7.01-6.86.64-22.34-3.4-29.99-4.01,4.99-2.36,5.3-2.01,6.01-7.98l14.6,6.94,12.38,2.07c.3.92-1.38,1.75-1.99,1.98,5.11,2.87,24.08-9.97,24.99-8.99,1.97,2.1-9.69,23.85-8.99,24.99.14.23,1.67-.22,1.99,0,.21-4.85,5.76-4.4,8.25-9.25,1.06-2.06.36-4.61,1.31-6.69,1.05-2.31,8.09-14.78,5.44-17.05-1.08-.93-23.47,2.08-28.53,1.08-1.98-.39-1.69-1.53-2.46-3.07,3,1.29,6.25-2.9,6.6-2.99.64-.17,10.18.25,11.76-.07,19.49-3.95,37.93-24.43,39.66-44.47.84-9.72-8.73-11.2-7.01-12.48.61-.46,13.35-2.78,14.99-3.02-3.15-2.27-11.21-3.59-15-3.99-4.54-.47-12.38-.36-17,0-10.23,17.51-32.35,22.48-51.36,20.86-5.38-.46-27.75-6.05-22.63-13.86.46-.7,11.16,6.64,14.93,7.55,7.93,1.92,27.16,2.23,34.72-.31,10.16-3.41,10.21-12.38,21.34-14.25-3.44,2.64-13.24-5.82-13.99-5-.18.2.31,3.09-.94,4.57-4.35,5.16-15.9,5.33-22.07,4.43l-35.99.99c3.03-8.31,24.2-3.79,31.99-2.99-2.02-2.08-3.96-3.47-5.15-6.33-1.2-2.91-.65-8.44-2.37-8.7-12.65-1.91-13.79,5.93-20.14,10.88-13.6,10.61-16.67-2.85-3.35-8.83-3.04-.73-8.22,1.92-7.99-2.01,23.64-11.67,47.26-9.48,72-2.01-15.92-11.73-46.04-12.31-65-7.99Z" fill="#fefefe"/>
      <path d="M326.45,404.17c1.67.22,30.14-11.57,31-13.02,1.69-2.86-13.45-9.07-11.9-21.39,1.65-13.12,25.28-41.7,22.91-60.08-11.96,6.52-28.13,9.11-30.92-8.12-.49-3.04,3.22-4.56-1.48-4.3-18.68,1.04-8.89,15.9-9.61,16.9-.24.33-3.87-1.14-3,2.01,1.08,1.87,10.49,8,11.5,8h17.5c-1.95,9.58-23.95,3.62-27.58-.92-2-2.49-1.39-5.07-2.42-7.08-1.54-2.99-3.73-4.87-4.78-8.78-.75-2.77,1.5-6.59-.21-7.73-6.61-4.41-9.79,20.68-9.98,23.03-2.52,31.94,9.79,52.05,17.97,81.47,2.31-8.38-3.52-15.97-4.95-22.56-2.09-9.61,8.12,4.47,8.87,9.13.6,3.72.7,11.15-2.93,13.43Z" fill="#fefefe"/>
      <path d="M457.45,433.17c-23.17-5.02-61.2,8.33-86.36,5.86-5.78-.57-23.2-7.78-25.61,2.67-2,8.65,1.51,23.39-3.04,32.96l3.01-1.49c.15-.34.72-.66,1-1,2.88-3.58,5.04-2.28,6-3,.11-.08-.26-1.43.23-1.75,12.86-8.33,4.97.17,2.77,8.75,2.87-1.11,4.7-1.72,7-4,2.75-4.59,11.76-9.68,17-11-6.83-6.66-17.16-10.54-19.51-21.97,4.41.88,6.12,5.81,8.56,7.43,11.01,7.31,23.06,6.79,35.96,5.54-10.67-.81-21.97-3.11-29-11.99l69-6c-7.09,4.64-13.94,10.45-21,14.99-2.78,1.79-5.04,3.92-8.02,5.48-1.97,1.03-8.62,2.24-8.98,2.53-3.22,2.57,13.08,4.93,13.69,7.44s-8.62,16.71-10.69,19.55c10.53-2.32,14.66-13.45,21.28-20.73.79-.87,3.93,1.12,2.74-4.27l4,15.99c1.15.23,1.38-1.17,1.99-1.99.36-3.84,2.2-8.65,4-12,5.72-10.64,8.28-9.14,13,2,5.99.5,3.94-10.75,6-14-1.98-5.17-4.36-10.4-5-16Z" fill="#fefefe"/>
      <path d="M570.45,877.17c.25,1.26.45,5.6,1.63,6.06,2.27.89,8.61.55,9.37-2.56,1.02-4.16-2.21-51.78-3.94-53.86-.74-.88-22.12-1.31-23.01-.58-2.21,1.81-10.24,53.76-9.08,56.37.76,1.72,9.44.81,11.03.57-.85-1.25-3.85-.55-3.99-1.49-.32-2.1,13.99-30.79,13.99-40.01v-14.5c12.99-.57,10.7,5.2,11.98,16.52.67,5.99,2.64,31.36,1.78,35.73-.78,3.95-7.02,3.46-7.76,2.76s1.79-5.86-1.99-5.01Z" fill="#fefefe"/>
      <path d="M313.45,292.17c15.51-3.78,30.49-3.85,46.01-.51,3.57.77,17.71,9.14,13.49-2.44-2.93-8.07-27.05-14.63-34.97-15.07-3.87-.21-31.99,1.26-33.52,2.53-4.28,3.58.55,17.57,3.53,20.45s8.77-2.58,4.46-3.95c-5.67,4.19-8.23-7.73-7.99-8.44.77-2.22,10.97-2.82,11.99.44,9.36-7,40.34-7.16,49,2.99-17.24-5.83-33.63-4.69-51,.01-.99,1.2-.73,3.64-1,4Z" fill="#fefefe"/>
      <path d="M575.45,791.17c-20.86-6.2-29.67,9.71-29.99,28,4.97-2.78,37.62-.6,39-1.99.25-.25.5-6.32-1-7-.03,1.16.22,5.79,0,6.01-.36.36-9.35.28-10.13-.59-.83-.92-4.78-23.56-3.88-24.41.22-.21,5.02-.08,6,0Z" fill="#fefefe"/>
      <path d="M551.44,826.18c-2.12.95-6.41.52-7.99,1.5-3.18,1.96-13.28,45.52-11.8,49.78.8,2.3,3.71,3.7,5.84,2.28,2.43-1.62,11.48-47.12,13.95-53.55Z" fill="#fefefe"/>
      <path d="M371.46,427.19c6.47,6.66,20.41,4.16,28.98,4.98l-15.71-12.88-13.27,7.91Z" fill="#fefefe"/>
      <path d="M291.44,308.18c-1-.78-7.9,1.81-11.41-4.09-1.01-1.7-1.32-6.69-1.59-6.92-3.82-3.19-8.35,10.56-1.35,15.86,8.67,6.56,16.16-3.44,14.35-4.85Z" fill="#fefefe"/>
      <path d="M295.59,58.34c-5.04,3.74-6.06,24.4.31,28.88,1.28.9,7.72,2.57,8.54,1.95.6-.45-6.53-7.57-7.54-12.95-.62-3.31-.5-6.2-.42-9.52.06-2.43,3.8-11.84-.89-8.36Z" fill="#fefefe"/>
      <path d="M485.96,138.2c1.37.32-3.35,5.27-.03,4.97,8.48-3.08,17.5-4.51,26.51-3.99-5.92,2.6-25.07,8.29-8.99,9.99-.51,4.34.43,2.32,2.43,3.03,7.45,2.66,11.38,3.52,13.62,12.41s.55,7.63-6.05,11.56c-1.1.65-4.73-1.76-2.78,4.27,1.75,5.42,16.29,8.63,21.33,8.74,4.77.1,17.92-5.91,9.98,3.03-4.47,5.03-12.12,7.22-18.53,7.46,14.13,7.09,22.26-1.8,24.99,19.51-.26-.11-.67.09-1,0-3.84.29-14.64-8.16-15.51-7.99-1.16.23-.13,3.01-.49,3.99-2.95,7.98-2.64,14.93-5.22,22.28-1.12,3.18-7.49,11.65-7.6,12.37-.19,1.27,5.62,12.12,6.38,15.28.69,2.85.3,5.3.44,8.06-13.28-21.16-21.88-11.74-40-8,4.71-3.21,25.67-6.87,12.27-12.77-10.32-4.54-20.79,1.28-30.26,4.28,7.68-6.02,19.4-11.15,28.99-8.52-12.98-15.6-32.3,1.5-46.61,2.89-15.97,1.55-32.83-7.84-36.4,17.11-4.16-4.87,2.86-13.75,2.95-17.56.13-5.2-8.61,5.97-9.65,9.36-1.71,5.54-2.1,12.6-.29,18.2-6.48-.4-3.69-18.69-6.51-15-3.92,5.14-.78,12.58,2.51,17.01-4.48,4.03-13.16-2.57-15.83-6.67-6.32-9.69-1.28-19.15-.17-29.33-1.13-.32-4.48,4.22-4.76,4.69-4.91,8.49-5.83,13.69-2.72,23.28,4.19,12.91,17.61,15.25,21.56,21.46,3.66,5.77-3.83,9.54-4.99,12.36-3.14,7.63-15.33,43.38-15.19,49.69.08,3.9,3.45,10.73,1.64,13.54-1.32,2.05-16.27,6.37-19.79,5.71-9.32-1.75-1.86-7.91-4.74-13.75,9.83-22.39,14.79-44.19,23.52-66.88-5.94-11.97-14.01-22.85-13.53-37.11-8.2,3.39-1.63,12.57-11.99,2l1.51,5.97c-8.68-4.72-25.06-10.47-34.75-9.69-5.15.41-22.91,10.68-23.76,9.71-.64-.72,2.61-16.31,2.99-18.99,4.6-.49,3.99-5.66,8.08-9.42,2.29-2.1,12.63-7.58,15.42-7.58h22.5c.35,0-.17,4.57,4.99.02-9.89-5.02-21.14-4.69-31.73-6.63-4.37-2.48-2.3-34.11-.6-40.48,2.64-9.89,8.07-21.15,16.33-27.41-2.19-.51-9.03,1.42-10.59,2.41-10.34,6.54-19.22,69.27-22.25,83.8-.38,1.81.87,3.9-2.15,3.3,3.12-21.45,8.16-58.58,16.82-77.68,5.39-11.89,8-11.8,19.94-15.06,3.76-1.03,9.45,1.86,8.24-3.26,3.17,2.24,7.82-1,10-1,5.09-.01,15.65,4.17,16.49,4.01,1.57-.29-1.28-4.9,2.5-4.01l2.03,7.99,4.98-6c1.01,9.95.84,14.86,7.02,3.01,2.07.18.73,5.68,2.57,6.02,4.67.85,17.43-9.21,21.42-12.03,2.38-1.68,4.7-4.82,5-5,11.13-6.71,2.97,5.88,4.01,6.99.75.81,5.64-2.83,7.59-2.97,3.82-.28,9.42,1.3,14.4.98,2.97-.19,6.12-1.82,8-2,4.71-.46,6.64,1.62,12,0,2.65-.8,3.56-2.88,4-3,2.7-.72,16.1-3.31,17.51-2.97ZM402.93,233.15c8.31-.89,16.91-3.67,25.13-4.87,7.59-1.11,16.99.54,23.39-3.09-9.64-8.66-55.73-1.77-60.98,7.01-1.64,2.74,9.99,1.22,12.47.96Z" fill="#fefefe"/>
      <path d="M446.45,270.17c-3.63,6.67-15.47,8.71-19,15,20.48-12.55,53.53-7.75,74,3l-4.5-16.01,3.5-.99c-5.92-1.59-11.39-4.53-18-3.01.4-1.15,2-2.31,3-2.99-12.85,2.65-26.07,2.83-39,5Z" fill="#fefefe"/>
      <path d="M574.45,780.17c-3.15-1.63-2.35-6.77-3-10-5.81-.45-17.3,3.92-14.95,11.4.64,2.05,14.95-1.22,17.95-1.4Z" fill="#fefefe"/>
      <path d="M593.45,846.17c-.33-2.79-2.04-19.12-3.11-19.89-.36-.26-6.65-.36-6.89-.12-.82.81.84,20.07,1,23,2.88.6,2.11-1.62,2.05-3.5-.15-4.22-4.15-21.34,2.46-16.51l4.49,17.01Z" fill="#fefefe"/>
      <path d="M602.45,438.17c-.25,3.02,1.96,1.09,1.99,2.98l-42.51,17.99,2.51-6.97c-.37.44-2.12.47-3.05,1.69-.53.69-5.44,11.16-2.46,10.3,1.85-.53,15.09-8.99,19.16-10.85,7.57-3.45,31.11-11.21,35.65-15.09.81-.69,2.34-4.68,3.21-6.03-3.75,3.45-8.99,8.08-14.51,5.98Z" fill="#fefefe"/>
      <path d="M584.45,383.17c9.84-11.49,6.09-26.59,10-40-6.06,7.95-2.49,12.01-4.28,21.22-1.32,6.77-3.61,12.4-5.72,18.78Z" fill="#fefefe"/>
      <path d="M565.45,288.17c1.62,1.96,2.65,4.4,5,5.99-6.89-.69-11.32-2.29-8.58,7.11,1.38,4.73,7.65,5.51,10.58,6.9,2.2,5.71-5.24,9.72-6,15,2.03-4.41,12.84-11.74,6-15-.2-.52.22-1.79,0-2-.27-.25-4.85-.63-6.94-2.56-8.03-7.44.48-9.91,7.94-8.44.46-.39,2.93.64,2-3-3.48-1.01-7-1.79-10-4Z" fill="#fefefe"/>
      <path d="M704.45,450.17c10.94,4.02.4,1.69-1,7,9.38-3.26,17.9-7.02,1-7Z" fill="#fefefe"/>
      <path d="M615.45,383.17c-11.72,6.82-20.17,13.6-32,2-.65,2.62,2.17,4.34,5.68,5.82,12.16,5.13,17.38-.64,26.32-7.82Z" fill="#fefefe"/>
      <path d="M644.45,324.17c-12,.67-8.58,14-13,22,6.61-5.13,3.2-13.18,5.92-17.34,1.2-1.82,7.36-1.24,7.08-4.66Z" fill="#fefefe"/>
      <path d="M623.45,352.17c-1.8.76-12.91,6.32-14,7-.21.13-.95,2.71-3,4,6.54-2.59,16.15-7.06,20-12-1.09.09-2.02.58-3,1Z" fill="#fefefe"/>
      <path d="M606.45,337.17c.31,9.7-11.67,18.14-11.06,27.55.17,2.63,1.59.99,2.06,1.45-1.94-9.9,8.86-17.31,10.56-25.95,1.26-6.39-.4-3.04-1.56-3.05Z" fill="#fefefe"/>
      <path d="M595.45,342.17l10-5c-5.47.9-5.96,1.03-10,5Z" fill="#fefefe"/>
      <path d="M560.45,281.17c-5.55.11-.55,1.62,0,2,.42,2.09.5,2.96,3,3-1.42-1.57-.05-.94-3-3-.12-.61.08-1.36,0-2Z" fill="#fefefe"/>
      <path d="M629.45,368.17c-2.34-.42-2.27.94-2,3,1.3-1.49,1.51-2.38,2-3Z" fill="#fefefe"/>
      <path d="M646.45,324.17c.13.09.98,2.84,1,3v-4s-1,1-1,1Z" fill="#fefefe"/>
      <path d="M459.45,434.17c.67.28,2.6-.29,3,0h-3Z" fill="#fefefe"/>
      <path d="M602.45,366.17l3-2c-.69.47-2.56,1.79-3,2Z" fill="#fefefe"/>
      <polygon points="294.95 321.17 294.45 321.67 294.95 322.17 294.95 321.17" fill="#fefefe"/>
      <path d="M526.45,277.17c.03-.18.82-.47,0-1v1Z" fill="#fefefe"/>
      <path d="M526.45,275.17c-.09-.31-.73-.68-1-1,.1.43.61.8,1,1Z" fill="#fefefe"/>
      <path d="M424.45,287.17l1-1c-.36.28-.71.64-1,1Z" fill="#fefefe"/>
      <path d="M403.45,282.17l-1-1c.34.36.56.7,1,1Z" fill="#fefefe"/>
      <path d="M407.45,451.17c1.98-.12,4.03.18,6,0-1.94-2.64-4.46-.34-6,0Z" fill="#fefefe"/>
    </g>
  </g>
  <g>
  <animateTransform
    attributeName="transform"
    type="translate"
    dur="3s"
    repeatCount="indefinite"
    values="0 0; 0 -15; 0 0; 0 15; 0 0"
    keyTimes="0;0.25;0.5;0.75;1"
  />
    <path d="M224.57,571.34c1.54,1.4,2.44,4.1,2.88,8.67.47,4.87-.39,8.68-2.57,11.33l-.64.78-9.77.95c-21.13,2.05-39.62,1.06-54.96-2.93-15.51-4.04-28.24-11.26-37.84-21.47l-.06-.07c-1.88-2.15-3.42-4.05-4.58-5.62-1.23-1.66-2.32-3.54-3.22-5.58-.85-1.91-1.72-4.01-2.6-6.24-.95-2.41-1.57-5.06-1.84-7.87-.24-2.53-.75-6.06-1.5-10.49-.77-4.55-1.37-9.02-1.78-13.27l-6.47-66.72c-3.82-35.25-5.84-44.84-6.78-47.29-.47-.52-.72-1.05-.85-1.51-5.4-10.53-14.02-18.44-25.64-23.49-11.87-5.17-23.42-7.25-34.31-6.2-4.4.43-7.1.01-8.75-1.35-1.67-1.38-2.6-4.16-3.1-9.3s-.12-8.05,1.25-9.72c1.36-1.65,3.93-2.58,8.33-3,10.57-1.02,21.33-5.27,31.99-12.62,10.54-7.27,17.69-16.82,21.24-28.38l.02-.07c1.16-3.38,1.43-8.35.8-14.79-.66-6.79-2.91-31.72-6.69-74.09l-2.36-24.33c-1.77-18.24-1.99-30.81-.69-38.43,1.33-7.76,5.61-15.51,12.72-23.03,7.85-9.51,20.6-17.88,37.89-24.88l.17-.06c11.99-3.83,20.41-6.11,25.74-6.97l.15-.02,6.33-.61c3.44-.33,6.26-.76,8.38-1.28l.17-.04,10.92-1.06.78.64c2.65,2.18,4.21,5.59,4.65,10.14.48,4.97.15,7.85-1.11,9.55-1.12,1.8-3.8,2.72-9.37,3.27-16.54,2.56-29.33,7.62-38,15.04-8.6,7.35-13.56,14.33-14.73,20.74l-.05.21c-.64,2.29-.88,14.61,4.63,71.42l3.87,39.93c1.51,15.54,2.02,25.93,1.56,31.74-.46,5.91-2.72,12.88-6.7,20.71l-.07.12c-8.94,15.33-22.64,26.72-40.73,33.85l-.31.15.39.1c6.11,1.4,12.35,3.32,18.55,5.7,6.36,2.44,14.02,7.49,22.77,15,8.94,7.67,14.73,17.32,17.21,28.69.24.91.94,4.4,6.96,66.52,5.51,56.81,8.11,68.86,9.17,70.98,3.82,7.89,11.17,14.18,21.84,18.73,10.88,4.63,23.29,6.8,36.89,6.45,5.56-.53,8.36-.14,9.81,1.41Z" fill="#8a8a8a" opacity=".5"/>
  </g>
</svg>