<?xml version="1.0" encoding="UTF-8"?><svg id="a" xmlns="http://www.w3.org/2000/svg" width="2816" height="1536" viewBox="0 0 2816 1536"><path d="M1416,498l258,8c-.1,10.03.43,19.38,8,27,7.37,7.41,12,3.11,18.67,5.33,4.88,1.63,10.38,27.34,12.37,33.63,3.24,10.22,9.91,12.27,5.63,25.73-2.85,8.97-12.67,11.21-7.16,23.8,2.87,6.56,10.67,6.9,16.54,11.46,8.44,6.54,12.8,18.71,19.97,26.03,36.69,37.48,76.62,20.13,118.02,4.06,3.86-1.5,15.01-11.96,19.97-7.04,3.87,3.84-24.76,92.44-25.11,105.89l-52.93,43.06c-11.57,2.09-22.73-1.22-35.06-1.03-16.78.26-45.55,8.31-58.01-7.83-4.8-6.22-6.61-20.65-16.01-22.13-8.05-1.26-25.93,4.95-28.46,13.43-4.74,15.89,9.07,19.29,9.32,29.52.1,4.29-3.21,9.23-3.36,14.05-.4,12.21,4.57,25.52,3.58,40-.78,11.47-14.83,41.02,8.78,28.76,9.49-4.93,19.47-26.23,19.43-36.74-.04-10.92-9.72-14.55-8.23-25.97.36-2.76-.92-3.62,3.05-3.04,3.47.51,15.5,6.36,16.63,9.4.78,2.09,2.8,17.31,2.43,19.53-1.04,6.33-9.72,8.23-5.63,21.69,2.84,9.36,10.7,14.56,15.63,20.35,2.09,2.45,2.13,6.48,4.84,9.16,8.6,8.55,26.01,6.39,35.99,8.01,9.18,1.49,20.28,9.85,31.12,7.88-.06.68,1.39,2.25.63,5.47s-7.27,21.65-9.53,22.07c-111.02-36.36-232.22,36.39-257.73,148.82-38.67,170.39,136.99,310.44,293.28,231.28,131.87-66.79,148.93-247.71,37.38-342.67-4.56-3.88-24.98-15.95-25.77-17.29-1.37-2.33,4.82-19.75,6.74-19.65,40.74,47.68,84.58,92.85,126.07,140.04,3.12,7.01-7.27,12.09.9,20.96,7.27,7.89,14.87,2.83,22.01,5.99,2.07.92,30.16,30.94,31.09,33.01,2.96,6.58-3.04,6.81-4.16,10.95-2.95,10.92-3.99,31.89.21,42.9,6.96,18.25,28.48,42.51,48.39,45.77,2.68.44,4.2-1.03,6.48-1.65,2.11,2.49-10.58,19.18,3.25,27.77,12.58,7.81,24.9.26,31.42,2.47,4.04,1.37,6.06,12.96,15.89,11.43,2.02-.32,35.84-15.36,37.42-16.71,3.79-3.23,3.12-5.21,5.03-8.95,87.77,124.28,275.3,114.63,347.35-20.67,95.69-179.7-103.92-380.16-282.95-274.95-4.09,2.4-20.94,15.68-22.39,15.69-3.62,0-18.41-16.55-20.01-20.19-3.09-7.02,8.18-39.49,10.49-49.41,1.07-4.62.16-9.68,1.41-14.59,2.67-10.53,16.27-58.67,21-64.48,3.65-4.49,11.06-2.53,16.15-4.38,10.81-3.92,16.63-10.89,25.29-16.71,7.57-5.08,19.78-6.2,20.84-17.29,1.91-19.89-20.95-14.45-34.17-15.04,5.33-29.54,1.96-55.57-10.28-82.71-5.04-11.16-14.98-30.31-21.72-39.28-13.11-17.49-39.49-40.74-57.37-53.63-66.01-47.59-151.21-72.62-230.63-44.39,10.21-17.2,12.09-34.43,12-53.98l1.99,16.01c124.72,12.33,249.63,34.51,370.01,68.99,166.31,47.65,427.66,161.45,486.96,339.04l9.04,37.96v70c-3.32,15.86-7.08,31.18-12.5,46.5-67.35,190.13-372.41,306.9-552.23,351.77-223.51,55.77-477.87,84.81-708.29,87.7-3.38.04-8.89-1.28-10.97,2.03h-248l-45.02-3.98c-273.37-9.79-586.45-42.07-842.95-139.05-149.87-56.67-370.47-175.48-391.98-352.01-.44-3.61.83-7.5-4.05-8.96v-46c4.29-1.23,3.68-5.23,4.41-8.6,13.11-60.64,35.09-101.6,76.57-147.43,171.52-189.53,520.97-268.44,766.29-297.71,13.19-1.57,30.97-4.1,43.77-4.45,3.43-.09,5.96.85,8.95,2.2l2.02-18c.2,20.41-.95,37.52,10,55.98-17.09-2.86-33.56-8.74-51.02-9.96-78.3-5.46-158.84,35.3-215.01,86.95-26.45,24.32-57.44,83.28-56.07,120.07.35,9.52,4.37,19.62,6.09,28.94-13.47-.06-29.95,4.32-27.95,20.82,1.91,15.75,34.01,30.33,47.85,34.28,5.5,1.57,15.15.34,19.5,3.51,9.54,6.96,19.65,48.84,22.6,61.4,1.48,6.29,6.11,13.3,3,19.95-12.99,15.38-26.65,31.11-37,48.05-3.88,3.31-5.1.79-8.21-.69-14.86-7.06-28.9-16.3-44.73-21.37-125.07-40.1-255.53,52.37-261.15,182.98-6.95,161.5,164.41,267.66,304.7,184.7,30.32-17.93,50.21-41.35,70.76-69.24,6.67,1.14,40.25-3.63,42.62-.35-1.52,6.79-9.77,15.81-3.11,22.07,1.68,1.58,39.1,16.71,42.56,17.45,19.5,4.21,13.24-9.1,18.48-12.63,6.2-4.18,21.64,4.06,32.12-7.89,14.28-16.27-1.37-26.35-14.03-36.09,4.06-7.79,11.35-12.16,15.65-20.29,6.75-12.79,7.88-29.17,6.13-43.42-1.7-13.81-12.06-19.26,2.22-31.22l177.03-191.98c3.81-1.63,5.1,7.64,5.67,10.29.9,4.21.76,15.13,1.31,15.69-129.41,78.52-132.55,270.63.66,348.34,158.88,92.68,348.59-56.97,296.36-232.36-32.12-107.88-145.37-168.87-253.76-135.82-2.48-.5-5.44-18.31-7.26-22.16-.28-.58.31-1.65,0-2,.16-8.72,10.25-5.32,16.14-6.86,4.48-1.18,8.53-4.32,12.98-5.02,11.36-1.77,18.48,1.15,30.27-5.73,2.09-1.22,18.41-16.41,19.76-18.24,1.24-1.69,10.63-19.92,10.64-21.1.15-10.1-12.06-16.34-7.4-31.67.72-2.38,12.44-10.46,14.65-11.35,3.73-1.5,3.97,4.98,4.37,7.53,2.38,14.86-1.33,48.82,17.07,56.93,23.98,10.57,8.49-20.46,7.5-29.48-1.24-11.27,1.53-24.82-.11-35.89-.81-5.47-5.87-12.26-5.63-18.22.33-8.29,12.44-13.58,9.36-27.45-2.11-9.52-19.69-14.62-28.45-13.38-13.71,1.93-12.07,15.97-18.21,21.88-9.43,9.08-51.71,5.64-66.03,5.97-6.96.16-13.98,4.35-20.89,1.03-17.63-15.85-39.12-27.25-54.88-45.1l-24.67-100.62c6.74-12.39,14.51,1.77,22.37,4.92,4.24,1.7,9.29,1.27,13.15,2.85,48.22,19.76,68.38,25.7,107.03-14.98,4.8-5.05,10.06-15.07,14.84-19.16,4.05-3.46,11.02-4.31,14.17-8.36,9.37-12.02-2.49-18.23-5.14-28.48-3.56-13.78,14.84-41.88,15.3-57.83,22.32,4.45,29.76-12.84,29.8-32.2l213.13-7.87.87-382.13c.89,1.93,3.13,3.45,2.13,6.79l-.12,878.23c-.08,2.64-.95,3.69-3.4,4.6-7.38,2.76-19.61,2.65-28.62,5.38-38.06,11.52-26.7,32.01,5.6,40.41,24.94,6.49,53.58,6.6,78.39-.42,38.5-10.91,36.31-31.4-.73-41.23-7.35-1.95-26.04-2.24-27.26-8.74-.16-167.66.23-335.37,0-503.01ZM1227.49,591.49c8.38-7.75,1.23-24.36-8.98-26.99-15.25-3.92-47.83,10.79-27.21,23.19,8.39,5.05,28.15,11.22,36.19,3.79ZM1654,578.02c-.68-.66-16.15-4.08-18.51-3.69-8.62,1.45-11.39,11.53-.8,11.55,2.1,0,24.2-3.09,19.31-7.87ZM1665.99,630.01c-2.57-2.48-17.69,11.2-18.99,13.99-3.23,6.92,3.54,11.5,8.73,4.72,1.33-1.73,11.03-17.98,10.26-18.72ZM1201.99,651.99c4.66-6.91-11.88-23.84-15.98-19.98-1.31,1.24,7.86,24.14,15.98,19.98Z" fill="#88c66f"/><path d="M1176,506c-.05,19.36-7.49,36.65-29.8,32.2-.46,15.96-18.86,44.05-15.3,57.83,2.65,10.25,14.51,16.46,5.14,28.48-3.16,4.05-10.12,4.9-14.17,8.36-4.79,4.09-10.04,14.1-14.84,19.16-38.65,40.68-58.81,34.74-107.03,14.98-3.86-1.58-8.91-1.15-13.15-2.85-7.86-3.15-15.63-17.31-22.37-4.92l24.67,100.62c15.76,17.85,37.26,29.25,54.88,45.1,6.9,3.31,13.92-.88,20.89-1.03,14.33-.33,56.6,3.11,66.03-5.97,6.14-5.91,4.5-19.94,18.21-21.88,8.76-1.24,26.33,3.86,28.45,13.38,3.08,13.87-9.04,19.16-9.36,27.45-.23,5.96,4.82,12.74,5.63,18.22,1.64,11.07-1.13,24.62.11,35.89.99,9.02,16.48,40.05-7.5,29.48-18.4-8.11-14.69-42.07-17.07-56.93-.41-2.55-.65-9.03-4.37-7.53-2.21.89-13.93,8.97-14.65,11.35-4.66,15.34,7.55,21.57,7.4,31.67-.02,1.18-9.41,19.41-10.64,21.1-1.35,1.83-17.67,17.02-19.76,18.24-11.8,6.87-18.91,3.96-30.27,5.73-4.45.69-8.5,3.84-12.98,5.02-5.89,1.54-15.98-1.86-16.14,6.86-1.8-2.02-9.93-2.74-8-12,2.91,0,26.03-4.44,25.96-7-9.3-9.48-19.29-9.96-31.96-9,.48-1.45,0-5.23,2-6,1.36-.52,5.49.53,5.99-.01,1.82-1.97-5.29-13.19-9.99-11.99-.89-2.54-3.63-7.3-3.8-9.06-.11-1.2,3.24-1.9,3.8-2.94,5.55-10.51,10.7-21.5,17.97-31.01-23.75-17.41-48.87-33.68-71.76-52.2-5.39-4.36-15.68-11.56-19.29-16.71-6.28-8.97-8.99-27.03-10.93-38.09-19.26,2.89-37.37,10.39-55.17,17.94-2.04,2.86,14.49,42.58,18.31,47.95,14.17,19.94,71.38,48.14,94.87,60.13,1.57,6.09-4.96,3.5-8.62,5.87-2,1.3-2.06,5.08-4.72,6.01-2.47.86-4.42-1.94-4.66-1.88-1.94-3.69-3.12-7.77-6.15-10.86-18.56-18.92-56.89-26.5-75.85-52.14-17.86-24.16-25.33-64.12-39.22-91.14-30.89,10.72-67.88,16.01-90.74,41.15,19.64,13.71,42.19,23.11,62.57,35.39,23.39,14.09,64.41,37.42,75.74,62.26,2.73,5.99,5.72,13.05,1.65,19.35-.31-.86-6.15-4.05-8-4-1.91-26.98-31.68-41.74-51.03-55.88l-38.71,64.93c.08.96,13.84,10.14,15.74,10.95-5.01,3.07-9.93,9.89-15.95,11.1-7.34,1.48-24.32-5.73-28.05,8.9-3.44-2.57-6.14-2.03-9.98-1.1-20.98,5.07-44.8,24.32-65.89,31.26-4.97,6.89,25.12,33.86,25.81,44.98.48,7.7-10.72,30.66-13.37,40.44-5.74,21.18-9.67,49.5-10.54,71.44-.57,14.27-2.72,17.41,11.53,22.43,4.98,1.76,33.37,9.05,35.43,6.69,11.65-37.96,27.15-76.42,37.54-114.61,2.33-8.57,6.92-23.36,7.47-31.53-.71,9.56.64,8.6,8,10-5.54,9.51-5.63,24.32-12,33.98,4.21.99,4.53-2.25,6.45-4.53,6.19-7.36,9.92-17.89,17.52-24.45-3.44-5.82-7.27-4.11-11.97-5,1.39-2.39,6.69-3.57,6-8,12.41,8.13,15.62,2.17,23.94-7.06,13.17-14.6,25.05-39.16,40.06-50.94,2.96-2.32,10.5-6.52,14-8,1.33,0,2.67,0,4,0l-93.17,115.93c-2.71,9.92,18.08,33.94,21.21,44.06,4.27,2.94,12.49-15.04,17.96-15.99-5.77,15.74-12.28,15.85-22.02,27.56-5.31,6.39-23.93,30.16-25.98,36.44-2.32,7.08,3.38,14.7,10,18,10.49,5.23,8.95-2.06,16-2-14.28,11.96-3.92,17.42-2.22,31.22,1.75,14.25.62,30.63-6.13,43.42-4.29,8.13-11.59,12.5-15.65,20.29,12.66,9.74,28.31,19.82,14.03,36.09-10.48,11.94-25.92,3.7-32.12,7.89-5.24,3.54,1.02,16.84-18.48,12.63-3.46-.75-40.88-15.88-42.56-17.45-6.66-6.26,1.59-15.28,3.11-22.07-2.37-3.28-35.95,1.49-42.62.35-20.55,27.89-40.43,51.31-70.76,69.24-140.29,82.96-311.66-23.2-304.7-184.7,5.62-130.61,136.08-223.08,261.15-182.98,15.82,5.07,29.87,14.31,44.73,21.37,3.11,1.48,4.32,4,8.21.69-10.05,16.46-14.73,21.86-26.4,36.6-.79.99-4.32,7.68-5.6,3.4,6.74-10.78,2.37-11.62-7.92-17.08-82.12-43.66-185.38-3.21-222.43,79.74-77.89,174.37,147.14,319.9,272.34,178.34-8.68-1.46-18.26-1.45-27.07-1.07-27,1.15-63.44,5.37-89.97,2.13-5.3-.65-18.48-6.57-21.08-10.91-10.18-17.03,17.38-30.58,14.12-35.11-8.5-3.78-30.87-7.16-34.97-16.06-3.35-7.27,1.8-12.68,1-18.82-.48-3.62-4.4-6.71-5.62-10.55-6.75-21.27-2.98-43.82,18.23-54.96,7.45-3.91,23.66-10.75,29.36-1.64-1.21,1.81-2.92,4.27-4,6-26.27-9.68-51.29,32.39-30.64,51.64,18.71.89,45.11,26.92,52.64-1.64,6.11.79,12.51.61,18,4-8.12-.08-18.46,4.81-19.75,13.38-.49,3.22,4.4,4.97,5.35,8.02,4.62,14.84-6.89,24.86-7.54,35.84-.41,6.83,4.03,13.11-.05,20.75,37.06,1.09,73.69-1.33,110.61-2.37,12.13-12.85,19.96-30.14,24.96-47.2.85-2.89,2.76-5.46.42-8.42,7.49-.08,9.86,1.13,16-4,2.31-1.93,10.52-13.63,8-15.99-30.29-1.3-59.78-8.67-89.51-13.5-20.83-3.38-44.6-4.66-64.94-9.06-4.38-.95-15.67-2.58-15.61-8.39l153.2-192.97,5.86,5.91,30.98,107.99c-1.32-12.7,5.66-27.2,6.07-39.1.33-9.5-19.35-73.01-24.34-83.61-2.84-6.04-22.97-39.24-27.71-39.29l-8,10c-2.94-12.56-13.06-54.43-22.6-61.4-4.34-3.17-14-1.94-19.5-3.51-13.84-3.96-45.95-18.54-47.85-34.28-2-16.5,14.47-20.88,27.95-20.82-1.73-9.32-5.74-19.42-6.09-28.94-1.37-36.8,29.62-95.76,56.07-120.07,56.17-51.65,136.71-92.42,215.01-86.95,17.47,1.22,33.93,7.1,51.02,9.96-10.95-18.46-9.8-35.57-10-55.98-.03-2.87,1.97-6.55,1.51-8.72-.55-2.63-9.65-11.76-11.92-15.87-8.55-15.44-11.39-37.55-2.69-53.51,4.55-8.36,14.71-15.04,16.73-25.4,1.9-9.73-7.03-13.99-2.1-25.99,7.23-17.58,69.6-25.86,87.39-26.6,87.49-3.62,185.31,54.55,185.08,150.08ZM914,386c-1.28,2.64-2.34,2.5-2.13,6.82,1.03,21.92,42.32,48.04,42.1,60.23-.24,12.76-35.45,10.03-43.33,3.32l-18.62-14.36c-1.89,18.6,4.91,54.34,27.11,57.85,23.28,3.69,42.71-14.84,69.66-11.64,19.29,2.29,42.43,20.39,62.7,23.3,8.32,1.19,16.64-.22,24.97,1.03,20.96,3.14,56.85,17.88,74.6,17.64,10.24-.14,13.98-7.14,14.96-16.19,3.16-29.13-12.35-67.92-30.98-90.02-42.28-50.17-112.55-65.03-175.47-55.42-11.28,1.72-40.48,7.03-45.55,17.45ZM902,436c5.77,13.21,28.43,19.35,41.99,17.99,3.23-2.79-27.52-32.78-29.99-35.99-.39-.5.26-2.81-.02-4-.84-.74-12.41,16.73-12.99,18.02-.89,1.97.38,2.52,1.01,3.98ZM1012,506.03c-21.36-11.21-40.9-12.84-63.09-2.13-11.84,5.72-2.46,16.93,2.12,26.1,3.18.75,8.11-7.61,12.86-9.09,15.34-4.79,25.04,4.51,34.09,15.1l14.02-29.97ZM922,570c1.48,2.83,16.15.95,16.06-1.08-8.02-18.07-15.6-36.22-22.06-54.92-.48-1.39.38-4.2,0-6-4.5-1.13-4.72,1.81-5.44,5.47-3.83,19.33,2.61,39.59,11.45,56.53ZM968,581.98c-3.92-7.7-17.41-15.18-20.49-22.49-2.66-6.31-.56-12.08-1.98-18.02-1.07-4.48-10.68-32.69-12.44-32.99-.36-.06-6.84,1.28-7.1,1.53-3.49,3.37,21.6,66.97,30,71,3.74,1.8,8.08.89,12.01.97ZM984.01,579.99c4.75,4.64,17.35-17.82,19.61-21.37,9.04-14.24,16-30,26.09-43.63-2.76-3.94-6.19-7.32-10.71-2.98-3.19,3.07-18.89,31.77-22.09,37.91-1.68,3.23-14.07,28.94-12.9,30.08ZM1114.5,624.5c3.44-2.77,12.49-.18,14.71-8.45,1.43-5.31-7.87-17.19-7.31-26.99.52-9.03,16.56-47.36,15.92-49.9-1.07-4.23-51.52-16.17-59.07-16.92-6.25-.62-17.49-1.14-23.34.17-1.67.38-29.21,14.38-30.49,15.51-6.3,5.62-33.8,58.41-34.78,67.26-1.08,9.72,6.64,45.89,12.95,52.71,2.62,2.83,14.22,8.16,18.35,9.65,41.02,14.75,64.66.08,88.2-32.89,1.97-2.76,3.38-8.98,4.85-10.16ZM971.48,526.35c-24.82,3.65-17.25,42.67,3.47,49.66,2.18-.51,15.23-26.99,15.02-30.85-.4-7.36-10.49-19.99-18.49-18.81ZM630,686h-5.99c4.22,9.23-.2,6.94-2.01,10-17.3,29.21-25.2,49.1-20,84,5.05,33.88,20.96,41.48,38.83,66.17,8.37,11.56,58.17,92.22,64.41,93.46l76.9-34.84c.45-4.9-.59-9.26-2.06-13.87-9.96-31.16-28.39-60.77-41.16-90.84-1.98-2.51-.72-10.08,2.08-10.03,3.08.05,21.82,39.08,24.72,45.24s12.35,33.93,14.78,36.21c1.64,1.54,28.17,10.48,29.5,9.65l37.2-63.1-1.17-5.01-78.15-44c-22.45,3.81-49.4-10.18-69.22-20.68-24.7-13.08-47.99-30.69-68.65-49.35l7.99-2.99c13.68,14.09,45.01,34.96,62.66,44.34,9.02,4.79,42.51,20.71,50.84,21.17,15.31.86,21.89-11.27,32.62-18.39,23.06-15.28,54.01-19.35,79.06-31.05,2.55-3.61-12.87-38.48-11.18-40.07.56-.53,6.43-.17,8.07.91l27.88,76.24c17.68-2.87,37.78-15.38,56.04-17.17,3.28-.32,6.71.25,10,0,.46-.03,2.31,1.64,4.61,1.43,4.21-.37,13.21-3.71,13.34-8.31l-15.98-65.14c-3.79,1.85-8.22,2.09-11.98,4.01-2.88-1.21-2.2-5.46-2-8,.88-11.37-2.47-23.01-6.56-34.44-1.83-5.1-15.63-38.3-17.23-40.32-1.76-2.22-7.44-1.44-10.21-1.24-6.39-5.25-13.96-7.31-21.93-9.07-71.67-15.78-148.54,13.88-204.99,57.15-8.71,6.68-52.14,43.6-53.13,51.04-.36,2.67.87,4.68,2.05,6.88ZM972.01,645.98c-4.73-22-7.21-39.56-20.75-58.24-8.45-11.66-8.72-10.29-23.26-7.73l24.02,70,19.99-4.03ZM986.01,602.01c6.09-18.86-20.08-21.11-20.21-7.02-.1,10.93,12.43,6.16,20.21,7.02ZM1029.98,804.04c-12.18-8.67-28.06-18.19-38.92-28.1-13.81-12.6-12.99-20.31-17.09-37.94-21.42,1.07-14.04,28.67-4.04,39.08,3.36,3.49,40.96,31.13,43.99,32.09,4.59,1.45,20.21-.21,16.07-5.12ZM1167.98,890c0-12.35-3.1-24.75-4.13-36.97-.48-5.68,1.94-10.56,1.68-15.53-.32-5.98-5.27-14.54-5.21-20.52.1-10,12.9-18.58,8.75-26.97-2.57-5.2-18.88-5.56-23.08-3.02-3.63,2.19-4.92,12.39-7.91,16.09-12.29,15.24-53.83,5.74-71.01,8.98-7.55,1.43-8.77,11.09-4.75,13.65,6.31,4.01,26.4-6.31,37.76,11.22,2.05,3.17,1.54,7.04,3.97,10.03,2.72,3.36,13.38,7.2,16.97,11.03,1.67-8.19-.24-13.3,5.9-20.08,3.34-3.69,20.9-13.15,25.09-11.04,11.84,5.98-.9,53.84,15.98,63.13ZM619.99,837.99l-18.84-32.14c-3.44-3.43-21.33-2.04-22.87.43-9.67,15.57,30.38,31.79,41.7,31.71ZM1049.71,816.28c-1.46-.91-13.64-.51-16.75-.28-2.17.16-6.66-1.11-4.94,2.97,3.61,8.62,15.68,10.43,23.99,9.02.76-.77-1.01-10.9-2.29-11.71ZM1092,836.02c-3.99-3.76-24.73-.78-30.95.07-2.86.39-5.9-1.88-5.04,2.89,9.77,10.61,20.62,3.78,32.98.99,2.41-.54,6.5-.65,3.01-3.94ZM1127.98,882c6.9-9.37-29.49-32.71-37.28-33.48-4.49-.45-12.33,4.7-17.89,5.34-5.14.59-14.85-1.92-16.8-.95-1.85.92-16.03,26.51-16.04,28.13-.06,8.08,48.92,49.06,59.04,26.98.48,7.42,8.21,2.4,8.8-1.28.47-2.93-4.93-4.68-2.95-8.71,3.98-8.09,9.61,4.96,14.25-4.01,3.09-5.99-13.95-10.96-4.04-17.99l12.91,6ZM823.99,898.03l-35.97-14.02,3.99,20,31.98-5.99ZM725.97,1008c.43-.42,3.51-10.27,3.68-11.53,1.15-8.44-15.57-29.52-21.63-36.46,5.77,13.45,7.99,32.49,13.79,45.19.8,1.75.79,6.12,4.16,2.81ZM614,990.03c-122.6-75.46-285.14,3.47-294.08,148.89-11.56,188.02,218.1,282.15,338.13,140.13,2.58-3.06,16.61-19.25,8.92-19.12-3.14.05-19.75,1.77-21.64,2.4s-12.49,16.02-16.26,19.74c-40.74,40.13-104.41,53.83-159.07,40.95-119.17-28.08-171.37-169.08-101.62-269.64,52.58-75.8,156.46-98.76,234.63-47.41l10.99-15.93ZM707.99,1101.99l-.47-18.51-34.51-115.47-26.8,34.71c30.09,27.32,44.04,57.49,57.27,94.9,1.14,3.22-1.04,5.34,4.51,4.38ZM700.01,1128.01c-4.16-43.56-26.22-88.84-60.79-115.92-1.99.42-9.35,10.59-8.99,12.62s18.15,21.94,21.4,26.67c8.72,12.67,16.84,27.61,21.79,42.21,2.25,6.65,6.49,30.51,8.35,33.26s14.26.37,18.24,1.16ZM671.99,1127.99c4.13-4.86-14.89-48.59-18.95-56.03-3.4-6.23-25.51-38.97-30.31-39.82-5.79-1.03-63.06,82.49-74.72,90.87l123.98,4.98ZM803.98,1048c-6.92,6.87-18.84,36.5-17.99,44.97.39,3.93,17.67,17.04,21.05,17.05,3.8.01,18.87-18.14,18.94-20.97.18-6.82-22.21-30.5-22-41.04ZM801.99,1114.02l-9.98-2.03-4.01,15.99c8.14,1.4,10.41-8.45,13.99-13.96ZM714.01,1130.01c3.19,14.54-9.3,40.04-5.59,52.58,3.81,12.89,32.11,15.89,39.19,4.03,1.62-2.71,12.71-41.26,12.19-43.46-1.17-4.85-11.93-2.58-16.33-3.63s-28.23-10.84-29.46-9.52ZM552.11,1145.9l120.98,19.63c5.28-.94,4.05-28.6-4.06-29.56l-117.01-1.98c.46,2.64-.85,10.92.1,11.9ZM773.13,1134.1c-1.77.37-9.05,29.05-8.75,30.63.81,4.14,13.65,11.6,15.19,16.68,3.08,10.16-5.45,25.74-.55,36.56.96,2.11,15.64,16.25,17.69,15.89,30.57-23.68,27.61-76.2-7.32-94.26-2.11-1.09-15.18-5.72-16.27-5.49ZM682,1138v28c0,.89,16.64,2.77,17.8,1.79,2.95-9.67,2.24-19.81,2.21-29.8h-20.01ZM769.98,1202c2.85-12.4,5.44-22.63-9.95-25.99-5.13,10.95.83,19.76,9.95,25.99ZM491.38,1182.19c-6.19,1.55-8.72,11.71-5.52,16.94,7.01,11.46,32.78,3.45,35.87,14.29,2.53,8.87-19.75,23.55-19.81,29.59s12.16,8.81,17.01,10.99c4.64-.9,2.69-15.71,3.54-20.52,2.34-13.28,18.47-28.23.23-39.18-5.63-.18-29.18-12.65-31.32-12.11ZM701.96,1186.01c-6.99-4.92-25.47,37.31-15.06,44.09,39.87,13.61,74.08,46.44,118.22,44.01,25.06-10.38-11.47-28.5-21.14-37.09-3.75-3.33-10.1-9.22-13.02-12.98-5.42-6.97-12.1-26.67-21.77-26.08-4.18.26-9.65,4.83-14.69,5.6-11.6,1.76-28.58-5.96-32.53-17.56ZM678,1208.02c-6.15-.88-5.53,10.55-7.62,15.36-1.57,3.62-15.56,27.54-14.37,28.61,10.1.55,23.19-1.17,27.03-12.02.56-1.59-14.42-22.75-5.04-31.95ZM775.7,1280.29c-.75-1.23-22.73-8.14-27.08-9.92-3.24-1.33-8.54-5.87-10-6.1-3.98-.63-9.19,7.08-5.42,9.89,4.36,3.26,40.1,16.66,42.79,13.82-.32-2.32.78-5.93-.3-7.7Z" fill="#182f30"/><path d="M1948,516c.09,19.55-1.79,36.78-12,53.98,79.42-28.23,164.62-3.2,230.63,44.39,17.88,12.89,44.26,36.14,57.37,53.63-2.79,1.29-4.47.15-6,4-6.36-9.05-24.94-25.39-33.97-33.03-56.97-48.16-128.67-78.35-204.79-70.73-7.62.76-38.53,8.06-44.71,11.14s-31.54,73.64-28.52,76.61c10.03,1.06,11.19-17.18,15.06-25.92,2.53-5.71,6.93-16.95,13.9-18.11,10.41-1.73-3.46,13.39-3.84,14.17-9.56,19.9-19.42,90.78-27.14,99.86-2.18,2.56-6.56,2.93-8,4-1.01-15.28,14.1-45.82,12.11-58.96-.62-4.09-9.07-9.17-13.09-11.06-1.63,20.86-12.75,42.74-15.68,62.59-.58,3.96.23,4.51,2.66,7.43-7.43.82-14.66,8.82-8,16-2.37,8.07-2.81,15.77-7.99,23.01-7.63,10.68-29.72,21.95-40.65,31.35-2.66,2.29-5.5,3.18-5.36,7.64-6.46-.32-13.16-1.1-16,5.98l16,2.02c-7.01-.51-22.41-3.12-22.19,7.04.22,10.15,16.78,4.46,22.19.96.72,12.48-8.73,7.35-12.82,8.44-.59.16-5.31,5.37-9.18,7.56,1.63-5.32-8.15-5.85-11.04-6-9.5-.48-17.56,2.78-26.95,2.01-.83,4.51.19,3.19,2.54,4.47,11.56,6.26,21.64,6.84,33.45,1.52l6,4,16.16,31.86,2.71.16c33.92-20.62,96.09-40.5,118.8-73.35,6.62-9.57,16.12-35.09,18.33-46.67.51-2.69,3.08-4.41,0-8l6-2c-.03.15,1.66,1.39,1.43,2.67-.81,4.49-4.05,8.45-3.41,13.33h3.98c-12.88,31.63-12.54,46.71-42.56,68.44-7.14,5.17-48.27,27.77-49.42,30.59-1.62,3.96,7.08,3.92,9.59,4.36,8.8,1.53,17.5,2.02,26.39,2.61-12.75,5.28-26.18-2.99-40,2-1.25-.22-2.75.23-4,0-3.33-.6-3.79-3.01-10.51-1.58-2.57.54-23.95,11.98-25.49,13.58-2.16,2.26-3.76,9.24-6,12-.4.49-8,2.96-9.02,7.99l-.99-9.98-19.99,3.99c3.19-2.37,17.41-12.94,17.8-15.29-3.56-4.84-14.12-28.08-17.67-29.68-1.24-.56-12.24,1.38-16.96.79-5.8-.72-12.73-5.49-17.85-5.25-5.8.28-23.66,11.41-25.05,16.84s21.31,41.2,26.59,44.72c6.68,4.45,20.99-2.26,27.14-6.14.74,7.32.91,9.74-5.96,13-.2,3.25,20.31,5.62,23.96,5.01.74.61-1.81,6.06-1.99,7.99-10.84,1.96-21.94-6.39-31.12-7.88-9.98-1.62-27.39.55-35.99-8.01-2.7-2.69-2.75-6.71-4.84-9.16-4.93-5.79-12.79-10.99-15.63-20.35-4.08-13.47,4.59-15.36,5.63-21.69.36-2.21-1.65-17.44-2.43-19.53-1.14-3.04-13.16-8.89-16.63-9.4-3.97-.58-2.69.28-3.05,3.04-1.49,11.42,8.2,15.05,8.23,25.97.04,10.51-9.94,31.81-19.43,36.74-23.6,12.26-9.56-17.29-8.78-28.76.99-14.48-3.98-27.79-3.58-40,.16-4.82,3.47-9.76,3.36-14.05-.25-10.23-14.06-13.63-9.32-29.52,2.53-8.49,20.41-14.7,28.46-13.43,9.41,1.48,11.21,15.91,16.01,22.13,12.46,16.14,41.23,8.09,58.01,7.83,12.33-.19,23.49,3.12,35.06,1.03l52.93-43.06c.35-13.46,28.98-102.06,25.11-105.89-4.96-4.92-16.11,5.54-19.97,7.04-41.4,16.07-81.32,33.42-118.02-4.06-7.17-7.32-11.53-19.49-19.97-26.03-5.88-4.56-13.67-4.9-16.54-11.46-5.51-12.6,4.31-14.84,7.16-23.8,4.28-13.46-2.38-15.51-5.63-25.73-2-6.28-7.5-32-12.37-33.63-6.66-2.22-11.29,2.08-18.67-5.33-7.58-7.62-8.1-16.96-8-27,1.17-118.58,134.68-168.77,235.56-142.56,13.4,3.48,39.19,10.5,38.55,27.49-.64,17.05-8,11.66,4.24,31.72,10.44,17.1,16.12,18.17,13.43,42.14-2.25,20.05-17.71,31.28-19.48,38.6-.64,2.64,1.68,8.41,1.7,12.62ZM1684,520c.75,3.29,8.08,9.11,11.48,9.7,13.47,2.34,50.69-11.81,66.45-14.77,16.35-3.07,32.87-2.52,48.96-7.04,25.78-7.24,36.96-23.54,67.59-19.37,20.96,2.85,43.14,22.83,64.23,7.2,11.12-8.25,18.84-40.62,13.26-53.71-8.64,2.82-12.82,11.44-21.34,15.63-12.84,6.31-47.94,7.6-35.52-11.53,9.42-14.51,55.61-47.09,32.75-64.97-6.98-5.46-36.88-13.07-45.87-13.13-72.49-11.82-158.41,16.09-190.34,86.66-7.36,16.26-15.58,48.16-11.66,65.34ZM1906.01,451.99c4.44-.6,8.86,2.03,13.01,2.02,7.74-.02,32.36-14.4,30.23-22.07-.76-2.73-12.2-18.07-15.22-15.94-4.81,12.01-17.36,19.96-25.05,29.97-1.54,2.01-3.88,2.54-2.98,6ZM1905.92,506.12c-25.58-9.89-44.95-15.21-69.92-.09l16.99,27.94c12.54-17.01,28.45-18.83,44-4,2.59-.05,10.35-21.87,8.92-23.85ZM1912,507.99c.11,4.08.24,8.15-.87,12.15-3.1,11.2-8.16,29.54-12.16,39.83-3.62,9.31-10.91,14.1-14,20.01-1.42,2.71-.1,5.58,2.07,6.02,8.53,1.74,29.68-48.73,32.4-57.56,3.42-11.08,9.43-23.13-7.43-20.45ZM1935.99,508.01c-5.43-.75-3.09.43-4.02,2.95-2.05,5.58-2.96,13.04-5.05,18.97-2.39,6.78-14.31,31.9-14.66,35.42-.64,6.47,11.04,5.57,14.89,2.8,12.39-8.92,11.58-46.4,8.83-60.14ZM1829.89,510.09c-8.1-1.44-9.76,4.95-6.33,11.36l34.76,58.23,9.68.31-38.11-69.89ZM1735.52,624.49c2.22,2.07,8.71,15.76,12.52,20.47,13.2,16.28,32.74,29.68,54.65,28.9,8.01-.28,39.48-9.99,44.19-15.98,6.04-7.69,14.49-42.85,12.99-52.76-1.21-7.95-31.29-63.39-36.72-67.26-4.47-3.19-11.35-1.31-17.17-2.83-13.39-3.49-16.74-13.91-32.69-12.83-6.36.43-58.71,13.1-60.45,15.69,1.65,19.65,18.35,40.91,14.27,60.22-2.13,10.1-12.57,15.17-.94,22.73,2.79,1.81,7.39,1.81,9.35,3.64ZM1871.45,528.4c-23,5.08-3.92,38.37,3.53,49.56,24.04-8.62,26.85-56.27-3.53-49.56ZM1877.99,645.99c4.78-2.39,15.2,3.95,17.06,3.77,3.31-.33,7.71-21.68,9.43-26.28,4.76-12.77,10.1-25.47,16.7-37.42,2.56-6.8-10.66-9.15-15.13-7.11-14.14,6.46-26.83,51.95-28.06,67.04ZM1752.54,834.54c1.41-2.37,19.48-10.26,7.47-17.56-4.92-2.99-31.07-.58-43.86-8.13-11.61-6.86-13.38-24.05-20.1-26.05-5.94-1.78-20.11,3.16-20.12,10.21,0,4.2,8.69,8.13,9.95,16.11,1.75,11.08-.12,27.98.03,39.97.18,14.3,4.25,27.74-1.9,42.92,12.63-9.22,12.52-22.86,12.06-37.08-.35-11.04-9.74-33.92,10.43-28.44,1.82.49,18.23,9.36,19.38,10.63,4,4.43,4.19,11.27,4.12,16.88.75.89,18.87-9.64,19.99-11.02,2.54-3.11,1.27-6.31,2.54-8.43ZM1737.99,897.99c.84-5.7-1.39-12.1-7.98-11.98-1.64,1.77,2.78,13.79,7.98,11.98Z" fill="#1e342e"/><path d="M1536,136l1.56.96-1.56,5.04c-33.02,2.56-53.75,1.68-86.37-4.63-9.47-1.83-23.4-8.07-31.03-8.85-1.64-.17-2.16,1.33-2.59,1.48-.83.29-2.55-.64-3.7.23l-.31,206.77,3.99-1.01c.1,2.65-.07,5.35.02,8.01,1.6,50.91-.07,102.96,0,154,.22,167.64-.16,335.34,0,503.01,1.22,6.5,19.91,6.79,27.26,8.74,37.04,9.84,39.23,30.33.73,41.23-24.81,7.03-53.44,6.91-78.39.42-32.3-8.4-43.66-28.89-5.6-40.41,9.01-2.73,21.24-2.62,28.62-5.38,2.44-.91,3.31-1.96,3.4-4.6l.12-878.23c.99-3.33-1.25-4.85-2.13-6.79-1.79-3.89-5.02-5.76-5.89-11.11-6.05-37.28,47.33-36.36,39.84,2.07-1.14,5.83-11.87,9.96-5.93,14.02,2.08,1.42,25.09,7.42,29.58,8.42,27.08,6.03,60.76,8.73,88.41,6.59ZM1413.53,88.48c-3.4-3.39-15.68-3.36-19.05,0-4.38,4.37-3.69,17.95,2.4,21.64,17.1,10.34,25.32-12.99,16.66-21.64ZM1410.01,119.99l-12.05,1.16.13,900.04c.11,6.09,11.2,9.63,12.06-4.16,1.13-18.18-2.36-41.65-2.25-59.94.07-11.12,2.12-21.92,2.19-32,1.76-268.34-1.53-536.79-.08-805.11ZM1392.01,1013.99c-5.66-5.64-87.83,14.55-22.02,31.02,20.57,5.15,55.84,4.91,75.97-2.06,12.4-4.29,27.46-11.46,9.45-21.36-4.7-2.58-32.57-9.77-36.5-9.07-5.45.97-1.11,13.79-3.79,17.6-2.85,4.04-20.68,4.97-22.85-1.39-1.18-3.46.5-13.98-.26-14.74Z" fill="#0e2c27"/><path d="M1536,136c50.32-3.9,105.2-21.22,155.63-29.37,55.98-9.05,110.39-11.31,164.18,9.56l-1.38,9.25-42.29,87.56,41.96,101.89,1.89,13.11c-22.54-2.76-44.3-12.16-67.03-13.96-124-9.84-225.08,56.91-357.78,27.78-7.51-1.65-12-8.84-15.19,2.19-.08-2.66.08-5.36-.02-8.01l-3.99,1.01.31-206.77c1.15-.88,2.86.06,3.7-.23l.27,196.73c2.21,6.54,55.4,14.6,64.75,15.25,104.56,7.27,205.6-44.97,309.95-35.95,16.42,1.42,34.35,8.37,51.02,9.96,4.74-4.94-36.68-91.23-38.18-104.99l41.37-84.93c1.33-2.41.97-3.43-1.19-5.04-3.5-2.6-22.39-6.95-27.92-8.1-94.47-19.57-186.62,21.81-280.07,29.07l1.56-5.04-1.56-.96Z" fill="#2f3444"/><path d="M803.45,438.39c16.98-3.67,31.58,16.36,36.55,30.56-2.13,2.95-3.07,2.97-6.46,2.66-5.92-.54-30.48-7.82-34.61-11.56-7.95-7.19-6.76-19.23,4.51-21.66ZM825.99,461.99c2.23-10.02-21.89-22.62-23.98-12.96-1.38,6.4,19.18,12.82,23.98,12.96Z" fill="#658693"/><path d="M785.46,490.37c7.29-1.57,29.75,5.44,34.54,10.63,7.24,7.85-12.88,13.23-19.1,14.88-31.78,8.4-34.02-21.5-15.43-25.51ZM808,503.98c-4.65-10.44-36.94-6.75-23.15,4.19,6.86,5.44,15.47-3.92,23.15-4.19Z" fill="#6a8895"/><path d="M2039.45,450.39c13.95-1.87,21.04,12.44,11.48,23.54-2.17,2.52-26.44,12.84-30.42,13.65-5.22,1.05-11.66,1.08-9.7-5.72.32-1.12,10.9-17.86,12.31-19.73,3.25-4.28,11.04-11.03,16.33-11.74ZM2022,475.98c7.05,2.15,29.86-4.46,25.12-13.95-6.41-12.84-21.77,6.85-25.12,13.95Z" fill="#648999"/><path d="M2039.15,516.78c-1.17-1.22-3.77-.3-3.14-1.77,7.74-12.09,46.77-21.5,47.96-1.86,1.33,21.88-33.81,15.03-44.82,3.62ZM2063.54,508.36c-2.34.26-15.51,4.89-15.5,6.64,2.63,3.05,7.71,3.94,11.5,4.46,22.08,3.02,19.65-12.81,4-11.1Z" fill="#6e91a1"/><path d="M2224,668c6.73,8.98,16.68,28.12,21.72,39.28,12.24,27.14,15.61,53.17,10.28,82.71,13.22.59,36.07-4.85,34.17,15.04-1.06,11.09-13.27,12.21-20.84,17.29-8.66,5.82-14.48,12.79-25.29,16.71-5.09,1.85-12.5-.12-16.15,4.38-4.73,5.81-18.33,53.94-21,64.48-1.25,4.92-.33,9.98-1.41,14.59-2.3,9.92-13.57,42.39-10.49,49.41,1.6,3.64,16.39,20.19,20.01,20.19,1.45,0,18.3-13.28,22.39-15.69,179.03-105.21,378.65,95.25,282.95,274.95-72.05,135.3-259.59,144.95-347.35,20.67-1.91,3.74-1.24,5.71-5.03,8.95-1.58,1.35-35.4,16.39-37.42,16.71-9.83,1.53-11.84-10.06-15.89-11.43-6.51-2.21-18.83,5.35-31.42-2.47-13.83-8.59-1.14-25.28-3.25-27.77-2.28.62-3.8,2.09-6.48,1.65-19.91-3.25-41.43-27.52-48.39-45.77-4.2-11.01-3.16-31.99-.21-42.9,1.12-4.14,7.12-4.36,4.16-10.95-.93-2.07-29.02-32.09-31.09-33.01-7.14-3.16-14.74,1.9-22.01-5.99-8.17-8.87,2.22-13.96-.9-20.96-41.49-47.19-85.33-92.36-126.07-140.04-1.93-.1-8.12,17.32-6.74,19.65.79,1.34,21.2,13.41,25.77,17.29,111.55,94.96,94.49,275.88-37.38,342.67-156.29,79.16-331.95-60.89-293.28-231.28,25.52-112.44,146.72-185.19,257.73-148.82,2.26-.42,8.74-18.72,9.53-22.07s-.69-4.78-.63-5.47c.18-1.93,2.73-7.37,1.99-7.99-3.65.6-24.15-1.76-23.96-5.01,6.87-3.25,6.71-5.68,5.96-13,.6-.38,3.46-4.11,6-6l19.99-3.99.99,9.98c1.02-5.04,8.62-7.5,9.02-7.99-2.55,5.89,3.53,8.88,4,10,5.29,12.54,1.77,16.79-8,24-2.68,1.98-5.88-.82-6.04,9-.09,5.5,2.32,1.92,6.04,3,31.14,9.07,31.31,7.35,54.05,30.95,50.07,51.95,101.12,110.63,148.98,165.02,17.76,20.19,34.43,41.62,51.98,62.02-2.03-20.1,18.15-38.84,34.05-20.05l12.91,22.05c.52-5.8,4.88-12.11,5.63-17.52,1.84-13.29-20.18-42.75-21.63-58.46-5.55-.5-4.63,6.92-8.91,12.06-17.43,20.9-40.94-12.27-54.09-26.04-50.94-53.34-106.02-114.05-154-170-13.1-15.28-37.07-42.25.06-46,16.36-1.65,42.85.71,59.95,1.99,34.3,2.57,68.62,9.59,102.82,11.75-.18-2.68,1.96-5.81,2.2-7.77.16-1.29-.08-2.69.01-3.99-56.58-9.41-113.98-14.06-170.72-22.29-4.93-.71-9.73-3.1-13.29-3.72,13.82-4.99,27.25,3.28,40-2,4.29.29,7.86.93,11.99,1.99-9.08-37.12,28.25-59.48,55.97-75.04,28.87-16.2,60.46-27.22,90.03-41.97-25.1-17.52-55.37-22.93-83.01-34.93-6.74,14.36-13.01,29.28-18.98,43.94h-3.98c-.63-4.88,2.61-8.84,3.41-13.33.23-1.27-1.47-2.52-1.43-2.67,5.32-24.13,20.03-49.54,24.32-74.68.93-3.6,10.4-6.12,9.65-.38-.98,7.54-12.41,34.42-9.1,39.15,1.93,2.75,49.91,17.73,58.48,21.57,11,4.92,43.39,28.1,49.66,28.08,11.09-.03,49.07-19.01,60.34-25.39,13.95-7.9,30.59-18.87,42.68-29.32,3.47-3,21.91-20.72,23.08-23.08,1.83-3.69-2.88-8.79-5.1-11.95,1.53-3.85,3.21-2.71,6-4ZM2111.99,790.01l-45.74,108.78,76.77,38.84c23.16-27.37,39.95-59.7,61.34-88.26,28.58-38.16,54.64-54.71,43.08-109.82-1.51-7.22-14.66-46.75-22.18-45.41-24.33,23.7-53.24,45.35-83.92,60.21-21.54,10.43-43.69,22.53-65.97,8.1l-79.39,35.57,30.23,66.74c.97,2.09,2.23,3.08,4.6,3.15,3.46.1,38.81-8.95,41.13-10.96,10.85-17.35,16.81-43.36,28.38-59.62,1.67-2.35,8.29-10.51,11.65-7.33ZM2232.01,831.99c16.3,1.67,26.1-13.35,38.2-20.78,2.77-1.7,13-2.34,11.78-8.18-1.03-4.91-24.99-3.38-29.98-2.02l-20,30.98ZM2017.81,871.83c2.87-3.36-5.46-20.49-7.45-25.18-2.33-5.48-20.81-44.25-23.32-44.44-17.3,9.79-52.95,28.33-56.55,49.27-1.94,11.26-3.42,19.53,9.01,22.03,21.55,4.34,46.52,5.85,68.52,8.48-6.16-9.97,8.38-8.51,9.8-10.16ZM2197.87,911.86l18.11-61.86-37.56,55.42-.42,4.57c4.27-1.32,17.5,3.9,19.87,1.87ZM2065.99,870.01c-5.72,2.42-42.41,6.44-43.96,8.05-.28.28-.32,7.65-.04,7.93,1.31,1.31,31.98,3.08,36.79,4.14l7.21-20.12ZM1878.18,908.19c-1.04,4.64.7,9.37,3.82,12.81l131,144.96c4.57.02,17.54-28.21,18.1-34.12l-88.11-123.82c-1.51-2.07-3.65-1.87-5.86-2.14-7.08-.86-57.08-.43-58.94,2.31ZM1954,908.02l52.89,74.14c3.8,4.39,21.58-5.3,24.04-8.23,4.34-5.15,5.45-30.91,10.87-38.97-4.45-18.72-12.65-18.05-29.06-20.7-19.29-3.12-39.37-3.64-58.74-6.24ZM2157.57,1111.6c1.52-2.63.39-8.83-.09-12.09-2.99-20.15-11.98-53.47-19.43-72.55-4.5-11.54-22.64-37.29-23.71-44.43-1.45-9.66,18.57-27.6,21.62-37.38-7.99-7.72-70.66-39.62-75.88-35.08-4.88,24.48-22.14,47.61-16.38,73.23,1.27,5.65,4.34,11.96,6.58,17.41,17.01,41.27,43.64,82.71,62.6,123.48,2.35,2.53,4.48,1.32,7.14,1.03,5.07-.56,35.77-10.55,37.54-13.63ZM2190,920c-3.89-.9-18.43-4.43-20.7-3.79-1.25.35-14.86,19.81-15.09,21.08-.46,2.62,4.56,6.33,5.42,10.15,2.96,13.02-14.79,50.04-14.93,67.89-.07,8.55,5.95,18.19,7.32,26.66,8.91-8.55,26.29-48.27,41.92-41.02,1.61.75,22.32,20.5,26.08,24,28.27,26.3,58.68,58.51,85,87,3.84,4.16,23.31,25.25,24.14,27.95,1.33,4.31,1.34,8.85-3.19,11.07s-39.41,7.47-47.98,9.01c-25.79,4.64-52.21,7.22-78,12-5.58,2.45,8.93,14.7,12.61,15.62l120.04-23.97c7.21-3.21-6.03-8.21,2.37-13.63,8.43-.68,8.15,6.13,4.98,11.96,14.31-1.3,10.15-12.27,4.02-21-14.35-20.42-47.51-49.42-66.02-68.98-6.51-6.88-13.58-13.23-20-20-2.54-2.68-5.37-5.23-8-8-16.11-16.98-33.47-34.48-49.03-51.97-2.71-3.04-14.73-16.6-15.54-18.63-4.49-11.35,14.32-49.03,10.57-53.4-1.89-.31-4.32.39-6,0ZM2137.98,1004c.88-15.71,13.27-36.64,13.9-51.23.1-2.36-.64-6.76-2.87-6.73-2.08.03-24.13,29.95-24.69,33.41-.74,4.57,9.45,20.68,13.67,24.55ZM1746,1118c-1.54,8.49-13.16,22.93-12.12,30.92.21,1.58,9.29.98,8.16,7.08,3.4,2.74,33.89-68.94,36.53-74.42,16.25-33.73,36.61-68.4,51.76-102.24,10.21-22.8,11.02-24.41-14.34-27.34-1.86-.21-4.97-3.05-7.98-2l-62.02,168ZM1791.72,964.28c-.72-1.18-23.2-5.55-26.95-6.05-198.21-26.19-306.07,224.23-152.61,348.61,147.24,119.33,356.35-14,316.94-196.94-9.41-43.68-44.66-99.98-84.82-121.17-4.5-2.37-12.89-4.37-8.32,2.31,4.98,7.28,29.7,23.35,38.03,31.98,142.37,147.75-26.69,391.7-215.36,303.36-190.38-89.14-119.85-378.52,100.34-360.34,5.24.43,31.87,7.18,33.02,5.96.26-.28.4-6.62-.27-7.71ZM2177.91,1248.07c-3.41-2.31-9.43.94-6.38,7.38,14.58,30.79,63.21,68.83,94.5,81.51,157.15,63.67,311.87-86.21,260.03-246.03-34.96-107.79-158.01-164.19-262.78-118.65-6.03,2.62-39.84,20.97-41.07,24.94-1.03,3.33.8,6.86,4.49,6.54,1.81-.16,24.91-16.71,30.53-19.53,137.96-69.14,291.59,49.8,268.18,200.18-25.63,164.6-232.85,215.06-335.37,84.54-3.42-4.36-11.13-20.21-12.13-20.89ZM1646,996c-42.6,24.91-71.11,60.02-84,108-45.83,170.56,147.36,303.76,286,194,27.01-21.38,45.02-43.49,58-76,24.69-61.86,15.04-128.86-25.16-181.84-6.13-8.08-39.67-42.2-47.86-42.28-3.65-.03-13.22,17.84-12.95,18.98.31,1.33,15.26,11.56,18,14.11,49.04,45.42,70.61,107.39,49.97,173.03-9.17,29.17-35.03,62.6-60,80-113.47,79.09-265.48-16.1-247.76-152.76,9.83-75.85,80.27-136.88,156.77-137.41,8.1-.06,38.74,6.76,41.69,5.95,3.17-.87,12.5-20.63,5.88-23.36-4.89-2.02-33.8-6.12-39.9-6.27-32.97-.81-70.7,9.49-98.67,25.85ZM2310,974c-11.29,1.88-18.98,3.13-29.97,7.03-7.59,2.7-49.14,22.48-47.88,29.69,5.14,3.55,10.58,16.44,16.39,14.98,25.94-19.19,53.06-26.55,84.49-29.77,3.31-.34,2.79-1.93,2.97-1.94,30.42-2.02,66.97,11.07,92,28,52.44,35.47,78.67,104.37,66,166-7.4,35.99-34.13,75.01-64,96-77.64,54.56-184.36,26.48-228.04-55.99-1.98-1.35-21.46,13.3-21.59,14.96,24.44,41.49,65,75.23,112.07,87.59,55.01,14.44,108.05,5.56,153.56-28.56,37.28-27.95,59.12-60.33,70-106,17.79-74.69-13.31-157.98-80-198-38.72-23.24-81.69-31.38-126-24ZM2033.99,982.01l-17.94,10.98c12.97,12.89,17.86,43.68,39.94,39.01-7.24-16.68-19.7-31.18-22-49.98ZM1753,1004c-5.36-1.49-24.61,0-32,0-5.78,0-1.11,14.18-1.01,17.02.98,27.74,1.88,55.22,2,82.99,3.88-.77,18.14,1.19,19.78-.25,1.17-1.03,7.48-25.02,10.1-28.89l3.74-66.36c.64-1.64-1.52-4.21-2.62-4.51ZM2356,1004h-33c-6,0-1.13,15.96-1.02,19.02.97,27.06,2.91,53.97,4.01,80.99,7.86-1.53,26.26,4.22,28.01-5.01l2-95ZM1714,1005.99c-2.24-2.25-35.56,7.05-35.81,10.97,12.42,22.55,16.62,51.36,27.43,74.42.93,1.99,9.28,18.14,12.37,14.61l-3.99-100ZM1776,1008.02l-16-2.03-3.98,56,10.01-22.96,9.97-31.02ZM2315.99,1006c-1.8-1.79-35.75,8.15-35.93,10.99,15.87,27.45,16.01,66.99,41.92,87.02l-5.99-98ZM2395.92,1014.12c-11.18-2.98-22.05-8.55-33.92-8.12l-5.99,100,4.56-2.55c21.3-23.91,24.85-59.56,35.35-89.32ZM2191.99,1010.01c-4.09-3.72-19.28,15.69-21.67,19.31-3.81,5.78-10.61,18.87-12.76,25.3-1.26,3.76-2.71,4.3,1.45,7.37l32.98-51.98ZM2385.96,1073.98c.24-.21.53-3.36,1.98-4.94,11.5-12.61,21.98-26.08,33.91-38.31,1.08-6.09-17.34-11.06-20.88-14.71l-18.96,57c-.27,1.7,3.72,1.16,3.94.96ZM1675.98,1018c-2.32-2.1-22.43,8.32-21.79,12.67.74,4.96,33.55,39.35,39.79,45.33l-18-58ZM2277.99,1018l-23.95,15,45.95,49-21.99-63.99ZM2165.98,1086c8.01-22.33,21.57-42.2,37.05-59.98,2.53-1.81-.64-5.71-2.05-6-5.79-1.19-28.83,33.7-32.01,39.95-3.53,6.95-11.93,20.97-2.99,26.03ZM1794.01,1099.99c-.51-4.07,3.4-6.54,5.96-9.02,6.33-6.12,48.01-34.92,47.99-37.97-10.1-9.21-18.14-21.21-31-26.77l-38.03,75.62c-.52,2.74,9.4,22.54,15.1,17.3,21.56-13.12,52.37-18.47,73.48-30.6,1.83-1.05,2.99.16,2.53-3.44-.51-3.94-17.3-29.11-19.04-29.08l-56.99,43.96ZM2183.98,1157.99c-.99-42.17,14.12-81.63,41.66-113.01l-16.78-16.91c-2.68-.6-14.29,16.05-16.48,19.32-10.93,16.35-27.01,43.09-23.48,62.72l15.08,47.88ZM1707.99,1111.99c8.2-8.01-54.66-69.56-58.03-79.99-1.3-.94-21.75,17.42-23.08,20.02-.99,1.93-.97,2.04,0,3.96,2.8,5.51,54.9,37.87,64.95,45.19,5.4,3.94,8.57,11.73,16.16,10.82ZM2449.99,1055.96c1.56-2.27-16.01-20.08-18.93-22.08-1.77-1.22-2.71-2.85-5.04-.99-18.73,25.72-49.85,45.51-54,79.12l77.97-56.04ZM2039.27,1040.27c-2.29.78-14.07,28.22-17.19,32.74.18,6.11,16.89,20.58,20.89,26.51,6.01-3.24,34.95-19.7,35.06-24.42.05-2.26-14.86-31.8-16.86-33.25-3.42-2.48-18.02-2.9-21.89-1.58ZM2297.99,1119.99c2.98-3.64-60.21-61.65-65.25-67.85-4.77-.86-22.06,27.57-24.72,32.89,19.23,9.39,39.57,16.41,59.33,24.63,6,2.49,26.06,15.94,30.64,10.33ZM1687.83,1135.89c.54-6.11,13.62-17.22,11.31-21.86l-77.14-55.13c-4.69,2.03-21.96,28.44-20,31.07l85.83,45.92ZM2453.28,1058.16l-74.4,55.82c-3.07,2.59,9.94,20.42,11.1,21.16,4.04,2.55,72.84-42.32,83.16-47.1,1.37-2.31-15.14-30.73-19.86-29.88ZM2083.97,1084l-16.09,9.13c6.31,10.1,10.14,38.17,26.95,26.69,8.58-5.86-10.53-26.58-10.86-35.82ZM2286,1126c-2.21-4.45-8.41-6.29-12.65-8.35-7.52-3.64-62.88-27.73-66.43-27.19-5.34.81-11.51,29.74-12.92,35.54h92ZM1683.73,1151.74c1.4-.91,3.58-9.34.28-10.7l-85.01-47.05c-1.73,5.72-11.81,32.42-8.85,35.87,12.17.59,88.82,24.97,93.58,21.88ZM1884,1128c-2.07-13.43-3.28-23.32-10.15-35.87-3.55-2.54-70.5,29.41-81,31.77-2.83,3.97,4.58,11.63,3.24,19.06-1.11,6.16-8.64,4.69-8.07,11.02,2.62.22,5.38-.26,7.99.01,4.45.46,6.95-1.95,6,4-3.65.07-17.35,3.09-13.06,8.06l82.45,47.56,4.58.39c2.72-10.39,6.14-19.19,8.02-30,.77-4.4,1.56-6.64,2-12,.93-11.24,1.05-26.8,0-38-.11-1.22-1.65-3.75-2-6ZM2485.97,1129.96c2.09-2.15-5.77-28.83-7.83-33.1-4.62-9.58-5.78-2.56-11.49.79-23.95,14.03-48,27.87-71.74,42.25-6.03,7.24-3.56,12.66,5.82,11.99,25.41-1.81,58.5-20.01,85.24-21.93ZM1737.99,1110.01c-38.68,1.34-60.63,42.84-35.03,74.04,24.55,29.93,78.32,13.74,77.21-25.05-.33-11.48-3.65-6.34-5.66-7.75-2.87-2.01-6.27-8.06-12.49-7.25l-2,14c7.72-9,15.71-6.45,10.46,5.49-4.54,10.33-15.7,14.66-26.47,12.52.32,7.99,10.46,8.02,15.98,6-8.7,21.39-39.32,6.6-42.01-11.99-4.5,1.36-.85,11.35-1.97,14.98-.74,6.07-11.64-10.67-11.81-13.89-.47-8.72,8.38-18.7,9.79-27.09-1.86-1.9-18.62,14.36-13.58-.6,4.13-12.25,22.95-8.76,29.63-12.37,7.78-4.21-13.37-5.09-12.03-9.01,7.98-6.05,20.42,2.48,19.98-12.02ZM2350,1172c-.89,7.55,12.42,10.12,17.98,6-6.09,16.37-21.66,15.24-32.06,3-3.82-4.49,1.11-9.27-11.92-6.99,2.03,2.67,8.01,13.7,5.99,15.97-4.83,5.44-7.48-11.43-8.01-11.99-4-4.25-3.26,5.12-5.96,3.99,1.91-9.34-5.15-5.42-12.02-5.97,14.19,35.51,72.11,27.21,79.55-9.47,6.61-32.62-15.87-57.12-48.59-54.54-11.83.93.8,7.36,4.05,11.98l-1.01-5.97c15.81-.7,17.63,4.75,20,17.98s1.27,15.96-2.98,28.03c-.96,2.73-4.83,6.39-5.02,7.97ZM2161.98,1120c-14.34,5.64-28.62,11.62-43.98,14.03l19.84,48.65c11.81,7.36,32.17,6.64,36.87-9.03,3.89-12.98-12.45-38.78-12.72-53.64ZM1667.99,1154.03l-79.97-20.02c-1.37,13.21-1.37,24.79,0,38l79.98-17.98ZM2283.99,1134.01l-92,1.98v26.02s87.83-12.19,87.83-12.19l4.17-15.8ZM2487.99,1133.99l-77.98,21.99,77.94,15.98c3.15-13.18,1.78-24.8.04-37.97ZM1684.01,1157.99l-92.08,18.92c-5.91,4.13,4.66,30.62,7.13,37.04l84.61-46.28.34-9.69ZM2395.33,1158.28c-4.19,1.34-4.67,6.17-1.32,8.71l77.91,46.23c2.36,1.31,3.42.71,5.09-1.18,3.64-4.12,12.31-31.44,7.07-35.13-17.43-.25-75.71-22.79-88.75-18.63ZM2099.93,1236.1c-17.37-5.99-30.38-1.95-42.97-18.06-15.87-20.3.56-40.06-22.94-50.04-3.34,18.53-4.78,40.15,6.93,56.05,11.14,15.13,54.29,43.7,58.98,12.05ZM1789,1170.04c-3.12,5.18-14.56,21.46-12.12,25.97l76.06,54c3.47-4.08,19.69-26.46,18.12-30.05l-82.07-49.92ZM2455.78,1249.83c1.72-1.23,18.28-27.96,17.34-29.89l-83.09-49.93c.59,6.88-13.06,22.39-11.19,26,9.83,3.91,73.13,56.57,76.94,53.83ZM1687.84,1172.14l-82.96,47.86c-3.01,5.51,12.13,24.71,17.14,29.12l77.14-53.1c2.26-4.28-11.56-16.95-11.32-23.88ZM2086.26,1275.75c4.8,7.73,39.92-3.43,47.48-7.01,17.38-8.23,21.79-17.65,34.21-27.79,7.47-6.1,36.4-25.15,39.08-31.02,5.16-11.31-19.03-41.6-23.02-37.94-3.35,26.38-29.47,23.93-49.92,20.05-7.15,20.2-15.16,43.23-30,59.04-4.96,5.28-23.79,15.06-17.83,24.66ZM2104.03,1231.99c3.98,2.88,13.79-17.39,13.52-20.66-.42-5.1-18.13-33.37-24.57-32.84-1.03.08-7.35,6.24-7.96,7.56-5.48,11.76,17.22,33.3,19.01,45.95ZM2228,1204c.36-.2,1.18-2.65,3.22-3.68l28.77-14.3c-7.88,2.81-37.16,5.25-42.03,8.94-3.36,2.54-1.68,9.1-1.94,13.04.65.72,6.43-1.48,7.99-1.99-3.01,3.39-16.38,14.52-15.74,18.62.44,2.8,16.44,25.33,18.74,25.34l78.96-56.96c-5.26-4.07-8.23-9.4-11.19-15.15-25.3,1.97-43.14,19.95-66.77,26.15ZM2092,1225.98c-8.48-14.52-26.33-20.83-35.98-35.98-.34,18.98,15.96,37.63,35.98,35.98ZM2284,1240c6.17-12.42,20.6-25.06,24.96-36.06,1.6-4.04,1.65-5.19-1.96-7.9l-72.99,52.97c15.13,1.41,30.79,1.53,45.99.99,3.85-.14,9.4.83,12.72-.27,4.75-1.59,8.03-23.9,9.26-29.73l-17.98,20ZM1707.99,1198.01l-81.94,56.93c.93,2.42,17.64,16.91,20.91,19.15,1.76,1.21,2.74,3.03,5.09,1.05,5.43-9.9,62.31-70.18,55.94-77.13ZM1768,1202c-.15,1.3.12,2.68-.02,3.99-1.45,2.26-5.79-14.44-9.98.01-.66-.32-2.75.11-4,0s-2.75-.11-4,0c-9.85.87-17.28,3.21-27.99.01l-2.02,98c12.89,1.15,25.6-.69,38.01-2.01,1.04-.11,2.74-1.81,4-2,.25-.04,2.15,2.42,4.67,1.92,14.18-2.82,18.69-7.27,29.33-11.92.95-.41,3.11.42,4,0,9.17-4.3,12.3-6.98,20-12,.97-.63,2.5-.95,4-2,5.9-4.11,27.12-16.59,23.11-24.01l-73.12-52.97c-6.5-2.53-5.47-1.59-5.99,2.99ZM2372,1206c-7.49-10.51-10.14-4.09-3.98,4.96l-2.02,1.04c-2.28-2.09-8.74-7.39-8.07-.97l6.08,90.98c1.62,1.66,27.73-6.32,31.99-8,.36-.14,2.9-2.49,6-4,6.75-3.29,17.98-5.81,20-14,1.28-.18,2.85.26,4,0,4.07-.93,24.8-19.73,24-22.93l-75.03-55.06-2.97,7.99ZM1716,1302.01c-1.5-31.34,3.2-62.67,3.11-93.94,0-3.03-1.11-4.11-4.09-4.09-6.46.03-29.55,77.46-33.18,88.78.49,2.33,31.95,11.43,34.16,9.25ZM2360,1304l-4-91c-.61-11.38-20.79-.88-20.08,3.89,1.28,8.53,18.94,19.82,15.78,31.66s-24.44,7.82-26.83,11.31c-3.22,4.71-2.46,36.62-2.87,44.13h38ZM2311.97,1216.01c-3.37-3.33-3.35.75-4.01,2.93-3.15,10.49-6.43,20.73-9.95,31.05,3.12-.49,17.33.73,18,.02.72-.76,2.25-19.29,2-20.86-.11-.71-5.52-12.64-6.04-13.15ZM1677.98,1291.99l20-63.99c-5.95,7.63-40.81,43.57-41.72,49.37-.92,5.88,17.42,11.63,21.71,14.62ZM2286,1286c-6.48-5.01,7.86-26.3,5.99-27.99l-55.99,2.01c3.24,7.7,42.17,34.85,45.85,31.76.49-.41.06-2.7.17-3.77h1.96c-.05,2.31.21,4.32,2.02,5.99,2.8,2.59,30.12,9.85,32,8.01-2.61-7.78,3.85-38.27,1.13-42.14-1.74-2.47-20.62-2.87-22.8-1.53-1.26.78-9.74,24.39-10.33,27.66Z" fill="#1f3a3b"/><path d="M1048,938c1.82,3.85,4.78,21.66,7.26,22.16,108.39-33.05,221.64,27.94,253.76,135.82,52.23,175.4-137.49,325.05-296.36,232.36-133.21-77.71-130.06-269.83-.66-348.34.52.53,5.42-.61,6,0,1.25,1.32-2.11,7.52-2,7.99-95.92,58.93-124.28,190.65-54.83,281.83,97.51,128.01,297.96,90.4,340.86-64.79,27.28-98.7-33.06-210.59-132.47-237.59-25.57-6.94-80.06-9.3-104.56.55-4.79,1.92-5.5,2.63-4.99,8.01-1.86-4.28-6.55-12.7-9.13-17.87-3.23-6.48-12.54-8.64-2.87-20.13Z" fill="#182f30"/><path d="M1032,878c-.55,1.04-3.91,1.74-3.8,2.94.17,1.76,2.9,6.52,3.8,9.06,1.4,3.96,3.61,7.68,4,12-2.01.77-1.52,4.55-2,6-2.23,6.74-3.87,16.03,6,16-1.93,9.26,6.2,9.98,8,12,.31.35-.28,1.42,0,2-9.67,11.49-.36,13.65,2.87,20.13,2.58,5.17,7.27,13.59,9.13,17.87,1.44,3.32,3.24,8.47,4,12,1.81,8.43-3.17,6.65,4,12,10.85,8.1,38.6,113.89,61.08,139.86,13.2,15.25.76,39.94-20.54,32.58-13.66-4.72-11.82-19.94-16.19-31.79-11.16-30.23-36.52-75.08-52.35-104.65l1.92-1.1c-1.41-3.58-2.58-7.32-3.92-10.9l4-4c21.14,45.63,46.81,89.47,67.98,135.02,7.46,2.47,9.37,2.11,7.58-5.58l-75.36-196.2c-1.87-2.49-13.28-.46-16.21.76l-4-8c6,.14,17.07-.98,16.13-8.98-.63-5.44-14.24-8.61-15.78-20.56-1.26-9.82,9.53-14.72,4.18-25.99-2.41-5.08-23.06-17.98-28.3-14.25-1.31.93-1.1,6.64-2.17,8.37-2.68,4.34-55.62,9.45-64.06,9.41-11.18-.06-28.09-2.59-40-2l1.33-1.61c14.1.03,15.67-.18,14.67-14.39,1.85-.05,7.69,3.14,8,4,1.8,4.94-4,8.52,4.94,7.99,21.94-1.32,46.42-6.89,67.06-11.99.24-.06,2.19,2.74,4.66,1.88,2.66-.93,2.71-4.71,4.72-6.01,3.66-2.37,10.19.22,8.62-5.87,8.24,4.2,17.04,9.9,26,12Z" fill="#2f2825"/><path d="M1022,946l4,8c-1.68.7-4.32,2.41-5.04,4.01-4.58,10.15,15.74,50.56,21.04,61.99l-4,4c-5.18-13.77-6.54-14-14-24-1.1-1.47-7.84-11.3-8-12-.1-.47,3.25-6.67,2-7.99-.58-.61-5.48.52-6,0-.55-.56-.41-11.48-1.31-15.69-.56-2.65-1.85-11.92-5.67-10.29l-177.03,191.98c-7.05-.06-5.51,7.23-16,2,65.91-65.71,124.73-138.46,190.89-204.11,6.65-4.53,10.66,1.9,19.11,2.11Z" fill="#2f2e25"/><path d="M504,1150c-1.08-8.42-.19-9.79,4-18,1.54-3.02,4.11-6.98,6-10,1.08-1.73,2.79-4.19,4-6,21.29-31.66,54.29-62.5,74-94,1.28,4.28,4.81-2.4,5.6-3.4,11.67-14.74,16.35-20.14,26.4-36.6,10.35-16.94,24.01-32.67,37-48.05,3.11-6.65-1.52-13.65-3-19.95l8-10,7.04,27.9c-17.65,21.86-33.91,44.82-51.1,67.04-11.88,15.37-24.01,30.66-36,46-27.32,34.95-56.78,68.66-81.94,105.06Z" fill="#362b26"/><path d="M1227.49,591.49c-8.04,7.43-27.8,1.26-36.19-3.79-20.62-12.41,11.96-27.12,27.21-23.19,10.21,2.62,17.36,19.23,8.98,26.99Z" fill="#82b7ac"/><path d="M1654,578.02c4.89,4.77-17.21,7.87-19.31,7.87-10.59-.03-7.82-10.1.8-11.55,2.35-.4,17.83,3.03,18.51,3.69Z" fill="#b7ecf3"/><path d="M1665.99,630.01c.77.74-8.93,16.98-10.26,18.72-5.19,6.78-11.97,2.2-8.73-4.72,1.3-2.79,16.43-16.47,18.99-13.99Z" fill="#b9e9ee"/><path d="M1201.99,651.99c-8.12,4.17-17.29-18.74-15.98-19.98,4.1-3.87,20.64,13.07,15.98,19.98Z" fill="#b3e7f0"/><path d="M592,1022c-19.71,31.5-52.71,62.34-74,94-5.71-9.12-21.91-2.28-29.36,1.64-21.21,11.14-24.98,33.7-18.23,54.96,1.22,3.84,5.14,6.92,5.62,10.55.81,6.14-4.34,11.55-1,18.82,4.1,8.9,26.46,12.28,34.97,16.06,3.26,4.53-24.3,18.08-14.12,35.11,2.6,4.34,15.77,10.26,21.08,10.91,26.52,3.23,62.97-.98,89.97-2.13,8.81-.38,18.4-.38,27.07,1.07-125.2,141.56-350.22-3.97-272.34-178.34,37.05-82.94,140.32-123.39,222.43-79.74,10.28,5.47,14.66,6.31,7.92,17.08Z" fill="#8cc76f"/><path d="M908,580c2.77-.2,8.46-.99,10.21,1.24,1.6,2.02,15.4,35.23,17.23,40.32,4.09,11.43,7.44,23.07,6.56,34.44-5.83,3.84-3.04,1.48-4.53-2.43-3.47-9.14-12.16-40.17-21.32-42.75-12.62-3.55,1.74,14.2,3.61,18.43,9.71,21.92,20.2,68.52,24.98,93.17.69,3.57,1.96,6.26-.74,9.59-18.26,1.78-38.36,14.3-56.04,17.17l-27.88-76.24c-1.64-1.08-7.5-1.44-8.07-.91-1.69,1.59,13.72,36.46,11.18,40.07-25.05,11.7-56,15.77-79.06,31.05-10.74,7.11-17.32,19.24-32.62,18.39-8.33-.47-41.82-16.38-50.84-21.17-17.65-9.38-48.99-30.24-62.66-44.34-1.39-1.43-2.7-4.17-4-6,9.39-17.28,24-31.45,39.04-43.96,51.32-42.67,121.78-74.61,189.94-70.02,17.27,1.16,27.03,5.29,45.02,3.98Z" fill="#5194c8"/><path d="M630,686c.13.25,2.75,2.24,4,4s2.61,4.57,4,6l-7.99,2.99c20.66,18.66,43.96,36.26,68.65,49.35,19.82,10.5,46.78,24.5,69.22,20.68l78.15,44,1.17,5.01-37.2,63.1c-1.33.83-27.86-8.11-29.5-9.65-2.44-2.28-11.79-29.85-14.78-36.21s-21.64-45.19-24.72-45.24c-2.8-.04-4.06,7.53-2.08,10.03,12.77,30.08,31.21,59.68,41.16,90.84,1.47,4.61,2.51,8.98,2.06,13.87l-76.9,34.84c-6.24-1.24-56.04-81.9-64.41-93.46-17.87-24.69-33.79-32.29-38.83-66.17,4.04-14.71,4.33-29.63,8.56-44.44,1.67-5.84,5.13-14.73,7.69-20.31s16.19-18.03,3.75-19.25c1.81-3.06,6.23-.77,2.01-9.99h5.99Z" fill="#415c67"/><path d="M1166,514c-.98,9.05-4.71,16.04-14.96,16.19-17.75.25-53.63-14.5-74.6-17.64-8.33-1.25-16.65.16-24.97-1.03-20.27-2.9-43.41-21.01-62.7-23.3-26.95-3.2-46.38,15.33-69.66,11.64-22.2-3.52-29-39.25-27.11-57.85l18.62,14.36c7.88,6.71,43.09,9.45,43.33-3.32.23-12.19-41.07-38.31-42.1-60.23-.2-4.32.85-4.18,2.13-6.82l25.5-7.5c105.1-16.81,201.83,11.28,222.44,126.54.62,3.48-.9,7.55,4.05,8.95ZM953.4,402.41c-20.99,6.24,23.39,33.36,30.08,35.09,12.31,3.18,31.7-6.04,25.5-19.47-4.72-10.22-45.41-18.64-55.58-15.61ZM1081.4,414.42c-2.15.65-4.61,2.82-5.14,4.99-2.05,8.35,26.47,30.98,32.76,38.57,5.2,6.27,25.3,41.41,31.94,40.02,8.52-1.78-2.34-32-4.61-37.35-7.51-17.67-32.52-53.03-54.95-46.23ZM1037.42,442.44c-13.62,3.06-12.32,19.56-2.41,27.55,5.65,4.56,53.06,28.13,58.08,27.9,4.47-.21,7.17-4.44,6.94-8.71-.4-7.14-38.39-43.94-45.91-46.28-4.71-1.47-11.9-1.53-16.7-.45Z" fill="#5796c7"/><path d="M614,990.03l-10.99,15.93c-78.18-51.36-182.06-28.39-234.63,47.41-69.75,100.56-17.55,241.56,101.62,269.64,54.66,12.88,118.33-.82,159.07-40.95,3.77-3.72,14.29-19.08,16.26-19.74s18.5-2.34,21.64-2.4c7.7-.13-6.33,16.06-8.92,19.12-120.03,142.02-349.69,47.89-338.13-140.13,8.94-145.42,171.48-224.34,294.08-148.89Z" fill="#52666d"/><path d="M1114.5,624.5c-1.47,1.18-2.88,7.4-4.85,10.16-23.54,32.97-47.18,47.65-88.2,32.89-4.13-1.49-15.73-6.82-18.35-9.65-6.31-6.82-14.03-42.99-12.95-52.71.98-8.85,28.48-61.63,34.78-67.26,1.28-1.14,28.82-15.14,30.49-15.51,5.85-1.32,17.09-.8,23.34-.17,7.55.75,57.99,12.69,59.07,16.92.65,2.55-15.4,40.87-15.92,49.9-.56,9.8,8.74,21.68,7.31,26.99-2.22,8.27-11.27,5.68-14.71,8.45ZM1084.01,532.01c-4.53,4.52,19.68,28.78,25.4,29.67,2.61.4,6.02-.19,6.58-2.71.75-3.42-21.66-18.98-23.9-24.06-1.21-2.24-6.97-4.01-8.08-2.9ZM1091.38,564.24c-7.41,1.95-14.45,20.67-2.28,21.85,12.67,1.22,13.81-24.89,2.28-21.85ZM1033.91,576.05c-.65-.52-4.26.18-5.91-.03,3.24,17.59-12.24,45.41-6.02,5.98-14.48,6.17-12.48,32.88,4.62,27.68,7.79-2.37,11.25-30.45,7.31-33.63ZM1091.99,647.99c2.09-14.6-43.71-27.15-43.95-14.99-.05,2.74,16.25,4.05,20.5,5.46,8.49,2.81,14,10.76,23.45,9.53Z" fill="#f9d3b1"/><path d="M790,916c4.75,22.92,19.63,45.89,18,70-.55,8.17-5.14,22.96-7.47,31.53-10.4,38.19-25.89,76.65-37.54,114.61-2.06,2.36-30.44-4.93-35.43-6.69-14.24-5.02-12.1-8.16-11.53-22.43.88-21.94,4.81-50.26,10.54-71.44,2.65-9.78,13.85-32.74,13.37-40.44-.69-11.12-30.78-38.09-25.81-44.98,21.1-6.94,44.91-26.19,65.89-31.26,3.84-.93,6.53-1.46,9.98,1.1Z" fill="#fad5b1"/><path d="M1022,946c-8.45-.2-12.46-6.63-19.11-2.11-66.17,65.65-124.98,138.4-190.89,204.11-6.62-3.3-12.32-10.92-10-18l171.03-183.97c6.39-9.29,13.44-14.3,18.97-24.03.43-.76,3.53-.94,4.07-5.04.27-2.05-.79-8.57-2.07-8.96-12.08-5.99-26.18,1.91-38.99,0l-93.01,11.99c-19.63.31-39.17,3.95-58.72,6.16-2.86-.54-3.73-11.32-3.22-14.11l131.95-18.05c8.44.04,61.38-5.07,64.06-9.41,1.07-1.73.86-7.44,2.17-8.37,5.24-3.73,25.89,9.17,28.3,14.25,5.36,11.27-5.44,16.17-4.18,25.99,1.54,11.95,15.15,15.12,15.78,20.56.93,8-10.13,9.12-16.13,8.98Z" fill="#df5d53"/><path d="M916,880c4.07-6.3,1.08-13.36-1.65-19.35-11.33-24.84-52.35-48.17-75.74-62.26-20.38-12.28-42.93-21.68-62.57-35.39,22.87-25.14,59.85-30.42,90.74-41.15,13.9,27.02,21.36,66.98,39.22,91.14,18.95,25.64,57.29,33.22,75.85,52.14,3.03,3.09,4.21,7.17,6.15,10.86-20.64,5.1-45.12,10.67-67.06,11.99-8.94.54-3.14-3.04-4.94-7.99Z" fill="#8cca72"/><path d="M904,922c23.05.04,44.73-4.66,66.91-6.08,3.1-.2,14.86-2.28,13.09,4.08-32.56,35.64-66.66,70.15-99.03,105.97-5.54,6.13-33.47,35.94-34.97,40.03-5.47.95-13.69,18.93-17.96,15.99-3.13-10.12-23.92-34.14-21.21-44.06l93.17-115.93Z" fill="#90ca75"/><path d="M1006,866c-23.5-11.98-80.7-40.18-94.87-60.13-3.82-5.37-20.35-45.09-18.31-47.95,17.8-7.55,35.91-15.04,55.17-17.94,1.94,11.06,4.65,29.12,10.93,38.09,3.61,5.16,13.9,12.36,19.29,16.71,22.89,18.52,48.01,34.79,71.76,52.2-7.27,9.51-12.42,20.5-17.97,31.01-8.96-2.1-17.76-7.8-26-12Z" fill="#fad6af"/><path d="M554,1176c34.51.34,77.21,20.41,114,20,2.34,2.96.42,5.53-.42,8.42-5,17.06-12.83,34.35-24.96,47.2-36.92,1.04-73.55,3.46-110.61,2.37,4.08-7.64-.35-13.92.05-20.75.65-10.98,12.16-21,7.54-35.84-.95-3.05-5.84-4.8-5.35-8.02,1.29-8.56,11.63-13.45,19.75-13.38Z" fill="#89c86f"/><path d="M666,904c4.74.05,24.87,33.25,27.71,39.29,4.99,10.59,24.67,74.1,24.34,83.61-.41,11.9-7.39,26.4-6.07,39.1l-30.98-107.99-5.86-5.91-153.2,192.97c-.05,5.81,11.23,7.44,15.61,8.39,20.35,4.4,44.12,5.67,64.94,9.06,29.73,4.83,59.22,12.2,89.51,13.5,2.52,2.36-5.69,14.06-8,15.99-31.58-7.41-63.72-13.5-95.64-19.36-10.38-1.9-81.67-11.46-84.09-14.98-1.11-1.61,0-5.48-.27-7.66,25.16-36.4,54.62-70.11,81.94-105.06,11.99-15.34,24.12-30.63,36-46,17.18-22.22,33.44-45.18,51.1-67.04l-7.04-27.9Z" fill="#d46461"/><path d="M671.99,1127.99l-123.98-4.98c11.66-8.37,68.93-91.89,74.72-90.87,4.8.85,26.91,33.59,30.31,39.82,4.06,7.44,23.08,51.18,18.95,56.03Z" fill="#8dc970"/><path d="M701.96,1186.01c3.95,11.6,20.93,19.32,32.53,17.56,5.05-.77,10.51-5.34,14.69-5.6,9.67-.59,16.35,19.11,21.77,26.08,2.92,3.75,9.28,9.65,13.02,12.98,9.68,8.59,46.2,26.71,21.14,37.09-44.14,2.44-78.35-30.4-118.22-44.01-10.41-6.78,8.07-49.02,15.06-44.09Z" fill="#5398c0"/><path d="M908,876c1,14.2-.56,14.42-14.67,14.39l-1.33,1.61c-14.44.71-47.43,8.53-58,4-1.9-.81-15.66-10-15.74-10.95l38.71-64.93c19.35,14.14,49.13,28.9,51.03,55.88Z" fill="#fad5b0"/><path d="M1127.98,882l-12.91-6c-9.91,7.04,7.13,12.01,4.04,17.99-4.63,8.98-10.27-4.08-14.25,4.01-1.98,4.04,3.41,5.79,2.95,8.71-.59,3.68-8.32,8.7-8.8,1.28-10.12,22.09-59.1-18.9-59.04-26.98.01-1.62,14.2-27.22,16.04-28.13,1.95-.97,11.66,1.54,16.8.95,5.55-.64,13.4-5.78,17.89-5.34,7.78.78,44.18,24.12,37.28,33.48Z" fill="#5497c9"/><path d="M1167.98,890c-16.89-9.28-4.14-57.15-15.98-63.13-4.18-2.11-21.75,7.35-25.09,11.04-6.14,6.78-4.23,11.89-5.9,20.08-3.59-3.83-14.25-7.67-16.97-11.03-2.43-3-1.92-6.87-3.97-10.03-11.36-17.53-31.45-7.21-37.76-11.22-4.03-2.56-2.81-12.22,4.75-13.65,17.18-3.25,58.73,6.26,71.01-8.98,2.99-3.7,4.28-13.9,7.91-16.09,4.2-2.53,20.51-2.17,23.08,3.02,4.15,8.38-8.65,16.96-8.75,26.97-.06,5.99,4.89,14.55,5.21,20.52.27,4.98-2.16,9.85-1.68,15.53,1.03,12.22,4.13,24.62,4.13,36.97Z" fill="#445b63"/><path d="M773.13,1134.1c1.09-.23,14.16,4.4,16.27,5.49,34.92,18.06,37.89,70.58,7.32,94.26-2.05.36-16.73-13.78-17.69-15.89-4.9-10.82,3.63-26.39.55-36.56-1.54-5.08-14.38-12.54-15.19-16.68-.31-1.58,6.97-30.26,8.75-30.63Z" fill="#58666e"/><path d="M908,580c-17.99,1.31-27.75-2.82-45.02-3.98-68.16-4.59-138.61,27.36-189.94,70.02-15.04,12.51-29.66,26.68-39.04,43.96-1.25-1.76-3.87-3.75-4-4-1.18-2.2-2.4-4.21-2.05-6.88.99-7.44,44.42-44.36,53.13-51.04,56.45-43.27,133.32-72.94,204.99-57.15,7.97,1.76,15.54,3.82,21.93,9.07Z" fill="#e1f6f6"/><path d="M884,926c.51,1.09,2.17,2.2,2,4-15,11.78-26.89,36.34-40.06,50.94-8.33,9.23-11.53,15.19-23.94,7.06-9.55-6.26-3.13-7.4-4.4-16.42-1.79-12.77-10.51-24.54-11.6-37.57l77.99-8.01Z" fill="#f9d1b0"/><path d="M892,892c11.91-.59,28.82,1.94,40,2l-131.95,18.05c-.5,2.79.37,13.57,3.22,14.11,19.55-2.21,39.09-5.85,58.72-6.16,5.03-.08,14.63-.99,18.66-.07,1.98.45,2.53,4.33,3.34,6.07l-77.99,8.01c1.08,13.03,9.8,24.8,11.6,37.57,1.26,9.02-5.15,10.16,4.4,16.42.69,4.43-4.61,5.61-6,8-7.36-1.4-8.71-.44-8-10,1.63-24.11-13.25-47.08-18-70,3.73-14.63,20.71-7.42,28.05-8.9,6.02-1.21,10.94-8.04,15.95-11.1,10.57,4.53,43.56-3.29,58-4Z" fill="#2c1c1b"/><path d="M552.11,1145.9c-.95-.99.36-9.27-.1-11.9l117.01,1.98c8.11.96,9.35,28.61,4.06,29.56l-120.98-19.63Z" fill="#8dc675"/><path d="M714.01,1130.01c1.23-1.32,24.95,8.46,29.46,9.52s15.17-1.23,16.33,3.63c.53,2.19-10.57,40.75-12.19,43.46-7.09,11.86-35.38,8.86-39.19-4.03-3.71-12.54,8.78-38.04,5.59-52.58Z" fill="#fbfcf5"/><path d="M700.01,1128.01c-3.98-.79-16.31,1.7-18.24-1.16s-6.1-26.62-8.35-33.26c-4.95-14.6-13.07-29.54-21.79-42.21-3.25-4.72-21.05-24.68-21.4-26.67s7-12.2,8.99-12.62c34.58,27.08,56.63,72.36,60.79,115.92Z" fill="#51636a"/><path d="M707.99,1101.99c-5.55.97-3.37-1.16-4.51-4.38-13.23-37.41-27.18-67.58-57.27-94.9l26.8-34.71,34.51,115.47.47,18.51Z" fill="#8cc673"/><path d="M1166,514c-4.95-1.41-3.43-5.47-4.05-8.95-20.61-115.27-117.34-143.35-222.44-126.54l-25.5,7.5c5.07-10.42,34.27-15.73,45.55-17.45,62.92-9.6,133.19,5.25,175.47,55.42,18.63,22.11,34.13,60.89,30.98,90.02Z" fill="#dcf0f3"/><path d="M992,922c-5.54,9.72-12.58,14.74-18.97,24.03l-171.03,183.97c2.06-6.28,20.67-30.05,25.98-36.44,9.73-11.7,16.25-11.82,22.02-27.56,1.5-4.09,29.44-33.9,34.97-40.03,32.37-35.82,66.46-70.33,99.03-105.97,5.03,1.79,4.34-5.71,8,2Z" fill="#3a2d24"/><path d="M504,1150c.28,2.18-.83,6.05.27,7.66,2.42,3.52,73.71,13.07,84.09,14.98,31.91,5.86,64.06,11.95,95.64,19.36-6.14,5.13-8.51,3.92-16,4-36.79.41-79.49-19.66-114-20-5.49-3.39-11.89-3.21-18-4-29.22-3.76-61.29-4.72-28-40-4.19,8.21-5.08,9.58-4,18Z" fill="#29211a"/><path d="M1012,506.03l-14.02,29.97c-9.05-10.59-18.76-19.89-34.09-15.1-4.75,1.48-9.68,9.84-12.86,9.09-4.57-9.16-13.95-20.38-2.12-26.1,22.19-10.71,41.73-9.07,63.09,2.13Z" fill="#67563e"/><path d="M514,1122c-1.89,3.02-4.46,6.98-6,10-33.29,35.28-1.22,36.24,28,40-7.52,28.55-33.92,2.53-52.64,1.64-20.66-19.24,4.37-61.31,30.64-51.64Z" fill="#54656d"/><path d="M972.01,645.98l-19.99,4.03-24.02-70c14.54-2.56,14.81-3.93,23.26,7.73,13.54,18.68,16.02,36.24,20.75,58.24Z" fill="#f2d5bd"/><path d="M803.98,1048c-.2,10.54,22.18,34.22,22,41.04-.07,2.83-15.14,20.98-18.94,20.97-3.38-.01-20.66-13.12-21.05-17.05-.85-8.47,11.07-38.1,17.99-44.97Z" fill="#4a8cc6"/><path d="M1029.98,804.04c4.14,4.91-11.48,6.56-16.07,5.12-3.02-.95-40.63-28.59-43.99-32.09-10-10.4-17.38-38,4.04-39.08,4.1,17.63,3.28,25.35,17.09,37.94,10.87,9.91,26.75,19.43,38.92,28.1Z" fill="#f2dfca"/><path d="M491.38,1182.19c2.14-.54,25.69,11.93,31.32,12.11,18.24,10.95,2.11,25.9-.23,39.18-.85,4.8,1.1,19.62-3.54,20.52-4.84-2.18-17.06-4.73-17.01-10.99s22.34-20.72,19.81-29.59c-3.09-10.83-28.87-2.82-35.87-14.29-3.19-5.22-.67-15.39,5.52-16.94Z" fill="#55676e"/><path d="M971.48,526.35c8-1.18,18.09,11.44,18.49,18.81.21,3.86-12.84,30.34-15.02,30.85-20.72-6.99-28.29-46.01-3.47-49.66Z" fill="#f2d2b7"/><path d="M954,732l-14.01-64.78c.04-.91,3.02-2.72,4.01-3.22,3.75-1.92,8.19-2.16,11.98-4.01l15.98,65.14c-.13,4.6-9.13,7.94-13.34,8.31-2.3.2-4.15-1.47-4.61-1.43Z" fill="#5889af"/><path d="M944,732c2.7-3.33,1.43-6.02.74-9.59-4.78-24.65-15.27-71.25-24.98-93.17-1.87-4.22-16.24-21.98-3.61-18.43,9.17,2.58,17.85,33.61,21.32,42.75,1.49,3.92-1.3,6.27,4.53,2.43-.2,2.54-.88,6.79,2,8-.99.51-3.97,2.31-4.01,3.22l14.01,64.78c-3.29.25-6.72-.32-10,0Z" fill="#083352"/><path d="M619.99,837.99c-11.32.08-51.37-16.14-41.7-31.71,1.54-2.48,19.42-3.87,22.87-.43l18.84,32.14Z" fill="#44606a"/><path d="M984.01,579.99c-1.17-1.14,11.22-26.85,12.9-30.08,3.2-6.14,18.89-34.84,22.09-37.91,4.52-4.34,7.95-.96,10.71,2.98-10.09,13.63-17.05,29.39-26.09,43.63-2.26,3.55-14.86,26.01-19.61,21.37Z" fill="#49636c"/><path d="M914,418c2.47,3.21,33.22,33.2,29.99,35.99-13.56,1.36-36.22-4.78-41.99-17.99,6.4-.27,10.2-12.3,12-18Z" fill="#4a5759"/><path d="M968,581.98c-3.94-.08-8.27.83-12.01-.97-8.39-4.03-33.49-67.64-30-71,.26-.25,6.75-1.59,7.1-1.53,1.76.3,11.36,28.51,12.44,32.99,1.42,5.94-.68,11.71,1.98,18.02,3.08,7.31,16.57,14.79,20.49,22.49Z" fill="#4a616a"/><path d="M682,1138h20.01c.03,9.97.74,20.11-2.21,29.79-1.16.99-17.8-.89-17.8-1.79v-28Z" fill="#46545d"/><path d="M994,908c1.29.38,2.34,6.91,2.07,8.96-.54,4.11-3.64,4.28-4.07,5.04-3.66-7.71-2.97-.21-8-2,1.78-6.36-9.98-4.28-13.09-4.08-22.19,1.43-43.86,6.12-66.91,6.08-1.33,0-2.67,0-4,0,9.78-4.14,16.36-4.41,26.8-6.2,18.43-3.15,34.6-3.63,54.58-7.09.82-.14,12.02-.89,12.62-.71Z" fill="#2c1c1b"/><path d="M916,514c6.46,18.69,14.04,36.85,22.06,54.92.09,2.03-14.58,3.91-16.06,1.08,4.26-1.95.6-6.18-.27-8.73-4.7-13.78-5.62-22.49-7.17-36.87-.35-3.21-2.29-8.31,1.44-10.4Z" fill="#59584f"/><path d="M602,780c-5.2-34.9,2.7-54.79,20-84,12.44,1.21-1.13,13.53-3.75,19.25s-6.02,14.48-7.69,20.31c-4.23,14.81-4.53,29.72-8.56,44.44Z" fill="#e4eeed"/><path d="M678,1208.02c-9.38,9.2,5.6,30.36,5.04,31.95-3.83,10.85-16.92,12.57-27.03,12.02-1.19-1.07,12.79-24.99,14.37-28.61,2.09-4.81,1.47-16.24,7.62-15.36Z" fill="#4e606b"/><path d="M775.7,1280.29c1.08,1.77-.02,5.38.3,7.7-2.7,2.83-38.43-10.56-42.79-13.82-3.76-2.81,1.45-10.52,5.42-9.89,1.45.23,6.76,4.77,10,6.1,4.35,1.78,26.33,8.68,27.08,9.92Z" fill="#455861"/><path d="M1040,924c-9.87.03-8.23-9.26-6-16,12.67-.97,22.66-.49,31.96,9,.07,2.56-23.05,6.99-25.96,7Z" fill="#495960"/><path d="M994,908c-.61-.18-11.81.57-12.62.71-19.97,3.47-36.15,3.94-54.58,7.09-10.44,1.78-17.02,2.05-26.8,6.2-3.5,1.48-11.04,5.68-14,8,.17-1.8-1.49-2.91-2-4-.81-1.73-1.36-5.62-3.34-6.07-4.03-.92-13.63-.01-18.66.07l93.01-11.99c12.82,1.91,26.91-6,38.99,0Z" fill="#3a2d24"/><polygon points="823.99 898.03 792 904.01 788.01 884.01 823.99 898.03" fill="#8ccf8c"/><path d="M725.97,1008c-3.37,3.32-3.36-1.06-4.16-2.81-5.8-12.7-8.03-31.74-13.79-45.19,6.07,6.94,22.78,28.02,21.63,36.46-.17,1.27-3.25,11.11-3.68,11.53Z" fill="#9dc891"/><path d="M986.01,602.01c-7.77-.86-20.3,3.91-20.21-7.02.12-14.09,26.3-11.84,20.21,7.02Z" fill="#446070"/><path d="M816,996c4.7.89,8.52-.82,11.97,5-7.6,6.56-11.33,17.08-17.52,24.45-1.92,2.28-2.24,5.52-6.45,4.53,6.37-9.66,6.46-24.47,12-33.98Z" fill="#ced8d4"/><path d="M922,570c-8.84-16.94-15.28-37.2-11.45-56.53.73-3.66.94-6.6,5.44-5.47.39,1.8-.47,4.61,0,6-3.73,2.08-1.78,7.19-1.44,10.4,1.55,14.38,2.47,23.09,7.17,36.87.87,2.55,4.52,6.77.27,8.73Z" fill="#d0d7d7"/><path d="M1092,836.02c3.49,3.29-.6,3.39-3.01,3.94-12.36,2.79-23.21,9.63-32.98-.99-.86-4.77,2.18-2.5,5.04-2.89,6.22-.85,26.96-3.82,30.95-.07Z" fill="#6bab88"/><path d="M769.98,1202c-9.13-6.23-15.09-15.04-9.95-25.99,15.4,3.36,12.81,13.59,9.95,25.99Z" fill="#53656e"/><path d="M1049.71,816.28c1.28.8,3.06,10.94,2.29,11.71-8.31,1.41-20.37-.4-23.99-9.02-1.71-4.08,2.77-2.81,4.94-2.97,3.1-.23,15.29-.63,16.75.28Z" fill="#56626d"/><path d="M801.99,1114.02c-3.59,5.51-5.85,15.35-13.99,13.96l4.01-15.99,9.98,2.03Z" fill="#bccacc"/><path d="M914,418c-1.8,5.7-5.6,17.73-12,18-.64-1.46-1.9-2.01-1.01-3.98.58-1.29,12.15-18.76,12.99-18.02.28,1.19-.37,3.49.02,4Z" fill="#c7d5d8"/><path d="M1032,890c4.7-1.2,11.81,10.02,9.99,11.99-.5.54-4.63-.51-5.99.01-.39-4.32-2.6-8.04-4-12Z" fill="#a7b2ab"/><path d="M2218,672c2.22,3.15,6.94,8.26,5.1,11.95-1.17,2.35-19.61,20.08-23.08,23.08-12.09,10.45-28.73,21.42-42.68,29.32-11.27,6.38-49.24,25.36-60.34,25.39-6.27.02-38.65-23.16-49.66-28.08-8.56-3.83-56.55-18.82-58.48-21.57-3.31-4.72,8.12-31.61,9.1-39.15.75-5.74-8.72-3.22-9.65.38-4.29,25.14-19,50.55-24.32,74.68l-6,2c-2.75-3.2-18.8-8.08-24-10-8.16-3.01-16.72-4.72-24.78-8.32-2.98-1.33-6.21-1.11-5.22-5.68,7.72-9.08,17.58-79.96,27.14-99.86.37-.78,14.24-15.9,3.84-14.17-6.98,1.16-11.37,12.4-13.9,18.11-3.87,8.74-5.03,26.97-15.06,25.92-3.01-2.97,22.25-73.49,28.52-76.61s37.09-10.37,44.71-11.14c76.11-7.62,147.82,22.56,204.79,70.73,9.04,7.64,27.61,23.98,33.97,33.03Z" fill="#a07e5e"/><path d="M1886,368c8.99.06,38.89,7.67,45.87,13.13,22.86,17.88-23.33,50.46-32.75,64.97-12.43,19.13,22.68,17.84,35.52,11.53,8.52-4.19,12.7-12.81,21.34-15.63,5.58,13.09-2.14,45.46-13.26,53.71-21.09,15.63-43.27-4.35-64.23-7.2-30.63-4.17-41.81,12.13-67.59,19.37-16.09,4.52-32.61,3.97-48.96,7.04-15.76,2.96-52.98,17.1-66.45,14.77-3.4-.59-10.73-6.4-11.48-9.7,6.48-11.07,2.86-22.88,7.05-35.95,27.54-85.9,111.57-116.61,194.95-116.05ZM1889.65,400.46c-13.47.55-73.23,14.26-44.3,33.19,11.75,7.69,16.96,4.31,27.99-1.32,10.11-5.16,49.56-33.25,16.31-31.88ZM1759.59,414.4c-25.66,2.13-49.38,44.48-52.68,67.49-1.23,8.6-2.34,22.5,7.9,11.92,10.99-11.37,21.04-30.74,32.16-43.84,4.9-5.77,21.87-19.39,24.03-24,4.11-8.77-3.76-12.2-11.41-11.57ZM1803.53,440.34c-10.85,1.45-47.62,35.81-51.97,46.24-3.2,7.68-.73,9.95,7.4,9.55,6.11-.3,40.08-16.85,47.07-21.1,3.66-2.23,10.68-5.82,13.12-8.88,9.18-11.52-1.62-27.68-15.62-25.82Z" fill="#9b7a59"/><path d="M1866,872c-4.99,2.09.22,5.39,2.53,6.47,3.51,1.66,10.53,2.58,14.72,3.28,25.84,4.3,55.3,5.02,81.73,8.27,29.7,3.65,59.21,9.24,89.02,11.98-.25,1.96-2.39,5.08-2.2,7.77-34.2-2.15-68.52-9.18-102.82-11.75-17.1-1.28-43.59-3.64-59.95-1.99-37.12,3.75-13.16,30.72-.06,46,47.98,55.95,103.06,116.66,154,170,13.15,13.77,36.66,46.94,54.09,26.04,4.29-5.14,3.36-12.56,8.91-12.06,1.45,15.71,23.47,45.17,21.63,58.46-.75,5.41-5.11,11.72-5.63,17.52l-12.91-22.05c-15.9-18.79-36.08-.05-34.05,20.05-17.55-20.4-34.22-41.83-51.98-62.02-47.85-54.39-98.91-113.07-148.98-165.02-22.75-23.6-22.92-21.88-54.05-30.95v-12c9.77-7.21,13.29-11.46,8-24,3.69-4.02,6.51-12.22,7.61-17.42,1.36-6.46-.75-4.51-5.61-4.58,1.54-1.6,22.91-13.04,25.49-13.58,6.73-1.42,7.19.98,10.51,1.58Z" fill="#5d6b71"/><path d="M1735.52,624.49c-1.96-1.83-6.56-1.83-9.35-3.64-11.64-7.56-1.19-12.63.94-22.73,4.08-19.32-12.63-40.57-14.27-60.22,1.74-2.59,54.09-15.26,60.45-15.69,15.95-1.08,19.3,9.34,32.69,12.83,5.83,1.52,12.7-.36,17.17,2.83,5.43,3.87,35.52,59.31,36.72,67.26,1.5,9.91-6.95,45.07-12.99,52.76-4.71,5.99-36.18,15.7-44.19,15.98-21.91.78-41.45-12.63-54.65-28.9-3.81-4.7-10.3-18.39-12.52-20.47ZM1765.99,534.01c-1.43-1.3-6.89.6-9.09,1.89-1.15.67-18.61,16.78-19.57,17.94-1.59,1.9-2.21,7.15-1.32,8.15,4.21,4.71,33.99-24.32,29.98-27.98ZM1759.22,556.11c-8.99,1.59-10.77,27.86,1.78,27.95s6.54-29.41-1.78-27.95ZM1815.23,570.14c-7.26,2.37-4.18,41.97,15.42,35.59,14.02-4.57-2.58-39.79-15.42-35.59ZM1762.01,649.99c11.13.66,20.23-10.69,31.45-11.56,3.15-.24,18.38,4.77,16.53-3.4-2.53-11.19-49.15-.26-47.98,14.96Z" fill="#f5cda9"/><path d="M1934,748c7.98,2.8,15.83,7.47,24,10-2.21,11.58-11.71,37.1-18.33,46.67-22.71,32.85-84.88,52.73-118.8,73.35l-2.71-.16-16.16-31.86,88.03-64.97c8.27-11.95,8.41-27.3,12.05-40.96,1.64-1.44,27.56,6.4,31.93,7.93Z" fill="#faccab"/><path d="M1966,764c5.97-14.66,12.24-29.58,18.98-43.94,27.64,12.01,57.9,17.42,83.01,34.93-29.57,14.75-61.17,25.77-90.03,41.97-27.72,15.55-65.05,37.92-55.97,75.04-4.12-1.06-7.69-1.71-11.99-1.99-8.89-.6-17.59-1.08-26.39-2.61-2.51-.44-11.21-.4-9.59-4.36,1.15-2.81,42.28-25.42,49.42-30.59,30.01-21.74,29.68-36.81,42.56-68.44Z" fill="#8dc874"/><path d="M1794,898c-2.54,1.89-5.4,5.62-6,6-6.15,3.88-20.46,10.59-27.14,6.14-5.28-3.52-27.94-39.41-26.59-44.72s19.25-16.57,25.05-16.84c5.12-.24,12.05,4.53,17.85,5.25,4.72.59,15.72-1.35,16.96-.79,3.55,1.59,14.11,24.83,17.67,29.68-.38,2.35-14.61,12.92-17.8,15.29Z" fill="#a47c5d"/><path d="M1752.54,834.54c-1.27,2.12,0,5.32-2.54,8.43-1.12,1.37-19.24,11.91-19.99,11.02.07-5.61-.12-12.45-4.12-16.88-1.15-1.28-17.56-10.14-19.38-10.63-20.17-5.48-10.79,17.4-10.43,28.44.46,14.23.57,27.86-12.06,37.08,6.15-15.17,2.08-28.61,1.9-42.92-.15-11.99,1.72-28.88-.03-39.97-1.26-7.98-9.95-11.91-9.95-16.11,0-7.05,14.17-11.99,20.12-10.21,6.72,2.01,8.49,19.2,20.1,26.05,12.78,7.55,38.94,5.14,43.86,8.13,12.01,7.31-6.06,15.2-7.47,17.56Z" fill="#435660"/><path d="M1904,726c-.99,4.57,2.23,4.35,5.22,5.68,8.06,3.6,16.62,5.3,24.78,8.32v8c-4.36-1.53-30.28-9.37-31.93-7.93-3.64,13.66-3.78,29.01-12.05,40.96l-88.03,64.97-6-4c.64-.29,1.24-1.57,2-2,3.86-2.19,8.58-7.4,9.18-7.56,4.1-1.09,13.55,4.03,12.82-8.44,7.42-4.8,9.89-7.28,0-8l-16-2.02c2.84-7.08,9.54-6.3,16-5.98,5.98.3,8.98,3.97,17.92.91,4.93-1.69,43.5-31.44,46.13-35.85,1.72-2.88,9.06-29.88,7.96-31.04-.53-.56-14.11-4.07-14.86-3.89-3.84.92-2.54,5.77-3.16,7.88-6.66-7.18.57-15.18,8-16,5.97-.66,9.45,4.16,12.91,4.14,1.91-.01.83-3.95,1.09-4.14,1.44-1.07,5.82-1.44,8-4Z" fill="#171d1d"/><path d="M1886,368c-83.38-.56-167.4,30.15-194.95,116.05-4.19,13.07-.58,24.88-7.05,35.95-3.92-17.18,4.3-49.08,11.66-65.34,31.93-70.57,117.85-98.48,190.34-86.66Z" fill="#eeedde"/><path d="M1905.92,506.12c1.43,1.98-6.33,23.8-8.92,23.85-15.55-14.83-31.46-13.01-44,4l-16.99-27.94c24.97-15.11,44.33-9.8,69.92.09Z" fill="#6b5c47"/><path d="M1877.99,645.99c1.23-15.08,13.92-60.58,28.06-67.04,4.46-2.04,17.68.31,15.13,7.11-6.6,11.95-11.94,24.65-16.7,37.42-1.71,4.6-6.12,25.94-9.43,26.28-1.86.19-12.28-6.16-17.06-3.77Z" fill="#f2d4bd"/><path d="M1874,746c.62-2.1-.68-6.96,3.16-7.88.75-.18,14.33,3.33,14.86,3.89,1.1,1.16-6.24,28.16-7.96,31.04-2.63,4.41-41.2,34.16-46.13,35.85-8.94,3.07-11.95-.61-17.92-.91-.15-4.47,2.7-5.36,5.36-7.64,10.93-9.4,33.02-20.67,40.65-31.35,5.18-7.24,5.62-14.93,7.99-23.01Z" fill="#efdec9"/><path d="M1871.45,528.4c30.38-6.71,27.58,40.94,3.53,49.56-7.46-11.19-26.54-44.48-3.53-49.56Z" fill="#f1d7b5"/><path d="M1896,730c-.25.19.82,4.12-1.09,4.14-3.47.02-6.95-4.79-12.91-4.14-2.43-2.92-3.24-3.47-2.66-7.43,2.92-19.85,14.05-41.73,15.68-62.59,4.02,1.89,12.47,6.97,13.09,11.06,1.99,13.14-13.11,43.67-12.11,58.96Z" fill="#967c68"/><path d="M1870,872c3.56.62,8.36,3,13.29,3.72,56.74,8.23,114.14,12.88,170.72,22.29-.09,1.3.15,2.7-.01,3.99-29.81-2.74-59.32-8.33-89.02-11.98-26.44-3.25-55.9-3.97-81.73-8.27-4.19-.7-11.21-1.62-14.72-3.28-2.31-1.09-7.52-4.38-2.53-6.47,1.25.23,2.75-.22,4,0Z" fill="#bdd1d5"/><path d="M1906.01,451.99c-.9-3.47,1.44-4,2.98-6,7.69-10.02,20.24-17.96,25.05-29.97,3.01-2.13,14.46,13.2,15.22,15.94,2.13,7.66-22.49,22.05-30.23,22.07-4.15,0-8.57-2.63-13.01-2.02Z" fill="#465859"/><path d="M1935.99,508.01c2.75,13.74,3.55,51.22-8.83,60.14-3.84,2.77-15.53,3.67-14.89-2.8.35-3.52,12.26-28.64,14.66-35.42,2.09-5.93,3-13.39,5.05-18.97.93-2.52-1.41-3.69,4.02-2.95Z" fill="#5a574b"/><path d="M1829.89,510.09l38.11,69.89-9.68-.31-34.76-58.23c-3.43-6.41-1.77-12.8,6.33-11.36Z" fill="#475d63"/><path d="M1912,507.99c16.86-2.69,10.86,9.37,7.43,20.45-2.73,8.82-23.87,59.3-32.4,57.56-2.16-.44-3.49-3.31-2.07-6.02,3.09-5.91,10.38-10.7,14-20.01,4-10.29,9.06-28.63,12.16-39.83,1.11-4,.98-8.07.87-12.15Z" fill="#485d60"/><path d="M1796,842c-11.81,5.32-21.89,4.74-33.45-1.52-2.35-1.27-3.37.04-2.54-4.47,9.39.78,17.45-2.48,26.95-2.01,2.89.14,12.67.67,11.04,6-.76.43-1.36,1.71-2,2Z" fill="#79b381"/><path d="M1820,816c9.89.72,7.42,3.2,0,8-5.41,3.5-21.97,9.19-22.19-.96-.22-10.16,15.18-7.55,22.19-7.04Z" fill="#4b5d69"/><path d="M1958,750c3.08,3.59.51,5.31,0,8-8.17-2.53-16.02-7.2-24-10v-8c5.2,1.92,21.25,6.8,24,10Z" fill="#1f3a3b"/><path d="M1830,884c4.85.07,6.96-1.88,5.61,4.58-1.09,5.2-3.92,13.39-7.61,17.42-.47-1.12-6.55-4.11-4-10,2.24-2.76,3.84-9.74,6-12Z" fill="#b9d1d9"/><path d="M1737.99,897.99c-5.2,1.81-9.61-10.21-7.98-11.98,6.58-.12,8.81,6.28,7.98,11.98Z" fill="#bec9cc"/><path d="M1536,142c93.45-7.26,185.6-48.64,280.07-29.07,5.53,1.15,24.42,5.5,27.92,8.1,2.16,1.61,2.52,2.62,1.19,5.04l-41.37,84.93c1.49,13.77,42.92,100.05,38.18,104.99-16.67-1.58-34.6-8.54-51.02-9.96-104.34-9.02-205.38,43.22-309.95,35.95-9.35-.65-62.54-8.71-64.75-15.25l-.27-196.73c.44-.15.96-1.65,2.59-1.48,7.63.78,21.56,7.02,31.03,8.85,32.62,6.3,53.35,7.19,86.37,4.63Z" fill="#9663a5"/><path d="M1410.01,119.99c-1.44,268.32,1.84,536.77.08,805.11-.07,10.08-2.12,20.88-2.19,32-.11,18.29,3.38,41.76,2.25,59.94-.86,13.79-11.95,10.24-12.06,4.16l-.13-900.04,12.05-1.16Z" fill="#aacad2"/><path d="M1392.01,1013.99c.76.76-.92,11.28.26,14.74,2.16,6.36,20,5.43,22.85,1.39,2.68-3.81-1.66-16.63,3.79-17.6,3.93-.7,31.8,6.49,36.5,9.07,18.01,9.9,2.94,17.06-9.45,21.36-20.12,6.97-55.4,7.21-75.97,2.06-65.81-16.47,16.37-36.66,22.02-31.02Z" fill="#afc2c9"/><path d="M1413.53,88.48c8.67,8.64.44,31.98-16.66,21.64-6.09-3.68-6.78-17.26-2.4-21.64,3.37-3.36,15.65-3.39,19.05,0Z" fill="#89bbcb"/><path d="M825.99,461.99c-4.8-.14-25.36-6.56-23.98-12.96,2.08-9.66,26.21,2.95,23.98,12.96Z" fill="#a1d9e8"/><path d="M808,503.98c-7.68.26-16.29,9.63-23.15,4.19-13.79-10.94,18.5-14.63,23.15-4.19Z" fill="#a8e0ed"/><path d="M2022,475.98c3.35-7.1,18.72-26.79,25.12-13.95,4.74,9.49-18.08,16.1-25.12,13.95Z" fill="#9edbeb"/><path d="M2063.54,508.36c15.65-1.71,18.08,14.12-4,11.1-3.79-.52-8.87-1.4-11.5-4.46,0-1.75,13.16-6.38,15.5-6.64Z" fill="#95d7e8"/><path d="M2111.99,790.01c-3.36-3.18-9.98,4.98-11.65,7.33-11.57,16.26-17.53,42.27-28.38,59.62-2.32,2.01-37.67,11.06-41.13,10.96-2.37-.07-3.63-1.06-4.6-3.15l-30.23-66.74,79.39-35.57c22.27,14.43,44.43,2.33,65.97-8.1,30.68-14.86,59.59-36.51,83.92-60.21,7.52-1.34,20.66,38.19,22.18,45.41,11.56,55.1-14.5,71.66-43.08,109.82-21.39,28.56-38.18,60.89-61.34,88.26l-76.77-38.84,45.74-108.78Z" fill="#425c65"/><path d="M1828,1284c6.96,6.45,17.12,1.46,20,14-138.64,109.76-331.83-23.44-286-194-.79,6.21,1.84,4.35,3.74.74,5.28-10.04,6.89-24.6,13.82-34.18,13.28-18.37,31.66-37.15,47.42-54.58,6.22-6.88,15.82-11.83,19.02-19.98,27.97-16.35,65.71-26.65,98.67-25.85,6.11.15,35.01,4.25,39.9,6.27,6.61,2.73-2.71,22.49-5.88,23.36-2.95.81-33.59-6.01-41.69-5.95-76.5.53-146.93,61.56-156.77,137.41-17.72,136.66,134.29,231.85,247.76,152.76Z" fill="#4f6169"/><path d="M2157.57,1111.6c-1.77,3.08-32.47,13.07-37.54,13.63-2.65.29-4.78,1.51-7.14-1.03-18.96-40.77-45.59-82.21-62.6-123.48-2.25-5.45-5.31-11.77-6.58-17.41-5.77-25.62,11.49-48.75,16.38-73.23,5.22-4.54,67.89,27.36,75.88,35.08-3.05,9.78-23.07,27.72-21.62,37.38,1.07,7.14,19.21,32.89,23.71,44.43,7.45,19.08,16.44,52.4,19.43,72.55.48,3.26,1.61,9.46.09,12.09Z" fill="#fad4af"/><path d="M1791.72,964.28c.66,1.09.53,7.43.27,7.71-1.15,1.22-27.78-5.53-33.02-5.96-220.19-18.18-290.72,271.2-100.34,360.34,188.67,88.34,357.73-155.61,215.36-303.36-8.32-8.64-33.05-24.7-38.03-31.98-4.57-6.68,3.82-4.68,8.32-2.31,40.17,21.19,75.41,77.49,84.82,121.17,39.41,182.94-169.7,316.28-316.94,196.94-153.46-124.38-45.6-374.8,152.61-348.61,3.75.5,26.23,4.87,26.95,6.05Z" fill="#4c6067"/><path d="M1878.18,908.19c1.86-2.74,51.86-3.17,58.94-2.31,2.21.27,4.35.07,5.86,2.14l88.11,123.82c-.55,5.92-13.53,34.14-18.1,34.12l-131-144.96c-3.11-3.44-4.86-8.17-3.82-12.81Z" fill="#8ec972"/><path d="M2177.91,1248.07c1,.68,8.71,16.53,12.13,20.89,102.52,130.52,309.75,80.06,335.37-84.54,23.41-150.37-130.22-269.32-268.18-200.18-5.62,2.82-28.73,19.37-30.53,19.53-3.7.32-5.52-3.21-4.49-6.54,1.23-3.97,35.05-22.32,41.07-24.94,104.77-45.54,227.82,10.85,262.78,118.65,51.83,159.83-102.89,309.7-260.03,246.03-31.29-12.68-79.92-50.72-94.5-81.51-3.05-6.44,2.97-9.69,6.38-7.38Z" fill="#4c6067"/><path d="M2446,1302c-45.51,34.12-98.55,43.01-153.56,28.56-47.07-12.36-87.62-46.1-112.07-87.59.13-1.66,19.61-16.31,21.59-14.96,43.68,82.47,150.4,110.55,228.04,55.99-1.52,10,7.88,15.58,16,18Z" fill="#4c6067"/><path d="M2190,920c-.69,13.45-14.07,41.52-10.54,53.37,1.11,3.74,8.58,13.42,11.56,16.61,14.14,15.16,35.37,34.72,50.96,49.05,2.47,2.27,4.11,5.01,8.03,4.96,2.63,2.77,5.46,5.32,8,8,1.71,6.85,9.08,12.07,14,17,.92.92,5.15,6.99,6,3,18.51,19.56,51.67,48.57,66.02,68.98,6.14,8.73,10.3,19.7-4.02,21,3.17-5.84,3.45-12.64-4.98-11.96-8.4,5.43,4.84,10.43-2.37,13.63l-120.04,23.97c-3.68-.92-18.19-13.17-12.61-15.62,3.86,3.43,12.12,2.35,16.98,1.97,21.81-1.71,44.64-10.02,67.02-9.97l-6-3.99c8.57-1.54,43.37-6.75,47.98-9.01s4.52-6.76,3.19-11.07c-.83-2.69-20.3-23.79-24.14-27.95-26.32-28.49-56.73-60.7-85-87-3.76-3.5-24.48-23.25-26.08-24-15.63-7.25-33.01,32.47-41.92,41.02-1.36-8.47-7.38-18.11-7.32-26.66.14-17.85,17.88-54.86,14.93-67.89-.87-3.82-5.89-7.53-5.42-10.15.22-1.28,13.84-20.73,15.09-21.08,2.27-.64,16.82,2.89,20.7,3.79Z" fill="#5c6b71"/><path d="M1906,1222c.45-12.76-4.84-19.63-18-18,20.64-65.64-.93-127.61-49.97-173.03-2.75-2.54-17.69-12.78-18-14.11-.27-1.14,9.3-19.01,12.95-18.98,8.19.08,41.73,34.2,47.86,42.28,40.2,52.98,49.86,119.98,25.16,181.84Z" fill="#4c6067"/><path d="M2086.26,1275.75c-5.96-9.59,12.87-19.38,17.83-24.66,14.85-15.81,22.86-38.84,30-59.04,20.44,3.88,46.56,6.33,49.92-20.05,3.98-3.67,28.18,26.63,23.02,37.94-2.68,5.87-31.61,24.92-39.08,31.02-12.42,10.14-16.83,19.56-34.21,27.79-7.56,3.58-42.68,14.73-47.48,7.01Z" fill="#4f6369"/><path d="M2516,1196c-7.84-7.01-10.66-12.32-22-8,12.67-61.63-13.56-130.53-66-166,8.14-3.78,7.25-16.11,8-24,66.69,40.02,97.79,123.31,80,198Z" fill="#4e6068"/><path d="M2017.81,871.83c-1.41,1.66-15.95.19-9.8,10.16-22-2.64-46.97-4.14-68.52-8.48-12.43-2.5-10.95-10.77-9.01-22.03,3.61-20.94,39.26-39.48,56.55-49.27,2.5.18,20.98,38.96,23.32,44.44,2,4.69,10.32,21.82,7.45,25.18Z" fill="#f4c8a6"/><path d="M1794.01,1099.99l56.99-43.96c1.74-.03,18.53,25.14,19.04,29.08.46,3.61-.71,2.39-2.53,3.44-21.11,12.12-51.92,17.47-73.48,30.6-5.7,5.24-15.62-14.57-15.1-17.3l38.03-75.62c12.86,5.55,20.9,17.56,31,26.77.02,3.06-41.66,31.86-47.99,37.97-2.56,2.48-6.48,4.94-5.96,9.02Z" fill="#8bc772"/><path d="M1954,908.02c19.37,2.6,39.46,3.11,58.74,6.24,16.41,2.66,24.61,1.98,29.06,20.7-5.41,8.06-6.53,33.82-10.87,38.97-2.46,2.93-20.24,12.61-24.04,8.23l-52.89-74.14Z" fill="#f7c9a8"/><path d="M1816,952c25.37,2.93,24.55,4.54,14.34,27.34-15.15,33.84-35.52,68.5-51.76,102.24-2.64,5.48-33.14,77.16-36.53,74.42,1.13-6.1-7.96-5.5-8.16-7.08-1.05-7.99,10.58-22.43,12.12-30.92l70-166Z" fill="#53636a"/><path d="M2356,1004l-2,95c-1.76,9.22-20.15,3.48-28.01,5.01-1.1-27.02-3.03-53.93-4.01-80.99-.11-3.06-4.98-19.02,1.02-19.02h33Z" fill="#89c770"/><path d="M2516,1196c-10.88,45.67-32.72,78.05-70,106-8.12-2.42-17.52-8-16-18,29.87-20.99,56.6-60.01,64-96,11.34-4.32,14.16.99,22,8Z" fill="#7d8689"/><path d="M1687.83,1135.89l-85.83-45.92c-1.96-2.63,15.31-29.04,20-31.07l77.14,55.13c2.32,4.64-10.77,15.74-11.31,21.86Z" fill="#8ac772"/><path d="M1750,1206c2.54,10.26,1.26,20.7,1.93,31.07.17,2.59,2.07,5.23,2.07,5.93v32l4,27c-12.41,1.33-25.13,3.17-38.01,2.01l2.02-98c10.71,3.2,18.14.86,27.99-.01Z" fill="#8cc871"/><path d="M1789,1170.04l82.07,49.92c1.57,3.59-14.66,25.97-18.12,30.05l-76.06-54c-2.45-4.5,8.99-20.78,12.12-25.97Z" fill="#88c56f"/><path d="M1687.84,1172.14c-.24,6.92,13.58,19.6,11.32,23.88l-77.14,53.1c-5.01-4.41-20.15-23.61-17.14-29.12l82.96-47.86Z" fill="#8bc770"/><path d="M2455.78,1249.83c-3.81,2.74-67.11-49.91-76.94-53.83-1.88-3.61,11.78-19.12,11.19-26l83.09,49.93c.94,1.93-15.62,28.66-17.34,29.89Z" fill="#8ac46e"/><path d="M1796,1154c-2.61-.27-5.37.21-7.99-.01-.57-6.33,6.96-4.86,8.07-11.02,1.34-7.43-6.07-15.09-3.24-19.06,10.5-2.36,77.46-34.31,81-31.77,6.87,12.55,8.09,22.44,10.15,35.87l-88,26Z" fill="#87c770"/><path d="M1753,1004c1.1.31,3.25,2.88,2.62,4.51l-3.74,66.36c-2.62,3.87-8.93,27.86-10.1,28.89-1.64,1.44-15.91-.52-19.78.25-.12-27.76-1.03-55.25-2-82.99-.1-2.85-4.77-17.02,1.01-17.02,7.39,0,26.64-1.49,32,0Z" fill="#8eca74"/><path d="M2453.28,1058.16c4.72-.85,21.24,27.57,19.86,29.88-10.31,4.78-79.11,49.64-83.16,47.1-1.16-.73-14.17-18.56-11.1-21.16l74.4-55.82Z" fill="#8bc771"/><path d="M2228,1204c23.64-6.2,41.47-24.19,66.77-26.15,2.96,5.75,5.93,11.08,11.19,15.15l-78.96,56.96c-2.3,0-18.31-22.54-18.74-25.34-.64-4.1,12.74-15.23,15.74-18.62,1.18-.39,2.83-1.36,4-2Z" fill="#8cc971"/><path d="M2436,998c-.75,7.89.14,20.22-8,24-25.03-16.93-61.58-30.02-92-28-11.97,2.73-6.6-6.68-12.12-12.89-3.62-4.07-9.79-3.99-13.88-7.11,44.31-7.38,87.28.76,126,24Z" fill="#6f7c82"/><path d="M2183.98,1157.99l-15.08-47.88c-3.53-19.63,12.56-46.37,23.48-62.72,2.18-3.27,13.79-19.92,16.48-19.32l16.78,16.91c-27.54,31.39-42.65,70.84-41.66,113.01Z" fill="#4f6168"/><path d="M2161.98,1120c.28,14.87,16.61,40.67,12.72,53.64-4.7,15.68-25.06,16.39-36.87,9.03l-19.84-48.65c15.36-2.41,29.64-8.39,43.98-14.03Z" fill="#fafcf6"/><path d="M1906,1222c-12.98,32.51-30.99,54.62-58,76-2.88-12.54-13.04-7.55-20-14,24.97-17.4,50.83-50.83,60-80,13.16-1.63,18.45,5.24,18,18Z" fill="#778284"/><path d="M1684.01,1157.99l-.34,9.69-84.61,46.28c-2.47-6.42-13.04-32.91-7.13-37.04l92.08-18.92Z" fill="#89c572"/><path d="M2485.97,1129.96c-26.74,1.92-59.83,20.12-85.24,21.93-9.39.67-11.86-4.76-5.82-11.99,23.75-14.37,47.8-28.21,71.74-42.25,5.7-3.34,6.86-10.36,11.49-.79,2.06,4.27,9.92,30.95,7.83,33.1Z" fill="#87c571"/><path d="M1683.73,1151.74c-4.76,3.09-81.41-21.29-93.58-21.88-2.96-3.45,7.12-30.15,8.85-35.87l85.01,47.05c3.31,1.36,1.12,9.79-.28,10.7Z" fill="#8bc873"/><path d="M1802,1158c24.44,9.21,53.73,10.88,78.07,19,4.86,1.62,4.42,1.94,3.93,7-1.88,10.82-5.3,19.61-8.02,30l-4.58-.39-82.45-47.56c-4.29-4.96,9.41-7.99,13.06-8.06Z" fill="#8dc876"/><path d="M2395.33,1158.28c13.04-4.16,71.32,18.38,88.75,18.63,5.24,3.69-3.43,31.02-7.07,35.13-1.67,1.89-2.73,2.48-5.09,1.18l-77.91-46.23c-3.34-2.54-2.86-7.38,1.32-8.71Z" fill="#8bc672"/><path d="M2310,974c4.1,3.12,10.27,3.04,13.88,7.11,5.52,6.21.15,15.62,12.12,12.89-.18.01.34,1.6-2.97,1.94-31.43,3.21-58.55,10.58-84.49,29.77-5.81,1.46-11.25-11.43-16.39-14.98-1.26-7.21,40.3-27,47.88-29.69,10.98-3.9,18.67-5.15,29.97-7.03Z" fill="#506369"/><path d="M1737.99,1110.01c.44,14.5-12,5.97-19.98,12.02-1.34,3.92,19.81,4.8,12.03,9.01-6.68,3.61-25.5.13-29.63,12.37-5.04,14.96,11.72-1.3,13.58.6-1.41,8.39-10.26,18.37-9.79,27.09.17,3.22,11.07,19.96,11.81,13.89,1.11-3.63-2.53-13.62,1.97-14.98,2.69,18.59,33.32,33.38,42.01,11.99-5.52,2.03-15.66,1.99-15.98-6,10.78,2.14,21.94-2.18,26.47-12.52,5.24-11.94-2.74-14.49-10.46-5.49l2-14c6.22-.81,9.62,5.24,12.49,7.25,2.01,1.41,5.34-3.73,5.66,7.75,1.11,38.79-52.66,54.98-77.21,25.05-25.59-31.2-3.64-72.7,35.03-74.04Z" fill="#b8cad0"/><path d="M2297.99,1119.99c-4.58,5.6-24.64-7.84-30.64-10.33-19.76-8.22-40.1-15.24-59.33-24.63,2.66-5.31,19.94-33.75,24.72-32.89,5.04,6.2,68.23,64.2,65.25,67.85Z" fill="#8cc874"/><path d="M2360,1304h-38c.41-7.51-.36-39.43,2.87-44.13,2.39-3.49,23.56.95,26.83-11.31s-14.5-23.13-15.78-31.66c-.72-4.77,19.47-15.27,20.08-3.89l4,91Z" fill="#8dc770"/><path d="M2395.92,1014.12c-10.5,29.76-14.05,65.41-35.35,89.32l-4.56,2.55,5.99-100c11.87-.42,22.75,5.15,33.92,8.12Z" fill="#8cc875"/><path d="M2039.27,1040.27c3.86-1.32,18.46-.91,21.89,1.58,2,1.45,16.92,30.99,16.86,33.25-.11,4.73-29.05,21.19-35.06,24.42-4-5.93-20.71-20.4-20.89-26.51,3.13-4.52,14.9-31.96,17.19-32.74Z" fill="#4a5e65"/><path d="M1714,1005.99l3.99,100c-3.09,3.53-11.44-12.61-12.37-14.61-10.81-23.05-15.01-51.86-27.43-74.42.26-3.93,33.57-13.23,35.81-10.97Z" fill="#8cc776"/><path d="M2315.99,1006l5.99,98c-25.92-20.02-26.05-59.57-41.92-87.02.18-2.84,34.14-12.78,35.93-10.99Z" fill="#88c76f"/><path d="M1716,1302.01c-2.21,2.18-33.67-6.92-34.16-9.25,3.63-11.32,26.72-88.75,33.18-88.78,2.98-.01,4.08,1.07,4.09,4.09.09,31.27-4.61,62.6-3.11,93.94Z" fill="#8ec876"/><path d="M1758,1206c1.99.98,11.87,14.43,13.47,17.53,10.18,19.73,12.86,47.11,24.53,66.47-10.64,4.65-15.15,9.09-29.33,11.92-2.52.5-4.42-1.96-4.67-1.92,2.06-4.79-2-12.3-2-15v-32c0-.68-1.89-3.35-2.08-5.92-1.01-13.56-.38-27.72-3.92-41.08,1.25.11,3.34-.32,4,0Z" fill="#89c471"/><path d="M2366,1212c4.81,4.41,9,13.38,11.53,19.47,7.79,18.8,13.18,42.66,18.47,62.53-4.26,1.69-30.38,9.66-31.99,8l-6.08-90.98c-.67-6.42,5.78-1.12,8.07.97Z" fill="#8bc672"/><path d="M2449.99,1055.96l-77.97,56.04c4.15-33.61,35.27-53.39,54-79.12,2.33-1.86,3.27-.22,5.04.99,2.91,2,20.49,19.82,18.93,22.08Z" fill="#88c471"/><path d="M1824,1276c-17.64-25.41-42.72-46.04-56-74,.51-4.58-.52-5.52,5.99-2.99l73.12,52.97c4.02,7.43-17.21,19.9-23.11,24.01Z" fill="#91ca77"/><path d="M1707.99,1111.99c-7.59.91-10.76-6.88-16.16-10.82-10.04-7.33-62.15-39.68-64.95-45.19-.97-1.92-1-2.03,0-3.96,1.34-2.6,21.78-20.96,23.08-20.02,3.37,10.43,66.23,71.98,58.03,79.99Z" fill="#8bc674"/><path d="M1707.99,1198.01c6.36,6.94-50.52,67.23-55.94,77.13-2.36,1.98-3.34.16-5.09-1.05-3.26-2.24-19.98-16.73-20.91-19.15l81.94-56.93Z" fill="#8ac771"/><path d="M2426,1276c-10.75-17.25-27.97-31.09-39.94-47.06-5.97-7.96-8.92-15.74-14.06-22.94l2.97-7.99,75.03,55.06c.8,3.21-19.94,22-24,22.93Z" fill="#8fc874"/><path d="M2286,1126h-92c1.41-5.8,7.58-34.72,12.92-35.54,3.55-.54,58.91,23.54,66.43,27.19,4.24,2.06,10.45,3.9,12.65,8.35Z" fill="#8dc879"/><polygon points="2283.99 1134.01 2279.82 1149.81 2192 1162.01 2191.99 1135.99 2283.99 1134.01" fill="#8bc774"/><path d="M2358,1136c-2.37-13.23-4.19-18.68-20-17.98l1.01,5.97c-3.25-4.62-15.87-11.05-4.05-11.98,32.72-2.58,55.2,21.92,48.59,54.54-7.43,36.68-65.36,44.99-79.55,9.47,6.87.55,13.93-3.37,12.02,5.97,2.7,1.12,1.96-8.24,5.96-3.99.53.56,3.18,17.43,8.01,11.99,2.02-2.27-3.96-13.3-5.99-15.97,13.02-2.28,8.1,2.5,11.92,6.99,10.41,12.24,25.97,13.37,32.06-3-5.56,4.12-18.87,1.55-17.98-6,13.14,1.36,28.93.61,27.01-15.99l-11.01,3.97c1.1-4.9,7.26-8.45,8.03-13.08.97-5.85-4.27-22.18-11-20.89s3.9,16.31-5.03,9.99Z" fill="#abbdbe"/><path d="M2099.93,1236.1c-4.69,31.66-47.84,3.08-58.98-12.05-11.71-15.9-10.27-37.52-6.93-56.05,23.49,9.98,7.07,29.74,22.94,50.04,12.59,16.11,25.6,12.07,42.97,18.06Z" fill="#4e6169"/><path d="M1667.99,1154.03l-79.98,17.98c-1.37-13.21-1.36-24.79,0-38l79.97,20.02Z" fill="#88c472"/><path d="M2487.99,1133.99c1.74,13.17,3.1,24.79-.04,37.97l-77.94-15.98,77.98-21.99Z" fill="#8ac571"/><path d="M1886,1134c1.05,11.2.93,26.76,0,38l-78.02-17,78.02-21Z" fill="#8cc776"/><path d="M2284,1240c-1.61,3.23-3.62,6.27-4,10-15.2.54-30.86.42-45.99-.99l72.99-52.97c3.6,2.71,3.56,3.86,1.96,7.9-4.36,11-18.78,23.64-24.96,36.06Z" fill="#8ec779"/><path d="M2286,1286c.59-3.28,9.07-26.89,10.33-27.66,2.17-1.34,21.06-.94,22.8,1.53,2.72,3.87-3.73,34.36-1.13,42.14-1.87,1.84-29.2-5.42-32-8.01.29-2.54-.43-5.62,0-8Z" fill="#8cc76f"/><path d="M2286,1294c-1.81-1.67-2.07-3.68-2.02-5.99h-1.96c-.11,1.07.32,3.36-.17,3.77-3.68,3.08-42.61-24.06-45.85-31.76l55.99-2.01c1.87,1.69-12.47,22.98-5.99,27.99-.43,2.38.29,5.46,0,8Z" fill="#88c26f"/><path d="M1816,952l-70,166,62.02-168c3.01-1.05,6.12,1.79,7.98,2Z" fill="#becdd2"/><path d="M2104.03,1231.99c-1.8-12.64-24.49-34.19-19.01-45.95.61-1.32,6.93-7.47,7.96-7.56,6.45-.53,24.15,27.74,24.57,32.84.27,3.27-9.54,23.55-13.52,20.66Z" fill="#4f6269"/><polygon points="2277.99 1018 2299.98 1082 2254.03 1033 2277.99 1018" fill="#8bc678"/><path d="M1646,996c-3.21,8.15-12.8,13.09-19.02,19.98-15.76,17.43-34.14,36.21-47.42,54.58-6.93,9.59-8.53,24.14-13.82,34.18-1.9,3.61-4.52,5.47-3.74-.74,12.89-47.98,41.4-83.09,84-108Z" fill="#9aa6ab"/><path d="M1677.98,1291.99c-4.3-2.99-22.63-8.74-21.71-14.62.9-5.8,35.77-41.75,41.72-49.37l-20,63.99Z" fill="#8ac677"/><path d="M1758,1206c4.19-14.46,8.53,2.24,9.98-.01.14-1.3-.13-2.68.02-3.99,13.28,27.96,38.36,48.59,56,74-1.5,1.05-3.03,1.37-4,2l-39.98-46,19.98,58c-.89.42-3.05-.41-4,0-11.67-19.36-14.35-46.74-24.53-66.47-1.6-3.1-11.48-16.55-13.47-17.53Z" fill="#3c6d38"/><path d="M1886,1134l-78.02,21,78.02,17c-.44,5.36-1.23,7.6-2,12,.49-5.06.93-5.37-3.93-7-24.35-8.12-53.64-9.79-78.07-19,.95-5.95-1.55-3.54-6-4l88-26c.35,2.25,1.89,4.78,2,6Z" fill="#326033"/><path d="M1675.98,1018l18,58c-6.23-5.98-39.05-40.37-39.79-45.33-.65-4.34,19.46-14.76,21.79-12.67Z" fill="#8bc578"/><path d="M2372,1206c5.14,7.2,8.09,14.99,14.06,22.94,11.98,15.97,29.2,29.81,39.94,47.06-1.15.26-2.72-.18-4,0l-37.98-42,17.98,56c-3.1,1.51-5.64,3.86-6,4-5.29-19.87-10.68-43.72-18.47-62.53-2.53-6.1-6.72-15.06-11.53-19.47l2.02-1.04c-6.16-9.05-3.51-15.47,3.98-4.96Z" fill="#3d703a"/><path d="M1820,1278c-7.7,5.02-10.83,7.7-20,12l-19.98-58,39.98,46Z" fill="#94cb80"/><path d="M2385.96,1073.98c-.23.2-4.21.73-3.94-.96l18.96-57c3.54,3.65,21.96,8.63,20.88,14.71-11.93,12.23-22.41,25.7-33.91,38.31-1.45,1.59-1.74,4.73-1.98,4.94Z" fill="#8bc677"/><path d="M2422,1276c-2.02,8.19-13.25,10.71-20,14l-17.98-56,37.98,42Z" fill="#92ca7d"/><path d="M2033.99,982.01c2.31,18.8,14.76,33.31,22,49.98-22.08,4.67-26.97-26.11-39.94-39.01l17.94-10.98Z" fill="#edf4ee"/><path d="M2190,920c1.68.39,4.11-.31,6,0,3.75,4.37-15.06,42.05-10.57,53.4.81,2.03,12.83,15.59,15.54,18.63,15.56,17.49,32.92,34.99,49.03,51.97-3.92.04-5.56-2.69-8.03-4.96-15.59-14.33-36.81-33.9-50.96-49.05-2.98-3.19-10.44-12.87-11.56-16.61-3.52-11.86,9.85-39.92,10.54-53.37Z" fill="#b6c6cc"/><path d="M2197.87,911.86c-2.37,2.03-15.6-3.19-19.87-1.87l.42-4.57,37.56-55.42-18.11,61.86Z" fill="#485c63"/><path d="M2137.98,1004c-4.22-3.86-14.41-19.98-13.67-24.55.56-3.46,22.62-33.38,24.69-33.41,2.24-.03,2.97,4.37,2.87,6.73-.63,14.59-13.02,35.52-13.9,51.23Z" fill="#8ac67e"/><path d="M2232.01,831.99l20-30.98c4.98-1.36,28.95-2.9,29.98,2.02,1.22,5.84-9.02,6.48-11.78,8.18-12.09,7.43-21.9,22.45-38.2,20.78Z" fill="#445864"/><path d="M2358,1136c8.94,6.32-1.59-8.73,5.03-9.99s11.97,15.04,11,20.89c-.77,4.63-6.94,8.18-8.03,13.08l11.01-3.97c1.92,16.6-13.87,17.35-27.01,15.99.19-1.58,4.06-5.24,5.02-7.97,4.25-12.07,5.24-15.41,2.98-28.03Z" fill="#435a5b"/><path d="M2083.97,1084c.33,9.23,19.44,29.95,10.86,35.82-16.81,11.48-20.64-16.59-26.95-26.69l16.09-9.13Z" fill="#8ec679"/><path d="M2165.98,1086c-8.95-5.06-.54-19.09,2.99-26.03,3.18-6.25,26.22-41.14,32.01-39.95,1.41.29,4.58,4.19,2.05,6-15.48,17.79-29.04,37.66-37.05,59.98Z" fill="#4f636a"/><path d="M2065.99,870.01l-7.21,20.12c-4.81-1.07-35.48-2.84-36.79-4.14-.28-.28-.24-7.64.04-7.93,1.55-1.61,38.24-5.62,43.96-8.05Z" fill="#81c378"/><polygon points="1776 1008.02 1766.03 1039.03 1756.02 1061.99 1760 1005.99 1776 1008.02" fill="#8cc87c"/><path d="M1754,1206c3.54,13.37,2.9,27.52,3.92,41.08.19,2.57,2.08,5.24,2.08,5.92v32c0,2.7,4.06,10.21,2,15-1.26.19-2.96,1.89-4,2l-4-27v-32c0-.7-1.91-3.34-2.07-5.93-.67-10.37.61-20.81-1.93-31.07,1.25-.11,2.75-.11,4,0Z" fill="#3c6d38"/><path d="M2311.97,1216.01c.51.51,5.92,12.43,6.04,13.15.25,1.57-1.28,20.1-2,20.86-.67.71-14.88-.52-18-.02,3.52-10.33,6.8-20.57,9.95-31.05.66-2.18.63-6.25,4.01-2.93Z" fill="#86c077"/><path d="M2092,1225.98c-20.02,1.65-36.32-17-35.98-35.98,9.65,15.15,27.5,21.46,35.98,35.98Z" fill="#93c985"/><path d="M2191.99,1010.01l-32.98,51.98c-4.16-3.07-2.71-3.61-1.45-7.37,2.15-6.43,8.95-19.52,12.76-25.3,2.39-3.63,17.58-23.04,21.67-19.31Z" fill="#87b985"/><path d="M2278,1160l6,3.99c-22.38-.05-45.2,8.27-67.02,9.97-4.86.38-13.12,1.46-16.98-1.97,25.79-4.78,52.21-7.36,78-12Z" fill="#869ea3"/><path d="M2224,1206c-1.56.51-7.33,2.71-7.99,1.99.26-3.93-1.42-10.49,1.94-13.04,4.87-3.69,34.15-6.13,42.03-8.94l-28.77,14.3c-2.04,1.03-2.85,3.48-3.22,3.68-1.17.64-2.82,1.61-4,2Z" fill="#93c684"/><path d="M2280,1250c.38-3.73,2.39-6.77,4-10l17.98-20c-1.23,5.83-4.51,28.14-9.26,29.73-3.32,1.11-8.86.14-12.72.27Z" fill="#91c584"/><path d="M2278,1072c-.85,3.99-5.08-2.08-6-3-4.92-4.92-12.29-10.14-14-17,6.42,6.77,13.49,13.12,20,20Z" fill="#b6c6cc"/><path d="M1820,930v12c-3.72-1.08-6.13,2.5-6.04-3,.16-9.82,3.36-7.02,6.04-9Z" fill="#c0ced3"/><path d="M1016,988c.16.7,6.9,10.53,8,12-1.38,9.96-16.53,16.17-24.03,22.97-84.65,76.76-78.29,212.24,18.19,275.87,137.1,90.42,311.33-39.16,263.91-195.91-27.39-90.52-127.14-148.78-218.07-114.93-.76-3.53-2.56-8.68-4-12-.51-5.39.21-6.09,4.99-8.01,24.5-9.85,79-7.49,104.56-.55,99.42,27,159.76,138.89,132.47,237.59-42.9,155.19-243.35,192.81-340.86,64.79-69.46-91.18-41.09-222.9,54.83-281.83Z" fill="#53666d"/><path d="M1040,1036c15.82,29.58,41.19,74.42,52.35,104.65,4.38,11.85,2.53,27.07,16.19,31.79,21.31,7.36,33.74-17.33,20.54-32.58-22.49-25.97-50.23-131.76-61.08-139.86-.02-5.36,3.54-6,7.54-7.47,61.78-22.7,142.1,15.64,176.5,68.42,89.72,137.69-47.19,308.11-200.01,246.01-106.84-43.42-134.72-180.98-58.09-266.02,3.87-4.29,27.8-26.34,31.4-26.67,5.66-.51,12.16,17.07,14.65,21.72Z" fill="#8ac870"/><path d="M1024,1000c7.46,10,8.82,10.23,14,24,1.35,3.58,2.51,7.32,3.92,10.9l-1.92,1.1c-2.49-4.65-8.99-22.23-14.65-21.72-3.61.33-27.53,22.37-31.4,26.67-76.63,85.04-48.75,222.6,58.09,266.02,152.82,62.1,289.73-108.31,200.01-246.01-34.4-52.79-114.72-91.13-176.5-68.42-4,1.47-7.56,2.1-7.54,7.47-7.17-5.35-2.19-3.57-4-12,90.93-33.85,190.68,24.41,218.07,114.93,47.42,156.75-126.8,286.33-263.91,195.91-96.48-63.63-102.83-199.1-18.19-275.87,7.5-6.8,22.65-13.02,24.03-22.97Z" fill="#16322c"/><path d="M1026,954c2.93-1.21,14.33-3.25,16.21-.76l75.36,196.2c1.79,7.68-.12,8.05-7.58,5.58-21.17-45.55-46.84-89.39-67.98-135.02-5.3-11.44-25.62-51.85-21.04-61.99.72-1.59,3.36-3.31,5.04-4.01Z" fill="#da5a53"/><path d="M1037.42,442.44c4.8-1.08,11.99-1.02,16.7.45,7.52,2.35,45.51,39.14,45.91,46.28.24,4.27-2.47,8.5-6.94,8.71-5.01.23-52.42-23.34-58.08-27.9-9.91-7.99-11.21-24.49,2.41-27.55Z" fill="#193648"/><path d="M1081.4,414.42c22.43-6.81,47.44,28.56,54.95,46.23,2.27,5.35,13.13,35.56,4.61,37.35-6.64,1.39-26.74-33.74-31.94-40.02-6.29-7.59-34.81-30.22-32.76-38.57.53-2.17,2.99-4.33,5.14-4.99Z" fill="#123349"/><path d="M953.4,402.41c10.17-3.03,50.85,5.39,55.58,15.61,6.21,13.44-13.19,22.65-25.5,19.47-6.7-1.73-51.07-28.85-30.08-35.09Z" fill="#2e424e"/><path d="M1033.91,576.05c3.94,3.18.48,31.26-7.31,33.63-17.1,5.2-19.1-21.51-4.62-27.68-6.22,39.42,9.26,11.61,6.02-5.98,1.65.22,5.26-.49,5.91.03Z" fill="#7b948c"/><path d="M1091.99,647.99c-9.45,1.23-14.96-6.72-23.45-9.53-4.25-1.41-20.56-2.72-20.5-5.46.24-12.16,46.04.38,43.95,14.99Z" fill="#26291f"/><path d="M1084.01,532.01c1.11-1.11,6.87.66,8.08,2.9,2.24,5.08,24.65,20.64,23.9,24.06-.55,2.52-3.97,3.11-6.58,2.71-5.72-.88-29.93-25.15-25.4-29.67Z" fill="#171510"/><path d="M1091.38,564.24c11.53-3.04,10.39,23.07-2.28,21.85-12.17-1.17-5.13-19.89,2.28-21.85Z" fill="#191b1c"/><path d="M1803.53,440.34c14-1.87,24.81,14.3,15.62,25.82-2.44,3.06-9.46,6.65-13.12,8.88-7,4.25-40.97,20.8-47.07,21.1-8.13.4-10.6-1.88-7.4-9.55,4.35-10.43,41.12-44.8,51.97-46.24Z" fill="#2c3e3d"/><path d="M1759.59,414.4c7.66-.63,15.52,2.8,11.41,11.57-2.16,4.61-19.13,18.23-24.03,24-11.12,13.1-21.17,32.47-32.16,43.84-10.23,10.58-9.13-3.32-7.9-11.92,3.3-23.01,27.02-65.36,52.68-67.49Z" fill="#253839"/><path d="M1889.65,400.46c33.25-1.37-6.21,26.72-16.31,31.88-11.03,5.63-16.23,9.01-27.99,1.32-28.93-18.94,30.84-32.64,44.3-33.19Z" fill="#293b3c"/><path d="M1815.23,570.14c12.84-4.19,29.44,31.03,15.42,35.59-19.6,6.38-22.68-33.22-15.42-35.59ZM1818.02,572c-1.8,4.41,2.7,25.74,6.98,25.96,7.2.37.65-25.26-6.98-25.96Z" fill="#8d9d93"/><path d="M1762.01,649.99c-1.17-15.22,45.45-26.15,47.98-14.96,1.85,8.17-13.38,3.15-16.53,3.4-11.22.87-20.32,12.23-31.45,11.56Z" fill="#22231c"/><path d="M1759.22,556.11c8.32-1.47,14.1,28.04,1.78,27.95s-10.76-26.36-1.78-27.95Z" fill="#2e3832"/><path d="M1765.99,534.01c4.01,3.66-25.78,32.69-29.98,27.98-.89-1-.27-6.25,1.32-8.15.96-1.15,18.42-17.27,19.57-17.94,2.2-1.29,7.66-3.19,9.09-1.89Z" fill="#14120f"/><path d="M1818.02,572c7.63.7,14.18,26.32,6.98,25.96-4.28-.22-8.78-21.55-6.98-25.96Z" fill="#cbe7ed"/></svg>