<?xml version="1.0" encoding="UTF-8"?><svg id="a" xmlns="http://www.w3.org/2000/svg" width="1683.8" height="1149.18" viewBox="0 0 1683.8 1149.18"><path d="M387.92,235.04c18.61-41.89,74.29-58.49,116.98-55.98,6.39.38,31.2,6.31,33.66,5.7,1.25-.31,13.46-13.91,18.75-17.33,61.9-40,118.27,23.11,122.58,84.65,2.12,30.2-19.93,92.73,9.03,112.97,8.04,5.62,16.39,1.28,19,8.97-23.03,18.97-57.02,20.28-80.01.05-2.83-2.49-11.57-15.21-13.96-13.02-6.31,19.31-20.96,38.3-39.06,47.96l-26.96,34.04c-.55,5.3-2.12,4.89-4,0,.34,1.77.18,3.74-1.29,4.61-13.73,8.09-28.21,16.16-44.43,17.5-1.54,10.88-4.97,15.51-10.28,13.89-2.64.33-5.31-1-8-4,1.03,4.19-1.63,4.86-8,2-36.77,14.48-62.17,40.74-86.8,70.63l-3.2,1.37,5.76,1.08,27.29,28.35-1.05,4.57,2.42,4.6c5.57,4.92,5.43,6.72-.42,5.4-12.8-4.08-29.33-17.36-34-30-4.9,3.03-6.46,1.17-4-4-1.72-2.78-4.44-12.66-2.99-15.91,3.19-7.15,40.08-43.45,48.05-50.03,18.89-15.62,40.42-24.77,64.96-27.06-35.94-.99-74.31-12.14-91.77-46.25-7.37-14.4-9.87-34.22-16.71-47.29-3.85-7.36-12.27-14.49-16.5-23.5-13.76-29.24-13.24-72.24,8.08-97.84,3.2-3.84,7.06-4.31,8.89-6.12,7.96-6.62,8.7,4.15,2.47,9.89-21.43,22.32-23.15,58.85-12.25,87.04.04.09.8-.34,1.77-.93-2.28-15.49,17.04-70.72,28.7-76.94,3.89-2.07,5.42-2.22,8.91.84,9.23,23.55,24.4,36.81,45.51,39.8-2.49-8.11-7.29-24.43,5.58-21.05,12.72,15.19,31.17,23.02,50.9,21.73-7.11-18.17-3.17-35.43,13.12-14.28,13.28,11.7,28.81,23.83,46.34,27.77,11.63-6.91,19.27-6.87,22.94.13,11.4,5.9,16.31,15.92,16.35,28.47,14.31-37.15,9.27-80.58-14.35-112.47l-5.84-1.61c-21.86-30.54-52.66-37.88-87.08-44.35-7.79-1.46-18.06-2.3-25.08-2.04-31.33,7.85-60.63,20.8-80.59,47.86-3.95,3.51-7.08,3.55-9.41.14Z" fill="#3f4e58"/><path d="M573.92,713.04c-15.16-.6-26.81,1.65-40.04,9.06,4.16,1.36,6.03,4.66,4.81,8.82,4.79-2.85,7.14-.69,9.23,4.12l3.07,3.61c5.13-1.76,9.09-1.75,8.93,4.39.59,9.83,4.14,9.09,14.15,6.86,4.09-.91,8.26-3.06,11.84-5.21,5.93-6.18,11.93-10.73,18.01-13.65l2-2h2l.35-4.54c31.13-12.54,55.56-31.36,73.3-56.46l4.35-1c2.03.02,4.03.02,6,0l2.86,4.84c-5.76,20.19-23.44,32.33-39.86,43.41,16.31.79,32.52,2.73,48.71,4.74,1.43.18,2.8.99,4.22,1.85s2.78,1.99,4.06,3.16c2.99-4.07,7.36-4.73,6.79.74l3.21,1.26c28.75,3.52,70.28-5.51,61.1,38.12-3.63,17.27-19.61,14.93-21.11,22.88l-8.4,209.6c-10.63,13.91-16.09,18.06-33.59,13.41-5.72-5.68.16-4.88,6-4,1.75-5.36,3.53-4.89,6,0l4-2c-.5-1.72-.45-3.59.91-4.84,7.81-7.16,8.1-9.01,8.18-21.77.97-59.7,2.57-119.43,4.81-179.18-.44-3.65-12.68,2.62-12.95,5.1-1.05,59.37-1.42,118.9-1.1,178.59.88,7.93-3.69,15.48-9.85,10.1l-4-1.39c-.17-60.96-.07-121.91.32-182.85l3.68-3.76c-1.22,7.8-15.19,13.16-22,12-1.36,3.93-1.86,8.13,0,12,4.02.48,3.84,2.46,0,4-1.97,5.4-6.36,3.64-6-2-2.35-1.76-4.06-3.28-5.13-4.56-39.27,22.66-79.27,43.16-120,61.5l-4.88-.94c-1.38-.86-2.59-.71-4,0-7.18,6.74-11.18,6.74-12,0l1.54-4.64c72.76-35.28,145.1-73.56,217.03-114.85,2.78-7.52,3.93-15.69,3.43-24.51-4.53,1.76-10.3-.11-13.74-3.35-37.9-7.22-85.02-11.96-123.85-14.17-4.56-.26-21.87,8.99-26.21,11.98-13.78,14.19-23.96,22.77-44.34,25.59-17.87,17-35.1,12.14-55.85,3.95-1.97,2.05-10.92-8.46-11.57-9.85-5.53-11.84,8.23-36.3,18.44-43.4-30.03-4.43-60.17-7.87-90.4-10.31l-10.47-4.44c-9.92-7.05,6.74-17.56,10-6l8.3.64c3.14-4.98,8.96-3.14,10.67,1.84l47.03,5.52,2.86-3.77,55.53,4.44c33.57,5.43,59.9-29.8,77.59-53.48-3.21-7.87-3.21-13.6.01-17.19-2-9.67-.67-12.34,4-8,5.95-.97,9.47,13.77,10.17,19.06.88,6.6,1.49,13.31-2.61,19.15-6.68,9.5-37.83,38.06-47.77,45.67-7.12,7.33-13.06,9.37-17.79,6.12Z" fill="#3d4b4d"/><path d="M563.92,889.04c-1.75-.57-1.72-1.24,0-2h2c2.94,2.77,1.67,4.01-2,2Z" fill="#3d4b4d"/><path d="M567.92,887.04c-.64,1.75-1.3,1.74-2,0-.61.17-1.36-.13-2,0,.77-.17,1.72-2.9,4,0Z" fill="#353e43"/><path d="M187.92,719.04c4.91,2.88,3.79,6.02-.97,8.36l-134.72,63.26c-6.92,6.99-4.88,17.12-3.02,25.78l-1.29,2.59c1.74,1.14,3.13.43,4.37-1.88,158.52,27.11,328.06,52.19,485.89,67.23,6.71-1.62,11.29-.73,13.74,2.65,4.51,2.21,7.64.98,12,0v2c.77,1.8-.56,3.8-4,6,14.39,2.21,28.94,2.36,43.66.44-3.87,7.52-7.71,14.09-14.07,6.52l-9.6,1.04c-2.27,5.11-3.75,5.12-6,0-1.03,13.94-1.39,27.9-1.07,41.9-2.34,7.87-6.41.33-5.41-6.12,1.91-14.14.73-26.73-3.52-37.78-1.94-.24-4.04.15-5.99-.01-1.04,35.68-.64,71.42-1.93,107.09-1.1,30.49-1.62,62.4-4.08,92.92-6.35,15.74-9.05,1.57-6-8l-2.81-6.05c.4-62.49,1.95-124.89,4.64-187.19l1.77-2.86c-10.81,3.46-34.86,2.19-46.4-1.28l-5.2-4.62c-1.19,5.39-3.54,4.9-6,0-10.69,5.2-30.64,1.14-40-6l-9.14-1.07c-1.19,5.05-5.54,4.13-6.86-.93-2.68-.37-5.48-1.75-8-2-1.13,5.59-6.28,5.22-8,0-.41,3.71-2.91,4.53-7.52,2.48-.66,17.28-4.15,33.12-10.48,47.52-.23,9.68-9.08,11.94-6,2l-3.81-2.18,4.59-48.09c-8.9-3.08-18.52-4.92-28.87-5.52l-1.92-4.21c-6.04-1.43-12.17-1.28-18.39.45l-3.61-4.45c-8.51-.83-17.45-.6-26-2.01,1.46,8.64-1.63,16.8-2.09,24.92-.78,13.89,2.82,38.53-1.77,50.23-6.57,16.74-35.75,16.69-45.77,3.48l-4.48-86.52-123.87-18.1c-2.59,57.7-7.19,115.38-8.05,173.04.13,3.05-1.75,6.22-1.97,8.96-6.61,11.07-5.99-7.93-4-18-2.11-3.24-3.45-6.77-3.96-10.6,4.22-51.23,5.99-101.69,5.29-151.38-5.08.78-8.19-.56-9.33-4.02l-4-2c-11.54,4.94-25.88,3.48-36-4-2.11,5.04-3.91,5.15-6,0-7.16-1.17-25.65-4.29-29.77-9.23-5.33-6.38-6.5-32.37-1.65-38.21,3.69-4.45,31.3-16.69,38.7-20.27,29.61-14.32,67.22-33.26,97.37-44.64,5.43-2.05,5.6-3.17,11.35-1.64Z" fill="#353e43"/><path d="M187.92,719.04c1.14-12.25-11.24-21.39,2.9-36.09,3.43-3.56,9.49-5.04,10.6-6.41,2.12-2.61,3.77-17.49,6.11-22.89s11.19-14.15,12-18.08c1.05-5.11-5.45-25.56.26-29.7,6.13-4.44,21.35,7.59,29.06,7.33,5.22-.17,17.96-6.98,25.39-8.86s15.99-2.84,23.68-3.34c-5.61-8.01-6-16.74-8.02-25.99-46.69,9.64-44.6-35.96-14.94-59.94,18.72-15.13,39.32-18.18,56.99,1.48,9.63,10.72,6.9,19.17,11.01,28.43.63,1.43,19.46,22.38,20.97,23.16,5.09,2.63,9.06-7.45,13.98-9.12.15.24,3.43,3.49,4,4l2.03,4.55c-11.22,18.34-25.99,14.93-44.33-10.25,10.07,14.08,11.69,27.21,3.66,43.04,14.55,4.76,28.43,11.11,41.64,19.06l26.35-19.91,4.65,1.5c2.79-.15,3.47,1.8,4,4l-.81,6.12c-7.45,7.28-15.44,13.89-23.97,19.84l8.65,15.29c6.9-15.47,9.61,29.47,4.13,34.76l1.01,5.4c.67,8.04.4,15.53-.82,22.45-10.65,15.65-17.73,32.3-21.23,49.94-2.63,20.48-38.36,26.01-42.57,4.16-11.37,2.96-22.65,4.43-34.26,4.41-.76,27.45-41.82,27.7-45.51,2.07-18.78,9.81-35.01,3.48-35.3-19.44-7.82-10.4-18.56-17.82-32.22-22.27.79-2.15.63-3.83-1.1-4.73-4.46,4.01-8.47,1.8-8-4Z" fill="#39434b"/><path d="M547.92,443.04c3.91,2.58,6.69,12.72,8.27,13.84.92.66,7.24-2.15,10.62-1.93,23.83,1.62,60.34,19.99,76.13,38.06,4.8,5.49,12.49,21.6,15.86,24.14,5.67,4.26,28.62,7.83,40.5,15.5,52.46,33.85,27.5,136.84,19.92,188.91-.59,4.03-2.19,2.61,2.69,5.48-3.82-.47-7.38-1.7-10-2l-1.92-4.57c7.87-42.31,10.82-84.88,8.85-127.71l3.07-7.72c-7.93-29.2-20.68-42.18-48.66-53.2,1.73,2.32,2.75,4.24.66,7.2,10.29,8.39,26.65,37.93,7.88,44.85,10.23,26.27,15.18,52.82,14.84,79.66l-4.73,3.5c-1.36.76-1.53,4.02-3,4.02s-1.64-3.26-3-4.02l-3.63-3.49c2.98-8.73-9.76-69.88-12.84-71.87-1.75-1.13-37.42,13.76-38.76,15.36,4.04,7.32,4.45,12.66,1.23,16-3.67,1.04-4.34,4.51-4,8-1.65.52-3.12.32-4.38-.77l-6.06-18.4c-17.16,11.22-30.93-45.46-27.08-49.84,3.59-4.08,8.53-4.23,11.78.16l12.13,34.37c7.22-1.2,61.92-22.32,61.34-25.6-1.5-8.5-16.06-33.06-21.42-41.65-21.29-34.18-46.68-59.15-87.56-62.48-9.16,25.3-66.61,47.95-84.64,24.74-4.26-5.48-7.52-12.24-2.12-16.52.3-.03,1.2-2.21,2.69-1.75,1.62.4,4.07,4.09,5.31,5.75l4.63.67c6.44,20.01,57.68-7.95,57.5-14.73-7.99-9.15-10.04-16.46-6.13-21.93.19-.05,3.83-.11,4,0Z" fill="#3e5a62"/><path d="M451.92,885.04c-.95,2.79-2.09,4.41-4.89,3.95-1.96,2.33-7.03,57.46-4.32,60.38,4.18,4.5,30.27,5.36,36.63,2.16,4.07-18.29,6.96-36.72,8.65-55.3l3.94-5.2c1.96.21,4.04-.21,6,0l2.88,8.51c3.51,42.68,6.76,86.02,5.62,128.83l-2.5,8.66,1.21,41.37c-1.56,3.98-3.8,2.7-5.21-1.37-2.37-46.05-5.69-91.97-6.02-137.99l-7.08,19.89c.53,11.66-5.57,24.74-6.74,35.26-1.49,13.32,3.88,31.3-6.31,41.69-14.92,15.22-63.92,28.93-82.37,15.2-22.93-17.07,23.47-49.6,36.55-57.46,1.89-36.92,3.57-73.89,7.96-110.59,4.98.69,12.56-2.04,16,2Z" fill="#374854"/><path d="M365.92,873.04c-1.46,3.5-4.55,4.84-9.27,4.02-2.26,1.4-2.24,50.73-1,53.08,3.16,6.04,29.91,6.67,35.82,1.81l4.45,1.08,3.98,4,2.02-6,3.7,2.53-3.82,25.05c-2.5,11.55-.51,17.61,5.98,18.17l7.95-93.75,4.19-2c3.4,0,3.27-.48,8,0l-11.88,103.12c-2.69,5.28-16.95,1.71-18.13,2.87-1.47,1.46,4.92,17.79-9.97,31.03-15.75,14-62.32,31.29-79.47,14.43-21.78-21.42,32.53-48.21,35.08-56.81.98-3.3,2.45-19.29,2.49-23.56.08-7.98-2.28-14.75-2.22-21.98.18-20.37,3.92-41.23.1-61.1,6.9.67,13.67,2.14,20.64,2.41l1.36,1.59Z" fill="#384955"/><path d="M703.92,833.04c2.62,5.75,4.4,11.76,5.31,18.01l6.52,146.63c5.55,2.48,8.94,5.6,10.17,9.36-2.92.03-5.13,1.13-6,4-5.05-1.34-13-3.29-14.02-8.98-3.99-51.73-4.2-103.5-8-155.02-3.64.76-3.72,3.93-4.05,6.93-1.54,13.68,1.91,27.3,2.16,39.99.17,8.81,1.13,57.4-1.06,61.11-3.32,5.63-21.71,5.97-24.58-1.46l-8.46-80.56c-8.43,5.37-17.45,10.34-26.63,14.35-7.7,3.36-27.44,8.39-32.18,11.82-1.84,1.34-3.12,2.31-3.17,4.83-2.85,32.75,1.41,71.84-4.47,103.62-2.11,11.39-24.99,8.79-27.2,2.06l-4.32-108.68c1.24.15,5.74,1.95,6.07,3.35,2.42,10.18-1.95,29.3-.05,40.64,3.49.47,1.88-4.54,1.98-6.97.46-11.27-2.03-24.61,2-35.02,2.11,2.37,3.53,5.08,4.19,8.17l-.06,74.43c-1.16,16.33,1.5,22.38,7.99,18.16l1.85-96.05c-4.25-.34-6.9-1.91-7.97-4.71,5.79-5.53,18.04,2.39,22-5.98-11.27,2.68-25.4,1.34-37.22.1-3.07-.32-2.78-.46-4.78-2.12l2.29-2.6c47,.13,103.06-22.8,131.34-60.7l4.37-.7,6,2Z" fill="#435356"/><path d="M477.92,187.04c6.83-2.46,17.56-1.45,8.98,5.88-55.7,5.06-99.41,52.83-115.88,103.16-.44,14.94-.14,29.92.89,44.96.36,1.4,3.35,10.48.03,9.99-13.55-27.61-15.9-65.19,1.1-91.86.86-1.34,16.65-14.89,6.88-14.12,1.6-1.59,1.55-7.71,8-10,13-4.61,12.02-10.19,22.95-20.05,15.73-14.2,45.75-27.16,67.05-27.95Z" fill="#eeefe9"/><path d="M81.92,909.04c8.05,38.38,9.29,79.15,4,118l2,20c2.71-2.72,3.87-1.48,2,2,12.56,5.09,5.19,10.56-4,4-1.56-1.38-3.74-2.11-4.49-4.43-2.27-33.52-3.6-67.74-3.51-101.57-1.49-13.79-1.35-27.68-.94-41.55.09-3.19,4.76.28,4.94,3.55Z" fill="#32393d"/><path d="M545.92,1093.04c.24,7.8-1.32,18.76,6,8-1.81,22.45-29.44,30.02-46.63,18.13-8.16-5.65-4.87-32.31-5.37-42.13,6.04,1.12,3.87-3.06,4-6.91.37-10.95.16-22.15,0-33.09l4.08,1.09,4.69,72.38c12.34,6.41,29.68,2.27,28.22-17.15l5.02-.31Z" fill="#505659"/><path d="M77.92,833.04l3.19,4.17c3.62,22.6,7.42,49.99.81,71.83l-4.01-2.99c0,13.66.05,27.35,0,40.99-4.12-13.92-1.44-30.42-1.93-45.07-.09-2.63-2.07-5.18-2.07-5.93v-44c0-3.76-4.1-13.05-2-19,.39.06,2.97-.44,6,0Z" fill="#455156"/><path d="M125.92,1005.04c.06,6.65-.06,13.35.02,20l3.98-2c-1.25,15.58,4.55,27.74-14.02,34.97-9.92,3.86-22.26,1.81-29.98-4.97,3.47,2.74,6.63,2.45,7.99-1.96-1.65.05-2.9-.95-3.99-2.04l3.5-2.9c25.8,8.95,28.86-7.84,26.18-29.21-.73-7.94,1.38-11.9,6.32-11.88Z" fill="#4a5457"/><path d="M1651.28,384.88c-26.9-170.12-159.95-310.98-329.35-346.9-239.03-50.68-478.5,109.61-509.34,354.63-1.37,2.32-16.94,3.56-21.63,5.36-39.45,15.15-44.17,75.13-6.19,94.43,9.43,4.79,18.88,4.77,26.62,10.34,21.43,139.45,107.64,264.7,235.55,326.92,305.6,148.66,657.78-106.9,604.34-444.78ZM836.59,553.61c-2.73-9.86-10.33-59.47-12.14-62.07-4.78-6.86-20.59-3.79-29-7.23-4.87-1.99-15.92-12.21-18.74-16.79-12.51-20.29-.76-50.38,20.99-58.41,7.73-2.86,23.82-.72,26.5-5.6,2.42-4.41,3.26-28.09,4.79-35.36,46.13-219.85,262.75-359.64,481.83-318.5,319.71,60.05,445.61,463.82,208.58,692.01-228.38,219.86-598.39,116.48-682.81-188.06Z" fill="#a8cbd9"/><path d="M479.92,475.04c3.52,37.49,57.57,19.87,75.08,2.07,2.46-2.5,8.49-13.13,9.34-13.62,6-3.47,33.27,6.48,40.34,9.79,36.31,17.03,58.9,62.01,75.28,96.79.04,2.95-2.15,4.31-4.13,5.89-5.48,4.37-58.24,25.77-62.72,24.75-5.21-1.18-11.98-35.33-15.22-37.67-1.24-.89-4.03.41-5.04,1.99-1.15,1.81,10.56,37.18,13.29,40.78,5.15,6.79,10.1-.89,13.88,2.04.97.75,7.12,20.15,7.89,23.19,1.03,4.05,3.86,14.15,3.96,17.28.22,7.17-18.94,25.03-24.9,30.77-4.97,4.78-23.36,21.79-28.25,23.75-16.82,6.75-66.21-.1-86.8-1.8-17.91-1.01-35.23-3.67-51.96-7.97l2.84-102.33c-6.69,20.11-19.16,8.78-27.22-4.04-.72-1.15-1.34-2.32-1.66-3.66-4.14-3.98-31.73-31.68-32-34l9.98-8.1c21.22-25.96,49.31-58.25,85-61.91.34-.04-6.71,1.28-4.98-1.99,2.88-.71,3.78-1.52,8-2Z" fill="#6da9cd"/><path d="M595.92,235.04c12.52,15.86,18.73,35.51,21.26,55.25,2.68,20.96,5.55,58.15-23.26,28.75-15.73-3.28-12.2,1.26-21.52,3.66-10.55,2.72-52.37-25.24-57.5-37.64-4.2-.85-3.27,2.01-2.99,4.98.61,6.65,4.77,12.11,4.02,19-22.95,2.74-45.17-5.72-59.01-23.98-3.64,3.76,4.03,23.1,3,23.98-16.49.88-29.87-6.48-40.05-18.93l-14.92-25.04c-19.45,22-23.92,49.62-33.03,75.98-5.81-22.87-9.33-34.48-1.45-58.45,4.7-14.3,36.61-55.65,48.51-65.49,17.46-14.43,46.21-26.95,68.93-28.08.21-3.49-7.69-2.07-9.99-1.98,5.87-3.3,16.43-2.48,23.1-2.1,35.03,2.03,76.16,19.6,94.9,50.1Z" fill="#87785f"/><path d="M525.91,317.02l-5.01-15.97c14.34,16.86,36.82,24.2,54.97,33.98,6.64-22.11,25.68-5.67,23.94,12.77-1.94,20.68-20.37,19.73-22.82,25.13-.68,1.5.77,5.28.08,8.09-20,81.52-141.35,109-177.52,29.38-18.54-40.82-25.87-95.94,6.33-131.35,4.07,18.2,24.51,32.9,41.89,37.13,2.67.65,19.21,2.57,20.15,1.93,5.92-4.05-2.62-10.69-3.04-15.03,16.67,11.39,41.06,18.99,61.02,13.93Z" fill="#fbdfc7"/><path d="M551.92,191.04c-1.1-1.66-1.48-3.51-.18-4.97,30.55-34.28,82.62-19.43,103.24,17.86,18.73,33.86,14.25,69.18,9.22,105.32-.5,5.77-.8,11.54-.7,17.32.14,7.6.69,19.29,6.41,22.47,1.71.4,15.23,25.08,21.99,27.01-1.97,2.69-5.89-1.74-8.75-.89-2.58.77-2.35,5.35-4.64,5.93-19.52,5.01-41.75-4.54-53.41-20.23-9.34-12.58-.64-16.84.79-30.84,6.06-59.38-17.42-115.65-73.98-138.98Z" fill="#85775e"/><path d="M381.92,563.04c10.85,9.71,23.26,19.22,34,30,4.44-1.5,5.48.94,2,4,1.42,3.17,1.85,5.32-2,4l-31.33,23.66c-15.24-9.05-30.56-19.05-48.67-21.69,7.28-8.73,10.73-20.86,7.11-32.1-.46-1.44-13.82-17.31-4.13-17.83,11.84-.63,24.54,44.46,43.01,9.95Z" fill="#fbe5cc"/><path d="M667.92,343.04l2,2c.27,1.14-.18,2.72,0,4-.12-.03-1.27,2.11-1.67,1.79-16.18-12.96-2.7-64.53-2.26-82.7.53-21.85-5.8-53.4-19.25-70.92-21.94-28.59-72.02-39.01-94.83-6.17-1.5-.62-6.22-2.04-5.98-2.98,38.44-48.28,100.86-22.04,119.53,30.43,15.86,44.58-3.75,81.23,2.45,124.55Z" fill="#eff1ec"/><path d="M543.92,443.04c1.19,8.29,6,15.3,11.92,21-10.82,15.91-45.68,34.56-63.01,23.08-4.21-2.79-3.51-6.21-4.91-8.08,5.16-2.98,4.35-14.61,7.97-17.03,2.26-1.51,13.19-2.4,17.94-4.06,10.24-3.56,22.52-13.12,30.09-14.91Z" fill="#f8e5cd"/><path d="M413.92,583.04c2.78,2.67,14.44,14.31,16.02,15.12,13.68,7.04,9.58-40,11.99-47.14h5.98s-4,144.03-4,144.03h10.98s37.03,5.99,37.03,5.99c-4.93-.41-10.01.46-14.97-.03l-51.03-7.97c6.14-4.57,10-20,10-20-2.56-17.84-4.22-34.62-2.41-54.14.29-2.58.44-5.44.3-8.54-.04-.93-.1-1.83-.19-2.7-.33-.84-.9-1.93-1.86-2.99-2.31-2.54-5.3-3.11-6.36-3.26-.22-.14-.77-.45-1.46-.37-.94.11-1.75.91-2.02,2-4.22,1.54-4.69-2.61-4-6-.85-.88-1.17-3.16-2-4l1.96-.98c-2.83-2.38-4.41-5.28-3.96-9.02Z" fill="#2f526e"/><path d="M595.92,235.04c9.07,7.84,15.95,24.33,19.01,35.99,12.36,47.04,3.9,94.81-34.99,126.01,3.11-6.25.41-17.38,2.93-22.19.56-1.07,13.33-.51,19.45-12.41,8.19-15.93,2.62-30.81-8.4-43.4,6.84,1.43,15.86,8.11,16.79,7.92,12.57-2.54,3.14-50.32.22-59.93-2.74-8.98-10.07-23.96-15-32Z" fill="#737875"/><path d="M471.92,477.04l4.98,1.99c-20.8,7.21-40.1,18.82-56.06,33.92-8.64,8.18-20.26,26.2-28.76,33.24-3.33,2.76-5.9,3.4-10.16,2.84-.34-2.9,8.31-12.91,10.97-16.03,21.9-25.68,45.66-47.72,79.03-55.97Z" fill="#daeef3"/><path d="M669.92,345.04c-.97-.2-1.87-1.06-2-2,.95.28,1.78,1.04,2,2Z" fill="#85775e"/><path d="M407.92,681.04c7.85-3.11,6.9,7.88,5.02,13.61l2.98,4.39c37.41,1.04,74.77,7.92,111.99,12.02-3.15,4.25-8.87,5.77-13.06,9.91-7.41,7.31-15.8,24.13-12.96,34.65.51,1.89,3.9,2.07,4.82,3.58,1.55,2.56,2.03,6.31,3.22,7.84,20.11,7.75,38.37,13.49,55.54-3.83l23.55-6.77c13.4-14.85,29.19-25.18,47.39-30.98l84.79,8.51,6.73,3.07c10.72,1.99,21.79,12.61,14,22-8.14,7-17.33,12.23-26.79,17.17-42.12,21.98-84.27,43.88-126.54,65.56-27.47,14.09-48.32,24.02-77.39,18.27-148.88-20.48-298.66-41.19-449.33-62.15l-3.94-2.85,5.03-5.78c44.31-24.25,87.87-45.32,130.68-63.23l2.29-3c11.34,4.32,27.46,12.07,35.17,21.83,4.75,6,1.93,19.82,8.8,23.2,3.46,1.71,14.82,1.66,18.61.55,5.56-1.63,5.24-7.93,9.4-9.57-.17,7.08,1.43,21.26,9.44,23.57,3.65,1.05,19.73,1.2,22.61-.54,4.18-2.52,4.3-13.89,6.93-17.07,3.25-3.92,12.99-1.25,18.01-1.99,5.77-.86,17.4-4.72,21.87-4.11,1.98.27.83,10.81,9.1,13.34,3.45,1.06,15.16-.54,18.57-1.69,10.07-3.4,9.64-24.81,13.96-34.04,11.87-25.37,18.88-21.34,19.53-55.47Z" fill="#d8b680"/><path d="M773.92,743.04c6.42,7.92,4.16,26.98-5.34,31.66-60.73,30.55-119.54,65.58-180.62,95.38-9.27,4.52-27.15,14.76-36.04,16.96-23.41,5.78-103.8-8.45-132.71-12.29-111.83-14.83-229.05-29.32-339.95-48.05-7.12-1.2-27.23-3.34-31.33-7.67l1.05-3.5c-1.73-6.4-2.15-20.21,6.95-16.5l1.84-1.74c152.31,21.34,304.65,42.38,457.02,63.13,15.08,1.86,28.16,1.45,42.36-3.95,61.85-29.73,123.24-60.94,185.92-94.53,8.51-4.56,15.9-9.36,22.87-14.91-.04-6.48,2.54-7.14,8-4Z" fill="#d1b17f"/><path d="M685.92,667.04c-4.05,22.78-57.57,53.1-78,62-7.16,1.9-14.1,6.86-20.83,14.85-7.78,5.4-31.05,14.58-27.17-.85-11.91-8.19-24.36,23.34-30.97,21.99-2.18-.45-3.47-3.3-2.07-6.02,2.91-5.64,21.01-18.24,21.04-23.97-11.45-5.52-10.58-19.91,4.98-20.95l21.02-1.05c18.37-6.05,44.46-39.84,60.87-52.11,9.01-10.96.65-25.98-2.87-37.89-1.03-3.47-7.02-18.84-6-19.98,8.97,1.66,41.41-18.69,46.13-15.18,2.25,1.68,13.01,48.49,13.64,54.41s1.23,19.21.24,24.76Z" fill="#fce1c6"/><path d="M703.92,817.04c4.29-4.89,16.28-8.15,22-12v188l5.65-3.35c2.03-60.42-2.25-121.49,1.96-181.7.15-2.15-2.24-5.91-1.58-6.83.7-.98,18.74-9.28,21.96-10.11-.35,13.64.48,27.41.09,41.07-.6,21.02-3.41,42.81-4.16,63.84-1.09,30.22,1.62,64.27-1.87,94.13-1.01,8.66-4.45,11.64-12.04,14.96l-4,2c-1.55.22-4.5.25-6,0-3.51-.58-14.15-4.61-14-9-3.35-55.07-3.62-110.23-8-165-.11-1.32.06-2.67,0-4-1.91-3.82-1.4-8.14,0-12Z" fill="#ceaf80"/><path d="M721.92,585.04c4.35,30.1,1.55,64.07-2.26,94.74-1.88,15.16-5.24,30.22-7.74,45.26-21.89-2.53-43.97-5.75-65.99-6.01-1.1-4.77.8-3.23,2.6-4.46,18.77-12.8,37.98-23.53,43.39-47.53,6.15-27.27-7.98-56.33-13.97-83.13.17-5.57,9.67-5.44,9.59-11.47-.02-1.8-11.8-29.85-13.62-33.4,1.24-1.44,2.73-2.92,4.69-3.21,19.87-3,41.17,35.96,43.31,49.21Z" fill="#9bc985"/><path d="M567.92,887.04c42.47-16.32,85.14-47.09,127.05-65.96,4.44-1.8,3.41,7.92,2.95,9.96-5.88,25.72-80.97,60.5-105.56,63.44-10.77,1.29-21.66.23-32.44.56-.16-.13-1.61.33-1.98-1.02v-2.96c2.17-.11,4.09-1.04,5.98-2.03.78-.41,1.4-1.34,2-2,.65-.18,1.45.21,2,0Z" fill="#94c98a"/><path d="M773.92,743.04c-6.98-.25-2.61,3.69-4.02,6.02-.51.84-3.13-2.02-3.98-2.02-1.64,5.03-4.74,6.86-8,2-2.52-1.23-3.51-2.69-1.99-4.85-10.18-.56-19.52-2.95-28.01-7.15-20.96-2.57-41.82-4.24-62.76-6.24-24.72-2.36-27.39-8.5-51.72,6.34-8.46,5.16-15.73,16.63-23.66,20.76-6.85,3.57-18.77,4.36-27.26,8.74-5.32,2.75-7.67,8.32-14.54,9.64-2.34.45-22.32-.75-25.03-1.26-1.52-.29-12.21-6.92-13.03-7.97,10.95-.93,27.77,8.17,38.46,5.61,4.82-1.15,11.67-9.56,18.1-12.05,6.95-2.69,15.43-2.1,22.17-5.83,6.17-3.41,11.95-12.87,18.6-17.4,3.71-2.53,26.54-14.01,29.86-14.31,39.56,7.4,84.66,6.03,123.56,14.23,4.63.98,10.07,1.83,13.25,5.75Z" fill="#bfbea3"/><path d="M573.92,713.04c-9.11,3-18.76.12-25.11,3.88-9.94,5.89-.86,12.14-.89,18.12-10.1-10.34-29.23,31.42-33.99,25.99-.98-6.94,3.2-12.67,7.17-17.81,5.81-7.52,26.01-18.03,5.16-17.79l-18.32,23.6c7.59-30.97,36.86-39.36,65.98-35.99Z" fill="#edd3bc"/><path d="M607.92,729.04c-.54.24-1.39-.22-2,0l-2,2c-6.81,5.05-9.09,11.64-15.33,15.67-8.54,5.52-18.47,4.42-27.45,8.55-7.62,3.51-12.7,13.68-21.21,10.79,6.09-7.64,16.88-13.46,19.99-23.01,1.83,1.26,2.87,4.95,5.37,5.72,11.12,3.42,25.52-13.22,34.56-18.82,3-1.86,4.32-4.8,8.08-.9Z" fill="#edd3bc"/><path d="M703.92,829.04c-3.68-2.94-2.86-8.74,0-12,.12,3.99-.18,8.02,0,12Z" fill="#435356"/><path d="M735.92,1005.04c-1.12.49-1.58,1.66-4,2l4-2Z" fill="#435356"/><path d="M603.92,731.04c.41-.86,1.09-1.68,2-2-.64.68-1.25,1.44-2,2Z" fill="#fce1c6"/><path d="M497.92,891.04c17.95,1.93,35.84,5.18,54.01,3.99-2.52,25.67-1.01,51.38-1.93,77.09-1.43,40.26-5.32,80.34-4.08,120.92-3.76,3.41-.96,9.2-3.03,13.97-4.84,11.13-24.71,13.08-34.05,6.1l-4.92-76.08c-.73-48.71-4.97-97.31-6-146Z" fill="#d1b382"/><path d="M113.92,837.04l4,2c7.91.5,12.89-2.95,14.1,6.9,1.92,15.64-1.26,52.32-2.01,70.18-1.26,29.8-4.34,58.96-4.08,88.92-4.36,9.03-1.07,21.05-2.03,30.98-1.76,18.21-19.35,19.28-33.97,13.02-.64-.64-1.56-1.23-2-2l-2-20c-.99-39.58-2.13-78.46-4-118-1.19-25.25-.75-50.84-4-76,11.9,1.73,24.02,2.89,36,4Z" fill="#c6b591"/><path d="M451.92,885.04c13.24,1.2,26.75,4.6,40,6,.84,21.07-5.66,41.41-9.01,61.99-3.53,7.24-37.13,4.85-43.05-.94-6.83-6.69,4.14-55.2,2.04-67.06,3.29.19,6.73-.29,10.01,0Z" fill="#f9dec7"/><path d="M365.92,873.04c4.75.37,33.89,4.1,35.17,5.86l-5.17,54.14c-6.39,9.5-39.27,7.04-43.58-.41-3.53-6.1,1.78-49.2-.44-59.6,4.62.25,9.41-.35,14.01.01Z" fill="#f9e1c6"/><path d="M309.92,934.04c-2.96,14.98-30.33,17.99-34.96,6.96l-5.03-81.95,19.12,3.86,2.88,70.12c5.23,6.87,3.73-13.35,3.92-15.06.28-2.49,2.07-5.32,2.07-5.92v-47h12c-2.75,20.06,3.71,50.26,0,69Z" fill="#c3a981"/><path d="M579.92,903.04c2.62-.08,11.72-.9,12.04,1.15l-1.96,101.51c-.79,3.35-12.16,4.84-14.27.51-4.17-33.69-.67-68.95-1.81-103.17,1.99-.04,4,.06,6,0Z" fill="#d4b381"/><path d="M195.92,723.04c3.37,3.99.71,4.51-2.56,6.44-22.84,13.47-53.49,24.25-77.86,36.14-19.34,9.44-38.79,19.08-57.58,29.42,2.84,2.94,2.17,4.28-2,4-.95,1.58-2.99,2.25-3.61,5.3-1.3,6.45,2.47,16.41-4.39,14.7-6.61-6.97-6.6-28.13,4.13-32.87l134.89-63.18c.94-1.18.85-2.56.98-3.95,2.48.66,5.37,3,8,4Z" fill="#f5f6f1"/><path d="M419.92,881.04l-8.42,96.58c-1.59,6.29-11.77,2.46-13.26-1.9-3.28-9.62,2.32-33.56,3.67-44.67,1.97-16.24,4.65-32.39,6.32-48.68,1.68-5.59,7.24-1.33,11.68-1.32Z" fill="#cab694"/><path d="M117.92,839.04c-1.69-.11-3.48-.06-4-2,1.68.16,3.51.02,4,2Z" fill="#d0ad79"/><path d="M345.92,623.04c6.67-13.31,24.72,2.12,32.41,9.82,19.09,19.1,26.24,43.44,19.59,70.18-1.62,14.72-12.11,21.44-16.44,32.56-2.3,5.92-3.81,26.09-7.49,28.51-2.08,1.37-16.9,1.57-17.88.72-1.13-.97-.78-12.4-5.34-13.52-2.23-.55-21.11,4.78-26.1,5.48-7.13,1.01-18.4-2.32-22.58,3.42-5.94,8.14.75,18.85-16.98,16.78-14.26-1.67-8.75-20.04-13.6-23.57-1.35-.98-19.02-4.63-24.06-6.92-11.23-5.12-18.45-14.71-29.54-19.5,12.66-11.87,17.9-29.6,4.01-42.98-7-6.74-13.8-2.97-12.01-16.99,5.28.71,8.62-.62,10-4-3.27-7.28-.22-14.44,9.16-21.5l2.84-4.5c-2.82-3.53-3.31-8.77,2-6,2.27.52,4.05,1.39,4,4,4.86,2.97,1.18,5.42,1.14,3.35-.21-10.63,19.81,16.14,21.75,18.94,6.05,4.52,12.33,5.29,17.88-.35,7.25,2.19,12.58-2.88,15.98-15.21l1.25-.73c-2.71-2.99-1.44-4.17,2-2-5.42-13.57-4.5-18.53,2.74-14.89,14.05-3.61,26.72-4.06,40.68.36l4.57-1.47Z" fill="#f6bcb1"/><path d="M277.92,563.04c-2.81-3.25-6.89-14.84-10.97-13.99-9.46,9.1,5.25,14.73,8.97,21.97-23.92-4.59-15.67-35.35-2.06-47.04,1.98-1.71,21.78-14.68,23.13-14.93,11.68-2.21,32.86,10.08,35.98,21.92,5.26,19.93-9.65,41.81-11.35,9.37-4.92-1.48-9.13-14.05-12.67-13.29-8.37,1.8,2.32,23.37,2.97,28.98,2.09,17.82-5.56,11.23-11.11,1.11-4.71-8.59-5.17-17.45-7.96-26.14-1.12-3.48-.17-4.76-4.92-3.96l5.98,33.98c-9.9,1.39-11.32-19.13-15.02-19.98-9.11-2.1-1.82,16.42,1.03,19.99,2.65,2.81,1.53,3.84-2,2Z" fill="#f1e2cf"/><path d="M397.92,703.04c2.01-18.21.14-37.83-9.17-53.83-2.5-4.29-20.23-23.92-24.08-25.91-7.03-3.64-11.61-2.44-18.75-.26q-9.89-7.43,0,0c-.31.1-.99,3.15-3.15,3.54-3.57.64-15.43-3.6-21.82-3.69-4.34-.06-24.38,1.81-25.04,5.2s5.56,2.9,2.01,10.95c-4.95-4.02-10-8.75-15.12-14.2,0,0-5.63,1.4-16.88,4.2-6.16,5.61-18.3,12.78-14,0l.74-4.83c3.87-3.78,36.85-13.51,44.36-14.26.4-.04-7.54,1.64-7.1-.91,1.96-3.08,7.88-2.38,11.06-2.11,25.79,2.14,45.65,1.5,68.34,15.71,26.01,16.29,40.69,51.01,28.6,80.4Z" fill="#dabfbf"/><path d="M323.92,601.04c-16.9,3.37-27.04-13.04-17.72-26.83,5.56,1.14,8.8.08,9.72-3.17,1.46-2.74,3.98-10.58,6.86-9.89,17.45,4.2,22.25,32.11,1.14,39.89Z" fill="#f3d864"/><path d="M201.37,683.33c18.39-4.98,33.85,32.74,11.07,37.36-23.79,4.83-29.16-32.46-11.07-37.36Z" fill="#e7c3c0"/><path d="M289.92,609.04c2.17-.06,8.46-1.42,7.99,1.98-5.4-1.26-8.23,4.68-11.39,5.62-17.38,5.14-17.08,3.7-34.6,12.4-.24,5.83-10.12,10.22-14,6-.19-.29-5.53.85-4-4-.84-2.24,4.95-12,6.16-11.89l3.84,1.89c16.74-3.57,27.26-11.49,46-12Z" fill="#f2e3e1"/><path d="M315.92,571.04c-.07.13,2.33,1.27.2,2.9-2.41,1.85-7.78,2.3-8.29,4.42-3.5,14.6.56,23.13,16.09,22.67-18.18,6.7-33.17-16.89-25.06-30.06,3.02-4.9,11.54,6.48,17.06.06Z" fill="#e9e2a8"/><path d="M243.92,621.04c-8.1,1.73-.24,1.67-2.83,6-1.3,2.17-5.58,2.65-7.17,4-2.98,2.53-1.75,2.9-2,6-.57,1.75-1.24,1.72-2,0-1.83-8.56-8.41-13.71-6-24,8.08-1.13,14.55,2.36,20,8Z" fill="#d0b7b9"/><path d="M231.92,637.04c-.02.27,2.74,1.5.63,5.36-4.14,7.59-15.47,8.11-8.65,22.64-.48.64-2.68-1.63-3.98-2-2.97,4.62-9.21,7.08-8,0,3.01-10.36,8.57-20.22,18-26h2Z" fill="#f2e3e1"/><path d="M259.91,757.07c5.28,7.09-26.2,11.58-19.97-8.02,2.63,4.85,19.32,7.15,19.97,8.02Z" fill="#d9d4d6"/><path d="M219.92,663.04c5.22,11.85-2.66,11.9-10,4,.3-2.38,1.8-3.3,2-4l.99,1.96c3.28-4.15,3.57-2.93,7.01-1.96Z" fill="#44464b"/><path d="M279.92,561.04l11.99,9.99c-5.98-.54-10.31-3.73-13.99-7.99l2-2Z" fill="#a5adb1"/><path d="M421.92,603.04c-.64.7-1.3,1.37-2,2-3.15-2.01-4.73,2.38-4-4l2-4c2.63,2.74,3.74,5.75,4,6Z" fill="#3f4e58"/><path d="M313.93,541.06h1.96s3.04,11.95,3.04,11.95c-3.5-2.96-5.32-7.4-5-11.95Z" fill="#80939e"/><path d="M721.92,585.04c-3.09,4.52-3.71-3.73-4.07-4.93-6.5-21.28-21.03-37.78-43.93-41.07-1.37-2.67-11.11-8.45-7.02-13.98,33.52,12.64,49.72,23.26,55.02,59.98Z" fill="#d4e7de"/><rect x="687.94" y="651.06" width="1.96" height="11.98" fill="#3d4b4d"/><path d="M471.89,1007.05c13.83,26.69-41.25,44.66-58.91,44.08-17.5-.57-25.99-11-14.11-26.14,2.49-3.17,28.16-23.59,30.07-23.57.94.01,4.98,4.81,7.56,6.05,13.56,6.52,21.66,7.4,35.39-.42Z" fill="#fbfcfb"/><path d="M479.91,963.06c-2.87,7.4-3.92,32.88-8.45,37.53-5.58,5.74-29.26,6.16-35-.07-4.4-4.77,1.22-33.37,1.48-41.48,13.65,6.19,27.46,7.1,41.97,4.01Z" fill="#fafcfa"/><path d="M391.9,987.05c2.39,19.26-7.18,28.11-23.24,35.74-13.26,6.31-36.65,14.11-50.22,6.71-16.87-9.2,4.61-28.4,13.44-35.49,20.65-16.58,17.34-1.29,37.02-.82,9.28.23,14.64-3.92,22.99-6.15Z" fill="#fafcf9"/><path d="M351.92,941.04c13.28,5.57,27.47,7.87,40.97,1.97,1.65-.05-2.42,29.54-3.45,32.55-5.2,15.19-37.52,9.83-37.52,2.48v-37Z" fill="#fbfcfb"/><path d="M687.9,857.06c-2.51,28.67,5.56,60.85,2.11,89.09-1.34,10.93-11.1,9.03-13.63-.57-5.76-21.84-2.76-50.73-7.99-73.3.86-3.15,17.96-17.02,19.51-15.22Z" fill="#ceac7a"/><path d="M718.88,428.86c-36.47-4.63-49.14,54.28-4.67,58.06,36.03,3.06,40.07-53.57,4.67-58.06ZM719.39,473.65c-26.51,6.28-26.19-34.58-3.42-33.2,16.01.97,21.08,29.02,3.42,33.2Z" fill="#a9cad7"/><path d="M87.92,1047.04c-3.57-6.18-1.82-12.76-2-20,4.26,4.75,1.14,13.72,2,20Z" fill="#4a5457"/><path d="M1387.75,375.09l-3.26,311.6c-5.81,41.14-38.4,37.14-70.24,38.23-60.25,2.06-134.69,5.19-194.07,1.57-23.4-1.43-39.39-5.84-45.24-31.1-1-93.71.25-187.71,2.24-281.48-5.62-1.6-11.74-2.77-13.9-8.95-2.28-6.52-1.33-46.35,3.18-51.56,3.53-4.07,14.74,1.89,10.44-12.55-.86-2.9-11.17-1.35-13.69-13.53-1.26-6.09-1.07-33.61.1-39.86,2.66-14.24,11.6-8.31,13.07-11.19,3.55-6.96-.4-47.82,2.46-60.99,3.73-17.17,17.82-27.89,34.67-30.05,72.26-9.28,160.62,4.44,234.59-2.89,62.5,4.47,34.73,79.43,39.76,120.57,1.8,5.28,10.38-3.28,13.06,10.26,1.21,6.12,1.64,48.85.41,54.13-1.5,6.46-7.77,8.07-13.57,7.78Z" fill="#405a6b"/><path d="M1437.44,230.32c-23.94-.9,3.74-27.06,10.29-36.34,1.43-2.03,2.49-7.16,2.9-7.41,1.38-.83,15.07,1.48,11.67,9.52-3.9,9.22-21.05,22.89-24.86,34.22Z" fill="#a4c6d4"/><path d="M1485.58,242.73c6.96.63,9.38,7.96,2.66,12.89s-53.14,21.65-40.42,1.54c1.08-1.71,35.45-14.64,37.76-14.43Z" fill="#adcbd8"/><path d="M1454.83,298.74l36.9,9.09c8.38,2.07,6.67,14.54-9.07,12.3-4.04-.57-30.03-9.2-31.55-10.87-2.89-3.19-.18-9.43,3.72-10.52Z" fill="#abc9d4"/><path d="M521.33,363.46c9.17-2.67,27.64-1.68,28.76,10.56,1.42,15.49-14.55,19.38-27.12,16.97s-15.17-23.58-1.64-27.52Z" fill="#f4c7ad"/><path d="M408.43,412.51c-5.37-5.04-7.97-21.35,2.54-23.41,32.38-6.34,14.97,39.84-2.54,23.41Z" fill="#f6c7b5"/><path d="M507.91,401.06c1.54,1.44-5.07,12.09-6.89,14.09-10.58,11.55-43.97,19.71-50.79,2.59-4.13-10.38,12.29,2.28,15.16,2.87,8.18,1.67,18.42-1.28,25.21-5.88,4.12-2.79,12.98-17.7,17.31-13.67Z" fill="#3f474a"/><path d="M507.41,349.54c6.9,7.01-2.5,21.53-10.99,13-7.55-7.58,3.51-20.59,10.99-13Z" fill="#454d54"/><path d="M414.22,365.35c3.02-4.76,15.34-2.28,13.76,8.56-2.15,14.7-20.42,1.96-13.76-8.56Z" fill="#4d565d"/><path d="M457.91,377.06c2.04,1.87-3.55,5.83-3.54,6.99.02,2.8,10.3,5.79,2.56,10.95-16.78-4.27-4.91-23.34.98-17.94Z" fill="#484949"/><path d="M765.92,747.04l-1.24,7.75c-36.2,17.19-71.02,37.16-106.72,55.29-26.64,13.53-95.56,52.85-121.05,54.93-9.62.78-21.84-1.24-31.74-2.23-81.83-8.15-166.66-24.28-248.5-35.5-62.34-8.55-125.21-14.89-187.42-24.57-4.21-.66-10.08-.92-13.33-3.67.52-.87-.23-3.37,2-4,9.49.4,19.32,1.09,28.74,2.26,131.65,16.29,262.78,40.04,394.54,55.46,24.91,2.92,53.87,9.58,77.42-.01,61.29-30.84,121.88-63.16,183.29-93.71-1.42-5.99,10.94-13.79,16-10,1.57-.72,6.37-2,8-2Z" fill="#414543"/><path d="M727.92,737.04c6.84.84,25.9,1.25,30.7,3.99,3.05,1.74.51,5.81-.7,8.01-4.04,1.86-10.33,7.18-16,10l-3.06-11.88-10.94-10.12Z" fill="#d1b17f"/><path d="M531.92,1101.04h-6v-198c1.71-.84,6,1.7,6,3v195Z" fill="#444543"/><path d="M105.92,1041.04c-21.56,11.94-15.09-18.04-15.92-31.08-2.7-42.74-5.02-87.32-6.17-129.81-.14-5.05,1.69-37.29,2.98-39.21,2.57-3.83,17.05.19,17.23,1.26l1.88,184.84c5.01.66,3.77,11.96,0,14Z" fill="#d0ad79"/><path d="M111.92,847.04c3.35,1.14,1.88,6.18,2.04,8.96,2.68,46.07-.31,94.1-2.12,139.96-.32,8.01,1.99,40.88-1.88,44.17-1.17.99-3.26.48-4.04.92v-14c0-53.47-4.22-116.94-.1-169.09.29-3.69.11-8.95,4.1-10.91.63-1.23,1.3-1.22,2,0Z" fill="#545450"/><path d="M125.9,889.04c-3.66-.77-3.7-3.93-4.06-6.92-.74-6.18-3.69-30.3-3.09-34.17.77-4.98,6.61-7.07,9.66-.4,3.9,8.52-6.52,29.66-2.51,41.49Z" fill="#d0ad79"/><path d="M111.92,847.04c-.63.17-1.5-.24-2,0l1-1.96,1,1.96Z" fill="#d0ad79"/><path d="M251.92,629.04c3.34,8.44,7.56-.84,14,0l1.84,2.59c9.23-11.07,14.91-6.08,17.05,14.98l3.1.43,1.96-.67c-1.11-1.77-1.67-6.72,4.04-5.33.57-1.75,1.24-1.72,2,0-1.04,2.8-5.26,19.3-6.04,20-.94.84-5.77-1.56-8.21-.99-3.33.77-4.96,5.14-10.52,4.97-17.18-.53-19.89-16.53-27.77-23.41-2.24-1.95-6.72-2.07-7.33-2.74-.38-.42,2.01-3.61,1.86-3.83,4.03-3.05,10-4.01,14-6Z" fill="#e8a9a3"/><path d="M297.92,639.04c-.27.62-1.72,1.24-2,2h-2c-2.49.69-4.49,2.69-6,6-1.87.14-1.87,11.96-7.99,9.99-.17-4.87,1.96-28.02-5.01-27.95-1.25.01-12.67,13.85-14,13.92-6.93.39,3.68-12.65,5-13.96,16.19-15.98,23.65-7.72,32,10Z" fill="#3c3d45"/><path d="M251.91,673.05v10s-7.98-.02-7.98-.02c-.75-6.54.42-11.17,7.98-9.98Z" fill="#5c5657"/><path d="M345.92,623.04c-.75.76-16.19-3.93-20.94-4.11-7.43-.27-23.43,4.57-25.81,3.96-3.03-.79-4.45-6.56-3.26-7.84,1.84-1.98,29.92-2.32,34.79-1.8,2.58.28,21.21,3.7,15.22,9.79Z" fill="#3c3c40"/><path d="M201.9,697.05l-2.98,11.98c-7.2-5.16-7.14-12.82,2.98-11.98Z" fill="#5e585a"/><path d="M205.93,707.03c-1.45-1.45.75-8.91,4.96-7.98,7.39,1.63-1.1,11.84-4.96,7.98Z" fill="#4e4547"/><path d="M1091.95,705.76c-2.42-7.24-3.95-15.57-3.91-23.31.87-147.29,2.67-297.6,4.79-443.11,1.26-19.23,10.9-36.6,31.63-39.16l230.31-2.25c5.42.33,10.79,1.67,15.8,3.85,9.46,9.2,6.78,28.9,6.98,41.23,2.42,148.91-6.64,298.24-4.12,447.2-4.57,19.35-18.86,22.01-36.24,23.46-60.94,5.07-148.42,4.34-210.25,2.14-14.7-.52-25.36,2.42-34.99-10.04Z" fill="#9eb3c0"/><path d="M1370.58,201.78l-245.65,2.36c-31.99,5.08-28.2,39.08-29.18,63.85-5.46,137.92.81,276.51-4.91,414.49l1.11,23.29c-9.51-12.3-6.33-35.73-6.53-51.42-1.79-142.14,5.15-284.57,3.32-426.74,2.69-23.6,10.44-28.99,33.06-31.38,72.17-7.62,154.5,3.48,227.75-3.25,6.95.06,16.13,4.03,21.03,8.8Z" fill="#f0f7f8"/><path d="M1391.52,367.59c-.52.3-4.18-1.27-5.81-1.41,4.62-7.25-1.53-52.05.79-53.36s5.67,1.65,6.52,5.13c.59,2.41.67,48.41-1.49,49.64Z" fill="#99b4c4"/><path d="M1078.13,360.42c1.22,1.88-2.41,38.79-2.75,44.64-4.36-.28-4.16-3-4.59-6.3-.58-4.48-.19-38.76,1.54-39.75.26-.15,5.64,1.16,5.81,1.41Z" fill="#99b5c1"/><path d="M1077.86,286.22c2.57,4.32-2.29,35.76-.3,43.16-8.22,3.29-6.09-17.14-5.92-22.02.06-1.71.77-30.31,6.23-21.14Z" fill="#9fb9c7"/><path d="M293.92,641.04c.03.45-3.69,7.71-4.04,8-1.37,1.13-1.82-2.01-1.96-2l-4-13.98c2.18-2.28,9.96,7.34,10,7.98Z" fill="#f6bcb1"/><path d="M1350.7,238.55c7.63.75,12.12,1.47,11.87,10.21l-3,388.53-2.93,12.9-252.91,4.76,1.05-407.5c3.57-5.7,9.19-4.9,14.9-5.51,73.73-7.87,156.36,2.13,231.01-3.38Z" fill="#415e6f"/><path d="M1240.17,662.43c16.38,2,17.49,12.96,15.78,27.61-1.71,14.55-1.99,15.11-15.79,16.19-14,1.09-31.13,3.65-33.38-12.88-3.76-27.71,6.78-34.16,33.39-30.91Z" fill="#425e71"/><path d="M1204.47,224.57c-4.46-5.57,4.52-8.21,8.56-8.67,8.29-.96,52.26-1.64,58.22.37,8.56,2.9,7.24,8.69-.89,9.72-10.99,1.39-46.12,1.19-57.76.19-2.13-.18-7.11-.34-8.13-1.61Z" fill="#45606f"/><path d="M1185.55,216.16l-4.73,12.15c-17.8-1.58-8.56-21,4.73-12.15Z" fill="#3b5869"/><path d="M1183.01,386.27l2.91-.84c2.65,8.19,8.9,6.73,18.75-4.4-4.92-25.69,22.39-33.35,43.38-31.14,10.82-6.76,20.74-9.04,29.76-6.86,2.72,9.71,6.65,11.73,11.77,6.07,15.98-2.42,31.56-6.88,46.73-13.37,7.72-.19,10.64,5.3,8.75,16.46,3.58.92,5.48,2.71,5.69,5.37-.17,40.41-.62,80.86-1.04,121.27-5.14,7.28-13.69,11.54-25.66,12.79-4.72,14.42-25.15,16.26-36.8,10.62,2.28-13.26-18.25,1.33-22.13,5.62,2.31,15.51-1.04,28.57-16.58,34.81-1.78,8.88-5.73,15.31-11.83,19.28,1.2,6.42-3.83,10.97-15.09,13.66-4.31,19.77-14.35,44.99-25.09,62.43-1.55,2.51-4.26,4-6.81,5.31-26.11.27-52.39,3.11-78.57,1.25,2.57-60.53,3.2-121.68,3.73-182.41l3.37-10.84c19.12-19.62,38.25-39.89,57.41-60.82l7.36-4.25Z" fill="#cbf3f3"/><path d="M1349.71,478.83c-.5,48.63,3.06,106.21-1.31,153.66-.32,3.43-.56,6.96-2.14,10.09-43.9.67-87.9.23-131.8.67l-6.3.51c-.65,0-1.3-.48-1.94-.48l-6.3.51c-.65,0-1.3-.49-1.94-.48l-4.36.99c-1.2.01-2.69-.97-3.88-.96,8.25-18.5,18.6-38.11,25.95-57.09,2.14-5.54-.89-10.75,4.82-15.05,2.6-1.96,12.09-3.35,12.59-3.78,2.08-1.81-6.45-18.68-2.47-23.16l5.12,12.6c3.62,4.85,7.43-13.1,8.85-15.46,3.36-5.59,9.12-4.72,10.39-6.04.52-.54,6.89-12.51,7.08-13.23.92-3.6-3.56-12.11.24-16.95,11.36-6.06,14.93-16.37,30.21-11.58-1.3,1.29-3.1,7.64-.82,8.08,3.42-.93,22.89-2.11,23.87-2.81,1.46-1.05,1.87-7.28,6.09-10.43,7.09-5.3,24.01-.84,24.9-13.46l3.16,3.84Z" fill="#e3f6f2"/><path d="M1302.84,251c2.11,4.61-1.02,12.26-6.75,10.69l-.51,4.64c-17.63,20.26-35.61,40.47-53.94,60.63l-7.89,3.83-2.42,1.46c2.81,5.29-2.9,12.53-8.7,10.22l-2.42,1.46c-1.61,10.85-13.26,23.81-23.19,27.24l-2.42,1.46c4.64,3.42,2.15,6.9-3.38,5.35l-2.42,1.46c1.53.96,1.35,1.6-.48,1.94l-2.42,1.46c2.08,3.47.87,4.91-2.9,3.41-17.91,19.99-35.4,40.59-53.59,60.33-4.81,5.22-10.79,8.11-14.54,15.58,0-.65.47-1.29.48-1.94l-.51-6.3c0-.65.47-1.29.48-1.94l-.51-6.3c.14-12.92,1.18-25.95,1.32-38.81l3.19-7.89c42.86-46.82,84.55-93.98,125.07-141.46-3.11-4.35-.77-6.63,7.02-6.82,14.43-.05,28.74.16,43.17.34l4.36-.99c1.21.01,2.66.93,3.88.96Z" fill="#f5fef6"/><path d="M1350.37,250.35l1.46,2.42c.1.97-.84,2.6-.96,3.88l.99,4.36c-.08,1.26-.91,2.66-.96,3.88l.51,6.3c-.03,1.23-.92,2.65-.96,3.88l.99,4.36c-.03,1.23-.94,2.67-.96,3.88l.51,6.3c-.05,1.24-.9,2.64-.96,3.88l.99,4.36c-.27,5.17.88,11.83.06,16.49-4.89,1.25-8.52,7.13-.96,3.88,2.08,3.69,1,8.49,1.01,12.61-1.16,1.09-1.18,2.36-.96,3.88-.04,7.41.6,15.24.56,22.8-15.95-.74-6.36-9.13-10.75-19.09-8.38,3.66-17.22,6.08-25.79,9.22-13.02,4.77-10.49,2.68-21.91,4.75-6.13,1.12-6.4,9.5-15.05-.93-1.81-2.18-1.76-5.69-2.12-6.04-3.68-3.57-20.85,7.45-26.61,8.39-13.95,2.27-20.67-4.27-34.79,8.05-11.43,9.97-2.94,15.58-5.59,20.99-1.94,3.96-19.1,16.73-23.08,12.06-.41-.48.79-7.05-2.06-8.69.99-1.11,1.91-2.3,2.9-3.41l2.42-1.46c.39-.44.09-1.5.48-1.94l2.42-1.46c1.56-1.75,2.31-4.15,3.38-5.35l2.42-1.46c7.92-8.87,15.18-18.46,23.19-27.24l2.42-1.46c3-3.22,5.58-7.16,8.7-10.22l2.42-1.46c18.5-25.55,42.5-46.04,62.34-69.1l4.63-.45c5.38,20.97,36.73,38.11,42.22,9.19-4.14-1.43-5.91-5.09-5.29-10.98-9.92-.68-13.92-3.69-12-9.03l1.94.48,4.36-.99c1.15-.04,2.67.96,3.88.96l2.42-1.46c1.19.01,2.63.89,3.88.96l4.36-.99c1.05.13,3.1.53,3.88.96Z" fill="#caf0e3"/><path d="M1251.42,250.7l-6.76,2.42c1.53.5,3.81,1.78,4.49,3.12,1.35,2.68-21.08,27.59-25.25,32.29-22.47,25.31-46.13,49.8-68.61,75.12-12.91,14.54-23.51,31.18-39.15,43.21.13-12.23-1.22-24.96-1.1-37.35,34.44-32.92,65.32-68.77,92.63-107.53.16-6.45,2.29-9.85,6.4-10.2,12.4-.19,24.85-1.05,37.35-1.1Z" fill="#daf6e0"/><path d="M1205.83,251.82l1.15,4.44c-23.97,24.45-47.17,49.77-69.58,75.95-8.53,7.99-13.86,9.62-21.04-1.5.11-9.64-2.15-75.36.8-77.9,29.49-1.82,59.15-.51,88.66-.99Z" fill="#d9f3d1"/><path d="M1214.07,251.8c-1.53,4.57-1.69,10.12-3.67,14.43-6.25,13.66-72.13,86.63-86.39,100.37-2.48,2.39-5.64,7.93-8.98,2.93.12-12.93,1.18-25.94,1.32-38.81l4.34-.98,1.94-7.79c7.98-.23-.18,10.36,1.01,12.61,2.81,1.45,3.22.32,5.23-.89,14.86-9.01,42.73-48.38,57.59-63.28l19.35-18.57c2.76-.05,5.51.01,8.25-.03Z" fill="#f4fdf5"/><path d="M1325.64,250.44c.26.06,1.73,2.37,4.2,3.18,2.98.98,14.2,2.81,14.73,3.56.46.66-9.26,11.71,3.91,9.17-4.97,18.58-6.78,25.51-27.31,21.91-16.91-2.97-15.85-14.62-25.09-26.56,1.67-1.94,2.91-8.61,6.75-10.69,7.02.14,14.98-2.44,22.8-.56Z" fill="#c7e9d2"/><path d="M1351.08,314.38c-.23,1.29-.62,2.61-.96,3.88-1.17,4.44-5.41,10.06-6.73,14.81-3.23-6.96-2.67-27,7.68-18.69Z" fill="#cbf3f3"/><path d="M1351.42,271.21l-.51-6.3c-.02.58.58,3.5.51,6.3Z" fill="#c7e9d2"/><path d="M1115.35,460.23c0-.94-.53-3.54-.51-6.3l.51,6.3Z" fill="#cbf3f3"/><path d="M1214.46,643.25c-1.2.01-3.65.48-6.3.51l6.3-.51Z" fill="#cbf3f3"/><path d="M1351,289.64l-.51-6.3c-.01.89.63,3.22.51,6.3Z" fill="#c7e9d2"/><path d="M1115.33,451.99c0-.98-.54-3.52-.51-6.3l.51,6.3Z" fill="#cbf3f3"/><path d="M1351.02,297.89l-.99-4.36c0,.22,1.13,1.49.99,4.36Z" fill="#c7e9d2"/><path d="M1351.87,261.02c-1.83-1.05-1.14-2.68-.99-4.36,1.87,1.06,1.1,2.69.99,4.36Z" fill="#c7e9d2"/><path d="M1331.94,249.93l-4.36.99c1.09-1.99,2.79-.93,4.36-.99Z" fill="#c7e9d2"/><path d="M1346.49,249.4c-.22-.03-1.1,1.15-4.36.99l4.36-.99Z" fill="#c7e9d2"/><path d="M1197.97,643.31c-.22,0-1.45.95-4.36.99l4.36-.99Z" fill="#cbf3f3"/><path d="M1351.45,279.45l-.99-4.36c0,.22,1.05,1.25.99,4.36Z" fill="#c7e9d2"/><path d="M1298.96,250.05c-.69,0-2.42,1.01-4.36.99l4.36-.99Z" fill="#c7e9d2"/><path d="M1350.18,334.76l-1.25-3.33,2.21-.55c0,1.2-.95,2.67-.96,3.88Z" fill="#cbf3f3"/><path d="M1351.84,252.77l-1.46-2.42c1.5.81,1.31.91,1.46,2.42Z" fill="#c7e9d2"/><path d="M1335.82,250.89c.14,0,.87-1.48,2.42-1.46l-2.42,1.46Z" fill="#c7e9d2"/><path d="M1216.1,696.79c-2.7-2.59-3.19-20.75.35-24.25,3.59-3.54,26.71-4.15,30.87,1.26,2.82,3.66,1.77,19.12-1.6,22.5-2.53,2.53-26.84,3.15-29.61.49Z" fill="#9bb4c0"/><path d="M1281.48,521.73c-2.02-4.87,10.77-7.31,12.34,0-.72,6.81-11.57,1.84-12.34,0Z" fill="#cbf3f3"/><path d="M1231.33,332.26c.66-.65,1.61-1.03,2.42-1.46-.52.71-1.59,1.14-2.42,1.46Z" fill="#cbf3f3"/><path d="M1194.6,372.65l2.42-1.46c-.66.74-2,.99-2.42,1.46Z" fill="#cbf3f3"/><path d="M1185.91,382.86l2.42-1.46c-.83.93-2.16,1.17-2.42,1.46Z" fill="#cbf3f3"/><path d="M1188.81,379.46l2.42-1.46c-.69.77-2.02,1.02-2.42,1.46Z" fill="#cbf3f3"/></svg>