<?xml version="1.0" encoding="UTF-8"?>
<svg id="a" data-name="Слой 1" xmlns="http://www.w3.org/2000/svg" width="512" height="512" viewBox="0 0 512 512">
  <path d="M213.79,65.05c-4.07-14.33-9.2-26.2-19.43-44.66-.01-.16-.03-.33-.04-.49-.11-1.47-.96-2.68-2.13-3.38-.41-.72-.8-1.42-1.22-2.17-.02-.03-.05-.05-.06-.08,0,0,0,0,0,0-.03-.05-.05-.11-.08-.16,0,0,0,0,0,0,0,0,0,0,0,0-.03-.05-.07-.08-.11-.13-.11-.15-.23-.3-.36-.43-.08-.08-.15-.17-.23-.24-.02-.02-.03-.04-.05-.06,0,0,0,0,0,0-.01,0-.02-.01-.03-.02-.12-.11-.26-.19-.39-.28-.07-.05-.13-.11-.2-.16,0,0,0,0,0,0h0s-.03-.01-.05-.02c-.03-.02-.06-.04-.09-.06-.06-.03-.12-.05-.18-.08-.21-.11-.43-.2-.66-.28-.02,0-.04-.02-.06-.03h0s0,0,0,0c-.07-.02-.14-.02-.21-.04-.04,0-.07-.04-.11-.04-.06-.01-.12-.01-.19-.02-.11-.02-.22-.03-.33-.04-.06,0-.12-.02-.18-.02-.12,0-.24,0-.36,0-.06,0-.12,0-.18,0h0s-.06.01-.09.02c-.04,0-.09,0-.13,0-.03,0-.05.02-.08.02-.03,0-.06,0-.09,0,0,0,0,0,0,0-.1.02-.2.05-.3.08-.09.02-.18.04-.26.07-.08.03-.17.06-.25.09-.07.03-.13.06-.2.09-.02,0-.04.02-.07.03-.08.04-.16.06-.24.1-.02,0-.03.01-.05.02-.03.01-.04.04-.06.05-.09.05-.18.11-.26.17-.05.03-.11.05-.16.09-.02.02-.04.04-.06.05-.1.08-.19.17-.29.26-.1.09-.21.18-.3.28,0,0-.02.02-.03.03h0s-.01.03-.02.04c-.07.08-.13.18-.2.27-.07.09-.14.17-.2.26,0,0,0,0,0,0,0,0,0,0,0,0-.01.02-.02.05-.03.07-.03.05-.06.09-.09.14-.04.07-.06.14-.09.21-.1.21-.2.42-.26.64,0,.03-.02.05-.03.08-.02.06-.02.12-.03.18,0,.03-.03.06-.04.09-4.35,19.48-8.23,31.31-11.07,39.95-1.62,4.95-2.9,8.86-3.75,12.59-.1.42-.14.84-.12,1.26.03.66.22,1.29.53,1.85.31.57.75,1.07,1.29,1.46.39.28.83.5,1.31.64.5.15,1,.2,1.49.18.03,0,.06,0,.08,0,.63-.05,1.24-.23,1.79-.53.55-.31,1.04-.73,1.43-1.26.24-.34.44-.71.59-1.12,3-8.19,5.73-15.93,8.43-25.49,8.28,111.78,28.69,383.15,34.35,454.73.18,2.3,2.12,4.05,4.39,4.03.87,1.01,2.2,1.6,3.63,1.49h0c2.41-.18,4.21-2.28,4.03-4.69-3.55-47.47-13.75-179.66-22.76-296.29-4.82-62.41-9.29-120.28-12.19-158.14,1.33,3.23,2.43,6.06,3.41,8.59,2.09,5.39,3.75,9.65,6.02,13.62.18.33.39.62.64.89.43.46.95.82,1.52,1.05.6.25,1.25.37,1.92.33.03,0,.06,0,.09,0,.46-.03.92-.14,1.37-.33.47-.2.9-.48,1.26-.81.48-.44.85-.98,1.09-1.57.24-.59.35-1.23.32-1.89-.02-.35-.08-.7-.19-1.04Z" fill="#8c8c8c" opacity=".8"/>
  <path d="M488.76,319.53c.01-.12.02-.24.02-.36,0-.04.01-.08.01-.12,0-.04-.01-.07-.01-.11,0-.03,0-.05,0-.08,0-.03-.02-.06-.02-.1,0-.04,0-.08,0-.12,0-.04-.02-.07-.03-.1-.02-.12-.05-.24-.08-.35-.02-.09-.05-.17-.08-.26-.02-.06-.04-.12-.06-.18,0-.02,0-.03-.01-.05-.03-.08-.09-.15-.13-.23-.04-.07-.08-.15-.12-.22-.04-.07-.08-.15-.12-.21,0,0,0-.01,0-.02-.02-.03-.06-.06-.08-.09-.05-.07-.11-.14-.17-.21-.01-.01-.02-.03-.04-.05-.05-.06-.09-.13-.15-.18-.02-.02-.05-.04-.08-.06-.1-.1-.22-.18-.33-.27,0,0-.02-.01-.02-.02-.12-.09-.24-.19-.37-.27-.03-.02-.05-.04-.08-.06-.15-.09-.32-.16-.48-.23-.04-.02-.08-.05-.12-.06,0,0-.02,0-.02,0-.01,0-.02-.01-.04-.02-8.35-3.36-21.24-6.1-34.9-9.01-2.64-.56-5.32-1.13-7.98-1.71-3.67-1.1-7.25-1.97-10.77-2.43-.43-.06-.86-.06-1.29,0-.66.09-1.28.31-1.82.65-.53.33-.99.76-1.33,1.28-.26.39-.45.82-.55,1.28-.1.46-.12.92-.05,1.36.09.6.32,1.16.67,1.65.35.5.83.92,1.39,1.23.36.2.75.35,1.18.45,3.27.78,6.67,1.54,10.09,2.29,3.04.92,6.2,2.01,9.45,3.14.05.02.1.03.14.05-107.84,7.77-370.79,28.35-435.8,33.53-2.41.19-4.21,2.14-4.04,4.36.02.24.06.48.12.7-1.43.76-2.34,2.22-2.22,3.82.17,2.21,2.26,3.86,4.66,3.68h0c70.5-5.42,336.84-27.37,443.13-36.19-1.78.81-3.55,1.62-5.27,2.43-6.61,2.38-12.92,5.11-18.9,9.35-.34.23-.63.5-.88.8-.4.49-.67,1.04-.81,1.62-.13.58-.13,1.18.02,1.77.11.44.31.86.59,1.25.28.39.62.72,1,.99.53.37,1.13.61,1.76.72.39.07.8.09,1.21.06.24-.02.48-.05.72-.11.39-.09.77-.23,1.14-.42,5.54-2.85,11.61-5.86,17.63-8.69,2.2-.79,4.48-1.55,6.84-2.34,7.64-2.57,16.29-5.47,25.24-10.31.04-.02.08-.06.12-.08.04-.02.09-.04.13-.06.06-.03.1-.08.16-.12.1-.07.21-.13.31-.21.03-.02.06-.04.09-.06.03-.03.05-.06.08-.08.07-.06.14-.13.21-.2.09-.09.17-.18.25-.27.06-.07.11-.13.17-.2.02-.03.06-.06.08-.09.03-.04.04-.08.07-.11.05-.08.1-.17.15-.26.03-.05.06-.1.08-.15.01-.02.03-.04.04-.06,0,0,0,0,0-.01.03-.06.05-.13.07-.19.04-.1.07-.2.1-.3.02-.07.06-.14.08-.22,0-.02,0-.05.01-.07.01-.06.02-.11.03-.17.02-.1.03-.19.04-.29Z" fill="#8c8c8c" opacity=".8"/>
  <g>
    <g isolation="isolate">
      <path d="M465.76,378.52l-6.62,7.23-8.04,9.29,17.48,19.6c.89.98,1.38,1.98,1.45,2.98.09,1.27-.31,2.43-1.21,3.48-.9,1.05-1.97,1.62-3.21,1.71-1.24.09-2.41-.42-3.5-1.55-3.26-3.26-9.03-9.56-17.33-18.92l-8.78,10.53c-1.79,1.87-4.39,4.77-7.79,8.69-.95,1.25-2.03,1.92-3.24,2.01-1.24.09-2.37-.31-3.41-1.22-1.03-.9-1.6-1.99-1.69-3.26-.08-1.01.25-2.06.99-3.17.82-1.27,2.13-2.83,3.92-4.66,2.1-2.15,3.47-3.63,4.13-4.44l9.58-11.67-7.09-8.75c-2.85-3.48-5.3-6-7.34-7.55-1.32-1.01-2.03-2.17-2.13-3.47-.1-1.3.28-2.49,1.13-3.57.85-1.08,1.88-1.66,3.08-1.75,1.92-.14,5,2.14,9.26,6.87l9.32,11.03,8.91-9.51c3.69-4.04,6.15-7.17,7.39-9.39.93-1.61,2.1-2.47,3.54-2.58,1.27-.1,2.43.29,3.48,1.16,1.05.87,1.62,1.92,1.71,3.16.13,1.79-1.19,4.36-3.99,7.71Z" fill="#8c8c8c"/>
    </g>
    <g isolation="isolate">
      <path d="M503.36,432.18l-6.35.48-6.32.44c-1.49.11-2.54.09-3.15-.05-1.12-.3-1.72-1.07-1.81-2.3-.16-2.15,1.43-3.35,4.77-3.6l1.54-.08,1.31-.03c-.08-1.02-.28-2.53-.61-4.51-.33-1.99-.53-3.48-.61-4.48-.2-2.7-.27-6.83-.19-12.37.06-5.46-.03-9.6-.26-12.4-2.69,2.43-4.42,3.67-5.21,3.73-.85.06-1.61-.2-2.29-.79-.68-.59-1.04-1.3-1.11-2.13-.08-1,.75-2.28,2.47-3.85,1.09-.89,2.62-2.31,4.59-4.26,1.73-2.03,3.45-3.12,5.15-3.24,1.43-.11,2.2.66,2.32,2.3.04.49.03,1.22-.03,2.2-.05.98-.06,1.71-.03,2.2.05.7.17,1.76.35,3.18.18,1.42.3,2.48.35,3.18.18,2.43.2,6.06.05,10.91-.15,4.85-.13,8.47.05,10.88.09,1.23.29,2.73.59,4.48.3,1.75.51,3.19.61,4.32l3.35-.32c.89-.07,1.66.17,2.29.71s.98,1.25,1.04,2.12c.07.89-.17,1.65-.71,2.27-.54.62-1.26.96-2.15,1.03Z" fill="#8c8c8c"/>
    </g>
  </g>
  <g>
    <g isolation="isolate">
      <path d="M91.23,24.05l-6.62,7.23-8.04,9.29,17.48,19.6c.89.98,1.38,1.98,1.45,2.98.1,1.27-.31,2.43-1.21,3.48-.9,1.05-1.97,1.62-3.21,1.71-1.24.09-2.41-.43-3.5-1.55-3.26-3.26-9.03-9.56-17.33-18.92l-8.78,10.53c-1.79,1.87-4.39,4.77-7.79,8.69-.95,1.25-2.03,1.92-3.24,2.01-1.24.09-2.37-.31-3.41-1.22-1.03-.9-1.6-1.99-1.69-3.26-.08-1.01.25-2.06.99-3.17.82-1.27,2.13-2.83,3.92-4.67,2.1-2.15,3.47-3.63,4.13-4.43l9.58-11.67-7.09-8.75c-2.85-3.48-5.29-6-7.34-7.55-1.32-1.01-2.03-2.17-2.13-3.47-.1-1.3.28-2.49,1.13-3.57.85-1.08,1.88-1.66,3.08-1.75,1.92-.14,5,2.14,9.25,6.86l9.32,11.03,8.91-9.51c3.69-4.04,6.15-7.17,7.39-9.39.93-1.61,2.11-2.47,3.54-2.57,1.27-.1,2.43.29,3.47,1.16,1.05.87,1.62,1.92,1.71,3.16.13,1.79-1.19,4.36-3.99,7.71Z" fill="#8c8c8c"/>
    </g>
    <g isolation="isolate">
      <path d="M138.53,77.02c-.53.04-1.29-.07-2.29-.33-.99-.26-1.75-.37-2.26-.33-1.08.08-2.71.27-4.87.56-2.16.29-3.79.48-4.9.56-.83.06-2.05.26-3.66.6-1.61.34-2.83.53-3.66.6-.23.02-.58,0-1.03-.05-.45-.05-.8-.07-1.03-.05-1.47.11-2.48-.53-3.03-1.92-.31-.73-.54-1.99-.67-3.8-.37-4.96.68-9.05,3.15-12.27,1.13-1.48,4.27-4.28,9.41-8.41,2.89-2.31,4.79-4.09,5.73-5.34,1.67-2.18,2.41-4.64,2.2-7.39-.1-1.36-1.08-2.51-2.92-3.44-1.63-.84-3.18-1.2-4.67-1.09-1.96.15-3.78.85-5.46,2.11l-4.29,3.92c-.86.79-1.57,1.21-2.12,1.25-2.19.17-3.35-.62-3.48-2.37-.08-1,.26-1.89,1.02-2.68,2.31-2.53,4.35-4.38,6.1-5.56,2.46-1.66,5.06-2.6,7.78-2.8,3.45-.26,6.59.45,9.43,2.11,3.18,1.88,4.89,4.47,5.14,7.77.16,2.17,0,4.19-.47,6.07-.48,1.88-1.29,3.62-2.43,5.22-1.45,2.04-3.99,4.38-7.62,7.02-3.81,2.81-6.3,4.91-7.45,6.31-2.18,2.62-3.11,5.68-2.81,9.17l6.53-1.1c4.49-.6,7.71-.97,9.64-1.11,1.62-.12,3.17.04,4.66.48,1.97.6,3.01,1.56,3.11,2.88.06.83-.17,1.59-.7,2.28-.53.69-1.21,1.07-2.06,1.13Z" fill="#8c8c8c"/>
    </g>
  </g>
  <g>
    <path d="M40.96,356.28c-.24.02-.48,0-.72-.07h0s0,0,0,0c0,0,0,0,0,0,0,0,0,0,0,0,0,0,0,0,0,0h0s0,0,0,0c0,0,0,0,0,0h0s0,0,0,0h0c-.2-.06-.4-.15-.58-.26,0,0,0,0,0,0,0,0,0,0,0,0h0s-.03-.02-.04-.03c-.24-.17-.44-.37-.59-.6-.15-.23-.25-.48-.31-.75h0s0,0,0,0c-.07-.35-.06-.72.04-1.07,0,0,0,0,0,0,0,0,0,0,0,0h0c.06-.21.16-.41.29-.61,26.14-38.2,55.77-81.5,83.8-112.41.15-.17.33-.32.52-.43.29-.17.6-.27.93-.3h0s0,0,0,0c.27-.02.63.01.93.12,0,0,0,0,0,0,.23.09.45.21.65.38.19.16.35.35.47.56h0s0,0,0,0c.17.28.26.59.29.91h0c.03.33-.01.66-.13.98-.08.2-.19.4-.33.58-39.12,50.63-63.33,83.11-83.55,112.1h0c-.12.17-.26.32-.41.45h0s0,0,0,0h0s0,0,0,0h0s0,0,0,0h0s0,0,0,0h0c-.32.26-.71.42-1.12.46h0s0,0,0,0h0s0,0,0,0h0s0,0,0,0h0s0,0,0,0h-.07ZM87.3,352.64c-.28.02-.57-.01-.84-.1-.22-.07-.44-.18-.63-.33-.21-.16-.39-.35-.53-.57-.17-.26-.28-.56-.32-.86h0c-.05-.33-.02-.68.09-1,.07-.2.16-.4.29-.58,7.34-10.6,14.75-20.26,25.02-33.63,3.82-4.98,8.06-10.5,12.84-16.79,2.19-3.12,4.37-6.22,6.53-9.32,13.54-19.35,26.34-37.63,39.36-52.63.15-.17.32-.32.5-.43h0s0,0,0,0c.28-.18.59-.28.91-.32,0,0,0,0,0,0,.31-.04.63,0,.94.1.24.08.47.2.68.37.19.15.35.33.48.53.18.29.29.61.33.93h0c.03.32,0,.64-.11.95-.07.21-.17.4-.31.59-19.61,27.12-34.27,46.68-45.78,61.81-11.83,16.82-24.16,33.95-37.91,50.47-.15.18-.32.34-.51.46-.26.17-.56.28-.86.32-.05,0-.11.01-.16.02ZM133.65,349.02c-.28.02-.57-.01-.85-.1-.24-.08-.46-.2-.67-.36-.2-.16-.37-.35-.5-.56h0c-.17-.28-.28-.58-.31-.89h0s0,0,0,0c-.04-.32,0-.65.1-.96h0c.07-.22.18-.42.32-.61,4.81-6.53,9.56-13,14.26-19.39,9.79-13.33,19.32-26.3,28.6-38.77,11.2-16.43,20.9-30.59,29.24-38.52.15-.14.31-.26.49-.36.3-.16.62-.24.95-.26h0s0,0,0,0c.31-.01.63.04.93.16.23.09.45.23.64.4.19.17.34.37.45.58.16.29.24.61.26.93.02.32-.04.64-.17.95-.08.19-.18.36-.31.53-9.35,12-18.98,24.77-28.92,38.12-.15.22-.3.45-.46.67-12.12,17.78-25.86,37.93-42.52,57.66-.15.18-.32.33-.51.45-.29.18-.61.29-.93.33h0s-.05,0-.07,0ZM179.99,345.38c-.26.02-.53,0-.79-.09-.24-.07-.46-.18-.67-.34-.2-.15-.38-.33-.51-.53-.19-.27-.3-.58-.35-.9-.05-.32-.03-.65.07-.97.05-.18.13-.35.24-.52,2.08-3.47,4.66-6.7,7.88-10.63,1.21-1.8,2.45-3.69,3.71-5.61,6.12-9.31,12.45-18.94,18.84-24.55.13-.11.26-.21.41-.29.29-.16.61-.24.93-.27.31-.02.63.03.94.15.23.09.45.22.64.39.19.17.35.37.47.59.16.28.24.59.27.91.02.32-.03.65-.15.96-.06.16-.14.31-.24.45-9.66,14.46-16.57,22.9-21.62,29.06-.23.28-.46.56-.69.84-2.78,4.14-5.43,7.86-7.88,10.6-.13.15-.27.28-.43.38-.27.19-.58.31-.9.35-.06,0-.11.01-.17.02ZM36.44,303.82c-.21.02-.43,0-.65-.05-.25-.06-.48-.15-.7-.3-.21-.14-.39-.31-.54-.5-.2-.26-.34-.55-.4-.86-.07-.32-.07-.65,0-.97.04-.18.11-.35.19-.51,6.35-12.69,15.53-23.45,24.41-33.87,1.85-2.17,3.67-4.31,5.45-6.43,4-5.46,8.06-10.9,12.14-16.11.14-.19.31-.35.5-.47.26-.18.55-.3.86-.35h0c.32-.06.65-.04.96.05.24.07.47.18.69.33.2.15.37.32.51.51.19.27.32.58.37.9h0s0,0,0,0c.05.32.04.65-.05.97,0,0,0,0,0,0,0,0,0,0,0,0-.06.21-.15.41-.27.59-3.63,5.64-7.8,10.93-12.26,16.28-2.69,3.68-5.36,7.37-7.99,11.01-7.48,10.35-14.54,20.12-21.65,28.94-.11.15-.24.28-.39.39-.26.2-.57.34-.88.41-.1.02-.2.04-.3.04ZM31.93,251.36c-1.2.09-2.26-.81-2.36-2.02s.8-2.25,2.01-2.34h.02c1.21-.09,2.25.81,2.34,2.01s-.81,2.25-2.02,2.34Z" fill="#575956" opacity=".5"/>
    <path d="M176.45,347.99c-11.77.89-24.23,1.45-38.04,2.07-9.29.62-18.85,1.23-28.76,1.87-20.67,1.32-44.1,2.82-69.76,4.74-.07,0-.14.01-.2.01-.46.02-.91-.03-1.33-.15-.04-.01-.08-.02-.12-.04-.07-.02-.14-.04-.21-.07-.54-.19-1.03-.49-1.45-.87-.45-.41-.82-.91-1.08-1.49-.02-.04-.04-.08-.05-.13-.02-.06-.04-.11-.06-.17,0,0,0,0,0,0t0,0c-.14-.4-.23-.83-.24-1.28,0-.05,0-.1,0-.16-.17-10.53-.42-20.35-.75-29.46-1.16-18.69-3.54-41.34-6.98-73.17-.05-.44-.04-.87.04-1.29.02-.13.05-.25.09-.38,0-.04.02-.08.03-.12,0,0,0,0,0,0,0,0,0,0,0,0,.16-.52.41-1,.73-1.42.36-.46.81-.85,1.33-1.14.12-.07.24-.13.37-.18,0,0,0,0,0,0t0,0l.1-.04h0s0,0,0,0h0c.34-.14.71-.24,1.1-.28.13-.02.26-.02.39-.03,17.92-.94,34.6-1.87,50.09-2.81,16.76-1.3,33.51-2.85,49.97-4.38,25.44-2.37,49.47-4.6,72.02-5.76.41-.02.82,0,1.21.09,0,0,0,0,0,0,.09.02.18.04.27.07.04.01.09.03.13.04.55.18,1.06.47,1.49.84l.05.04c.41.36.76.8,1.01,1.3,0,0,0,0,0,0h0c.05.09.09.18.13.27,0,0,0,0,0,0h0s.03.08.05.12c0,0,0,0,0,0,.15.38.25.8.28,1.23,1.61,17.84,2.54,34.86,3.37,49.88.11,1.94.21,3.85.32,5.74.22,2.56.45,5.22.69,7.99.97,11.12,2.09,24.07,3.38,39.46.04.4.02.79-.05,1.17h0s0,0,0,0c0,.04-.02.08-.02.12,0,0,0,0,0,0h0s-.02.1-.03.14h0s0,0,0,0c-.15.6-.42,1.16-.79,1.63-.35.46-.8.85-1.32,1.14,0,0,0,0,0,0-.05.03-.1.05-.15.08,0,0,0,0,0,0-.04.02-.08.04-.12.06,0,0,0,0,0,0h0c-.35.17-.74.29-1.14.36-11.75,2.08-23.48,3.38-35.97,4.32ZM137.91,341.33c24.42-1.64,46.9-3.36,68.83-5.81-1.68-12.7-2.58-27.14-3.48-43.41-2-23.05-3.2-37.79-3.58-50.93-26.5,3.25-65.19,6.4-117.35,9.55-15.11,1.17-30.27,2.13-45.26,2.66,3,16.05,4.98,38.6,6.08,69.39.55,8.91.82,16.96.8,24.71,37.63-3.64,66.61-4.93,92.3-6.08.56-.03,1.12-.05,1.68-.08Z" fill="#575956"/>
  </g>
  <g>
    <path d="M184.7,462.95c-.26.02-.52,0-.77-.08h0c-.24-.07-.47-.18-.68-.34,0,0,0,0,0,0h0c-.2-.15-.38-.33-.51-.53,0,0,0,0,0,0,0,0,0,0,0,0h0c-.18-.27-.3-.57-.35-.88-.05-.32-.03-.66.06-.97h0s0,0,0,0c.07-.22.17-.43.3-.62,2.6-3.73,5.2-7.33,7.79-10.83-7.13-5.22-14.94-11.05-23.73-17.65-5.99,7.8-11.99,15.52-18.17,23.47,2.27,1.85,4.46,3.72,6.58,5.67.13.12.25.25.35.39.19.27.31.57.36.87.06.31.04.64-.05.96-.07.24-.17.47-.32.68-.15.21-.33.39-.53.53-.27.19-.57.31-.88.36-.31.06-.64.04-.95-.05-.17-.05-.33-.11-.48-.2-2.62-1.39-5.18-2.93-7.69-4.58l-3.77,4.84c-.15.19-.32.35-.5.48-.27.18-.57.3-.87.35-.34.06-.67.04-1-.07-.22-.07-.44-.18-.64-.32-.21-.15-.38-.33-.52-.53t0,0s0,0,0,0c-.18-.27-.3-.57-.35-.89h0s0,0,0,0c-.05-.32-.03-.65.06-.96,0,0,0,0,0,0h0c.06-.21.16-.42.29-.61,1.12-1.65,2.25-3.3,3.39-4.96-6.71-4.81-13.09-10.32-19.32-15.71-1.04-.9-2.08-1.79-3.11-2.68-5.47,7.5-11.01,14.36-17.38,20.97-.15.16-.33.3-.51.4-.29.17-.63.26-.93.28h0c-.31.02-.62-.02-.92-.14-.24-.09-.46-.22-.66-.4-.19-.16-.34-.36-.46-.56h0c-.16-.29-.26-.61-.28-.93s.02-.65.14-.96h0s0,0,0,0c.08-.2.19-.39.32-.56,5.35-6.89,10.63-13.94,16.12-21.39-5.35-3.82-11.2-8.07-17.75-12.99-.16-.12-.31-.26-.43-.41-.2-.25-.34-.55-.42-.86-.07-.31-.08-.64-.01-.97.05-.24.14-.47.28-.69.13-.22.3-.4.49-.55.26-.21.56-.35.87-.42.31-.07.63-.08.95-.01.19.04.38.11.56.2,6.01,2.99,12.06,7.59,18.31,12.81,3.65-4.98,7.41-10.16,11.37-15.6,2.03-2.79,4.09-5.62,6.2-8.53-7.43-5.59-15.35-11.54-23.93-17.97-1.2,1.56-2.4,3.12-3.61,4.68-2.78,4.19-5.61,7.98-8.94,11.36-.15.16-.33.29-.51.4h0s0,0,0,0c-.29.16-.58.24-.92.27-.32.02-.65-.03-.96-.16-.22-.09-.43-.22-.62-.39-.19-.17-.35-.37-.47-.58-.16-.29-.25-.6-.27-.92h0c-.02-.32.03-.65.15-.95.08-.2.19-.39.33-.56,2.93-3.68,5.81-7.35,8.65-11.01,1.08-1.62,2.15-3.31,3.25-5.07-4.47-3.34-9.12-6.81-13.96-10.42h0c-.19-.14-.35-.31-.48-.49h0s0,0,0,0h0s0,0,0-.01h0c-.19-.27-.31-.57-.36-.89h0s0,0,0,0t0,0h0s0,0,0,0c0,0,0,0,0,0h0c-.05-.32-.03-.66.07-.97h0s0,0,0,0c0,0,0,0,0,0,0,0,0,0,0,0,.07-.21.16-.41.3-.6,0,0,0,0,0,0,.16-.23.37-.42.59-.57h0s0,0,0,0c.25-.16.52-.27.81-.32h0c.33-.06.68-.04,1.01.06,0,0,0,0,0,0,.22.07.43.17.63.31,4.87,3.44,9.51,6.73,13.93,9.88,4.4-7.06,9.61-15.26,17.11-24.43-3.22-2.52-6.33-4.99-9.29-7.4,0,0,0,0,0,0h0s0,0,0,0c0,0,0,0,0,0,0,0,0,0,0,0h0c-.16-.13-.3-.29-.41-.45h0s0,0,0-.01c0,0,0,0,0,0,0,0,0,0,0,0h0s0,0,0,0c0,0,0,.02,0,0h0s0,0,0,0h0c-.18-.28-.29-.59-.33-.91h0s0,0,0,0c0,0,0,0,0,0h0s0,0,0,0h0s0,0,0,0h0c-.04-.35,0-.7.13-1.03,0,0,0,.02,0,0h0s0,0,0,0h0s0,0,0,0h0s0,0,0,0c0,0,0,0,0,0,0,0,0,0,0,0h0c.07-.19.18-.37.31-.53,0,0,0,0,0,0,0,0,0,0,0,0h0s0,0,0,0h0c.18-.22.39-.4.62-.53h0s0,0,0,0t0,0s0,0,0,0c0,0,0,0,0,0,0,0,0,0,0,0,0,0,0,0,0,0h0c.22-.12.45-.2.69-.24h0s0,0,0,0h0s0,0,0,0h0s0,0,0,0c0,0,0,0,0,0h0s0,0,0,0h0c.32-.04.67-.02.99.09,0,0,0,0,0,0,0,0,0,0,0,0s0,0,0,0c0,0,0,0,0,0,0,0,0,0,0,0h0c.23.08.45.2.64.36l6.16,4.87c1.08.85,2.15,1.7,3.22,2.55,2.29-2.67,4.79-5.42,7.51-8.24.14-.15.3-.28.47-.38.28-.17.59-.27.91-.3.33-.02.64,0,.96.12.23.08.45.21.65.37.2.16.36.35.49.56.17.28.27.6.3.92.03.32,0,.65-.12.96-.07.18-.16.36-.28.53-2.11,3.03-4.22,6.03-6.35,9.03,7.31,5.62,15.17,11.48,23.39,17.53,5.62-7.6,11.9-15.76,19-24.54-1.54-1.19-3.13-2.44-4.77-3.75-.15-.11-.28-.24-.39-.38-.2-.26-.34-.55-.41-.86-.07-.31-.08-.65,0-.97.05-.24.15-.47.28-.69.14-.22.3-.4.5-.55.26-.2.55-.34.87-.41.31-.07.64-.08.96,0,.18.04.35.1.52.18,2.02.97,3.99,2.04,5.92,3.2,1.11-1.35,2.23-2.71,3.38-4.09.15-.18.31-.32.49-.44h0s0,0,0,0c.29-.19.62-.3.96-.34h0s.04,0,.06,0c.31-.02.63.02.93.13h0s0,0,0,0c.21.08.42.2.61.35.2.16.36.35.49.56h0s0,0,0,.01h0c.16.27.26.56.3.87h0s0,0,0,0h0s0,0,0,0h0c.04.33,0,.67-.11.98h0s0,0,0,0c0,0,0,0,0,0-.08.21-.19.42-.33.6-.99,1.28-1.97,2.54-2.94,3.79,6.06,4.06,11.91,8.93,18.34,14.29,1.38,1.15,2.77,2.31,4.19,3.48.45.32.89.63,1.33.94,2.5-3.17,5.04-6.36,7.6-9.56.15-.19.32-.35.51-.47h0s0,0,0,0c.27-.18.57-.29.88-.34.32-.05.65-.03.97.07h0s0,0,0,0c.24.07.47.19.68.35.19.14.35.32.48.51.19.28.32.6.36.93.04.32.02.64-.08.96h0s0,0,0,0c-.07.21-.17.42-.3.6-2.37,3.43-4.7,6.76-6.98,10,2.39,1.83,4.57,3.66,6.59,5.62.16.15.29.32.4.51.16.28.25.59.28.91.03.33-.02.66-.15.98-.09.22-.21.43-.37.61-.17.2-.36.35-.57.48-.29.17-.64.26-.94.29-.32.02-.64-.02-.94-.14-.2-.08-.38-.18-.56-.32-2.26-1.72-4.41-3.4-6.47-5.06-6.32,8.95-12.31,17.24-18.1,25.12,7.62,5.56,15.35,11.23,23.18,17.05,1.84-2.14,3.77-4.26,5.8-6.34.14-.15.3-.28.47-.38.28-.17.6-.27.92-.3.32-.05.64.01.95.13.23.09.45.21.65.38.2.17.36.36.48.57.17.28.26.59.29.91.03.32-.01.65-.13.95-.07.19-.17.37-.29.54-1.63,2.29-3.26,4.53-4.88,6.72,1.14.85,2.27,1.7,3.41,2.56.19.14.36.31.49.5h0s0,0,0,0c.18.26.31.57.36.88.06.32.04.65-.05.97t0,0h0c-.07.23-.17.46-.31.66-.15.21-.33.39-.54.54-.26.18-.56.31-.87.36-.33.05-.66.04-.99-.05h0s0,0,0,0c-.22-.06-.42-.16-.62-.29-1.22-.81-2.44-1.63-3.64-2.43-3.24,4.32-6.45,8.5-9.6,12.59-2.84,3.69-5.72,7.44-8.62,11.3,2.05,1.61,4.07,3.21,6.09,4.79l4.44,3.49c.19.15.35.32.48.51.18.27.3.58.34.9h0s0,0,0,0h0c.04.31.02.63-.07.94-.07.24-.19.47-.34.68h0s0,0,0,0c-.15.2-.33.37-.53.5-.28.18-.59.3-.91.35h0c-.31.03-.63.02-.93-.07h0s0,0,0,0c-.22-.07-.44-.17-.64-.31-3.46-2.44-7.07-5.03-10.86-7.79-2.49,3.62-5.07,7.25-7.81,10.81-.14.19-.31.35-.5.48h0s0,0,0,0c-.28.19-.59.31-.92.36h0s0,0,0,0c-.05,0-.1.01-.16.02ZM121.25,434.48c1.73,1.23,3.42,2.41,5.05,3.57,6.86,4.84,12.86,9.07,18.33,13.29,5.42-7.8,11.14-15.84,17.13-24.09-4.46-3.36-9.17-6.9-14.16-10.66-3.04-2.29-6.17-4.65-9.38-7.06-1.35,2.01-2.67,3.97-3.95,5.88-4.61,6.88-8.84,13.17-13.03,19.07ZM170.27,426.52c8.63,6.57,16.12,12.39,23.19,17.94.71-1.06,1.42-2.11,2.13-3.16,4.69-6.98,9.49-14.12,15.05-21.03-8.17-5.56-15.91-10.99-23.34-16.35-5.8,7.83-11.42,15.28-17.02,22.61ZM141.33,404.93c8.94,6.55,16.76,12.37,23.81,17.7,5.4-7.37,11.01-14.89,16.84-22.57-8.27-6.04-16.18-12-23.91-17.94-5.69,7.65-10.96,14.82-15.94,21.65-.27.39-.53.78-.79,1.16ZM113.58,384.87c8.89,6.36,16.9,12.14,24.18,17.45.26-.36.52-.72.78-1.07,4.64-6.81,9.75-14.17,15.58-22.17-7.74-5.98-15.33-11.95-22.98-17.99-5.73,7.99-11.57,15.89-17.56,23.78ZM161.14,378.01c5.73,4.2,11.62,8.49,17.6,12.84,2.19,1.59,4.39,3.19,6.6,4.81,6.16-8.07,12.55-16.31,19.15-24.7-.4-.33-.8-.66-1.2-.99-1.71-1.2-3.51-2.44-5.43-3.76-5.04-3.47-10.97-7.54-18.02-12.85-6.75,8.78-12.94,16.96-18.7,24.66ZM92.13,353.03c-1.2.09-2.26-.81-2.36-2.02s.8-2.25,2.01-2.34h.02c1.21-.09,2.25.81,2.34,2.01s-.81,2.25-2.02,2.34Z" fill="#575956" opacity=".5"/>
    <path d="M183.32,465.11c-13.95,1.05-27.91,1.8-41.63,2.53-14.47.77-28.15,1.51-40.68,2.55h-.16c-.52.04-1.02-.02-1.5-.16l-.05-.02h0c-.56-.17-1.06-.45-1.5-.82-.53-.44-.96-1.01-1.23-1.67-.01-.02-.02-.05-.03-.07-.17-.43-.28-.89-.3-1.37h0c-1.24-20.05-2.75-39.27-5.24-71.07-.03-.23-.05-.46-.08-.69-1.88-16.98-3.5-31.66-3.35-43.5,0-.42.06-.82.17-1.21.02-.08.05-.16.08-.25.01-.04.03-.08.04-.12.21-.54.52-1.02.91-1.43.42-.44.93-.8,1.51-1.03h0s0,0,0,0c.06-.03.13-.05.19-.07.03-.01.06-.02.09-.03,0,0,0,0,0,0h0c.4-.13.83-.21,1.27-.22,23.5-.75,48.64-3.19,70.82-5.35,20.59-2,38.37-3.73,51.38-3.85.07,0,.14,0,.21,0,.33,0,.66.05.97.13.08.02.16.04.24.07,0,0,0,0,0,0h0c.16.05.31.11.46.17.53.23,1,.56,1.39.97.34.35.62.76.83,1.22h0s0,0,0,0c.03.06.06.13.08.19.06.15.11.3.15.46.07.26.12.52.14.79,2.45,22.31,3.66,45.08,4.74,65.18,1.04,19.38,1.94,36.23,3.67,48.11.07.45.13.89.2,1.34.03.17.05.33.06.51.02.36,0,.71-.07,1.05h0s0,0,0,0h0s0,0,0,0c0,0,0,0,0,0h0s0,.01,0,0c0,0,0,0,0,0h0s0,0,0,0c0,0,0,0,0,0h0s0,0,0,0h0,0s0,0,0,0c-.03.14-.07.29-.11.43-.18.59-.49,1.13-.89,1.58-.33.37-.72.69-1.16.94h0s0,0,0,0h0s0,0,0,0h0c-.16.09-.33.17-.5.24-.35.14-.71.23-1.09.28-13.19,1.83-26.61,3.12-40.03,4.13ZM99.7,394.2c2.18,19.74,4.61,41.93,5.18,66.81,8.92-.92,17.16-1.78,24.8-2.58,41.58-4.36,65.87-6.9,88.03-6.34-8.83-59.1-10.96-84.38-8.58-105.65-25.84,2.03-45.41,3.93-61.33,5.47-22.94,2.22-37.8,3.66-51.12,3.47,1.15,14.83,2.14,27.58,3.02,38.83Z" fill="#575956"/>
  </g>
  <g>
    <path d="M325.11,398.87c-.29.02-.57-.01-.85-.11h0s0,0,0,0c-.22-.07-.43-.18-.62-.32-5.73-4.24-11.36-8.4-16.94-12.52-21.07-15.56-40.97-30.25-63.7-47.58-.18-.13-.34-.29-.46-.47-.19-.27-.32-.57-.38-.89h0c-.06-.32-.05-.65.04-.97.06-.23.16-.46.31-.66.14-.21.31-.38.51-.52.27-.2.58-.33.9-.39.32-.06.65-.05.97.04,0,0,0,0,0,0h0c.21.06.4.14.59.26,35.18,21.78,52.85,36.68,71.56,52.45,3.07,2.59,6.14,5.18,9.31,7.81.19.15.34.33.47.53t0,0h0c.17.28.28.58.32.9.04.32,0,.65-.1.96,0,0,0,0,0,0h0c-.08.23-.19.44-.34.63-.16.21-.35.38-.57.51h0s0,0,0,0c-.27.17-.58.28-.89.32h0s-.06,0-.09,0ZM218.45,406.64c-1.2.09-2.26-.81-2.36-2.02s.8-2.25,2.01-2.34h.02c1.21-.09,2.25.81,2.34,2.01s-.81,2.25-2.02,2.34ZM270.89,402.1c-.28.02-.57-.01-.85-.11-.21-.07-.4-.17-.59-.3-2.76-1.95-5.65-3.92-8.76-6.04-11.57-7.89-25.96-17.7-47.46-35.85-.17-.14-.32-.31-.44-.49,0,0,0,0,0,0,0,0,0,0,0,0-.18-.28-.29-.59-.33-.92-.04-.32-.01-.65.09-.96.07-.23.19-.45.34-.65.16-.21.36-.38.57-.52.27-.17.57-.28.88-.32.33-.04.65-.02.96.09.21.07.41.17.6.3l7.95,5.6c19.7,13.87,30.56,21.52,48.26,36.29.18.14.32.31.44.49.18.28.29.59.34.91h0s0,0,0,0c.04.32.01.65-.09.97-.08.22-.19.44-.34.63-.16.21-.35.38-.56.52-.27.17-.58.28-.89.33h0s0,0,0,0c-.04,0-.08.01-.13.01ZM337.24,364.3c-.29.02-.58-.01-.86-.11-.2-.07-.4-.17-.58-.3-2.3-1.61-4.59-3.26-6.85-4.92-1.14-.72-2.34-1.47-3.59-2.25-7.98-4.97-18.91-11.78-30.13-23.09-.14-.13-.25-.28-.35-.44h0c-.17-.29-.27-.6-.3-.92-.03-.31,0-.64.12-.94.08-.23.21-.46.37-.66.16-.2.35-.36.57-.49.28-.17.59-.27.9-.3.32-.03.65,0,.96.12.17.06.34.15.5.26,4.02,2.66,9.72,7.04,16.3,12.12,5.31,4.09,11.12,8.57,17.13,12.98,2.78,1.78,5.2,3.43,7.09,5.1.17.14.31.31.42.49.18.28.28.6.32.92.04.32,0,.64-.1.95-.08.23-.2.46-.36.66-.16.2-.34.36-.54.49h0c-.28.18-.6.29-.92.32-.03,0-.06,0-.09,0Z" fill="#575956" opacity=".5"/>
    <path d="M254.69,406.73c-11.51.87-23.48,1.61-36.19,2.09-.08,0-.16,0-.24,0-.41,0-.81-.06-1.18-.16,0,0,0,0,0,0s0,0,0,0c0,0,0,0,0,0h0s-.06-.02-.09-.03h0s0,0,0,0h0c-.07-.02-.14-.05-.21-.07-.61-.22-1.14-.58-1.59-1.02-.34-.34-.62-.73-.83-1.17h0s.02,0,0-.01t0,0h0s0-.01,0,0c0,0,0,0,0,0-.05-.1-.09-.19-.13-.29,0,0,0,0,0,0,0,0,0,0,0,0-.02-.06-.05-.12-.07-.19-.13-.39-.21-.8-.23-1.23-.23-4.46-.32-8.52-.41-12.77-.25-2.27-.57-4.68-.92-7.34-1.26-9.48-2.98-22.46-3.54-44.54-.02-.43.03-.85.13-1.26,0-.04.02-.08.03-.12.17-.6.47-1.15.86-1.61.41-.49.94-.89,1.54-1.17.02,0,.04-.02.05-.02.43-.19.9-.31,1.39-.35.08,0,.16,0,.23-.01,17.2-.76,33.66-2.39,51.09-4.12,15.18-1.51,30.72-3.05,47.19-4.02,8.29-.7,15.7-1.08,22.03-.89.44.01.86.09,1.26.22h0s0,0,0,0h0s0,0,0,0h0s0,0,0,0t0,0h0s0,0,0,0h0s0,0,0,0h0s0,0,0,0h0s0,0,0,0,0,0,0,0h0s0,0,0,0c0,0,0,0,0,0,0,0,0,0,0,0h0s0,0,0,0c0,0,0,0,0,0,0,0,0,0,0,0,.08.03.16.06.24.1h0s0,0,0,0h0s0,0,0,0c.54.23,1.02.56,1.42.97.06.06.11.11.16.17h0s0,.01,0,.01c0,0,0,0,0,0h0s0,0,0,.01c0,0,0,0,0,0h0s0,0,0,.01h0s0,0,0,0c0,0,0,0,0,0h0s0,0,0,.01h0s0,0,0,.01h0s0,0,0,0c0,0,0,0,0,0,0,0,0,0,0,0h0s0,0,0,.01h0s0,0,0,0c0,0,0,0,0,0,0,0,0,0,0,0,0,0,0,0,0,0h0s0,0,0,0h0s0,0,0,0c0,0,0,0,0,0,0,0,0,0,0,0h0s0,0,0,0h0s0,0,0,0c0,0,0,0,0,0,0,0,0,0,0,0,0,0,0,0,0,0,0,0,0,0,0,0h0s0,0,0,0c0,0,0,0,0,0,0,0,0,0,0,0,0,0,0,0,0,0,0,0,0,0,0,0,0,0,0,0,0,0,0,0,0,0,0,0,0,0,0,0,0,0h0s0,0,0,0h0s0,0,0,0c0,0,0,0,0,0h0s0,0,0,0c0,0,0,0,0,0,0,0,0,0,0,0h0s0,0,0,0c0,0,0,0,0,0h0s0,0,0,0c0,0,0,0,0,0,0,0,0,0,0,0,0,0,0,0,0,0h0s0,0,0,0c0,0,0,0,0,0h0s0,0,0,0t0,0h0s0,0,0,0t0,0h0s0,0,0,0c0,0,0,0,0,0h0s0,0,0,0c0,0,0,0,0,0,0,0,0,0,0,0,0,0,0,0,0,0,0,0,0,0,0,0,0,0,0,0,0,0h0s0,0,0,0c0,0,0,0,0,0h0s0,0,0,0c0,0,0,0,0,0h0s0,0,0,0c0,0,0,0,0,0,0,0,0,0,0,0,0,0,0,0,0,0h0s0,0,0,0h0s0,0,0,0h0s0,0,0,0c0,0,0,0,0,0h0s0,0,0,0t0,0h0s0,0,0,0h0s0,0,0,0c0,0,0,0,0,0,0,0,0,0,0,0t0,0s0,0,0,0t0,0h0s0,0,0,0c0,0,0,0,0,0h0s0,0,0,0h0s0,0,0,0h0s0,0,0,0c0,0,0,0,0,0h0s0,0,0,0h0s0,0,0,0c0,0,0,0,0,0t0,0h0s0,0,0,0c0,0,0,0,0,0,0,0,0,0,0,0t0,0h0s0,0,0,0c0,0,0,0,0,0,0,0,0,0,0,0t0,0h0s0,0,0,0c0,0,0,0,0,0,0,0,0,0,0,0h0s0,0,0,0h0s0,0,0,0c0,0,0,0,0,0,0,0,0,0,0,0t0,0h0s0,0,0,0h0s0,0,0,0c0,0,0,0,0,0,0,0,0,0,0,0,0,0,0,0,0,0,0,0,0,0,0,0,0,0,0,0,0,0s0,0,0,0c0,0,0,0,0,0h0s0,0,0,0h0s0,0,0,0h0s0,0,0,0h0s0,0,0,0c0,0,0,0,0,0,0,0,0,0,0,0h0s0,0,0,0c0,0,0,0,0,0,0,0,0,0,0,0h0s0,0,0,0h0s0,0,0,0h0s0,.01,0,.02h0s0,0,0,0h0s0,0,0,0h0s0,0,0,0h0s0,0,0,0h0c.15.25.27.52.37.8l.02.05h0s0,0,0,0c.13.41.21.85.21,1.31.2,9.89.71,20.18,1.54,31.05.1.93.21,1.88.32,2.87.87,7.78,1.95,17.47,2.99,30.35.01.12.02.24.02.36,0,.38-.04.76-.13,1.12h0s0,0,0,0c-.02.1-.05.19-.08.28h0s0,0,0,0h0c-.02.05-.03.11-.05.16-.21.58-.54,1.1-.95,1.53-.37.38-.8.7-1.29.93h0s0,0,0,0c-.09.04-.18.08-.27.11h0s0,0,0,0c-.06.02-.11.04-.17.06-.39.13-.83.22-1.24.23-14.96.83-30.27,2.24-46.48,3.73-12.11,1.11-24.44,2.24-37.35,3.21ZM222.77,399.8c27.59-1.75,47.63-4.08,63.89-5.97,18.53-2.15,32.49-3.77,46.72-3.12-1.12-9.81-2.02-19.16-2.71-28.13-1.13-10.25-1.89-17.99-1.72-27.32-5.71.17-11.31.43-16.81.76-7.89.67-16.64,1.64-26.03,2.67-20.56,2.27-43.69,4.82-67.64,5.4,3.24,22.34,3.5,34.87,3.76,47.02,0,.05,0,.1,0,.15.31,2.92.52,5.68.54,8.53Z" fill="#575956"/>
  </g>
  <g>
    <path d="M194.9,100.22l160.94-13.34,22.3,236.6-163.64,14.27" fill="#575956" opacity=".3"/>
    <path d="M342.6,333.95c-11,.83-23.18,1.64-37.15,2.57-23.78,1.59-53.37,3.56-92.13,6.59-.43.03-.96,0-1.41-.11,0,0,0,0,0,0-.67-.16-1.27-.48-1.78-.91,0,0,0,0,0,0-.45-.39-.83-.87-1.1-1.41,0,0,0,0,0,0t0,0c-.22-.45-.37-.96-.42-1.49-8.22-82.11-14.75-151.73-17.86-237.33-.02-.43.02-.84.12-1.24,0,0,0,0,0,0h0c.02-.08.04-.15.06-.23.17-.55.44-1.05.79-1.48,0,0,0,0,0,0,.41-.5.93-.92,1.53-1.2.07-.03.14-.06.21-.09.37-.15.76-.25,1.17-.3,39.57-4.85,78.19-7.04,112.27-8.99,5.45-.31,10.81-.62,16.06-.93,14.1-1.05,26.25-1.9,35.74-2.44.43-.03.86.01,1.26.11h0s0,0,0,0h0s0,0,0,0c.08.02.16.04.24.06.53.16,1.02.41,1.45.74h0s0,0,0,0t0,0c.13.11.26.22.38.34h0s0,0,0,0c0,0,0,0,0,0,0,0,0,0,0,0,0,0,0,0,0,0,0,0,0,0,0,0,0,0,0,0,0,0h0c.32.33.6.71.81,1.13.04.08.08.17.12.25h0s0,0,0,0c.17.41.28.85.33,1.31,2.84,29.94,4.83,58.09,7.85,100.69,2.41,34.01,5.4,76.34,10,136.46.04.49,0,.97-.12,1.42-.02.07-.04.15-.06.22h0c-.15.5-.39.96-.7,1.36h0s0,0,0,0h0s-.07.09-.1.13c-.41.5-.93.9-1.52,1.18h0s0,0,0,0c-.08.04-.16.07-.24.1t0,0h0c-.36.14-.73.24-1.13.28-10.59,1.23-21.83,2.21-34.68,3.18ZM286.86,327.24c24.77-1.86,45.96-2.93,65.75-3.94,6.58-.33,13.05-.66,19.48-1-6.37-81.01-11.12-145.71-15.71-208.31l-1.47-19.96c-9.88.76-20.42,1.44-31.39,2.09-16.01,1.2-34.55,2.65-54.54,4.22-21.73,1.71-45.22,3.55-69.14,5.34,6.01,71.14,9.42,120.69,12.17,160.66,1.71,24.93,3.21,46.69,4.93,67.55,26.55-3.03,49.46-5.11,69.92-6.65Z" fill="#575956"/>
  </g>
  <g>
    <path d="M206.7,96.55c.32.72.59,1.46.77,2.19.18.76.31,1.54.37,2.3.06.77.06,1.56-.03,2.32-.06.77-.22,1.54-.43,2.28-.2.74-.48,1.49-.82,2.17-.33.7-.72,1.38-1.18,2-.44.63-.96,1.22-1.51,1.76-.55.54-1.17,1.03-1.8,1.49-.62.43-1.31.81-2.03,1.13s-1.44.58-2.17.77c-.76.18-1.54.31-2.3.37-.77.06-1.56.06-2.32-.03-.77-.06-1.54-.22-2.28-.43-.74-.2-1.49-.48-2.17-.82-.7-.33-1.38-.72-2-1.18-.63-.44-1.22-.96-1.76-1.51-.54-.55-1.05-1.16-1.49-1.8-.43-.62-.81-1.31-1.13-2.03s-.58-1.44-.77-2.17c-.2-.75-.31-1.54-.37-2.3-.06-.77-.06-1.56.03-2.32.06-.77.22-1.54.43-2.28.2-.74.48-1.49.82-2.17.33-.7.72-1.38,1.18-2,.44-.63.96-1.22,1.51-1.76.55-.54,1.16-1.05,1.8-1.49.62-.43,1.31-.81,2.01-1.12s1.46-.59,2.19-.77c.75-.2,1.54-.31,2.3-.37.77-.06,1.56-.06,2.32.03.77.06,1.54.22,2.28.43.74.2,1.49.48,2.17.82.7.33,1.38.72,2,1.18.63.44,1.22.96,1.76,1.51.54.55,1.03,1.17,1.49,1.8.43.62.93,1.69,1.12,2.01.18.35-.13-.35,0,0" fill="#abacab"/>
    <path d="M195.72,117.51c-.96.07-1.88.06-2.74-.04-.79-.06-1.68-.23-2.64-.5-.84-.22-1.73-.56-2.54-.97-.85-.4-1.65-.87-2.33-1.39-.64-.44-1.34-1.04-2.01-1.73-.67-.68-1.25-1.39-1.73-2.1-.49-.72-.93-1.52-1.31-2.35-.38-.83-.67-1.68-.89-2.53-.21-.82-.36-1.72-.43-2.68-.07-.95-.06-1.87.04-2.73.06-.79.23-1.68.5-2.64.22-.84.56-1.73.97-2.54.4-.84.87-1.64,1.39-2.33.44-.64,1.04-1.34,1.73-2.01s1.4-1.25,2.1-1.73c.7-.48,1.52-.94,2.34-1.31.84-.38,1.69-.68,2.55-.9.82-.21,1.66-.32,2.7-.43.94-.07,1.86-.06,2.71.04.78.06,1.69.23,2.64.5.84.22,1.73.56,2.54.96.84.4,1.64.87,2.33,1.39.64.44,1.34,1.04,2.01,1.73.57.59,1.13,1.26,1.7,2.06.09.13.18.27.27.42l.17-.07,1.8,3.98-.14.08c.05.18.1.36.15.53.23,1,.37,1.86.43,2.68.07.96.06,1.88-.04,2.73-.06.78-.23,1.69-.5,2.64-.22.83-.56,1.72-.96,2.54-.4.85-.87,1.65-1.4,2.34-.44.64-1.04,1.34-1.73,2.01-.59.57-1.26,1.13-2.05,1.7-.77.52-1.56.97-2.4,1.35-.81.37-1.69.68-2.53.89-1,.23-1.86.37-2.68.43ZM193.74,90.94h-.02c-.7.05-1.34.16-1.92.31-.62.16-1.24.38-1.84.65-.59.27-1.17.59-1.68.94-.5.34-1.01.75-1.51,1.24-.49.48-.91.96-1.24,1.44-.39.52-.71,1.07-1,1.69-.3.6-.53,1.2-.68,1.8-.2.7-.32,1.33-.37,1.89-.08.67-.08,1.3-.03,1.98.05.7.15,1.34.31,1.92.15.61.38,1.24.64,1.83.27.61.59,1.18.95,1.7.34.5.75,1,1.24,1.5.48.49.96.91,1.44,1.24.52.39,1.06.71,1.69,1,.59.3,1.2.53,1.8.68.7.2,1.33.32,1.89.37,1.23.14,2.39.07,3.96-.29.55-.14,1.18-.36,1.77-.63.61-.28,1.18-.59,1.7-.95.57-.41,1.08-.83,1.51-1.24.49-.48.91-.96,1.24-1.44.39-.52.71-1.07,1-1.69.3-.6.53-1.2.68-1.8.2-.7.32-1.33.37-1.89.08-.66.08-1.3.03-1.99-.04-.59-.15-1.25-.32-1.97-.14-.53-.34-1.12-.6-1.7-.04-.07-.15-.27-.27-.5-.2-.39-.47-.91-.71-1.27-.41-.57-.83-1.08-1.24-1.51-.48-.49-.96-.91-1.44-1.24-.52-.39-1.06-.71-1.68-1-.6-.3-1.2-.53-1.8-.68-.7-.2-1.33-.32-1.89-.37-.66-.07-1.3-.08-1.96-.03Z" fill="#575956"/>
  </g>
  <g>
    <path d="M372.68,84.06c.32.72.59,1.46.77,2.19.18.76.31,1.54.37,2.3.06.77.06,1.56-.03,2.32-.06.77-.22,1.54-.43,2.28-.2.74-.48,1.49-.82,2.17-.33.7-.72,1.38-1.18,2-.44.63-.96,1.22-1.51,1.76-.55.54-1.17,1.03-1.8,1.49-.62.43-1.31.81-2.03,1.13s-1.44.58-2.17.77c-.76.18-1.54.31-2.3.37-.77.06-1.56.06-2.32-.03-.77-.06-1.54-.22-2.28-.43-.74-.2-1.49-.48-2.17-.82-.7-.33-1.38-.72-2-1.18-.63-.44-1.22-.96-1.76-1.51-.54-.55-1.05-1.16-1.49-1.8-.43-.62-.81-1.31-1.13-2.03s-.58-1.44-.77-2.17c-.2-.75-.31-1.54-.37-2.3-.06-.77-.06-1.56.03-2.32.06-.77.22-1.54.43-2.28.2-.74.48-1.49.82-2.17.33-.7.72-1.38,1.18-2,.44-.63.96-1.22,1.51-1.76.55-.54,1.16-1.05,1.8-1.49.62-.43,1.31-.81,2.01-1.12s1.46-.59,2.19-.77c.75-.2,1.54-.31,2.3-.37.77-.06,1.56-.06,2.32.03.77.06,1.54.22,2.28.43.74.2,1.49.48,2.17.82.7.33,1.38.72,2,1.18.63.44,1.22.96,1.76,1.51.54.55,1.03,1.17,1.49,1.8.43.62.93,1.69,1.12,2.01.18.35-.13-.35,0,0" fill="#abacab"/>
    <path d="M361.7,105.02c-.96.07-1.88.06-2.74-.04-.79-.06-1.68-.23-2.64-.5-.84-.22-1.73-.56-2.54-.97-.85-.4-1.65-.87-2.33-1.39-.64-.44-1.34-1.04-2.01-1.73-.67-.68-1.25-1.39-1.73-2.1-.49-.72-.93-1.52-1.31-2.35-.38-.83-.67-1.68-.89-2.53-.21-.82-.36-1.72-.43-2.68-.07-.95-.06-1.87.04-2.73.06-.79.23-1.68.5-2.64.22-.84.56-1.73.97-2.54.4-.84.87-1.64,1.39-2.33.44-.64,1.04-1.34,1.73-2.01s1.4-1.25,2.1-1.73c.7-.48,1.52-.94,2.34-1.31.84-.38,1.69-.68,2.55-.9.82-.21,1.66-.32,2.7-.43.94-.07,1.86-.06,2.71.04.78.06,1.69.23,2.64.5.84.22,1.73.56,2.54.96.84.4,1.64.87,2.33,1.39.64.44,1.34,1.04,2.01,1.73.57.59,1.13,1.26,1.7,2.06.09.13.18.27.27.42l.17-.07,1.8,3.98-.14.08c.05.18.1.36.15.53.23,1,.37,1.86.43,2.68.07.96.06,1.88-.04,2.73-.06.78-.23,1.69-.5,2.64-.22.83-.56,1.72-.96,2.54-.4.85-.87,1.65-1.4,2.34-.44.64-1.04,1.34-1.73,2.01-.59.57-1.26,1.13-2.05,1.7-.77.52-1.56.97-2.4,1.35-.81.37-1.69.68-2.53.89-1,.23-1.86.37-2.68.43ZM359.72,78.45h-.02c-.7.05-1.34.16-1.92.31-.62.16-1.24.38-1.84.65-.59.27-1.17.59-1.68.94-.5.34-1.01.75-1.51,1.24-.49.48-.91.96-1.24,1.44-.39.52-.71,1.07-1,1.69-.3.6-.53,1.2-.68,1.8-.2.7-.32,1.33-.37,1.89-.08.67-.08,1.3-.03,1.98.05.7.15,1.34.31,1.92.15.61.38,1.24.64,1.83.27.61.59,1.18.95,1.7.34.5.75,1,1.24,1.5.48.49.96.91,1.44,1.24.52.39,1.06.71,1.69,1,.59.3,1.2.53,1.8.68.7.2,1.33.32,1.89.37,1.23.14,2.39.07,3.96-.29.55-.14,1.18-.36,1.77-.63.61-.28,1.18-.59,1.7-.95.57-.41,1.08-.83,1.51-1.24.49-.48.91-.96,1.24-1.44.39-.52.71-1.07,1-1.69.3-.6.53-1.2.68-1.8.2-.7.32-1.33.37-1.89.08-.66.08-1.3.03-1.99-.04-.59-.15-1.25-.32-1.97-.14-.53-.34-1.12-.6-1.7-.04-.07-.15-.27-.27-.5-.2-.39-.47-.91-.71-1.27-.41-.57-.83-1.08-1.24-1.51-.48-.49-.96-.91-1.44-1.24-.52-.39-1.06-.71-1.68-1-.6-.3-1.2-.53-1.8-.68-.7-.2-1.33-.32-1.89-.37-.66-.07-1.3-.08-1.96-.03Z" fill="#575956"/>
  </g>
  <g>
    <path d="M388.37,321.78c.32.72.59,1.46.77,2.19.18.76.31,1.54.37,2.3.06.77.06,1.56-.03,2.32-.06.77-.22,1.54-.43,2.28-.2.74-.48,1.49-.82,2.17-.33.7-.72,1.38-1.18,2-.44.63-.96,1.22-1.51,1.76-.55.54-1.17,1.03-1.8,1.49-.62.43-1.31.81-2.03,1.13s-1.44.58-2.17.77c-.76.18-1.54.31-2.3.37-.77.06-1.56.06-2.32-.03-.77-.06-1.54-.22-2.28-.43-.74-.2-1.49-.48-2.17-.82-.7-.33-1.38-.72-2-1.18-.63-.44-1.22-.96-1.76-1.51-.54-.55-1.05-1.16-1.49-1.8-.43-.62-.81-1.31-1.13-2.03s-.58-1.44-.77-2.17c-.2-.75-.31-1.54-.37-2.3-.06-.77-.06-1.56.03-2.32.06-.77.22-1.54.43-2.28.2-.74.48-1.49.82-2.17.33-.7.72-1.38,1.18-2,.44-.63.96-1.22,1.51-1.76.55-.54,1.16-1.05,1.8-1.49.62-.43,1.31-.81,2.01-1.12s1.46-.59,2.19-.77c.75-.2,1.54-.31,2.3-.37.77-.06,1.56-.06,2.32.03.77.06,1.54.22,2.28.43.74.2,1.49.48,2.17.82.7.33,1.38.72,2,1.18.63.44,1.22.96,1.76,1.51.54.55,1.03,1.17,1.49,1.8.43.62.93,1.69,1.12,2.01.18.35-.13-.35,0,0" fill="#abacab"/>
    <path d="M377.4,342.74c-.96.07-1.88.06-2.74-.04-.79-.06-1.68-.23-2.64-.5-.84-.22-1.73-.56-2.54-.97-.85-.4-1.65-.87-2.33-1.39-.64-.44-1.34-1.04-2.01-1.73-.67-.68-1.25-1.39-1.73-2.1-.49-.72-.93-1.52-1.31-2.35-.38-.83-.67-1.68-.89-2.53-.21-.82-.36-1.72-.43-2.68-.07-.95-.06-1.87.04-2.73.06-.79.23-1.68.5-2.64.22-.84.56-1.73.97-2.54.4-.84.87-1.64,1.39-2.33.44-.64,1.04-1.34,1.73-2.01s1.4-1.25,2.1-1.73c.7-.48,1.52-.94,2.34-1.31.84-.38,1.69-.68,2.55-.9.82-.21,1.66-.32,2.7-.43.94-.07,1.86-.06,2.71.04.78.06,1.69.23,2.64.5.84.22,1.73.56,2.54.96.84.4,1.64.87,2.33,1.39.64.44,1.34,1.04,2.01,1.73.57.59,1.13,1.26,1.7,2.06.09.13.18.27.27.42l.17-.07,1.8,3.98-.14.08c.05.18.1.36.15.53.23,1,.37,1.86.43,2.68.07.96.06,1.88-.04,2.73-.06.78-.23,1.69-.5,2.64-.22.83-.56,1.72-.96,2.54-.4.85-.87,1.65-1.4,2.34-.44.64-1.04,1.34-1.73,2.01-.59.57-1.26,1.13-2.05,1.7-.77.52-1.56.97-2.4,1.35-.81.37-1.69.68-2.53.89-1,.23-1.86.37-2.68.43ZM375.42,316.17h-.02c-.7.05-1.34.16-1.92.31-.62.16-1.24.38-1.84.65-.59.27-1.17.59-1.68.94-.5.34-1.01.75-1.51,1.24-.49.48-.91.96-1.24,1.44-.39.52-.71,1.07-1,1.69-.3.6-.53,1.2-.68,1.8-.2.7-.32,1.33-.37,1.89-.08.67-.08,1.3-.03,1.98.05.7.15,1.34.31,1.92.15.61.38,1.24.64,1.83.27.61.59,1.18.95,1.7.34.5.75,1,1.24,1.5.48.49.96.91,1.44,1.24.52.39,1.06.71,1.69,1,.59.3,1.2.53,1.8.68.7.2,1.33.32,1.89.37,1.23.14,2.39.07,3.96-.29.55-.14,1.18-.36,1.77-.63.61-.28,1.18-.59,1.7-.95.57-.41,1.08-.83,1.51-1.24.49-.48.91-.96,1.24-1.44.39-.52.71-1.07,1-1.69.3-.6.53-1.2.68-1.8.2-.7.32-1.33.37-1.89.08-.66.08-1.3.03-1.99-.04-.59-.15-1.25-.32-1.97-.14-.53-.34-1.12-.6-1.7-.04-.07-.15-.27-.27-.5-.2-.39-.47-.91-.71-1.27-.41-.57-.83-1.08-1.24-1.51-.48-.49-.96-.91-1.44-1.24-.52-.39-1.06-.71-1.68-1-.6-.3-1.2-.53-1.8-.68-.7-.2-1.33-.32-1.89-.37-.66-.07-1.3-.08-1.96-.03Z" fill="#575956"/>
  </g>
</svg>