<?xml version="1.0" encoding="UTF-8"?><svg id="a" xmlns="http://www.w3.org/2000/svg" width="512" height="512" xmlns:xlink="http://www.w3.org/1999/xlink" viewBox="0 0 512 512"><defs><linearGradient id="b" x1="9.93" y1="9.93" x2="521.93" y2="521.93" gradientTransform="translate(0 512) rotate(-90)" gradientUnits="userSpaceOnUse"><stop offset="0" stop-color="#4aa44c"/><stop offset="1" stop-color="#1278b9"/></linearGradient></defs><path d="M127.95,34.28L0,0l34.28,127.95C12.48,165.62,0,209.35,0,256s12.48,90.38,34.28,128.05L0,512l127.95-34.28c37.67,21.8,81.4,34.28,128.05,34.28s90.38-12.48,128.05-34.28l127.95,34.28-34.28-127.95c21.8-37.67,34.28-81.4,34.28-128.05s-12.48-90.38-34.28-128.05L512,0l-127.95,34.28C346.38,12.48,302.65,0,256,0s-90.38,12.48-128.05,34.28Z" fill="url(#b)"/><path d="M385.2,317.4v-91.1l-122.9,61.9c-5.5,2.8-11.4,4.3-17.5,4.3s-12-1.4-17.4-4.3l-126.5-63.9c-3.3-1.7-5.9-4.1-7.9-7s-2.9-6.1-2.9-9.6,1-6.6,2.9-9.6c2-3,4.6-5.4,7.9-7.2l126.5-63.9c2.8-1.5,5.7-2.6,8.6-3.3,2.9-.7,5.9-1,8.9-1s5.9.4,8.9,1c2.9.7,5.8,1.8,8.6,3.3l149.2,75.2c3.1,1.7,5.6,4,7.6,6.9,1.9,2.9,2.9,6.1,2.9,9.8v98.7c0,5-1.8,9.3-5.4,12.9s-7.8,5.4-12.9,5.4-9.3-1.8-13-5.4c-3.6-3.6-5.5-7.9-5.5-13h0l-.1-.1ZM235.8,388.5c3,.5,5.9.8,8.9.8s5.9-.3,8.9-.8c2.9-.5,5.9-1.6,8.6-3.1l67.9-34.1c6.2-3.1,11.2-7.7,14.9-13.7,3.8-6.1,5.6-12.6,5.6-19.6v-37.9l-88.4,44.6c-5.4,2.9-11.3,4.3-17.4,4.3s-12-1.5-17.5-4.3l-88.4-44.6v37.9c0,7,1.9,13.6,5.6,19.6,3.8,6,8.7,10.6,14.9,13.7l67.9,34.1h0c2.8,1.5,5.7,2.6,8.6,3.1h-.1Z" fill="#fff"/></svg>