<?xml version="1.0" encoding="UTF-8"?><svg id="a" xmlns="http://www.w3.org/2000/svg" width="1655.51" height="1071.68" viewBox="0 0 1655.51 1071.68"><path d="M1178.1,57.28c-.02-.67.73-11.02-1.99-8-.12.14-.23,2.22-.97,3.5-1.21,2.1-7.62,14.27-8.56,14.49s-2.3-.86-2.48-1.54c-.8-3.05,12.38-19.63,12.99-24.46h-59.5c-1.72,0-1.72-4,0-4h383c1.72,0,1.72,4,0,4h-55.5l6.48,12.02c10.19,18.12,3.9,51.41,15.54,66.46,1.81,2.34,5.63,4.8,6.86,7.14.89,1.69,1.04,5.04,1.25,5.26.67.7,9.86.62,9.85,2.63-.01,2.44-8.73.9-10.99,1.99-2.43,1.17-3.96,7.89-5.97,10.01,3.51,3.08,10.51,1.16,8.97,7.49-3.89.7-7.41-3.11-10.96-1.51-1.47.67-11.84,13.31-15.02,16.03-1.67,1.42-8.54,5.24-8.8,5.69-.55.94-.39,12.19-.19,14.28,1.47,15.47,15.38,23.41,13.99,39.52,13.39-10.85,9.31-29.14,13.71-42.78,5.27-16.34,23.15-12.42,25.19,2.37,3.01,21.9-4.98,49.17-22.98,62.84-9.81,7.45-23.74,9.68-31.96,19.04-.77.87-1.29,1.11-.98,2.52,32.03,11.24,57.13,40.69,68.02,72.49,6.13,17.92,9.84,37.65,7.98,56.52,42.89-2.16,56.29,46.88,47.71,81.2-3.83,15.33-13.21,28.3-21.71,41.26,49.55,39.42,51.72,112.09,31.75,167.78-22.44,62.56-69.72,115.05-135.32,132.68-3.47.93-17.53,2.49-18.29,4.7l10.86,190.38h192.01s0,5.99,0,5.99H39.1v-6h189.5s-7.5-5-7.5-5c1.64-1.52,4.11-.45,5-3,1.72,1.1,13.9,6.03,14.99,4.99-1.78-6.3-5.89-11.8-7.99-17.99-3.93-11.54-6.42-28.26-7.04-40.46-.31-6.06,2.66-11.37,3.77-4.8,3.28,19.31,3.74,42.25,14.74,59.29,2.47,3.82,6.5,8.44,9.53,2.47,1.77-14.74-2.71-31.73-1.05-46.05.27-2.32.32-3.47,3.05-3.45.79,2.04,1.68,4.44,1.89,6.61.83,8.53,1.9,19.51,2.1,27.9.15,6.31-.39,12.26-.99,18.49h8.01s0-51,0-51c.8.08,3.24-2.76,4,1.5,2.32,13.03-2.11,32.26.27,45.77.61,3.47,6.19,4.01,8.57,2.56.67-.41,5.25-12.64,5.93-14.57,4.4-12.54,6.92-26.78,9.07-39.93.33-1.99.78-10.92,1.17-11.33.37-.38,2.77-.11,3.54.97,1.96,2.74-5.96,39.23-7.55,45.03-.66,2.42-6.6,17.26-6,18,.2.25,1.59-.19,2,0,1.57.74.67,3.63,1.93,4.58l272.62.47c5.42-.11,3.02-4.37.45-7.05-2.78-70.84-8.88-141.54-10.94-212.44,8.39-12.67,18.98-24.42,28.36-36.64,5.35-6.97,10.2-14.36,16-21l5.58-8.91c-14.96,7.67-29.03,21.26-43.69,28.8-2.4,1.23-4.35,2.69-7.3,2.2l-12.01-226c-2.67-.89-2.85,3.94-2.99,5.5-2.97,33.43-2.67,68.4-5.02,101.98-.33,4.72-1.85,27.57-3.18,29.82-2.05,3.47-3.82,1.22-5.79-.83-4.48-4.67-11.38-18.71-15.8-25.2-2.82-4.15-5.84-8.56-9.21-12.28-.03,4.01,1.74,7.78,2.97,11.52,7.42,22.58,17.96,44.38,25.05,66.94-6.79,96.36-8.53,193.44-18.03,289.54-5.04,2.95,2.76,7.8-4.99,8v-10s10.86-174.37,10.86-174.37c-.63-1.85-18.24-5.05-21.86-6.13-51.53-15.26-104.28-64.06-120.27-115.73-13.12-42.4-10.34-100.59,5.52-142.01,1.69-4.43,9.55-18.72,9.72-21.31.3-4.45-6.55-14.63-8.45-19.46-14.07-35.61-5.71-66.39,24.93-88.93-13.47-68.7,30.25-139.82,95.31-162.8l18.25-6.25h-204.5c-.42,0-4.1.87-3.49,2.48,1.16,3.04,5.74,8.99,7.51,12.5,1.08,2.15,4.86,8.64,4.48,10.5-.6,2.96-3.13-.08-3.98-1.01-3.1-3.37-5.63-9.43-8.03-13.47-3.14-5.28-3.36-7.54-7-1-1.52,2.73-8.71,17.58-11.49,16.99-1.54-1.21-1.52-1.25-1.08-3.04.77-3.14,14.61-22.12,13.57-22.95-11.53-2.35-23.54.02-35-1.02-.41-1.11.44-3.99,1.5-3.99h382c1.06,0,1.9,2.84,1.5,4h-87l22.97,8.53c46.02,22.15,71.23,75.33,68.03,125.47,27.77-.92,44.48,20.82,47.99,46.51,2.92,21.38-1.46,40.53-11.81,59.16-1.61,2.89-10.45,15.33-10.24,16.75,48.23,37.8,49.42,109.16,32.34,163.34-20.48,64.97-71.25,119.22-137.84,137.16-3.16.85-16.71,2.99-17.29,4.71l9.87,190.37h606c-.5-3.76-12.77-22.22-10.99-23.99,1.04-1.04,2.92.43,3.85,1.64,2.34,3.04,5.27,9.02,7.36,12.67.67,1.18.67,3.54.8,3.68,2.53,2.84,1.95-5.06,1.99-6,.16-3.82-1.61-8.12,3-7,.06,3.82-.04,7.67,0,11.5-.12.87,1.86.6,1.99.5,1.42-1.2,8.27-16.42,9.06-16.96.9-.62,3.74.35,3.96,1.49.28,1.48-12.12,19.01-13,22.48h178l11.87-189.37-1.56-1.44c-45.2-7.18-87.17-35.41-114.71-71.29-41.71-54.36-43.21-134.85-18.07-196.86,1.42-3.5,7.3-12.92,7.36-15.51.09-3.77-6.62-14.18-8.38-18.54-14.27-35.47-6.68-67.98,25.26-89.59-14.37-65.9,28.2-135.69,88.24-161.88,1.53-.67,7.74-2.19,7.97-2.53,1.46-2.11-3.61-5.8-4.82-7.65-6.48-9.88-12.48-27.9-11.06-39.72,1.48-12.34,17.58-24.86,15.74-39.47-5.81-.56-18.44-11.63-22.54-11.98-2.32-.2-8.14,7.43-8.81,9.83-6.46-2.98,5.89-12.06,5.04-13.99-.41-.95-4.76-4.9-6.09-5.03-1.58-.15-13.65,6.11-13.44,2.53.17-2.95,11.86-5.6,11.96-6.99.02-.29-2.42-3.62-2.75-5.23-1.45-7.08,1.83-9.43,3.49-15.05,2.65-8.96-2.82-20.43-4.43-30.02-2.11-12.6-4.43-41.86,1.51-52.91,5.26-9.78,23.35,4.84,29.09,9.3,3.3,2.56,13.38,12.74,15.84,13.23,3.17.63,17.09-2.41,21.77-2.83s12.32,1.34,15.52-1.48c4.62-4.07,10.5-15.5,15.95-21.05,4.99-5.1,10.61-8.1,16.02-12.48h-254c.77,4.8,12.84,21.13,11.99,24.45-.27,1.06-1.71,1.93-3.02,1.08s-8-14.82-8.98-17.53l-1.5.98c-.55,11.97-.42,24.01-.48,36.02-1.32.77-2.82,2.5-3-.48-.57-9.28.26-19.15,0-28.52ZM1383.1,82.28c-5.02.35-14.95,3.81-18.28,2.82-1.93-.57-7.89-7.82-10.25-9.79-4.22-3.5-22.34-17.23-26.9-16.09-4.29,17.14-3.4,36.71-.11,54.1,2.03,10.73,6.95,17.61,3.59,28.52-1.09,3.55-4.71,7.67-3.65,11.46,1.63,5.85,6.3,2.68,6.59,2.99-2.3,8.28,1.76,10.32,9.01,7.01-.98,3-4.59,4.24-1.53,7.01,2.87,2.6,19.37,9.89,23.53,10.98.02,3.29-.37,6.79-1,10-2,10.16-6.4,17.09-11,26-1.06,2.06-3.24,4.1-3.77,6.73-1.49,7.3,2.22,24.15,5.6,30.95s13.16,18.59,21.26,12.69c.56-2.74-3.16-8.61-4.08-11.37-3-9.03-5.45-18.2-6.86-27.64-.52-3.48-2.84-22.25-1.13-23.35,1.06,0,2.07-.28,3.04.44s1.7,18.16,2.22,21.78c1.57,10.89,7.37,32.43,13.87,41.13,5.6,7.48,7.79,1.55,8.74-4.96l-.89-40.89c.21-2.45,1.84-2.65,4-2.5l1,47c2.3-.2,7,1,7.86-1.64l2.14-44.36c1.72-1.37,2.61-.82,3.01,1.49,1.86,10.79-2.15,26.56-.88,38.88.28,2.69,1.29,11.55,5.2,10.49,7.96-2.14,17.03-41.35,18.4-49.64.49-2.98.71-16.77,2.79-17.22s3.49,2.62,3.53,4.44c.11,4.11-2.56,16.77-3.51,21.59-1.43,7.23-3.69,16.11-5.82,23.18-.79,2.62-5.72,12.57-5.69,13.29.06,2.02,6.92.35,7.93-.05,17.2-6.9,24.71-36.39,17.23-52.13-5.54-11.65-10.11-9.4-11.18-26.32-.2-3.2.97-7.63-1-10,0-.33,0-.67,0-1,0-2,0-4,0-6,4.98-2.6,23.41-16.62,23.86-21.67.17-1.88-3.45-3.74-2.86-4.31,4.56.29,9.38-3.04,8-8.01-.19-.68-2.94-.9-1.99-2.98,11.54-4.49,6.05-4.29,1.02-10.55-11.76-14.66-8-30.88-11.48-48.52-.98-4.94-6.85-26.54-10.56-28.5-3.06-1.61-11.51,5.87-14,8.04-2.85,2.48-6.46,6.18-8.96,9.04-2.33,2.67-10.58,15.28-12.02,15.98-5,2.46-18.33-1.61-24.01,1.49ZM1452.11,253.28c21.4-3.22,33.5-25.08,36.7-44.78,1.08-6.62,3.84-25.2-4.68-27.8-12.02-3.66-10.39,18.88-11.16,24.96-.95,7.53-4.54,16.84-9.05,22.95-2.13,2.88-6.21,5.61-7.6,8.4-2.16,4.32-2.46,11.53-4.22,16.27ZM388.1,459.28c-15.31,21.25-12.51,45.41-3.18,68.68,2.09,5.21,7.63,12.57,7.25,17.8-.21,2.89-7.81,16.94-9.52,21.56-17.06,46.03-20.05,101.98-2.29,148.2,19.98,52,77.49,98.54,132.74,106.76l5.99-103.49c-.42-4.11-18.06-51.4-19.99-53.51-.68-7.72-16.52-40.36-14.92-45.36.66-2.05,3.54-1.96,5.21-1.46,3.83,1.16,26.99,37.21,32.41,43.55.62.72-.03,1.89,2.29,1.27,1.11-14.78,1.1-29.7,2.02-44.48,2.12-34.19,3.41-71.21,7-105,.38-3.57,1.05-13.68,3.41-15.59,4.57-3.7,6.22,4.16,6.57,7.6.96,9.68.48,20.28,1.02,29.98,2.88,51.04,6.29,102.31,8.99,153.51,1.19,22.64,1.69,45.36,3.01,67.99l51.33-34.16c7.93-5.3,13.03-2.76,7.08,6.08l-56.41,73.59v18c0,.59,1.32,1.31,2.28,1.33,1.65.03,9.46-2.47,11.94-3.12,66.66-17.33,117.11-70.46,136.78-135.72,13.11-43.5,15.28-96.83-11.98-135.52-6.94-9.86-15.32-16-23.92-24.12,13.4-17.33,24.56-35.1,25.94-57.82,1.82-30.13-13.78-64.2-49.04-57.55,1.14-22.58-1.04-44.95-9.54-65.96-26.86-66.41-97.85-89.42-160.14-54.21-53.95,30.5-82.67,89.78-71.49,151.44-7.6,6.9-14.71,11.23-20.84,19.73ZM1242.1,470.28c-7.06,16.01-6.37,25.48-2,42,.59,2.25.75,4.53,1.54,6.96,1.68,5.15,10.47,22.69,10.5,25.52.05,5.33-4.88,10.65-6.77,15.28-18.94,46.29-23.74,105.32-6.28,152.75,20.08,54.58,77.03,101.88,135.02,109.49,1.05-34.23,4.44-68.26,5.98-102.5-4.73-17.31-12.76-33.66-18.99-50.51-4.52-12.23-12.26-30.3-15.31-42.18-1.49-5.81-1.52-11.26,5.89-7.88l32.42,45.06,10.06-161.45c7.49-14.35,9.42,1.56,9.94,8.96,4.09,58.69,5.88,117.68,9.01,176.49,1.22,22.97,2.23,46,3.01,68.99l52.33-34.16c5.5-4.03,13.08-4.3,8.11,4.12-5.51,10.01-58.45,70.77-58.45,75.55v18c0,.6,1.43,1.41,2.3,1.35,2.36-.15,12.66-3.27,15.92-4.14,65.86-17.59,110.56-69.76,131.78-132.72,16.02-47.5,16.88-104.03-17.49-144.01-2.63-3.06-18.11-16.38-18.36-17.63-.33-1.69,10.67-14.1,12.66-17.04,15.32-22.63,20.13-56.06,5.61-80.23-5.01-8.34-16.58-19.08-26.92-19.08h-14.5c4.82-49.88-18.52-104.07-64.79-126.71-4.24-2.07-19.42-7.95-23.23-6.89-2.85.8-3.68,3.75-8.5,3.7-6.22-.06-8.12-7.37-16.54-4.66-3.94,1.27-3.89,6.05-10.2,4.32-5.99-1.64-4.95-3.7-13.8-2.32-47.97,7.49-93.32,63.53-102.65,109.35-3.85,18.9-2.52,36.46-.5,55.5-11.59,9.97-20.46,16.32-26.8,30.71ZM1367.1,1019.28h57c-3.33-45.43-5.39-90.97-6.96-136.54-2.75-27.23-3.67-54.57-4.98-81.91,13.22-19.48,29.55-37.33,43.33-56.66.81-1.14,5.32-7.16,4.6-7.89l-43.69,27.8c-1.96.75-3.97,3.45-5.16.55l-12.64-230.37-8.66,141.35c-.61,1.78-4.08,3.31-5.83,2.21l-27.01-38.54c4.13,10.94,7.23,22.26,11.24,33.25,4.65,12.73,11.47,25.89,15.53,38.47s-.02,32.01-.77,45.79c-3.79,70-7.67,139.99-12.02,209.98-1.09,17.49-3.12,35.01-3.99,52.51Z" fill="#737373"/><path d="M303.1,281.28c0,2,0,4,0,6l2.99-1c0,87.23-.01,174.15-.05,261.45-.03,77.51.11,155.04.06,232.54l9.95-17.53c.54-1.22,3.53-1.98,4.03-1.46,2.29,2.37-13.86,22.49-12.86,26.28.3,1.15,4.22,5.33,5.36,7.72,3.71,7.79,7.18,24.81,8.39,33.61s-.12,18.58,3.08,26.92c1.9,4.97,11.29,15.69,11.89,18.17.34,1.42-1.22,3.95-.85,4.28.91.81,12.9-1.84,11.99,2.49-.62,2.94-9.5.49-12,2.01-.95.58-3.38,6.17-3.62,7.48-.7,3.83,6.43,4.6,9.13,7.02.94.85,2.19,1.57.5,2.51-2.18,1.21-9.84-3.99-12.99-2.04-1.04.64-2.75,4.53-4.03,6.01-1.95,2.24-4.73,5.11-6.97,7.03s-12.13,7.83-12.52,8.47c-1.45,2.37,2.19,22,3.45,25.58,2.86,8.11,11.45,16.03,12.07,25.44,10.19-8.5,8.77-21.93,10-33.48.89-8.35,5.18-18.69,15.39-17.49,15.27,1.79,13.08,26.44,11.15,37.03-3.3,18.08-11.15,33.12-27.23,42.77-8.95,5.38-18.24,5.23-24.39,14.61l-11.93,5.57h208c.57-4.75-1.26-10.83,1-15v10c7.76-.2-.04-5.04,5-8-.42,4.28.05,8.74-1,13h57.01c-.05-1.98.07-4,0-6,2.57,2.68,4.97,6.94-.45,7.05l-272.62-.47c-1.25-.94-.36-3.84-1.93-4.58,1.43-2.46,4.81-.95,5.78-1.32.26-.1,4.07-2.44,4.58-2.8,8.97-6.45,14.72-18.99,15.64-29.88,1.6-18.87-8.34-21.52-12.52-35.98-2.43-8.41-2.73-18.57-3.5-27.32,9.38-5.83,17.86-12.83,25-21.23v-1.46c-3.81-.83-6.35-4.32-.78-4.73,2.91-.22,1.99,2.15,3.8-2.29.76-1.86,1.67-2.97,1.01-5.35-.24-.89-2.82-.28-2-2.14.75-1.7,5.83-2.28,4.89-5.82-.17-.65-6.08-7.59-7.31-9.77-8.76-15.51-5.85-44.13-13.82-64.18-1.15-2.9-2.66-7.95-6.17-7.75-8.27.46-28.87,24.8-34.02,32.08-2.27,1.59-5.05.82-7.58.93-4.42.19-8.97-.35-13.38.12s-15.36,5.1-17.91,4.71c-2.23-.34-19.22-16.31-23.79-19.25-2.4-1.54-14.13-8.72-16.03-5.99-5.45,7.87-2.53,44.18-.6,54.62.92,4.96,4.53,13.39,4.53,17.29,0,5.09-5.92,15.53-4.66,19.79.87,2.97,5.5,3.36,5.8,3.78.35.49-2.47,6,3.04,8.49,1.1.5,3.15-2.41,4.99-1.56.3,1.44-1.01,3.19-.79,4.38.8,4.36,19.74,10,23.19,12.71,1.03.81,1.34.99,1.61,2.4.68,3.55-3.2,19.37-4.72,23.29-2.23,5.75-5.86,8.26-8.29,15.21-.24.7-1.6,1.27-1.96,3.52-1.84,11.82,3.22,34.6,13.96,41.48-.89,2.55-3.36,1.48-5,3-12.7-9.29-18.97-36.43-13.17-50.67,2.42-5.94,7.34-10.15,9.65-16.35.74-1.99,4.38-16.24,4.02-17.03l-23.18-12.82c-3.03-.46-7.8,9.36-10.31,10.87-2.27-5.59,7.22-11.23,5.52-14.98-.28-.62-5.61-5.71-6.02-5.74-1.79-.14-7.94,4.73-9.99,5.76-1.17.59-2.17,1.29-2.52-.56-.06-3.76,10.54-7.44,10.77-8.95.19-1.26-2.99-6.41-2.74-9.92.33-4.68,4.75-10.26,5.01-15.15.37-6.78-5.04-21.48-6.03-29.98-1.22-10.4-2.89-35.1,2.14-43.84,4.63-8.05,9.26-5.75,16.23-2.53,10.79,4.99,21.19,15.16,30.32,22.73,4.79-.72,9.11-2.89,13.92-3.73,5.87-1.03,16.46-.09,20.67-1.33,2.48-.73,6.11-7.56,8.19-9.81,7.47-8.05,17.05-18.83,27.51-22l-.19-2.29c-1.14-3.36-12.83-21.88-12.78-23.2.09-2.47,4.32-1.03,4.95,1.03l9.02,16.47,1.01-498.99ZM348.76,927.63c-2.86-2.83-6.31-3.15-9.63-.82-4.96,3.49-2.47,12.54-3.04,17.96-.82,7.78-2.49,15.88-6.18,22.82-2.37,4.45-7.66,8.75-9.24,11.76-2.53,4.82-2.86,14.49-5.57,19.92,16.19-4.02,28.65-19.48,33.51-34.98,2.65-8.45,6.83-30.06.14-36.67Z" fill="#737373"/><path d="M1178.1,57.28c.26,9.37-.57,19.24,0,28.52.18,2.98,1.68,1.26,3,.48-.4,79.13,1.07,158.47,1.05,237.45-.05,225.28-4.7,451.25-1.05,676.55-4.61-1.12-2.84,3.18-3,7V57.28Z" fill="#737373"/><path d="M1067.84,514.52c12.85-2.19,22.59,5.63,24.15,18.37,1.98,16.21-3.33,34.84-23.13,32.12-22.39-3.07-23.26-46.7-1.02-50.5ZM1067.81,520.5c-16.33,3.74-12.57,48.35,10.18,38.18,13.43-6.01,12.85-43.45-10.18-38.18Z" fill="#737373"/><path d="M185.84,514.52c33.42-5.7,32.93,57.26-.79,50.32-20.82-4.29-21.92-46.44.79-50.32ZM187.87,519.48c-16.37,2.25-16.49,34.25-2.96,39.49,24.61,9.55,26.27-42.69,2.96-39.49Z" fill="#737373"/><path d="M1115.86,514.55c33.57-4.61,30.61,61.27-3.99,49.47-18.88-6.44-17.17-46.56,3.99-49.47ZM1118.85,519.53c-19.23,1.04-18.71,40.77.75,40.78,18.38,0,18.83-41.84-.75-40.78Z" fill="#737373"/><path d="M232.84,514.53c32.15-5.49,32.54,53.56,1.88,50.65-23.63-2.24-23.99-46.88-1.88-50.65ZM235.89,519.49c-18.73,1.69-16.84,41.13,1.6,40.71,19.26-.43,18.49-42.52-1.6-40.71Z" fill="#737373"/><path d="M1043.1,515.28c3.23,3.26-9.83,16.6-11.98,19.5-.01.99,11.52,2.85,13.51,10.47,5.05,19.33-15.84,22.97-29.8,17.81-5.22-1.93-8.85-3.72-4.2-8.81,7.88,6.62,30.25,9.79,28.54-5.49-1.02-9.11-10.53-6.89-17.07-8.48-2.06-2.3,12.8-16.84,14-19.99h-23.5c-1.31,0-1.83-3.69-1.5-5h32Z" fill="#737373"/><path d="M138.1,559.28h25c.63.87.35,5,0,5h-34l.51-4.99c6.63-5.99,26.09-21.9,26.43-30.59.41-10.55-11.56-10.11-18.73-7.71-4.51,1.51-4.91,4.84-10.21,1.28,5.93-9.83,25.91-11.29,32.54-2.02,10.39,14.53-14.39,28.91-21.54,39.04Z" fill="#737373"/><path d="M306.1,278.28v8l-2.99,1c-.01-1.99,0-4,0-6,0-1.33,0-2.67,0-4,1.77.2,2.05.72,3,1Z" fill="#737373"/><path d="M308.1,278.28c-.63-.1-1.48.16-2,0-.95-.28-1.23-.8-3-1-.65-.07-1.34.05-2,0,3.64-6.54,3.86-4.28,7,1Z" fill="#737373"/><path d="M388.1,459.28c6.13-8.5,13.24-12.83,20.84-19.73-11.19-61.66,17.54-120.94,71.49-151.44,62.28-35.21,133.27-12.21,160.14,54.21,8.5,21.01,10.68,43.38,9.54,65.96,35.26-6.65,50.86,27.41,49.04,57.55-1.37,22.72-12.53,40.48-25.94,57.82,8.6,8.12,16.98,14.26,23.92,24.12,27.25,38.69,25.09,92.03,11.98,135.52-3.85-.45-4.98,2.32-7.28,3.23-16.17,6.39-49.47,10.99-67.15,11.77-28.05,1.23-54.35-3.23-81.57-9-2.7-51.2-6.11-102.47-8.99-153.51-.55-9.7-.06-20.29-1.02-29.98-.34-3.45-2-11.3-6.57-7.6-2.37,1.92-3.03,12.02-3.41,15.59-3.59,33.79-4.88,70.81-7,105-.92,14.79-.91,29.71-2.02,44.48-2.32.62-1.67-.54-2.29-1.27-5.42-6.34-28.58-42.39-32.41-43.55-1.67-.51-4.55-.59-5.21,1.46-1.6,4.99,14.24,37.64,14.92,45.36-.04-.04.06,1.64-1.01.52s-1-3.44-1.94-4.07c-1.39-.93-4.09.01-6.61-1.39-1.14-.64-10.58-8.9-12.45-10.55-22.86-20.16-39.26-46.46-52.16-73.84-14.61-38.04-26.52-77.25-36.82-116.68Z" fill="#737373"/><path d="M1242.1,470.28c6.34-14.39,15.2-20.74,26.8-30.71-2.02-19.03-3.36-36.59.5-55.5,9.34-45.81,54.68-101.86,102.65-109.35,8.85-1.38,7.81.68,13.8,2.32,6.31,1.73,6.26-3.05,10.2-4.32,8.43-2.72,10.32,4.6,16.54,4.66,4.82.05,5.65-2.91,8.5-3.7,3.81-1.06,18.99,4.81,23.23,6.89,46.27,22.64,69.61,76.82,64.79,126.71h14.5c10.34,0,21.91,10.74,26.92,19.08,14.53,24.17,9.71,57.61-5.61,80.23-1.99,2.94-12.99,15.36-12.66,17.04.24,1.25,15.73,14.57,18.36,17.63,34.36,39.98,33.5,96.51,17.49,144.01-51.05,14.82-103.41,17.56-155,3-3.13-58.81-4.92-117.8-9.01-176.49-.51-7.4-2.45-23.31-9.94-8.96l-10.06,161.45-32.42-45.06c-7.4-3.37-7.38,2.08-5.89,7.88,3.05,11.89,10.79,29.95,15.31,42.18-10.3-9.54-22.46-17.17-32.53-26.97-21.71-21.15-38.86-52.93-49.47-81.03-.48-1.26-.53-2.73-1-4-7.38-20.04-13.54-40.64-20-61-3.05-9.62-5.6-19.48-9.01-29-3.14-.92-3.05,1.52-3.96,2.21-.59.44-2.56,2.81-3.02.79Z" fill="#737373"/><path d="M499.1,665.28c1.93,2.11,19.57,49.4,19.99,53.51l-5.99,103.49c-55.25-8.22-112.77-54.76-132.74-106.76-17.76-46.22-14.77-102.17,2.29-148.2,1.71-4.62,9.31-18.67,9.52-21.56.38-5.24-5.16-12.59-7.25-17.8-9.33-23.27-12.13-47.43,3.18-68.68,10.3,39.42,22.21,78.63,36.82,116.68,12.91,27.38,29.31,53.68,52.16,73.84,1.87,1.65,11.31,9.91,12.45,10.55,2.51,1.41,5.22.46,6.61,1.39.94.63.91,3,1.94,4.07s.97-.56,1.01-.52Z" fill="#737373"/><path d="M1278.1,557.28c-4.94-.21-1.82,6.39,1,4,10.61,28.1,27.76,59.88,49.47,81.03,10.07,9.81,22.22,17.44,32.53,26.97,6.23,16.84,14.26,33.2,18.99,50.51-1.54,34.24-4.93,68.27-5.98,102.5-57.99-7.61-114.94-54.9-135.02-109.49-17.45-47.43-12.65-106.46,6.28-152.75,1.9-4.64,6.82-9.96,6.77-15.28-.03-2.83-8.82-20.37-10.5-25.52-.79-2.43-.95-4.71-1.54-6.96,1.18-2.58,2.56.2,3.2,1.3,1.58,2.72,2.27,6.03,3.56,8.42.63,1.17-.04,1.69,2.23,1.27-1.46-5.44,3.87-10.17,4.78-14.72.58-2.9-.35-6.32.2-8.58.26-1.08,3.76-1.68,4.02-3.7,6.46,20.36,12.62,40.96,20,61Z" fill="#737373"/><path d="M507.1,1006.28c9.51-96.1,11.24-193.19,18.03-289.54-7.1-22.56-17.63-44.36-25.05-66.94-1.23-3.73-3-7.51-2.97-11.52,3.37,3.72,6.39,8.13,9.21,12.28,4.42,6.5,11.31,20.53,15.8,25.2,1.97,2.05,3.75,4.3,5.79.83,1.33-2.25,2.85-25.1,3.18-29.82,2.35-33.58,2.05-68.55,5.02-101.98.14-1.56.32-6.39,2.99-5.5l12.01,226c2.94.49,4.9-.97,7.3-2.2,14.66-7.55,28.73-21.13,43.69-28.8l-5.58,8.91c-5.8,6.64-10.65,14.03-16,21-9.37,12.22-19.96,23.97-28.36,36.64,2.06,70.9,8.16,141.61,10.94,212.44.08,1.99-.04,4.01,0,6.01h-57.01c1.06-4.27.58-8.73,1-13.01Z" fill="#737373"/><path d="M1367.1,1019.28c.87-17.5,2.9-35.02,3.99-52.51,4.35-69.99,8.23-139.98,12.02-209.98.75-13.78,4.87-33.07.77-45.79s-10.88-25.74-15.53-38.47c-4.02-10.99-7.11-22.31-11.24-33.25l27.01,38.54c1.74,1.1,5.22-.42,5.83-2.21l8.66-141.35,12.64,230.37c1.19,2.9,3.2.2,5.16-.55l43.69-27.8c.71.72-3.79,6.74-4.6,7.89-13.77,19.33-30.11,37.19-43.33,56.66,1.31,27.34,2.23,54.68,4.98,81.91,1.56,45.57,3.63,91.11,6.96,136.54h-57Z" fill="#737373"/><path d="M261.1,826.28c-1.18,1.38-1.87,2.57-2.05,4.45-.97,10.23,1.74,22.53,4.78,32.32.97,3.13,5.41,15.59,7.29,17.23,2.17,1.89,2.69-5.05,3.18-6.29.76-1.92,2.22-2.82,1.8.3-.09.28.06.66,0,1-2.39,1.8-.71,4.16,0,6,1.59,4.16,4.39,6.4,9,6-1.57,4.44,9.12,6.03,12.49,6.07,11.27.16,17.23-4.42,26.8-7.3,3.46-1.04,1.4-.13,1.71,2.22-1.8,4.44-.88,2.07-3.8,2.29-5.58.41-3.04,3.9.79,4.73v1.46c-7.15,8.4-15.63,15.4-25.01,21.23.76,8.75,1.06,18.9,3.5,27.32,4.18,14.46,14.12,17.11,12.52,35.98l-2.49-1c-5.96,5.77-12.24,11.02-17.68,17.32-1.38,1.59-1.95,3.14-1.82-.32,1.59-5.79,9.5-42.29,7.55-45.03-.78-1.08-3.18-1.36-3.54-.97-.39.41-.84,9.34-1.17,11.33-2.15,13.15-4.67,27.39-9.07,39.93-.68,1.93-5.26,14.16-5.93,14.57-2.38,1.46-7.95.91-8.57-2.56-2.39-13.51,2.04-32.75-.27-45.77-.76-4.26-3.2-1.43-4-1.5-3.17-.3-8.08-1.98-11-2-2.73-.02-2.78,1.13-3.05,3.45-1.66,14.32,2.82,31.31,1.05,46.05-3.03,5.97-7.06,1.35-9.53-2.47-10.99-17.03-11.45-39.97-14.74-59.29-1.12-6.57-4.09-1.26-3.77,4.8.63,12.19,3.11,28.92,7.04,40.46l-1.23.75c-4.61-8.22-7.2-19.56-11.59-27.43-1.34-2.4-2.79-5.91-6.18-5.32,2.44-6.94,6.07-9.45,8.29-15.21,1.52-3.92,5.39-19.74,4.72-23.29-.27-1.41-.58-1.59-1.61-2.4-3.45-2.71-22.39-8.35-23.19-12.71-.22-1.2,1.09-2.95.79-4.38-1.85-.85-3.89,2.06-4.99,1.56-5.51-2.49-2.7-8.01-3.04-8.49-.3-.42-4.93-.82-5.8-3.78-1.25-4.26,4.67-14.7,4.66-19.79,0-3.9-3.61-12.33-4.53-17.29-1.93-10.44-4.86-46.75.6-54.62,1.89-2.73,13.63,4.45,16.03,5.99,4.57,2.93,21.57,18.9,23.79,19.25,2.55.4,13.31-4.21,17.91-4.71s8.96.07,13.38-.12ZM199.1,820.28c-1.33,1.04-2.65,2.86-2.95,4.55-.59,3.33-.53,29.49,3.45,29.43l6.5-5.98c.78-3.64,11.09-9.91,10.86-12.33-.37-3.88-12.26-14.6-15.92-16.2-1.99-.87-1.33.04-1.94.52ZM231.82,875.46c-7.07,2.06-5.24,17.99,2.72,16.85,8.29-1.19,6.23-19.45-2.72-16.85ZM270.22,895.41c-.67.38-1.17,5.46-5.12,3.41-5.71-2.96,2.87-10.6-2.49-11.54-16.5-2.9-3.38,8.2-3.58,9.36-5.44,7.48-4.99,3.35-9.44,1.65-3.19-1.22-1.05,5.42,3.07,6.02,4.75.68,6.26-3.52,8.09-3.88,1.34-.26,3.66,2.24,7.59,1.65,7.86-1.19,6.06-9.06,1.88-6.67ZM229.27,937.12c.57.93,12.53,4.55,14.59,4.91,10.45,1.79,22.39,1.44,32.51-.98,3.45-.83,18.16-5.95,19.81-8.18,1.54-2.08.45-13.63-2.37-13.43-3.22.22-11.47,3.51-15.67,4.39-15.73,3.28-32.12,5.74-47.99,2.49-.9.63-1.61,9.61-.87,10.81Z" fill="#737373"/><path d="M1568.1,685.28c-21.23,62.95-65.92,115.12-131.78,132.72-3.26.87-13.56,3.99-15.92,4.14-.86.06-2.3-.76-2.3-1.35v-18c0-4.78,52.94-65.54,58.45-75.55,4.97-8.42-2.61-8.15-8.11-4.12l-52.33,34.16c-.78-22.99-1.78-46.03-3.01-68.99,51.59,14.56,103.95,11.82,155-3Z" fill="#737373"/><path d="M709.1,683.28c-19.67,65.26-70.13,118.38-136.78,135.72-2.48.64-10.29,3.15-11.94,3.12-.96-.02-2.28-.74-2.28-1.33v-18l56.41-73.59c5.95-8.84.85-11.38-7.08-6.08l-51.33,34.16c-1.31-22.63-1.81-45.36-3.01-67.99,27.21,5.77,53.52,10.23,81.57,9,17.69-.78,50.99-5.38,67.15-11.77,2.3-.91,3.43-3.68,7.28-3.23Z" fill="#737373"/><path d="M1383.1,82.28c5.58-.39,11.4.27,17,0-.51,1.85-2.65,3.28-2.73,5.27-.44,11.64,5.01,40.57,11.72,50.22,2.1,3.02,4.06,4.62,7,1.5,1.23,1.7,3.8,3.82,6,3,.09,1.97-.93,3.11,1.24,4.29,8.04,4.36,21.8,1.95,29.77-1.78,3.85-1.8,7.13-5.75,11.99-6.51,1.39,4.97-3.44,8.3-8,8.01-.59.58,3.02,2.43,2.86,4.31-.45,5.05-18.88,19.08-23.86,21.67-16.1,8.4-53.74,13.54-71,9-4.15-1.09-20.65-8.38-23.53-10.98-3.06-2.77.55-4.01,1.53-7.01-7.24,3.31-11.31,1.27-9.01-7.01-.29-.31-4.96,2.87-6.59-2.99-1.06-3.79,2.56-7.91,3.65-11.46,3.36-10.9-1.56-17.79-3.59-28.52-3.29-17.39-4.18-36.96.11-54.1,4.56-1.14,22.68,12.59,26.9,16.09,2.36,1.96,8.32,9.21,10.25,9.79,3.33.99,13.26-2.47,18.28-2.82ZM1340.1,104.28c3.13-3.33,14.1-10.18,13.96-14.51s-11.95-13.7-15.96-15.49c-.73-.33-1.31-1.66-2.98-.98-3.41,2.41-2.32,29.16.5,32.96s4.13-1.6,4.48-1.98ZM1369.81,130.45c-5.53,1.67-6.13,15.11,1.02,16.65,10.46,2.25,9.14-19.71-1.02-16.65ZM1402.11,142.28c-3.59-.11-7.43-.52-9.99,2.5,1.43,1.97,5.58,4.04,4.87,6.79-1.71,6.62-9.43,1.27-9.88,1.71,1.75,10.46,9.36,2.2,12.47,2.06,4.31-.2,12.11,6.9,11.52-5.06-3.3-.89-1.31,3.29-3.59,3.96-1.21.36-5.73-1.58-6.47-2.66-2.01-2.93,2.27-5.68,1.07-9.3Z" fill="#737373"/><path d="M1436.1,178.28c0,.33,0,.67,0,1,0,3.12-.81,7.71,1,10,1.07,16.92,5.64,14.67,11.18,26.32,7.48,15.74-.03,45.24-17.23,52.13-1.01.4-7.87,2.08-7.93.05-.02-.72,4.91-10.67,5.69-13.29,2.12-7.07,4.39-15.96,5.82-23.18.95-4.82,3.62-17.48,3.51-21.59-.05-1.82-1.56-4.87-3.53-4.44-2.07.45-2.29,14.25-2.79,17.22-1.38,8.29-10.44,47.5-18.4,49.64-3.92,1.05-4.93-7.8-5.2-10.49-1.27-12.32,2.74-28.1.88-38.88-.4-2.31-1.29-2.86-3.01-1.49-.6.48-.96,2.1-1.58,2.07-.93-.05-6.66-2.88-9.42-3.07-2.16-.15-3.79.05-4,2.5l.89,40.89c-.95,6.51-3.14,12.44-8.74,4.96-6.5-8.69-12.31-30.23-13.87-41.13-.52-3.62-1.27-21.08-2.22-21.78s-1.97-.44-3.04-.44c-1.72,1.1.61,19.87,1.13,23.35,1.4,9.44,3.86,18.61,6.86,27.64.16,3.4-.49,1.97-1.83.33-9.76-12.01-12.4-20.47-15.21-35.83-.33-1.81,1.32-4.06-1.96-3.49,4.6-8.91,9-15.84,11-26,19.32,7.71,46.25,10.05,63.91-2.59,2.32-1.66,6.15-4.03,6.82-7.06.31-1.42-2.53-6,1.27-3.35Z" fill="#737373"/><path d="M1383.1,82.28c5.68-3.1,19.01.97,24.01-1.49,1.44-.71,9.69-13.32,12.02-15.98,2.5-2.86,6.11-6.56,8.96-9.04,2.5-2.17,10.95-9.65,14-8.04,3.71,1.96,9.58,23.56,10.56,28.5,3.48,17.64-.29,33.86,11.48,48.52,5.02,6.26,10.52,6.06-1.02,10.55-.95,2.08,1.8,2.3,1.99,2.98-4.86.76-8.14,4.71-11.99,6.51-7.97,3.73-21.73,6.14-29.77,1.78-2.18-1.18-1.15-2.32-1.24-4.29.29-.11,3.32-4.2,3.55-4.94,1.94-6.16-1.42-15.45-8.89-12.9-4.16,1.42-3.06,11.55-.67,14.84-2.95,3.12-4.9,1.52-7-1.5-6.71-9.65-12.17-38.59-11.72-50.22.08-1.99,2.22-3.42,2.73-5.27-5.6.26-11.42-.4-17,0ZM1436.1,60.29c-1.11-1.21-5.68,4.2-6.41,5.08-1.73,2.07-9.61,13.59-9.57,15.44.08,3.52,11.32,9.02,14.51,9.48,1.85.27,2.17-1.19,1.47-1.98-1.7-1.92-11.91-4.78-11.98-8.5-.07-3.97,13.75-17.59,11.98-19.52Z" fill="#737373"/><path d="M1452.11,253.28c1.76-4.74,2.06-11.95,4.22-16.27,1.39-2.78,5.48-5.52,7.6-8.4,4.51-6.11,8.1-15.43,9.05-22.95.77-6.08-.87-28.62,11.16-24.96,8.52,2.59,5.75,21.17,4.68,27.8-3.2,19.7-15.3,41.57-36.7,44.78Z" fill="#737373"/><path d="M1436.1,178.28c-3.81-2.66-.96,1.93-1.27,3.35-.66,3.03-4.49,5.4-6.82,7.06-17.66,12.64-44.59,10.29-63.91,2.59.63-3.21,1.02-6.71,1-10,17.26,4.54,54.9-.6,71-9,0,2,0,4,0,6Z" fill="#737373"/><path d="M1242.1,470.28c.46,2.02,2.44-.35,3.02-.79.91-.68.82-3.12,3.96-2.21,3.42,9.52,5.96,19.38,9.01,29-.27,2.02-3.76,2.62-4.02,3.7-.55,2.26.38,5.68-.2,8.58-.91,4.55-6.24,9.27-4.78,14.72-2.27.42-1.6-.11-2.23-1.27-1.3-2.39-1.99-5.7-3.56-8.42-.64-1.1-2.02-3.88-3.2-1.3-4.37-16.52-5.06-25.99,2-42Z" fill="#737373"/><path d="M214.1,966.28c3.39-.59,4.84,2.92,6.18,5.32,4.39,7.86,6.98,19.21,11.59,27.43l1.23-.75c2.11,6.19,6.22,11.69,7.99,17.99-1.1,1.04-13.27-3.89-14.99-4.99-10.73-6.88-15.8-29.66-13.96-41.48.35-2.25,1.71-2.82,1.96-3.52Z" fill="#737373"/><path d="M1353.1,217.28c3.28-.57,1.63,1.68,1.96,3.49,2.81,15.36,5.45,23.82,15.21,35.83,1.33,1.64,1.98,3.07,1.83-.33.91,2.76,4.64,8.63,4.08,11.37-8.1,5.9-17.96-6.05-21.26-12.69s-7.08-23.65-5.6-30.95c.54-2.63,2.71-4.67,3.77-6.73Z" fill="#737373"/><path d="M1395.1,220.28c2.76.19,8.5,3.02,9.42,3.07.62.03.98-1.6,1.58-2.07l-2.14,44.36c-.87,2.65-5.56,1.44-7.86,1.64l-1-47Z" fill="#737373"/><path d="M292.1,997.28c-.13,3.46.45,1.92,1.82.32,5.44-6.3,11.73-11.55,17.68-17.32l2.49,1c-.92,10.88-6.67,23.43-15.64,29.88-.5.36-4.31,2.7-4.58,2.8-.97.37-4.35-1.14-5.78,1.32-.41-.19-1.79.24-2,0-.6-.73,5.33-15.58,6-18Z" fill="#737373"/><path d="M267.1,967.28v51s-8,0-8,0c.6-6.23,1.15-12.18.99-18.49-.2-8.39-1.27-19.37-2.1-27.9-.21-2.17-1.1-4.58-1.89-6.61,2.92.02,7.83,1.7,11,2Z" fill="#737373"/><path d="M1437.1,189.28c-1.81-2.29-1.01-6.88-1-10,1.97,2.37.8,6.8,1,10Z" fill="#737373"/><path d="M261.1,826.28c2.53-.11,5.3.66,7.58-.93,5.15-7.28,25.75-31.62,34.02-32.08,3.51-.2,5.02,4.85,6.17,7.75,7.97,20.05,5.06,48.67,13.82,64.18,1.23,2.18,7.14,9.12,7.31,9.77.95,3.54-4.14,4.11-4.89,5.82-.82,1.86,1.76,1.25,2,2.14.66,2.39-.25,3.49-1.01,5.35-.31-2.35,1.75-3.26-1.71-2.22-9.57,2.88-15.53,7.46-26.8,7.3-3.37-.05-14.06-1.63-12.49-6.07s4.06-4.46,2.94-11.44-9.67-8.64-11.94-1.56c.43-3.12-1.03-2.22-1.8-.3-.49,1.24-1.02,8.19-3.18,6.29-1.88-1.64-6.31-14.1-7.29-17.23-3.04-9.78-5.75-22.09-4.78-32.32.18-1.88.86-3.07,2.05-4.45ZM296.1,809.29c-1.01-.92-3.04.59-4.01,1.48-1.97,1.81-10.36,14.82-9.86,16.91,1.6,1.39,15.22,9.23,15.87,8.59,2.36-2.33-11.67-9.24-11.98-10.57.22-2.42,10.75-15.72,9.98-16.42Z" fill="#737373"/><path d="M348.76,927.63c6.68,6.61,2.51,28.21-.14,36.67-4.86,15.5-17.32,30.96-33.51,34.98,2.71-5.44,3.04-15.1,5.57-19.92,1.58-3.01,6.87-7.31,9.24-11.76,3.69-6.94,5.36-15.05,6.18-22.82.57-5.42-1.92-14.47,3.04-17.96,3.32-2.34,6.77-2.01,9.63.82Z" fill="#737373"/><path d="M1278.1,557.28c.47,1.27.52,2.74,1,4-2.82,2.39-5.94-4.21-1-4Z" fill="#737373"/><path d="M229.27,937.12c-.74-1.2-.02-10.18.87-10.81,15.87,3.25,32.26.8,47.99-2.49,4.2-.88,12.44-4.16,15.67-4.39,2.83-.2,3.92,11.35,2.37,13.43-1.66,2.24-16.36,7.36-19.81,8.18-10.11,2.42-22.06,2.77-32.51.98-2.06-.35-14.02-3.98-14.59-4.91Z" fill="#737373"/><path d="M199.1,820.28l14.98,15.5c0,1.92-14.87,8.58-7.98,12.5l-6.5,5.98c-3.99.06-4.04-26.1-3.45-29.43.3-1.69,1.62-3.51,2.95-4.55Z" fill="#737373"/><path d="M270.22,895.41c4.19-2.39,5.99,5.48-1.88,6.67-3.94.6-6.26-1.91-7.59-1.65-1.83.36-3.34,4.56-8.09,3.88-4.12-.59-6.26-7.24-3.07-6.02,4.45,1.71,4,5.83,9.44-1.65.2-1.16-12.92-12.26,3.58-9.36,5.36.94-3.22,8.59,2.49,11.54,3.95,2.05,4.46-3.03,5.12-3.41Z" fill="#737373"/><path d="M285.1,887.28c-4.61.4-7.41-1.84-9-6,.22-1.89-.31-4.23,0-6,.06-.34-.09-.72,0-1,2.27-7.09,10.78-5.65,11.94,1.56s-1.37,7.01-2.94,11.44Z" fill="#737373"/><path d="M231.82,875.46c8.95-2.61,11.01,15.66,2.72,16.85-7.96,1.14-9.79-14.79-2.72-16.85Z" fill="#737373"/><path d="M206.1,848.28c-6.89-3.92,7.99-10.58,7.98-12.5l-14.98-15.5c.62-.48-.05-1.39,1.94-.52,3.66,1.6,15.55,12.32,15.92,16.2.23,2.41-10.08,8.69-10.86,12.33Z" fill="#737373"/><path d="M276.1,881.28c-.71-1.84-2.39-4.2,0-6-.31,1.77.22,4.11,0,6Z" fill="#737373"/><path d="M1338.1,74.28c-2.37.85.24,2.71.99,3.52,1.96,2.13,10.93,9.96,10.77,12-3.18,3.56-6.6,6.46-9.18,10.56-.58.93-2.64,3.32-.58,3.92-.35.37-1.54,5.94-4.48,1.98s-3.91-30.55-.5-32.96c1.67-.68,2.25.66,2.98.98Z" fill="#737373"/><path d="M1422.1,142.28c-2.2.82-4.77-1.3-6-3-2.39-3.29-3.49-13.42.67-14.84,7.46-2.55,10.83,6.74,8.89,12.9-.23.74-3.27,4.84-3.55,4.94Z" fill="#737373"/><path d="M1369.81,130.45c10.17-3.07,11.49,18.9,1.02,16.65-7.15-1.54-6.55-14.98-1.02-16.65Z" fill="#737373"/><path d="M1402.11,142.28c1.2,3.63-3.08,6.37-1.07,9.3.74,1.08,5.25,3.02,6.47,2.66,2.29-.67.29-4.85,3.59-3.96.58,11.96-7.21,4.86-11.52,5.06-3.11.15-10.72,8.4-12.47-2.06.45-.44,8.17,4.91,9.88-1.71.71-2.75-3.44-4.82-4.87-6.79,2.55-3.02,6.39-2.61,9.99-2.5Z" fill="#737373"/><path d="M1340.1,104.28c-2.07-.6,0-2.99.58-3.92,2.58-4.1,6-7,9.18-10.56.16-2.04-8.82-9.87-10.77-12-.74-.81-3.35-2.66-.99-3.52,4.01,1.79,15.82,11.25,15.96,15.49s-10.82,11.18-13.96,14.51Z" fill="#737373"/><path d="M1436.1,60.29c1.77,1.93-12.06,15.55-11.98,19.52.07,3.72,10.28,6.58,11.98,8.5.7.79.38,2.24-1.47,1.98-3.18-.46-14.42-5.96-14.51-9.48-.04-1.85,7.84-13.37,9.57-15.44.73-.87,5.3-6.29,6.41-5.08Z" fill="#737373"/><path d="M296.1,809.29c.78.7-9.76,14-9.98,16.42.3,1.33,14.33,8.24,11.98,10.57-.64.63-14.27-7.21-15.87-8.59-.5-2.09,7.88-15.11,9.86-16.91.97-.89,3-2.4,4.01-1.48Z" fill="#737373"/><path d="M1178.1,57.28c-.02-.67.73-11.02-1.99-8-.12.14-.23,2.22-.97,3.5-1.21,2.1-7.62,14.27-8.56,14.49s-2.3-.86-2.48-1.54c-.8-3.05,12.38-19.63,12.99-24.46h-59.5c-1.72,0-1.72-4,0-4h383c1.72,0,1.72,4,0,4h-55.5l6.48,12.02c10.19,18.12,3.9,51.41,15.54,66.46,1.81,2.34,5.63,4.8,6.86,7.14.89,1.69,1.04,5.04,1.25,5.26.67.7,9.86.62,9.85,2.63-.01,2.44-8.73.9-10.99,1.99-2.43,1.17-3.96,7.89-5.97,10.01,3.51,3.08,10.51,1.16,8.97,7.49-3.89.7-7.41-3.11-10.96-1.51-1.47.67-11.84,13.31-15.02,16.03-1.67,1.42-8.54,5.24-8.8,5.69-.55.94-.39,12.19-.19,14.28,1.47,15.47,15.38,23.41,13.99,39.52,13.39-10.85,9.31-29.14,13.71-42.78,5.27-16.34,23.15-12.42,25.19,2.37,3.01,21.9-4.98,49.17-22.98,62.84-9.81,7.45-23.74,9.68-31.96,19.04-.77.87-1.29,1.11-.98,2.52,32.03,11.24,57.13,40.69,68.02,72.49,6.13,17.92,9.84,37.65,7.98,56.52,42.89-2.16,56.29,46.88,47.71,81.2-3.83,15.33-13.21,28.3-21.71,41.26,49.55,39.42,51.72,112.09,31.75,167.78-22.44,62.56-69.72,115.05-135.32,132.68-3.47.93-17.53,2.49-18.29,4.7l10.86,190.38h192.01s0,5.99,0,5.99H39.1v-6h189.5s-7.5-5-7.5-5c1.64-1.52,4.11-.45,5-3,1.72,1.1,13.9,6.03,14.99,4.99-1.78-6.3-5.89-11.8-7.99-17.99-3.93-11.54-6.42-28.26-7.04-40.46-.31-6.06,2.66-11.37,3.77-4.8,3.28,19.31,3.74,42.25,14.74,59.29,2.47,3.82,6.5,8.44,9.53,2.47,1.77-14.74-2.71-31.73-1.05-46.05.27-2.32.32-3.47,3.05-3.45.79,2.04,1.68,4.44,1.89,6.61.83,8.53,1.9,19.51,2.1,27.9.15,6.31-.39,12.26-.99,18.49h8.01s0-51,0-51c.8.08,3.24-2.76,4,1.5,2.32,13.03-2.11,32.26.27,45.77.61,3.47,6.19,4.01,8.57,2.56.67-.41,5.25-12.64,5.93-14.57,4.4-12.54,6.92-26.78,9.07-39.93.33-1.99.78-10.92,1.17-11.33.37-.38,2.77-.11,3.54.97,1.96,2.74-5.96,39.23-7.55,45.03-.66,2.42-6.6,17.26-6,18,.2.25,1.59-.19,2,0,1.57.74.67,3.63,1.93,4.58l272.62.47c5.42-.11,3.02-4.37.45-7.05-2.78-70.84-8.88-141.54-10.94-212.44,8.39-12.67,18.98-24.42,28.36-36.64,5.35-6.97,10.2-14.36,16-21l5.58-8.91c-14.96,7.67-29.03,21.26-43.69,28.8-2.4,1.23-4.35,2.69-7.3,2.2l-12.01-226c-2.67-.89-2.85,3.94-2.99,5.5-2.97,33.43-2.67,68.4-5.02,101.98-.33,4.72-1.85,27.57-3.18,29.82-2.05,3.47-3.82,1.22-5.79-.83-4.48-4.67-11.38-18.71-15.8-25.2-2.82-4.15-5.84-8.56-9.21-12.28-.03,4.01,1.74,7.78,2.97,11.52,7.42,22.58,17.96,44.38,25.05,66.94-6.79,96.36-8.53,193.44-18.03,289.54-5.04,2.95,2.76,7.8-4.99,8v-10s10.86-174.37,10.86-174.37c-.63-1.85-18.24-5.05-21.86-6.13-51.53-15.26-104.28-64.06-120.27-115.73-13.12-42.4-10.34-100.59,5.52-142.01,1.69-4.43,9.55-18.72,9.72-21.31.3-4.45-6.55-14.63-8.45-19.46-14.07-35.61-5.71-66.39,24.93-88.93-13.47-68.7,30.25-139.82,95.31-162.8l18.25-6.25h-204.5c-.42,0-4.1.87-3.49,2.48,1.16,3.04,5.74,8.99,7.51,12.5,1.08,2.15,4.86,8.64,4.48,10.5-.6,2.96-3.13-.08-3.98-1.01-3.1-3.37-5.63-9.43-8.03-13.47-3.14-5.28-3.36-7.54-7-1-1.52,2.73-8.71,17.58-11.49,16.99-1.54-1.21-1.52-1.25-1.08-3.04.77-3.14,14.61-22.12,13.57-22.95-11.53-2.35-23.54.02-35-1.02-.41-1.11.44-3.99,1.5-3.99h382c1.06,0,1.9,2.84,1.5,4h-87l22.97,8.53c46.02,22.15,71.23,75.33,68.03,125.47,27.77-.92,44.48,20.82,47.99,46.51,2.92,21.38-1.46,40.53-11.81,59.16-1.61,2.89-10.45,15.33-10.24,16.75,48.23,37.8,49.42,109.16,32.34,163.34-20.48,64.97-71.25,119.22-137.84,137.16-3.16.85-16.71,2.99-17.29,4.71l9.87,190.37h606c-.5-3.76-12.77-22.22-10.99-23.99,1.04-1.04,2.92.43,3.85,1.64,2.34,3.04,5.27,9.02,7.36,12.67.67,1.18.67,3.54.8,3.68,2.53,2.84,1.95-5.06,1.99-6,.16-3.82-1.61-8.12,3-7,.06,3.82-.04,7.67,0,11.5-.12.87,1.86.6,1.99.5,1.42-1.2,8.27-16.42,9.06-16.96.9-.62,3.74.35,3.96,1.49.28,1.48-12.12,19.01-13,22.48h178l11.87-189.37-1.56-1.44c-45.2-7.18-87.17-35.41-114.71-71.29-41.71-54.36-43.21-134.85-18.07-196.86,1.42-3.5,7.3-12.92,7.36-15.51.09-3.77-6.62-14.18-8.38-18.54-14.27-35.47-6.68-67.98,25.26-89.59-14.37-65.9,28.2-135.69,88.24-161.88,1.53-.67,7.74-2.19,7.97-2.53,1.46-2.11-3.61-5.8-4.82-7.65-6.48-9.88-12.48-27.9-11.06-39.72,1.48-12.34,17.58-24.86,15.74-39.47-5.81-.56-18.44-11.63-22.54-11.98-2.32-.2-8.14,7.43-8.81,9.83-6.46-2.98,5.89-12.06,5.04-13.99-.41-.95-4.76-4.9-6.09-5.03-1.58-.15-13.65,6.11-13.44,2.53.17-2.95,11.86-5.6,11.96-6.99.02-.29-2.42-3.62-2.75-5.23-1.45-7.08,1.83-9.43,3.49-15.05,2.65-8.96-2.82-20.43-4.43-30.02-2.11-12.6-4.43-41.86,1.51-52.91,5.26-9.78,23.35,4.84,29.09,9.3,3.3,2.56,13.38,12.74,15.84,13.23,3.17.63,17.09-2.41,21.77-2.83s12.32,1.34,15.52-1.48c4.62-4.07,10.5-15.5,15.95-21.05,4.99-5.1,10.61-8.1,16.02-12.48h-254c.77,4.8,12.84,21.13,11.99,24.45-.27,1.06-1.71,1.93-3.02,1.08s-8-14.82-8.98-17.53l-1.5.98c-.55,11.97-.42,24.01-.48,36.02-1.32.77-2.82,2.5-3-.48-.57-9.28.26-19.15,0-28.52ZM1383.1,82.28c-5.02.35-14.95,3.81-18.28,2.82-1.93-.57-7.89-7.82-10.25-9.79-4.22-3.5-22.34-17.23-26.9-16.09-4.29,17.14-3.4,36.71-.11,54.1,2.03,10.73,6.95,17.61,3.59,28.52-1.09,3.55-4.71,7.67-3.65,11.46,1.63,5.85,6.3,2.68,6.59,2.99-2.3,8.28,1.76,10.32,9.01,7.01-.98,3-4.59,4.24-1.53,7.01,2.87,2.6,19.37,9.89,23.53,10.98.02,3.29-.37,6.79-1,10-2,10.16-6.4,17.09-11,26-1.06,2.06-3.24,4.1-3.77,6.73-1.49,7.3,2.22,24.15,5.6,30.95s13.16,18.59,21.26,12.69c.56-2.74-3.16-8.61-4.08-11.37-3-9.03-5.45-18.2-6.86-27.64-.52-3.48-2.84-22.25-1.13-23.35,1.06,0,2.07-.28,3.04.44s1.7,18.16,2.22,21.78c1.57,10.89,7.37,32.43,13.87,41.13,5.6,7.48,7.79,1.55,8.74-4.96l-.89-40.89c.21-2.45,1.84-2.65,4-2.5l1,47c2.3-.2,7,1,7.86-1.64l2.14-44.36c1.72-1.37,2.61-.82,3.01,1.49,1.86,10.79-2.15,26.56-.88,38.88.28,2.69,1.29,11.55,5.2,10.49,7.96-2.14,17.03-41.35,18.4-49.64.49-2.98.71-16.77,2.79-17.22s3.49,2.62,3.53,4.44c.11,4.11-2.56,16.77-3.51,21.59-1.43,7.23-3.69,16.11-5.82,23.18-.79,2.62-5.72,12.57-5.69,13.29.06,2.02,6.92.35,7.93-.05,17.2-6.9,24.71-36.39,17.23-52.13-5.54-11.65-10.11-9.4-11.18-26.32-.2-3.2.97-7.63-1-10,0-.33,0-.67,0-1,0-2,0-4,0-6,4.98-2.6,23.41-16.62,23.86-21.67.17-1.88-3.45-3.74-2.86-4.31,4.56.29,9.38-3.04,8-8.01-.19-.68-2.94-.9-1.99-2.98,11.54-4.49,6.05-4.29,1.02-10.55-11.76-14.66-8-30.88-11.48-48.52-.98-4.94-6.85-26.54-10.56-28.5-3.06-1.61-11.51,5.87-14,8.04-2.85,2.48-6.46,6.18-8.96,9.04-2.33,2.67-10.58,15.28-12.02,15.98-5,2.46-18.33-1.61-24.01,1.49ZM1452.11,253.28c21.4-3.22,33.5-25.08,36.7-44.78,1.08-6.62,3.84-25.2-4.68-27.8-12.02-3.66-10.39,18.88-11.16,24.96-.95,7.53-4.54,16.84-9.05,22.95-2.13,2.88-6.21,5.61-7.6,8.4-2.16,4.32-2.46,11.53-4.22,16.27ZM388.1,459.28c-15.31,21.25-12.51,45.41-3.18,68.68,2.09,5.21,7.63,12.57,7.25,17.8-.21,2.89-7.81,16.94-9.52,21.56-17.06,46.03-20.05,101.98-2.29,148.2,19.98,52,77.49,98.54,132.74,106.76l5.99-103.49c-.42-4.11-18.06-51.4-19.99-53.51-.68-7.72-16.52-40.36-14.92-45.36.66-2.05,3.54-1.96,5.21-1.46,3.83,1.16,26.99,37.21,32.41,43.55.62.72-.03,1.89,2.29,1.27,1.11-14.78,1.1-29.7,2.02-44.48,2.12-34.19,3.41-71.21,7-105,.38-3.57,1.05-13.68,3.41-15.59,4.57-3.7,6.22,4.16,6.57,7.6.96,9.68.48,20.28,1.02,29.98,2.88,51.04,6.29,102.31,8.99,153.51,1.19,22.64,1.69,45.36,3.01,67.99l51.33-34.16c7.93-5.3,13.03-2.76,7.08,6.08l-56.41,73.59v18c0,.59,1.32,1.31,2.28,1.33,1.65.03,9.46-2.47,11.94-3.12,66.66-17.33,117.11-70.46,136.78-135.72,13.11-43.5,15.28-96.83-11.98-135.52-6.94-9.86-15.32-16-23.92-24.12,13.4-17.33,24.56-35.1,25.94-57.82,1.82-30.13-13.78-64.2-49.04-57.55,1.14-22.58-1.04-44.95-9.54-65.96-26.86-66.41-97.85-89.42-160.14-54.21-53.95,30.5-82.67,89.78-71.49,151.44-7.6,6.9-14.71,11.23-20.84,19.73ZM1242.1,470.28c-7.06,16.01-6.37,25.48-2,42,.59,2.25.75,4.53,1.54,6.96,1.68,5.15,10.47,22.69,10.5,25.52.05,5.33-4.88,10.65-6.77,15.28-18.94,46.29-23.74,105.32-6.28,152.75,20.08,54.58,77.03,101.88,135.02,109.49,1.05-34.23,4.44-68.26,5.98-102.5-4.73-17.31-12.76-33.66-18.99-50.51-4.52-12.23-12.26-30.3-15.31-42.18-1.49-5.81-1.52-11.26,5.89-7.88l32.42,45.06,10.06-161.45c7.49-14.35,9.42,1.56,9.94,8.96,4.09,58.69,5.88,117.68,9.01,176.49,1.22,22.97,2.23,46,3.01,68.99l52.33-34.16c5.5-4.03,13.08-4.3,8.11,4.12-5.51,10.01-58.45,70.77-58.45,75.55v18c0,.6,1.43,1.41,2.3,1.35,2.36-.15,12.66-3.27,15.92-4.14,65.86-17.59,110.56-69.76,131.78-132.72,16.02-47.5,16.88-104.03-17.49-144.01-2.63-3.06-18.11-16.38-18.36-17.63-.33-1.69,10.67-14.1,12.66-17.04,15.32-22.63,20.13-56.06,5.61-80.23-5.01-8.34-16.58-19.08-26.92-19.08h-14.5c4.82-49.88-18.52-104.07-64.79-126.71-4.24-2.07-19.42-7.95-23.23-6.89-2.85.8-3.68,3.75-8.5,3.7-6.22-.06-8.12-7.37-16.54-4.66-3.94,1.27-3.89,6.05-10.2,4.32-5.99-1.64-4.95-3.7-13.8-2.32-47.97,7.49-93.32,63.53-102.65,109.35-3.85,18.9-2.52,36.46-.5,55.5-11.59,9.97-20.46,16.32-26.8,30.71ZM1367.1,1019.28h57c-3.33-45.43-5.39-90.97-6.96-136.54-2.75-27.23-3.67-54.57-4.98-81.91,13.22-19.48,29.55-37.33,43.33-56.66.81-1.14,5.32-7.16,4.6-7.89l-43.69,27.8c-1.96.75-3.97,3.45-5.16.55l-12.64-230.37-8.66,141.35c-.61,1.78-4.08,3.31-5.83,2.21l-27.01-38.54c4.13,10.94,7.23,22.26,11.24,33.25,4.65,12.73,11.47,25.89,15.53,38.47s-.02,32.01-.77,45.79c-3.79,70-7.67,139.99-12.02,209.98-1.09,17.49-3.12,35.01-3.99,52.51Z" fill="#737373"/><path d="M303.1,281.28c0,2,0,4,0,6l2.99-1c0,87.23-.01,174.15-.05,261.45-.03,77.51.11,155.04.06,232.54l9.95-17.53c.54-1.22,3.53-1.98,4.03-1.46,2.29,2.37-13.86,22.49-12.86,26.28.3,1.15,4.22,5.33,5.36,7.72,3.71,7.79,7.18,24.81,8.39,33.61s-.12,18.58,3.08,26.92c1.9,4.97,11.29,15.69,11.89,18.17.34,1.42-1.22,3.95-.85,4.28.91.81,12.9-1.84,11.99,2.49-.62,2.94-9.5.49-12,2.01-.95.58-3.38,6.17-3.62,7.48-.7,3.83,6.43,4.6,9.13,7.02.94.85,2.19,1.57.5,2.51-2.18,1.21-9.84-3.99-12.99-2.04-1.04.64-2.75,4.53-4.03,6.01-1.95,2.24-4.73,5.11-6.97,7.03s-12.13,7.83-12.52,8.47c-1.45,2.37,2.19,22,3.45,25.58,2.86,8.11,11.45,16.03,12.07,25.44,10.19-8.5,8.77-21.93,10-33.48.89-8.35,5.18-18.69,15.39-17.49,15.27,1.79,13.08,26.44,11.15,37.03-3.3,18.08-11.15,33.12-27.23,42.77-8.95,5.38-18.24,5.23-24.39,14.61l-11.93,5.57h208c.57-4.75-1.26-10.83,1-15v10c7.76-.2-.04-5.04,5-8-.42,4.28.05,8.74-1,13h57.01c-.05-1.98.07-4,0-6,2.57,2.68,4.97,6.94-.45,7.05l-272.62-.47c-1.25-.94-.36-3.84-1.93-4.58,1.43-2.46,4.81-.95,5.78-1.32.26-.1,4.07-2.44,4.58-2.8,8.97-6.45,14.72-18.99,15.64-29.88,1.6-18.87-8.34-21.52-12.52-35.98-2.43-8.41-2.73-18.57-3.5-27.32,9.38-5.83,17.86-12.83,25-21.23v-1.46c-3.81-.83-6.35-4.32-.78-4.73,2.91-.22,1.99,2.15,3.8-2.29.76-1.86,1.67-2.97,1.01-5.35-.24-.89-2.82-.28-2-2.14.75-1.7,5.83-2.28,4.89-5.82-.17-.65-6.08-7.59-7.31-9.77-8.76-15.51-5.85-44.13-13.82-64.18-1.15-2.9-2.66-7.95-6.17-7.75-8.27.46-28.87,24.8-34.02,32.08-2.27,1.59-5.05.82-7.58.93-4.42.19-8.97-.35-13.38.12s-15.36,5.1-17.91,4.71c-2.23-.34-19.22-16.31-23.79-19.25-2.4-1.54-14.13-8.72-16.03-5.99-5.45,7.87-2.53,44.18-.6,54.62.92,4.96,4.53,13.39,4.53,17.29,0,5.09-5.92,15.53-4.66,19.79.87,2.97,5.5,3.36,5.8,3.78.35.49-2.47,6,3.04,8.49,1.1.5,3.15-2.41,4.99-1.56.3,1.44-1.01,3.19-.79,4.38.8,4.36,19.74,10,23.19,12.71,1.03.81,1.34.99,1.61,2.4.68,3.55-3.2,19.37-4.72,23.29-2.23,5.75-5.86,8.26-8.29,15.21-.24.7-1.6,1.27-1.96,3.52-1.84,11.82,3.22,34.6,13.96,41.48-.89,2.55-3.36,1.48-5,3-12.7-9.29-18.97-36.43-13.17-50.67,2.42-5.94,7.34-10.15,9.65-16.35.74-1.99,4.38-16.24,4.02-17.03l-23.18-12.82c-3.03-.46-7.8,9.36-10.31,10.87-2.27-5.59,7.22-11.23,5.52-14.98-.28-.62-5.61-5.71-6.02-5.74-1.79-.14-7.94,4.73-9.99,5.76-1.17.59-2.17,1.29-2.52-.56-.06-3.76,10.54-7.44,10.77-8.95.19-1.26-2.99-6.41-2.74-9.92.33-4.68,4.75-10.26,5.01-15.15.37-6.78-5.04-21.48-6.03-29.98-1.22-10.4-2.89-35.1,2.14-43.84,4.63-8.05,9.26-5.75,16.23-2.53,10.79,4.99,21.19,15.16,30.32,22.73,4.79-.72,9.11-2.89,13.92-3.73,5.87-1.03,16.46-.09,20.67-1.33,2.48-.73,6.11-7.56,8.19-9.81,7.47-8.05,17.05-18.83,27.51-22l-.19-2.29c-1.14-3.36-12.83-21.88-12.78-23.2.09-2.47,4.32-1.03,4.95,1.03l9.02,16.47,1.01-498.99ZM348.76,927.63c-2.86-2.83-6.31-3.15-9.63-.82-4.96,3.49-2.47,12.54-3.04,17.96-.82,7.78-2.49,15.88-6.18,22.82-2.37,4.45-7.66,8.75-9.24,11.76-2.53,4.82-2.86,14.49-5.57,19.92,16.19-4.02,28.65-19.48,33.51-34.98,2.65-8.45,6.83-30.06.14-36.67Z" fill="#737373"/><path d="M1178.1,57.28c.26,9.37-.57,19.24,0,28.52.18,2.98,1.68,1.26,3,.48-.4,79.13,1.07,158.47,1.05,237.45-.05,225.28-4.7,451.25-1.05,676.55-4.61-1.12-2.84,3.18-3,7V57.28Z" fill="#737373"/><path d="M1067.84,514.52c12.85-2.19,22.59,5.63,24.15,18.37,1.98,16.21-3.33,34.84-23.13,32.12-22.39-3.07-23.26-46.7-1.02-50.5ZM1067.81,520.5c-16.33,3.74-12.57,48.35,10.18,38.18,13.43-6.01,12.85-43.45-10.18-38.18Z" fill="#737373"/><path d="M185.84,514.52c33.42-5.7,32.93,57.26-.79,50.32-20.82-4.29-21.92-46.44.79-50.32ZM187.87,519.48c-16.37,2.25-16.49,34.25-2.96,39.49,24.61,9.55,26.27-42.69,2.96-39.49Z" fill="#737373"/><path d="M1115.86,514.55c33.57-4.61,30.61,61.27-3.99,49.47-18.88-6.44-17.17-46.56,3.99-49.47ZM1118.85,519.53c-19.23,1.04-18.71,40.77.75,40.78,18.38,0,18.83-41.84-.75-40.78Z" fill="#737373"/><path d="M232.84,514.53c32.15-5.49,32.54,53.56,1.88,50.65-23.63-2.24-23.99-46.88-1.88-50.65ZM235.89,519.49c-18.73,1.69-16.84,41.13,1.6,40.71,19.26-.43,18.49-42.52-1.6-40.71Z" fill="#737373"/><path d="M1043.1,515.28c3.23,3.26-9.83,16.6-11.98,19.5-.01.99,11.52,2.85,13.51,10.47,5.05,19.33-15.84,22.97-29.8,17.81-5.22-1.93-8.85-3.72-4.2-8.81,7.88,6.62,30.25,9.79,28.54-5.49-1.02-9.11-10.53-6.89-17.07-8.48-2.06-2.3,12.8-16.84,14-19.99h-23.5c-1.31,0-1.83-3.69-1.5-5h32Z" fill="#737373"/><path d="M138.1,559.28h25c.63.87.35,5,0,5h-34l.51-4.99c6.63-5.99,26.09-21.9,26.43-30.59.41-10.55-11.56-10.11-18.73-7.71-4.51,1.51-4.91,4.84-10.21,1.28,5.93-9.83,25.91-11.29,32.54-2.02,10.39,14.53-14.39,28.91-21.54,39.04Z" fill="#737373"/><path d="M306.1,278.28v8l-2.99,1c-.01-1.99,0-4,0-6,0-1.33,0-2.67,0-4,1.77.2,2.05.72,3,1Z" fill="#737373"/><path d="M308.1,278.28c-.63-.1-1.48.16-2,0-.95-.28-1.23-.8-3-1-.65-.07-1.34.05-2,0,3.64-6.54,3.86-4.28,7,1Z" fill="#737373"/><path d="M388.1,459.28c6.13-8.5,13.24-12.83,20.84-19.73-11.19-61.66,17.54-120.94,71.49-151.44,62.28-35.21,133.27-12.21,160.14,54.21,8.5,21.01,10.68,43.38,9.54,65.96,35.26-6.65,50.86,27.41,49.04,57.55-1.37,22.72-12.53,40.48-25.94,57.82,8.6,8.12,16.98,14.26,23.92,24.12,27.25,38.69,25.09,92.03,11.98,135.52-3.85-.45-4.98,2.32-7.28,3.23-16.17,6.39-49.47,10.99-67.15,11.77-28.05,1.23-54.35-3.23-81.57-9-2.7-51.2-6.11-102.47-8.99-153.51-.55-9.7-.06-20.29-1.02-29.98-.34-3.45-2-11.3-6.57-7.6-2.37,1.92-3.03,12.02-3.41,15.59-3.59,33.79-4.88,70.81-7,105-.92,14.79-.91,29.71-2.02,44.48-2.32.62-1.67-.54-2.29-1.27-5.42-6.34-28.58-42.39-32.41-43.55-1.67-.51-4.55-.59-5.21,1.46-1.6,4.99,14.24,37.64,14.92,45.36-.04-.04.06,1.64-1.01.52s-1-3.44-1.94-4.07c-1.39-.93-4.09.01-6.61-1.39-1.14-.64-10.58-8.9-12.45-10.55-22.86-20.16-39.26-46.46-52.16-73.84-14.61-38.04-26.52-77.25-36.82-116.68Z" fill="#aacfa3"/><path d="M1242.1,470.28c6.34-14.39,15.2-20.74,26.8-30.71-2.02-19.03-3.36-36.59.5-55.5,9.34-45.81,54.68-101.86,102.65-109.35,8.85-1.38,7.81.68,13.8,2.32,6.31,1.73,6.26-3.05,10.2-4.32,8.43-2.72,10.32,4.6,16.54,4.66,4.82.05,5.65-2.91,8.5-3.7,3.81-1.06,18.99,4.81,23.23,6.89,46.27,22.64,69.61,76.82,64.79,126.71h14.5c10.34,0,21.91,10.74,26.92,19.08,14.53,24.17,9.71,57.61-5.61,80.23-1.99,2.94-12.99,15.36-12.66,17.04.24,1.25,15.73,14.57,18.36,17.63,34.36,39.98,33.5,96.51,17.49,144.01-51.05,14.82-103.41,17.56-155,3-3.13-58.81-4.92-117.8-9.01-176.49-.51-7.4-2.45-23.31-9.94-8.96l-10.06,161.45-32.42-45.06c-7.4-3.37-7.38,2.08-5.89,7.88,3.05,11.89,10.79,29.95,15.31,42.18-10.3-9.54-22.46-17.17-32.53-26.97-21.71-21.15-38.86-52.93-49.47-81.03-.48-1.26-.53-2.73-1-4-7.38-20.04-13.54-40.64-20-61-3.05-9.62-5.6-19.48-9.01-29-3.14-.92-3.05,1.52-3.96,2.21-.59.44-2.56,2.81-3.02.79Z" fill="#abcfa4"/><path d="M499.1,665.28c1.93,2.11,19.57,49.4,19.99,53.51l-5.99,103.49c-55.25-8.22-112.77-54.76-132.74-106.76-17.76-46.22-14.77-102.17,2.29-148.2,1.71-4.62,9.31-18.67,9.52-21.56.38-5.24-5.16-12.59-7.25-17.8-9.33-23.27-12.13-47.43,3.18-68.68,10.3,39.42,22.21,78.63,36.82,116.68,12.91,27.38,29.31,53.68,52.16,73.84,1.87,1.65,11.31,9.91,12.45,10.55,2.51,1.41,5.22.46,6.61,1.39.94.63.91,3,1.94,4.07s.97-.56,1.01-.52Z" fill="#90b7a1"/><path d="M1278.1,557.28c-4.94-.21-1.82,6.39,1,4,10.61,28.1,27.76,59.88,49.47,81.03,10.07,9.81,22.22,17.44,32.53,26.97,6.23,16.84,14.26,33.2,18.99,50.51-1.54,34.24-4.93,68.27-5.98,102.5-57.99-7.61-114.94-54.9-135.02-109.49-17.45-47.43-12.65-106.46,6.28-152.75,1.9-4.64,6.82-9.96,6.77-15.28-.03-2.83-8.82-20.37-10.5-25.52-.79-2.43-.95-4.71-1.54-6.96,1.18-2.58,2.56.2,3.2,1.3,1.58,2.72,2.27,6.03,3.56,8.42.63,1.17-.04,1.69,2.23,1.27-1.46-5.44,3.87-10.17,4.78-14.72.58-2.9-.35-6.32.2-8.58.26-1.08,3.76-1.68,4.02-3.7,6.46,20.36,12.62,40.96,20,61Z" fill="#8fb6a2"/><path d="M507.1,1006.28c9.51-96.1,11.24-193.19,18.03-289.54-7.1-22.56-17.63-44.36-25.05-66.94-1.23-3.73-3-7.51-2.97-11.52,3.37,3.72,6.39,8.13,9.21,12.28,4.42,6.5,11.31,20.53,15.8,25.2,1.97,2.05,3.75,4.3,5.79.83,1.33-2.25,2.85-25.1,3.18-29.82,2.35-33.58,2.05-68.55,5.02-101.98.14-1.56.32-6.39,2.99-5.5l12.01,226c2.94.49,4.9-.97,7.3-2.2,14.66-7.55,28.73-21.13,43.69-28.8l-5.58,8.91c-5.8,6.64-10.65,14.03-16,21-9.37,12.22-19.96,23.97-28.36,36.64,2.06,70.9,8.16,141.61,10.94,212.44.08,1.99-.04,4.01,0,6.01h-57.01c1.06-4.27.58-8.73,1-13.01Z" fill="#c59c7f"/><path d="M1367.1,1019.28c.87-17.5,2.9-35.02,3.99-52.51,4.35-69.99,8.23-139.98,12.02-209.98.75-13.78,4.87-33.07.77-45.79s-10.88-25.74-15.53-38.47c-4.02-10.99-7.11-22.31-11.24-33.25l27.01,38.54c1.74,1.1,5.22-.42,5.83-2.21l8.66-141.35,12.64,230.37c1.19,2.9,3.2.2,5.16-.55l43.69-27.8c.71.72-3.79,6.74-4.6,7.89-13.77,19.33-30.11,37.19-43.33,56.66,1.31,27.34,2.23,54.68,4.98,81.91,1.56,45.57,3.63,91.11,6.96,136.54h-57Z" fill="#c79d80"/><path d="M261.1,826.28c-1.18,1.38-1.87,2.57-2.05,4.45-.97,10.23,1.74,22.53,4.78,32.32.97,3.13,5.41,15.59,7.29,17.23,2.17,1.89,2.69-5.05,3.18-6.29.76-1.92,2.22-2.82,1.8.3-.09.28.06.66,0,1-2.39,1.8-.71,4.16,0,6,1.59,4.16,4.39,6.4,9,6-1.57,4.44,9.12,6.03,12.49,6.07,11.27.16,17.23-4.42,26.8-7.3,3.46-1.04,1.4-.13,1.71,2.22-1.8,4.44-.88,2.07-3.8,2.29-5.58.41-3.04,3.9.79,4.73v1.46c-7.15,8.4-15.63,15.4-25.01,21.23.76,8.75,1.06,18.9,3.5,27.32,4.18,14.46,14.12,17.11,12.52,35.98l-2.49-1c-5.96,5.77-12.24,11.02-17.68,17.32-1.38,1.59-1.95,3.14-1.82-.32,1.59-5.79,9.5-42.29,7.55-45.03-.78-1.08-3.18-1.36-3.54-.97-.39.41-.84,9.34-1.17,11.33-2.15,13.15-4.67,27.39-9.07,39.93-.68,1.93-5.26,14.16-5.93,14.57-2.38,1.46-7.95.91-8.57-2.56-2.39-13.51,2.04-32.75-.27-45.77-.76-4.26-3.2-1.43-4-1.5-3.17-.3-8.08-1.98-11-2-2.73-.02-2.78,1.13-3.05,3.45-1.66,14.32,2.82,31.31,1.05,46.05-3.03,5.97-7.06,1.35-9.53-2.47-10.99-17.03-11.45-39.97-14.74-59.29-1.12-6.57-4.09-1.26-3.77,4.8.63,12.19,3.11,28.92,7.04,40.46l-1.23.75c-4.61-8.22-7.2-19.56-11.59-27.43-1.34-2.4-2.79-5.91-6.18-5.32,2.44-6.94,6.07-9.45,8.29-15.21,1.52-3.92,5.39-19.74,4.72-23.29-.27-1.41-.58-1.59-1.61-2.4-3.45-2.71-22.39-8.35-23.19-12.71-.22-1.2,1.09-2.95.79-4.38-1.85-.85-3.89,2.06-4.99,1.56-5.51-2.49-2.7-8.01-3.04-8.49-.3-.42-4.93-.82-5.8-3.78-1.25-4.26,4.67-14.7,4.66-19.79,0-3.9-3.61-12.33-4.53-17.29-1.93-10.44-4.86-46.75.6-54.62,1.89-2.73,13.63,4.45,16.03,5.99,4.57,2.93,21.57,18.9,23.79,19.25,2.55.4,13.31-4.21,17.91-4.71s8.96.07,13.38-.12ZM199.1,820.28c-1.33,1.04-2.65,2.86-2.95,4.55-.59,3.33-.53,29.49,3.45,29.43l6.5-5.98c.78-3.64,11.09-9.91,10.86-12.33-.37-3.88-12.26-14.6-15.92-16.2-1.99-.87-1.33.04-1.94.52ZM231.82,875.46c-7.07,2.06-5.24,17.99,2.72,16.85,8.29-1.19,6.23-19.45-2.72-16.85ZM270.22,895.41c-.67.38-1.17,5.46-5.12,3.41-5.71-2.96,2.87-10.6-2.49-11.54-16.5-2.9-3.38,8.2-3.58,9.36-5.44,7.48-4.99,3.35-9.44,1.65-3.19-1.22-1.05,5.42,3.07,6.02,4.75.68,6.26-3.52,8.09-3.88,1.34-.26,3.66,2.24,7.59,1.65,7.86-1.19,6.06-9.06,1.88-6.67ZM229.27,937.12c.57.93,12.53,4.55,14.59,4.91,10.45,1.79,22.39,1.44,32.51-.98,3.45-.83,18.16-5.95,19.81-8.18,1.54-2.08.45-13.63-2.37-13.43-3.22.22-11.47,3.51-15.67,4.39-15.73,3.28-32.12,5.74-47.99,2.49-.9.63-1.61,9.61-.87,10.81Z" fill="#f2eada"/><path d="M1568.1,685.28c-21.23,62.95-65.92,115.12-131.78,132.72-3.26.87-13.56,3.99-15.92,4.14-.86.06-2.3-.76-2.3-1.35v-18c0-4.78,52.94-65.54,58.45-75.55,4.97-8.42-2.61-8.15-8.11-4.12l-52.33,34.16c-.78-22.99-1.78-46.03-3.01-68.99,51.59,14.56,103.95,11.82,155-3Z" fill="#93b4a0"/><path d="M709.1,683.28c-19.67,65.26-70.13,118.38-136.78,135.72-2.48.64-10.29,3.15-11.94,3.12-.96-.02-2.28-.74-2.28-1.33v-18l56.41-73.59c5.95-8.84.85-11.38-7.08-6.08l-51.33,34.16c-1.31-22.63-1.81-45.36-3.01-67.99,27.21,5.77,53.52,10.23,81.57,9,17.69-.78,50.99-5.38,67.15-11.77,2.3-.91,3.43-3.68,7.28-3.23Z" fill="#8fb49e"/><path d="M1383.1,82.28c5.58-.39,11.4.27,17,0-.51,1.85-2.65,3.28-2.73,5.27-.44,11.64,5.01,40.57,11.72,50.22,2.1,3.02,4.06,4.62,7,1.5,1.23,1.7,3.8,3.82,6,3,.09,1.97-.93,3.11,1.24,4.29,8.04,4.36,21.8,1.95,29.77-1.78,3.85-1.8,7.13-5.75,11.99-6.51,1.39,4.97-3.44,8.3-8,8.01-.59.58,3.02,2.43,2.86,4.31-.45,5.05-18.88,19.08-23.86,21.67-16.1,8.4-53.74,13.54-71,9-4.15-1.09-20.65-8.38-23.53-10.98-3.06-2.77.55-4.01,1.53-7.01-7.24,3.31-11.31,1.27-9.01-7.01-.29-.31-4.96,2.87-6.59-2.99-1.06-3.79,2.56-7.91,3.65-11.46,3.36-10.9-1.56-17.79-3.59-28.52-3.29-17.39-4.18-36.96.11-54.1,4.56-1.14,22.68,12.59,26.9,16.09,2.36,1.96,8.32,9.21,10.25,9.79,3.33.99,13.26-2.47,18.28-2.82ZM1340.1,104.28c3.13-3.33,14.1-10.18,13.96-14.51s-11.95-13.7-15.96-15.49c-.73-.33-1.31-1.66-2.98-.98-3.41,2.41-2.32,29.16.5,32.96s4.13-1.6,4.48-1.98ZM1369.81,130.45c-5.53,1.67-6.13,15.11,1.02,16.65,10.46,2.25,9.14-19.71-1.02-16.65ZM1402.11,142.28c-3.59-.11-7.43-.52-9.99,2.5,1.43,1.97,5.58,4.04,4.87,6.79-1.71,6.62-9.43,1.27-9.88,1.71,1.75,10.46,9.36,2.2,12.47,2.06,4.31-.2,12.11,6.9,11.52-5.06-3.3-.89-1.31,3.29-3.59,3.96-1.21.36-5.73-1.58-6.47-2.66-2.01-2.93,2.27-5.68,1.07-9.3Z" fill="#f4ecdc"/><path d="M1436.1,178.28c0,.33,0,.67,0,1,0,3.12-.81,7.71,1,10,1.07,16.92,5.64,14.67,11.18,26.32,7.48,15.74-.03,45.24-17.23,52.13-1.01.4-7.87,2.08-7.93.05-.02-.72,4.91-10.67,5.69-13.29,2.12-7.07,4.39-15.96,5.82-23.18.95-4.82,3.62-17.48,3.51-21.59-.05-1.82-1.56-4.87-3.53-4.44-2.07.45-2.29,14.25-2.79,17.22-1.38,8.29-10.44,47.5-18.4,49.64-3.92,1.05-4.93-7.8-5.2-10.49-1.27-12.32,2.74-28.1.88-38.88-.4-2.31-1.29-2.86-3.01-1.49-.6.48-.96,2.1-1.58,2.07-.93-.05-6.66-2.88-9.42-3.07-2.16-.15-3.79.05-4,2.5l.89,40.89c-.95,6.51-3.14,12.44-8.74,4.96-6.5-8.69-12.31-30.23-13.87-41.13-.52-3.62-1.27-21.08-2.22-21.78s-1.97-.44-3.04-.44c-1.72,1.1.61,19.87,1.13,23.35,1.4,9.44,3.86,18.61,6.86,27.64.16,3.4-.49,1.97-1.83.33-9.76-12.01-12.4-20.47-15.21-35.83-.33-1.81,1.32-4.06-1.96-3.49,4.6-8.91,9-15.84,11-26,19.32,7.71,46.25,10.05,63.91-2.59,2.32-1.66,6.15-4.03,6.82-7.06.31-1.42-2.53-6,1.27-3.35Z" fill="#f1ead9"/><path d="M1383.1,82.28c5.68-3.1,19.01.97,24.01-1.49,1.44-.71,9.69-13.32,12.02-15.98,2.5-2.86,6.11-6.56,8.96-9.04,2.5-2.17,10.95-9.65,14-8.04,3.71,1.96,9.58,23.56,10.56,28.5,3.48,17.64-.29,33.86,11.48,48.52,5.02,6.26,10.52,6.06-1.02,10.55-.95,2.08,1.8,2.3,1.99,2.98-4.86.76-8.14,4.71-11.99,6.51-7.97,3.73-21.73,6.14-29.77,1.78-2.18-1.18-1.15-2.32-1.24-4.29.29-.11,3.32-4.2,3.55-4.94,1.94-6.16-1.42-15.45-8.89-12.9-4.16,1.42-3.06,11.55-.67,14.84-2.95,3.12-4.9,1.52-7-1.5-6.71-9.65-12.17-38.59-11.72-50.22.08-1.99,2.22-3.42,2.73-5.27-5.6.26-11.42-.4-17,0ZM1436.1,60.29c-1.11-1.21-5.68,4.2-6.41,5.08-1.73,2.07-9.61,13.59-9.57,15.44.08,3.52,11.32,9.02,14.51,9.48,1.85.27,2.17-1.19,1.47-1.98-1.7-1.92-11.91-4.78-11.98-8.5-.07-3.97,13.75-17.59,11.98-19.52Z" fill="#e4c09a"/><path d="M1452.11,253.28c1.76-4.74,2.06-11.95,4.22-16.27,1.39-2.78,5.48-5.52,7.6-8.4,4.51-6.11,8.1-15.43,9.05-22.95.77-6.08-.87-28.62,11.16-24.96,8.52,2.59,5.75,21.17,4.68,27.8-3.2,19.7-15.3,41.57-36.7,44.78Z" fill="#e8d2bb"/><path d="M1436.1,178.28c-3.81-2.66-.96,1.93-1.27,3.35-.66,3.03-4.49,5.4-6.82,7.06-17.66,12.64-44.59,10.29-63.91,2.59.63-3.21,1.02-6.71,1-10,17.26,4.54,54.9-.6,71-9,0,2,0,4,0,6Z" fill="#dcc4b4"/><path d="M1242.1,470.28c.46,2.02,2.44-.35,3.02-.79.91-.68.82-3.12,3.96-2.21,3.42,9.52,5.96,19.38,9.01,29-.27,2.02-3.76,2.62-4.02,3.7-.55,2.26.38,5.68-.2,8.58-.91,4.55-6.24,9.27-4.78,14.72-2.27.42-1.6-.11-2.23-1.27-1.3-2.39-1.99-5.7-3.56-8.42-.64-1.1-2.02-3.88-3.2-1.3-4.37-16.52-5.06-25.99,2-42Z" fill="#89b199"/><path d="M214.1,966.28c3.39-.59,4.84,2.92,6.18,5.32,4.39,7.86,6.98,19.21,11.59,27.43l1.23-.75c2.11,6.19,6.22,11.69,7.99,17.99-1.1,1.04-13.27-3.89-14.99-4.99-10.73-6.88-15.8-29.66-13.96-41.48.35-2.25,1.71-2.82,1.96-3.52Z" fill="#dec7bd"/><path d="M1353.1,217.28c3.28-.57,1.63,1.68,1.96,3.49,2.81,15.36,5.45,23.82,15.21,35.83,1.33,1.64,1.98,3.07,1.83-.33.91,2.76,4.64,8.63,4.08,11.37-8.1,5.9-17.96-6.05-21.26-12.69s-7.08-23.65-5.6-30.95c.54-2.63,2.71-4.67,3.77-6.73Z" fill="#dac4b9"/><path d="M1395.1,220.28c2.76.19,8.5,3.02,9.42,3.07.62.03.98-1.6,1.58-2.07l-2.14,44.36c-.87,2.65-5.56,1.44-7.86,1.64l-1-47Z" fill="#dfcac2"/><path d="M292.1,997.28c-.13,3.46.45,1.92,1.82.32,5.44-6.3,11.73-11.55,17.68-17.32l2.49,1c-.92,10.88-6.67,23.43-15.64,29.88-.5.36-4.31,2.7-4.58,2.8-.97.37-4.35-1.14-5.78,1.32-.41-.19-1.79.24-2,0-.6-.73,5.33-15.58,6-18Z" fill="#e1cfc7"/><path d="M267.1,967.28v51s-8,0-8,0c.6-6.23,1.15-12.18.99-18.49-.2-8.39-1.27-19.37-2.1-27.9-.21-2.17-1.1-4.58-1.89-6.61,2.92.02,7.83,1.7,11,2Z" fill="#dcc8c1"/><path d="M1437.1,189.28c-1.81-2.29-1.01-6.88-1-10,1.97,2.37.8,6.8,1,10Z" fill="#dcc4b4"/><path d="M261.1,826.28c2.53-.11,5.3.66,7.58-.93,5.15-7.28,25.75-31.62,34.02-32.08,3.51-.2,5.02,4.85,6.17,7.75,7.97,20.05,5.06,48.67,13.82,64.18,1.23,2.18,7.14,9.12,7.31,9.77.95,3.54-4.14,4.11-4.89,5.82-.82,1.86,1.76,1.25,2,2.14.66,2.39-.25,3.49-1.01,5.35-.31-2.35,1.75-3.26-1.71-2.22-9.57,2.88-15.53,7.46-26.8,7.3-3.37-.05-14.06-1.63-12.49-6.07s4.06-4.46,2.94-11.44-9.67-8.64-11.94-1.56c.43-3.12-1.03-2.22-1.8-.3-.49,1.24-1.02,8.19-3.18,6.29-1.88-1.64-6.31-14.1-7.29-17.23-3.04-9.78-5.75-22.09-4.78-32.32.18-1.88.86-3.07,2.05-4.45ZM296.1,809.29c-1.01-.92-3.04.59-4.01,1.48-1.97,1.81-10.36,14.82-9.86,16.91,1.6,1.39,15.22,9.23,15.87,8.59,2.36-2.33-11.67-9.24-11.98-10.57.22-2.42,10.75-15.72,9.98-16.42Z" fill="#e3c299"/><path d="M348.76,927.63c6.68,6.61,2.51,28.21-.14,36.67-4.86,15.5-17.32,30.96-33.51,34.98,2.71-5.44,3.04-15.1,5.57-19.92,1.58-3.01,6.87-7.31,9.24-11.76,3.69-6.94,5.36-15.05,6.18-22.82.57-5.42-1.92-14.47,3.04-17.96,3.32-2.34,6.77-2.01,9.63.82Z" fill="#e2cebc"/><path d="M1278.1,557.28c.47,1.27.52,2.74,1,4-2.82,2.39-5.94-4.21-1-4Z" fill="#89b199"/><path d="M229.27,937.12c-.74-1.2-.02-10.18.87-10.81,15.87,3.25,32.26.8,47.99-2.49,4.2-.88,12.44-4.16,15.67-4.39,2.83-.2,3.92,11.35,2.37,13.43-1.66,2.24-16.36,7.36-19.81,8.18-10.11,2.42-22.06,2.77-32.51.98-2.06-.35-14.02-3.98-14.59-4.91Z" fill="#ddc7bd"/><path d="M199.1,820.28l14.98,15.5c0,1.92-14.87,8.58-7.98,12.5l-6.5,5.98c-3.99.06-4.04-26.1-3.45-29.43.3-1.69,1.62-3.51,2.95-4.55Z" fill="#e5b4a9"/><path d="M270.22,895.41c4.19-2.39,5.99,5.48-1.88,6.67-3.94.6-6.26-1.91-7.59-1.65-1.83.36-3.34,4.56-8.09,3.88-4.12-.59-6.26-7.24-3.07-6.02,4.45,1.71,4,5.83,9.44-1.65.2-1.16-12.92-12.26,3.58-9.36,5.36.94-3.22,8.59,2.49,11.54,3.95,2.05,4.46-3.03,5.12-3.41Z" fill="#737373"/><path d="M285.1,887.28c-4.61.4-7.41-1.84-9-6,.22-1.89-.31-4.23,0-6,.06-.34-.09-.72,0-1,2.27-7.09,10.78-5.65,11.94,1.56s-1.37,7.01-2.94,11.44Z" fill="#737373"/><path d="M231.82,875.46c8.95-2.61,11.01,15.66,2.72,16.85-7.96,1.14-9.79-14.79-2.72-16.85Z" fill="#737373"/><path d="M206.1,848.28c-6.89-3.92,7.99-10.58,7.98-12.5l-14.98-15.5c.62-.48-.05-1.39,1.94-.52,3.66,1.6,15.55,12.32,15.92,16.2.23,2.41-10.08,8.69-10.86,12.33Z" fill="#737373"/><path d="M276.1,881.28c-.71-1.84-2.39-4.2,0-6-.31,1.77.22,4.11,0,6Z" fill="#e3c299"/><path d="M1338.1,74.28c-2.37.85.24,2.71.99,3.52,1.96,2.13,10.93,9.96,10.77,12-3.18,3.56-6.6,6.46-9.18,10.56-.58.93-2.64,3.32-.58,3.92-.35.37-1.54,5.94-4.48,1.98s-3.91-30.55-.5-32.96c1.67-.68,2.25.66,2.98.98Z" fill="#ebaba5"/><path d="M1422.1,142.28c-2.2.82-4.77-1.3-6-3-2.39-3.29-3.49-13.42.67-14.84,7.46-2.55,10.83,6.74,8.89,12.9-.23.74-3.27,4.84-3.55,4.94Z" fill="#737373"/><path d="M1369.81,130.45c10.17-3.07,11.49,18.9,1.02,16.65-7.15-1.54-6.55-14.98-1.02-16.65Z" fill="#737373"/><path d="M1402.11,142.28c1.2,3.63-3.08,6.37-1.07,9.3.74,1.08,5.25,3.02,6.47,2.66,2.29-.67.29-4.85,3.59-3.96.58,11.96-7.21,4.86-11.52,5.06-3.11.15-10.72,8.4-12.47-2.06.45-.44,8.17,4.91,9.88-1.71.71-2.75-3.44-4.82-4.87-6.79,2.55-3.02,6.39-2.61,9.99-2.5Z" fill="#737373"/><path d="M1340.1,104.28c-2.07-.6,0-2.99.58-3.92,2.58-4.1,6-7,9.18-10.56.16-2.04-8.82-9.87-10.77-12-.74-.81-3.35-2.66-.99-3.52,4.01,1.79,15.82,11.25,15.96,15.49s-10.82,11.18-13.96,14.51Z" fill="#737373"/><path d="M1436.1,60.29c1.77,1.93-12.06,15.55-11.98,19.52.07,3.72,10.28,6.58,11.98,8.5.7.79.38,2.24-1.47,1.98-3.18-.46-14.42-5.96-14.51-9.48-.04-1.85,7.84-13.37,9.57-15.44.73-.87,5.3-6.29,6.41-5.08Z" fill="#737373"/><path d="M296.1,809.29c.78.7-9.76,14-9.98,16.42.3,1.33,14.33,8.24,11.98,10.57-.64.63-14.27-7.21-15.87-8.59-.5-2.09,7.88-15.11,9.86-16.91.97-.89,3-2.4,4.01-1.48Z" fill="#737373"/></svg>