<svg xmlns="http://www.w3.org/2000/svg" viewBox="0 0 32 32">
  <path d="M13.69,14.97c0,.83-.67,1.5-1.5,1.5s-1.5-.67-1.5-1.5.67-1.5,1.5-1.5,1.5.67,1.5,1.5M7.97,20.28c.55,0,1-.45,1-1s-.45-1-1-1-1,.45-1,1,.45,1,1,1"/>
  <path d="M30.97,16.69c.12-.28.08-.61-.11-.86l-.43-.57c-.31-.41-.38-.94-.18-1.41l.65-1.62c.15-.37.03-.8-.29-1.03l-1.14-.81c-.38-.27-.61-.71-.61-1.17v-1.8c0-.48-.39-.87-.87-.87h-2.02c-.43,0-.85-.19-1.12-.53l-1.25-1.52c-.25-.3-.66-.4-1.02-.25l-1.88.82c-.28.12-.59.15-.88.09l-1.94-.41c-.3-.06-.62.04-.83.27l-1.3,1.46c-.27.31-.66.49-1.08.49h-1.93c-.33,0-.63.19-.77.48l-.54,1.05c-.25.49-.75.79-1.29.79h-.88c-.34,0-.65.2-.79.5l-.44.98c-.22.47-.8.84-1.32.84h-.85c-.48,0-.87.39-.87.87v2.52c0,.11-.01.21-.01.32v.95c0,.18-.1.35-.26.43l-2.67,1.3h-.01c-.8.4-1.04,1.21-1.04,1.81,0,.97.35,2.23,1.28,3.25.96,1.06,2.45,1.79,4.57,1.79h1.29l-.52,1.14v.02c-.29.68.04,1.46.72,1.74.16.07.33.1.51.1h2.6c.55,0,.99-.33,1.2-.75v-.02s1.02-2.23,1.02-2.23h.92l.56,2.59c.04.17.19.3.37.3h2.8c.21,0,.38-.18.37-.39,0-.02,0-.04,0-.06l-.53-2.44h1.64l-.52,2.43c-.04.21.09.41.3.45.02,0,.05,0,.07,0h2.81c.18,0,.34-.12.37-.3l.55-2.59h.62v1.67c0,.73.6,1.33,1.33,1.33h2.33c.73,0,1.33-.6,1.33-1.33v-4.39l1.6-1.22c.18-.13.3-.33.34-.54.02-.17,0-.34-.08-.5l-.34-.72c-.18-.37-.18-.8-.02-1.17l.52-1.27ZM6.97,15.07h2.2c.35,0,.65-.23.74-.57.27-1.07,1.25-1.8,2.35-1.75,1.17.05,2.14,1,2.21,2.17.06,1.08-.63,2.06-1.67,2.37-.01,0-.02,0-.03.01,0,0-.01,0-.02,0h-.02s-.03.01-.05.02c-.02,0-.03,0-.05.01,1.27,2.87,4.13,4.82,7.54,4.82h6.68c.06.39.09.78.09,1.18v2.49h-.99v-1.72c0-.71-.57-1.28-1.28-1.28h-12.33l-1.36,3h-1.14l1.37-3h-4.41c-1.62,0-2.55-.54-3.09-1.13-.16-.18-.3-.38-.42-.59.48.23,1.05.02,1.28-.45.23-.48.02-1.05-.45-1.28-.08-.04-.16-.06-.25-.08l1.68-.81h.01c.84-.43,1.37-1.29,1.37-2.23v-.95c0-.08,0-.16.01-.24M20.89,9.52c-.21.21-.55.22-.76.01-.11-.1-.16-.24-.16-.39v-1.41c0-.3.24-.54.54-.54s.54.24.54.54v1.41c0,.14-.06.28-.16.38M25.61,14.21c-.21-.21-.22-.55-.01-.76.1-.11.24-.16.39-.16h1.41c.31,0,.54.24.54.54,0,.3-.24.54-.54.54,0,0,0,0,0,0h-1.41c-.14,0-.28-.06-.38-.16M23.53,11.12c-.21-.21-.22-.55,0-.76,0,0,0,0,0,0l1-.99c.21-.21.55-.22.76,0,0,0,0,0,0,0,.21.21.22.55,0,.76,0,0,0,0,0,0l-1,.99c-.1.11-.24.17-.39.16-.14,0-.28-.06-.38-.16"/>
</svg>