<?xml version="1.0" encoding="UTF-8"?>
<svg xmlns="http://www.w3.org/2000/svg" viewBox="0 0 500 500">
  <path d="M418.85,379.78c-1.44-.92-2.76-2.01-4.05-3.18.24-.28.48-.6.7-.95l3.52-5.54-6.29-1.87c-4.57-1.35-9.52-3.6-10.93-4.96-1.13-1.36-6.8-9.33-8.44-11.84.01-.69.12-1.82.18-2.55.24-2.6.44-4.84-.36-6.74-.67-1.59-1.9-2.62-2.89-3.45-.26-.22-.63-.53-.8-.7-2.6-4.32-9-17.02-9.52-19.42-.04-.2,0-.42.2-1.15.24-.92.56-2.18.48-3.72-.15-2.76-.37-5.51-.58-8.18-.73-9.04-1.41-17.59.56-26.06l1.5-6.47-1.83.11c.87-4.51,1.81-9.06,3.33-12.78.34-.83,1.04-1.67,1.72-2.49.91-1.09,1.86-2.22,2.37-3.75,18.5-55.28,19.04-103.39,1.59-143.01-1.23-2.79-4.08-7.99-7.71-11.97.14-.71.12-1.44-.05-2.2-.83-3.67-4.35-4.34-6.31-4.57-1.24-1.41-3.44-4.14-4.87-5.91-1.29-1.6-2.43-3.02-3.25-3.97l4.05.02-8.44-8.52c-.34-.34-.63-.67-.9-.97-1.12-1.25-2.68-3-5.39-3.8-1.58-2.11-4.16-4.64-8.07-7.95-22.55-19.12-60.56-26.29-75.85-28.49-1.7-.24-3.47-.51-5.3-.78-8.1-1.2-17.28-2.56-24.71-2.93-7.14-.35-14.43-.18-21.49-.02-1.42.03-2.84.07-4.28.09l.73-.52,19.63-23.16-20.99,10.09c-4.21,2.02-8.23,4.61-12.11,7.11-4.74,3.05-9.22,5.93-13.87,7.77-5.7,2.25-11.14,3.94-16.4,5.57-9.51,2.95-19.35,6-30.33,12.34-4.22,2.44-8.73,5.91-13.09,9.28-4.72,3.64-9.6,7.41-13.38,9.22-.79.38-1.87.58-3.02.79-1.74.32-3.71.68-5.64,1.78-3.88,2.22-8.64,8.36-16.01,18.22-4.09,5.47-8.32,11.12-10.88,13.48-1.68,1.55-5.07,4.03-7.37,5.53-.92.6-4.58,2.35-6.77,3.39-4.3,2.05-5.08,2.42-5.91,3.28-3.49,3.61-2.01,6.55-1.22,7.65,2.96,4.08,7.82,1.73,14.56-1.53.12-.06.23-.11.32-.15.23-.05.73-.09,1.1-.11.2-.02.41-.03.63-.05-.09.19-.18.39-.26.58-.8,1.82-1.19,3.31-1.5,4.51-.52,1.97-.77,2.96-2.93,5.21-.94.98-1.28,1.1-2.11,1.39-.89.31-2.1.74-3.5,1.79-3.5,2.64-6.67,5.65-9.73,8.56-3.32,3.15-6.45,6.12-9.74,8.43-.2.12-.82.39-1.27.59-1.72.75-4.08,1.78-5.87,3.66l-7.79,8.19,14.8.24,1.2-.71c4.15-2.44,8.28-5.34,12.28-8.15,3.27-2.29,6.62-4.65,9.91-6.69.13,2.06.39,4.02.64,5.87.26,1.89.5,3.67.6,5.47.15,2.68.33,5.36.52,8.04.88,12.94,1.71,25.16-.73,37.33-1.11,5.51-4.1,11.34-6.99,16.97-1.23,2.4-2.5,4.87-3.62,7.31-1.5,3.26-3.01,6.67-4.47,9.97-4.23,9.55-8.6,19.42-13.73,28.27-.81,1.39-1.82,2.69-2.89,4.06-1.72,2.2-3.67,4.7-5,7.97-1.27,3.1-5.06,13.9-.65,22.67,2.12,4.21,5.77,7.09,10.58,8.32,2.87.74,10.13,1.97,13.32,2.05,1.86.04,3.49-.23,4.94-.47.82-.14,2.02-.34,2.49-.28.08.09.26.3.49.76.49.95.65,4.17.71,5.22.09,1.75.15,3.01,1.13,4.33.48.64.99,1.13,1.5,1.49v17.46c0,3.47,2.6,5.52,4.5,7,.6.47,1.65,1.29,2.07,1.83-1.06,1.1-2.67,3.16-2.51,7.06l.02.49.12.48c.78,3.21,1.67,6.44,2.53,9.57,2.62,9.49,5.1,18.46,4.85,27.58v.23c-.65,1.04-.86,2.04-1.33,7.3-.05.51-.44,5.04-.41,6.38.09,3.77,1.26,6.23,2.85,7.85l-4.12,4.1,9.43,1.46c.11.08.27.2.39.29.82.62,2.05,1.57,3.9,2.08,5.48,1.51,20.13,3.16,24.91,3.5,12.74.91,23.76-3.32,34.41-7.41,1.02-.39,2.04-.78,3.08-1.17.16.2.34.39.53.57,1.58,1.49,3.75,1.91,6.45,1.25,3.11-.77,6.24-2.45,9.26-4.09,2.15-1.16,4.18-2.26,5.9-2.87,3.66-1.29,7.56-1.9,11.69-2.54,3-.47,6.05-.94,9.09-1.7-.05,1.33-.14,2.71-.23,4.11-.25,3.81-.5,7.75.04,11.61.97,7.03,3.37,17.73,5.3,26.33.56,2.52,1.09,4.88,1.54,6.95,1.09,5.02,2.43,10.04,3.73,14.89,1.57,5.87,3.19,11.94,4.31,17.84l.72,3.81,4.38.25c.24.02.54.04.87.04,1.03,0,2.4-.2,3.66-1.31,1.65-1.46,1.75-3.35,1.78-3.98,0-.08,0-.19.03-.33.99-7.74.12-15.56-.72-23.12-.36-3.23-.7-6.27-.89-9.27-.12-1.81-.03-3.84.06-5.99.12-2.75.25-5.59-.06-8.32l-.02-.22c-.1-.98-.3-1.85-.58-2.63,2.14-3.28,1.48-8.37-.04-11.13-.75-1.36-1.81-2.12-2.53-2.58-3.08-7.04-3.33-21.35-.38-27.65,2.98-6.36,10.37-9.11,18.2-12.01,7.63-2.83,15.53-5.76,19.96-12.53,6.2-9.48,5.43-19.76,4.68-29.7-.24-3.22-.47-6.27-.47-9.3,0-3.1.12-6.24.26-9.56.26-6.53.53-13.27-.22-19.92l-.02-.22c-.34-3.18-1.63-5.31-3.84-6.38l-4.1-38.6-9.69,57.03-7.58-5.3,2.18,11.89c.74,4.03,1.81,7.65,2.84,11.15,1.87,6.34,3.49,11.81,2.9,18.56-.96,11.04-7.53,14.36-19.06,19.28-10.24,4.37-20.99,6.24-32.37,8.21-5.47.95-11.12,1.93-16.69,3.21l-3.37.78-.44,3.43c-.04.3-.05.59-.05.88-14.64,5.51-30.51,9.93-45.51,12.65-7.45,1.35-13.17,2.12-18.85-.33-3.59-1.55-3.67-1.67-4.3-6.23-.76-5.59-1.17-11.73-1.57-17.68-.44-6.51-.88-13.24-1.8-19.52-.27-1.83-1.05-3.72-1.81-5.55-.44-1.06-1.18-2.83-1.23-3.45-.01-.3.17-1.18.29-1.77.36-1.75.86-4.16.22-6.71l-.3-1.2-.83-.92c-.49-.55-2.12-2.05-4.71-1.58-3.77-8.13-3.08-25.24-.83-34.02.07-.28.12-.55.15-.81,2.21-.25,4.73-1.01,5.85-3.72.86-2.09.35-4.43-1.37-6.25-2.99-3.15-17.55-4.83-17.69-4.84-2.41-.19-5.61-.09-9.3.02-2.69.08-7.18.22-10.7.06l6.5-10.78c3.96-6.56,6.25-13.74,8.46-20.68,1.42-4.46,2.77-8.68,4.52-12.71,1.4-3.22,3.5-7.52,5.75-11.74,1.2-.5,1.9-1.36,2.21-1.82,1.68-2.52,1.17-4.69.72-5.76-.18-.43-.41-.82-.67-1.17.56-1.55,1.31-3.44,1.8-4.69.92-2.33,1.46-3.69,1.73-4.65.87-3.08,1.54-6.18,2.12-9.26l1.12,7.39,5.81-2.32c5.47-2.19,4.91-9.98,3.81-16.53-.65-3.88-3.19-11.96-5.67-15.78-.72-1.11-1.76-1.92-2.78-2.69-1.49-11.12,2.83-32.58,6.61-42.71.43-1.15,1.02-2.31,1.64-3.54,1.01-1.99,2.06-4.05,2.67-6.48l.86-3.45c.92-2.33,2.3-5.09,3.31-7.11l2.53-5.09,6.12-6.09c.82-.81,1.68-1.66,2.48-2.49h0c.15-.16.29-.32.41-.48l-1.41-1.19c.16-.1.32-.21.48-.34l.83-.65.14-.26c.18-.16.38-.36.58-.6.21-.18.5-.45.8-.8h.01c.18-.18.45-.42.74-.75l.06-.06c.21-.19.51-.47.83-.84l.06-.05c.26-.24.51-.48.71-.71l.14-.14c.24-.23.48-.46.68-.69.06-.06.12-.12.18-.17.21-.2.41-.4.61-.61.08-.08.16-.16.24-.23.19-.19.38-.37.57-.57.33-.36.66-.67.94-.94.29-.28.54-.52.72-.71.08-.09.17-.17.25-.25.2-.19.39-.38.56-.56l.13-.13c.24-.22.6-.55.95-1,.26-.32.47-.65.63-.97l1.46,1.4c-.7.68-1.41.89-1.49.91l.15-.04c2.95-.72,4.52-2.4,5.34-4.23,5.02-2.56,13.86-7.84,14.32-8.16,1.9-1.33,3.38-2.82,4.82-4.27,1.49-1.5,2.9-2.92,4.71-4.07,21.09-13.31,60.53-18.04,90.91-15.07l-5.13,2.73,14.26-1.56c3.45.56,6.73,1.23,9.78,2.01,4.66,1.2,11.44,3.19,16.06,4.92,1.3.49,5.16,2.47,8.57,4.22,4.55,2.33,7.66,3.9,9.91,4.93v3.23l3.53-1.82c1.22.37,2.02.42,2.84.31.57-.07,1.53-.29,2.45-.99,1.07.25,2.21.54,2.86.73.31.25.8.69,1.15,1,2.57,2.27,5.77,5.1,9.51,3.64,1.37-.53,2.43-1.56,3.06-2.9,3.95,2.58,9.03,6.25,13.19,9.52,9.14,7.19,16.6,14.9,22.68,23.71-.25.03-.49.07-.73.12l-5.8,1.24,2.25,5.49c1.46,3.57,3.44,6.97,5.35,10.26,1.92,3.31,3.74,6.43,4.93,9.5,1.68,4.34,3.33,10.02,4.78,15.03.44,1.52.86,2.96,1.24,4.24.45,1.51.96,3.14,1.49,4.86,2.3,7.42,5.17,16.66,5.75,22.98.17,1.83-.13,4.09-.51,6.38l-3.19-1.63.46,8.59c.35,6.48-1.04,13.14-3.95,19.01h0c-1.12.31-2.06.89-2.8,1.75-1.05,1.22-1.96,2.42-2.84,3.58-1.93,2.55-3.59,4.75-6.15,6.26l-14.58,8.56,16.9.67c.11,0,.21,0,.31,0-2.61,5.42-4.97,10.9-7.28,16.28l-5.13,11.93,1.24-.43c-1.77,2.83-3.83,6.02-4.87,7.45-1.18.31-3.57,1.1-4.59,3.72-.77,1.97-.41,4.11,1.06,6.35l3.17,4.82,4.29-3.85c2.8-2.51,5.19-5.3,7.39-8.16-1.72,5.79-4.03,12.58-4.95,14.05-.23.34-1.14,1.16-1.75,1.71-1.66,1.49-3.54,3.18-4.35,5.47-.76,2.11-.4,3.96-.18,5.06.02.08.03.18.05.26-.53.63-2.18,1.68-3.2,2.33-2.47,1.57-5.27,3.35-6.87,6.29l-4.7,8.59,9.7-1.29c2.98-.4,5.26-1.72,7.15-3.23.07,3.9.21,6.1.61,7.5.03.09.06.19.1.31-.09.25-.15.46-.18.62l-.1.44-.96,23.13,4.02.92c2.4.55,4.1-.12,5.14-.8,1.89,2.87,3.85,6.23,4.62,7.78.55,1.13,1.33,3.12,2.22,5.42,4.48,11.5,10.03,25.76,19.83,25.76.19,0,.38,0,.57-.02,2.79,2.45,5.81,4.43,8.78,6.37,3.36,2.2,6.54,4.28,9.05,6.86l1.05,1.07,60.45,12.81-49.33-26.08ZM52.71,286.71c.15-.69.47-1.67,1.02-2.75.1-.21.19-.35.25-.45.27-.09.63-.21,1.03-.4l.56,3.96c-1.13-.08-2.12-.19-2.86-.35ZM115.42,92.58c-.41-.61-.87-1.03-1.27-1.32.14-.06.26-.12.36-.2h0s0,0,0,0c.08-.15.19-.26.31-.37.44.46.79.99,1.02,1.58l-.42.3ZM116.15,94.2c-.11-.43-.27-.81-.45-1.14l.24-.49c.15.48.22.99.21,1.51,0,.04,0,.08,0,.12ZM124.71,83.27c-.57-.24-1.04-.58-1.44-.96.11-.11.23-.22.34-.34.08-.09.18-.18.27-.26l.92.56-.1,1Z" fill="#8c8c8c"/><path d="M159.41,162.27c1.61-.36,4.62.34,5.94,1.31,5.15,3.79,10.35,12.35,14.4,17.51,1.61,2.05,6.31,8,8.38,9.05,1.74.88,3.71.33,5.21-.67,4.55-3.04,8.89-7.27,13.39-10.54,2.25-1.63,4.73-2.92,6.89-4.44,1.94-1.36,3.84-3.45,5.79-4.92,6.3-4.72,12.31-6.33,20.14-6.93,1.45.09,3.52,2.73,3.69,4.08.28,2.31.28,5.49-1.39,7.22-2.77,2.88-6.73,3.97-9.98,5.77-3.73,2.07-8.8,6.23-12.24,8.96-6.3,5-12.15,10.49-17.76,16.25-.35.61-.35,2.3.1,2.86l14.08,10.91c3.22,2.48,7.06,2.26,10.56,3.29,2.93.86,3.88,2.68,4.82,5.47,1.38,4.09.47,7.97-3.58,9.96-2.27,1.12-8.31,1.03-10.95.8-4.66-.42-9.63-4.69-13.4-7.38-5.42-3.86-10.66-7.97-16.03-11.89-1.98-1.15-4.04-.16-5.87.77-8.15,4.12-17.37,16.23-23.79,23.03-3.94,4.17-8.61,10.02-14.84,6.64-2.62-1.42-3.34-2.91-4.51-5.56-1.42-3.21-2.43-6.97-1.6-10.49.2-.83,2.65-2.84,3.43-3.5,5.47-4.7,11.48-6.67,17-10.71,3.67-2.69,10.12-8.46,13.13-11.86.67-.76,2.98-3.64,3.11-4.46.11-.77-2.47-3.83-3.12-4.56-3.64-4.12-7.98-7.84-11.65-12.07-1.2-1.38-5.51-6.34-5.88-7.76-.23-.87-.24-8.44,0-9.25.28-.95,4.32-5.35,5.26-6.07.33-.25.92-.72,1.3-.8Z" fill="#8c8c8c"/><path d="M316.01,155.85c-.71.69-1.4.77-2.34.91-5.16.76-8.25-1.09-12.91-2.41-6.65-1.89-14.38-3.32-21.32-2.84-3.05.21-3.05,1.06-5.28,2.49-4.92,3.14-11.11,3.39-13.54-2.75-1.59-4.02,2.66-7.11,6.04-8.11,2.11-.62,6.49-1.68,8.27-2.86,5.86-3.9,11.65-10.43,17.44-14.68,4.84-3.94,9.52-14.99,5.25-20.37-1.97-2.48-5.8-4.25-8.94-4.1-4.47.21-9.55,1.28-11.89,5.54-.76,1.37-1.12,4.78-2.29,5.48-1.34.8-4.18.42-5.49-.35-3.26-1.91-3.84-7.13-1.52-10.03,6.59-8.23,24.1-12.29,33.05-6.38,6.8,4.5,8.63,13.5,7.1,21.13-2.04,10.13-14.02,18.92-21.26,25.77-.59.56-1.89,1.53-.42,1.69,3.26.37,6.97.02,10.24.46,1.61.22,3.59.87,5.2,1.31,3.38.92,11.57,3.05,14.05,5.06,1.53,1.24,2.08,3.59.57,5.05Z" fill="#8c8c8c"/>
</svg>