<?xml version="1.0" encoding="UTF-8"?>
<svg id="a" data-name="Слой 1" xmlns="http://www.w3.org/2000/svg" width="1024" height="1024" viewBox="0 0 1024 1024">
  <path d="M928.05,916.07c-.19.63-.37,1.27-.54,1.9-15.27-17.49-26.04-36.24-29.11-55.87-10.29-65.72,41.99-160.91,100.79-223.36.05.65.12,1.3.19,1.95,1.83,17.21,5.72,32.63,7.85,45.25,17.53,103.85-59.92,164.25-79.18,230.13Z" fill="#cdcecd" opacity=".9"/>
  <polygon points="42.16 682.33 49.25 826.14 317.98 809.64 310.9 668.18 42.16 682.33" fill="#cdcecd"/>
  <polygon points="16.3 225.15 23.3 364.13 289.68 349.97 280.24 206.2 16.3 225.15" fill="#efefef"/>
  <path d="M49.26,852.07c5,29.69,1.83,62.64,5.36,92.44,2.29,19.27,10.5,41.86,33.28,41.66l241.8-13.95-9.38-139.03-271.06,18.88Z" fill="#bcbdbb"/>
  <path d="M1021.76,548.07c-.27.42-.55.85-.82,1.27-5.19,8.1-9.36,16.23-11.9,21.88-9.41,20.95-11.43,41.32-10.43,59.94.04.66.07,1.33.12,1.99-39.13,39.55-69.6,88.05-89.16,139.9-9.45,25.04-18.41,51.91-16.47,79l-73.84-40.46c-17.92-9.72-10.78-39.11-7.96-56.67,14.35-89.38,86.41-210.91,186.13-218.25l24.33,11.4Z" fill="#abacab"/>
  <polygon points="32.73 536.2 39.84 661.12 308.34 644.44 298.82 519.98 32.73 536.2" fill="#d5d5d4"/>
  <polygon points="25.7 387.72 30.37 500.85 296.76 489.06 289.34 373.88 25.7 387.72" fill="#e6e6e6"/>
  <g>
    <path d="M853.02,425.41c-33.05-18.14-86.56-46.46-124.17-33.44-16.26,5.63-110.01,59.86-119.88,71.05-14.22,16.13,4.29,48.5,19.36,58.64,35.19,23.68,81.59,2.69,116.29-11.37-1.39,5.77-10.65,5.53-12.99,9.36-3.31,5.43,2.57,36.94,4.69,44.88,6.67,24.95,24.22,48.95,46.78,61.65,5.56,3.13,21.83,5.04,16.94,11.34l-17.7-7.03,10.99,134.43,12.33-.34c16.1-86.73,62.63-182.44,146.57-220.37-37.51-87.71-93.44-189.18-188.73-222.53l3.37,63.78c25.4,8.42,58.52,17.48,80.74,32.4,3.05,2.05,6.46,2.64,5.41,7.53Z" fill="#fefefe" opacity=".94"/>
    <polygon points="273.16 29.39 332.09 972.29 348.62 972.29 292.04 32.93 288.61 27.65 273.16 29.39" fill="#fefefe" opacity=".8"/>
    <path d="M58.7,974.63c1.88,31.99,19.54,38.68,48.4,37.81,138.46-4.17,278.67-15.73,417.14-23.64,73.29-4.19,150.92-4.27,223.88-11.84,18.7-1.94,30.99-13.06,36.55-30.61-11.59,6.72-25.67,8.19-38.89,9.4-38.14,3.5-79.33,2.5-117.81,4.76-164.33,9.67-329.97,19.78-495.13,25.81-25.05.91-55.87,11.51-74.13-11.69Z" fill="#fefefe" opacity=".1"/>
    <polygon points="49.23 828.47 49.23 847.35 320.33 830.85 318.23 813.37 49.23 828.47" fill="#fefefe" opacity=".8"/>
    <path d="M39.8,663.47v14.17c89.39-3.01,179.44-8.33,268.63-14.25l-2.1-13.01-266.53,13.1Z" fill="#fefefe" opacity=".8"/>
    <path d="M23.32,368.86l2.37,14.11c87.79-4.03,176.01-10.09,264-14.12v-14.17s-266.37,14.18-266.37,14.18Z" fill="#fefefe" opacity=".8"/>
    <path d="M16.23,206.18v14.17c87.14-5.45,174.42-12.34,261.67-16.5v-11.81s-261.67,14.14-261.67,14.14Z" fill="#fefefe" opacity=".8"/>
    <path d="M352.24,24.78c106.62-4.12,214.09-12.19,320.38-14.34,35.3-.71,63.14,3.85,69.66,43.68l21.19,331.2c-9.54.54-19.4-1.03-28.91.57-16.46,2.77-110.01,59.44-125.56,72.44-7.01,5.86-8.91,15.32-19.36,16l-266.98,12.37-27.99-459.38c2.94-4.64,48.53-2.19,57.57-2.54Z" fill="#fefefe" opacity=".1"/>
    <path d="M599.79,503.06c10.89-1.23,13.63,9.91,21.02,16.69,29.84,27.4,71.35,16.03,104.93,2.3,2.45,33.98,10.59,66.33,34.46,91.67,4,4.25,13.79,8.64,16.09,12.2,5.87,9.08,5.04,63.73,6.07,78.79,4.47,65.14,12.09,132.95,14.21,197.92,1.08,33.23-10.91,45.57-43.73,48.39l-399.5,21.26-27.95-452.26,274.41-16.96Z" fill="#fefefe" opacity=".1"/>
    <path d="M16.26,203.82l261.64-16.48-9.43-160.31-196.81,7.11c-31.59,3.86-56.06,22.72-59.88,55.62-4.16,35.79,4.43,77.77,4.48,114.06Z" fill="#fff"/>
  </g>
  <g>
    <path d="M1000.15,532.91c-11.63-2.42-21.87.39-31.77,3.1-4.19,1.15-8.5,2.33-12.93,3.14-26.04-61.93-81.57-170.67-163.78-212.14-2.07-1.04-5.9-2.36-10.33-3.89-5.64-1.95-17.25-5.95-18.42-8l-17.44-272.22-.04-.25c-3.8-15.68-16.34-27.96-34.42-33.67-17.78-5.63-44.47-3.42-68.01-1.47-8.9.74-17.3,1.43-24.45,1.63-161,4.5-323.63,10.8-483.38,18.74-8.23.41-16.4.61-24.31.81-28.91.71-56.22,1.39-75.52,12.39C13.86,53.33,4.29,77,5.2,115.59c3.07,128.84,11.76,260.41,20.16,387.65,4.57,69.2,9.3,140.75,13.06,210.9,1.59,29.86,2.38,60.42,3.15,89.96,1.14,44.09,2.32,89.68,6.2,134.1l.08.89c1.24,14.14,3.3,37.82,7.67,50.72,4.61,13.66,21.87,29.25,37.24,28.85,79.16-1.98,159.73-7.53,237.65-12.89,42.71-2.95,86.89-5.99,130.27-8.4,32.38-1.81,66.05-2.99,98.61-4.13,58.81-2.07,119.62-4.21,177.2-10.07l3.1-.31c16.73-1.66,27.77-2.75,40.15-16.84,9.57-10.9,22.06-38.42,22.46-53.82v-.06s-8.86-141.09-8.86-141.09h10.58c-9.67,35.52,9.29,44.02,31.18,53.83,6.14,2.76,12.49,5.61,18.78,9.22,20.95,12.03,35.15,21.33,37.98,24.87,1.73,2.17,4.03,9.25,6.25,16.1,2.15,6.63,4.37,13.48,6.59,17.79,5.57,10.8,12.85,21.1,21.38,30.9.42-1.94.9-3.86,1.43-5.79.17-.63.35-1.27.54-1.9-14.74-17.03-25.2-35.26-28.17-54.2-6.29-40.19,11.22-96.49,48.04-154.47,15.46-24.36,33.18-47.17,51.46-66.71-.07-.65-.14-1.3-.19-1.95-.19-1.85-.34-3.71-.46-5.59-.05-.66-.08-1.33-.12-1.99-38.89,39.05-70.19,87.7-90.44,141.36-8.76,23.21-17.92,50.1-16.72,76.91l-71.47-39.16c-15.27-8.28-11.13-32.27-8.1-49.78.33-1.87.63-3.65.9-5.33,7.55-47.04,30.27-99.09,60.77-139.23,25.14-33.09,66.99-73.4,123.6-77.74l23.79,11.15c.27-.42.55-.85.82-1.27,1-1.53,2.03-3.04,3.1-4.54-9.9-5.21-18.81-9.39-24.71-10.62ZM604.08,983.85c-26.4.96-53.69,1.95-79.93,3.45-45.26,2.59-91.5,5.62-136.22,8.54-92.28,6.05-187.7,12.29-280.88,15.1-26.17.79-43.24-4.41-46.46-31.89,14.7,14.97,35.36,12.59,55.39,10.29,5.91-.68,11.5-1.32,16.9-1.52,151.73-5.54,305.9-14.64,454.99-23.44l40.17-2.37c16.19-.95,33.18-1.33,49.6-1.7,22.69-.51,46.14-1.04,68.27-3.07,11.03-1.01,24.51-2.25,36.06-7.78-6.02,15.35-17.71,24.31-34.01,26-46.81,4.86-96.16,6.65-143.88,8.39ZM51,853.45l267.92-18.66,9.18,136.02-240.22,13.86h-.28c-23.23,0-29.7-25.25-31.49-40.34-1.59-13.36-1.82-27.67-2.05-41.5-.27-16.45-.54-33.44-3.06-49.38ZM13.27,89.94c3.48-29.94,25.35-50.23,58.51-54.31l195.28-7.05,9.26,157.36L17.75,202.23c-.11-14.03-1.46-29.11-2.76-43.71-2.07-23.19-4.21-47.16-1.72-68.58ZM287.85,29.24l2.72,4.18,56.46,937.37h-13.53L274.75,30.72l13.1-1.48ZM339.8,26.18c5.69.11,10.19.19,12.5.1,42.67-1.65,86.19-3.96,128.29-6.21,63.09-3.36,128.33-6.84,192.06-8.13,38.61-.78,62.14,5.91,68.14,42.35l21.09,329.61c-3.27.11-6.64,0-9.91-.1-5.8-.18-11.8-.37-17.65.62-17.16,2.89-110.66,59.71-126.28,72.77-2.51,2.11-4.36,4.59-6.15,7-3.29,4.42-6.14,8.25-12.31,8.65l-265.51,12.3-27.86-457.22c3.95-2.51,32.6-1.96,43.59-1.74ZM50.73,829.89l266.18-14.95,1.74,14.51-267.92,16.31v-15.87ZM41.3,664.9l263.76-12.96,1.63,10.06c-73.53,4.87-169.68,10.83-265.39,14.09v-11.19ZM276.4,193.62v8.79c-56.88,2.73-114.68,6.68-170.59,10.49-28.87,1.97-58.71,4-88.08,5.85v-11.15l258.67-13.98ZM278.84,207.8l9.24,140.75-263.35,14.01-6.86-136.01,260.97-18.75ZM288.19,356.26v11.16c-43.67,2.01-88.08,4.55-131.04,7.01-42.72,2.45-86.87,4.98-130.21,6.98l-1.87-11.14,263.12-14.01ZM287.94,375.45l7.23,112.18-263.36,11.65-4.55-110.14,260.68-13.69ZM297.44,521.56l9.29,121.48-265.48,16.49-6.93-121.92,263.12-16.05ZM309.48,669.76l6.92,138.47-265.72,16.32-6.95-140.8,265.75-13.99ZM752.75,949.52l-398.02,21.19-27.76-449.28,272.98-16.88c6.61-.75,9.73,3.53,13.67,8.95,1.84,2.52,3.74,5.13,6.17,7.36,30.23,27.75,71.51,16.68,104.6,3.36,3.18,39.99,14.23,68.8,34.71,90.53,2.02,2.15,5.29,4.24,8.45,6.27,3.16,2.02,6.44,4.12,7.47,5.72,4.11,6.35,4.8,38.41,5.25,59.63.17,7.77.31,14.48.59,18.44,1.59,23.3,3.63,47.37,5.6,70.65,3.56,42.04,7.24,85.51,8.6,127.22,1.03,31.81-10.05,44.07-42.31,46.84ZM794.71,763.39l-10.68-130.61,16.51,6.55.69-.89c1.12-1.45,1.47-2.9,1.04-4.3-1.05-3.37-6.3-5.04-11.86-6.81-2.61-.83-5.08-1.62-6.58-2.46-21.66-12.19-39.31-35.46-46.07-60.73-2.71-10.12-7.5-39.38-4.86-43.71.74-1.21,2.77-2.01,4.91-2.85,3.42-1.35,7.28-2.88,8.26-6.94l.68-2.84-2.7,1.1c-1.78.72-3.59,1.46-5.42,2.21-34.19,13.95-76.74,31.33-109.47,9.3-9.81-6.6-21.6-23.67-23.51-38.56-.96-7.41.54-13.41,4.44-17.84,9.32-10.57,103.1-65.04,119.25-70.63,38.16-13.21,93.32,17.08,122.96,33.34l1.76.97.43-1.97c1.07-5.01-1.93-6.71-4.35-8.08-.56-.32-1.14-.64-1.69-1.01-18.76-12.59-44.96-20.97-68.07-28.36-4.21-1.35-8.21-2.63-12.07-3.9l-3.2-60.51c96.2,34.92,151.67,141.54,185.16,219.6-38.74,17.87-71.72,48.77-98.05,91.86-22.45,36.75-38.97,80.92-47.81,127.8l-9.7.27Z" fill="#8c8c8c"/>
    <polygon points="673.95 150.51 646.5 126.32 490.73 303.04 408.39 230.46 384.2 257.91 493.99 354.68 673.95 150.51" fill="#8c8c8c"/>
    <polygon points="680.03 626.38 652.63 602.3 556.31 711.89 446.72 615.56 422.64 642.96 532.23 739.29 435.9 848.88 463.3 872.96 559.62 763.37 669.21 859.69 693.29 832.29 583.7 735.97 680.03 626.38" fill="#8c8c8c"/>
    <path d="M229.79,284.81c.08,1.23.56,2.2,1.43,2.91.86.7,1.94,1.01,3.21.93.65-.04,1.4-.22,2.21-.52.88-.33,1.71-1.09,2.56-2.33.84-1.23,1.21-2.8,1.09-4.66h0c-.21-2.39-1.25-4.27-3.08-5.58-1.81-1.3-3.92-1.88-6.27-1.73-3.55.22-6.52,2.21-8.86,5.93-.97-1.38-2.3-2.52-3.95-3.41-1.9-1.02-3.99-1.47-6.21-1.34-4.32.33-7.89,2.34-10.62,5.96-2.7,3.58-4.2,6.74-4.48,9.4v.04s0,.04,0,.04c.03.43.28.86.76,1.29l.14.13,1.47-.09h.03c1.1-.16,1.41-.25,1.56-.31.45-.18.6-.78.68-1.28.64-3,1.95-5.53,3.89-7.54,1.92-1.99,4.07-3.07,6.37-3.21,1.06-.07,2,.2,2.88.82.84.59,1.31,1.67,1.4,3.23.04.7-.04,1.88-.23,3.5-.08.61-.45,2.66-1.09,6.1s-1.29,6.82-1.95,10.02c-.65,3.17-1.21,5.27-1.68,6.23-1.33,2.67-3.02,4.09-5.03,4.21h-.05c-.47.09-.98.04-1.53-.14-.44-.14-.81-.28-1.12-.4.15-.07.33-.17.55-.28.72-.38,1.43-1.07,2.15-2.1.73-1.04,1.06-2.24.98-3.56-.17-2.81-1.78-4.2-4.65-4.02-1.71.11-3.16.86-4.32,2.25-1.16,1.38-1.68,3.12-1.55,5.18v.02c.18,1.86,1,3.6,2.44,5.17,1.47,1.61,3.8,2.32,6.91,2.13l.55-.03c3.2-.2,5.97-2.15,8.24-5.81,2.48,3.43,5.86,5.03,10.05,4.77,3.82-.24,7.13-1.84,9.84-4.78,2.68-2.9,4.43-6.2,5.21-9.8v-.03c.14-.97.13-1.04.13-1.11-.03-.44-.31-1.17-1.9-1.08l-.37.02h-.03c-1.1.16-1.41.25-1.56.31-.35.14-.57.53-.76,1.36h0c-.59,2.89-1.9,5.4-3.9,7.47-1.98,2.05-4.06,3.16-6.19,3.29-1.07.07-2.04-.2-2.99-.82-.9-.59-1.39-1.64-1.48-3.21-.14-2.2,1.21-10.21,4.01-23.79.87-2.96,2.37-4.99,4.49-6.04.22-.09.67-.2,1.57-.25,1.21-.08,2.15.06,2.81.41-2.68,1.33-3.95,3.4-3.78,6.17Z" fill="#575956"/>
    <path d="M165.58,293.71l-.1-.05-26.9,1.67-1.67-26.89-.05-.09c-.71-1.31-1.67-1.54-2.34-1.5-.71.04-1.36.53-2.01,1.5l-.09.13.77,13.88.82,13.26-26.99,1.67-.09.05c-1.23.71-1.44,1.66-1.39,2.33l.07,1.19.32-.02c.25.36.65.71,1.27.97l.1.04,26.99-1.67,1.67,26.88.04.08c.63,1.25,1.52,1.47,2.16,1.43l.37-.02c.78-.05,1.44-.6,1.95-1.64l.05-.11-1.67-26.91,26.9-1.67.1-.06c1.04-.64,1.53-1.42,1.47-2.33-.06-.91-.65-1.63-1.75-2.13Z" fill="#575956"/>
    <path d="M269.92,262l.03.49c-.59,4.48-.92,5.4-1.04,5.58-.28.13-2.05.41-10.62.95l-4.12.2,3.05-3.27c2.58-2.78,4.63-4.91,6.08-6.34,2.12-2.07,3.76-3.8,4.9-5.13,1.14-1.34,2.11-2.91,2.88-4.67.78-1.77,1.11-3.63.99-5.53-.29-3.91-1.87-7.05-4.71-9.35-2.83-2.29-6.29-3.33-10.27-3.08-3.48.22-6.35,1.56-8.55,4-2.2,2.44-3.21,5.26-3.02,8.4.07,1.2.51,2.2,1.31,2.99.8.8,1.85,1.16,3.1,1.08h.01c1.33-.13,2.36-.62,3.05-1.46.7-.84,1.01-1.85.94-3.01-.09-1.48-.62-2.54-1.56-3.15-.87-.56-1.71-.83-2.52-.81.08-.17.2-.43.42-.83.36-.67,1.05-1.4,2.04-2.17.97-.76,2.15-1.18,3.5-1.26,2.63-.16,4.65.64,6.19,2.47,1.54,1.83,2.4,4.09,2.56,6.72.05.79.03,1.49-.06,2.08-.09.61-.2,1.26-.33,1.96-.12.67-.35,1.35-.69,2.04-.35.72-.64,1.38-.86,1.96-.21.55-.62,1.25-1.19,2.09-.59.86-1.06,1.54-1.37,2.04-.31.48-.87,1.25-1.66,2.29-.79,1.04-1.38,1.79-1.74,2.25-.36.45-1.05,1.3-2.05,2.52-1,1.23-1.69,2.08-2.06,2.54-.84,1.08-1.85,2.37-3.01,3.82-.98,1.25-1.57,2.03-1.81,2.4-.28.42-.4.82-.38,1.19l.14,2.33,24.63-1.53-.03-.44c.09-.29.25-1.32.6-6.04.34-4.58.44-5.73.47-5.88v-.04s-.02-.57-.02-.57l-3.23.2Z" fill="#575956"/>
    <path d="M50.95,114.52c.13,2.15.33,3.97.6,5.41v.02c1.27,6.01,4.37,11.61,9.2,16.66,4.89,5.11,10.97,7.48,18.09,7.05,6.01-.36,10.99-3.58,14.83-9.56.57,11.44-.64,19.7-3.62,24.58v.02c-3.18,5.68-7.36,8.71-12.44,9.02l-.8.05h-.03c-1.95.21-3.78.1-5.42-.31-1.57-.39-2.69-.74-3.31-1.03.36-.16.74-.34,1.13-.54.73-.37,1.47-1.19,2.28-2.52.8-1.32,1.15-2.87,1.05-4.6-.15-2.41-1.01-4.28-2.56-5.56-1.54-1.27-3.4-1.85-5.51-1.72-2.52.11-4.42.86-5.65,2.25-1.29,1.45-1.83,3.6-1.62,6.38.41,5.26,2.54,9.19,6.33,11.67,3.73,2.44,8.44,3.51,14,3.17,4.99-.39,9.69-2.15,13.97-5.23,4.26-3.07,7.86-7.28,10.71-12.52,4.86-9.02,6.94-19.95,6.18-32.48-.74-12.33-3.32-22.46-7.65-30.11v-.02c-2.02-3.23-4.16-5.82-6.37-7.69-2.22-1.88-4.49-3.23-6.75-4.01-2.26-.79-3.96-1.22-5.19-1.34-1.2-.11-2.36-.13-3.46-.07l-.45.03c-.39-.07-.77-.09-1.16-.06l-.8.05c-6.56.4-12.48,3.52-17.6,9.3-5.87,6.62-8.58,14.25-8.07,22.67l.06,1.07ZM66.34,98.98c.35-2.56,1.37-4.85,3.03-6.81,2.12-2.4,4.81-3.71,8-3.9h.02c2.26-.22,4.28.08,6,.89,1.73.82,3.06,1.88,3.96,3.15.95,1.33,1.63,2.43,2.02,3.26.39.83.7,1.67.92,2.51v.02c.88,2.92,1.54,7.88,1.95,14.73.35,7.33-.61,13.27-2.86,17.66-2.22,4.33-5.27,6.56-9.33,6.8-4,.24-7.05-.98-9.33-3.72l-.03-.03c-1.34-1.43-2.31-3.38-2.88-5.81-.59-2.51-1.11-7.48-1.55-14.79-.31-6.61-.28-11.3.08-13.95Z" fill="#575956"/>
    <path d="M194,67.03c1.17,1.17,2.69,1.7,4.52,1.59h.02c1.94-.19,3.44-.9,4.46-2.12,1.02-1.22,1.48-2.7,1.38-4.39-.13-2.16-.89-3.71-2.27-4.6-1.26-.82-2.5-1.22-3.67-1.19.11-.25.3-.63.62-1.21.53-.98,1.54-2.05,2.99-3.17,1.43-1.1,3.15-1.72,5.12-1.84,3.84-.23,6.8.95,9.03,3.62,2.24,2.67,3.49,5.98,3.72,9.82.07,1.16.04,2.18-.09,3.03-.13.88-.3,1.85-.49,2.86-.18.98-.52,1.98-1.01,2.98-.51,1.05-.93,2.01-1.27,2.86-.31.8-.9,1.83-1.75,3.04-.87,1.25-1.55,2.25-2.01,2.98-.45.71-1.27,1.83-2.43,3.34-1.16,1.51-2.02,2.61-2.54,3.27-.53.66-1.53,1.9-2.99,3.68-1.46,1.79-2.48,3.03-3.01,3.7-1.22,1.58-2.7,3.45-4.4,5.57-1.43,1.82-2.3,2.96-2.66,3.51-.4.61-.59,1.2-.56,1.74l.21,3.4,35.97-2.17-.04-.64c.14-.43.37-1.93.88-8.82.5-6.68.66-8.37.7-8.59l.02-.06-.05-.83-4.72.28.04.71c-.87,6.54-1.35,7.89-1.53,8.15-.41.18-2.99.6-15.51,1.36l-6.02.28,4.46-4.77c3.77-4.06,6.77-7.16,8.9-9.24,3.1-3.02,5.51-5.54,7.16-7.47,1.67-1.96,3.09-4.25,4.22-6.81,1.14-2.59,1.63-5.3,1.46-8.08-.41-5.71-2.71-10.31-6.85-13.67-4.13-3.35-9.17-4.88-15-4.53-5.08.31-9.28,2.26-12.49,5.82-3.21,3.56-4.7,7.68-4.42,12.26.11,1.75.74,3.22,1.9,4.37Z" fill="#575956"/>
    <path d="M64.87,295.03c.08,1.23.56,2.2,1.43,2.91.86.7,1.94,1.01,3.21.93.65-.04,1.4-.22,2.21-.52.88-.33,1.71-1.09,2.56-2.33.84-1.23,1.21-2.8,1.09-4.66h0c-.21-2.39-1.25-4.26-3.08-5.58-1.81-1.3-3.92-1.88-6.27-1.73-3.55.22-6.52,2.21-8.86,5.93-.97-1.38-2.3-2.52-3.95-3.41-1.9-1.02-3.99-1.47-6.21-1.34-4.32.33-7.89,2.34-10.62,5.96-2.7,3.58-4.2,6.74-4.48,9.4v.04s0,.04,0,.04c.03.43.28.86.76,1.29l.14.13,1.47-.09h.04c1.1-.16,1.41-.25,1.56-.31.45-.18.6-.78.68-1.28.64-3,1.95-5.53,3.89-7.54,1.92-1.99,4.07-3.07,6.37-3.21,1.06-.07,2,.2,2.88.82.84.59,1.31,1.67,1.4,3.23.04.7-.04,1.88-.23,3.5-.08.61-.45,2.66-1.09,6.1-.64,3.45-1.29,6.82-1.95,10.02-.65,3.17-1.21,5.27-1.68,6.23-1.33,2.67-3.02,4.09-5.03,4.21h-.05c-.47.09-.98.04-1.53-.14-.44-.14-.81-.28-1.12-.4.15-.07.33-.17.55-.28.72-.38,1.43-1.07,2.15-2.1.73-1.04,1.06-2.24.98-3.56-.17-2.81-1.78-4.2-4.65-4.02-1.71.11-3.16.86-4.32,2.25-1.16,1.38-1.68,3.12-1.55,5.18v.02c.18,1.86,1,3.6,2.44,5.17,1.47,1.61,3.8,2.32,6.91,2.13l.55-.03c3.2-.2,5.97-2.15,8.24-5.81,2.48,3.43,5.86,5.03,10.05,4.77,3.82-.24,7.13-1.84,9.84-4.78,2.68-2.9,4.43-6.2,5.21-9.8v-.03c.14-.97.13-1.04.13-1.11-.03-.44-.31-1.17-1.9-1.08l-.37.02h-.03c-1.1.16-1.41.25-1.56.31-.35.14-.57.53-.76,1.36h0c-.59,2.89-1.9,5.4-3.9,7.47-1.98,2.05-4.06,3.16-6.19,3.29-1.07.07-2.04-.2-2.99-.82-.9-.59-1.39-1.64-1.48-3.21-.14-2.2,1.21-10.21,4.01-23.79.87-2.96,2.38-4.99,4.49-6.04.22-.09.67-.2,1.57-.25,1.21-.08,2.15.06,2.81.41-2.68,1.33-3.95,3.4-3.78,6.17Z" fill="#575956"/>
    <path d="M134.31,159.48c1.07-1.52,1.56-3.27,1.44-5.2-.25-4.11-2.59-6.14-6.79-5.89-2.49.15-4.62,1.25-6.32,3.27-1.69,2.01-2.46,4.55-2.27,7.57v.02c.26,2.71,1.45,5.25,3.55,7.55,2.14,2.35,5.54,3.4,10.09,3.12l.8-.05c4.68-.28,8.73-3.13,12.05-8.47,3.62,5.01,8.55,7.36,14.66,6.99,5.58-.34,10.42-2.67,14.38-6.95,3.92-4.23,6.49-9.04,7.63-14.3v-.05c.2-1.42.2-1.52.19-1.62-.04-.65-.45-1.71-2.77-1.57l-.53.03h-.05c-1.6.23-2.06.36-2.28.44-.51.2-.83.78-1.11,1.98v.02c-.87,4.2-2.8,7.86-5.72,10.88-2.89,2.99-5.93,4.6-9.04,4.79-1.56.09-2.98-.3-4.36-1.21-1.31-.87-2.02-2.4-2.16-4.69-.19-3.22,1.8-14.9,5.91-34.73,1.27-4.31,3.48-7.28,6.57-8.81.32-.12.98-.28,2.29-.36,1.77-.11,3.14.09,4.1.6-3.92,1.93-5.78,4.95-5.53,9,.11,1.79.81,3.22,2.08,4.25,1.26,1.02,2.83,1.48,4.69,1.37.95-.06,2.04-.31,3.23-.76,1.28-.48,2.5-1.59,3.74-3.4,1.23-1.8,1.77-4.08,1.61-6.81v-.02c-.31-3.48-1.82-6.21-4.49-8.14-2.64-1.9-5.72-2.75-9.15-2.55-5.18.31-9.53,3.22-12.96,8.64-1.42-2.01-3.35-3.69-5.77-4.99-2.78-1.5-5.82-2.16-9.06-1.97-6.31.47-11.53,3.39-15.52,8.67-3.94,5.22-6.15,9.84-6.56,13.72v.06s0,.06,0,.06c.04.64.4,1.25,1.11,1.88l.21.18,2.15-.13h.05c1.6-.23,2.06-.36,2.28-.44.65-.26.88-1.14.99-1.87.95-4.37,2.87-8.07,5.7-11,2.81-2.9,5.94-4.47,9.32-4.67,1.55-.09,2.93.3,4.21,1.21,1.22.86,1.91,2.45,2.04,4.71.06,1.02-.06,2.75-.35,5.12-.12.89-.66,3.88-1.6,8.91-.94,5.03-1.9,9.96-2.87,14.63-.95,4.63-1.78,7.69-2.47,9.1-1.95,3.9-4.42,5.96-7.36,6.14h-.07c-.68.13-1.43.05-2.24-.21-.64-.21-1.18-.41-1.64-.58.22-.11.48-.24.8-.41,1.06-.56,2.08-1.56,3.14-3.06Z" fill="#575956"/>
    <path d="M233.3,753.08l-.1-.05-52.42,2.69-.09.05c-1.21.69-1.43,1.62-1.39,2.28l.06,1.17.32-.02c.24.36.63.7,1.24.97l.1.04,52.42-2.69.1-.06c1.02-.62,1.52-1.38,1.47-2.27-.05-.89-.62-1.6-1.7-2.11Z" fill="#575956"/>
    <path d="M158.65,592.86c.13,1.86.87,3.34,2.21,4.4,1.31,1.05,2.96,1.51,4.88,1.37.99-.07,2.12-.35,3.35-.82,1.32-.51,2.58-1.68,3.85-3.57,1.26-1.88,1.8-4.26,1.6-7.09v-.02c-.35-3.61-1.95-6.43-4.75-8.4-2.76-1.94-5.97-2.8-9.53-2.55-5.37.38-9.87,3.44-13.37,9.1-1.49-2.07-3.52-3.8-6.04-5.13-2.9-1.53-6.07-2.18-9.43-1.95-6.55.56-11.94,3.64-16.03,9.17-4.04,5.46-6.29,10.28-6.67,14.32v.06s0,.06,0,.06c.05.66.43,1.29,1.18,1.94l.22.19,2.23-.16h.05c1.66-.25,2.14-.39,2.36-.48.68-.28.9-1.19,1.01-1.95.94-4.55,2.89-8.42,5.81-11.48,2.89-3.04,6.13-4.71,9.63-4.95,1.61-.11,3.04.28,4.39,1.21,1.27.88,2.01,2.52,2.17,4.87.07,1.06-.03,2.85-.31,5.32-.12.92-.65,4.04-1.57,9.27-.92,5.24-1.87,10.36-2.82,15.23-.94,4.82-1.77,8.01-2.47,9.48-1.98,4.07-4.53,6.24-7.58,6.45h-.08c-.71.14-1.49.07-2.33-.2-.66-.21-1.23-.41-1.71-.59.23-.11.5-.26.83-.44,1.09-.59,2.15-1.64,3.23-3.21,1.1-1.59,1.58-3.41,1.44-5.41-.3-4.26-2.76-6.35-7.11-6.04-2.59.18-4.78,1.35-6.53,3.46-1.73,2.1-2.5,4.76-2.28,7.88v.02c.3,2.81,1.57,5.44,3.77,7.81,2.25,2.42,5.79,3.47,10.51,3.14l.83-.06c4.85-.34,9.03-3.34,12.43-8.92,3.81,5.16,8.95,7.55,15.3,7.11,5.79-.41,10.79-2.89,14.86-7.37,4.03-4.44,6.64-9.46,7.77-14.93v-.05c.2-1.47.19-1.58.18-1.68-.05-.67-.49-1.78-2.9-1.61l-.55.04h-.05c-1.66.25-2.14.39-2.36.48-.52.22-.85.82-1.14,2.07v.02c-.86,4.37-2.82,8.19-5.83,11.36-2.97,3.14-6.12,4.84-9.34,5.07-1.62.11-3.1-.28-4.54-1.21-1.37-.89-2.12-2.47-2.29-4.85-.24-3.34,1.71-15.49,5.78-36.13,1.27-4.49,3.54-7.6,6.73-9.22.33-.13,1.01-.31,2.37-.4,1.84-.13,3.27.07,4.27.58-4.05,2.05-5.95,5.21-5.65,9.41Z" fill="#575956"/>
    <path d="M239.16,928.09c.9-1.27,1.31-2.72,1.22-4.33-.19-3.43-2.15-5.14-5.65-4.94-2.08.12-3.86,1.03-5.29,2.71-1.42,1.67-2.06,3.8-1.92,6.31v.02c.21,2.27,1.2,4.39,2.94,6.32,1.78,1.97,4.61,2.86,8.42,2.64l.67-.04c3.91-.22,7.3-2.59,10.09-7.03,3.01,4.19,7.12,6.17,12.22,5.88,4.66-.26,8.71-2.2,12.03-5.76,3.29-3.52,5.45-7.53,6.41-11.92v-.04c.18-1.18.17-1.27.17-1.35-.03-.54-.37-1.43-2.31-1.32l-.45.03h-.04c-1.34.18-1.72.29-1.9.36-.42.17-.7.65-.94,1.65h0c-.74,3.52-2.36,6.57-4.81,9.08-2.43,2.49-4.97,3.83-7.56,3.97-1.3.07-2.49-.26-3.64-1.02-1.1-.73-1.68-2.01-1.79-3.93-.15-2.69,1.55-12.44,5.05-28.99,1.07-3.6,2.93-6.07,5.51-7.34.27-.1.82-.24,1.91-.3,1.48-.08,2.63.09,3.42.51-3.28,1.6-4.84,4.12-4.65,7.5.08,1.49.67,2.69,1.73,3.56,1.05.86,2.36,1.24,3.91,1.16.8-.05,1.71-.26,2.7-.63,1.07-.4,2.1-1.32,3.14-2.83,1.03-1.5,1.49-3.41,1.36-5.68v-.02c-.24-2.9-1.5-5.19-3.73-6.81-2.2-1.59-4.77-2.32-7.64-2.15-4.33.24-7.97,2.66-10.85,7.17-1.18-1.68-2.79-3.09-4.8-4.19-2.31-1.26-4.85-1.82-7.56-1.67-5.27.38-9.64,2.8-12.99,7.2-3.31,4.35-5.17,8.2-5.52,11.44v.05s0,.05,0,.05c.03.53.33,1.05.92,1.57l.17.15,1.79-.1h.04c1.34-.18,1.72-.29,1.9-.36.55-.22.74-.95.84-1.56.8-3.65,2.42-6.73,4.8-9.17,2.36-2.41,4.98-3.72,7.79-3.88,1.29-.07,2.44.26,3.51,1.02,1.02.72,1.58,2.05,1.69,3.94.05.85-.06,2.29-.31,4.27-.1.74-.56,3.24-1.36,7.44-.8,4.2-1.62,8.3-2.44,12.21-.81,3.86-1.51,6.42-2.09,7.59-1.64,3.25-3.71,4.97-6.16,5.1h-.06c-.57.1-1.2.04-1.87-.19-.53-.18-.99-.34-1.37-.49.18-.09.41-.2.67-.34.88-.46,1.75-1.3,2.63-2.55Z" fill="#575956"/>
    <path d="M218.88,544.59c.09,1.31.62,2.36,1.56,3.11.93.74,2.09,1.07,3.45.97.7-.05,1.5-.25,2.37-.58.94-.36,1.83-1.19,2.72-2.53.89-1.33,1.27-3.01,1.13-5.02-.25-2.55-1.38-4.55-3.36-5.94-1.95-1.37-4.22-1.98-6.74-1.8-3.8.27-6.98,2.43-9.45,6.44-1.05-1.47-2.49-2.68-4.27-3.62-2.05-1.08-4.29-1.54-6.67-1.38-4.63.39-8.44,2.58-11.33,6.49-2.86,3.86-4.44,7.27-4.72,10.12v.08c.03.47.3.92.83,1.37l.15.13,1.57-.11h.04c1.18-.18,1.51-.28,1.67-.34.48-.2.64-.84.72-1.38.66-3.22,2.05-5.95,4.11-8.12,2.04-2.15,4.33-3.33,6.81-3.5,1.14-.08,2.15.2,3.1.86.9.62,1.42,1.78,1.54,3.45.05.75-.02,2.02-.22,3.76-.08.65-.46,2.86-1.11,6.55-.65,3.7-1.33,7.32-2,10.77-.66,3.41-1.25,5.66-1.74,6.7-1.4,2.88-3.2,4.41-5.36,4.56h-.05c-.5.1-1.05.05-1.64-.14-.47-.15-.87-.29-1.21-.42.16-.08.35-.18.59-.31.77-.42,1.52-1.16,2.29-2.27.78-1.12,1.12-2.41,1.02-3.83-.21-3.01-1.95-4.49-5.03-4.27-1.83.13-3.38.95-4.62,2.45-1.23,1.49-1.77,3.36-1.61,5.57v.02c.21,1.99,1.11,3.85,2.67,5.52,1.59,1.71,4.09,2.46,7.43,2.22l.59-.04c3.43-.24,6.39-2.36,8.79-6.31,2.69,3.65,6.33,5.34,10.82,5.02,4.1-.29,7.63-2.04,10.51-5.21,2.85-3.14,4.7-6.69,5.5-10.56v-.04c.14-1.04.13-1.12.13-1.19-.03-.48-.34-1.26-2.05-1.14l-.39.03h-.04c-1.18.18-1.51.28-1.67.34-.37.15-.6.58-.81,1.48-.61,3.09-1.99,5.79-4.12,8.03-2.1,2.22-4.32,3.42-6.6,3.59-1.14.08-2.19-.2-3.21-.86-.97-.63-1.5-1.75-1.62-3.43-.17-2.36,1.21-10.96,4.09-25.55.9-3.18,2.5-5.37,4.76-6.52.23-.09.71-.22,1.68-.28,1.3-.09,2.31.05,3.02.41-2.86,1.45-4.2,3.68-4,6.65Z" fill="#575956"/>
    <path d="M176.43,966.52c.57.42,1.19.62,1.85.58.93-.05,1.7-.55,2.28-1.49l.03-.05c.15-.32.62-1.3,16.91-55.64,16.31-54.39,16.29-54.8,16.27-55.04-.04-.75-.36-1.39-.94-1.91-.58-.52-1.3-.76-2.11-.72-1.4.08-1.98.9-2.21,1.58-.18.45-1.44,4.36-16.7,55.03-16.42,54.51-16.37,55.36-16.35,55.72.05.84.38,1.49.98,1.94Z" fill="#575956"/>
    <path d="M299.43,769.81c-2.55.13-4.41.17-5.53.11-1.44-.08-1.9-.17-2.05-.23-.15-.05-.42-.19-.83-.54l-1.46-26.76-1.39-27.09-.19-.13c-.58-.39-1.19-.57-1.83-.54-.74.04-1.18.19-1.39.49-.66.67-1.45,1.35-2.34,2.03-.89.68-2.5,1.47-4.81,2.35-2.3.88-4.87,1.46-7.62,1.72l-2.15.11.26,5.03,2.16-.11h.03c1.92-.22,3.68-.53,5.24-.91,1.56-.38,2.77-.75,3.61-1.1l.56-.25,2.34,45.48c-.11.08-.24.21-.39.38-.19.21-.29.31-.34.35-.11.03-.3.08-.7.22-.39.13-.84.24-1.35.33-.52.08-1.26.15-2.19.2l-6.2.32.26,5.03,1.53-.08h.06c1.22-.25,5.94-.58,14.03-.99,8.21-.42,13-.58,14.24-.47l1.5-.07-.26-5.03-2.79.14Z" fill="#575956"/>
    <path d="M133.4,725.46c-.81-.57-1.68-.99-2.56-1.25-.72-.21-1.26-.35-1.66-.44,2.27-1.08,4.05-2.65,5.31-4.68,1.36-2.2,1.99-4.45,1.88-6.72-.15-2.1-1.14-4.03-2.93-5.73-1.78-1.69-4.32-2.73-7.54-3.08h-.02c-.4-.03-1.33,0-2.83.08-2.95.15-5.45,1.23-7.44,3.2-2,1.98-2.95,4.21-2.82,6.62h0c.11,1.22.53,2.21,1.25,2.95.74.75,1.73,1.1,2.97,1.04h.01c1.4-.12,2.42-.59,3.03-1.42.59-.8.87-1.71.83-2.7.06-.63-.05-1.12-.33-1.47-.21-.26-.38-.55-.51-.86-.18-.41-.47-.7-.85-.84-.27-.1-.51-.22-.71-.37-.26-.19-.53-.3-.79-.34-.05,0-.09-.01-.14-.02l.29-.35c.41-.49,1.16-1,2.23-1.5,1.08-.5,2.29-.79,3.59-.86.99-.05,1.95.18,2.86.7,1.42.79,2.2,2.36,2.32,4.64l.03.51c.16,3.09-.3,5.45-1.36,7.01-1.05,1.55-2.26,2.47-3.61,2.74-1.24.27-2.45.44-3.62.5-.55.03-.8.53-.75,1.5.04.81.15,1.05.24,1.18l.04.05.33.2,2.76-.08c1.89-.06,3.16.02,3.77.22,2.64,1.16,4.08,3.71,4.28,7.58l.07,1.27c.14,2.82-.1,4.94-.72,6.32-1.03,2.21-2.61,3.34-4.83,3.45-2.8.14-5.28-.55-7.38-2.06.06-.02.12-.04.2-.06.24-.06.49-.17.72-.33.21-.14.47-.33.76-.56.32-.25.57-.56.75-.9.16-.32.3-.69.42-1.1.12-.42.16-.88.14-1.38-.06-1.23-.53-2.24-1.39-3.02-.86-.78-1.94-1.14-3.21-1.08h-.01c-1.22.11-2.23.58-3,1.39-.78.82-1.15,1.88-1.08,3.15.15,2.89,1.56,5.24,4.18,6.98,2.6,1.73,5.66,2.51,9.1,2.33,4.09-.21,7.45-1.68,10-4.36,2.55-2.69,3.75-5.78,3.58-9.2-.19-3.78-2.15-6.77-5.81-8.88Z" fill="#575956"/>
    <path d="M95.82,755.31c.06,1.2.52,2.17,1.37,2.87.84.69,1.9,1.01,3.15.95.64-.03,1.37-.2,2.18-.49.86-.32,1.69-1.06,2.54-2.27.84-1.2,1.22-2.74,1.12-4.57h0c-.18-2.35-1.18-4.2-2.97-5.51-1.76-1.29-3.83-1.89-6.14-1.77-3.48.18-6.43,2.11-8.77,5.73-.94-1.36-2.23-2.5-3.85-3.39-1.86-1.03-3.9-1.49-6.08-1.38-4.25.28-7.77,2.21-10.49,5.74-2.68,3.49-4.2,6.58-4.49,9.19v.04s0,.04,0,.04c.02.43.26.84.74,1.27l.14.12,1.44-.07h.03c1.08-.14,1.39-.23,1.53-.28.44-.17.6-.76.68-1.25.66-2.94,1.98-5.41,3.9-7.36,1.91-1.93,4.02-2.97,6.29-3.09,1.04-.05,1.97.22,2.82.84.81.59,1.27,1.66,1.35,3.18.04.69-.05,1.85-.27,3.44-.09.6-.47,2.61-1.13,5.98-.66,3.38-1.34,6.69-2.02,9.82-.67,3.11-1.24,5.16-1.71,6.11-1.33,2.61-3.01,3.98-4.99,4.08h-.05c-.46.08-.97.03-1.5-.16-.43-.15-.79-.28-1.1-.4.15-.07.33-.16.54-.27.71-.37,1.41-1.04,2.13-2.04.73-1.02,1.07-2.19,1-3.49-.14-2.76-1.71-4.15-4.53-4-1.68.09-3.11.81-4.27,2.16-1.15,1.34-1.68,3.05-1.57,5.08v.02c.16,1.83.95,3.54,2.34,5.1,1.43,1.59,3.7,2.32,6.77,2.16l.54-.03c3.15-.16,5.89-2.05,8.15-5.62,2.4,3.39,5.7,5,9.82,4.79,3.76-.19,7.02-1.74,9.71-4.59,2.66-2.82,4.42-6.04,5.22-9.57v-.03c.15-.95.14-1.02.14-1.09-.02-.44-.29-1.16-1.86-1.08l-.36.02h-.03c-1.08.14-1.39.23-1.53.28-.34.13-.56.52-.76,1.33h0c-.61,2.83-1.93,5.28-3.91,7.3-1.96,1.99-4.02,3.06-6.11,3.17-1.05.05-2.01-.22-2.93-.84-.88-.59-1.34-1.63-1.42-3.17-.11-2.17,1.3-10.01,4.19-23.32.88-2.89,2.38-4.87,4.47-5.89.22-.08.66-.19,1.54-.23,1.19-.06,2.11.08,2.75.43-2.65,1.28-3.91,3.3-3.77,6.02Z" fill="#575956"/>
    <path d="M118.48,934.92c.9-1.27,1.31-2.72,1.22-4.33-.19-3.43-2.15-5.14-5.65-4.94-2.08.12-3.86,1.03-5.29,2.71-1.42,1.67-2.06,3.8-1.92,6.31v.02c.21,2.27,1.2,4.39,2.94,6.32,1.78,1.97,4.61,2.86,8.42,2.64l.67-.04c3.91-.22,7.3-2.59,10.09-7.03,3.01,4.19,7.12,6.17,12.22,5.88,4.66-.26,8.71-2.2,12.03-5.76,3.29-3.52,5.45-7.53,6.41-11.92v-.04c.18-1.18.17-1.27.17-1.35-.03-.54-.37-1.43-2.31-1.32l-.45.03h-.04c-1.34.18-1.72.29-1.9.36-.42.17-.7.65-.94,1.65h0c-.74,3.52-2.36,6.57-4.81,9.08-2.43,2.49-4.97,3.83-7.57,3.97-1.3.07-2.49-.26-3.64-1.02-1.1-.73-1.68-2.01-1.79-3.93-.15-2.69,1.55-12.44,5.05-28.99,1.07-3.6,2.93-6.07,5.51-7.34.27-.1.82-.23,1.91-.3,1.48-.08,2.63.09,3.42.51-3.28,1.6-4.84,4.12-4.65,7.5.08,1.49.67,2.69,1.73,3.56,1.05.86,2.36,1.24,3.91,1.16.8-.05,1.71-.26,2.7-.63,1.07-.4,2.1-1.32,3.14-2.83,1.03-1.5,1.49-3.41,1.36-5.68v-.02c-.24-2.9-1.5-5.19-3.73-6.81-2.2-1.59-4.77-2.32-7.64-2.15-4.33.25-7.97,2.66-10.85,7.17-1.18-1.68-2.79-3.09-4.8-4.19-2.31-1.26-4.85-1.82-7.56-1.67-5.27.38-9.64,2.8-12.99,7.2-3.31,4.35-5.17,8.2-5.52,11.44v.05s0,.05,0,.05c.03.53.33,1.05.92,1.57l.17.15,1.79-.1h.04c1.34-.18,1.72-.29,1.9-.36.55-.22.74-.95.84-1.56.8-3.65,2.42-6.73,4.8-9.17,2.36-2.41,4.98-3.72,7.79-3.88,1.29-.07,2.44.26,3.51,1.02,1.02.72,1.58,2.05,1.69,3.94.05.85-.06,2.29-.31,4.27-.1.74-.56,3.24-1.36,7.44-.8,4.2-1.62,8.31-2.44,12.21-.81,3.86-1.51,6.42-2.09,7.59-1.64,3.25-3.71,4.97-6.16,5.1h-.06c-.57.1-1.2.04-1.87-.19-.53-.18-.99-.34-1.37-.49.18-.09.41-.2.67-.34.88-.46,1.75-1.3,2.63-2.55Z" fill="#575956"/>
    <path d="M130.61,433.4c.06.91.42,1.63,1.07,2.15.64.51,1.44.74,2.38.68.48-.03,1.03-.16,1.64-.39.65-.25,1.27-.81,1.89-1.74.62-.91.89-2.08.8-3.45h0c-.16-1.77-.94-3.15-2.3-4.12-1.34-.95-2.91-1.38-4.65-1.27-2.62.17-4.82,1.66-6.55,4.41-.72-1.02-1.71-1.86-2.94-2.52-1.41-.75-2.96-1.08-4.6-.97-3.2.26-5.84,1.75-7.84,4.44-1.99,2.66-3.09,5-3.29,6.97v.03s0,.03,0,.03c.02.32.21.63.57.95l.11.09,1.09-.07h.03c.81-.12,1.04-.19,1.15-.23.33-.13.44-.58.5-.95.47-2.22,1.43-4.1,2.86-5.59,1.42-1.48,3-2.28,4.71-2.4.79-.05,1.48.14,2.14.6.62.43.97,1.23,1.05,2.38.03.52-.02,1.39-.16,2.59-.06.45-.32,1.97-.79,4.52-.46,2.55-.94,5.05-1.41,7.43-.47,2.35-.88,3.9-1.23,4.62-.98,1.98-2.23,3.03-3.71,3.13h-.04c-.35.07-.73.03-1.13-.1-.32-.11-.6-.2-.83-.29.11-.06.24-.12.41-.21.53-.29,1.05-.8,1.59-1.56.54-.77.78-1.66.72-2.64-.14-2.08-1.33-3.11-3.46-2.97-1.26.08-2.34.65-3.19,1.67-.85,1.02-1.23,2.32-1.13,3.84h0c.14,1.39.75,2.67,1.82,3.83,1.09,1.18,2.82,1.71,5.12,1.56l.41-.03c2.37-.16,4.42-1.61,6.09-4.32,1.85,2.53,4.35,3.71,7.45,3.5,2.83-.19,5.28-1.38,7.27-3.56,1.98-2.16,3.27-4.6,3.83-7.27v-.03c.1-.72.1-.77.09-.82-.02-.33-.23-.87-1.41-.79l-.27.02h-.03c-.81.12-1.04.19-1.15.23-.26.1-.42.4-.56,1.01h0c-.43,2.14-1.39,4-2.87,5.54-1.46,1.52-3,2.35-4.57,2.45-.79.05-1.51-.15-2.21-.6-.67-.44-1.03-1.21-1.11-2.37-.11-1.63.87-7.56,2.9-17.62.63-2.19,1.74-3.7,3.31-4.49.16-.06.49-.15,1.16-.19.9-.06,1.59.04,2.08.29-1.98.99-2.91,2.53-2.78,4.58Z" fill="#575956"/>
    <path d="M203.28,432.27l-.08-.03-39.48,2.59-.07.04c-.91.53-1.06,1.23-1.03,1.73l.06.88.24-.02c.19.27.48.52.95.72l.07.03,39.48-2.59.07-.04c.76-.47,1.13-1.06,1.09-1.73s-.48-1.2-1.3-1.57Z" fill="#575956"/>
    <path d="M97.2,469.03c-1.2-1.39-2.43-3.25-3.66-5.54-1.22-2.29-2.35-5.36-3.36-9.15-1.01-3.79-1.68-8.11-1.99-12.85-.31-4.74-.21-9.14.29-13.07.5-3.93,1.25-7.1,2.21-9.44.97-2.35,1.95-4.36,2.91-5.99.97-1.63,1.81-2.88,2.51-3.73,1.07-1.3,1.15-1.54,1.13-1.73-.02-.28-.19-.94-1.35-.86l-1.26.08-.09.07c-.89.76-1.43,1.28-1.65,1.59-.2.28-.89,1.09-2.06,2.42-1.19,1.36-2.09,2.63-2.66,3.78-.56,1.12-1.32,2.7-2.28,4.71-.96,2.02-1.68,4.11-2.14,6.19-.45,2.07-.82,4.56-1.09,7.38-.27,2.83-.3,5.85-.1,8.96.41,6.19,1.79,12.17,4.11,17.78,2.33,5.63,5.8,10.3,10.32,13.87l2.11,1.58,1.21-.08c1.18-.08,1.31-.68,1.29-1.04-.01-.16-.01-.19-1.34-1.56-.82-.84-1.85-1.98-3.06-3.39Z" fill="#575956"/>
    <path d="M64.9,437.71c.06.91.42,1.63,1.07,2.15.64.51,1.44.74,2.38.68.48-.03,1.03-.16,1.64-.39.65-.25,1.27-.81,1.89-1.74.62-.91.89-2.08.8-3.46h0c-.16-1.77-.94-3.15-2.3-4.12-1.34-.95-2.91-1.38-4.65-1.27-2.62.17-4.82,1.66-6.55,4.41-.72-1.02-1.71-1.86-2.94-2.52-1.41-.75-2.96-1.08-4.6-.97-3.2.26-5.84,1.75-7.85,4.44-1.99,2.66-3.09,5-3.29,6.97v.03s0,.03,0,.03c.02.32.21.63.57.95l.11.09,1.09-.07h.03c.81-.12,1.04-.19,1.15-.23.33-.13.44-.58.5-.95.47-2.22,1.43-4.1,2.86-5.59,1.42-1.48,3-2.28,4.71-2.4.79-.05,1.48.14,2.14.6.62.43.97,1.23,1.05,2.38.03.52-.02,1.39-.16,2.59-.06.45-.32,1.97-.79,4.52-.46,2.55-.94,5.05-1.41,7.43-.47,2.35-.88,3.9-1.23,4.62-.98,1.98-2.23,3.03-3.71,3.13h-.04c-.35.07-.73.03-1.13-.1-.32-.11-.6-.2-.83-.29.11-.06.24-.12.41-.21.53-.29,1.05-.8,1.59-1.56.54-.77.78-1.66.72-2.64-.14-2.08-1.33-3.11-3.46-2.97-1.26.08-2.34.65-3.19,1.67-.85,1.02-1.23,2.32-1.13,3.84h0c.14,1.39.75,2.67,1.82,3.83,1.09,1.18,2.82,1.71,5.12,1.56l.41-.03c2.37-.16,4.42-1.61,6.09-4.32,1.85,2.53,4.35,3.71,7.45,3.5,2.83-.19,5.28-1.38,7.27-3.56,1.98-2.16,3.27-4.6,3.83-7.27v-.03c.1-.72.1-.77.09-.82-.02-.33-.23-.87-1.41-.79l-.27.02h-.03c-.81.12-1.04.19-1.15.23-.26.1-.42.4-.56,1.01h0c-.43,2.14-1.39,4-2.87,5.54-1.46,1.52-3,2.35-4.57,2.45-.79.05-1.51-.15-2.21-.6-.67-.44-1.03-1.21-1.11-2.37-.11-1.63.87-7.56,2.9-17.62.63-2.19,1.74-3.7,3.31-4.49.16-.06.49-.15,1.16-.19.9-.06,1.59.04,2.08.29-1.98.99-2.91,2.53-2.78,4.58Z" fill="#575956"/>
    <path d="M253.3,444.16c-1.92.13-3.32.17-4.17.14-1.09-.04-1.44-.11-1.55-.15-.12-.04-.32-.14-.63-.4l-1.39-20.15-1.34-20.4-.14-.09c-.44-.29-.91-.42-1.38-.38-.56.04-.89.16-1.04.38-.49.51-1.08,1.03-1.74,1.56-.66.52-1.87,1.13-3.6,1.82-1.73.69-3.65,1.15-5.72,1.38l-1.62.11.25,3.79,1.62-.11h.02c1.45-.19,2.77-.44,3.94-.74,1.17-.31,2.08-.6,2.71-.87l.42-.19,2.25,34.25c-.08.06-.17.16-.29.29-.14.16-.22.24-.25.27-.08.02-.23.07-.52.17-.29.1-.63.19-1.01.26-.39.07-.94.13-1.65.17l-4.67.31.25,3.79,1.15-.08h.05c.92-.2,4.47-.5,10.56-.9,6.18-.41,9.79-.58,10.72-.5l1.13-.07-.25-3.79-2.1.14Z" fill="#575956"/>
    <path d="M275.58,411.12c-2.33-5.63-5.8-10.3-10.32-13.87l-2.11-1.58-1.66.11-.35.11-.04.03c-.22.15-.47.46-.43,1.07v.14s.11.09.11.09c.02.02.14.14.78.81l.02.02c7.37,6.71,11.57,17.22,12.49,31.22.92,14.01-1.87,24.97-8.3,32.59l-.02.02c-.54.75-.65.88-.67.9l-.12.13.04.17c.07.32.17.55.3.72.17.22.4.33.64.31l1.7-.11.33-.38c.78-.69,1.27-1.15,1.49-1.4.21-.24.89-1.04,2.02-2.38,1.15-1.36,2.02-2.6,2.59-3.7.56-1.08,1.33-2.67,2.28-4.72.96-2.07,1.68-4.15,2.14-6.19.46-2.03.82-4.51,1.09-7.39.26-2.88.3-5.89.1-8.96-.41-6.19-1.79-12.17-4.11-17.78Z" fill="#575956"/>
  </g>
</svg>