<?xml version="1.0" encoding="UTF-8"?>
<svg xmlns="http://www.w3.org/2000/svg" viewBox="0 0 500 500">
  <path d="M240.25,157.74c57.9-5.58,57.81,49.99,56.3,92.03-.86,23.9-5.26,60.36-32.92,67.48-34.65,8.92-67.21-5.38-69.77-43.69-.99-14.78-.22-32.82.56-47.65,1.69-32.48,6.82-64.42,45.83-68.18h0ZM215.42,268.18c13.49-17.26,25.71-35.75,37.1-54.5,5.32-8.75,10.84-17.69,15.12-26.91-.02-2.42-7.04-7.76-9.31-8.88-4.99-2.45-10.96-3.23-16.48-2.67-31.18,3.15-27.79,53.12-27.02,75.09.21,5.96-.07,11.92.58,17.86h.01ZM274.41,207.49c-13.77,29.26-32.23,56.28-54.38,79.81,5.03,15.94,25.46,16.23,38.32,9.91,8.73-4.29,13.42-15.12,14.85-24.29,3.07-19.79,2.29-41.29,2.34-61.17l-1.12-4.26h-.01Z" fill="#84888b"/>
  <path d="M124.64,383.89c6.65-9.24,13.05-18.87,20.21-27.73,4.76-5.89,13.34-17.99,22.18-13.22,4.5,2.43,7.11,9.49,4.02,13.9l-34.98,43.69c.1,1.13,9.96,12.83,11.54,14.57,6.54,7.19,26.45,24.47,27.95,33.31,1.36,8.01-6.66,13.54-13.87,10.47-5.44-2.32-21.77-21.73-26.56-27.33s-9.17-11.29-13.63-17.02l-1.69,1.12-35.5,42.21c-6.16,6.23-16.72-.88-16.91-8.51-.15-6.05,7.62-14.6,11.57-18.95s29.58-28.99,29.6-32.61c-6.03-9.63-14.99-16.69-22.72-24.73-5.75-5.98-21.53-21.64-8.88-28.61,10.67-5.88,18.5,5.15,24.71,12.21,7.52,8.56,14.23,17.93,21.53,26.68l1.42.55h0Z" fill="#84888b" isolation="isolate" opacity=".8"/>
  <path d="M383.14,199.67c6.78-1.55,14.04,5.43,17.64,10.48,26.07,36.49-.67,93.04-23.03,125.38-16.82,24.32-56.28,63.22-88.62,45.26-6.79-3.77-8.02-11.5-1.98-16.75,4.99-4.34,8.59.46,13.1,1.09,21.8,3.03,52.03-29.81,62.86-46.51,14-21.6,38.88-69.29,26.35-94.32-3.03-6.06-6.47-5.93-10.14-9.72-4.27-4.4-1.07-13.79,3.8-14.91h.02Z" fill="#84888b"/>
  <path d="M188.07,94.21c8.13-.72,24.59-.33,28.79,8.3,2.73,5.61-3.04,13.39-9.54,12.37-5.77-.9-7.32-4.46-15.44-3.82-27.52,2.16-58.69,51.15-69.41,74.09-7.9,16.9-18.56,54.82-8.13,71.5,2.62,4.19,9.01,5.74,9.09,11.22.04,2.53-2.39,7.01-4.49,8.48-10.18,7.17-23.02-10.83-26.33-18.97-12.92-31.82,5.07-75.31,22.16-102.61,16.12-25.74,40.49-57.65,73.29-60.57h0Z" fill="#84888b"/>
  <path d="M326.45,40.31c29.07.03,58.14.65,87.23.45,11.42-.08,23.69-1.73,35.13-.59,10.13,1.01,12.48,11.31,8.81,19.58-1.7,3.83-4.07,5.52-8.24,5.94-9.58.96-22.7-.66-32.92-.58-16.15.12-32.54.88-48.78,1.13-12.14.19-27.14,1.9-39.12.59-16.14-1.76-17.2-24.33-2.12-26.51h0Z" fill="#84888b" isolation="isolate" opacity=".8"/>
  <path d="M426.3,101.58c6.41-.07,21.87-1.34,27,1.03,8.11,3.75,7.76,20.04.08,23.21-4.93,2.03-7.9.58-12.48.52-26.34-.31-52.58.71-78.89,1.13-11.02.18-22.96,1.7-34,.58-15.38-1.55-16.53-23.53-1.66-25.47,18.82-2.46,42,2.22,61.19-.64,12.91.37,25.92-.24,38.76-.38v.02Z" fill="#84888b" isolation="isolate" opacity=".8"/>
  <path d="M64.9,209.95c3.79,4.18.11,11.47-5.18,11.76-8.13.43-15.8-11.45-18.04-18.31-8.88-27.15,7.96-62.74,23.29-84.8,12.46-17.93,29.16-37.37,52.6-39.29,6.35-.52,24.13.86,21.56,10.79-2.79,10.75-11.49,2.61-17.69,2.47-22.48-.51-49.18,42.33-57.01,60.66-5.28,12.36-12.86,41.73-4.12,53.1,1.29,1.68,3.44,2.36,4.59,3.63h0Z" fill="#84888b" isolation="isolate" opacity=".6"/>
  <path d="M439.87,260.35c8.48-1.84,16.59,12.3,18.88,18.88,8.04,23.08-1.66,47.28-12.19,67.8-12.47,24.3-39.88,60.26-70.85,56.65-8.07-.94-19.84-8.61-10-16.11,4.2-3.21,5.68.07,9.5.73,14.3,2.45,35.08-17.43,43.23-27.97,13.13-16.98,35.67-59,26.22-80.06-2.26-5.04-4.75-4.82-7.78-8.1-3.58-3.88-1.53-10.84,2.98-11.82h0Z" fill="#84888b" isolation="isolate" opacity=".6"/>
  <path d="M59.88,73.79c4.36-.47,9.25-.33,13.19,1.79,2.88,1.55,4.55,3.39,3.09,6.55-3.26,7.06-8.28.91-13.52,1.18-16.72.85-37.17,34.42-42.04,48.76-2.85,8.37-6.79,26.83-.53,33.95,2.42,2.76,6.07,3.2,2.98,8.19-4.24,6.85-12.67-1.76-15.12-6.26-10.22-18.77,2.31-47.08,13.04-63.31,8.99-13.6,21.55-28.98,38.91-30.85h0Z" fill="#84888b" isolation="isolate" opacity=".35"/>
  <path d="M478.23,313.19c3.49-3.36,9.07,1.41,11.38,4.39,19.54,25.18-10.83,77.43-33.75,92.08-7.92,5.06-19.48,8.94-28.34,4.05-6.04-3.34-3.38-11.34,2.54-10.49,3.98.57,3.42,2.34,8.95.94,14.1-3.59,27.52-21.12,34.21-33.28,6.09-11.07,16.98-34.02,9.46-45.78-2.44-3.82-10.31-6.24-4.45-11.89v-.02Z" fill="#84888b" isolation="isolate" opacity=".35"/>
</svg>