<?xml version="1.0" encoding="UTF-8"?><svg id="a" xmlns="http://www.w3.org/2000/svg" width="515.74" height="513" viewBox="0 0 515.74 513"><path d="M217.47,235.56c13.71,5.03,25.77,18.63,36.39,30.07,10.62,11.45,20.95,24.73,27.33,38.6,6.38,13.87,9.87,29.57,10.92,44.61,1.06,15.04-.76,30.9-4.58,45.61-3.82,14.7-10.27,29.63-18.33,42.62-8.06,12.98-18.17,25.61-30.03,35.28-11.87,9.67-26.63,17.85-41.17,22.73s-30.87,6.52-46.08,6.55c-15.2.04-30.66-1.46-45.16-6.36-14.51-4.9-29.6-13.61-41.86-23.03-12.26-9.41-23.21-20.9-31.68-33.48-8.48-12.59-15.51-27.31-19.16-42.03-3.65-14.73-4.01-30.85-2.72-46.31,1.29-15.45,4.45-32.35,10.45-46.42,6.01-14.08,15.41-26.82,25.59-38.03,10.19-11.21,22.3-21.76,35.54-29.24,13.24-7.47,28.89-13.17,43.9-15.62,15.01-2.44,28.22-3.18,46.16.98,17.95,4.16,49.13,17.44,61.49,23.99,12.36,6.56,13.99,13.19,12.67,15.35M205.65,230.06c14.09,3.34,26.47,14.22,37.9,24.23,11.43,10,22.9,22.47,30.7,35.8,7.79,13.33,13.43,29.22,16.07,44.16,2.64,14.93,1.85,30.19-.21,45.42-2.07,15.24-5.61,32.17-12.18,46-6.58,13.83-15.89,26.53-27.28,36.97-11.39,10.45-27.24,19.23-41.07,25.71-13.84,6.48-26.85,11.25-41.93,13.18-15.09,1.92-33.36,2.03-48.58-1.62-15.23-3.66-30.03-12.13-42.78-20.34-12.75-8.22-24.16-17.22-33.72-28.96-9.57-11.73-18.19-27.13-23.64-41.46-5.45-14.33-8.51-29.26-9.06-44.51-.55-15.25,1.06-32.55,5.75-47,4.7-14.44,13.32-27.63,22.45-39.68,9.12-12.06,19.94-23.76,32.31-32.66,12.38-8.91,26.98-16.31,41.96-20.79,14.97-4.48,32.54-7.22,47.89-6.1,15.34,1.11,37.09,10.23,44.19,12.8,7.1,2.57-.56.38-1.59,2.63" fill="#8c8c8c" opacity=".2"/><path d="M147.34,219.74c14.57-2.4,32.01,2.55,46.64,7.08,14.63,4.53,28.87,11.11,41.16,20.1,12.28,9,23.78,21.27,32.55,33.86,8.76,12.58,16.08,27,20.03,41.65s4.53,31.05,3.69,46.24c-.85,15.19-3.13,30.66-8.74,44.88-5.61,14.21-14.9,28.97-24.93,40.41-10.02,11.44-22.06,20.65-35.24,28.23-13.18,7.58-28.89,14.26-43.85,17.26-14.95,3-30.81,2.75-45.87.75-15.05-2.01-30.74-5.86-44.47-12.79-13.72-6.93-27.17-17.68-37.89-28.79-10.71-11.11-19.79-24.08-26.42-37.87-6.62-13.79-11.48-29.7-13.32-44.86-1.84-15.16-1.21-31.36,2.28-46.1,3.48-14.74,10.44-29.3,18.61-42.34,8.17-13.03,18.66-25.98,30.38-35.88,11.73-9.9,24.02-18.06,39.98-23.53,15.96-5.46,44.46-8.65,55.77-9.28,11.31-.62,12.16,3.16,12.11,5.55M112.71,224.22c13.35-5.78,28.81-4.11,44.01-3.15,15.2.96,32.76,3.5,47.19,8.9,14.43,5.4,27.94,13.7,39.39,23.5,11.45,9.81,21.57,22.27,29.31,35.33,7.73,13.07,13.94,27.9,17.1,43.08,3.17,15.18,3.91,32.74,1.88,48.02-2.02,15.28-7.24,30-14.04,43.65-6.81,13.65-15.9,27.49-26.79,38.24s-24.73,19.57-38.54,26.25c-13.82,6.67-29.36,12.15-44.33,13.79-14.97,1.64-30.84-.88-45.49-3.97-14.66-3.08-29.36-6.82-42.43-14.54-13.07-7.71-26.16-19.72-35.99-31.75-9.83-12.03-17.56-26.01-22.99-40.42-5.44-14.4-8.89-30.62-9.63-45.99-.75-15.38,1.07-31.59,5.17-46.24,4.09-14.66,10.72-29.54,19.42-41.71,8.69-12.16,20.28-22.79,32.75-31.29,12.47-8.5,34.92-16.68,42.09-19.71,7.16-3.03.35-.75.9,1.53" fill="none" stroke="#8c8c8c" stroke-linecap="round" stroke-width="4"/><path d="M503.29,422.07h0M503.29,422.07h0M469.8,388.02c10.29,26.37,24.97,51.65,32.48,69.82M469.8,388.02c8.37,18.72,17.78,38.26,32.48,69.82M449.39,382.08c15.9,28.45,28.2,58.15,44.3,95.21M449.39,382.08c15.16,29.4,27.74,60.1,44.3,95.21M431.08,380.67c13.17,28.59,25.94,53.44,50.2,107.89M431.08,380.67c17.57,37.69,35.05,76.58,50.2,107.89M417,388.32c12.78,20.52,21.7,43.04,51.04,109.71M417,388.32c18.6,37.09,34.72,74.2,51.04,109.71M403.33,396.89c13.28,31.46,27.95,62.11,48.51,104.27M403.33,396.89c14.14,27.15,26.97,53.6,48.51,104.27M392.2,410.89c17.74,34.72,31.27,71.56,41.77,89.76M392.2,410.89c11.87,25.98,23.57,50.17,41.77,89.76M384.44,432.15c5.07,12.83,13.48,28.75,29.11,62.56M384.44,432.15c12.17,23.72,22.56,49.15,29.11,62.56" fill="none" stroke="#8c8c8c" stroke-linecap="round" stroke-miterlimit="4" stroke-width="2"/><path d="M493.48,478.18c-4.79,7.73-14.11,15.33-22.69,19.52-8.58,4.18-19.23,6.16-28.77,5.58-9.55-.58-20.15-4.13-28.5-9.06-8.35-4.94-16.52-12.56-21.64-20.58-5.13-8.02-8.48-18.07-9.12-27.53-.64-9.46,1.56-20.67,5.3-29.24,3.73-8.56,9.76-16.12,17.13-22.16,7.37-6.04,17.73-12.12,27.08-14.09,9.36-1.98,19.96-.42,29.06,2.25,9.09,2.65,18.53,7.23,25.5,13.7,6.97,6.47,13.22,15.96,16.3,25.14,3.08,9.17,4.4,19.61,2.18,29.91-2.22,10.29-11.91,25.82-15.47,31.89-3.56,6.08-5.07,5.1-5.86,4.56M497.14,472.29c-4.06,7.95-13.67,15.7-21.92,20.86-8.25,5.17-18.42,9.49-27.56,10.11-9.14.63-18.71-2.3-27.25-6.34-8.56-4.03-18.27-10.53-24.09-17.87-5.81-7.33-9.18-17.18-10.77-26.16-1.6-8.98-1.64-18.56,1.19-27.74,2.83-9.18,9.14-20.58,15.81-27.37,6.67-6.79,15.49-10.36,24.16-13.38,8.68-3.01,18.96-6.25,27.91-4.75,8.95,1.5,18.21,7.41,25.79,13.72,7.58,6.31,15.31,15.63,19.69,24.12,4.38,8.49,6.87,17.51,6.58,26.83-.3,9.33-6.53,24.58-8.37,29.13-1.83,4.54-1.38-1.16-2.62-1.85" fill="none" stroke="#8c8c8c" stroke-linecap="round" stroke-miterlimit="4" stroke-width="4"/><path d="M361.18,37.21h0M361.18,37.21h0M343.08,82.42c21.81-25.7,43.8-52.8,59.04-67.92M343.08,82.42c17.61-20.02,33.27-39.52,59.04-67.92M344,105.75c25.72-29.22,52.16-58.18,82.01-94.34M344,105.75c23.92-28.45,48.01-55.35,82.01-94.34M349.52,123.79c34.62-44.38,75.14-85.35,95.12-109.43M349.52,123.79c22.83-23.77,42.39-49.38,95.12-109.43M358.97,137.31c29.43-34.03,60.16-68.14,101.69-116.98M358.97,137.31c31.27-37.36,63.93-72.35,101.69-116.98M369.73,149.32c37.97-40.5,71.73-84.8,104.31-120M369.73,149.32c27.73-31.76,54.42-62.65,104.31-120M383.77,157.55c23.06-27.28,48.99-57.3,101.69-116.98M383.77,157.55c29.01-32.07,56.69-64.61,101.69-116.98M399.79,163.52c29.97-32.98,61.27-69.49,93.81-107.92M399.79,163.52c35.42-42.7,70.79-84.33,93.81-107.92M418.42,166.47c29.8-36.62,59.99-70.69,81.35-93.59M418.42,166.47c21.35-23.91,42.61-48.34,81.35-93.59M439.68,166.4c13.06-14.81,28.36-30.29,62.98-72.45M439.68,166.4c22.43-25.64,44.48-49.95,62.98-72.45M374.4,153.97h0M374.4,153.97h0M412.82,166.17c-14.04-12.34-26.82-22.8-68.68-59.7M412.82,166.17c-22.01-20.3-44.93-39.19-68.68-59.7M436.9,165.9c-28.76-27.11-58.98-50.73-94.34-82M436.9,165.9c-36.27-30.97-70.75-61.75-94.34-82M454.19,159.73c-35.83-31.62-73.7-63.41-109.43-95.13M454.19,159.73c-29.31-26.07-59.41-51.33-109.43-95.13M469.97,152.25c-36.09-33.64-74.83-66.43-116.98-101.69M469.97,152.25c-34.96-31.02-68.94-59.53-116.98-101.69M481.22,140.83c-48.32-38.47-94.78-82.45-119.99-104.31M481.22,140.83c-25.41-23.74-50.87-44.68-119.99-104.31M492.48,129.41c-36.8-33.89-71.61-65.65-117.74-102.34M492.48,129.41c-25.61-21.76-49.38-43.29-117.74-102.34M498.44,113.4c-36.72-30.73-71.83-62.6-110.18-95.79M498.44,113.4c-32.94-26.57-64.49-54.11-110.18-95.79M503.66,96.73c-27.54-22.52-50.7-44.42-96.6-83.97M503.66,96.73c-23.05-20.36-47.66-41.99-96.6-83.97M500.57,72.85c-27.18-24.02-52.42-47.76-70.94-61.67M500.57,72.85c-27.56-24.35-57.35-50.56-70.94-61.67M484.65,37.81c-2.27-1.34-3.93-2.13-6.79-5.91M484.65,37.81c-1.42-1.23-2.92-2.95-6.79-5.91" fill="none" stroke="#8c8c8c" stroke-linecap="round" stroke-width="2"/><path d="M420.04,10.13c10.41-1.59,24.03,1.35,34.34,5.48,10.32,4.12,20.18,11.11,27.56,19.26,7.39,8.15,13.24,19.41,16.76,29.62,3.52,10.21,5.25,20.9,4.38,31.63-.87,10.72-4.15,23.3-9.58,32.7-5.43,9.4-14,17.44-22.99,23.72-9,6.27-20.27,11.64-30.98,13.93-10.72,2.3-22.49,1.91-33.32-.15-10.82-2.06-22.6-6.28-31.64-12.2s-17.05-14.17-22.61-23.34c-5.56-9.17-9.41-20.8-10.75-31.66-1.33-10.86-.6-23.14,2.76-33.51,3.37-10.36,10.05-20.64,17.44-28.66,7.39-8.02,16.05-14.97,26.92-19.46,10.86-4.49,30.83-6.67,38.27-7.46,7.43-.79,6.34,1.48,6.33,2.73M459.58,18.98c9.78,3.49,18.56,11.22,25.18,19.35,6.63,8.13,11.58,18.84,14.58,29.43,2.99,10.59,4.92,23.14,3.39,34.1-1.54,10.97-6.35,22.58-12.6,31.71-6.24,9.12-15.88,17.54-24.87,23.04-9,5.49-18.26,8.37-29.08,9.92-10.82,1.56-24.78,2.19-35.85-.59-11.07-2.77-22.15-9.29-30.57-16.06-8.42-6.77-15.06-15.04-19.95-24.54-4.88-9.5-8.61-21.97-9.35-32.47-.75-10.5.83-20.73,4.86-30.53,4.04-9.8,11.37-20.28,19.34-28.28,7.98-8,18.33-15.5,28.53-19.73,10.2-4.24,21.64-6.59,32.66-5.68,11.03.91,27.93,9.36,33.51,11.12,5.57,1.77.71-1.68-.04-.52" fill="none" stroke="#8c8c8c" stroke-linecap="round" stroke-width="4"/><path d="M37.75,34.33h0M37.75,34.33h0M32.12,65.2c9.64-8.51,15.87-19.89,33.46-38.49M32.12,65.2c12.32-14.51,25.18-29.8,33.46-38.49M28.45,93.81c13.26-16.3,24.91-30.02,57.73-66.41M28.45,93.81c11.02-12.93,23.08-27.85,57.73-66.41M30.68,115.63c25.79-29.87,49.51-59.53,70.2-80.76M30.68,115.63c24.87-28.29,50.78-58.24,70.2-80.76M42.76,126.12c21.84-24.73,44.5-52.54,73.48-84.52M42.76,126.12c20-23.35,40.52-46.96,73.48-84.52M54.83,136.62c28.63-29.68,52.78-62.2,70.86-81.51M54.83,136.62c19.52-20.56,36.36-41.51,70.86-81.51M73.47,139.57c22.72-27.46,46.81-54.71,61.67-70.94M73.47,139.57c19.01-23.11,38.43-44.45,61.67-70.94M99.98,133.46c10.56-13.01,24.5-27.5,34.77-40M99.98,133.46c7.23-7.74,15.42-16.41,34.77-40" fill="none" stroke="#8c8c8c" stroke-linecap="round" stroke-width="2"/><path d="M61.89,23.5c7.94-2.36,18.97-1.69,27.65.91,8.69,2.59,17.95,8.33,24.45,14.68,6.51,6.35,12,15.17,14.6,23.41,2.61,8.25,2.62,17.51,1.02,26.04-1.6,8.52-5.27,17.9-10.61,25.12-5.34,7.21-13.33,14.4-21.43,18.17-8.1,3.78-18.37,5.13-27.17,4.49-8.8-.63-18.03-3.94-25.63-8.28-7.61-4.35-15.37-10.4-20.02-17.78-4.64-7.38-7.25-17.49-7.83-26.52-.57-9.02.87-19.34,4.38-27.62,3.52-8.28,8.92-16.64,16.7-22.07,7.77-5.43,24.28-8.58,29.97-10.51,5.68-1.92,4.27-1.73,4.15-1.05M67.16,23.15c8.15-2.28,17.47-1.69,25.56,1.17,8.1,2.86,17.21,9.25,23.01,16.01,5.81,6.76,9.57,15.73,11.84,24.55,2.27,8.82,3.58,19.58,1.79,28.35-1.78,8.76-6.47,17.69-12.5,24.24-6.03,6.55-15.42,11.73-23.67,15.07-8.25,3.35-17.27,6.07-25.83,4.99-8.56-1.08-18.01-6.46-25.52-11.45-7.5-4.99-15.39-11.03-19.52-18.49-4.14-7.46-5.4-17.22-5.28-26.26.13-9.04,1.94-20.04,6.04-27.98,4.1-7.93,11.47-14.59,18.56-19.63,7.09-5.04,19.89-8.91,23.97-10.62,4.08-1.71.25-.46.52.37" fill="none" stroke="#8c8c8c" stroke-linecap="round" stroke-width="4"/><path d="M255.47,255.94c18.02-16.97,90.44-83.91,108.51-100.97M257.41,254.94c17.93-17.38,88.28-84.9,105.95-101.63" fill="none" stroke="#8c8c8c" stroke-linecap="round" stroke-width="4"/><path d="M352.27,175.72c3.18-5.42,7.71-12.07,11.09-22.41M352.27,175.72c2.93-5.7,5.31-11.36,11.09-22.41" fill="none" stroke="#8c8c8c" stroke-linecap="round" stroke-width="4"/><path d="M340.46,163.35c6.7-1.79,14.65-4.86,22.9-10.04M340.46,163.35c6.07-2.65,11.45-5.14,22.9-10.04" fill="none" stroke="#8c8c8c" stroke-linecap="round" stroke-width="4"/><path d="M294.78,400.42c14.05,3.77,68.82,19.93,82.95,24M293.75,402.74c14.48,3.34,72.03,16.46,86.31,19.82" fill="none" stroke="#8c8c8c" stroke-linecap="round" stroke-width="4"/><path d="M355.24,425.6c5.44-2.16,13.56.15,24.82-3.04M355.24,425.6c9.37-.53,18.39-1.55,24.82-3.04" fill="none" stroke="#8c8c8c" stroke-linecap="round" stroke-width="4"/><path d="M359.1,408.94c4.57,2.14,11.69,8.73,20.96,13.62M359.1,408.94c7.89,5.75,15.46,10.99,20.96,13.62" fill="none" stroke="#8c8c8c" stroke-linecap="round" stroke-width="4"/><path d="M114.43,218.07c-4.51-12.31-21.85-62.7-25.95-75.26M116.23,217.58c-4.19-12.59-21.12-63.51-25.62-76.29" fill="none" stroke="#8c8c8c" stroke-linecap="round" stroke-width="4"/><path d="M106.28,160.77c-3.35-8.38-8.36-12.53-15.67-19.48M106.28,160.77c-5.28-7.34-11.73-15.52-15.67-19.48" fill="none" stroke="#8c8c8c" stroke-linecap="round" stroke-width="4"/><path d="M90.09,166.28c2-10.09,2.33-16.06.52-24.99M90.09,166.28c1.02-9.35.81-19.66.52-24.99" fill="none" stroke="#8c8c8c" stroke-linecap="round" stroke-width="4"/><path d="M89.69,392.77c-.03-4.36,1.83-9.73,5.61-16.11,3.77-6.38,9.13-10.23,16.07-11.54,3.53-.62,6.92-.27,10.16,1.03s5.81,3.2,7.7,5.67c3.13-7.1,7.67-11.17,13.62-12.21,3.73-.65,7.16-.11,10.27,1.64s5.05,4.47,5.8,8.19c.51,2.93.22,5.42-.88,7.48-1.09,2.06-2.26,3.41-3.5,4.04s-2.37,1.04-3.37,1.21c-1.92.34-3.58.05-4.98-.84s-2.27-2.26-2.58-4.07c-.81-4.64,1.16-8.26,5.9-10.86-1.34-1.12-3.47-1.42-6.4-.91-1.31.23-2.25.5-2.82.81-3.55,2.28-5.79,6.11-6.73,11.47-2.15,23.36-2.91,36.9-2.25,40.63.49,2.82,1.65,4.7,3.48,5.63s3.7,1.23,5.61.89c3.73-.65,7.12-2.96,10.17-6.93,3.05-3.96,4.81-8.48,5.27-13.55.13-1.06.33-1.67.62-1.82s1.07-.4,2.37-.73l.61-.11c1.51-.26,2.34,0,2.48.81.02.1.01.67-.01,1.72-.61,6.03-2.85,11.67-6.71,16.93-3.86,5.25-8.87,8.41-15.03,9.49-7.06,1.23-12.97-1.01-17.71-6.73-3.04,6.98-7.24,10.94-12.59,11.87l-.91.16c-4.94.86-8.7.17-11.28-2.08-2.58-2.25-4.17-4.83-4.78-7.74-.56-3.23-.06-6.02,1.5-8.37,1.56-2.35,3.66-3.76,6.28-4.22,4.34-.76,6.88.98,7.62,5.22.35,2.02.06,3.89-.89,5.61s-1.93,2.94-2.95,3.64-1.63,1.07-1.84,1.1l-.43.23c.02.1.36.25,1.01.45s1.53.41,2.61.64,2.06.21,2.95-.05c3.63-.64,6.36-3.45,8.19-8.45.63-1.77,1.19-5.41,1.68-10.9.5-5.49.96-11.19,1.38-17.09.42-5.9.65-9.37.67-10.41.03-2.81-.06-4.82-.28-6.03-.49-2.82-1.6-4.71-3.33-5.66s-3.55-1.25-5.46-.92c-4.04.71-7.54,2.98-10.5,6.83-2.97,3.85-4.72,8.41-5.25,13.71-.04.94-.21,1.49-.49,1.65s-1.07.4-2.37.73l-2.12.37c-.71-.5-1.11-1-1.2-1.51ZM169.52,312.28c-1.93.34-3.57-.04-4.94-1.12-1.37-1.08-2.21-2.55-2.54-4.41-.89-5.07.24-9.78,3.37-14.15,3.13-4.37,7.52-7.05,13.15-8.03,6.49-1.14,12.26-.09,17.31,3.15,5.05,3.23,8.17,8.02,9.35,14.36.54,3.07.33,6.12-.61,9.15s-2.23,5.76-3.86,8.17-4.03,5.56-7.18,9.42c-2.18,2.66-5.17,6.57-8.98,11.72l-5.27,7.1,8.15-1.32c11.2-1.96,17.13-3.18,17.78-3.66.47-.23.78-3.55.9-9.97l-.06-.32,4.28-.75.06.32c-.03.23.07,3.55.31,9.98.24,6.43.28,9.8.12,10.13l.06.32-39.7,6.94-.36-2.03-.22-1.28c-.09-.5.03-1.07.36-1.72s1.18-2.08,2.56-4.31c1.67-2.64,3.1-4.95,4.3-6.93.52-.83,1.5-2.36,2.95-4.6s2.43-3.77,2.95-4.6,1.35-2.18,2.49-4.07c1.14-1.89,1.93-3.28,2.36-4.16.43-.88,1.07-2.1,1.9-3.64s1.38-2.82,1.65-3.82.62-2.13,1.06-3.38.71-2.48.79-3.67.15-2.31.19-3.34-.06-2.23-.3-3.59c-.79-4.49-2.68-8.17-5.68-11.03-3-2.86-6.75-3.89-11.24-3.11-2.35.41-4.32,1.38-5.89,2.9s-2.61,2.92-3.13,4.19-.75,2.01-.71,2.22c.01.07.2.08.55.01,1.28-.22,2.69.04,4.22.81s2.49,2.28,2.89,4.57c.31,1.78,0,3.38-.93,4.79s-2.42,2.34-4.48,2.77Z" fill="#8c8c8c" stroke="#8c8c8c" stroke-miterlimit="4" stroke-width="3"/></svg>