<?xml version="1.0" encoding="UTF-8"?>
<svg id="a" data-name="Слой 1" xmlns="http://www.w3.org/2000/svg" width="826.76" height="353.25" viewBox="0 0 826.76 353.25">
  <path d="M695.09,56.49c14.32,7,28.37,14.94,42.52,22.41,15.22,8.03,30.56,15.83,45.73,23.94,6.28,3.36,14.58,7.14,20.32,10.97.44.3.84.6,1.2,1l.26,7.36c-.93,20.04-.83,40.05-1.92,60.13-.07,1.25-.21,3.19-.66,4.24-36.32,19.65-73.25,38.25-110.28,56.56-23.78,11.75-47.64,23.42-71.58,34.84-5.3,2.53-10.61,5.12-16.03,7.37-38.37-25.97-75.49-53.79-112-82.29-.35-.61-.49-2.23-.54-3-1.39-22.26,1.08-45.93,0-68.34.53-1.31-.13-5.15.68-5.86,67.26-23.61,134.84-46.32,202.3-69.33ZM693.8,60.52c-16.96,4.8-34.65,12.01-51.45,17.82-48.25,16.67-96.54,33.26-145.05,49.14,18.74,13.64,37.79,26.86,56.88,40,1.01.69,2.14,1.68,3.27,2.45,6.84,4.7,13.8,9.25,20.68,13.88,8.3,5.59,16.42,11.24,24.78,16.74l.87.1c44.68-19.64,89.33-39.35,134.11-58.75,1.18-.51,2.45-1.16,3.54-1.63,18.51-8.01,37.13-15.78,55.71-23.63l2.81-1.41c-33.92-17.28-67.41-35.39-100.97-53.35-1.5-.8-2.46-2.3-4.5-1.9-.55.11-.63.53-.67.54ZM801.58,118.77l-196.23,85.86.55,75.53,193.46-96.12,2.22-65.27ZM600.12,203.73c-35.7-23.27-70.33-48.14-104.72-73.27-.15,2.21.12,4.43.17,6.62.46,18.97.49,38.19.11,57.21-.04,2.18-.67,4.66-.14,6.93,34.54,25.75,68.88,51.87,104.28,76.43.38.26.98.79,1.45.73l-1.15-74.65Z" fill="#1c61b0"/>
  <polygon points="801.58 118.77 799.36 184.04 605.89 280.16 605.34 204.63 801.58 118.77" fill="#aacbf0"/>
  <path d="M693.8,60.52c.34.1.6.75.82.82-.25,1.42-.54,3.92-.27,5.31.13.69.48.72,1.09.68-.07.12,0,2.37-.27,2.72-.04.04-.52,0-.68.26-.25.38-.2,4.79-.13,5.61s-.13.7.82.67c-.08.11-.07,2.61,0,2.72-.61-.04-.96-.01-1.09.68s-.12,4.23,0,4.91c.1.55.53.63.54.67.14.7.07,1.63.27,2.45-.3.11-1.02.11-1.1.45-.18.76-.07,4.42.01,5.41.07.84-.13.7.82.67-.08.11-.06,2.51,0,2.72l-1.09.68c.23,1.84-.61,3.93-.27,5.72.13.69.48.72,1.09.68-.22.28-.41,2.53-.27,2.72-.41.21-.77.08-.84.67-.19,1.72.18,3.82.02,5.59-46.41,17.91-92.8,35.9-139.08,54.16-19.09-13.15-38.14-26.37-56.88-40,48.51-15.88,96.8-32.47,145.05-49.14,16.8-5.81,34.49-13.01,51.45-17.82Z" fill="#aacbf0"/>
  <path d="M600.12,203.73l1.15,74.65c-.46.06-1.07-.47-1.45-.73-35.41-24.56-69.75-50.68-104.28-76.43-.52-2.26.1-4.75.14-6.93.38-19.02.35-38.25-.11-57.21-.05-2.19-.32-4.41-.17-6.62,34.4,25.13,69.02,49.99,104.72,73.27Z" fill="#e7f1fb"/>
  <path d="M737.89,141.9c-44.78,19.39-89.43,39.11-134.11,58.75l-.87-.1c-8.37-5.5-16.48-11.15-24.78-16.74l130.37-58.79c8.76,5.05,17.83,9.79,26.58,14.92.95.56,2.09,1.12,2.81,1.95Z" fill="#fdd675"/>
  <path d="M698.97,61.88c33.56,17.95,67.05,36.07,100.97,53.35l-2.81,1.41c-18.58,7.85-37.2,15.62-55.71,23.63-4.6-3.11-9.6-5.68-14.42-8.44l-28.03-69.95Z" fill="#e7f1fb"/>
  <path d="M725.62,134.53l-134.04,58.42c-6.88-4.63-27.29-18.32-34.13-23.01-.16-.72.38-.52.79-.69,1.16-.48,2.32-.97,3.49-1.42,44-16.97,87.97-33.99,131.79-51.41l.8.03c4.56,2.72,9.13,5.42,13.73,8.07.24.14,17.49,9.96,17.56,10Z" fill="#f7c258"/>
  <path d="M698.97,61.88l28.03,69.95c-10.72-6.13-21.43-12.32-32.12-18.51-.22-1.28.41-5.34-.28-6.12-.12-.14-.51-.09-.54-.14-.13-.19.05-2.44.27-2.72.1-.13.68-.16.77-.31.15-.27.15-5.51.05-6.09s-.53-.63-.54-.67c-.06-.21-.08-2.61,0-2.72.02-.04.52-.01.68-.26.2-.31.25-4.98.13-5.6-.1-.56-.53-.63-.54-.67-.2-.82-.13-1.75-.27-2.45.3-.11,1.02-.11,1.1-.45.09-.37.08-5.29,0-5.63-.08-.29-.53-.15-.55-.18-.07-.11-.08-2.61,0-2.72.02-.04.52-.01.68-.26.25-.38.2-4.79.13-5.61s.13-.7-.82-.67c.28-.35.2-2.61.27-2.72.02-.03.38.08.49-.04.48-.51.49-5.53.07-5.83-.38-.27-1.05-.02-1.38-.12-.22-.07-.48-.72-.82-.82.04-.01.12-.43.67-.54,2.04-.39,3,1.1,4.5,1.9Z" fill="#c9def4"/>
  <path d="M693.26,113.32h1.63c10.69,6.19,21.39,12.38,32.12,18.51,4.83,2.76,9.82,5.32,14.42,8.44-1.09.47-2.36,1.12-3.54,1.63-.72-.83-1.86-1.4-2.81-1.95-8.76-5.13-17.82-9.87-26.58-14.92-.08-.04-.2-.36-.44-.5-4.6-2.65-9.17-5.35-13.73-8.07l-.8-.03c-43.82,17.42-87.79,34.44-131.79,51.41-1.17.45-2.33.94-3.49,1.42-.42.17-.95-.03-.79.69-1.13-.77-2.26-1.76-3.27-2.45,46.27-18.26,92.67-36.25,139.08-54.16Z" fill="#d07a0c"/>
  <path d="M694.62,97.26s.44.12.54.67.1,5.83-.05,6.09c-.09.15-.67.18-.77.31-.61.04-.96.01-1.09-.68-.34-1.79.5-3.88.27-5.72l1.09-.68Z" fill="#1c61b0"/>
  <path d="M694.62,61.34c.33.1.99-.15,1.38.12.43.3.41,5.32-.07,5.83-.12.12-.47,0-.49.04-.61.04-.96.01-1.09-.68-.26-1.38.02-3.89.27-5.31Z" fill="#1c61b0"/>
  <path d="M695.16,70.05c.95-.03.75-.17.82.67s.11,5.22-.13,5.61c-.16.25-.66.22-.68.26-.95.03-.75.17-.82-.67s-.11-5.22.13-5.61c.16-.25.65-.21.68-.26Z" fill="#1c61b0"/>
  <path d="M694.89,88.01s.44.12.54.67c.12.62.07,5.29-.13,5.6-.16.25-.66.22-.68.26-.95.03-.75.17-.82-.67-.08-.99-.19-4.65-.01-5.41.08-.34.8-.34,1.1-.45Z" fill="#1c61b0"/>
  <path d="M694.89,113.32h-1.63c.16-1.77-.21-3.87-.02-5.59.07-.59.43-.46.84-.67.03.05.42,0,.54.14.69.77.06,4.84.28,6.12Z" fill="#1c61b0"/>
  <path d="M695.16,79.3s.47-.11.55.18c.09.33.1,5.26,0,5.63-.08.34-.8.34-1.1.45,0-.04-.44-.12-.54-.67-.13-.67-.13-4.24,0-4.91s.48-.72,1.09-.68Z" fill="#1c61b0"/>
  <g>
    <path d="M303.05,224.25h47.06v47.06h-47.06" fill="#e9ecef" opacity=".3"/>
    <path d="M303.05,224.25h47.06M350.11,224.25v47.06M350.11,271.31h-47.06M303.05,271.31v-47.06" fill="none" stroke="#868e96" stroke-dasharray="1.5 8" stroke-linecap="round" stroke-width="2.5"/>
  </g>
  <g>
    <path d="M303.51,76.24h47.06v47.06h-47.06" fill="#e9ecef" opacity=".3"/>
    <path d="M303.51,76.24h47.06M350.57,76.24v47.06M350.57,123.3h-47.06M303.51,123.3v-47.06" fill="none" stroke="#868e96" stroke-dasharray="1.5 8" stroke-linecap="round" stroke-width="2.5"/>
  </g>
  <g>
    <path d="M74.49,224.71h47.06v47.06h-47.06" fill="#e9ecef" opacity=".3"/>
    <path d="M74.49,224.71h47.06M121.55,224.71v47.06M121.55,271.77h-47.06M74.49,271.77v-47.06" fill="none" stroke="#868e96" stroke-dasharray="1.5 8" stroke-linecap="round" stroke-width="2.5"/>
  </g>
  <g>
    <path d="M75.19,76.04h47.06v47.06h-47.06" fill="#e9ecef" opacity=".3"/>
    <path d="M75.19,76.04h47.06M122.25,76.04v47.06M122.25,123.1h-47.06M75.19,123.1v-47.06" fill="none" stroke="#868e96" stroke-dasharray="1.5 8" stroke-linecap="round" stroke-width="2.5"/>
  </g>
  <g>
    <path d="M121.9,76.12h181.51v47.06H121.9" fill="#b7d2f0"/>
    <path d="M121.9,76.12h181.51M121.9,76.12h181.51M303.41,76.12v47.06M303.41,76.12v47.06M303.41,123.18H121.9M303.41,123.18H121.9M121.9,123.18v-47.06M121.9,123.18v-47.06" fill="none" stroke="#1971c2" stroke-linecap="round" stroke-width="2"/>
  </g>
  <g>
    <path d="M121.91,122.99v101.03h-47.06v-101.03" fill="#b7d2f0"/>
    <path d="M121.91,122.99v101.03M121.91,122.99v101.03M121.91,224.02h-47.06M121.91,224.02h-47.06M74.85,224.02v-101.03M74.85,224.02v-101.03M74.85,122.99h47.06M74.85,122.99h47.06" fill="none" stroke="#1971c2" stroke-linecap="round" stroke-width="2"/>
  </g>
  <g>
    <path d="M350.34,123.14v101.03h-47.06v-101.03" fill="#b7d2f0"/>
    <path d="M350.34,123.14v101.03M350.34,123.14v101.03M350.34,224.17h-47.06M350.34,224.17h-47.06M303.28,224.17v-101.03M303.28,224.17v-101.03M303.28,123.14h47.06M303.28,123.14h47.06" fill="none" stroke="#1971c2" stroke-linecap="round" stroke-width="2"/>
  </g>
  <g>
    <path d="M121.66,224.18h181.51v47.06H121.66" fill="#b7d2f0"/>
    <path d="M121.66,224.18h181.51M121.66,224.18h181.51M303.17,224.18v47.06M303.17,224.18v47.06M303.17,271.24H121.66M303.17,271.24H121.66M121.66,271.24v-47.06M121.66,271.24v-47.06" fill="none" stroke="#1971c2" stroke-linecap="round" stroke-width="2"/>
  </g>
  <g>
    <path d="M121.89,123.2h181.51v101.38H121.89" fill="#ffec99"/>
    <path d="M121.89,123.2h181.51M121.89,123.2h181.51M303.4,123.2v101.38M303.4,123.2v101.38M303.4,224.58H121.89M303.4,224.58H121.89M121.89,224.58v-101.38M121.89,224.58v-101.38" fill="none" stroke="#f08c00" stroke-linecap="round" stroke-width="2"/>
  </g>
  <g>
    <path d="M365.25,160.31c5.95,1,29.81,2.76,35.68,5.98,5.87,3.23,5.71,10.09-.46,13.35-6.18,3.27-30.5,5.18-36.6,6.22M365.25,160.31c5.95,1,29.81,2.76,35.68,5.98,5.87,3.23,5.71,10.09-.46,13.35-6.18,3.27-30.5,5.18-36.6,6.22" fill="none" stroke="#1971c2" stroke-linecap="round" stroke-width="4"/>
    <path d="M380.38,177.39c-6.51,3.34-13.03,6.68-16.51,8.47M380.38,177.39c-4.35,2.23-8.71,4.47-16.51,8.47" fill="none" stroke="#1971c2" stroke-linecap="round" stroke-width="4"/>
    <path d="M381.96,189.99c-7.14-1.63-14.28-3.26-18.09-4.13M381.96,189.99c-4.77-1.09-9.54-2.18-18.09-4.13" fill="none" stroke="#1971c2" stroke-linecap="round" stroke-width="4"/>
  </g>
  <g>
    <path d="M58.15,158.12c-5.95,1-29.81,2.76-35.68,5.98-5.87,3.23-5.71,10.09.46,13.35,6.18,3.27,30.5,5.18,36.6,6.22M58.15,158.12c-5.95,1-29.81,2.76-35.68,5.98-5.87,3.23-5.71,10.09.46,13.35,6.18,3.27,30.5,5.18,36.6,6.22" fill="none" stroke="#1971c2" stroke-linecap="round" stroke-width="4"/>
    <path d="M41.44,187.8c4.31-.99,8.62-1.97,18.09-4.13M41.44,187.8c4.28-.98,8.56-1.96,18.09-4.13" fill="none" stroke="#1971c2" stroke-linecap="round" stroke-width="4"/>
    <path d="M43.02,175.2c3.93,2.02,7.87,4.04,16.51,8.47M43.02,175.2c3.9,2,7.81,4.01,16.51,8.47" fill="none" stroke="#1971c2" stroke-linecap="round" stroke-width="4"/>
  </g>
  <g>
    <path d="M197.8,59.91c1-5.95,2.76-29.81,5.98-35.68,3.23-5.87,10.09-5.71,13.35.46,3.27,6.18,5.18,30.5,6.22,36.6M197.8,59.91c1-5.95,2.76-29.81,5.98-35.68,3.23-5.87,10.09-5.71,13.35.46,3.27,6.18,5.18,30.5,6.22,36.6" fill="none" stroke="#1971c2" stroke-linecap="round" stroke-width="4"/>
    <path d="M214.88,44.78c1.98,3.85,3.96,7.71,8.47,16.51M214.88,44.78c2.61,5.08,5.21,10.16,8.47,16.51" fill="none" stroke="#1971c2" stroke-linecap="round" stroke-width="4"/>
    <path d="M227.48,43.2c-.97,4.22-1.93,8.45-4.13,18.09M227.48,43.2c-1.27,5.56-2.54,11.13-4.13,18.09" fill="none" stroke="#1971c2" stroke-linecap="round" stroke-width="4"/>
  </g>
  <g>
    <path d="M196.18,288.33c1,5.95,2.76,29.81,5.98,35.68,3.23,5.87,10.09,5.71,13.35-.46,3.27-6.18,5.18-30.5,6.22-36.6M196.18,288.33c1,5.95,2.76,29.81,5.98,35.68,3.23,5.87,10.09,5.71,13.35-.46,3.27-6.18,5.18-30.5,6.22-36.6" fill="none" stroke="#1971c2" stroke-linecap="round" stroke-width="4"/>
    <path d="M225.86,305.04c-1.18-5.14-2.35-10.29-4.13-18.09M225.86,305.04c-1.53-6.69-3.06-13.38-4.13-18.09" fill="none" stroke="#1971c2" stroke-linecap="round" stroke-width="4"/>
    <path d="M213.26,303.46c2.41-4.69,4.82-9.39,8.47-16.51M213.26,303.46c3.13-6.1,6.26-12.21,8.47-16.51" fill="none" stroke="#1971c2" stroke-linecap="round" stroke-width="4"/>
  </g>
  <path d="M362.88,89.42l-2.57-2.66c.87-1.23,2.1-2.21,3.71-2.96,1.6-.74,3.34-1.12,5.22-1.12l-.04,3.53c-1.17,0-2.31.29-3.44.87s-2.09,1.36-2.88,2.32ZM368.6,109.84c-.76,0-1.4-.27-1.94-.81s-.81-1.19-.81-1.94.27-1.42.81-1.95c.54-.53,1.19-.8,1.94-.8s1.42.27,1.95.8c.53.53.8,1.18.8,1.95s-.27,1.4-.8,1.94c-.53.54-1.18.81-1.95.81ZM366.71,100.99v-1.78c0-1.23.25-2.31.76-3.24.51-.94,1.27-1.73,2.29-2.37,1-.62,1.76-1.3,2.26-2.04.5-.74.75-1.53.75-2.39,0-.93-.31-1.65-.93-2.17-.62-.51-1.5-.77-2.64-.77l.04-3.53c2.42,0,4.29.55,5.62,1.65s2,2.64,2,4.64c0,1.38-.34,2.63-1.03,3.76-.69,1.13-1.72,2.13-3.1,3.01-.79.52-1.39,1.09-1.78,1.7-.4.61-.6,1.29-.6,2.02v1.52h-3.64Z" fill="#868e96"/>
</svg>