<?xml version="1.0" encoding="UTF-8"?>
<svg id="a" data-name="Слой 1" xmlns="http://www.w3.org/2000/svg" width="1024" height="1024" viewBox="0 0 1024 1024">
  <g opacity=".2">
    <path d="M762.24,278.95c5.99,3.28,18.19,11.53,22.71,13.36,4.83,1.95,11.63,1.88,17.21,4.29,1.7.74,7.24,2.87,6.47,5.54-10.39-1.21-22.81-2.99-32.78.74-1.73.65-2.97,3.76-4.79,4.19-4.42,1.05-5.23-4.48-7.09-5.78-3.01-2.1-7.54-2.67-9.77-6.05-2.49-3.77-1.6-9.99-2.75-11.8-.72-1.13-18.83-11.26-19.97-17.34,6.76.5,15.32,3.57,21.47,6.36,4.71,2.13,7.01,5.26,9.29,6.5Z" fill="#727272"/>
    <path d="M829.3,321.93c3.95,2.8,10.6,4.21,13.22,8.94,1.69,3.04,5.7,22.55,4.05,24.4-2.92,3.26-18.3-17.21-21.55-19.54-10.31-7.4-19.17-3.1-15.11-21.55,1.86-8.43,16.11,5.44,19.39,7.76Z" fill="#727272"/>
    <path d="M923.74,241.43c4.52-.14,11.26-1.52,15.66-.05.46.15,3.56,6.73,5.84,7.64-.85.19-5.37,1.26-5.05,2.51,2.03.41,14.5,3.28,12.05,7.64-.88,1.56-13.32,10.3-14.64,10.72-13.45,4.27-14.52-17.12-18.9-24.06l5.04-4.4Z" fill="#727272"/>
    <path d="M645.26,231.52c2.67,1.53,3.78,15.85,2.11,18.77-.5.87-17.33,6.07-18.39,5.81-2.43-.6-10.73-9.84-11.19-11.79-1.72-7.36,24.78-14.33,27.46-12.79Z" fill="#727272"/>
    <path d="M849.11,243.96c9.84,2.18,20.02,5.45,29.94,7.17,1.85.32,5.62-1.56,6.73-.84.3.19-.27,2.07,0,2.52,1.5,2.46,8.77,9.62,7.59,11.37-.45.67-14.69,3.94-15.69,3.82-2.25-.27-28.29-19.28-28.58-24.04Z" fill="#727272"/>
    <path d="M721.36,131.39c9.38,1.82,16.52,10.61,25.29,14.57.49,3.17-6.62,2.9-8.27,8.14-1.27,4-.32,8.58-.57,12.71-14.27-13.24-13.8-15.98-16.44-35.42Z" fill="#727272"/>
    <path d="M586.02,168.07c4.6-1.3,3.41,2.23,5.06,3.79s18.38,12.26,16.44,15.16c-.41.61-12.1,5.18-13.88,4.49-2.28-.88-9.84-12.9-10.15-15.86,3.4,1.04,3.66-2.84,1.26-5.06.31-1.04.73-1.65,1.26-2.53Z" fill="#727272"/>
    <path d="M878.2,285.7c1.63,2.41,5.18,4.3,6.92,10.16,6.16,20.71-3.62,32.11-8.18,5.02-.58-3.47-2.66-16.73,1.26-15.18Z" fill="#727272"/>
    <path d="M596.13,121.28c1.29,1.58-7.13,34.52-4.41,40.46-4.69-4.73-7.29-10.33-6.97-17.01.15-3.16,8.62-26.82,11.38-23.45Z" fill="#727272"/>
    <path d="M666.97,217.4c-2.95-.07-32.44,5.66-26.46-4.92.78-1.37,14.58-4.71,16.93-4.02,2.49.74-3.03,5.43,5.73,2.62,3.36-1.08,1.5-1.32,3.78-2.52v8.85Z" fill="#727272"/>
    <path d="M902.31,271.67c-3.03-5.95,15.88-16.61,18.77-7.88.86,2.6-6.02,12.38-8.33,12.94-1.21.3-10.17-4.54-10.43-5.06Z" fill="#727272"/>
    <path d="M617.64,164.27c5.97,2.49,8.3,4.6,12.65,8.85,1.14,5.16-5.91.43-8.85,3.79-.83-.06-1.85.17-2.53,0,.68-3.91-1.29-1.99-2.53-2.53-.95-.41-1.64-.8-2.53-1.26-.58-1.31-6.65-7.21-6.32-7.57,1.44-1.58,8.37.75,10.12-1.28Z" fill="#727272"/>
    <path d="M865.55,317.32c-.25,1.85-1.19,2.24-1.26,2.53l-1.24.63,1.24.64c-.73,2.31-6.34,13.88-7.59,15.18l-1.26-15.18c.43-.84.81-1.71,1.26-2.53.06-.11,1.83.28,2.18-.3,1.72-2.81,2.29-7.16,6.05-9.81-.32,1.55.69,8.41.63,8.85Z" fill="#727272"/>
    <path d="M801.05,289.5c4.99-5.46,7.54-11.99,11.37-17.71-2.39,5.96,2.65,7.74,2.54,8.21-.51,2.3-4.63,6.88-2.53,12.03-2.47-.93-6.17-.39-11.38-2.53Z" fill="#727272"/>
    <path d="M606.25,141.5c-1.37,4.21,4.56,10.16,3.9,13.14-.32,1.44-6.05,2.43-6.41,2.04-.56-.61-1.37-16.8,2.51-15.18Z" fill="#727272"/>
    <path d="M677.07,237.64c.53.36,3.02,12.2,2.54,12.63-.54.49-5.89-.53-6.36-2.12-.6-2.05-.08-13.17,3.82-10.51Z" fill="#727272"/>
    <path d="M898.44,247.76c5.66-1.97-2.21,9.93-3.18,10.12-2.63.5-3.03-3.84-4.41-5.06.44-.24,2.67-4.84,7.59-5.06Z" fill="#727272"/>
    <path d="M634.08,213.61c.86.85-5.84,14.77-8.84,11.37-3.78-4.28,6.48-13.71,8.84-11.37Z" fill="#727272"/>
    <path d="M769.42,269.26c-.8.13-1.86-.19-2.53,0,1.33-2.63-3.27-9.06-2.54-10.11.11-.16,3.68-1.44,3.79-1.27.31.48.41,8.78,1.28,11.38Z" fill="#727272"/>
    <path d="M932.59,328.71c10.98-7.33,6.62-3.45,5.06,5.06-2.12-1.94-3.1-2.81-5.06-5.06Z" fill="#727272"/>
    <path d="M852.91,309.73c-2.4,3.04-4.36-6.99-3.79-7.58,2.06-2.11,7.3,3.14,3.79,7.58Z" fill="#727272"/>
    <path d="M709.97,243.97c-2.96,3.17-5.34-2.82-1.24-6.32,2.09-.43,1.46,6.08,1.24,6.32Z" fill="#727272"/>
    <path d="M698.59,183.25c.39-.46,11.48-2.69,11.25.47-.04.5-2.73,9.23-3.04,9.63-.36.47-10.27,5.44-10.74,5.06-.6-.49,2.03-14.58,2.53-15.16Z" fill="#727272"/>
    <path d="M176.44,538.36c7.24,2.67,15.99,4.42,21.7,10.26-7.44-1.57-14.3-5.11-21.7-6.84v-3.43Z" fill="#727272"/>
    <path d="M122.77,533.79c-3.78-1.11-9.85-.86-13.71-4.01-.42-2.94,1.91-1.51,3.5-1.2,2.78.54,11.02,1.65,10.21,4.07v1.14Z" fill="#727272"/>
    <path d="M230.11,322.53c1.87,5.05,7.33,10.42,10.93,14.8,7.82,9.54,4.56,5.74,9.78,16.45,5.26,10.79,11.47,20.93,16.98,31.55-3.93-.43-7.8.07-11.87-1.26-7.11-2.33-19.89-22.29-17.83-30.7-2.22,1.74.11,7.49-5.45,4.3-1.19-.69-15.22-21.34-15.62-22.65-2.03-6.6,8.29-9.49,13.09-12.49Z" fill="#727272"/>
    <path d="M404.82,578.33c7.43,6.91,13.03,16.78,20.55,22.84.54,1.59,2.19,4.41,3.43,5.71-1.25.56-.53,1.4-4.57,2.28-8.89-.21-14.88-3.84-22.84-5.71.19-1.21,4.51-1.68,2.28-3.41-.44-.34-8.64-2.8-10.49-3.54-1.08-.43-1.17-2.33-3.08-2.83-7.61-2.01-14.44,2.43-21.83-1.63-.39-.36-.74-.78-1.14-1.14.22-.22-.53-2.52.17-3.18,1.34-1.26,32.28-12.08,34.65-11.66s2.57,2.14,2.86,2.29Z" fill="#727272"/>
    <path d="M455.07,580.61c-2.06-3.02-9.68-7.38-10.88-10.33-1.29-3.16.95-5.25.39-8.21-.35-1.81-4.82-10.78-4.35-11.15,2.45-1.96,6.82,2.14,7.42,2.27.93.21-.21-5.59,3.42,1.16-.57-6.09,9.83-1.46,14.03-.34,6.81,1.81,14.08,5.37,21.54,5.94,5.14.39,10.07-1.82,15.25-1.04-.84,2.08-2.69,7.55-4.52,8.52-.94.5-3-.68-4.56,0-5.56,2.37-8.76,4.37-13.76,7.48l3.42-9.13c-5.56,1.73-20.27-5.84-24.1-1.6-2.19,2.43,1.34,6.77,2.41,9.58-1.3.9-6.6.91-6.85,1.15-.21.2,1.06,3.64,1.14,5.7Z" fill="#727272"/>
    <path d="M199.28,340.8c1.77,1.3,3.54,1.7,5.1,3.47,9.95,11.25,22.73,35.14,31.84,48.66.8,1.18,3.44,2.06,5.12,4.6,6.13,9.28,11.26,18.44,15.04,28.92h-1.14c-19.52-25.63-38.86-51.4-58.06-77.26-2.56-4.24-1.56-5.94,2.1-8.39Z" fill="#727272"/>
    <path d="M257.51,427.59c-1.17.14-.93-.55-1.14-1.14l1.14,1.14Z" fill="#727272"/>
    <polygon points="257.51 427.59 258.66 428.16 258.08 428.73 257.51 428.16 257.51 427.59" fill="#727272"/>
    <path d="M448.22,589.75c-1.67,1.4-4.33,3.2-4.57,3.43-6.22-8.5-17.26-8.14-26.24-12.02-18.86-8.14-7.88-10.31,2.21-17.14,2.97-2.01,2.43-6.93,8.01-4.52s15.28,24.99,20.58,30.26Z" fill="#727272"/>
    <path d="M210.69,486.97c-1.36-.88-1.42-1.31-2.28-2.28,1-4.72-1.8-3.02-2.28-3.43-.41-.35-.77-.76-1.14-1.14.23-2.45.53-4-2.28-3.43-.33-.41-.8-.72-1.14-1.14.28-2.42.14-2.56-2.28-2.28-.74-.91-2.07-3.95-3.43-5.71,0-.76-.01-1.52,0-2.28.12.15,2.28.16,3.43,1.66,5.48,7.17,10.79,14.37,15.96,21.76-.99-.05-3.86-1.29-4.54-1.73Z" fill="#727272"/>
    <path d="M117.06,364.79c3.13-6.69,7.68-1.93,10.28,1.14,4.05,4.79,7.61,10.88,11.42,15.99,2.15,2.88,2.85,4.86,5.71,7.99.36.39.76.77,1.14,1.14.1,4.51,2.96,4.12,3.43,4.57.39.38.78.74,1.14,1.14-.06,2.76,3.22,8.11,5.71,7.99.59.86.77,1.71,1.14,2.28,2.51,3.94.59,2.47,4.57,5.71.42.34.74.81,1.14,1.14s.71.83,1.14,1.14c.07.37-.09.79,0,1.14,2.24,8.29,11.26,18.91,15.99,27.41-3.45-3.83-8.58-8.36-11.42-11.42-.36-.39-.77-.75-1.14-1.14.51-3.69-3.29-5.3-5.71-7.99-10.62-11.82-21.02-25.62-30.8-38.28-2.26-2.92-12.09-18.94-13.73-19.95Z" fill="#727272"/>
    <path d="M193.57,461.85c.75.7,2.38-2.08,2.28,3.43-1.12-1.43-1.86-2.9-2.28-3.43Z" fill="#727272"/>
    <path d="M193.57,461.85c-1.72-1.6-3.93-3.01-5.71-4.57-4.4-3.85-3.64-3.75-5.71-7.99-.8-1.64-1.42-4.16-2.28-5.71,6.11,6.79,8.63,11.99,13.7,18.27Z" fill="#727272"/>
    <path d="M295.2,266.58c2.09,3.49,4.39,5.64,4.07,10.32-.19,2.81-8.88,15.48-11.18,16.29-7.06,2.5-18.83-5.86-28.29-7.2l13.97-6.85c5.22-8.17,14.02-8.01,21.43-12.57Z" fill="#727272"/>
    <path d="M273.5,457.28c7.96,4.14,3.22,8.45,9.17,16.53,6.48,8.8,16.87,19.92,25.08,26.89.15,5.01-4.53,1.63-5.69-.02,1.77,8.28,8.32,13.17,13.58,18.99.95,1.06,1.04,3.62,1.28,3.83,2.84,2.64,1.79-4.69,3.39-3.41.98.78,5.23,10.06-1.12,7.98-1.4-.81-2.14-1.22-3.43-2.28-2-1.87-2.78-6.16-5.71-5.71-4.42-5.15-9.52-13.66-13.7-19.41l-1.14-2.28c-.3-.42-.84-.72-1.14-1.14-2.45-5.59-6.51-10.16-10.28-14.85-1.93-2.4-10.39-13.24-11.52-14.17-2.73-2.25-16.81-5.23-13.61-8.65.51-.55,12.8-2.08,14.85-2.29Z" fill="#727272"/>
    <path d="M313.47,604.59c8.74-2.59,12.27-2.76,21.31-3.28,2.2-.13,4.41-1.37,3.81,2.13-15.23,4.37-36.44,11.1-50.52,17.21-2.63,1.14-7.07,6.12-11.15,5.63-3.45-2.65-7.9-3.45-6.85-9.14,15.36-2.3,28.12-8.04,43.39-12.56Z" fill="#727272"/>
    <path d="M308.9,280.28c4.16-3.61,12.57,4.52,13.3,4.61,4.19.55,8.4-2.14,8.91-2.17,4.04-.24,15.24-.72,18.19,1.13,5.9,3.71-1.48,3-3.56,4.15-3.05,1.68-8.93,7.94-11.72,8.27-2.54.3-17.4-4.11-19.82-5.87-3.15-2.29-5.39-6.26-5.3-10.11Z" fill="#727272"/>
    <path d="M361.43,565.77c-.31-8.07-7.15-11.68-4.55-19.41,2.18-.16,1.73,4.18,2.3,4.56.63.42,10.53-1.58,15.08-.84,6.46,1.06,8.95,5.95,15.72,6.55-5.67,2.65-17.31,10.45-22.57,11.21-4.09.59-3.71-.9-5.97-2.08Z" fill="#727272"/>
    <path d="M374,639.98c-1.02,1.07-27.55,5.85-29.02,5.69-4.38-.46-7.82-5.65-6.47-9.57.54-1.56,16.23-4.06,19.2-4.87,1.69-.46,1.19-2.77,2-2.67,1.58.2,17.73,7.82,14.3,11.41Z" fill="#727272"/>
    <path d="M528.15,520.09c.3-.12-1.95-2.53,4.06-2.39,3.62.09,2.33,2.27,4.46,2.5,3.21.35,6.33-1.41,7.97-1.3.69.05.59,2.2,1.13,2.2,2.92.03,8.29-2.1,12.07-1.02-3.33,10.18-17.91,25.76-25.6,11.31-2.89-5.43,2.33-12.14-4.09-11.31Z" fill="#727272"/>
    <path d="M468.77,513.24c-16.13,10.3-29.48,19.48-46.82,28.55-7.03-2.8,8.78-9.04,11.41-12.59,2.34-3.17-4.23-2.01-4.55-2.26-1.04-.83,2.31-4.64,3.45-5.11.52-.22,10.45-2.65,11.02-2.67,1.71-.05,2.7,2.18,5.23,1.92,2.02-.2,12.82-5.92,15.68-7.3,1.16-.56,3.89-2.82,4.59-.55Z" fill="#727272"/>
    <path d="M262.08,401.33c.49.28,5.32,6.4,5.78,7.35,3.35,6.85,6.12,17.93,7.92,25.77h-2.28c-4-8.73-14.9-25.68-20.55-34.26l.63-1.1c1.72,1.7,7.83,1.85,8.51,2.24ZM263.79,405.89v1.14l.57-.57-.57-.57Z" fill="#727272"/>
    <path d="M329.46,523.51c1.88-.59.42-4.51,1.7-4.56,1.57-.06,11.46,5.31,13.8,5.66,3.93.59,9.99-2.82,10.77-2.23.51.39-5.87,5.21,3.43,9.11l-26.26-1.13c-2.54-2.38-2.66-3.75-3.43-6.85Z" fill="#727272"/>
    <path d="M288.35,645.7c.31.53-.4,1.19,1.14,2.28.14.82.17,4.42,0,4.57-4.77,4.18-6.8-9.17-1.14-6.86Z" fill="#727272"/>
    <path d="M289.49,636.56c.23.1,2.96,1.96,3.43,2.28,2.87,2.02,3.79,4.3,5.71,6.85-.05,2.7-.77,3.96,2.28,3.43.39.78.94,1.37,1.14,2.28-4.7,6.41-5.86-.3-8.51-2.38-1.52-1.19-3.7-.8-4.05-1.05-.21-1.2.43-1.64-1.14-2.28-1.53-2.62-4.64-11.74,1.14-9.14Z" fill="#727272"/>
    <path d="M267.79,389.91c-.93,2.67,2.3,1.95,2.3,2.85s-3.23.18-2.3,2.85c-8.39-.46-8.21.8-12.54-7.44,4.12.57,8.48.73,12.54,1.73Z" fill="#727272"/>
    <path d="M530.44,538.36c4.97,1.11,11.57,12.48,4.07,11.46-.68-.09-5.43-9.98-7.5-11.46,1.03-.02,2.57-.19,3.43,0Z" fill="#727272"/>
    <path d="M363.71,612.58c.99,2.69,6.32,9.87.65,10.23-6.05.39-2.49-5.2-4.08-10.23h3.43Z" fill="#727272"/>
    <path d="M499.6,504.1c10.57,5.95,2.2,9.74-2.28,1.14.81-.49,1.65-.76,2.28-1.14Z" fill="#727272"/>
    <path d="M622.93,577.18c-4.71-.26-26.52-9.21-16.5-11.43.32-.07,6.29.03,6.6.13,1,.32,8.51,10.75,7.61,2.16.51.31,1.42-.84,2.31.76.83,1.51.83,6.47-.02,8.37Z" fill="#727272"/>
    <path d="M585.25,564.62c.87.63,3.34,1,3.42,1.16,1.33,2.43-7.93,15.1-12.56,7.98,2.39-4.42,9.92-3.03,9.14-9.14Z" fill="#727272"/>
    <path d="M182.15,606.87c3.41-.28,8.6-2.14,11.83-1.18,1.37.41.55,2.15.73,2.32-3.24,2.77,6.2,10.15.54,10.33-5.87.19-10.09-7.88-13.1-11.47Z" fill="#727272"/>
    <path d="M539.56,604.6c4.12,2.77-4.38,10.32-6.83,7.98-1.78-1.7,5-9.21,6.83-7.98Z" fill="#727272"/>
    <path d="M593.04,460.89c3.64,6.3-9.67,12.69-8.68,2.96.68-6.71,7.03-5.81,8.68-2.96Z" fill="#727272"/>
    <path d="M386.55,480.13c.84,4.32-3.66,1.2-5.53,2.47-.4.27-1.35,6.55-4.38,7.6s-14.89-.45-11.78-4.35c.7-.88,18.85-6.11,21.69-5.72Z" fill="#727272"/>
    <path d="M467.64,423.02c-.66-.77,3.43-17.95,5.69-19.41,1.87,1.71-1.54,24.26-5.69,19.41Z" fill="#727272"/>
    <path d="M386.54,493.85c2.8,3.39-9.65,2.65-7.97-1.72,1-2.6,7.45,1.1,7.97,1.72Z" fill="#727272"/>
    <path d="M350,506.39c1.57,1.36-3.38,6.37-4.55,6.84-1.26-3.36.65-10.21,4.55-6.84Z" fill="#727272"/>
    <polygon points="439.65 548.64 440.22 549.21 439.65 549.78 439.65 548.64" fill="#727272"/>
    <path d="M292.9,524.67c-4.53,4.27-10.92-2.12-6.83-5.73.88-.77,4.04,6.55,6.83,5.73Z" fill="#727272"/>
    <path d="M99.93,399.04c-2.28-1.25-4.21-1.51-4.56-5.7,2.34.97,3.43,3.71,4.56,5.7.45.25,2.07-.25,2.28,0,.33.39-.34,2.9,0,3.43.13.19,4.73-.17,2.28,2.28s-2.12-2.11-2.28-2.28c-.22-.23-2.16.25-2.28,0-.35-.77.33-2.84,0-3.43Z" fill="#727272"/>
    <path d="M95.36,389.91c1.21,1.21-1.01,3.55-2.28,2.28s1.06-3.49,2.28-2.28Z" fill="#727272"/>
    <path d="M384.36,737.84c.18-.03,2.57-2.22,3.48-1.16.42.49-.71,12.33-1.16,12.79-.91.92-9.06-1.36-8.13-4.65,5.47-.5,2.42-2.1,5.81-6.98Z" fill="#727272"/>
    <path d="M419.25,758.78c-3.51-.4-8.16-1.34-11.63-2.33,1.28-1.74,7.86-3.16,8.15-3.5.69-.82-3.26-5.2.55-4.62,3.83,2.44,3.01,6.45,2.93,10.45Z" fill="#727272"/>
    <path d="M352.96,745.98l-3.49,2.33c.22-.33-.37-1.9.05-2.26.54-.46,2.53.16,3.43-.06Z" fill="#727272"/>
    <path d="M391.34,993.68c-1.13-2.88-6.35-9.7-2.73-10.54l123.09,1.23c-.65,3.57-11.25-1.78-9.87,3.49l15.1-1.15c.71,4.34-11.99,4.18-13.94,5.81-2.88,2.41,9.86,8.72,9.28,12.22-.29,1.77-7.2-1.48-5.79,2.88,5.27,1.36,12.23-1.72,16.84-1.2,2.18.25,1.93-.24,1.76,2.36-37.81-.46-75.7.67-113.52-.08-2.07-.04-3.72,1.26-3.93,1.25-14.87-.45-12.03-5.42-16.28-16.28Z" fill="#727272"/>
    <path d="M394.83,801.8c11.39-.75,70.16-1.39,77.81,1.85,6.89,2.92,4.33,4.89,5.96,8.95.57,1.43,3.24-.01,2.28,3.15-4.96,1.8-6.35-4.02-10.6-1.62-4.57,2.58-2.64,4.27-3.36,5.12-2.4,2.83-2.05-3.28-2.95-3.57-3.64-1.15-10.15,1.31-13.63.98-3-.28-15.36-7.33-15.96-6.71-.69,5.05,19.11,16.01,19.76,18.02.39,1.21-4.73-.77-3.48,2.9-1.16-.01-2.33.02-3.49,0-4.25-1.98-12.21-1.95-16.28,0-1.55-.05-3.11.08-4.65,0l-.58-1.14-.58,1.14c-2.41-.16-5.14.42-7.47-.08-6.22-1.34-21.59-21.63-22.77-28.99Z" fill="#727272"/>
    <path d="M703,890.18c1.63-.11,9.78,2.14,10.29,2.57.92.78-1.22,4.27,2.5,3.23-1.86-4.43,4.82-18.64,7.67-9.3,1.01,3.33-2.45,8.78,3.1,7.91,14.2-2.21,7.97-31.03,25.27-21.26,3.44,1.94-2.98,2.05-1.14,2.88.93.42,2.84-.32,4.09,1.15,1.7,2,3.08,29.71,2.88,34.4-.1,2.23,1.21,4.66-2.32,4.01-.68-1.04-1.67-2.64-2.33-3.49-2.24-2.9-7.17-6.4-10.47-8.14-1.62-2.74-1.82-10.3-8.14-3.49-12.3-4.5-9.75-1.45-19.02-1.2-6.09.16-13.9-2.23-12.38-9.27Z" fill="#727272"/>
    <path d="M759.98,925.07c5.83.7,11.59,2.39,17.11-.81,4.26-2.47,4.32-11.91,12.29-10.83.27.04,4.22,2.9,4.34,3.13,1.16,2.27,1.57,9.43,2.6,12.34.54,1.54,2,1.84,2.05,1.98,1.39,4.42,3.17,8.69,3.46,13.41.14,2.26,1.24,3.92-1.67,4.01-2.25.07-15.77-3.77-19.97-4.47-2.88-.48-7.51.54-9.48-.42-1.17-.57-9.31-16.06-10.72-18.35ZM787.89,921.58c-1.63-1.71-7,1.07-7.07,5.23-.14,8.42,10.19-1.94,7.07-5.23Z" fill="#727272"/>
    <path d="M219.23,958.8c7.86-.19,18.93,2.13,25.57-2.97,1.18-.91.65-3.11,2.03-4.04,1.24-.83,17.02-1.02,20.07-2.28-2.02,1.36-2.69,3.68-3.48,4.64-5,6.07-17.3,18.06-25.08,18.57-9.04.59-14.23-8.97-20.02-11.32-1.66-.68-4.3.03-4.91-.27.04-.96.84-1.63,1.16-2.33,1.83,1.91,3.61.03,4.65,0Z" fill="#727272"/>
    <path d="M351.8,905.3c-1.37-6.54-3.41-13.19,5.72-7.46,5.38,3.37,11.64,14.66,15.19,19.69,1.36,1.92,5.72,4.29,5.86,4.64,3.11,7.89-11.6-4.75-13.98-2.9-.51.4,1.19,10.03-6.98,8.13-1.1-1.39-3.01-2.2-4.65-4.65-2.59-4.89-1.61-9.45-3.49-15.12-.07-.76.06-1.56,0-2.33.75.09,1.62-.14,2.33,0,.29,1.36-.28,3.01.56,4.67,1.57,3.09,5.57-3.48-.56-4.67ZM365.76,912.27l3.46.61c-.81-1.35-3.47-3.16-3.46-.61ZM364.01,916.93v1.16l.58-.58-.58-.58Z" fill="#727272"/>
    <path d="M232.17,906.32c-1.83-2.88,6.54-17.19,7.49-17.35,4.93-.85,19.33,18.39,17.86,22.58-1.97,5.6-24.36-3.68-25.35-5.23Z" fill="#727272"/>
    <path d="M472.74,771.57c9.66-2.32,22.04,1.11,31.67,3.86,1.95.56,3.77.26,3.22,3.12-4.62.19-9.32-.14-13.95,0,1.73,6.51,6.03,2.3,7.57,2.32,3.35.05,8.71,1.27,12.19,1.16v3.49c-1.92-.07-6.35,0-8.72,0h-20.35c-.12,0,.28-1.74-.82-2.33-4.24-2.28-10.64-6.19-10.81-11.63Z" fill="#727272"/>
    <path d="M797.19,982.05c7.47-.98,17.17-4.49,24.41-6.98-1.07,4.83,5.1,4.05,5.81,8.75.58,3.84-1.06,2.4-4.63,4.04-8.59,3.95-29.65,9.8-25.58-5.81Z" fill="#727272"/>
    <path d="M275.05,878.55c1.25,2.13,10.38,18.71,9.29,19.76-.36.35-3.35-1.15-4.93-.89-5.63.94-12.42,4.77-17.15,3.22-1.44-3.9,2.96-3.92,3.48-5.24.97-2.47-2.65-1.52-3.37-3.62-2.33-6.86,3.63-7.04,4.19-7.69.96-1.11,6.69-11.28,8.49-5.54Z" fill="#727272"/>
    <path d="M740.21,932.05c.2-.44-.25-2.25.56-2.34,3.07-.34,6.44,14.19,7.58,17.46-5.87.01,3.76,8.04-2.89,6.97-.94-.15-10.47-10.41-14.88-11.88-4.74-1.58-11.12-.24-15.18-2.31-2.27-1.16-1.72-3.06-1.95-3.25,6.69.31,13.22-1.52,19.77-2.33.46-.06,4.65,2.82,7.6-1.15,1.07-1.44-.65-1.12-.62-1.18Z" fill="#727272"/>
    <path d="M344.82,770.4c-1.44,10.34,3.67,3.59,9.55,4.89,3.24.72,7.19,8.32,10.17,5.54.51-.48-.88-8.47,4.71-4.62,1.53,1.54,5.48,6.2,3.49,8.13-1.23,1.19-29.63-1.54-34.22,1.04-2.46-.78-1.3-10.26-.47-11.78,2.08-3.81,3.26-2.82,6.78-3.21Z" fill="#727272"/>
    <path d="M820.45,952.98c4.41-3.19,4.8,4.35,11.05,4.75,8.85.57,13.95-14.68,20.46,3.94.73,2.1,1.68,3.08-.11,5.27-.39.3-.77.8-1.16,1.16h-3.49c-10.11-3.7-20.05-6.14-26.75-15.12Z" fill="#727272"/>
    <path d="M133.18,996.01c-.3-.3-.13-7.36.23-8.5,1.98-6.29,29.43-6.81,23.68,2.69-1.02,1.68-23.04,6.69-23.91,5.81Z" fill="#727272"/>
    <path d="M352.96,934.37c.62.97,1.16,1.27,2.33,1.16,2.45,1.61,2.96,2.5,4.65,4.65.45.57-.21,3.28,3.49,3.49.39.38.79.76,1.16,1.16,1.48,6.54-5.39.83-4.65,5.81-2.18.02-7.35,1.02-9.24-1.3-.66-.81-1.95-18.09-2.37-20.8,3.18.84,3.45,3.96,4.64,5.81Z" fill="#727272"/>
    <path d="M248.3,999.5c-6.36-1.71-9.85,2.44-12.79,6.98-1.41.28-1.96,1.66-4.92,1.14-.38-.07-5.63-4.45-5.54-5.22.05-.39,4.43-3.8,5.81-5.22,7.11,2.48,12.84-2.03,18.61-5.81,9.82,3.68,1.97,5.4-1.16,8.14Z" fill="#727272"/>
    <path d="M441.35,780.87c7.68,1.23,17.7.06,23.62,1.66,1.57.42,5.13,1.66,4.28,4.15-11.69-1.38-23.66.11-35.37-1.28-1.97-.23-4.78-.47-4.16-3.36l11.63-1.16Z" fill="#727272"/>
    <path d="M295.26,923.45c-1.84-1.05-11.51-6.67-12.01-7.16-3.93-3.83,1.25-5.58,5.05-5.16,10.69,1.19,17.31,18.21,6.96,12.32Z" fill="#727272"/>
    <path d="M722.77,946c-.4,3.74,10.05,2.34,13.95,5.81.8.78,4.28-.2,3.51,4.06-.18,1.01-2.65,1.1-3.51,1.75-6.13-.94-18.56-2.06-16.28-10.47.75-.23,1.8-1.14,2.33-1.16Z" fill="#727272"/>
    <path d="M773.94,973.91c3.58-1.2,4.49,1.57,5.81,2.33-4.16,1.96,5.86,5.37,8.14,5.81.78,5.74-1.76,2.44-3.73,3.55-1.12.62-1.05,2.16-1.69,2.27-4.26.77-8.17-3.74-3.88-5.8-2.41,2.08-10.81-8.36-4.64-8.15Z" fill="#727272"/>
    <path d="M176.2,943.68c17.85,14.49,2.73,11.33-9.3,5.81,1.49-1.02,2.97-5.8,9.3-5.81Z" fill="#727272"/>
    <path d="M159.92,955.3c-3.82,11.06,15.89,15.3,18.07,18.57,8.36,12.57-16.85-4.88-19.29-9.78-1.08-2.17-3.1-9.71,1.22-8.79Z" fill="#727272"/>
    <path d="M587.87,770.4c-3.56-3.39.84-5.64-3.48-8.13,5.76-.73,11.85-.81,13.95,4.64,2.8,7.25-5.83,4.06-10.47,3.49Z" fill="#727272"/>
    <path d="M284.35,922.75c3.8,1.07,11.25,4.22,11.65,8.71.31,3.52-8.74.17-10.49-.57.82-3.18-2.46-2.26-4.65-3.49-.9-.83-1.53-1.09-2.33-2.33-1.36-4.4,2.14-3.36,5.81-2.33Z" fill="#727272"/>
    <path d="M397.16,830.88c-.86-3.57-5.68-1.6-6.83-2.48-.67-.51-5.37-15.51-4.79-16.12,2-2.13,9.77,7.86,9.28,10.46l-3.49-4.64c-4.26,4.75,7.77,6.14,8.16,11.62-.72.33-1.3,1.05-2.33,1.16Z" fill="#727272"/>
    <path d="M127.36,989.03c1.01,7.7.72,9.69-7.37,7.9-1.68-.37-2.04-1.21-3.09-2.09,1.16-6.82,4.6-4.32,10.47-5.81Z" fill="#727272"/>
    <path d="M600.66,948.33c.02-.08-1.47-.31-1.16-1.15,5.9-.9,21.58-7.21,13.95,3.47-4.11-.16-5.14,0-9.3-1.16l-2.33-1.16h-1.16Z" fill="#727272"/>
    <path d="M213.42,997.17c.76,5.62-17.4,3.68-18.68,2.93-1.11-.66-.79-2.09-1.09-2.93,6.56.19,13.21-.27,19.77,0Z" fill="#727272"/>
    <path d="M197.73,963.45c4.82-1.01,6.06,13.02-2.22,10.39-3.82-1.21.92-10.12,2.22-10.39Z" fill="#727272"/>
    <path d="M854.17,980.9c.78.67-1.8,5.28-2.92,5.8-2.29,1.06-1.65-2.21-1.78-2.27-.51-.24-10.53,5.64-10.39.54.03-1.07,13.96-5.03,15.08-4.06Z" fill="#727272"/>
    <path d="M328.53,776.23c1.78,1.09,1.53,12.39-7.01,7.59-3.16-1.78,3.62-9.66,7.01-7.59Z" fill="#727272"/>
    <path d="M620.92,751.44c1.4,1.27,5.97,5.63,6.45,6.83.54,1.37-4.89,6.86-6.72,2.04-.61-1.6-1.36-9.08-.21-10.27,1.92-1.3.25,1.19.48,1.4Z" fill="#727272"/>
    <path d="M334.36,843.67c4.75-.7,5.37-.12,4.65,4.65-.48.2-1.1.67-1.16,1.16-.08.69-.08,1.63,0,2.33-5.66,1.26-2.98-3.77-3.49-8.14Z" fill="#727272"/>
    <path d="M367.74,751.03c6.22,1.91-3.18,7.96-4.3,6.57-1-1.24-1.86-8.46,4.3-6.57Z" fill="#727272"/>
    <path d="M635.55,752.96c4.83-5.82,12.98-2.7,5.81,1.16-5.97,3.22-4.51.83-5.81-1.16Z" fill="#727272"/>
    <path d="M315.75,857.62h-1.16c.06-4.64-.06-9.32.01-13.95,5.18,2.54,1.08,11.12,1.15,13.95Z" fill="#727272"/>
    <path d="M706.49,940.19c1.68,2.17,8.6,3.76-3.49,4.65-.07-4.02-1.04-5.3,3.49-4.65Z" fill="#727272"/>
    <path d="M518.1,785.52c1.92-2.06,2.72-1.53,2.33,1.16-1.94-.02-2.2-1.16-2.33-1.16Z" fill="#727272"/>
    <path d="M182.01,976.25c.87.58-1.07,1.97-2.31,1.14-.87-.58,1.07-1.97,2.31-1.14Z" fill="#727272"/>
    <path d="M687.88,739.02c3.2,4.68-17.84,7.13-10.93,1.04,1.47-1.29,9.73-2.8,10.93-1.04Z" fill="#727272"/>
    <path d="M824.64,913.84c-.43-.74-2.34.21-1.85-1.55,2.43.1,5.84-4.58,8.18-3.02,3.22,2.14,2.49,19.73-6.33,4.56Z" fill="#727272"/>
    <path d="M387.85,841.34c.2.21.21,5.61,0,5.82-.4.42-7.6-.32-9.3,0l6.97,4.63c-1.92,1.21-8.99-3.09-8.12.57.26,1.12,2.09,2.49,2.31,4.78.25,2.71-1.66,6.98-.11,8.99,1.74,2.27,7.32,1.13,9.22,2.22.31.18,3.03,6.23,2.52,6.7-.39.36-10.03-.87-10.47-1.16-.25-.17,2.6-4.97-1.72-4.66-1.1.08-.54,2.7-2.47,3.34-3.22,1.06-11.64-2.02-9.78,3.07.28.77,7.26,4.24,8.31,5.78,1.58,2.31-.97,4.36,1.02,5.9.83.64,2.76-.71,4.06.47,2.79,2.54,3.94,10.85,5.51,14.34.93,2.06,6.87,6.23,2.63,5.52-3.11-.52-5.99-5.63-8.79-7.5-3.64-2.43-27.77-16.59-28.78-18.31-3.49-5.92-.12-32.41-1.37-40.5,4.85,1.04,37.04-1.38,38.38,0Z" fill="#727272"/>
    <path d="M626.25,909.97l-15.11,11.61c2.56-4.81,9.73-10.56,15.11-11.61Z" fill="#727272"/>
    <path d="M609.96,921.59c1.97,1.95-1.8,2.34-2.91,3.45-.43-1.78,1.33-5.03,2.91-3.45Z" fill="#727272"/>
    <path d="M555.31,804.14c-1.42,4.73-6.96-.09-9.18,1.25-.62.37-1.1,4.43-1.3,4.56-.22.15-2.93-1.57-3.47-1.19-.15.11-1.32,3.38-1.17,3.49,1.06.79,5.62-1.87,4.64,2.33-6.92-1.99-11.68,1.91-18.59,1.16,1.36-2.77,8.61-1.39,10.28-2.56.38-.26,4.09-7.38,3.68-8.45-.62-1.62-4.4,2.96-3.49-1.76l18.6,1.17Z" fill="#727272"/>
    <path d="M490.18,827.4c-7.5,3.21-15.45,1.1-23.25,1.14l14.53-2.05,8.72.92Z" fill="#727272"/>
    <path d="M774.77,877.73c2.02,2.37,4.92,12.31-1.44,5.5-5.11-5.47-2.46-10.06,1.44-5.5Z" fill="#727272"/>
    <polygon points="744.28 927.4 744.86 927.98 744.28 928.56 744.28 927.4" fill="#727272"/>
    <path d="M337.84,859.96c-1.21,6.18.95,13.16,0,19.2-.32,2.03.49,1.92-2.32,1.72.97-4.42-1.07-9.27-1.03-13.23.01-1.09.32-8.87,3.34-7.69Z" fill="#727272"/>
    <path d="M334.34,893.67c-.67,1.63-1.91-2.73-1.14-4.64.67-1.63,1.91,2.73,1.14,4.64Z" fill="#727272"/>
    <path d="M334.34,875.06c-.98.05-.95.34-1.16-.58-.9-4.02,2-4.16,1.16.58Z" fill="#727272"/>
    <path d="M334.34,864.59c-.58.87-1.97-1.07-1.14-2.31.58-.87,1.97,1.07,1.14,2.31Z" fill="#727272"/>
    <polygon points="333.78 879.72 334.36 880.3 333.78 880.88 333.78 879.72" fill="#727272"/>
    <polygon points="337.27 891.35 337.85 891.93 337.27 892.51 337.27 891.35" fill="#727272"/>
  </g>
  <g>
    <path d="M767.28,172.73c-3.75-3.47-7.95-10.17-13.03-12.24.98,12.63,6.2,17.91,18.96,17.69.49-4.01-4.1-3.75-5.93-5.45Z" fill="#727272"/>
    <path d="M561.18,136.23c5.99-1.11,3.56-13.81-3.46-11.08-4.36,1.7-2.27,12.14,3.46,11.08Z" fill="#727272"/>
    <path d="M557.26,291.8c9.49-1.26,4.05-18.56-3.31-17.27-8.03,1.4-7.28,18.68,3.31,17.27Z" fill="#727272"/>
    <path d="M551.76,107.89c.48-1.44,3.49-16.66,3.49-17.82-.04-12.31-27.59-28.05-39.09-26.74-11.61,1.32-19.38,12.81-17.12,24.13,3.16,15.84,45.86,40.85,52.72,20.43ZM516.14,68.36c7.52-1.35,31.85,11.66,30.15,20.01-.21,1.01-5.22,10.45-5.79,10.8-5.97,3.58-11.71-8.39-15.13-11.49-2.5-2.27-25.47-16.4-9.23-19.32Z" fill="#727272"/>
    <path d="M540.48,236.38c-1.35-1.2-9.07-.37-6.2,3.66,2.57,3.62,8.83-1.33,6.2-3.66Z" fill="#727272"/>
    <path d="M558.18,169.31c2.38-2.97-5.37-14.5-9.51-6.29-3.87,7.69,7.66,8.6,9.51,6.29Z" fill="#727272"/>
    <path d="M586.94,79.2c8.58-7.42-17.99-22.78-17.33-6.75.28,6.69,12.97,10.51,17.33,6.75Z" fill="#727272"/>
    <path d="M570.92,109.15c1.32,4.02,10.88.46,7.32-4.16-1.32-1.71-9.47-2.37-7.32,4.16Z" fill="#727272"/>
    <path d="M548.05,205.39c11.31,5.67,10.53-11.64,5.99-12.87-10.52-2.86-11.9,9.91-5.99,12.87Z" fill="#727272"/>
    <path d="M567.77,241.36c21.22,3.48,21.46-21.12,1.44-18.63-10.42,1.3-13.47,16.66-1.44,18.63Z" fill="#727272"/>
    <path d="M980.29,266.95c-2.76.76-9.08,7.79-3.85,9.74,8.18,3.05,13.28-12.33,3.85-9.74Z" fill="#727272"/>
    <path d="M524.93,134.05c-7.52,1.73-1.52,15.66,5.79,13.61,9.86-2.76-.21-14.9-5.79-13.61Z" fill="#727272"/>
    <path d="M976.5,180.45c-4.1-10.8-5.46-20.5-11.02-31.73-.57-1.15-2.48-.79-2.52-.92-.29-.92,5.64-6.08,6.06-8.51,1.56-8.99-11.46-26.8-20.97-29.06l-232.76-83.46c-17.64-4-67.4,9.74-81.22,21.76-1.33,1.16-11.06,11.82-11.44,12.58-4.09,8.13,2.6,13.09,2.05,14.62-.63,1.77-22.69,21.86-26.66,26.55-23.19,27.39-41,73.12-6.9,99.26,2.47,1.89,5.38,1.27,7.1,2.39,5.13,3.35,3.47,7.53,5.63,11.44,1.48,2.67,7.1,4.7,7.41,6.59.32,1.97-11.56,10.53-9.99,21.24.91,6.23,10.9,14.84,14.36,21.11,2.28,4.15,1.16,10.07,5.1,12.61,2.27,1.46,5.1.81,6.95,1.91,11.34,6.72,15.19,9.75,28.18,14.55,1.11.41,1.39,2.78,3.44,3.22,9.58,2.07,7.2-8.43,1.36-11.55,3.27-6.49,7.42,3.76,11.18,6.53,2.52,1.86,29.22,14.12,30.49,13.05.28-.24-.24-3.3,1.26-4.42,7.06-5.24,18.38,1.39,25.36,3.21-1.11,4.55-9.99,1.47-11.3,2.6-1.49,1.28-2.79,8.96-.12,11.98,2.15,2.42,40.95,22.57,43.89,22.93,4.07.5,10.85-2.97,15.14-3.27,7.33-.5,26.82,12.07,35.63,15.96,5.95,2.63,23.28,10.85,28.69,10.57,1.46-.07,20.26-10.79,22.06-12.19,3.41-2.65,27.93-24.72,29.85-27.07,3.7-4.54,5.86-13.59,10.41-16.42,5.64-3.51,14.89-4.37,20.83-8.89,5.27-4.01,13.45-14.04,18.64-18.4,19.11-16.03,42.55-30.87,48.79-57.48,2.33-9.97-11.01-32.9-14.95-43.3ZM606.25,141.5c-1.37,4.21,4.56,10.16,3.9,13.14-.32,1.44-6.05,2.43-6.41,2.04-.56-.61-1.37-16.8,2.51-15.18ZM596.13,121.28c1.29,1.58-7.13,34.52-4.41,40.46-4.69-4.73-7.29-10.33-6.97-17.01.15-3.16,8.62-26.82,11.38-23.45ZM607.52,187.02c-.41.61-12.1,5.18-13.88,4.49-2.28-.88-9.84-12.9-10.15-15.86-.33-3.11.75-3.32,1.26-5.06.31-1.04.73-1.65,1.26-2.53.28-.47-.3-2.29,0-2.52,1.93-1.45,5.96,3.59,5.05,6.32,1.7,1.61,18.39,12.26,16.44,15.16ZM616.37,174.39c-.95-.41-1.64-.8-2.53-1.26-15.17-8.01-7.64-13.62,3.79-8.85,5.97,2.49,8.3,4.6,12.65,8.85,1.14,1.11,3.49,1.81,3.79,3.78-4.17-.2-8.49.33-12.65.01-.83-.06-1.85.17-2.53,0-1.21-.3-2.08-1.4-2.53-2.53ZM625.24,224.98c-3.78-4.28,6.48-13.71,8.84-11.37.86.85-5.84,14.77-8.84,11.37ZM647.37,250.29c-.5.87-17.33,6.07-18.39,5.81-2.43-.6-10.73-9.84-11.19-11.79-1.72-7.36,24.78-14.33,27.46-12.79,2.67,1.53,3.78,15.85,2.12,18.77ZM679.61,250.28c-.54.49-5.89-.53-6.36-2.12-.6-2.05-.08-13.17,3.82-10.51.53.36,3.02,12.2,2.54,12.63ZM702.39,269.24c-2.94,2.34-18.22-9.46-15.17-12.63,3.02-3.14,15.97,11.99,15.17,12.63ZM808.63,302.14c-10.39-1.21-22.81-2.99-32.78.74-1.73.65-2.97,3.76-4.79,4.19-4.42,1.05-5.23-4.48-7.09-5.78-3.01-2.1-7.54-2.67-9.77-6.05-2.49-3.77-1.6-9.99-2.75-11.8-.72-1.13-18.83-11.26-19.97-17.34,6.76.5,15.32,3.57,21.47,6.36,4.71,2.13,7.01,5.26,9.29,6.5,5.99,3.28,18.19,11.53,22.71,13.36,4.83,1.95,11.63,1.88,17.21,4.29,1.7.74,7.24,2.87,6.47,5.54ZM846.57,355.26c-2.92,3.26-18.3-17.21-21.55-19.54-10.31-7.4-19.17-3.1-15.11-21.55,1.86-8.43,16.11,5.44,19.39,7.76,3.95,2.8,10.6,4.21,13.22,8.94,1.69,3.04,5.7,22.55,4.05,24.4ZM844.88,320.96c-1.9-.46-21.23-17.2-21.79-18.81-1.54-4.39,7.48-.66-6.97-6.89-1.98-.86-3.46-3.14-3.69-3.23-2.47-.93-6.17-.39-11.38-2.53-9.11-3.74-28.38-10.5-31.62-20.24-.8.13-1.86-.19-2.53,0-8.61,2.48-45.42-15.6-56.65-18.6-10.39-2.77-24.07,4.64-21.78-13.03,7.88-.55,37-7.6,40.87.33,1.3,2.66-2,12.54,1.51,12.29,4.05-.28-1.79-13.19,9.95-12.52,21.16,1.22,101.01,37.93,115.32,54.24,7.47,8.51,1.66,9.98-3.2,17.75-1,1.6-5.16,11.92-8.03,11.23ZM865.55,317.32c-.25,1.85-1.19,2.24-1.26,2.53-.11.39.12.88,0,1.26-.73,2.31-6.34,13.88-7.59,15.18-4.44,4.6-3.84-10.18-1.26-15.18.43-.84.81-1.71,1.26-2.53,1.34-15.11,13.07-20.28,8.85-1.26ZM876.94,300.88c-51.76-50-138.27-81.67-209.97-83.48-2.95-.07-32.44,5.66-26.46-4.92.78-1.37,14.58-4.71,16.93-4.02,2.49.74-3.03,5.43,5.73,2.62-.17-2.92-.07-4.34,3.16-5.06,8.76-1.97,32.85.35,42.81,1.47,50.47,5.66,139.66,34.7,169.06,78.22,1.63,2.41,5.18,4.3,6.92,10.16,6.16,20.71-3.62,32.11-8.18,5.02ZM663.18,197.15c.18-7.62,21.19-13.9,24.02-11.36,1.01.91-2.3,9.07-4.63,9.9-3.93,1.4-14.69.91-19.4,1.46ZM698.59,183.25c2.68-2.92,11.57-5.79,12.74-1.67.84,2.97-4.02,19.57-7.24,20.5-.57.17-11.38-.72-11.82-1.13-.7-.65,4.99-16.25,6.32-17.7ZM721.35,176.92c13.98-2.65,11.88,4.95,16.79,11.15.51.65,3.27.03,3.45.25,1.03,1.25-4.25,15.73-7.64,17.11-1.95.8-16.07-1.67-17.12-3.14-2.25-3.14,7.26-19.85,4.52-25.38ZM747.55,193.59c2.52-.8,14.98,2.75,15.54,3.59,1.53,2.27-5.82,11.57-8.49,12.36-2.29.68-14.98-1.71-15.54-2.27-1.36-1.36,5.87-12.85,8.49-13.68ZM902.15,285.62c-2.4,1.41-17.71-11.99-20.15-15.08,4.78.88,22.5,2.25,22.78,8.14.02.48-2.3,6.75-2.62,6.94ZM912.74,276.73c-1.21.3-10.17-4.54-10.43-5.06-3.03-5.95,15.88-16.61,18.77-7.88.86,2.6-6.02,12.38-8.33,12.94ZM922.48,293.29c-.27-.27-1.56-7.32-1.27-7.57.59-.52,7.38.95,7.58,1.27.45.72-4.57,8.08-6.31,6.3ZM973.77,236.38c-3.47-.25-17.99-10.45-20.94-13.91,3.76,2.62,24.35,2.92,25.29,3.79.42.39-1.32,10.34-4.36,10.12ZM978.12,221.19c-3.12,3.22-60.47-19.94-69.55-20.22,7,6.43,19.21,8.06,26.51,13.31,3.69,2.65,6.48,8.51,10.83,11.94,6.93,5.46,15.02,9.92,22.09,15.23-6.79,5.88-15.11,5.89-22.76,7.57-.85.19-5.37,1.26-5.05,2.51,2.03.41,14.5,3.28,12.05,7.64-.88,1.56-13.32,10.3-14.64,10.72-13.45,4.27-14.52-17.12-18.9-24.06l5.04-4.4c-17.04.54-26.62.75-43-6.32l17.7,12.64c5.66-1.97-2.21,9.93-3.18,10.12-2.63.5-3.03-3.84-4.41-5.06-.76.41-3.77-.29-5.06,0,1.5,2.46,8.77,9.62,7.59,11.37-.45.67-14.69,3.94-15.69,3.82-2.25-.27-28.29-19.28-28.58-24.04-20.11-4.45-30.58-11.69-49.74-19.19-5.81-2.27-37.34-11.02-38.79-12.45-3.09-3.03,6.81-3.65,7.31-4.04,2.74-2.13-1.82-6.56,5.93-6.1,10.07.6,13.87,17.18,25.97,13.32-4.72-3.91-12.16-13.02-17.22-15.67-3.2-1.68-6.92-1.15-9.86-2.79-2.64-1.48-17.82-9.85-18.51-10.66-2.35-2.8,1.64-6.7-.47-9.55-1.12-1.51-6.15-1.07-8.81-2.58-3.37-1.92-5.3-5.77-7.11-7.44-14.27-13.24-13.8-15.98-16.44-35.42-.63-4.64-1.84-9.29-1.91-13.9,5.03,2.86,43,17.87,44.91,16.42,1.69-1.29-34.88-16.6-37.97-18.3-17.72-9.72-29.16-24.23-52.15-20.58-19.34,3.07-31.13,26.74-18.04,42.72,13.39,16.35,41.16,2.91,36.06-2.55-.85-.91-14.6,10.43-22.56-.83-16.79-23.76,37.88-35.13,29.79,3.63-8.86,42.43-74.64,22.36-61.98-26.57,16.5-63.8,105.36-1.56,143.3,2.26-24.52-10.98-49.07-26.68-74.91-34.48-37.44-11.31-79.81,4.07-75.58,49.02,4.82,51.2,76.83,49.32,75.6,3.79-.93-34.35-51-31.4-41.48,3.18-12.6-8.84-5.78-26.64,6.91-31.67,33.44-13.25,60.84,36.28,29.18,63.33-33.9,28.97-83.48-3.61-84.23-43.67-.73-39.18,36.09-61.88,71.51-63.92,35.25-2.03,119.44,41.6,160.98,50.35,1.26.27,4.45,1.27,4.11-.96-43.26-17.48-86.36-36.4-130.88-50.63-6.94-2.22-13.87-5.06-20.89-6.94-7.08-1.9-33.97-1.84-17.28-10.94,13.49-7.35,21.92-6.38,35.64-2.36,76.78,22.49,153.79,58.96,230.47,83.22,2.88.75,10.74,12.82,9.2,14.19-1.68,1.49-35.71-7.62-41.23-7.48-2.18.06-3.25.93-1.76,2.41,4.09,4.06,25.49,9.67,32.91,15.8,3.82,3.16,17.66,24.59,15.14,27.22-1.94,2.03-45.62-19.47-53.11-18.34,4.33,4.79,29.82,15.19,31.61,18.99.32.67-10.04,8.44-11.37,9.46,11.66-1.86,24.82-9.34,35.47.58,4.12,3.84,13.37,35.25,11.31,37.37Z" fill="#727272"/>
    <path d="M862.75,124.71c-25.12-5.67-53.97.81-66.17,25.61-19.85,40.33,31.83,68.57,66.44,53.79,3.26-1.39,14.01-9.17,6.81-10.83-2.64-.61-16.25,8.23-30.05,4.99-47.6-11.17-16.05-81.68,29.94-62.82,7.89,3.23,11.97,7.67,10.72,16.5-.39,2.75-5.3,10.24-2.04,12.14,3.25,1.89,7.61-.46,9.94-2.97.71-.76,9.39-17.32,9.62-18.33.38-1.66.49-1.84-.63-3.26-2.24-2.83-29.65-13.71-34.57-14.82Z" fill="#727272"/>
    <path d="M784.12,349.38c-17.68,1.3-9.34,26.6,8.38,22,14.07-3.66,5.76-23.04-8.38-22Z" fill="#727272"/>
    <path d="M879.99,364.9c-1.1-1.12-1.54-3.6-3.62-3.27-.75.12-4.78,4.23-4.49,5.62.7,3.4,8.61,3.74,10,.58,1.26-2.87-1.17-2.2-1.89-2.93Z" fill="#727272"/>
    <path d="M934.87,312.53c-5.36.42-20.04,6.92-22.58,11.68-10.61,19.9,25.01,30.68,38.95,26.3,20.25-6.38,6.66-39.79-16.36-37.98ZM948.48,340.19c-5.04,3.6-7.89-3.73-10.83-6.42-2.12-1.94-3.1-2.81-5.06-5.06-3.56-4.1-11.82-8.5.25-11.86,11.56-3.21,25.68,16.16,15.64,23.34Z" fill="#727272"/>
    <path d="M736.54,394.47c2.37,2.54,8.65-4.97,6.31-7.58-1.23-1.37-9.26,4.41-6.31,7.58Z" fill="#727272"/>
    <path d="M705.89,320.16c-5.52-1.49-15.48,7.44-3.82,10.74,14.59,4.13,6.68-9.97,3.82-10.74Z" fill="#727272"/>
    <path d="M961.35,288.48c-12.01,2.5-12.54,14.24-.73,17.89,21.21,6.56,16.64-21.2.73-17.89ZM966.73,304.13c-1.68.83-8.42-1.75-8.69-2.11-.79-1.07,2.05-9.61,2.45-9.91,3.94-2.95,13.99,8.19,6.23,12.03Z" fill="#727272"/>
    <path d="M602.33,266.34c-1.61-6.73-17.31-5.43-12.32,2.73,1.23,2.01,14.13,4.85,12.32-2.73Z" fill="#727272"/>
    <path d="M404.82,578.33c7.43,6.91,13.03,16.78,20.55,22.84-3.51-10.3-10.44-17.94-20.55-22.84Z" fill="#727272"/>
    <path d="M377.95,403.57c-3.05,3.62-6.94,18.66-1.15,15.98,3.46-1.61,3.04-9.26,10.57-7.09,8.7,2.5,14.44,15.2,14.09,23.73-.7,17.09-11.86,12.32-13.52,17.34-1.17,3.54-.56,8.72,3.84,9.48,14.8,2.57,14.8-29.58,17.06-29.67,2.92-.12,32.09,36.82,32.54-9.16-9.9,7-5.65,15.19-18.27,5.14-9.04-7.19-12.05-13.57-6.34-24.64,3.15-6.1,10.72-7.49,11.81-11.03,2.48-8.05-2.8-11.71-9.92-7.63-7.84,4.49-8.71,25.4-10.95,25.56-2.7.18-17.69-22.29-29.73-8.01Z" fill="#727272"/>
    <path d="M410.52,501.83l-21.68-3.43c4.79,5.86,15.02,5.67,21.68,3.43Z" fill="#727272"/>
    <path d="M351.15,432.15c-.91-.68,10.52-11.14,10.31-19.9-.96-39.38-59.34.2-76.53,3.95.68,7.49,11.08-2.02,13.95,4.86l23.55,64.51c.85,2.83-8.09,9.26-5.53,11.68,1.7,1.61,38.81-15.6,43.01-18.07,13.88-8.17,27.13-23.97,14.05-39.56-8.44-10.06-20.88-6.02-22.81-7.47ZM325.01,438.9c-1.19-.75-9.56-25.19-9.16-26.54,1.26-4.24,28.33-16.02,28.54,6.68.08,8.93-12.83,23.97-19.38,19.86ZM358,469.27c-2.11,3.5-14.49,11.43-18.27,9.18-2.6-1.54-12.34-30.72-11.32-32.46.41-.71,13.55-5.55,15.44-5.74,15.96-1.6,20.63,18.29,14.16,29.02Z" fill="#727272"/>
    <path d="M490.47,532.66c.31,1.31,6.18,5.19,6.84,4.55,1.84-1.79-4.92-5.53-6.84-4.55Z" fill="#727272"/>
    <path d="M396.83,360.2c-2.84-5.19-21.99-9.11-25.12-6.83-.75.55,2.44,1.78,1.78,3.42-.51,1.27-13.83,11.02-15.47,13.68,14.13-7.59,20.83-19.91,38.82-10.28Z" fill="#727272"/>
    <path d="M270.07,260.87c-.16.16-1.42.4-2.28,1.14.26-.24,1.49-.44,2.28-1.14Z" fill="#727272"/>
    <path d="M235.86,181.46c6.66,5.86,13.81-3.91,8.74-10.46-6.35-8.21-15.76,4.29-8.74,10.46Z" fill="#727272"/>
    <path d="M586.06,455.24c-6.16,1.85-13.79,15.48-2,18.64,17.26,4.63,17.99-23.46,2-18.64ZM584.36,463.85c.68-6.71,7.03-5.81,8.68-2.96,3.64,6.3-9.67,12.69-8.68,2.96Z" fill="#727272"/>
    <path d="M463.88,626.47c-6.1,1.81-6.63,17.8,4.08,14.44,6.3-1.98,6.61-17.61-4.08-14.44Z" fill="#727272"/>
    <path d="M223.62,633.52c.72,12.19,13.88.28,7.44-3.62-2.73-1.66-7.7-.77-7.44,3.62Z" fill="#727272"/>
    <path d="M582.97,619.43c4.35,3.41,8.83-4.75,6.84-6.84-2.26-2.37-7.93,5.98-6.84,6.84Z" fill="#727272"/>
    <path d="M138.75,622.85c2.82-2.86-3.78-8.37-6.75-4.46-2.8,3.69,5.89,5.33,6.75,4.46Z" fill="#727272"/>
    <path d="M533.6,601.38c-7.98,1.12-16.48,14.26-8.04,18.93,17.72,9.8,31.45-22.22,8.04-18.93ZM532.73,612.58c-1.78-1.7,5-9.21,6.83-7.98,4.12,2.77-4.38,10.32-6.83,7.98Z" fill="#727272"/>
    <path d="M71.97,523.52c-3.32.84-.62,7.85,3.39,6.83,3.32-.84.62-7.85-3.39-6.83Z" fill="#727272"/>
    <path d="M107.03,560.38c2.53,7.79,10.99,2.99,7.58-2.45-.4-.64-9.76-4.23-7.58,2.45Z" fill="#727272"/>
    <path d="M153.11,566.83c-8.2-5.53-13,5.87-8.36,10.07,7.13,6.45,16.39-4.65,8.36-10.07Z" fill="#727272"/>
    <path d="M186.71,563.48c-.94-.93-9.21-.15-6.31,4.6,3.76,6.16,8.78-2.18,6.31-4.6Z" fill="#727272"/>
    <path d="M220.07,620.26c2.01-7.24-1.15-10.12-5.04-16.02-6.27-9.52-8.74-12.45-20.55-11.87-22.85,1.14-44.55,21.88-17.29,37.15,12.37,6.93,38.44,6.77,42.88-9.27ZM182.15,606.87c-.54-.64-3.2-.86-3.37-1.19-3.04-5.77,19.15-11.95,26.23-5.11,5.18,5,8.98,21.71-3.45,16.01-1.19-.55-4.68-6.46-6.85-8.57-3.24,2.77,6.2,10.15.54,10.33-5.87.19-10.09-7.88-13.1-11.47Z" fill="#727272"/>
    <path d="M650.33,521.24c-2.7-2.48-9.19,4.86-6.83,7.99.61.8,8.48-6.47,6.83-7.99Z" fill="#727272"/>
    <path d="M316.89,227.75c-1.14-2.57,2-1.74-2.28-3.43.16,2.91,1.31,2.31,2.28,3.43Z" fill="#727272"/>
    <path d="M569.24,578.92c.88,1.23,13.19,10.3,15.01,11.25,13.33,6.97,36.82,4.57,48.41-4.98,1.41-1.16,16.96-18.94,17.53-20.14,5.84-12.31-18.95-30.67-28.69-29.88-3.02.24-23.33,6.79-27.08,8.35-10.96,4.57-34.47,22.36-25.17,35.4ZM576.11,573.76c-2.26-3.47,1.72-7.8,4.51-9.76,5.95-4.2,4.32.41,4.62.63.87.63,3.34,1,3.42,1.16,1.33,2.43-7.93,15.1-12.56,7.98ZM628.69,543.45c2.83.77,16.03,12.31,15.78,14.67-.12,1.17-14,17.34-15.2,17.98-2.43,1.3-3.7,1.23-6.33,1.08-4.71-.26-26.52-9.21-16.5-11.43.32-.07,6.29.03,6.6.13,1,.32,8.51,10.75,7.61,2.16-.89-.55-5.83-1.98-5.7-2.84.14-.93,9.28-9.76,10.32-10.33.3-.16,6.85.77,3.37-2.81-1.16-1.19-25.1,13.26-30.39,13.65-3.17.23-12.47-3.46-12.93-6.36-1.1-6.87,36.18-17.86,43.38-15.9Z" fill="#727272"/>
    <path d="M533.68,407.22c-7.35-4.64-10.17,12.31-1.77,9.91,4.02-1.15,3.65-8.73,1.77-9.91Z" fill="#727272"/>
    <path d="M115.09,511.21c20.96,8.29,38.76,18.82,61.35,27.15,7.24,2.67,15.99,4.42,21.7,10.26-7.44-1.57-14.3-5.11-21.7-6.84-17.03-3.98-36.28-6.49-53.67-9.14v1.14c15.44,4.52,84.65,24.25,92.89,31.01,3.25,2.67,6.25,7.99,9.24,11.32,1.32,1.47,3.79,1.95,4.06,2.22.66.65-2.65,1.46-3.15,4.2-2.27,12.42,5.43,26.94,14.7,35.05,1.6,1.4,5.36,1.33,6.82,3.46,2.15,3.15.34,8.5,1.92,12.93.76,2.15,18.78,23.2,21.36,25.46,12.58,11.02,27.1,9.36,42.31,7.22l12.58-4.47c3.82-3.79,12.31-8.47,17.15-8.55,4.84-.08,10.31,4.01,16.1,4.18,16.61.5,29.15-9.92,39.2-20.7,5.53-5.92,7.24.58,12.31,1.49,8.72,1.56,17.98-5.61,26.49-8.38,4.87-1.58,13.23.45,15.74-5.96,1.32-3.38,1.57-16.62,2.82-18.32.53-.72,14.86-7.04,16.34-7.15,6.45-.46,9.01,3.49,13.94,4.36,16.02,2.86,20.95-11.45,31.22-18.49,7.72-5.29,14.71-2.27,13.76-14.98-.2-2.7-3.56-.9-1.87-2.81,5.08-3.96,40.22-23.63,41.6-26.42.25-.5-1.55-5.3-.53-9.01,1.21-4.4,9.23-11.15,11.91-17.79.97-2.4,3.57-11.34,3.57-13.56.03-9.16-15.27-17.09-19.67-24.9-4.31-7.66-2.37-14.33-4.94-22.47-6.59-20.85-24.24-26.37-43.73-18.48-8.88-12.21-18.13-24.25-26.71-36.69-6.7-9.72-29.24-49.6-35.09-53.98-2.26-1.69-23.4-8.92-26.26-9.14-3.82-.29-7.09,1.93-10.88,1.82-20.86-.58,5.38-14.53,10.27-20.57,3.87-4.78,5.14-9.12-1.07-12.67-5.84-3.35-9.64.9-12.07,5.79.81-3.52-9.32-11.1-9.8-13.59-.67-3.47,3.86-6.07-.88-15.14-10.42-19.97-34.76-42.67-46.39-63.24-8.16-6.33-10.11-1.42-15.25-1.99-2.17-.24-6.3-3.9-10.48-4.29-6.4-.6-16.54,3.21-21.63,2.35-2.83-.48-7.89-6.67-11.26-8.25-7.5-3.5-25.81-2.64-34.16-.59-4.61,1.13-13.98,7.64-15.17,7.64-3.78,0-13.48-13.47-24.95-13.27-13.18.23-44.93,18.11-54.28,27.71-4.54,4.67-7.96,13.06-12.11,16.44-4.47,3.64-14.57,6.82-20.84,11.06-18.86,12.76-20.31,23.84-31.75,40.27-12.94,18.59-39.83,36.49-50.57,57.91-3.81,7.59-2.77,7.94,1.17,14.43,9.64,15.92,50.76,72.61,63.11,84.2,2.46,2.31,13.11,7.96,13.79,9.07,2.82,4.63-4.48,6.26-2.39,10.31,6.54,5.29,43.6,40.31,41.69,46.11-.47,1.43-2.23,2.34-3.74,1.66-3.35-3.16-27.16-18.54-29.31-16.94,7.59,8.68,17.06,17.4,26.82,23.98l.02,4.55-65.66-31.98c21.56-14.27-6.67-42.02-22.33-46.74-20.67-6.23-47.94,6.55-35.71,30,11.16,21.4,49.7,21.88,72.06,30.72ZM243.79,603.46c-4.11-.97-1.49,3.56-2.27,4.56-1.54,1.98-7.79-18.03-4.55-20.56.51-.4,8.53.51,12.78-.35,18.75-3.81,41.11-12.15,58.42-20.37,5.37-2.55,35.94-20.86,38.4-19.25,1.07.7,6.24,23.87,5.57,24.96-4.4,7.09-14.09-11.5-21.92-8.79-4.9,1.7,6.38,11.28-5.68,3.45-18.64,8.23-37.4,16.81-56.8,23.16-4.01,1.31-19.64,4.04-20.54,4.58-1.03.62-1.72,1.96-.56,2.92l17.73,14.81c-10.03,2.58-17.53,1.93-20.58-9.11ZM210.69,486.97c-1.36-.88-1.42-1.31-2.28-2.28-.94-1.06-1.92-1.98-2.28-3.43-.41-.35-.77-.76-1.14-1.14-1.85-1.89-1.74-2.77-2.28-3.43-.33-.41-.8-.72-1.14-1.14-.45-.56-1.44-1.24-2.28-2.28-.74-.91-2.07-3.95-3.43-5.71-2.61-3.39-6.75-5.65-7.99-10.28-4.4-3.85-3.64-3.75-5.71-7.99l-13.7-17.13c-.36-.39-.77-.75-1.14-1.14-2.29-2.4-5.22-4.05-5.71-7.99-10.62-11.82-21.02-25.62-30.8-38.28-2.26-2.92-12.09-18.94-13.73-19.95-3.68-2.27-16.82-2.62-19.41-4.58-1.24-.93,4.46-7.01,8.42-6.81.98.05,17.91,5.39,18.71,5.95,1.01.71,2.1,5.07,2.57,6.58,4.05,4.79,7.61,10.88,11.42,15.99l5.71,7.99c.36.39.76.77,1.14,1.14,1.39,1.33,3.54,1.67,3.43,4.57.39.38.78.74,1.14,1.14,2.86,3.13,3.54,4.84,5.71,7.99.59.86.77,1.71,1.14,2.28l4.57,5.71c.42.34.74.81,1.14,1.14.36.31,1.07.76,1.14,1.14.07.37-.09.79,0,1.14l103.95,135.29c1.84,1.92,3.55,4.29,6.16,5.26,1.94.72,21.55,2.05,9.82,5.05-5.44,1.39-13.37,2.04-18.38-1.06l-54.73-73.73ZM235.81,547.49c-2,2.03-16.92-18.53-15.98-19.39,2.36-2.17,17.27,18.09,15.98,19.39ZM197.01,299.14c14.11-6.5,34.97-4.13,50.23-2.86-.86,3.73-9.4,5.6-10.27,7.41-.23.49,4.05.64,2.07,3.81-.43.69-12.57,7.38-14.18,8.06-13.93,5.82-29.04,5.71-43.11,12.85-2.69,1.36-6.61,6.66-9.83,7.33-2.95.61-5.84-.76-10.95.45-10.58,2.5-30.69,18.23-37.34,18.05-5.65-.15-13.65-4.84-20.27-3.17l24.07-23.3c18.54-11.24,35.84-23.56,58.14-25.78-5.12,8.26-13.91,14.09-16.57,23.94,7.5-8.22,17.86-22.12,28.01-26.79ZM288.37,257.99c3.11,2.3,4.9,5.35,6.83,8.59,2.09,3.49,4.39,5.64,4.07,10.32-.19,2.81-8.88,15.48-11.18,16.29-7.06,2.5-18.83-5.86-28.29-7.2-1.05-.15-4.34.27-4.57,0-.46-.52.03-7.65.51-9.2.28-.91,11.06-13.86,12.05-14.78-6.85,5.88-13.46,8.89-18.5,17.46-1.08,1.83-1.87,7.29-2.18,7.52-1.62,1.22-21.3,1.36-22.7.13-3.63-3.17,27.59-24.43,30.59-25.92,3.84-1.91,24.29-9.22,15.08-.33,7.57-6.7,8.56-10.06,18.29-2.88ZM354.58,287.13c18.74-2.05,28.33,10.65,14.5,24.95l-35.06-15.81c-2.54.3-17.4-4.11-19.82-5.87-3.15-2.29-5.39-6.26-5.3-10.11.42-18.39,13.88-39.89,34.67-28.39,2.9,1.61,22.56,30.42,22.42,32.39-.15,2.19-12.6-2.06-11.41,2.84ZM375.12,339.65c-6.93,2.76-10.03,8.72-18.23,3.96-1.73-1.01-1.87-3.58-3.13-3.96-7.08-2.11-18.38,3.17-24.59,2.29-.55-.08-6.05-7.06-7.7-7.97,4.04-.52,10.96,1.58,13.69-2.28-4.43,1.55-19.38-9.47-19.38-12.01,0-2.4,10.91-10.23,15.28-9.68,7.65.97,44.1,12.99,50.32,17.13,1.84,1.22,6.23,4.34,6.31,6.81-7.18-.91-13.35-1.7-20.55.02l7.98,5.68ZM308.95,320.87c-11.76,8.71-26.36-4.15-33.15-13.18-3.05,3.58,2.31,10.36,2.24,11.37-.17,2.53-11.68,1.64-12.54,4.61h16.56c.67,0,8.6,5.54,11.74,6.53,5.57,1.76,12.18,1.19,17.27,3.28,1.95.8,14.18,10.98,13.77,12.4-2.4,8.26-19.26,8.14-24.51,13.19-2.65,2.55-3.98,7.33-6.81,10.32-2.2,2.32-16.6,17.26-17.78,17.69-2.32.85-5.31-1.46-7.96-1.75-3.93-.43-7.8.07-11.87-1.26-7.11-2.33-19.89-22.29-17.83-30.7-2.22,1.74.11,7.49-5.45,4.3-1.19-.68-15.22-21.34-15.62-22.65-2.03-6.6,8.29-9.49,13.09-12.49,4.38-2.73,16.17-13.65,21.13-4.57,1.62,2.97-1.35,8.7,2.26,9.13,4.09-7.15,9.08-5.71,15.43-9.11-6.66,1.39-15.31-2.22-19.95-6.88-1.5-1.51,16.99-8.25,19.69-8.82,5.81-1.22,16.75-2.08,22.58-1.49,8.54.87,30.96,10.27,17.71,20.08ZM274.61,394.96c-1.32,3.68-5.45.73-6.82.65-8.39-.46-8.21.8-12.54-7.44,4.12.57,8.48.73,12.54,1.73,2.01.49,8.24,1.08,6.82,5.06ZM169.58,345.39c.57.46-3.8,6.3-3.31,7.86.03.11,1.61.16,2.12.98,36.95,58.92,89.51,111.54,126.01,171.21,12.39,4.18,26.28,12.26,39.32,13.78,2.82.33,8.82-2.76,10.56.27-8.1,1.27-24.74,15.83-31.5,16.01-1.59.04-20.11-9.76-21.64-11.37-3.63-3.84-5.84-12.99-9.17-18.23-36.94-58.11-84-110.24-123.34-166.71-8.24-7.16-11.9.55-21.01-.12,4.37-7.05,11.98-13.1,20.54-13.68-8.46,10.7,10.12-1.04,11.43,0ZM178.75,336.81c-.26-6.46,28.81-11.21,33.68-10.82-.63,7.5-33.42,17.3-33.68,10.82ZM352.26,544.65c1.74-2.07,38.39-19.44,44.59-22.82,25.48-13.91,54.75-37.41,83.95-34.89,2.62.23,19.94,3.81,21.09,4.61,2.06,1.41-.9,2.16-1.44,2.63-7.52,6.49-22.76,13.37-31.68,19.06-16.13,10.3-29.48,19.48-46.82,28.55-10.35,5.41-21.39,9.9-31.97,14.85-5.67,2.65-17.31,10.45-22.57,11.21-4.09.59-3.71-.9-5.97-2.08-5.82-3.02-12.64-16.99-9.17-21.12ZM318.61,650.26c-7.36-8.12-18.08-13.12-25.7-21.68,12.12,1.04,16.86,8.88,23,17.58,1.09,1.55,3.12,1.69,3.25,1.85.13.16.42,2.4-.55,2.25ZM374,639.98c-1.02,1.07-27.55,5.85-29.02,5.69-4.38-.46-7.82-5.65-6.47-9.57.54-1.56,16.23-4.06,19.2-4.87,1.69-.46,1.19-2.77,2-2.67,1.58.2,17.73,7.82,14.3,11.41ZM376.29,614.28c-.48-1.68,8.68-5.81,9.99-6.05,1.57-.29,6.38.07,7.01,1.05,3.57,5.58-13.9,15.73-17,5ZM557.84,520.09c-3.33,10.18-17.91,25.76-25.6,11.31-2.89-5.43,2.33-12.14-4.09-11.31-5.77,2.37-8.5.56-13.68-1.73,7.21,5.05,9.84,13.73,15.96,20,4.97,1.11,11.57,12.48,4.07,11.46-.68-.09-5.43-9.98-7.5-11.46-6.13.13-17.66,4.22-23.28,3.14-1.38-.27-3.59-3.75-4.11-3.14-2.48,2.87,5.31,5.29,5.69,8.58.27,2.32-2.38,9.39-3.42,11.98-.84,2.08-2.69,7.55-4.52,8.52-.94.5-3-.68-4.56,0-5.56,2.37-8.76,4.37-13.76,7.48-5.1,3.17-12.81,14.33-17.64,3.31-.8-1.83-.32-3.64-.63-4.46-1.3.9-6.6.91-6.85,1.15-.21.2,1.06,3.64,1.14,5.7.38,10.09-2.18,5.24-6.85,9.14-1.67,1.4-4.33,3.2-4.57,3.43-5.49,5.03-3.84,8.79-14.85,13.7-1.25.56-.53,1.4-4.57,2.28-5.83,1.28-16.95-.43-22.08-3.4-1.21-.7-.97-.99-.76-2.31-11.6-2.73-23.67-2.72-33.12-11.42-.39-.36-.74-.78-1.14-1.14-.63.64-14.86,4.17-17.12,5.73,2.79,2.78,9.8,6.01,11.96,9.14,2.07,2.99,1.04,4.96,1.73,6.83.99,2.69,6.32,9.87.65,10.23-6.05.39-2.49-5.2-4.08-10.23-1.65-5.2-10.28-11.24-15.53-11.43-2.14-.08-4,1.67-6.17,2.29-15.23,4.37-36.44,11.1-50.52,17.21-2.63,1.14-7.07,6.12-11.15,5.63.19.14-.32,1.98.06,2.25.69.49,2.84-1.83,6.26-.07,3.03,1.56,4.78,6.47,6.25,8.09.33.36,3.19.32,3.43,2.28,2.87,2.02,3.79,4.3,5.71,6.85,1.18,1.56,1.19,1.23,2.28,3.43.39.78.94,1.37,1.14,2.28.05.23,1.77,1.22,1.11,2.72-2.02,4.59-19.47,1.16-23.59-1.95-3.18-2.4-20.38-28.89-20.86-32.25-.44-3.08,9.26-2.47,11.36-2.78,15.36-2.3,28.12-8.04,43.39-12.56l100.51-49.65c27.63-16.79,55.66-33.01,83.34-49.7.81-.49,1.65-.76,2.28-1.14,9.71-5.84,24.45-18.22,34.04-22.74,1.11-.52,5.4-1.7,5.92-1.23,1.13,1.02-15.06,23.28-18.26,23.96,7.85-1.43,8.09-8.64,16.82-5.97,3.37,1.03,19.41,11.58,20.94,14.5,2.11,4.03-.19,4.3-1.23,7.46ZM572.02,508.77c1.01,1.69,2.38,2.07.65,3.86-6.79,7.03-12.15-3.33-17.19-6.74-3.67-2.48-18.81-9.54-18.02-13.5.23-1.14,10.12-17.2,12.37-15.69.76.51,6.41,13.8,8.2,16.36,3.66,5.24,11.43,11.4,13.99,15.7ZM531.29,457.01c1.08.41,3.76-.31,6,.27-4.05-4.74-11.97-8.99-17.12-12.54,11.02-6.43,23.87-5.26,30.67,6.41,7.84,13.44-6.76,7.92-13.55,6.13,2.53,2.96,4.93,5.93,2.35,9.79-1.1,1.64-30.95,21.63-32.9,21.96-6.26,1.07-30.34-9.84-39.1-5.48l46.77-34.94c5.98-1.75,11.98,6.55,16.88,8.4ZM491.42,418.7c1.2.73,16.72,21.14,16.84,22.54.68,7.5-23.01,8.56-24.7,2.69-1.14-3.95,5.51-19.56,4.7-25.42,1.01-.05,2.22-.38,3.16.19ZM440.51,370.46c6.71,5.34,9.17,20.18,18.83,11.8,5.08-4.41-3.29-.9-6.25-2.29-2.37-1.11-5.54-4.39-1.45-4.91-3.78-1.82-34.39-19.96-35.27-21.84-1.04-2.22,6.99-9.09,9.47-9.07,3.15.04,21.56,5.93,24.09,8.06,2.72,2.28,12.81,20.93,10.84,22.85-.38.37-7.3-.23-9.14,0,5.08,2.44,10.04,2.16,14.12,4.72,3.11,1.95,19.27,26.87,17.85,28.39-.82.88-3.72-2.24-3.38,2.79.25,3.65,3.8,4.77,4.53,9.15.67,4.05-3.05,19.75-6.25,22.36-4.83,3.94-22.36,3.95-28.01,10.22,13.2-1.56,26.96-7.56,36.51,5.15-12.2,12.08-24.67,8.48-39.94,7.44,2.6,2.32,22.04,4.82,22.83,5.71,1.9,2.16-31.94,21.51-34.64,23.02-18.59,10.39-42.72,24-61.99,32.79-12.33,5.62-28.47,14.72-40.4,3.56-2.54-2.38-2.66-3.75-3.43-6.85-1.16-4.68-.08-16.61-4.65-15.51-10.83,2.62-.19,15.9,1.19,22.95-2.72.42-4.86-1.74-6.82-2.87-1.4-.81-2.14-1.22-3.43-2.28-2.6-2.14-3.56-3.2-5.71-5.71-4.42-5.15-9.52-13.66-13.7-19.41-.61-.84-.81-1.82-1.14-2.28-.3-.42-.84-.72-1.14-1.14-3.46-4.89-7.84-9.22-10.28-14.85-1.93-2.4-10.39-13.24-11.52-14.17-2.73-2.25-16.81-5.23-13.61-8.65.51-.55,12.8-2.08,14.85-2.29,1.3-.13,5.47.27,5.72,0,3.12-3.24-2.56-19.04-3.43-22.85h-2.28c.94,2.06,3.96,13.23,3.42,13.69-5.74,4.95-18.71-17.77-21.69-21.69-19.52-25.63-38.86-51.4-58.06-77.26-2.56-4.24-1.56-5.94,2.1-8.39,1.25-.83,8.84-3.92,10.31-2.94,11.48,22.65,29.58,41.41,43.36,62.32l.63-1.1c1.72,1.7,7.83,1.85,8.51,2.24,4.99-.13,12.27-4.47,16.57-4.65,6.32-.26,16.23,4.61,24.54,1.21.19-2.77.3-1.97-1.69-2.28-4.7-.74-10.51.06-15.36-1.78-.57-.22-8.17-5.15-8.06-5.63.85-3.6,37.82-30.14,43.71-33.94,5.65-3.66,14.19-9.56,20.98-9.94,8.79-.49,18.2,8.19,26.12,6.89,2.72-.45,1.39-3.15,3.96-5.26,7.75-6.35,46.32-1.33,31.98,14.26,9.74-2.95,28.1,4.22,35.69,10.26ZM397.98,308.84c1.1-1.3,8.69,3.49,10.31,5.09,14.02,13.76-8.29,13.82-10.28,4.57-.27-1.25-.34-9.29-.03-9.66ZM342.34,232.03c1.69-2.68,1.36-12.41,8.26-8.94,12.61,19.02,33.01,39.5,43.75,59.11,2.45,4.47,5.14,13.7-3.51,12.77-.95-.1-16.67-7.13-17.46-7.79-7.7-6.45-19.88-32.94-27.93-41.73-2.67-2.91-8.81-4.74-9.14-5.14-1.34-1.65,5.11-6.81,6.04-8.27ZM267.79,231.17c-.59-3.54-15.88-4.86-14.83-7.39,3.9-9.42,33.93-15.21,42.3-12.63,5.29,1.63,6.56,8.89,9.76,10.78,2.71,1.6,6.29,1.11,9.59,2.4-.24-4.47,15.21-5.67,16.64-3.49.27.42,2.83,9.05,2.73,9.62-.55,3.27-2.96,7.31-5.78,9.18-7.1,4.72-4.02-4.77-8-10.09-1.37-1.84-3.16-1.62-3.3-1.79,1.3,2.94,5.15,12.72,4.42,15.24-.48,1.66-8.68,6.27-10.68,6.33-1.36.04-23.75-7.06-26.01-8.13-2.72-1.29-4.44-5.2-7.11-5.46-4.61-.44,3.98,6.85-2.09,11.08-1.52,1.06-11.88,3-13.84,2.66-1.45-.25-16.58-13.31-16.69-14.41-.81-8.49,17.72-4.25,22.9-3.89ZM201.92,214.98c4.65-2.32,17.78-7.89,22.49-7.24,2.75.38,17.8,7.78,18.21,10.4.17,1.11-14.11,13.33-15.61,16.23-6.71-.63-53.1,10.12-55.14,8.22-5.49-5.08,26.1-25.64,30.05-27.61ZM150.8,254.07c4.92-1.72,33.36-3.1,35.92-1.18.6.45-4,6.05-5.09,6.89-3.78,2.89-47.85,11.97-49.72,10.22-2.22-2.08,16.28-15.02,18.89-15.93ZM123.39,280.34c8.82-11.07,52.63-11.01,66.74-17.2-5.85-1.9-3.09-3.72.58-6.83,18.17-15.41,41.61-12.02,61.09-1.13-8.19,7.45-17.95,12.81-26.79,19.44-5.03,3.77-9.63,10.43-14.86,13.69-10.59,6.6-51.9,18.76-62.69,13.53-8.62-4.18.46-6.93,5.54-9.02,9.04-3.71,18.94-4.55,28-7.95-9.59.97-19.49.91-29.01,2.37-4.8.74-8.98,4.21-14.91,4.53-8.24.45-21.72-1.33-13.68-11.43ZM111.47,302.68c12.96-6.89,39.21-4.04,22.07,14.08-7.52,7.95-35.21,6.24-46.17,10.34-1.61-1.61,20.97-22.76,24.1-24.42ZM79.48,336.92c11.92-7.86,28.98-6.27,42.14-10.94-6.13,4.86-24.36,30.47-29.74,32.55-1.28.5-26.49-1.82-27.36-2.89-1.41-1.73,12.55-17.14,14.95-18.72ZM134.77,451.56c-1.56-.78-18.78-23.83-21.61-27.5-13.1-16.98-25.33-34.81-38.34-51.88-.85-2.15,3.37-2.53,4.22-2.47,7.46.53,12.6,15.33,16.32,20.19,1.89,2.46,4.91,6.67,6.85,9.14,12.16,15.44,31.84,28.94,34,49.95.12,1.17.82,3.69-1.44,2.57ZM137.6,420.73c-3.45,3.84-13.05-20.16-12-22.81,3.22,1.72,12.86,21.84,12,22.81ZM146.76,447c1.99,2.36,26.7,30.7,25.1,31.97-8.62,6.83-28.14-23.07-25.1-31.97ZM168.45,483.55c4.26.7,8.75-2.66,11.88,1.24l49.8,67.82c3.48,1.78,28.01,23.06,25.1,25.71-2.28,2.07-20.91-4.26-23.27-8.12l-63.5-86.65ZM61.94,454.13c7.77-1.55,19.91,1.48,25.97,6.6,5,4.23,18.76,23.61,6.76,25.06-7.03.85-13.02-8.55-18.19-12.48-2.94-2.24-21.13-14.15-21.06-15.46.04-.89,5.22-3.46,6.52-3.72Z" fill="#727272"/>
    <path d="M622.36,516.75c24.38-.5,21.96-34.99-.85-29.48-14.75,3.56-25.86,30.03.85,29.48ZM622.63,491.81c12.43-2.51,9.55,7.26,1.5,11.77-15.98,8.97-11.59-9.74-1.5-11.77Z" fill="#727272"/>
    <path d="M779.75,976.24c-4.16,1.96,5.86,5.37,8.14,5.81-.72-5.32-5.64-4.38-8.14-5.81Z" fill="#727272"/>
    <path d="M214.58,958.8c1.83,1.91,3.61.03,4.65,0,1.38-4.86,5.77-8.26,9.3-11.63-6.57,1.58-11.12,5.49-13.95,11.63Z" fill="#727272"/>
    <path d="M590.77,889.03c-3.44-1.73-2.73,5.41-8.39,6.71-4.64,1.06-10.61-.21-15.44.24,6.67-7.31,20.87-11.73,23.63-22.29,8.58-32.88-38.4-27.83-37.65-7.3.24,6.64,9.05,5.99,10.36,3.84,1.76-2.9-3.3-13.82,7.73-13.83,7.78-.01,8.58,8.39,7.49,14.53-1.91,10.83-28.24,25.55-26.6,31.3,1.63,5.73,31.83,1.63,38.2,4.13.11-3.59,4.32-15.49.67-17.33Z" fill="#727272"/>
    <path d="M538.72,926.03c-3.4-.91-12.23-15.63-12.02-19.01.59-9.48,23.21-11.89,17.58-21.49-6.57-11.22-19.66,16.25-21.52,15.11-.61-.37-4.37-10.16-6.5-12.7-14.1-16.81-27.64,6.07-23.75,10.38,3.02,3.34,5.48-9.16,12.77-5.22,1.73.94,8.97,15.35,9.01,17.63.18,11.84-25.4,16.78-18.31,25.42,6.93,8.44,18.03-15.75,20.97-18.04.74-.57,1.63-.18,2.39.7,1.94,2.27,3.7,8.88,6.93,12.62,16.52,19.18,29.46-11.57,27.87-13.33-1.97-2.17-6.97,10.2-15.42,7.93Z" fill="#727272"/>
    <path d="M458.67,854.26l-12.79,1.78c-8.54,11.83-31.83,70.8-41.43,75.74-2.17,1.12-11.37,1.3-7.29,6.07.75.88,3.59-1.13,4.06-1.16,9.45-.45,19.04.33,28.49,0-.64-5.7-7.99-1.5-8.23-8.7-.09-2.63,6.03-16.66,7.58-16.96,3.09-.61,27.46-.22,29.17,1.21,1.61,1.36,6.07,16.78,5.28,19.08-.62,1.81-14.69,1.07-9.39,6.53,1.26,1.29,31.26-2.97,36.05-1.16-2.89-4.54-5.06-6.42-7.53-11.65-9.9-21.01-14.84-48.92-23.98-70.78ZM432.04,904.14c.22-3.05,12.67-29.84,14.52-29.08,1.42.59,7.01,25.82,9.9,29.08h-24.42Z" fill="#727272"/>
    <path d="M179.66,977.34c-.02-.15-.06-.33-.12-.52-.09.19-.06.37.12.52Z" fill="#727272"/>
    <path d="M435.07,749.56c5.22,1.01,5.5-6.93,3.94-8.23-3.45-2.88-9.51,7.16-3.94,8.23Z" fill="#727272"/>
    <path d="M880.98,996.71c-1.13,7.22,27.63,9.17,23.04.6-1.89-3.54-21.96-7.55-23.04-.6Z" fill="#727272"/>
    <path d="M742.38,771.72c-3.17-5.03-26.25,3.01-21.4,11.48,4.84,8.44,26.32-3.67,21.4-11.48Z" fill="#727272"/>
    <path d="M273.89,818.08c.92-.9-.04-7.03-4.06-5.8-5.24,1.61.3,9.46,4.06,5.8Z" fill="#727272"/>
    <path d="M282.02,783.2c-.87-.81-7.4,1.27-6.96,4.04.67,4.21,9.61-1.59,6.96-4.04Z" fill="#727272"/>
    <path d="M596.85,717.17c-7.82,2.36-2.71,11.19,5.3,8.81,7.37-2.19,4.62-11.8-5.3-8.81Z" fill="#727272"/>
    <path d="M200.67,912.82c6.62,3.12,5.52-4.82,3.17-7.23-5.41-5.54-9.93,4.05-3.17,7.23Z" fill="#727272"/>
    <path d="M137.83,1016.92c.89,1.35,20.1,4.42,20.92.58,1.02-4.77-24.01-5.24-20.92-.58Z" fill="#727272"/>
    <path d="M858.84,1002.42c-1.65,5.19,8.76,4.58,9.3,4.05,4.16-4.1-7.71-9.04-9.3-4.05Z" fill="#727272"/>
    <path d="M750.69,1019.24c2.82,4.91,18.34,1.38,13.95-3.45-1.4-1.54-17.01-1.87-13.95,3.45Z" fill="#727272"/>
    <path d="M240.22,811.74c20.42-3.35,26.3-17.91,9.63-31.83-8.74-7.3-23.67-16.61-35.3-13.61-1.99.51-12.65,8.89-13.57,10.26-11.41,16.9,24.5,37.6,39.24,35.18ZM251.62,795.14c-.8,2.8-5.61,4.28-7.8,2.98-.44-.26-1.61-5.39-4.17-6.87-6.65-3.85-11.59-.61-18.71-10.36-19-26,34.75-.02,30.68,14.25Z" fill="#727272"/>
    <path d="M886.66,960.47c-6.23,5.44-1.78,12.88-2.24,13.44-.57.68-16.88,4.19-17.44,3.5-.91-1.13,7.63-11.33,5.55-18.92-1.02-3.74-20.09-28.45-24.11-29.42-8.09-1.94-22.89,8.32-28.75,8.49-12.38.36-12.47-19.12-15.16-27.37-3.73-11.46-10.44-34.86-18.92-42.72-1.26-1.17-18.35-12.76-19.47-13.09-5.52-1.63-49.32,7.11-56.12,9.67-7.12,2.68-19.65,24.3-23.93,18.04-2.69-3.93,1.64-30.78-1.76-37.62,16.42-6.89,14.12-28.51,12.96-43.33-.16-2.08-2.13-1.68-2.23-2.26-.28-1.62,1.65-5.95-.51-8.4-1.84-2.09-13.01-3.53-12.47-6.69l51.16-43.62-54.38,25.38c-4.2,1.85-13.4-6.22-14.79-6.38-2.15-.25-14.72,2.82-18.04,3.08,23.53-20.66,7.87-27.55-16.27-24.98,2.31-3.71,18.45-21.17,18.62-23.25.16-1.95.13-1.9-1.78-1.78-7.47.48-30.96,29.31-37.47,30.11-8.03.98-30.89-23.94-40.41-24.13-3.33-.07-22.08,8.48-26.6,10.5-7.13,3.18-24.48,14.45-29.51,15.87-4.94,1.39-12.63-1.97-18.02-1.74-10.53.46-14.24,6.99-21.58,9.8-11.65,4.45-41.15,7.59-53.74,6.15-3.51-.4-8.16-1.34-11.63-2.33-19.76-5.59-1.62-5.24-1.05-13.37.54-7.88-5.31-9.55-11.81-8.87l-6.93,2.46s.01,0,.02.01c.42.49-.71,12.33-1.16,12.79-.91.92-9.06-1.36-8.13-4.65-8.99.83-15.05-1.45-25.58,1.16l-3.49,2.33c-1.05,1.59-.16,4.11-4.14,4.67-8.75,1.23-33.47-17.16-42.76-22.31-2.58-1.43-31.32-17.19-20.22-7.69,6.89,5.9,40.59,28.01,42.25,33.44.58,1.89.13,3.4-.57,5.14-5.89,4.71-26.59-12.54-28.61-12.11-1.57.34-.45,4.96.49,6.49,1.64,2.7,7.61,4.47,8.21,5.18,3.23,3.8-4.4.91-4.63,1.14-1.22,1.25,3.47,4.45,2.31,5.8-3.35,3.92-38.04-7.23-45.35-4.63,4.87,5,48.26,15.49,48.84,18.03.61,2.69-11.23,5.71-13.97,10.43-3.62,6.24-2.69,34.77.34,41.57,2.27,5.09,11.31,7.6,11.31,8.46v38.96c-10.07-2.15-15.53-14.47-26.24-16.19-4.91-.79-29.12,3.45-33.76,5.66-4.74,2.26-17.55,26.5-19,32.12-2.75,10.64.09,16.08,2.25,26.09-18.4-2.16-37.32-4.2-55.76-4.01-10.04,6.54-22.59,29.84-20.7,41.52.97,5.99,8.85,10.65-.95,12.41-9.13,1.64-16.16.36-26.72,3.52-12.14,3.62-19.39,11.11-28.19,15.14-.97.44-18.06,2.75-14.2,5.84,29.62-.85,59.27,3.05,88.82-.13,4.67-.5,9.74-4.09,14.02-3.36,3,.51,6.75,5.57,10.79,6.74,6.56,1.9,29.62-.65,31.72,2.6,2.47,3.81-10.88,4.46-12.77,6.98l10.99,2.35c166.32-4.42,333.68,5.76,499.9.66,2.6-.08,13.56-.61,14.73-1.28,4.71-2.68.82-12.25,1.31-13.87,1.22-4.03,13.93-.5,17.81-.66,10.25-.43,16.7-7.05,26.69-5.8,17.12,2.14,26.25,14.72,46.53,5.68,5.51-2.46,9.17-10.34,15.26-10.26,1.65.02,2.71,2.11,4.38,2,1.77-.11,12.68-7.32,18.18-8.56,17.01-3.83,29.22,1.13,43.62.68,17.64-.55,14.16-16.04,5.77-25.51-6.75-7.62-23.46-7.16-30.79-.75ZM703,890.18c1.17-5.43,7.03-14,11.96-16.53,5.93-3.05,40.66-12.37,46.23-10.84,1.02.28,16.65,10.02,17.98,11.09,12.45,10.08,15.68,41.9,19.19,56.98,1.39,4.42,3.17,8.69,3.46,13.41.14,2.26,1.24,3.92-1.67,4.01-2.25.07-15.77-3.77-19.97-4.47-2.88-.48-7.51.54-9.48-.42-1.17-.57-9.31-16.06-10.72-18.35-1.65-2.69-3.34-7.31-4.65-9.3-.68-1.04-1.67-2.64-2.33-3.49-5.11-1.02-8.11-4.16-10.47-8.14-.4-.21-7.63-3.3-8.14-3.49-12.3-4.5-9.75-1.45-19.02-1.2-6.09.16-13.9-2.23-12.38-9.27ZM693.01,909.95c3.76-8.25,34.04-1.62,41.36.6,19.55,5.93,18.08,23.42,28.65,37.71.52,2.78-11.85,8.77-12.34,8.2-.31-.36-1.37-6.55-2.33-9.3-5.87.01,3.76,8.04-2.89,6.97-.94-.15-10.47-10.41-14.88-11.88-4.74-1.58-11.12-.24-15.18-2.31-2.27-1.16-1.72-3.06-1.95-3.25-3.31-2.77-21.56-24.32-20.45-26.75ZM689.17,931.57c2.33-18.67,14.59,5.1,17.32,8.62,1.68,2.17,8.6,3.76-3.49,4.65-10.62.79-15.23-2.01-13.83-13.27ZM674.77,776.81c-.7,7.06-15.92.49-19.46-1.78,1.71-12.37,20.37-7.43,19.46,1.78ZM641.37,754.12c-5.97,3.22-4.51.83-5.81-1.16-12.06-18.43,22.45-9.62,5.81,1.16ZM637.25,777.44c.56.86,2.52,9.25.04,9.25-4.9,0-35.2,1.14-36.63,0-4.35-3.46,31.19-17.54,36.59-9.25ZM620.43,750.04c1.92-1.3.25,1.19.48,1.4,1.4,1.27,5.97,5.63,6.45,6.83.54,1.37-4.89,6.86-6.72,2.04-.61-1.6-1.36-9.08-.21-10.27ZM525.92,744.76c6.29-5.79,32.84-11.29,41.02-18.09l51.14,40.82c-.11,3.86-17.2.71-19.74-.58,2.8,7.25-5.83,4.06-10.47,3.49-4.36-.54-7.42-1.19-11.62-2.32-.39,4.59,16.44,13.65,9.7,16.13-5.25,1.93-7.31-3.9-11.21-5.9-7.4-3.8-17.64-.67-14.74-13.04,2.46-10.49,13.04,3.85,15.08,1.64,1.95-2.11-9.33-11.83-10.5-12.27-3.39-1.27-10.18,5.21-14.32,4.97-3.02-3.16-25.77-8.4-26.27-9.7-.57-1.49.69-4.01,1.93-5.15ZM552.85,774.93c-4.32,2.67-9.74-6.79-6.88-8.62,5.35-3.42,10.61,6.31,6.88,8.62ZM501.89,751.15c6.01.79,28.91,15.21,29.7,21.02.93,6.78-20.11,6.21-23.96,6.37-4.62.19-9.32-.14-13.95,0,1.73,6.51,6.03,2.3,7.57,2.32,3.35.05,8.71,1.27,12.19,1.16,9.4-.29,19.25-3.77,26.1-3.52,6.14.22,14.31,4.39,20.41,5.86-1.07,1.95-6.63,2.21-8.67,2.35-9.6.68-21.07.08-30.86-.04-1.94-.02-2.2-1.16-2.33-1.16-1.55-.04-3.1.05-4.65,0-1.92-.07-6.35,0-8.72,0h-20.35c-.12,0,.28-1.74-.82-2.33-4.24-2.28-10.64-6.19-10.81-11.63-.29-9.54,20.23-21.59,29.15-20.42ZM429.72,771.57c1.24-1.17,32.7-8.42,30.22,3.47-5.97-1.97-10.72,3.28-15.53,3.4-1.77.04-17.77-3.95-14.69-6.87ZM421.58,775.06c.64-.81,15.78,5.17,19.76,5.81,7.68,1.23,17.7.06,23.62,1.66,1.57.42,5.13,1.66,4.28,4.15-11.69-1.38-23.66.11-35.37-1.28-1.97-.23-4.78-.47-4.16-3.36-4.23.46-11.86-2.29-8.13-6.97ZM406.37,769.16c-.4.52-11.1,3.59-12.75,1.87l-17.39-13.42c4.86-2.66,36.53,3.09,30.14,11.54ZM387.86,779.71c.3-.21,6.77,2.04,6.97,2.34,1.6,2.42-5.82,5.73-6.97,4.62-.48-.46,1.21-2.58,1.05-2.95-.11-.26-3.93-2.06-1.05-4.01ZM367.74,751.03c6.22,1.91-3.18,7.96-4.3,6.57-1-1.24-1.86-8.46,4.3-6.57ZM338.05,773.61c2.08-3.81,3.26-2.82,6.78-3.21,6.8-.75,19.43.79,24.42,5.81,1.53,1.54,5.48,6.2,3.49,8.13-1.23,1.19-29.63-1.54-34.22,1.04-2.46-.78-1.3-10.26-.47-11.78ZM328.53,776.23c1.78,1.09,1.53,12.39-7.01,7.59-3.16-1.78,3.62-9.66,7.01-7.59ZM301.87,830.8c-1.18-.99-2.98-27.85-2.37-30.71.85-3.95,6.21-5.95,9.83-6.45l368.72-.03c5-.76,9.83,4.19,9.83,8.78v26.17c-78.85,3.22-158.23,3.19-237.23,2.33-1.16-.01-2.33.02-3.49,0-5.41-.07-10.88.18-16.28,0-1.55-.05-3.11.08-4.65,0-.39-.02-.78.03-1.16,0-2.41-.16-5.14.42-7.47-.08-6.22-1.34-21.59-21.63-22.77-28.99-2.01.13-8.4-.46-8.15,2.85.5,6.69,13.95,19.33,15.11,23.34.78,2.72-1.47,1.33-2.31,1.72-.72.33-1.3,1.05-2.33,1.16-12.06,1.3-10.43-10.65-14.11-19.04-.7-1.59-5.39-10.04-6.24-10.04h-70.36v20.35c0,.38,4.01,4.47,3.41,6.89-.54,2.17-7.16,2.46-7.99,1.75ZM657.65,916.94c.69-.6,16.27-1.4,16.27,4.06,0,4.08,1.05,28.61,0,29.65-.53.53-15.12.76-15.12,0v-29.65c0-.4-2.03-3.31-1.16-4.06ZM657.56,845.38c.73-4.46,16.36-4.4,16.36,1.2v63.96c-1.09,2.92-13.47,2.72-14.92-1.36l-1.45-63.79ZM650.68,912.29c-22.21,2.25-.73,3.96-.08,4.71.99,1.16.42,28.63-.17,30.51-.62,1.98-1.95,2.7-3.87,3.11-6.26,1.34-25.58.32-33.1.04-4.11-.16-5.14,0-9.3-1.16-.88-.25-1.73-.37-2.33-1.16h-1.16c-.18.76.55,2.36-.59,2.33h-218.64c-6.6-.93-19.14-17.39-23.82-23.26-1.1-1.39-3.01-2.2-4.65-4.65-5.11-7.64-2.74-6.71-3.49-15.12-.07-.76.06-1.56,0-2.33-1.67-21.71-.19-43.46-2.33-65.12h292.47c4.14,0,10.22,6.75,10.98,11.11,3.04,17.33-2.13,42.77.07,60.99ZM369.24,950.65c-.36.3-7.54-.01-9.3,0-2.18.02-7.35,1.02-9.24-1.3-.66-.81-1.95-18.09-2.37-20.8,3.18.84,3.45,3.96,4.64,5.81,1.02-.03,1.58.67,2.33,1.16,2.45,1.61,2.96,2.5,4.65,4.65,1.93.5,2.46,2.48,3.49,3.49.39.38.79.76,1.16,1.16.62.67,6.44,4.33,4.65,5.81ZM337.85,851.81c2.34,20.49.19,41.13,2.32,61.63-1.56-.97-7.84-.87-8.12-1.17-2.31-2.5-2.07-65.13-.13-67.92.82-1.18,1.47-.53,2.44-.68,4.75-.7,5.37-.12,4.65,4.65-.08.51-.66.99-1.16,1.16-.08.69-.08,1.63,0,2.33ZM332.03,918.09c2.04-.78,8.14.86,8.14,2.91,0,4.08,1.06,28.62,0,29.65-1.48,1.45-8.14-.93-8.14-4.07v-28.49ZM314.6,843.67c5.18,2.54,1.08,11.12,1.15,13.95.21,8.88,2.41,17.54-.58,26.76-.98-8.82-.7-17.89-.58-26.76.06-4.64-.06-9.32.01-13.95ZM315.78,943.08c.24-1.04,2.22-.67,2.29-.57,2.42,3.92.87,20.85-2.11,12-.18-.54-.31-10.88-.17-11.44ZM313.96,960c122.19,3.07,245.6-1.51,367.61-1.12,4.7-10.99,7.93-4.63,12.56,1.81,3.54,4.92,9.3,8.8-2.14,9.78l-398.34-2.39c4.88-13.79,11.27-8.31,20.3-8.08ZM285.52,930.89c-3.62-1.54-2.47-1.48-4.65-3.49-.9-.83-1.53-1.09-2.33-2.33-5.43-8.42.04-6.86,5.81-2.33,3.8,1.07,11.25,4.22,11.65,8.71.31,3.52-8.74.17-10.49-.57ZM288.3,911.13c10.69,1.19,17.31,18.21,6.96,12.32-1.84-1.05-11.51-6.67-12.01-7.16-3.93-3.83,1.25-5.58,5.05-5.16ZM254.02,875.84c1.89-2.83,16.91-4.36,19.91-1.35,1.53,1.53.79,3.48,1.13,4.06,1.25,2.13,10.38,18.71,9.29,19.76-.36.35-3.35-1.15-4.93-.89-5.63.94-12.42,4.77-17.15,3.22-8.34-2.72-12.43-18.54-8.24-24.81ZM239.66,888.97c4.93-.85,19.33,18.39,17.86,22.58-1.97,5.6-24.36-3.68-25.35-5.23-1.83-2.88,6.54-17.19,7.49-17.35ZM119.99,996.93c-1.68-.37-2.04-1.21-3.09-2.09-1.35-1.12-2.93-1.48-2.4-3.99.19-.9,12.04-8.12,12.87-1.82,1.01,7.7.72,9.69-7.37,7.9ZM157.09,990.2c-1.02,1.68-23.04,6.69-23.91,5.81-.3-.3-.13-7.36.23-8.5,1.98-6.29,29.43-6.81,23.68,2.69ZM179.7,977.39s-.02-.04-.04-.05c.51,4.78-18.84-8.98-20.96-13.25-1.08-2.17-3.1-9.7,1.22-8.79-3.82,11.06,15.89,15.3,18.07,18.57.85,1.28,1.34,2.24,1.55,2.94.27-.59,1.55-1.18,2.47-.56.87.58-1.07,1.97-2.31,1.14ZM166.9,949.49c-1.08.74-7.7,5.02-8.14,4.64-.67-.58,7.05-15.25,8.15-15.77,3.02-1.42,7.25,3.65,9.3,5.32,17.85,14.49,2.73,11.33-9.3,5.81ZM218.06,998.33c-.45.5-3.57-1.11-4.64-1.16.76,5.62-17.4,3.68-18.68,2.93-1.11-.66-.79-2.09-1.09-2.93-1.46-3.99,4.65-6.86,8.74-7.05,2.79-.13,19.12,4.34,15.67,8.2ZM197.73,963.45c4.82-1.01,6.06,13.02-2.22,10.39-3.82-1.21.92-10.12,2.22-10.39ZM248.3,999.5c-5.73,5.01-5.08,5.42-12.79,6.98-1.41.28-1.96,1.66-4.92,1.14-.37-.07-5.63-4.45-5.54-5.22.05-.39,4.43-3.8,5.81-5.22.12-.12-.31-1.42.79-2.38,4.99-4.33,11.43-5.82,17.82-3.43,9.82,3.68,1.97,5.4-1.16,8.14ZM238.35,972.71c-9.04.59-14.23-8.97-20.02-11.32-1.66-.68-4.3.03-4.91-.27-13.07-6.44-26.56-21.37-38.38-30.22,20.44-.32,40.92,2.63,59.3,11.63-.12,2.39-4.31,1.49-5.59,2.57-.58.49-.06,1.92-.21,2.07,5.3-1.27,18.22-2.41,23.82-2.42,2.57,0,25.42,1.25,21.53,5.9-.35.42-8.82,2.38-10.46,3.5-5,6.07-17.3,18.06-25.08,18.57ZM725.09,1007.05c-.45,1.89-.71,2.79-2.91,2.91h-314.56c-14.87-.45-12.03-5.42-16.28-16.28-2.62.91-5.74-6.98-7.56-6.98h-22.68c6.74,7.37,17.21,11.65,17.44,23.25-7.75-3.81-10.82-11.09-18.23-16.06-3.71-2.49-19.02-10.16-23.02-10.7l-56.18,1.95c-5.12,2.38.24,19.95-5.45,18.99-8.98-1.51-4.29-31.8.61-34.83,3.76-2.33,4.5,4.03,5.73,5.22,4.45,4.28,12.11,2.71,17.99,4.1l404.65.02c3.6-2.58-.92-11.28-.47-11.7,3.03-2.78,19.68,4.52,20.84,11.11.61,3.45.78,26.03.08,29ZM740.23,955.88c-.18,1.01-2.65,1.1-3.51,1.75-1.91,1.46-4.11,3.9-6.92,2.94-.63-.22-9.88-7.28-10.55-8.15-4.67-6.1-1.59-4.4,1.19-5.26.75-.23,1.8-1.14,2.33-1.16,7.59-.4,8.96.95,13.95,5.81.8.78,4.28-.2,3.51,4.06ZM766.95,993.68c-.89.8-7.92-.19-9.76-1.28-.75-.45-12-11.6-12.43-12.36-4.77-8.56,6.91-8.46,13.62-2.2,1.81,1.69,10.34,14.24,8.57,15.84ZM822.78,987.87c-8.59,3.95-29.65,9.8-25.58-5.81-3.16.42-6.14.62-9.3,0,.78,5.74-1.76,2.44-3.73,3.55-1.12.62-1.05,2.16-1.69,2.27-4.14.75-7.93-3.49-4.19-5.62-2.73,1.1-10.26-8.53-4.33-8.33l-13.95-11.61c6.83-1.82,17.5-10.74,24.1-11.39,5.28-.52,26.06,9.36,30.94,12.73,6.26,4.33,24.73,24.63,7.75,24.23ZM851.25,986.7c-2.29,1.06-1.65-2.21-1.78-2.27-.51-.24-10.53,5.64-10.39.54.03-1.07,13.96-5.03,15.08-4.06.78.67-1.8,5.28-2.92,5.8ZM851.85,966.94c-.39.3-.77.8-1.16,1.16-.36.34.71,2.22-.59,2.34-2.17.19-2.44-2.17-2.89-2.34-10.11-3.7-20.05-6.14-26.75-15.12-.82-1.09-6.55.03.09-6.3,4.5-4.29,20.24-12.93,26.37-10.38,2.36.98,15.19,23.16,15.17,25.62-.04,5.04-6.06,1.81-10.23,5.01ZM915.81,976.23c-.59.57-15.63,1.14-16.32.69-.63-.42-5.81-13.34-5.68-14.08.55-3.13,12.18-3.21,15.45-1.57,3.75,1.88,8.29,13.28,6.54,14.96Z" fill="#727272"/>
    <path d="M776.27,825.05c1.94,1.95,7.75-3.84,5.8-5.8-1.94-1.95-7.75,3.84-5.8,5.8Z" fill="#727272"/>
    <path d="M838.47,908.78c-5.69-12.16-31.54,2.5-21.08,12.38,8.72,8.23,26.06-1.74,21.08-12.38ZM822.79,912.3c2.43.1,5.84-4.58,8.18-3.02,3.22,2.14,2.49,19.73-6.33,4.56-.43-.74-2.34.21-1.85-1.55Z" fill="#727272"/>
    <path d="M740.83,933.22c1.07-1.44-.65-1.12-.62-1.18l-6.98,2.33c.46-.06,4.65,2.82,7.6-1.15Z" fill="#727272"/>
    <path d="M763.44,819.93c7.05,1.68,11.23-13.82-1.47-9.74-5.24,1.69-3.5,8.56,1.47,9.74Z" fill="#727272"/>
    <path d="M941.03,983.4c-7.14,1.64-3.69,11.69,2.53,7.79,1.46-.91,2.88-9.03-2.53-7.79Z" fill="#727272"/>
    <path d="M859.16,916.17c.14,2.06,5.32,13.83,7.05,15.47,14.71,14,40.98-.36,28-20.44-9.6-14.85-35.79-5.84-35.05,4.97ZM888.93,914.25c1.39,6-15.11,9.04-19.37,7.05-.62-.29-3.93-5.72-3.82-7.21.62-7.88,21.16-8.59,23.19.16Z" fill="#727272"/>
    <path d="M682.8,731.25c-17.87.87-21.2,23.38-.42,19.1,12.76-2.63,14.92-19.81.42-19.1ZM687.88,739.02c3.2,4.68-17.84,7.13-10.93,1.04,1.47-1.29,9.73-2.8,10.93-1.04Z" fill="#727272"/>
    <path d="M718.29,824.06c-3.47,5.59,5.56,10.11,8.57,4.5,3.82-7.12-7.23-6.66-8.57-4.5Z" fill="#727272"/>
    <path d="M797.98,772.36c13.04-17.01-15.92-22.12-26.19-5.85-2.26,3.57-5.52,9.35-1.03,12.41,8.61,5.88,21.46.95,27.22-6.57ZM785.58,773.9c-1.76-1.39-.7-17.14,6.94-13.44,7.05,3.42-2.98,16.57-6.94,13.44Z" fill="#727272"/>
  </g>
</svg>