<?xml version="1.0" encoding="UTF-8"?>
<svg id="a" data-name="Слой 1" xmlns="http://www.w3.org/2000/svg" viewBox="0 0 1060.66 1069.92">
  <defs>
    <style>
      .b {
        font-size: 173.73px;
      }

      .b, .c, .d, .e, .f, .g, .h {
        fill: #8a8a8a;
      }

      .b, .d, .e, .f, .g {
        font-family: ComicSansMS, 'Comic Sans MS';
        isolation: isolate;
      }

      .i {
        opacity: .3;
      }

      .d {
        font-size: 119.18px;
      }

      .e {
        font-size: 81.97px;
      }

      .j {
        opacity: .15;
      }

      .f {
        font-size: 142.27px;
      }

      .g {
        font-size: 252.59px;
      }

      .h {
        stroke: rgba(0, 0, 0, 0);
        stroke-dasharray: 24 36;
        stroke-linecap: round;
        stroke-miterlimit: 12;
        stroke-width: 13.5px;
      }
    </style>
  </defs>
  <g class="i">
    <path class="c" d="M48.49,332.95l704.77-55.88,56.05,706.95-704.77,55.88"/>
    <path class="h" d="M48.49,332.95c213.98-16.97,427.99-33.93,704.77-55.88M753.26,277.08c14.91,187.99,29.81,375.95,56.05,706.95M809.31,984.03c-177.22,14.05-354.48,28.11-704.77,55.88M104.54,1039.91c-13.58-171.24-27.16-342.52-56.05-706.95"/>
  </g>
  <path class="c" d="M54.16,329.39c-.08-.66-.25-1.28-.52-1.85,0,0,0,0,0,0,0,0,0,0,0,0-.39-.83-.97-1.56-1.67-2.12-.68-.54-1.47-.94-2.33-1.15-.64-.16-1.3-.21-1.99-.15-.7.06-1.36.25-1.96.53,0,0,0,0,0,0,0,0,0,0,0,0,0,0,0,0-.01,0-.83.39-1.55.96-2.12,1.66,0,0,0,0,0,0,0,0,0,0,0,0-.55.68-.95,1.47-1.16,2.34,0,0,0,0,0,0,0,0,0,0,0,0-.15.61-.2,1.24-.15,1.89,4.96,66.35,9.72,133.17,14.33,197.8,13.26,186.21,25.79,362.08,41.61,507.71.07.67.25,1.3.51,1.89.38.82.93,1.54,1.61,2.1.68.57,1.48.98,2.35,1.21.48.12.98.19,1.49.19.16,0,.33,0,.5-.02,0,0,0,0,.01,0,.71-.06,1.37-.24,1.98-.52,0,0,0,0,0,0,.83-.38,1.56-.95,2.13-1.64,0,0,0,0,0,0,0,0,0,0,0,0,.53-.64.93-1.4,1.15-2.22,0,0,0,0,0,0,.17-.63.24-1.3.2-1.99-20.18-321.5-32.73-512.83-55.95-705.64Z"/>
  <g>
    <path class="c" d="M35.23,195.09c3.71-.31,6.47-3.57,6.16-7.29-.72-8.67-1.34-16.47-1.87-23.85-.27-3.72-3.51-6.51-7.22-6.24-3.72.27-6.51,3.5-6.24,7.22.54,7.43,1.16,15.28,1.88,23.99.29,3.52,3.25,6.19,6.72,6.19.19,0,.38,0,.57-.02Z"/>
    <path class="c" d="M30.94,135.26c3.72-.16,6.61-3.31,6.45-7.03-.37-8.55-.58-16.32-.65-23.76-.03-3.71-3.05-6.69-6.75-6.69-.02,0-.04,0-.06,0-3.73.03-6.72,3.08-6.69,6.81.07,7.59.29,15.51.66,24.21.16,3.63,3.14,6.46,6.74,6.46.1,0,.2,0,.29,0Z"/>
    <path class="c" d="M52.52,307.18c-.78-8.21-1.55-16.17-2.29-23.89-.36-3.71-3.65-6.43-7.36-6.07-3.71.36-6.43,3.65-6.07,7.36.74,7.72,1.5,15.68,2.29,23.88.33,3.49,3.27,6.11,6.71,6.11.21,0,.43-.01.65-.03,3.71-.35,6.43-3.65,6.08-7.36Z"/>
    <path class="c" d="M40.72,254.82c3.71-.35,6.43-3.65,6.08-7.36-.78-8.25-1.53-16.21-2.24-23.87-.34-3.71-3.62-6.44-7.34-6.1-3.71.34-6.44,3.63-6.1,7.34.71,7.68,1.46,15.64,2.24,23.91.33,3.49,3.27,6.11,6.71,6.11.21,0,.43-.01.65-.03Z"/>
  </g>
  <path class="c" d="M749.59,181.12c-3.87-40.1-8.25-85.56-10.71-133.64-.03-.66-.17-1.3-.4-1.89,0,0,0,0,0,0-.35-.9-.91-1.69-1.62-2.32,0,0,0,0,0,0,0,0,0,0,0,0-.63-.56-1.39-.98-2.21-1.24-.62-.19-1.27-.28-1.95-.26-.73.02-1.42.18-2.06.44-.79.32-1.5.8-2.07,1.41,0,0,0,0,0,0,0,0,0,0,0,0,0,0,0,0,0,0-.63.66-1.11,1.46-1.39,2.36-.19.62-.29,1.28-.27,1.96,1.55,65.7,3.02,127.76,17.98,226.71.08.6.25,1.17.5,1.7.37.81.91,1.51,1.57,2.06.68.58,1.49,1,2.38,1.23.48.12.98.19,1.49.19.17,0,.35,0,.53-.02.7-.06,1.36-.24,1.97-.52.82-.37,1.53-.92,2.1-1.6.57-.68,1-1.49,1.22-2.37.14-.55.21-1.13.18-1.73-.62-24.02-3.67-55.74-7.21-92.47Z"/>
  <path class="c" d="M968.33,107.28c-.04-.3-.07-.59-.11-.89-.68-9.95-1.27-19.02-1.82-27.42-1.2-18.29-2.23-34.08-3.52-49.4-.04-.59-.17-1.15-.37-1.68,0,0,0,0,0,0-.33-.89-.87-1.68-1.55-2.3-.61-.56-1.34-1-2.15-1.27-.64-.22-1.34-.33-2.05-.31-.7.01-1.37.15-2,.39-.85.32-1.61.83-2.22,1.48-.6.63-1.07,1.4-1.35,2.25-.18.55-.28,1.13-.3,1.72-.97,25.26,1.67,47.37,5.38,77.68,2.43,35.55,5.98,82.26,12.57,149.08.06.67.23,1.3.49,1.89,0,0,0,0,0,0h0c.34.76.83,1.43,1.43,1.98.7.64,1.55,1.12,2.5,1.37.5.13,1.02.2,1.55.2.14,0,.28,0,.42-.01.69-.05,1.35-.21,1.96-.47.84-.36,1.58-.91,2.17-1.59,0,0,0,0,0,0,.57-.67,1-1.46,1.24-2.32.17-.6.24-1.23.21-1.89-2.89-69.93-8.21-113.49-12.48-148.5Z"/>
  <path class="c" d="M757.46,273.75c-.05-.57-.18-1.1-.38-1.61,0,0,0,0,0,0,0,0,0,0,0,0-.44-1.11-1.19-2.06-2.15-2.72,0,0,0,0,0,0h0s0-.01-.01-.01c0,0,0,0,0,0-.49-.34-1.03-.6-1.6-.79h-.02s0,0-.01,0c0,0,0,0-.02,0,0,0-.01,0-.02,0,0,0,0,0-.02,0h-.01s0,0,0,0c-.71-.21-1.46-.3-2.24-.23-.73.06-1.43.26-2.06.56-.79.38-1.49.92-2.04,1.59,0,0,0,0,0,0h0s0,.01,0,.01c0,0,0,0,0,0,0,0,0,0,0,0,0,0,0,0,0,0-.51.62-.89,1.34-1.12,2.13h0s0,.02,0,.02c-.19.67-.27,1.39-.21,2.13,7.02,90.78,13.06,180.35,18.91,266.97,12.02,178.05,22.39,331.82,37.26,441.36.08.62.25,1.21.5,1.76.37.81.91,1.51,1.57,2.07.68.58,1.5,1.01,2.39,1.24.48.12.97.19,1.48.19.17,0,.33,0,.5-.02.73-.06,1.43-.25,2.06-.55.79-.37,1.48-.91,2.03-1.56.57-.67.99-1.47,1.22-2.34.16-.59.22-1.21.19-1.84-5.45-138.36-24.35-376.68-56.16-708.32Z"/>
  <g>
    <path class="c" d="M999.09,528.13c3.71-.34,6.44-3.63,6.1-7.34l-2.21-23.91c-.34-3.71-3.64-6.45-7.34-6.1-3.71.34-6.44,3.63-6.1,7.34l2.21,23.91c.32,3.5,3.27,6.13,6.71,6.13.21,0,.42,0,.63-.03Z"/>
    <path class="c" d="M993.57,468.36c3.71-.34,6.44-3.63,6.1-7.34l-2.21-23.91c-.34-3.71-3.62-6.43-7.34-6.1-3.71.34-6.44,3.63-6.1,7.34l2.21,23.91c.32,3.5,3.27,6.13,6.71,6.13.21,0,.42,0,.63-.03Z"/>
    <path class="c" d="M977.26,288.91c3.71-.33,6.46-3.6,6.13-7.31-.7-7.97-1.39-15.93-2.08-23.89-.32-3.71-3.62-6.47-7.31-6.14-3.71.32-6.46,3.59-6.14,7.31.69,7.96,1.38,15.93,2.08,23.9.31,3.51,3.25,6.16,6.72,6.16.2,0,.4,0,.6-.03Z"/>
    <path class="c" d="M1004.57,587.91c3.71-.34,6.45-3.62,6.11-7.33-.72-7.92-1.45-15.9-2.19-23.91-.34-3.71-3.61-6.45-7.34-6.11-3.71.34-6.45,3.62-6.11,7.34.73,8.01,1.46,15.98,2.19,23.91.32,3.5,3.26,6.14,6.71,6.14.21,0,.41,0,.62-.03Z"/>
    <path class="c" d="M988.05,408.54c3.71-.34,6.45-3.63,6.11-7.34-.73-7.97-1.46-15.96-2.19-23.95-.34-3.71-3.62-6.44-7.33-6.11-3.71.34-6.45,3.62-6.11,7.34.73,8,1.46,15.98,2.19,23.96.32,3.5,3.26,6.13,6.71,6.13.21,0,.42,0,.62-.03Z"/>
    <path class="c" d="M982.6,348.7c3.71-.33,6.45-3.62,6.12-7.33-.72-7.97-1.44-15.94-2.15-23.92-.33-3.71-3.61-6.45-7.32-6.12-3.71.33-6.45,3.61-6.12,7.32.71,7.98,1.43,15.95,2.15,23.93.32,3.51,3.26,6.14,6.71,6.14.2,0,.41,0,.61-.03Z"/>
    <path class="c" d="M1009.93,647.7c3.71-.33,6.46-3.61,6.13-7.32-.7-7.91-1.42-15.89-2.14-23.92-.33-3.71-3.6-6.45-7.33-6.12-3.71.33-6.45,3.61-6.12,7.33.72,8.03,1.43,16,2.14,23.91.31,3.51,3.26,6.15,6.72,6.15.2,0,.4,0,.6-.03Z"/>
    <path class="c" d="M1027.65,887.14c.12,0,.25,0,.37,0,3.72-.2,6.58-3.38,6.38-7.1-.41-7.65-.88-15.74-1.39-24.02-.23-3.72-3.48-6.56-7.15-6.33-3.72.23-6.55,3.43-6.33,7.15.5,8.25.97,16.3,1.38,23.93.19,3.6,3.17,6.39,6.73,6.39Z"/>
    <path class="c" d="M1036.1,916.1c-.15-3.73-3.32-6.61-7.01-6.48-3.73.15-6.63,3.29-6.48,7.01.33,8.32.59,16.37.78,23.91.09,3.67,3.1,6.58,6.75,6.58.06,0,.12,0,.17,0,3.73-.09,6.67-3.19,6.58-6.92-.19-7.6-.46-15.71-.79-24.1Z"/>
    <path class="c" d="M1024.38,827.2c3.72-.26,6.52-3.48,6.27-7.2-.54-7.85-1.12-15.84-1.72-23.98-.27-3.72-3.51-6.52-7.23-6.23-3.72.27-6.51,3.51-6.24,7.23.6,8.12,1.17,16.1,1.72,23.92.25,3.56,3.21,6.28,6.73,6.28.16,0,.32,0,.47-.02Z"/>
    <path class="c" d="M1015.11,707.5c3.71-.32,6.47-3.58,6.15-7.3-.67-7.9-1.35-15.88-2.05-23.93-.32-3.71-3.6-6.47-7.31-6.14-3.71.32-6.46,3.59-6.14,7.31.7,8.05,1.38,16.02,2.05,23.91.3,3.52,3.25,6.18,6.72,6.18.19,0,.38,0,.58-.02Z"/>
    <path class="c" d="M1019.98,767.33c3.72-.29,6.49-3.54,6.2-7.26-.62-7.88-1.26-15.86-1.92-23.95-.3-3.72-3.55-6.49-7.28-6.18-3.71.3-6.48,3.56-6.18,7.28.66,8.08,1.3,16.05,1.92,23.92.28,3.54,3.23,6.22,6.72,6.22.18,0,.36,0,.54-.02Z"/>
  </g>
  <path class="c" d="M979.36,256.5c-.1-.79-.34-1.53-.71-2.19,0,0,0,0,0,0,0,0,0,0,0,0,0,0,0,0,0,0,0,0,0,0,0,0,0,0,0,0,0,0,0,0,0,0,0,0-.26-.46-.57-.88-.94-1.26h0s0,0,0,0c0,0,0,0,0,0,0,0,0,0,0,0,0,0,0,0,0,0,0,0,0,0,0,0,0,0,0,0,0,0-.81-.82-1.85-1.4-3-1.65,0,0,0,0,0,0,0,0,0,0,0,0h0c-.62-.13-1.27-.17-1.93-.1-16.56,1.79-33.05,3.32-51.58,4.85-16.67,1.23-34.02,2.3-51.86,3.4-38.02,2.34-77.33,4.76-115.94,9.14-.67.07-1.29.25-1.87.52h0c-.83.39-1.55.95-2.12,1.64,0,0,0,0,0,0-.55.67-.96,1.47-1.17,2.33h0s0,0,0,0c-.16.64-.22,1.32-.15,2.02.06.68.24,1.33.51,1.92.4.89,1.02,1.66,1.77,2.25.66.51,1.42.89,2.24,1.1.47.12.95.18,1.45.18.16,0,.32,0,.48-.02,32.05-2.41,58.92-4.37,82.63-6.09,34.52-2.52,61.39-4.47,84.99-6.43,18.23-1.35,35.65-2.9,52.03-4.9.65-.08,1.26-.26,1.82-.52.88-.41,1.64-1.03,2.21-1.78h0s0,0,0,0,0,0,0,0c0,0,0,0,0,0,0,0,0,0,0,0,.49-.65.86-1.4,1.05-2.21.17-.68.22-1.41.13-2.15Z"/>
  <path class="c" d="M962.83,31.08c-.09-.67-.29-1.3-.57-1.88-.4-.8-.96-1.49-1.65-2.03,0,0,0,0,0,0-.72-.57-1.57-.97-2.48-1.17-.61-.13-1.25-.16-1.89-.09-10.53,1.09-20.63,2.28-31.33,3.53-3,.35-6.03.71-9.1,1.06-19.19,1.68-40.22,3-64.12,4.5-33.21,2.09-70.84,4.45-118.5,8.58-.65.05-1.28.21-1.85.45-.84.35-1.58.89-2.16,1.56-.59.66-1.03,1.46-1.27,2.33-.18.63-.26,1.3-.22,2,.04.71.21,1.39.48,2.01.35.83.89,1.55,1.54,2.13.65.57,1.43,1.01,2.28,1.26.54.16,1.1.24,1.68.24.09,0,.17,0,.26,0,95.1-3.4,143.05-8.46,183.09-13.12,14.41-1.26,27.83-2.73,40.72-4.63.66-.09,1.28-.29,1.84-.57.82-.41,1.53-1,2.08-1.72.52-.68.9-1.47,1.09-2.32.15-.68.19-1.39.09-2.12Z"/>
  <path class="c" d="M753.58,274.71h0s0-.01,0-.01c0,0,0,0,0,0,0,0,0,0,0,0,0,0,0,0,0-.01,0,0,0,0,0,0-.33-.72-.79-1.36-1.35-1.89,0,0,0,0,0,0,0,0,0,0,0,0,0,0,0,0,0,0s0,0,0,0c-.71-.67-1.59-1.16-2.56-1.41,0,0,0,0-.01,0-.6-.16-1.24-.23-1.89-.18-168.27,9.84-439.83,29.52-697.32,55.29-.65.06-1.26.23-1.83.48,0,0,0,0,0,0,0,0,0,0-.01,0,0,0,0,0,0,0,0,0,0,0,0,0-.82.36-1.53.9-2.1,1.56h0s0,0,0,.01c0,0,0,0,0,0,0,0,0,0,0,0,0,0,0,0,0,.01h0c-.55.65-.97,1.43-1.2,2.27t0,0s0,0,0,.01c0,0,0,0,0,0,0,0,0,0,0,0-.19.68-.25,1.4-.19,2.14,0,0,0,0,0,0h0c.07.72.26,1.4.55,2.02,0,0,0,0,0,0,0,0,0,0,0,.01h0s0,.01,0,.01c.3.62.7,1.18,1.19,1.66,0,0,0,0,0,0h0s0,.01,0,.02c0,0,0,0,0,0,.78.76,1.76,1.31,2.85,1.56.43.1.88.15,1.34.15.13,0,.27,0,.4-.01,240.83-15.67,479.65-36.4,654-51.53,15-1.3,29.43-2.55,43.22-3.75.61-.05,1.19-.19,1.73-.41.93-.37,1.74-.97,2.36-1.72h0s0,0,0-.01h0s0-.01,0-.01c0,0,0,0,0-.01,0,0,0,0,0,0,.54-.66.94-1.43,1.17-2.27.17-.64.24-1.32.18-2.01-.05-.7-.23-1.37-.5-1.98Z"/>
  <path class="c" d="M808.92,980.3s0,0,0,0c0,0,0,0,0,0-.28-.53-.64-1.02-1.05-1.44,0,0,0,0,0,0h0s0-.01,0-.01c0,0,0,0,0,0h0s0,0,0,0h0s0,0,0-.01c-.75-.74-1.68-1.27-2.71-1.54,0,0,0,0,0,0,0,0,0,0,0,0s0,0-.01,0c-.64-.16-1.31-.22-2-.16-105.67,8.42-198.96,15.43-289.17,22.2-150.71,11.31-280.88,21.08-406.97,33-.68.06-1.33.23-1.92.5-.81.36-1.53.9-2.1,1.56h0s0,0,0,.01c0,0,0,0,0,0,0,0,0,0,0,0-.58.68-1.01,1.48-1.24,2.37-.16.61-.23,1.25-.18,1.9,0,0,0,0,0,.01h0c.05.71.21,1.38.48,1.99.39.91,1,1.7,1.76,2.3,0,0,0,0,0,0,0,0,0,0,0,0,0,0,0,0,0,0t0,0c.61.48,1.31.85,2.08,1.07,0,0,0,0,0,0,0,0,.01,0,.02,0h0c.52.15,1.06.22,1.62.22.13,0,.25,0,.38-.01,251.05-14.35,498.37-33.96,696.37-55.21.62-.06,1.21-.22,1.76-.46,0,0,0,0,0,0,.97-.42,1.8-1.09,2.42-1.92,0,0,0,0,0,0,0,0,0,0,0,0s0,0,0,0t0,0c.43-.58.76-1.25.96-1.96.19-.68.26-1.4.19-2.13-.07-.81-.3-1.57-.66-2.25Z"/>
  <g>
    <path class="c" d="M358.16,71.73l-23.91,2.09c-3.71.32-6.46,3.6-6.14,7.31.31,3.51,3.25,6.16,6.72,6.16.2,0,.4,0,.59-.03l23.92-2.09c3.71-.33,6.46-3.6,6.13-7.31-.32-3.71-3.6-6.46-7.31-6.13Z"/>
    <path class="c" d="M238.61,82.02c-7.95.67-15.92,1.33-23.91,1.99-3.71.31-6.48,3.57-6.17,7.28.29,3.53,3.24,6.19,6.72,6.19.19,0,.37,0,.56-.02,8-.66,15.97-1.32,23.93-1.99,3.71-.31,6.47-3.58,6.16-7.29-.31-3.72-3.58-6.47-7.29-6.16Z"/>
    <path class="c" d="M59.04,95.98c-7.98.56-15.96,1.11-23.95,1.65-3.72.25-6.53,3.47-6.28,7.19.24,3.56,3.21,6.3,6.73,6.3.15,0,.31,0,.46-.02,8-.54,16-1.09,23.99-1.65,3.72-.26,6.52-3.49,6.26-7.21-.26-3.72-3.48-6.52-7.21-6.26Z"/>
    <path class="c" d="M298.39,76.93c-7.94.69-15.91,1.37-23.91,2.05-3.71.32-6.47,3.59-6.15,7.3.3,3.52,3.25,6.18,6.72,6.18.19,0,.39,0,.58-.02,8-.68,15.98-1.37,23.92-2.06,3.71-.32,6.46-3.59,6.14-7.31-.32-3.71-3.6-6.47-7.31-6.14Z"/>
    <path class="c" d="M178.79,86.94c-7.97.64-15.96,1.28-23.97,1.9-3.72.29-6.49,3.54-6.2,7.26.28,3.54,3.23,6.22,6.72,6.22.18,0,.36,0,.54-.02,8.01-.63,16.01-1.27,23.99-1.91,3.72-.3,6.49-3.55,6.19-7.27s-3.55-6.48-7.27-6.19Z"/>
    <path class="c" d="M118.91,91.61c-7.97.6-15.96,1.2-23.96,1.79-3.72.27-6.51,3.51-6.24,7.23.26,3.55,3.22,6.26,6.72,6.26.17,0,.33,0,.5-.02,8.01-.59,16-1.19,23.99-1.79,3.72-.28,6.5-3.52,6.22-7.24-.28-3.72-3.53-6.49-7.24-6.22Z"/>
    <path class="c" d="M537.55,56.21c-7.92.66-15.9,1.32-23.93,2-3.71.31-6.47,3.58-6.16,7.29.3,3.52,3.25,6.18,6.72,6.18.19,0,.38,0,.58-.02,8.03-.68,16-1.35,23.91-2,3.71-.31,6.48-3.57,6.17-7.28-.31-3.72-3.59-6.48-7.28-6.17Z"/>
    <path class="c" d="M724.41,49.56c-.21-3.72-3.38-6.57-7.12-6.36-7.9.45-15.9.92-24,1.43-3.72.23-6.55,3.44-6.32,7.16.22,3.58,3.19,6.33,6.73,6.33.14,0,.28,0,.42-.01,8.08-.5,16.05-.98,23.93-1.42,3.72-.21,6.57-3.4,6.36-7.12Z"/>
    <path class="c" d="M657.32,46.99c-7.91.55-15.9,1.11-23.97,1.7-3.72.27-6.51,3.5-6.24,7.22.26,3.55,3.22,6.26,6.73,6.26.16,0,.33,0,.5-.02,8.05-.59,16.03-1.15,23.92-1.7,3.72-.26,6.53-3.48,6.27-7.2-.26-3.72-3.49-6.53-7.2-6.27Z"/>
    <path class="c" d="M477.74,61.27c-7.93.68-15.9,1.37-23.92,2.07-3.71.32-6.46,3.6-6.14,7.31.31,3.52,3.25,6.17,6.72,6.17.2,0,.39,0,.59-.03,8.02-.7,15.99-1.39,23.91-2.07,3.71-.32,6.47-3.59,6.15-7.3-.32-3.71-3.6-6.47-7.3-6.15Z"/>
    <path class="c" d="M597.41,51.39c-7.91.61-15.9,1.24-23.95,1.89-3.72.3-6.49,3.55-6.19,7.27.28,3.53,3.24,6.21,6.72,6.21.18,0,.36,0,.55-.02,8.04-.64,16.01-1.27,23.91-1.88,3.72-.29,6.5-3.53,6.21-7.25-.29-3.72-3.53-6.5-7.25-6.21Z"/>
    <path class="c" d="M417.94,66.48l-23.91,2.1c-3.71.33-6.46,3.6-6.13,7.31.31,3.51,3.26,6.16,6.72,6.16.2,0,.4,0,.6-.03l23.91-2.1c3.71-.33,6.46-3.6,6.13-7.31-.33-3.71-3.61-6.46-7.31-6.13Z"/>
  </g>
  <g>
    <path class="c" d="M851,971.88c-8.22.52-16.21.91-23.77,1.16-3.73.12-6.65,3.25-6.52,6.97.12,3.65,3.12,6.52,6.74,6.52.08,0,.15,0,.23,0,7.69-.26,15.82-.66,24.17-1.18,3.72-.23,6.55-3.44,6.31-7.16-.23-3.72-3.45-6.54-7.16-6.31Z"/>
    <path class="c" d="M1030.44,955.72c-7.6.25-15.52.66-24.22,1.26-3.72.26-6.52,3.48-6.26,7.2.25,3.56,3.21,6.28,6.73,6.28.16,0,.32,0,.48-.02,8.53-.59,16.29-1,23.72-1.24,3.73-.12,6.65-3.24,6.53-6.96-.12-3.73-3.22-6.66-6.96-6.53Z"/>
    <path class="c" d="M910.47,966.62c-8.86.94-16.64,1.73-23.79,2.41-3.71.35-6.44,3.64-6.08,7.35.33,3.5,3.27,6.12,6.71,6.12.21,0,.43,0,.64-.03,7.21-.68,15.04-1.47,23.95-2.42,3.71-.39,6.39-3.72,6-7.43-.39-3.71-3.72-6.41-7.43-6Z"/>
    <path class="c" d="M970.14,960.15c-8.69.88-17.35,1.83-23.92,2.55-3.71.41-6.38,3.74-5.97,7.45.38,3.46,3.3,6.01,6.7,6.01.25,0,.5-.01.75-.04,6.55-.72,15.17-1.66,23.81-2.54,3.71-.38,6.41-3.69,6.03-7.4-.38-3.71-3.67-6.41-7.4-6.03Z"/>
  </g>
  <text class="f" transform="translate(325.56 236.72) rotate(-4.53)"><tspan x="0" y="0">b</tspan></text>
  <text class="f" transform="translate(407.68 225.84) rotate(-4.53)"><tspan x="0" y="0">a</tspan></text>
  <text class="g" transform="translate(330.12 775.6) rotate(-4.53)"><tspan x="0" y="0">a</tspan></text>
  <text class="f" transform="translate(899.52 641.16) rotate(-4.53)"><tspan x="0" y="0">b</tspan></text>
  <text class="f" transform="translate(810.35 646.05) rotate(-4.53)"><tspan x="0" y="0">a</tspan></text>
  <text class="b" transform="translate(467.85 631.23) rotate(-4.53)"><tspan x="0" y="0">2</tspan></text>
  <text class="d" transform="translate(807.17 216.03) rotate(-4.53)"><tspan x="0" y="0">b</tspan></text>
  <text class="e" transform="translate(868.81 148.75) rotate(-4.53)"><tspan x="0" y="0">2</tspan></text>
  <g class="j">
    <path class="c" d="M729.95,45.96l225.23-17.94,17.91,226.94-225.23,17.94"/>
    <path class="h" d="M729.95,45.96c68.38-5.45,136.78-10.89,225.23-17.94M955.18,28.02c4.76,60.35,9.53,120.68,17.91,226.94M973.09,254.96c-56.64,4.51-113.29,9.02-225.23,17.94M747.86,272.89c-4.34-54.97-8.68-109.95-17.91-226.94"/>
  </g>
</svg>