<!--
    Generated by Nuxt module "My Icons" v1.2.2 at 2026-02-27T06:45:16.836Z
    https://github.com/Gwynerva/nuxt-my-icons

    by Gwynerva
    https://github.com/Gwynerva

    Have fun!
-->
<svg xmlns="http://www.w3.org/2000/svg">
    <symbol id="__missing" viewBox="0 0 384 512">
        <path d="M64 390.3L153.5 256 64 121.7l0 268.6zM102.5 448l179.1 0L192 313.7 102.5 448zm128-192L320 390.3l0-268.6L230.5 256zM281.5 64L102.5 64 192 198.3 281.5 64zM0 48C0 21.5 21.5 0 48 0L336 0c26.5 0 48 21.5 48 48l0 416c0 26.5-21.5 48-48 48L48 512c-26.5 0-48-21.5-48-48L0 48z" />
    </symbol>
    <symbol id="array-check" viewBox="0 0 24 24">
      <path d="M4,22c-.55,0-1.02-.2-1.41-.59s-.59-.86-.59-1.41V7c0-.28.1-.52.29-.71s.43-.29.71-.29.52.1.71.29.29.43.29.71v13h13c.28,0,.52.1.71.29s.29.43.29.71-.1.52-.29.71-.43.29-.71.29H4ZM8,4v12V4ZM21.41,2.59c-.39-.39-.86-.59-1.41-.59h-12c-.55,0-1.02.19-1.41.59-.39.39-.59.86-.59,1.41v12c0,.55.19,1.02.59,1.41.39.39.86.59,1.41.59h12c.55,0,1.02-.2,1.41-.6.39-.39.59-.86.59-1.41V4c0-.55-.2-1.02-.59-1.41ZM20,15.99h-12V4h12v12ZM18.84,7.29c0,.24-.09.45-.26.63l-5.4,5.41c-.18.17-.39.26-.62.26s-.44-.09-.62-.26l-2.53-2.53c-.18-.18-.26-.39-.25-.64,0-.24.1-.44.27-.62.34-.34.91-.34,1.25,0l1.88,1.9,4.78-4.78c.34-.34.9-.34,1.24,0,.17.18.26.39.26.63h0Z"/>
    </symbol>
    <symbol id="array-lines" viewBox="0 0 24 24">
      <path d="M11,14h2c.28,0,.52-.1.71-.29s.29-.43.29-.71-.1-.52-.29-.71-.43-.29-.71-.29h-2c-.28,0-.52.1-.71.29s-.29.43-.29.71.1.52.29.71.43.29.71.29ZM11,11h6c.28,0,.52-.1.71-.29s.29-.43.29-.71-.1-.52-.29-.71-.43-.29-.71-.29h-6c-.28,0-.52.1-.71.29s-.29.43-.29.71.1.52.29.71.43.29.71.29ZM11,8h6c.28,0,.52-.1.71-.29s.29-.43.29-.71-.1-.52-.29-.71-.43-.29-.71-.29h-6c-.28,0-.52.1-.71.29s-.29.43-.29.71.1.52.29.71.43.29.71.29ZM8,18c-.55,0-1.02-.2-1.41-.59-.39-.39-.59-.86-.59-1.41V4c0-.55.2-1.02.59-1.41.39-.39.86-.59,1.41-.59h12c.55,0,1.02.2,1.41.59s.59.86.59,1.41v12c0,.55-.2,1.02-.59,1.41-.39.39-.86.59-1.41.59H8ZM8,16h12V4H8v12ZM4,22c-.55,0-1.02-.2-1.41-.59s-.59-.86-.59-1.41V7c0-.28.1-.52.29-.71s.43-.29.71-.29.52.1.71.29.29.43.29.71v13h13c.28,0,.52.1.71.29s.29.43.29.71-.1.52-.29.71-.43.29-.71.29H4ZM8,4v12V4Z"/>
    </symbol>
    <symbol id="array-star" viewBox="0 0 24 24">
      <path d="M4,22c-.55,0-1.02-.2-1.41-.59s-.59-.86-.59-1.41V7c0-.28.1-.52.29-.71s.43-.29.71-.29.52.1.71.29.29.43.29.71v13h13c.28,0,.52.1.71.29s.29.43.29.71-.1.52-.29.71-.43.29-.71.29H4ZM21.41,2.59c-.39-.39-.86-.59-1.41-.59h-12c-.55,0-1.02.19-1.41.59-.39.39-.59.86-.59,1.41v12c0,.55.19,1.02.59,1.41.39.39.86.59,1.41.59h12c.55,0,1.02-.2,1.41-.6.39-.39.59-.86.59-1.41V4c0-.55-.2-1.02-.59-1.41ZM20,15.99h-12V4h12v12ZM14,13.04l-2.28,1.38c-.1.07-.21.09-.32.08s-.21-.04-.29-.11-.14-.14-.19-.24c-.04-.09-.06-.2-.03-.33l.6-2.6-2.02-1.75c-.09-.08-.15-.18-.17-.29s-.02-.21.02-.31.09-.18.17-.25.18-.11.3-.13l2.67-.24,1.03-2.45c.04-.11.12-.19.21-.25s.19-.08.29-.08.2.03.29.08.17.13.21.25l1.03,2.45,2.67.24c.13.02.23.06.3.13s.13.14.17.25.04.2.02.31-.08.2-.17.29l-2.02,1.75.6,2.6c.03.12.02.23-.03.33s-.11.18-.19.24-.18.1-.29.11-.22-.02-.32-.08c0,0-2.28-1.38-2.28-1.38Z"/>
    </symbol>
    <symbol id="aside-open" viewBox="0 0 24 24">
      <path d="M12.8,15.28c.2.08.38.04.55-.13l2.45-2.45c.2-.2.3-.43.3-.7s-.1-.5-.3-.7l-2.45-2.45c-.17-.17-.35-.21-.55-.13s-.3.24-.3.48v5.6c0,.23.1.39.3.48ZM5,21c-.55,0-1.02-.2-1.41-.59-.39-.39-.59-.86-.59-1.41V5c0-.55.2-1.02.59-1.41s.86-.59,1.41-.59h14c.55,0,1.02.2,1.41.59.39.39.59.86.59,1.41v14c0,.55-.2,1.02-.59,1.41-.39.39-.86.59-1.41.59H5ZM8,5h-3s0,14,0,14h3s0-14,0-14ZM19,19V5s-9,0-9,0v14s9,0,9,0ZM5,19h3s-3,0-3,0Z"/>
    </symbol>
    <symbol id="asterisk" viewBox="0 0 24 24">
      <path d="M10.25,19.25v-4.2l-3.65,2.1c-.42.23-.86.29-1.33.18s-.82-.39-1.05-.83c-.23-.42-.29-.86-.18-1.33s.38-.82.8-1.05l3.65-2.13-3.65-2.1c-.42-.23-.68-.59-.8-1.06s-.06-.92.18-1.34.58-.68,1.05-.8.91-.06,1.33.18l3.65,2.1v-4.23c0-.48.17-.9.51-1.24s.75-.51,1.24-.51.9.17,1.24.51.51.75.51,1.24v4.23l3.65-2.1c.42-.23.86-.29,1.33-.18s.82.38,1.05.8.29.86.16,1.34-.4.83-.81,1.06l-3.63,2.1,3.65,2.13c.42.23.68.58.8,1.05s.06.92-.18,1.35c-.23.42-.58.68-1.05.8s-.91.06-1.33-.18l-3.65-2.1v4.2c0,.48-.17.9-.51,1.24-.34.34-.75.51-1.24.51s-.9-.17-1.24-.51c-.34-.34-.51-.75-.51-1.24Z"/>
    </symbol>
    <symbol id="bell" viewBox="0 -960 960 960">
        <path d="M200-200q-17 0-28.5-11.5T160-240q0-17 11.5-28.5T200-280h40v-280q0-83 50-147.5T420-792v-28q0-25 17.5-42.5T480-880q25 0 42.5 17.5T540-820v28q80 20 130 84.5T720-560v280h40q17 0 28.5 11.5T800-240q0 17-11.5 28.5T760-200H200Zm280-300Zm0 420q-33 0-56.5-23.5T400-160h160q0 33-23.5 56.5T480-80ZM320-280h320v-280q0-66-47-113t-113-47q-66 0-113 47t-47 113v280ZM120-560q-17 0-28.5-13T82-603q8-75 42-139.5T211-855q13-11 29.5-10t26.5 15q10 14 8 30t-15 28q-39 37-64 86t-33 106q-2 17-14 28.5T120-560Zm720 0q-17 0-29-11.5T797-600q-8-57-33-106t-64-86q-13-12-15-28t8-30q10-14 26.5-15t29.5 10q53 48 87 112.5T878-603q2 17-9.5 30T840-560Z"/>
    </symbol>
    <symbol id="book-outline" viewBox="0 -960 960 960">
        <path d="M240-347q14-7 29-10t31-3h20v-440h-20q-25 0-42.5 17.5T240-740v393Zm160-13h320v-440H400v440Zm-160 13v-453 453Zm60 267q-58 0-99-41t-41-99v-520q0-58 41-99t99-41h420q33 0 56.5 23.5T800-800v501q0 8-6.5 14.5T770-270q-14 7-22 20t-8 30q0 17 8 30.5t22 19.5q14 6 22 16.5t8 22.5v10q0 17-11.5 29T760-80H300Zm0-80h373q-6-14-9.5-28.5T660-220q0-16 3-31t10-29H300q-26 0-43 17.5T240-220q0 26 17 43t43 17Z"/>
    </symbol>
    <symbol id="book-question" viewBox="0 0 24 24">
      <path d="M19.25,17.25c.28-.13.48-.25.59-.36s.16-.23.16-.36V4c0-.55-.2-1.02-.59-1.41s-.86-.59-1.41-.59H7.5c-.97,0-1.79.34-2.47,1.03-.68.68-1.03,1.51-1.03,2.47v13c0,.97.34,1.79,1.03,2.47.68.68,1.51,1.03,2.47,1.03h11.5c.28,0,.52-.1.71-.3.19-.2.29-.44.29-.73v-.25c0-.2-.07-.39-.2-.56-.13-.17-.32-.31-.55-.41s-.42-.26-.55-.49c-.13-.23-.2-.48-.2-.76s.07-.53.2-.75c.13-.22.32-.38.55-.5ZM16.59,19.29c.06.24.14.48.24.71H7.5c-.43,0-.79-.14-1.08-.42s-.42-.64-.42-1.08.14-.77.42-1.06.64-.44,1.08-.44h9.33c-.12.23-.2.47-.25.72s-.08.51-.08.78c0,.28.03.55.09.79ZM18,15H7.5c-.27,0-.53.03-.78.08s-.49.13-.72.25V5.5c0-.42.15-.77.44-1.06s.65-.44,1.06-.44h10.5v11ZM10.77,7.52h-1.54c0-.75.25-1.37.77-1.86.52-.49,1.21-.74,2.07-.74.55,0,1.02.1,1.41.3s.7.5.93.88.35.79.35,1.21c0,.23-.04.46-.11.68s-.19.45-.35.69c-.09.14-.32.37-.67.69-.34.31-.55.53-.64.65s-.16.3-.22.51c-.06.21-.1.5-.11.88h-1.59v-.26c0-.52.09-1,.28-1.43s.5-.83.93-1.2c.41-.36.66-.61.75-.75s.13-.3.13-.48c0-.25-.1-.46-.31-.64-.21-.17-.49-.26-.84-.26s-.65.11-.88.32c-.23.21-.35.48-.35.82ZM11.89,12.08c.29,0,.53.1.73.29.2.2.3.43.3.71s-.1.51-.3.71c-.2.2-.44.3-.72.3s-.52-.1-.72-.3-.3-.43-.3-.71.1-.51.29-.71.43-.29.71-.29Z"/>
    </symbol>
    <symbol id="book" viewBox="0 -960 960 960">
        <path d="M300-80q-58 0-99-41t-41-99v-520q0-58 41-99t99-41h420q33 0 56.5 23.5T800-800v501q0 8-6.5 14.5T770-270q-14 7-22 20t-8 30q0 17 8 30.5t22 19.5q14 6 22 16.5t8 22.5v10q0 17-11.5 29T760-80H300Zm60-280q17 0 28.5-11.5T400-400v-360q0-17-11.5-28.5T360-800q-17 0-28.5 11.5T320-760v360q0 17 11.5 28.5T360-360Zm-60 200h373q-6-14-9.5-28.5T660-220q0-16 3-31t10-29H300q-26 0-43 17.5T240-220q0 26 17 43t43 17Z"/>
    </symbol>
    <symbol id="bookmark-star" viewBox="0 -960 960 960">
      <path d="m389-400 91-55 91 55-24-104 80-69-105-9-42-98-42 98-105 9 80 69-24 104ZM200-120v-640q0-33 23.5-56.5T280-840h400q33 0 56.5 23.5T760-760v640L480-240 200-120Zm80-122 200-86 200 86v-518H280v518Zm0-518h400-400Z"/>
    </symbol>
    <symbol id="box" viewBox="0 -960 960 960">
        <path d="M440-91v-366L120-642v321q0 22 10.5 40t29.5 29L440-91Zm80 0 280-161q19-11 29.5-29t10.5-40v-321L520-457v366Zm159-550 118-69-277-159q-19-11-40-11t-40 11l-79 45 318 183ZM480-526l119-68-317-184-120 69 318 183Z"/>
    </symbol>
    <symbol id="bug" viewBox="0 0 640 640">
        <path d="M224 160C224 107 267 64 320 64C373 64 416 107 416 160L416 163.6C416 179.3 403.3 192 387.6 192L252.5 192C236.8 192 224.1 179.3 224.1 163.6L224.1 160zM569.6 172.8C580.2 186.9 577.3 207 563.2 217.6L465.4 290.9C470.7 299.8 474.7 309.6 477.2 320L576 320C593.7 320 608 334.3 608 352C608 369.7 593.7 384 576 384L480 384L480 416C480 418.6 479.9 421.3 479.8 423.9L563.2 486.4C577.3 497 580.2 517.1 569.6 531.2C559 545.3 538.9 548.2 524.8 537.6L461.7 490.3C438.5 534.5 395.2 566.5 344 574.2L344 344C344 330.7 333.3 320 320 320C306.7 320 296 330.7 296 344L296 574.2C244.8 566.5 201.5 534.5 178.3 490.3L115.2 537.6C101.1 548.2 81 545.3 70.4 531.2C59.8 517.1 62.7 497 76.8 486.4L160.2 423.9C160.1 421.3 160 418.7 160 416L160 384L64 384C46.3 384 32 369.7 32 352C32 334.3 46.3 320 64 320L162.8 320C165.3 309.6 169.3 299.8 174.6 290.9L76.8 217.6C62.7 207 59.8 186.9 70.4 172.8C81 158.7 101.1 155.8 115.2 166.4L224 248C236.3 242.9 249.8 240 264 240L376 240C390.2 240 403.7 242.8 416 248L524.8 166.4C538.9 155.8 559 158.7 569.6 172.8z"/>
    </symbol>
    <symbol id="chevron-right" viewBox="0 -960 960 960">
        <path d="M579-480 285-774q-15-15-14.5-35.5T286-845q15-15 35.5-15t35.5 15l307 308q12 12 18 27t6 30q0 15-6 30t-18 27L356-115q-15 15-35 14.5T286-116q-15-15-15-35.5t15-35.5l293-293Z"/>
    </symbol>
    <symbol id="cog" viewBox="0 0 640 640">
        <path d="M259.1 73.5C262.1 58.7 275.2 48 290.4 48L350.2 48C365.4 48 378.5 58.7 381.5 73.5L396 143.5C410.1 149.5 423.3 157.2 435.3 166.3L503.1 143.8C517.5 139 533.3 145 540.9 158.2L570.8 210C578.4 223.2 575.7 239.8 564.3 249.9L511 297.3C511.9 304.7 512.3 312.3 512.3 320C512.3 327.7 511.8 335.3 511 342.7L564.4 390.2C575.8 400.3 578.4 417 570.9 430.1L541 481.9C533.4 495 517.6 501.1 503.2 496.3L435.4 473.8C423.3 482.9 410.1 490.5 396.1 496.6L381.7 566.5C378.6 581.4 365.5 592 350.4 592L290.6 592C275.4 592 262.3 581.3 259.3 566.5L244.9 496.6C230.8 490.6 217.7 482.9 205.6 473.8L137.5 496.3C123.1 501.1 107.3 495.1 99.7 481.9L69.8 430.1C62.2 416.9 64.9 400.3 76.3 390.2L129.7 342.7C128.8 335.3 128.4 327.7 128.4 320C128.4 312.3 128.9 304.7 129.7 297.3L76.3 249.8C64.9 239.7 62.3 223 69.8 209.9L99.7 158.1C107.3 144.9 123.1 138.9 137.5 143.7L205.3 166.2C217.4 157.1 230.6 149.5 244.6 143.4L259.1 73.5zM320.3 400C364.5 399.8 400.2 363.9 400 319.7C399.8 275.5 363.9 239.8 319.7 240C275.5 240.2 239.8 276.1 240 320.3C240.2 364.5 276.1 400.2 320.3 400z"/>
    </symbol>
    <symbol id="construction" viewBox="0 0 640 640">
      <path d="M102.33,56.93c5.4-5.4,13.8-6.2,20.2-2l118.9,79.2c8.9,5.9,14.2,15.9,14.2,26.6v49.6l90.8,90.8c33.3-15,73.9-8.9,101.2,18.5l126.1,126.1c18.7,18.7,18.7,49.1,0,67.9l-60.1,60.1c-18.7,18.7-49.1,18.7-67.9,0l-126.1-126.1c-27.4-27.4-33.5-67.9-18.5-101.2l-90.8-90.8h-49.6c-10.7,0-20.7-5.3-26.6-14.2L54.93,122.53c-4.2-6.3-3.4-14.8,2-20.2l45.4-45.4ZM247.33,360.43c-6.3,36.9,2.3,75.9,26.2,107.2l-94.9,95c-28.1,28.1-73.7,28.1-101.8,0-28.1-28.1-28.1-73.7,0-101.8l135.4-135.5,35.2,35.1h-.1ZM415.63,63.63c20.1,0,39.4,3.7,57.1,10.5,10,3.8,11.8,16.5,4.3,24.1l-56.7,56.7c-3,3-4.7,7.1-4.7,11.3v41.4c0,8.8,7.2,16,16,16h41.4c4.2,0,8.3-1.7,11.3-4.7l56.7-56.7c7.6-7.5,20.3-5.7,24.1,4.3,6.8,17.7,10.5,37,10.5,57.1,0,43.2-17.2,82.3-45,111.1l-49.1-49.1c-33.1-33-78.5-45.7-121.1-38.4l-56.8-56.8v-29.7l-.2-5c-.8-12.4-4.4-24.3-10.5-34.9,29.4-35,73.4-57.2,122.7-57.3v.1Z"/>
    </symbol>
    <symbol id="diamond" viewBox="0 -960 960 960">
        <path d="M480-165q-17 0-33-7.5T419-194L113-560q-9-11-13.5-24T95-611q0-9 1.5-18.5T103-647l75-149q11-20 29.5-32t41.5-12h462q23 0 41.5 12t29.5 32l75 149q5 8 6.5 17.5T865-611q0 14-4.5 27T847-560L541-194q-12 14-28 21.5t-33 7.5Zm-95-475h190l-60-120h-70l-60 120Zm55 347v-267H218l222 267Zm80 0 222-267H520v267Zm144-347h106l-60-120H604l60 120Zm-474 0h106l60-120H250l-60 120Z"/>
    </symbol>
    <symbol id="draw" viewBox="0 0 24 24">
      <path d="M4.5,21c-.28,0-.52-.1-.71-.29-.19-.19-.29-.43-.29-.71v-2.43c0-.27.05-.52.15-.76s.24-.45.43-.64L16.68,3.6c.2-.2.43-.35.68-.45s.5-.15.75-.15c.27,0,.52.05.76.15s.45.25.64.45l1.4,1.4c.2.18.35.4.45.64s.15.5.15.76c0,.25-.05.5-.15.75s-.25.48-.45.68l-12.58,12.6c-.18.18-.4.33-.64.43s-.5.15-.76.15h-2.43ZM18.15,7.77l1.35-1.35-1.43-1.43-1.35,1.35,1.43,1.43ZM13.5,21c1.23,0,2.38-.31,3.43-.93s1.58-1.48,1.58-2.58c0-.53-.13-1-.4-1.39s-.62-.75-1.05-1.09c-.23-.17-.48-.25-.75-.25s-.49.1-.68.3-.28.45-.28.74.12.52.35.69c.23.18.43.35.58.5s.23.32.23.5c0,.38-.3.73-.91,1.04s-1.3.46-2.09.46c-.28,0-.52.1-.71.29s-.29.43-.29.71.1.52.29.71c.19.19.43.29.71.29ZM8.5,6c0,.23-.15.45-.44.64s-.96.53-2.01,1.01c-1.33.58-2.26,1.11-2.78,1.59s-.78,1.06-.78,1.76c0,.43.1.82.3,1.15s.46.63.78.88c.22.18.46.26.73.24s.49-.15.68-.36.27-.46.25-.73-.13-.49-.35-.68c-.12-.08-.21-.17-.28-.25-.07-.08-.1-.17-.1-.25,0-.2.15-.4.45-.6s.93-.51,1.9-.93c1.47-.63,2.44-1.21,2.93-1.73s.73-1.1.73-1.75c0-.92-.37-1.65-1.1-2.19s-1.7-.81-2.9-.81c-.75,0-1.42.13-2.01.4s-1.05.59-1.36.98c-.18.22-.26.46-.23.73s.16.48.38.65c.22.18.46.26.73.23s.49-.14.68-.33c.23-.23.49-.4.78-.5s.63-.15,1.05-.15c.68,0,1.19.1,1.51.3s.49.43.49.7Z"/>
    </symbol>
    <symbol id="erudit" viewBox="0 0 135 135">
      <path d="M67.5,11.35c-31.01,0-56.15,25.14-56.15,56.15s25.14,56.15,56.15,56.15,56.15-25.14,56.15-56.15S98.51,11.35,67.5,11.35ZM88.75,81.41c0,1.56-.42,3.04-1.26,4.4-.85,1.36-1.95,2.38-3.35,3.09l-15.24,7.65c-.62.35-1.27.59-1.93.7-.67.12-1.32.18-2,.18s-1.32-.06-2-.18c-.67-.12-1.31-.36-1.93-.7h.02l-15.24-7.65c-1.4-.7-2.5-1.73-3.35-3.09s-1.26-2.82-1.26-4.4v-8.51l19.85,10.01c1.24.64,2.55.97,3.93.97s2.69-.32,3.91-.97l19.85-10.01v8.51h.02ZM104.75,81.31c0,1.13-.4,2.1-1.2,2.9s-1.76,1.2-2.9,1.2-2.1-.41-2.92-1.21c-.82-.82-1.23-1.78-1.23-2.91h0v-20.44l-27.59,13.88c-1.24.63-2.55.96-3.93.96s-2.69-.32-3.91-.96l-28.39-14.35c-.74-.39-1.33-.92-1.77-1.58-.44-.67-.67-1.37-.67-2.15s.22-1.49.65-2.15c.44-.67,1.03-1.2,1.77-1.61l28.39-14.34c.62-.33,1.27-.58,1.93-.74.67-.15,1.32-.23,2-.23s1.32.08,2,.23c.67.15,1.31.4,1.93.74l33.48,16.87c.7.39,1.26.91,1.7,1.55.42.64.65,1.37.65,2.19v22.15h0Z"/>
    </symbol>
    <symbol id="file-lines" viewBox="0 0 24 24">
      <path d="M9,18h6c.28,0,.52-.1.71-.29.19-.19.29-.43.29-.71s-.1-.52-.29-.71-.43-.29-.71-.29h-6c-.28,0-.52.1-.71.29s-.29.43-.29.71.1.52.29.71c.19.19.43.29.71.29ZM9,14h6c.28,0,.52-.1.71-.29s.29-.43.29-.71-.1-.52-.29-.71-.43-.29-.71-.29h-6c-.28,0-.52.1-.71.29s-.29.43-.29.71.1.52.29.71.43.29.71.29ZM6,22c-.55,0-1.02-.2-1.41-.59s-.59-.86-.59-1.41V4c0-.55.2-1.02.59-1.41s.86-.59,1.41-.59h7.18c.27,0,.52.05.76.15s.45.24.64.43l4.85,4.85c.18.18.33.4.43.64s.15.5.15.76v11.18c0,.55-.2,1.02-.59,1.41s-.86.59-1.41.59H6ZM13,8c0,.28.1.52.29.71s.43.29.71.29h4l-5-5v4Z"/>
    </symbol>
    <symbol id="files" viewBox="0 0 256 256">
      <path d="M146,184c0,5.51-4.49,10-10,10h-48c-5.51,0-10-4.49-10-10s4.49-10,10-10h48c5.51,0,10,4.49,10,10ZM78,152c0,5.51,4.49,10,10,10h48c5.51,0,10-4.49,10-10s-4.49-10-10-10h-48c-5.51,0-10,4.49-10,10ZM218,72v112c0,9.92-8.08,18-18,18h-14v14c0,9.92-8.08,18-18,18H56c-9.93,0-18-8.08-18-18V72c0-9.93,8.07-18,18-18h14v-14c0-9.93,8.07-18,18-18h80.01c2.67,0,5.18,1.04,7.07,2.92l40,40c1.89,1.89,2.93,4.4,2.92,7.08ZM131.86,74H58v140h108v-105.86l-34.14-34.14ZM186,104v78h12v-105.86l-34.14-34.14h-73.86v12h46.01c2.67,0,5.18,1.04,7.07,2.92l40,40c1.89,1.89,2.93,4.4,2.93,7.08Z"/>
    </symbol>
    <symbol id="flame" viewBox="0 0 640 640">
        <path d="M281.6 93.9L297.6 72.6C301.6 67.2 308 64 314.7 64C326.4 64 336 73.6 336 85.3L336 107.4C336 120.5 341.4 133.1 350.9 142.1L435.6 223C484.4 269.6 512 334.2 512 401.7C512 498 434 576 337.7 576L320 576C214 576 128 490 128 384L128 380.2C128 331.4 147.4 284.6 181.9 250.1L185.4 246.6C189.6 242.4 195.4 240 201.4 240C213.9 240 224 250.1 224 262.6L224 352C224 387.3 252.7 416 288 416C323.3 416 352 387.3 352 352L352 348.1C352 330.1 344.8 312.8 332.1 300.1L293.5 261.5C269.5 237.5 256 204.8 256 170.8C256 143.1 265 116 281.6 93.9z"/>
    </symbol>
    <symbol id="folder-open" viewBox="0 0 24 24">
      <path d="M3.59,20c-.55,0-1.02-.2-1.41-.59s-.59-.86-.59-1.41V6c0-.55.2-1.02.59-1.41s.86-.59,1.41-.59h5.18c.27,0,.52.05.76.15s.45.24.64.43l1.43,1.43h9c.28,0,.52.1.71.29s.29.43.29.71-.1.52-.29.71-.43.29-.71.29h-9.83l-2-2H3.59v12l1.98-6.58c.13-.43.38-.78.74-1.04.36-.26.75-.39,1.19-.39h12.9c.68,0,1.22.27,1.61.81.39.54.5,1.13.31,1.76l-1.8,6c-.13.43-.38.78-.74,1.04s-.75.39-1.19.39H3.59ZM5.69,18h12.9l1.8-6H7.49l-1.8,6ZM3.59,11.45v-5.45,5.45ZM5.69,18l1.8-6-1.8,6Z"/>
    </symbol>
    <symbol id="folder" viewBox="0 0 24 24">
      <path d="M4,20c-.55,0-1.02-.2-1.41-.59s-.59-.86-.59-1.41V6c0-.55.2-1.02.59-1.41s.86-.59,1.41-.59h5.18c.27,0,.52.05.76.15s.45.24.64.43l1.43,1.43h8c.55,0,1.02.2,1.41.59s.59.86.59,1.41v10c0,.55-.2,1.02-.59,1.41s-.86.59-1.41.59H4ZM4,18h16V8h-8.83l-2-2H4v12ZM4,18V6v12Z"/>
    </symbol>
    <symbol id="globe" viewBox="0 -960 960 960">
        <path d="M480-80q-82 0-155-31.5t-127.5-86Q143-252 111.5-325T80-480q0-83 31.5-155.5t86-127Q252-817 325-848.5T480-880q83 0 155.5 31.5t127 86q54.5 54.5 86 127T880-480q0 82-31.5 155t-86 127.5q-54.5 54.5-127 86T480-80Zm0-82q26-36 45-75t31-83H404q12 44 31 83t45 75Zm-104-16q-18-33-31.5-68.5T322-320H204q29 50 72.5 87t99.5 55Zm208 0q56-18 99.5-55t72.5-87H638q-9 38-22.5 73.5T584-178ZM170-400h136q-3-20-4.5-39.5T300-480q0-21 1.5-40.5T306-560H170q-5 20-7.5 39.5T160-480q0 21 2.5 40.5T170-400Zm216 0h188q3-20 4.5-39.5T580-480q0-21-1.5-40.5T574-560H386q-3 20-4.5 39.5T380-480q0 21 1.5 40.5T386-400Zm268 0h136q5-20 7.5-39.5T800-480q0-21-2.5-40.5T790-560H654q3 20 4.5 39.5T660-480q0 21-1.5 40.5T654-400Zm-16-240h118q-29-50-72.5-87T584-782q18 33 31.5 68.5T638-640Zm-234 0h152q-12-44-31-83t-45-75q-26 36-45 75t-31 83Zm-200 0h118q9-38 22.5-73.5T376-782q-56 18-99.5 55T204-640Z"/>
    </symbol>
    <symbol id="graduation" viewBox="0 0 24 24">
      <path d="M5.51,17.78c-.33-.18-.59-.43-.78-.74s-.28-.65-.28-1.04v-4.8l-2.4-1.33c-.18-.1-.32-.23-.4-.38s-.13-.32-.13-.5.04-.35.13-.5.22-.28.4-.38L10.51,3.52c.15-.08.3-.15.46-.19s.32-.06.49-.06.33.02.49.06.31.1.46.19l9.53,5.2c.17.08.3.2.39.36s.14.33.14.51v6.4c0,.28-.1.52-.29.71s-.43.29-.71.29-.52-.1-.71-.29-.29-.43-.29-.71v-5.9l-2,1.1v4.8c0,.38-.09.73-.28,1.04s-.44.55-.78.74l-5,2.7c-.15.08-.3.15-.46.19s-.32.06-.49.06-.33-.02-.49-.06-.31-.1-.46-.19l-5-2.7ZM11.46,12.7l6.85-3.7-6.85-3.7-6.85,3.7,6.85,3.7ZM11.46,18.73l5-2.7v-3.78l-4.03,2.23c-.15.08-.31.15-.48.19s-.33.06-.5.06-.33-.02-.5-.06-.33-.1-.48-.19l-4.03-2.23v3.78l5,2.7Z"/>
    </symbol>
    <symbol id="handshake" viewBox="0 0 24 24">
      <path d="M12.13,21.04c-.28,0-.52-.1-.71-.29-.19-.19-.29-.43-.29-.71,0-.12.03-.24.08-.36s.13-.24.23-.34l4.28-4.28c.1-.1.15-.22.15-.36s-.05-.26-.15-.36-.22-.15-.36-.14-.26.06-.36.16l-4.25,4.25c-.1.1-.21.18-.33.23s-.24.08-.38.08c-.28,0-.52-.1-.71-.29s-.29-.43-.29-.71c0-.17.03-.3.08-.41s.12-.2.2-.29l4.28-4.28c.1-.1.15-.22.15-.35s-.05-.25-.15-.35-.22-.15-.35-.15-.25.05-.35.15l-4.28,4.25c-.1.1-.21.18-.33.23s-.25.08-.4.08c-.27,0-.5-.1-.7-.3s-.3-.43-.3-.7c0-.13.03-.26.08-.38s.13-.23.23-.33l4.25-4.25c.1-.1.15-.22.15-.36s-.05-.26-.15-.36-.22-.15-.35-.15-.25.05-.35.15l-4.25,4.28c-.08.08-.18.15-.3.2s-.26.08-.43.08c-.28,0-.52-.1-.71-.29s-.29-.43-.29-.71c0-.13.03-.26.08-.38s.13-.23.23-.33l4.9-4.9c.18-.18.41-.27.69-.25s.5.12.69.3l3.05,3.05c.18.18.4.33.65.44s.5.16.75.16c.53,0,1-.19,1.4-.56s.6-.85.6-1.44c0-.23-.04-.48-.13-.73s-.23-.48-.45-.7l-3.43-3.43c-.18-.18-.3-.38-.36-.6s-.03-.43.09-.63c.15-.25.34-.43.58-.55s.49-.18.78-.18c.35,0,.71.08,1.08.25s.7.4,1,.7l4.23,4.25c.3.3.52.63.66,1s.21.79.21,1.28c0,.33-.08.67-.23,1.01-.15.34-.37.65-.65.94l-8.33,8.35c-.13.13-.25.22-.35.25s-.22.05-.35.05ZM2.92,12.16c-.32-.23-.55-.51-.71-.84s-.24-.67-.24-1.04.08-.76.24-1.13.39-.7.69-1L7.12,3.91c.28-.28.6-.5.94-.65s.7-.23,1.09-.23c.42,0,.82.08,1.21.23s.73.37,1.01.65l5.13,5.13c.08.08.15.19.21.31s.09.25.09.39c0,.28-.1.52-.29.71s-.43.29-.71.29c-.13,0-.26-.03-.39-.09s-.23-.13-.31-.21l-3.08-3.05c-.38-.38-.85-.58-1.41-.58s-1.03.19-1.41.58l-4.7,4.7c-.22.22-.47.33-.76.34s-.56-.08-.81-.26Z"/>
    </symbol>
    <symbol id="house" viewBox="0 0 640 640">
        <path d="M341.8 72.6C329.5 61.2 310.5 61.2 298.3 72.6L74.3 280.6C64.7 289.6 61.5 303.5 66.3 315.7C71.1 327.9 82.8 336 96 336L112 336L112 512C112 547.3 140.7 576 176 576L464 576C499.3 576 528 547.3 528 512L528 336L544 336C557.2 336 569 327.9 573.8 315.7C578.6 303.5 575.4 289.5 565.8 280.6L341.8 72.6zM304 384L336 384C362.5 384 384 405.5 384 432L384 528L256 528L256 432C256 405.5 277.5 384 304 384z"/>
    </symbol>
    <symbol id="lines" viewBox="0 0 24 24">
      <path d="M5,21c-.55,0-1.02-.2-1.41-.59-.39-.39-.59-.86-.59-1.41V5c0-.55.2-1.02.59-1.41.39-.39.86-.59,1.41-.59h14c.55,0,1.02.2,1.41.59s.59.86.59,1.41v14c0,.55-.2,1.02-.59,1.41-.39.39-.86.59-1.41.59H5ZM5,19h14V5H5v14ZM5,5v14V5ZM8,17h5c.28,0,.52-.1.71-.29s.29-.43.29-.71-.1-.52-.29-.71-.43-.29-.71-.29h-5c-.28,0-.52.1-.71.29s-.29.43-.29.71.1.52.29.71.43.29.71.29ZM8,13h8c.28,0,.52-.1.71-.29s.29-.43.29-.71-.1-.52-.29-.71c-.19-.19-.43-.29-.71-.29H8c-.28,0-.52.1-.71.29-.19.19-.29.43-.29.71s.1.52.29.71.43.29.71.29ZM8,9h8c.28,0,.52-.1.71-.29s.29-.43.29-.71-.1-.52-.29-.71-.43-.29-.71-.29H8c-.28,0-.52.1-.71.29s-.29.43-.29.71.1.52.29.71.43.29.71.29Z"/>
    </symbol>
    <symbol id="moon" viewBox="0 0 640 640">
        <path d="M320 64C178.6 64 64 178.6 64 320C64 461.4 178.6 576 320 576C388.8 576 451.3 548.8 497.3 504.6C504.6 497.6 506.7 486.7 502.6 477.5C498.5 468.3 488.9 462.6 478.8 463.4C473.9 463.8 469 464 464 464C362.4 464 280 381.6 280 280C280 207.9 321.5 145.4 382.1 115.2C391.2 110.7 396.4 100.9 395.2 90.8C394 80.7 386.6 72.5 376.7 70.3C358.4 66.2 339.4 64 320 64z"/>
    </symbol>
    <symbol id="plus-circle" viewBox="0 0 24 24">
      <path d="M11,13v3c0,.28.1.52.29.71s.43.29.71.29.52-.1.71-.29c.19-.19.29-.43.29-.71v-3h3c.28,0,.52-.1.71-.29s.29-.43.29-.71-.1-.52-.29-.71c-.19-.19-.43-.29-.71-.29h-3v-3c0-.28-.1-.52-.29-.71-.19-.19-.43-.29-.71-.29s-.52.1-.71.29-.29.43-.29.71v3h-3c-.28,0-.52.1-.71.29-.19.19-.29.43-.29.71s.1.52.29.71.43.29.71.29h3ZM12,22c-1.38,0-2.68-.26-3.9-.79s-2.28-1.24-3.18-2.14-1.61-1.96-2.14-3.18-.79-2.52-.79-3.9.26-2.68.79-3.9,1.24-2.28,2.14-3.18,1.96-1.61,3.18-2.14,2.52-.79,3.9-.79,2.68.26,3.9.79,2.28,1.24,3.18,2.14,1.61,1.96,2.14,3.18.79,2.52.79,3.9-.26,2.68-.79,3.9-1.24,2.28-2.14,3.18-1.96,1.61-3.18,2.14-2.52.79-3.9.79ZM12,20c2.23,0,4.13-.78,5.68-2.33s2.33-3.44,2.33-5.68-.78-4.13-2.33-5.68-3.44-2.33-5.68-2.33-4.13.78-5.68,2.33-2.33,3.44-2.33,5.68.78,4.13,2.33,5.68,3.44,2.33,5.68,2.33Z"/>
    </symbol>
    <symbol id="plus" viewBox="0 0 24 24">
        <path d="M10.92,13.08h-5.36c-.3,0-.56-.1-.76-.31s-.31-.46-.31-.76.1-.56.31-.76.46-.31.76-.31h5.36v-5.36c0-.3.1-.56.31-.76s.46-.31.76-.31.56.1.76.31.31.46.31.76v5.36h5.36c.3,0,.56.1.76.31s.31.46.31.76-.1.56-.31.76-.46.31-.76.31h-5.36v5.36c0,.3-.1.56-.31.76s-.46.31-.76.31-.56-.1-.76-.31-.31-.46-.31-.76v-5.36Z"/>
    </symbol>
    <symbol id="puzzle" viewBox="0 0 640 640">
      <path d="M288,64c35.3,0,64,21.5,64,48,0,10.4-4.4,20-12,27.9-6.6,6.9-12,15.3-12,24.9,0,15,12.2,27.2,27.2,27.2h44.8c26.5,0,48,21.5,48,48v44.8c0,15,12.2,27.2,27.2,27.2,9.5,0,18-5.4,24.9-12,7.9-7.5,17.5-12,27.9-12,26.5,0,48,28.7,48,64s-21.5,64-48,64c-10.4,0-20.1-4.4-27.9-12-6.9-6.6-15.3-12-24.9-12-15,0-27.2,12.2-27.2,27.2v108.8c0,26.5-21.5,48-48,48h-56.8c-12.8,0-23.2-10.4-23.2-23.2,0-9.2,5.8-17.3,13.2-22.8,11.6-8.7,18.8-20.7,18.8-34,0-26.5-28.7-48-64-48s-64,21.5-64,48c0,13.3,7.2,25.3,18.8,34,7.4,5.5,13.2,13.5,13.2,22.8,0,12.8-10.4,23.2-23.2,23.2h-120.8c-26.5,0-48-21.5-48-48v-120.8c0-12.8,10.4-23.2,23.2-23.2,9.2,0,17.3,5.8,22.8,13.2,8.7,11.6,20.7,18.8,34,18.8,26.5,0,48-28.7,48-64s-21.5-64-48-64c-13.3,0-25.3,7.2-34,18.8-5.5,7.4-13.5,13.2-22.8,13.2-12.8,0-23.2-10.4-23.2-23.2v-56.8c0-26.5,21.5-48,48-48h108.8c15,0,27.2-12.2,27.2-27.2,0-9.5-5.4-18-12-24.9-7.5-7.9-12-17.5-12-27.9,0-26.5,28.7-48,64-48h0Z"/>
    </symbol>
    <symbol id="question-circle" viewBox="0 -960 960 960">
        <path d="M478-240q21 0 35.5-14.5T528-290q0-21-14.5-35.5T478-340q-21 0-35.5 14.5T428-290q0 21 14.5 35.5T478-240Zm-36-154h74q0-33 7.5-52t42.5-52q26-26 41-49.5t15-56.5q0-56-41-86t-97-30q-57 0-92.5 30T342-618l66 26q5-18 22.5-39t53.5-21q32 0 48 17.5t16 38.5q0 20-12 37.5T506-526q-44 39-54 59t-10 73Zm38 314q-83 0-156-31.5T197-197q-54-54-85.5-127T80-480q0-83 31.5-156T197-763q54-54 127-85.5T480-880q83 0 156 31.5T763-763q54 54 85.5 127T880-480q0 83-31.5 156T763-197q-54 54-127 85.5T480-80Zm0-80q134 0 227-93t93-227q0-134-93-227t-227-93q-134 0-227 93t-93 227q0 134 93 227t227 93Zm0-320Z"/>
    </symbol>
    <symbol id="rocket" viewBox="0 0 24 24">
      <path d="M6.07,11.88c.43-1.1.95-2.16,1.56-3.18s1.3-1.98,2.06-2.88l-1.3-.28c-.33-.07-.66-.05-.98.05s-.59.27-.83.5l-3.15,3.15c-.25.25-.35.55-.29.9.06.35.25.59.59.73l2.33,1ZM20.77,2.13c-1.77-.08-3.45.26-5.04,1.03s-3.01,1.78-4.26,3.03c-.8.8-1.5,1.67-2.11,2.6s-1.14,1.92-1.59,2.95c-.08.22-.13.44-.13.66s.08.42.25.59l3.13,3.13c.17.17.36.25.59.25s.45-.04.66-.13c1.03-.45,2.02-.98,2.95-1.59s1.8-1.31,2.6-2.11c1.25-1.25,2.26-2.67,3.03-4.26s1.11-3.27,1.03-5.04c0-.13-.03-.27-.1-.4s-.15-.25-.25-.35-.22-.18-.35-.25-.27-.1-.4-.1ZM14.42,9.58c-.38-.38-.58-.85-.58-1.41s.19-1.03.58-1.41.85-.58,1.41-.58,1.03.19,1.41.58.58.85.58,1.41-.19,1.03-.58,1.41-.85.58-1.41.58-1.03-.19-1.41-.58ZM12.12,17.93l1,2.33c.13.33.38.53.73.6s.65-.03.9-.28l3.15-3.15c.23-.23.4-.51.5-.84s.12-.65.05-.99l-.25-1.3c-.92.77-1.88,1.45-2.89,2.06s-2.07,1.13-3.19,1.56ZM3.99,15.78c.58-.58,1.29-.88,2.13-.89.83,0,1.54.28,2.13.86s.88,1.29.88,2.13-.29,1.54-.88,2.13c-.8.8-1.75,1.28-2.84,1.43-1.09.15-2.19.3-3.29.45.15-1.1.3-2.2.46-3.29s.63-2.03,1.41-2.81Z"/>
    </symbol>
    <symbol id="sun-moon" viewBox="0 0 640 640">
      <path d="M520.03,320l65.28-94.73c3.25-4.72,3.88-10.69,1.68-15.93s-6.92-9.01-12.47-10.06l-113.06-20.75-20.85-113.06c-1.05-5.55-4.82-10.27-10.06-12.47-5.24-2.2-11.21-1.57-15.93,1.68l-94.62,65.28-94.62-65.28c-4.72-3.25-10.69-3.88-15.93-1.68-5.24,2.2-9.01,6.92-10.06,12.47l-20.85,113.06-113.06,20.85c-5.55,1.05-10.27,4.82-12.47,10.06s-1.57,11.21,1.68,15.93l65.28,94.62-65.28,94.62c-3.25,4.72-3.88,10.69-1.68,15.93s6.92,9.01,12.47,10.06l113.06,20.85,20.85,113.06c1.05,5.55,4.82,10.27,10.06,12.47,5.24,2.2,11.21,1.57,15.93-1.68l94.62-65.28,94.62,65.28c4.72,3.25,10.69,3.88,15.93,1.68s9.01-6.92,10.06-12.47l20.85-113.06,113.06-20.85c5.55-1.05,10.27-4.82,12.47-10.06,2.2-5.24,1.57-11.21-1.68-15.93l-65.28-94.62h0ZM320,483.12c-90.08,0-163.12-73.04-163.12-163.12s73.04-163.12,163.12-163.12,163.12,73.04,163.12,163.12-73.04,163.12-163.12,163.12h0ZM321.99,203.29c-65.5,0-118.54,53.2-118.54,118.81s53.04,118.81,118.54,118.81c32.14,0,61.26-12.84,82.63-33.63,2.65-2.6,3.34-6.63,1.65-9.92s-5.35-5.14-9.01-4.51c-5.2.9-10.5,1.38-15.97,1.38-51.4,0-93.08-41.8-93.08-93.34,0-34.9,19.09-65.29,47.36-81.3,3.24-1.85,4.88-5.56,4.09-9.18s-3.87-6.31-7.59-6.63c-3.34-.26-6.69-.42-10.08-.42v-.05h0Z"/>
    </symbol>
    <symbol id="sun" viewBox="0 0 640 640">
        <path d="M210.2 53.9C217.6 50.8 226 51.7 232.7 56.1L320.5 114.3L408.3 56.1C415 51.7 423.4 50.9 430.8 53.9C438.2 56.9 443.4 63.5 445 71.3L465.9 174.5L569.1 195.4C576.9 197 583.5 202.4 586.5 209.7C589.5 217 588.7 225.5 584.3 232.2L526.1 320L584.3 407.8C588.7 414.5 589.5 422.9 586.5 430.3C583.5 437.7 576.9 443.1 569.1 444.6L465.8 465.4L445 568.7C443.4 576.5 438 583.1 430.7 586.1C423.4 589.1 414.9 588.3 408.2 583.9L320.4 525.7L232.6 583.9C225.9 588.3 217.5 589.1 210.1 586.1C202.7 583.1 197.3 576.5 195.8 568.7L175 465.4L71.7 444.5C63.9 442.9 57.3 437.5 54.3 430.2C51.3 422.9 52.1 414.4 56.5 407.7L114.7 320L56.5 232.2C52.1 225.5 51.3 217.1 54.3 209.7C57.3 202.3 63.9 196.9 71.7 195.4L175 174.6L195.9 71.3C197.5 63.5 202.9 56.9 210.2 53.9zM239.6 320C239.6 275.6 275.6 239.6 320 239.6C364.4 239.6 400.4 275.6 400.4 320C400.4 364.4 364.4 400.4 320 400.4C275.6 400.4 239.6 364.4 239.6 320zM448.4 320C448.4 249.1 390.9 191.6 320 191.6C249.1 191.6 191.6 249.1 191.6 320C191.6 390.9 249.1 448.4 320 448.4C390.9 448.4 448.4 390.9 448.4 320z"/>
    </symbol>
    <symbol id="translate" viewBox="0 0 24 24">
      <path d="M15.24,18.95l-.85,2.43c-.07.18-.18.33-.35.45s-.35.18-.55.18c-.33,0-.6-.14-.81-.41s-.25-.58-.11-.91l3.8-10.05c.08-.18.21-.33.38-.45s.35-.18.55-.18h.75c.2,0,.38.06.55.18s.29.27.38.45l3.8,10.08c.13.32.1.61-.1.89s-.47.41-.8.41c-.22,0-.4-.06-.56-.18s-.28-.28-.36-.48l-.85-2.4h-4.85ZM9.21,13.98l-4.35,4.33c-.18.18-.41.28-.69.29s-.51-.09-.71-.29c-.18-.18-.28-.42-.28-.7s.09-.52.28-.7l4.35-4.35c-.58-.58-1.11-1.25-1.59-2s-.91-1.6-1.31-2.55h2.1c.33.65.67,1.22,1,1.7s.73.97,1.2,1.45c.55-.55,1.12-1.32,1.71-2.31s1.04-1.94,1.34-2.84H2.16c-.28,0-.52-.1-.71-.29s-.29-.43-.29-.71.1-.52.29-.71.43-.29.71-.29h6v-1c0-.28.1-.52.29-.71s.43-.29.71-.29.52.1.71.29.29.43.29.71v1h6c.28,0,.52.1.71.29s.29.43.29.71-.1.52-.29.71-.43.29-.71.29h-1.9c-.35,1.2-.88,2.43-1.58,3.7s-1.39,2.23-2.08,2.9l2.4,2.45-.75,2.05-3.05-3.13ZM15.86,17.2h3.6l-1.8-5.1-1.8,5.1Z"/>
    </symbol>
    <symbol id="update" viewBox="0 -960 960 960">
      <path d="M480-120q-75 0-140.5-28.5t-114-77q-48.5-48.5-77-114T120-480q0-75 28.5-140.5t77-114q48.5-48.5 114-77T480-840q82 0 155.5 35T760-706v-94h80v240H600v-80h110q-41-56-101-88t-129-32q-117 0-198.5 81.5T200-480q0 117 81.5 198.5T480-200q105 0 183.5-68T756-440h82q-15 137-117.5 228.5T480-120Zm112-192L440-464v-216h80v184l128 128-56 56Z"/>
    </symbol>
    <symbol id="user" viewBox="0 0 640 640">
        <path d="M320 312C386.3 312 440 258.3 440 192C440 125.7 386.3 72 320 72C253.7 72 200 125.7 200 192C200 258.3 253.7 312 320 312zM290.3 368C191.8 368 112 447.8 112 546.3C112 562.7 125.3 576 141.7 576L498.3 576C514.7 576 528 562.7 528 546.3C528 447.8 448.2 368 349.7 368L290.3 368z"/>
    </symbol>
    <symbol id="users" viewBox="0 0 640 640">
        <path d="M320 80C377.4 80 424 126.6 424 184C424 241.4 377.4 288 320 288C262.6 288 216 241.4 216 184C216 126.6 262.6 80 320 80zM96 152C135.8 152 168 184.2 168 224C168 263.8 135.8 296 96 296C56.2 296 24 263.8 24 224C24 184.2 56.2 152 96 152zM0 480C0 409.3 57.3 352 128 352C140.8 352 153.2 353.9 164.9 357.4C132 394.2 112 442.8 112 496L112 512C112 523.4 114.4 534.2 118.7 544L32 544C14.3 544 0 529.7 0 512L0 480zM521.3 544C525.6 534.2 528 523.4 528 512L528 496C528 442.8 508 394.2 475.1 357.4C486.8 353.9 499.2 352 512 352C582.7 352 640 409.3 640 480L640 512C640 529.7 625.7 544 608 544L521.3 544zM472 224C472 184.2 504.2 152 544 152C583.8 152 616 184.2 616 224C616 263.8 583.8 296 544 296C504.2 296 472 263.8 472 224zM160 496C160 407.6 231.6 336 320 336C408.4 336 480 407.6 480 496L480 512C480 529.7 465.7 544 448 544L192 544C174.3 544 160 529.7 160 512L160 496z"/>
    </symbol>
    <symbol id="warning" viewBox="0 0 24 24">
      <path d="M2.72,21c-.18,0-.35-.05-.5-.14-.15-.09-.27-.21-.35-.36s-.13-.31-.14-.49.04-.35.14-.51L11.13,3.5c.1-.17.23-.29.39-.38s.32-.13.49-.13.33.04.49.13.29.21.39.38l9.25,16c.1.17.15.34.14.51s-.05.34-.14.49-.2.27-.35.36c-.15.09-.32.14-.5.14H2.72ZM4.45,19h15.1l-7.55-13-7.55,13ZM12,18c.28,0,.52-.1.71-.29.19-.19.29-.43.29-.71s-.1-.52-.29-.71c-.19-.19-.43-.29-.71-.29s-.52.1-.71.29-.29.43-.29.71.1.52.29.71c.19.19.43.29.71.29ZM12,15c.28,0,.52-.1.71-.29.19-.19.29-.43.29-.71v-3c0-.28-.1-.52-.29-.71-.19-.19-.43-.29-.71-.29s-.52.1-.71.29-.29.43-.29.71v3c0,.28.1.52.29.71s.43.29.71.29Z"/>
    </symbol>
    <symbol id="arrow/from-circle" viewBox="0 0 24 24">
      <path d="M5.2,12c0,1.77.58,3.31,1.73,4.63,1.15,1.32,2.6,2.09,4.35,2.33.27.03.49.15.66.35s.26.43.26.7c0,.28-.12.52-.36.7-.24.18-.51.26-.81.23-2.25-.28-4.12-1.27-5.6-2.96-1.48-1.69-2.23-3.68-2.23-5.96s.74-4.25,2.21-5.94,3.34-2.69,5.59-2.99c.32-.03.6.04.84.21s.36.41.36.71c0,.27-.09.5-.26.7s-.4.32-.66.35c-1.75.23-3.2,1.01-4.35,2.33s-1.73,2.86-1.73,4.63ZM17.38,13h-7.18c-.28,0-.52-.1-.71-.29s-.29-.43-.29-.71.1-.52.29-.71c.19-.19.43-.29.71-.29h7.18l-1.88-1.88c-.2-.2-.3-.44-.3-.71s.1-.51.3-.71.43-.3.7-.3.5.1.7.3l3.6,3.6c.2.2.3.43.3.7s-.1.5-.3.7l-3.6,3.6c-.2.2-.43.3-.7.29s-.5-.11-.7-.31-.3-.43-.3-.7.1-.5.3-.7l1.88-1.88Z"/>
    </symbol>
    <symbol id="arrow/left" viewBox="0 0 24 24">
      <path d="M7.61,12.99l4.9,4.9c.2.2.3.43.29.7s-.11.5-.31.7c-.2.18-.43.28-.7.29s-.5-.09-.7-.29l-6.6-6.6c-.1-.1-.17-.21-.21-.33s-.06-.24-.06-.38.02-.26.06-.38.11-.23.21-.33l6.6-6.6c.18-.18.41-.28.69-.28s.51.09.71.28c.2.2.3.44.3.71s-.1.51-.3.71l-4.88,4.88h11.18c.28,0,.52.1.71.29.19.19.29.43.29.71s-.1.52-.29.71-.43.29-.71.29H7.61Z"/>
    </symbol>
    <symbol id="arrow/outward-box" viewBox="0 0 640 640">
        <path d="M384 64C366.3 64 352 78.3 352 96C352 113.7 366.3 128 384 128L466.7 128L265.3 329.4C252.8 341.9 252.8 362.2 265.3 374.7C277.8 387.2 298.1 387.2 310.6 374.7L512 173.3L512 256C512 273.7 526.3 288 544 288C561.7 288 576 273.7 576 256L576 96C576 78.3 561.7 64 544 64L384 64zM144 160C99.8 160 64 195.8 64 240L64 496C64 540.2 99.8 576 144 576L400 576C444.2 576 480 540.2 480 496L480 416C480 398.3 465.7 384 448 384C430.3 384 416 398.3 416 416L416 496C416 504.8 408.8 512 400 512L144 512C135.2 512 128 504.8 128 496L128 240C128 231.2 135.2 224 144 224L224 224C241.7 224 256 209.7 256 192C256 174.3 241.7 160 224 160L144 160z"/>
    </symbol>
    <symbol id="arrow/outward" viewBox="0 0 24 24">
      <path d="M16.29,9.11l-8.9,8.9c-.18.18-.42.28-.7.28s-.52-.09-.7-.28-.28-.42-.28-.7.09-.52.28-.7L14.89,7.71h-7.6c-.28,0-.52-.1-.71-.29-.19-.19-.29-.43-.29-.71s.1-.52.29-.71c.19-.19.43-.29.71-.29h10c.28,0,.52.1.71.29s.29.43.29.71v10c0,.28-.1.52-.29.71s-.43.29-.71.29-.52-.1-.71-.29-.29-.43-.29-.71v-7.6Z"/>
    </symbol>
    <symbol id="arrow/to-circle" viewBox="0 0 24 24">
      <path d="M17.08,7.38c-1.15-1.32-2.6-2.09-4.35-2.33-.27-.03-.49-.15-.66-.35s-.26-.43-.26-.7c0-.3.12-.54.36-.71s.52-.25.84-.21c2.25.3,4.11,1.3,5.59,2.99s2.21,3.67,2.21,5.94-.74,4.27-2.23,5.96c-1.48,1.69-3.35,2.68-5.6,2.96-.3.03-.57-.04-.81-.23-.24-.18-.36-.42-.36-.7,0-.27.09-.5.26-.7s.4-.32.66-.35c1.75-.23,3.2-1.01,4.35-2.33,1.15-1.32,1.73-2.86,1.73-4.63s-.58-3.31-1.73-4.63ZM11.37,13h-7.18c-.28,0-.52-.1-.71-.29s-.29-.43-.29-.71.1-.52.29-.71c.19-.19.43-.29.71-.29h7.18l-1.88-1.88c-.2-.2-.3-.44-.3-.71s.1-.51.3-.71.43-.3.7-.3.5.1.7.3l3.6,3.6c.2.2.3.43.3.7s-.1.5-.3.7l-3.6,3.6c-.2.2-.43.3-.7.29s-.5-.11-.7-.31-.3-.43-.3-.7.1-.5.3-.7l1.88-1.88Z"/>
    </symbol>
    <symbol id="arrow/up-to-right" viewBox="0 0 24 24">
      <path d="M17.38,12.21l-2.9-2.9c-.2-.2-.3-.43-.29-.7s.11-.5.31-.7c.2-.18.43-.28.7-.29s.5.09.7.29l4.6,4.6c.2.2.3.43.3.7,0,.27-.1.5-.3.7l-4.6,4.6c-.18.18-.41.28-.69.28s-.51-.09-.71-.28c-.2-.2-.3-.44-.3-.71,0-.28.1-.51.3-.71l2.88-2.88h-9.18c-1.38,0-2.56-.49-3.54-1.46s-1.46-2.15-1.46-3.54v-3c0-.28.1-.52.29-.71s.43-.29.71-.29.52.1.71.29.29.43.29.71v3c0,.83.29,1.54.88,2.13s1.29.88,2.13.88h9.18Z"/>
    </symbol>
    <symbol id="search/check" viewBox="0 0 24 24">
      <path d="M13.15,7.33l.91.91-5.22,5.22-2.92-2.92.91-.91,2,2,4.3-4.3h0ZM20.6,20.6c-.44.44-1.14.44-1.58,0l-4.41-4.42c-1.2.88-2.68,1.39-4.28,1.39-4,0-7.25-3.24-7.25-7.25s3.24-7.25,7.25-7.25,7.25,3.24,7.25,7.25c0,1.6-.52,3.08-1.39,4.28l4.41,4.42c.44.44.44,1.14,0,1.58ZM15.35,10.33c0-2.77-2.25-5.02-5.02-5.02s-5.02,2.25-5.02,5.02,2.25,5.02,5.02,5.02,5.02-2.25,5.02-5.02Z"/>
    </symbol>
    <symbol id="search/dead" viewBox="0 0 24 24">
      <path d="M20.6,19.02l-4.41-4.42c.87-1.2,1.39-2.68,1.39-4.28,0-4-3.24-7.25-7.25-7.25s-7.25,3.24-7.25,7.25,3.24,7.25,7.25,7.25c1.6,0,3.08-.52,4.28-1.39l4.41,4.42c.44.44,1.14.44,1.58,0,.44-.44.44-1.14,0-1.58h0ZM10.33,15.34c-2.77,0-5.02-2.25-5.02-5.02s2.25-5.02,5.02-5.02,5.02,2.25,5.02,5.02-2.25,5.02-5.02,5.02ZM6.93,9.53l.69-.69-.69-.69.69-.69.69.69.69-.69.69.69-.69.69.69.69-.69.69-.69-.69-.69.69s-.69-.69-.69-.69ZM13.64,13.79h-6.63c.52-1.32,1.8-2.27,3.31-2.27s2.8.95,3.31,2.27ZM13.73,8.16l-.69.69.69.69-.69.69-.69-.69-.69.69-.69-.69.69-.69-.69-.69.69-.69.69.69.69-.69.69.69Z"/>
    </symbol>
    <symbol id="search/glass" viewBox="0 0 24 24">
      <path d="M17.58,10.33c0,1.6-.52,3.08-1.39,4.28l4.41,4.42c.44.44.44,1.14,0,1.58-.44.44-1.14.44-1.58,0l-4.41-4.42c-1.2.88-2.68,1.39-4.28,1.39-4,0-7.25-3.24-7.25-7.25s3.24-7.25,7.25-7.25,7.25,3.24,7.25,7.25ZM10.33,15.34c2.77,0,5.02-2.25,5.02-5.02s-2.25-5.02-5.02-5.02-5.02,2.25-5.02,5.02,2.25,5.02,5.02,5.02Z"/>
    </symbol>
    <symbol id="search/wtf" viewBox="0 0 24 24">
      <path d="M20.6,19.02l-4.41-4.42c.87-1.2,1.39-2.68,1.39-4.28,0-4-3.24-7.25-7.25-7.25s-7.25,3.24-7.25,7.25,3.24,7.25,7.25,7.25c1.6,0,3.08-.52,4.28-1.39l4.41,4.42c.44.44,1.14.44,1.58,0,.44-.44.44-1.14,0-1.58h0ZM10.33,15.34c-2.77,0-5.02-2.25-5.02-5.02s2.25-5.02,5.02-5.02,5.02,2.25,5.02,5.02-2.25,5.02-5.02,5.02ZM10.51,8.52c0,.78-.5,1.24-.89,1.63-.38.4-.53.79-.53,1.24v.16s-1.38,0-1.38,0v-.27c-.02-.48.12-.99.59-1.5.33-.36.62-.69.62-1.01,0-.33-.22-.56-.73-.58-.37,0-.81.14-1.1.33l-.37-1.1c.41-.24,1.03-.44,1.81-.44,1.3,0,1.97.68,1.97,1.54h0ZM9.29,12.92c0,.53-.37.93-.93.93s-.93-.39-.93-.93c0-.55.37-.93.93-.93s.92.38.93.93ZM11.75,11.55l-.24-4.46h1.61l-.24,4.46h-1.13ZM13.24,12.92c0,.53-.37.93-.93.93s-.93-.39-.93-.93c0-.55.37-.93.93-.93s.92.38.93.93Z"/>
    </symbol>
</svg>