<?xml version="1.0" encoding="UTF-8"?>
<svg xmlns="http://www.w3.org/2000/svg" width="1024" height="1024" viewBox="0 0 1024 1024">
  <path d="M581.15,420.25c-21.82-1.22-24-31.47-4.96-37.32,30.22-9.28,33.58,38.91,4.96,37.32ZM601.27,367.28c18.83-4.02,13.43-33.8-6.36-30.05-19.3,3.65-15.16,34.65,6.36,30.05ZM536.38,491.58c-30.07,8.8-19.17,60.23,17.21,50.06,30.66-8.57,20.39-61.06-17.21-50.06ZM520.95,554.78c-42.56,9.59-20.35,77.5,21.19,57.34,32.26-15.66,12.31-64.88-21.19-57.34ZM614.29,325.65c20.35,1.5,17.6-32.22-2.61-26.34-13.22,3.85-11.8,25.28,2.61,26.34ZM628.45,288.99c20.74,3.41,18.7-29.33-2.06-21.7-9.5,3.49-8.99,19.88,2.06,21.7ZM419.69,207.1c21.47,5.75,43.27,10.04,64.77,15.68,23.27,6.11,57.72,21.87,80.86,14.9,1.48-.44,2.99-.09,4-1.84.41-1.84-1.55-2.4-2.67-3.13-26.26-17.06-85.56-30.46-117-34.58-5.55-.73-27.23-4.29-30.46-1.05-1.71,1.72-2.69,8.94.5,10.02ZM1004.85,750.55c-5.62,2.5-9.12,1.27-14.99,2.17l6.55-11.21c.33-2.02,5.24-2.97,3.16-5.08-6.15,2.74-11.25,7.21-16.26,11.63-3.3,2.91-5.74,8.23-10.81,8.75-1.15-.81,10.71-20.17,9.88-26.24-.15-1.09-.77-2.95-1.87-3.02-3.52-.23-17.02,24.74-20.88,28.08-1.28-.43-.4-2.52-.16-3.46,1.39-5.37,3.49-10.15,4.28-15.9.19-1.41,1.67-5.5-.59-4.64-7.64,2.9-14.64,23.7-18.36,25.89-1.73,1.02-1.48-.65-1.27-1.82.66-3.71,2.08-9.2,1.78-12.84-.16-1.97-.88-1.54-2.45-1.06-7.36,2.26-10.78,17.94-11.82,18.44-.41.19-2.29.59-2.39-.19l.52-7.12c-4.02,2.44-2.82,7.12-7.46,8.39-15.48,4.26-37.41,4.02-53.6,7.82-46.02,9.32-92.2,18.63-136.3,34.82-6.39,2.35-44.54,17.03-46.41,20.24-2.85,4.88,8.2,5.25,11.66,5.27,23.45.14,49.15-8.09,71.41-8.12,1.8,0,1.1,1.64,2.91,1.66,3.48.03,6.92-1.95,9.27-2.1,2.35-.15,6.16-.1,9.23-.24,6.64-.3,27.11.17,32.32,3.28,6.58,3.92-5.07,6.17-8.3,6.79-20.83,4.06-48.19,6.9-69.56,8.87-23.42,2.16-76.94,5.78-97.39-4.73-21.38-10.98,20.12-26.27,13.61-40.23-4.66-9.99-29.13-9.47-38.3-8.24l17.02,5.51c25.52,13.59-23.48,28.92-8.5,46.6,6.98,8.24,35.87,12.78,46.79,14,54.61,6.1,112.4.73,165.58,16.96,3.44,1.05,16.65,5.38,18.54,7.33,1,1.02,1.32,1.73,1.29,3.18-31.54-1.73-63.09-3.43-94.63-.18-1.35,1.19.87,1.01,1.57,1.2,4.04,1.09,17.75,4.57,19.79,7.9.79,1.3.79,2.27-1.08,2.49-4.41.53-12,.15-16.78.09-46.38-.59-134.1,1.15-174.97-16.71-36.24-15.84-21.54-37.85,5.21-52.62,5.41-2.99,30.62-11.95,24.39-21.23-3.82-5.69-41.4-8.88-50.12-10.77-10.85-2.35-24.94-6.64-35.58-10.14-24.23-7.98-51.72-21.71-22.19-46.69,31.41-26.57,76.06-35.6,113.44-50.68,1.34-1.19-3.95-9.47,3.64-14.87,7.55-5.37,17.04,2.08,20.82.28,2.06-.98-.43-10.48,5.64-14.06,5.98-3.53,9.95,2.9,13.42,1.26,1.32-.63,2.88-6.53,4.26-8.46,1.98-2.77,6.66-6.16,10.08-6.39,1.78-.12,2.5,1.85,4.33,1.25-1.81-5.46-.82-18.24-2.89-22.7-.33-.7-6.02-2.74-7.51-5.4-5.81-10.39,2.7-16.37,6.49-24.62l-6.35-50.02c-1.15-3.51-9.9-3.19-10.28-13.75-.31-8.56,7-11.8,9.21-17.13,1.58-3.8-3.6-34.04-4.37-40.96-.25-2.21.62-4.45.16-6.49-1.2-5.3-8.85-6.72-9.61-15.82-.83-9.91,8.61-14.24,8.91-19.03.29-4.66-4.1-39.05-5.55-43.5-1.07-3.3-4.63-2.39-5.73-7.71-1.7-8.22,2.48-8.2,2.94-12.86.44-4.49-1.88-9.98-1.45-14.49.85-8.95,25.15-21.37,32.28-26.13l-4.82-37.63c-7.53-3.21-9.13-9.52-6.67-17.01.8-2.45,3.42-4.55,3.53-7.33.24-5.84-4.64-10.38-.72-17.97,4.88-9.48,33.63-22.91,44.08-26.09-4.35-2.34-9.48-3.41-12.79-7.37-1.87.08-17.1,13.56-20.31,15.99-6.71,5.08-23.22,18.29-29.93,21.09-7.11,2.97-7.82-3.02-9.56-3.06-8.03-.17-9.24,11.62-13.44,12.86-6.06,1.8-5.2-6.15-5.82-6.63-3.63-2.83-6.97,11.43-12.5,8.28-1.41-.8-1.3-5.87-1.08-7.52,1.05-7.86,14.63-13.61,20.8-18.14,12.01-8.8,23.57-18.26,36.15-26.32,5.68-3.21,7.83,4.32,13.37,4.42,10.3.17,11.54-10.16,11.23-18.34l-6.26,9.76c-2.96,4.14-7.66,3.1-11.96,2.47-2.93-.43-9.64-1.67-12.29-2.42-3.91-1.11-6.42-7.8-8.67-10.42-4.05-4.7-6.24-1.85-6.26-10.77-.03-10.95,10.86-22.68,21.62-24.17,3.1-.43,11.69,1.57,13.12,1.01,2.55-1.01,11.95-18.1,18.03-12.14,5.93,5.81-4.87,13.3-9.41,15.43l8.86,3.11c1.28,3.77-5.65,5.09-5.89,5.45-.66.98,1.72,4.75,3.3,3.83.93-.55,3.1-3.5,4.78-4.68,14.84-10.38,38.04-12.22,52.92-.83,10.59,8.11,9.35,31.96,10.79,33.01.15.11,3.72-.29,3.7-.48l-2.24-17.6c1.57-.61,1.94.43,2.96,1.03,6.37,3.7,13.68,12.13,16.71,18.88,24.98-.13,49.83-.51,74.03,6.31,5.58,1.57,19.92,5.57,22.55,10.79,1.94,3.85,1.87,11.69,3.66,15.78,1.07,2.46,6.23,3.71,8.07,8.99,3.46,9.95-1.75,12.2-6.55,19.24l4.53,41.65c.51,1.04,14.14,6.12,16.73,7.52,4.92,2.66,12.02,7.48,13.03,13.39.7,4.08-.76,10.04,1.19,14.63,1.3,3.05,7.53,5.05,8.44,10.59.78,4.71-4.38,7.2-5.24,9.16-1.56,3.57,3.11,29.81,3.75,36.1.38,3.65-.79,7.2.49,11.16,1.5,4.63,9.38,7.3,10.38,14.71,1.04,7.72-4.12,8.42-6.01,12.97-1.49,3.58,4.22,40.35,5.2,47.45.21,1.52-.51,3.57-.18,4.58,1.05,3.24,9.47,4.85,10.22,14.83.62,8.41-4.8,8.82-6.47,12.58-1.02,2.29,4.63,44.34,5.81,49.67,1.67,7.52,11.18,9.56,12.08,20.09.74,8.65-3.75,7.68-6.13,12-2.72,4.95,6.56,42.42,5.03,51.07,1.12,6.44,8.76,8.01,12.09,13.3,5.57,8.84,1.77,16.59-7.28,20.2,3.21,7.74,1.96,18.3,6.07,25.6,1.93,3.43,6.53,3.58,9.36,6.25,4.12,3.86,5.82,10.34,5.36,15.86-.32,3.79-2.63,5.48-3.16,8.82,15.1-2,13.59,9.42,2.06,14.54ZM713.02,874.67c5.51,4.69,21.76,3.72,28.46,1.94,1.11-.29,6.36-2.74,4.68-4.29-.85-.79-10.11-3.24-11.93-3.48-7.72-1.03-16.03-.55-22.94,3.21-.15,1.54.77,1.82,1.72,2.62ZM657.43,870.42c.87.97,13.15,4.56,15.25,4.58,2.52.02,18.97-1.74,18.61-4.64-6.28-5.07-28.32-9.37-33.28-2.39-.5.7-1.21,1.76-.58,2.45ZM609.33,838.64c.23-3.05,6.91-15.07,6.26-15.6-7.46,3.49-22.04,14.06-19.42,23.42,3.31,11.82,31.71,18.57,42.47,18.59,1.02,0,3.32.63,2.89-1.04-11.91-2.95-33.36-9.91-32.2-25.36ZM936.2,368.82l-6.83-1.95c.76,6.96,1.92,13.91,2.7,20.88.93,8.29-2.04,9.96,8.27,13.5l-4.13-32.43ZM936.6,364.55c-.03-8.37.64-16.35-6.53-21.8-51.11-38.86-197.58-24.82-243.62,17.77-1.81,1.68-6.13,6.13-6.33,8.46-.43,4.94,2.4,12.74,2.3,18.07,9.05-4.2,5.26-5.57,6.4-12.17,1.32-7.68,8.34-6.03,8.3,1.82,8.43-2.13,4.57-7.1,6.33-13.05,2.82-9.56,12.84-6,12.18,3.17,12.94,1.11,3.65-14.15,12.61-17.37,11.03-3.97,9.2,6.85,11.75,8.54.79.52,6.7-1.32,7.25-2.39,2.22-4.31-1.68-13.11,8.85-14.74,9.68-1.5,8.56,8.77,10.25,10.06.32.25,6.83-1.4,7.59-1.87.73-.44.63-5.03,1.16-6.78,3.11-10.14,16.88-11.15,20.85-1.02.51,1.3.64,4.71.83,4.86.36.3,8.94-.86,9.23-1.22.21-.26,0-4.68.6-6.64,2.69-8.74,13.61-9.24,19.24-3.15,2.33,2.53,4.36,10.05,4.85,10.35.3.18,5.74.08,7.04.09,2.14.02.75-4.04,1.25-6.45,1.89-9.1,12.65-10.42,18.41-3.86,5.59,6.37,1.39,13.95,13.53,12.73-.27-8.99,5.98-18.28,15.14-10.93,5.55,4.45,5.7,13.76,6.63,14.63.28.26,6.3.68,7.56,1.01-2.87-10.17,9.31-12.78,12.51-3.75,2.38,6.71-1.21,8.58,8.24,11.46-2.94-6.8,3.95-12.72,6.72-4.9,1.77,4.99-.23,9.18,7.68,10.58,1.78.32,1.21-.48,1.2-1.53ZM921.42,363.65c-.07-.52-5.93-3.96-7.02-3.34l3.96,31.04c.08.6,6.42,3.13,6.9,2.42l-3.84-30.11ZM900.48,354.54l-7.64-.9c1.39,5.68.59,28.98,4.06,31.98.94.82,6.18,2.18,7.84,2.28l-4.25-33.35ZM871.63,349.75l-9.5-.67,4.25,33.35c.06.47,8.07-.2,9.5.67l-4.25-33.35ZM839.36,347.74c-.26-2.03-7.7-.36-9.44-.21l4.25,33.35,9.26-1.18-4.08-31.96ZM806.28,346.78l-9.27,1.18,4.37,34.28,9.26-1.18-4.37-34.28ZM774.78,350.8c-1.33-.26-9.21,1.63-9.15,2.11l4.31,33.82c.34,2.65,9.32-.72,9.15-2.11l-4.31-33.82ZM747.46,358.05c-2.6,1.42-6.37.99-8.04,3.38l4.19,32.89c1.5-.4,8.22-2.02,8.04-3.38l-4.19-32.89ZM723.15,366.8l-7.03,2.91c.94,10.84,1.18,21.68,3.07,32.43,1.53,0,8.2-2.09,8.04-3.38l-4.08-31.96ZM703.71,376.81c-.97.15-7.22,2.42-7.18,2.8l4.02,31.5c.8-.38,7.22-2.42,7.18-2.8l-4.02-31.5ZM689.71,385.18c-1.07.88-6.99,4.22-6.88,5.11l3.96,31.04c1.08-1.18,6.9-4.98,6.76-6.04l-3.84-30.11ZM707.9,291.53c9.7-2.52,5.91-8.17,8.63-14.61,2.86-6.78,11.06-11.05,16.1-3.86,2.32,3.3.53,6.67,7.64,4.03.83-.31,1.74-9.09,2.73-11.41,3.81-8.88,13.98-14.57,22.71-8.39,4.86,3.44,5.76,12.97,13.7,9,1.68-.84,1.3-5.39,1.98-7.65,4.51-15.04,22.62-17,28.99-1.88.65,1.54.9,5.39,1.12,5.57.29.24,6.4-.63,7.37-1.4.91-.72,3.08-8.58,6.5-11.67,8-7.25,20.66-4.78,25.98,4.22,3.73,6.31.15,11.04,10.72,10.9.79-11.64,10.34-18.99,19.38-8.79,7.11,8.02,1.95,17.19,14.99,18.41,1.8.17,1.14-.14,1.12-1.43-.06-3.81-.29-12.59-1.04-15.95-1.14-5.13-6.36-6.67-10.88-8.6-43.02-18.39-126.73-9.89-165.64,15.74-2.61,1.72-13.57,10.97-13.94,13.43-.52,3.45,2.03,10.41,1.83,14.36ZM901.16,300.79l-3.07-24.09-10.66-2.41,3.07,24.09,10.66,2.41ZM894.28,305.9c-1.95-1.58-16.8-3.68-17.32-2.97.85,2.74.44,12.12,2.61,13.34,2.04,1.15,13.26,1.91,16.42,3.06l-1.71-13.43ZM853.29,293.59l13.22,1.26-3.48-27.33c-.15-1.2-5.76-.93-7.74-1.87-6.45-3.04-8.95-14.19-20.27-13.82-3.8.13-10.72,4.3-12.89,7.19-1.11,1.48-.78,4.68-1,4.9-.33.33-7.64-.98-9.37.25l3.6,28.26c.04.29-1.11,1.47-.63,2.43,2.57-.76,11.39-.44,12.45-2.46-.64-10.2-5.87-29.56,9.93-30.32,16.42-.78,13.78,20.73,16.18,31.51ZM842.77,300.17c-2.31-1.16-16.08.81-19.81.23.76,2.54.47,11.46,2.47,12.46,2.08,1.04,16.3-.53,19.81-.23-.76-2.54-.47-11.46-2.47-12.46ZM816.36,300.3l-20.38,2.6,1.53,12.05c4.16-.44,8.32-1.21,12.5-1.59,2.2-.2,7.05,1.64,7.68-1.59.57-2.95-1.43-8.18-1.33-11.46ZM851.23,300.56l1.65,12.97,19,1.34c-.87-2.75-.51-11.33-2.06-12.98-.96-1.03-15.81-1.23-18.59-1.33ZM740.42,325.05l21.08-4.58-1.65-12.97c-3.15,1.75-19.32,4.25-20.44,6.31-1.02,1.87,1.16,8.61,1.02,11.24ZM761.69,272.21c1.96.62,6.62,5.68,6.83,7.36l2.42,18.99,12.97-1.65-3.66-28.72c-11.78,5.51-12.53-8.69-24.7-6.23-2.72.55-5.61,3.12-7.46,5.14-2.58,2.82-5.29,10.46-6.12,11.13-1.5,1.21-8.2,2.04-8.15,2.46l3.54,27.79c1.84-1.18,9.76-2.92,10.37-4.08,1.04-1.97-1.05-16.95-.87-20.72.38-8.25,6.34-14.18,14.82-11.48ZM732.2,315.7c-.99-1.14-1.38-.19-2.16,0-1.93.47-15.87,5.5-16.25,6.28-.4.82.53,11.02.6,12.99l18.98-6.6c1.48-1.31-.35-10.37-1.17-12.66ZM766.34,306.69l1.53,12.04,22.24-2.83-1.65-12.97c-7.46.85-14.89,1.71-22.11,3.77ZM710.13,308.7c.12,1.36-.82,8.1.51,7.91,1.06-1.49,7.68-2.47,7.62-2.87l-2.95-23.16c-10.48,2.65-5.94,9.75-5.18,18.12ZM921.82,315.1l1.83,14.36c.09.72,6.8,3.65,7.73,5.13l1.38-.17-1.83-14.36c-.07-.53-7.81-5.46-9.11-4.96ZM901.06,307.39l1.89,14.82,13.8,4.83-1.83-14.36c-.18-1.44-11.81-4.69-13.86-5.3ZM883.69,215.45l1.65,12.97c.07.56,9.4,1.98,10.77,3.33-.97-3.3-.21-11.22-2.62-13.33-.39-.34-9.52-3.4-9.81-2.98ZM861.32,209.83l1.65,12.97,14.49,2.86-1.65-12.97-14.49-2.86ZM839.42,207.91c.8,2.33.58,10.66,1.64,11.91.51.61,14.51,1.75,15.07,1.03.15-14.37-4.53-13.19-16.71-12.94ZM818.68,207.73l1.55,12.04c4.48-1.5,13.86,3.06,13.76-3.11-.22-13.42-4.67-8.69-15.31-8.93ZM796.21,208.71c1.21,3.59-.47,12.5,3.97,12.68,4.02.16,9.24-1.66,13.43-1.71l-1.53-12.05-15.88,1.08ZM766,215.4l1.29,10.19,22.7-2.89c.1-.01,1.23-1.47,1.21-1.57l-2.13-16.68c-.08-.65-2.44-2.04-3.34-.08-.88,1.92.59,5.65-1.63,9.59-2.46,4.37-11,8.54-15.31,4.81-1.26-1.09-1.22-3.51-2.8-3.38ZM750.77,177.33c.32,3.33,8.89,3.22,9.17,5.41l2.66,20.85c4.23-4.56,3.83-18.08,1.58-23.09-.99-2.2-10.83-4.78-13.42-3.17ZM747.26,230.97l13.66-3.63-1.65-12.97c-3.35,1.64-9.63,2.44-12.46,4.12-2.33,1.38.72,9.71.45,12.48ZM726.74,225.1l1.65,12.97c12.11-3.86,14.09-3.86,10.96-17.41l-12.61,4.43ZM711.5,245.87c10.66-3.55,13.04-5.72,10.03-17.28-10.89,2.17-12.84,6.75-10.03,17.28ZM699.48,254.94c8.76-3.19,4.94-10.31,4.35-17.5-7.84,4.11-5.33,10.15-4.35,17.5ZM759.39,239.93c40.48-11,87.03-12.04,127.17.41l20.38,9.8c1.1-9.69-14.5-13.91-22.13-16.18-50.67-15.03-137.74-7.98-180.07,25.47-3.56,2.81-8.54,6.26-5.58,11.55,16.9-15.62,38.14-25.05,60.23-31.06ZM693.34,347.06c4.78-2.71,9.61-6.41,14.99-7.6l-.81-13.98c-1.19-.94-14.01,6.03-15.06,7.97-1.66,3.05.95,9.96.87,13.61ZM678.64,357.4c9.5-4.9,10.31-9.75,7.82-19.82-9.34,2.87-9.89,11.42-7.82,19.82ZM690.45,434.61c48.41-43.63,194.15-54.31,249.06-17.73,2.61,1.74,8.55,8.84,11.1,6.53,2.79-2.54-4.45-9.4-6.37-11.02-50.09-42.19-192.41-26.75-244.59,6.8-5.06,3.26-21.91,16.5-21.45,22.5.06.82,1.1,4.88,2.72,3.93,1.13-.67,7.04-8.77,9.52-11.01ZM934.97,434.62c2.4,6.91.63,11.77,10.46,14l-2.3-18.07c-.15-1.19-8.39-7.55-10.02-8.63-52.38-34.67-189.26-22.86-236.2,17.68-1.58,1.36-10.24,10.36-10.1,11.39l2.3,18.07c1.01-.43,5.82-3.41,5.97-3.73.96-2.1-2.74-11.45,3.13-13.89,5.31-2.21,5.22,4.72,6.3,5.3.2.11,3.85-1.3,4.23-1.72,1.93-2.14-1.84-16.31,7.98-16.87,6.06-.34,5.27,7.07,6.18,7.75.46.35,6.92-1.54,7.16-1.94.34-.55-.46-3.39-.29-4.81,1.11-9.13,8.06-16.18,14.84-6.72,2.12,2.95.07,4.59,4.65,3.45,6.57-1.64,3.9-3.68,5.25-8.5,1.71-6.14,7.55-9,13.51-6.87,5.28,1.88,4.99,7.42,6.26,8.09.85.45,6.01-.03,6.97-.43.89-.37.78-13.64,10.44-14.61,3.46-.35,7.88,1.77,9.99,4.46,1.81,2.31,3.14,8.66,3.54,8.94.33.24,7.45-1.35,7.77-1.92,1.14-2.08.22-8.11,3.05-11.41,5.18-6.05,16.4-2.33,18.92,4.55.54,1.47.66,5.5.97,5.76.36.3,9.07.17,9.34-.21.14-.19-.51-2.79-.28-3.96,1.67-8.75,11.2-12.58,18.25-6.85,3.72,3.02,5.47,11.66,7.32,12.12.93.23,7.61.44,7.84.12-.77-20.96,21.34-9.57,19.63,5.93,2.59-.89,5.01.97,7.15,1.02,2.08.05,1.07-.46,1.19-1.57.36-3.26.26-10.22,5.67-9.54,9.22,1.16,4.89,19.45,15.28,18.63-2.77-6.6,5.24-11.89,7.64-5ZM927.75,442.87c-.12-.95-5.68-1.68-6.9-2.42l3.66,28.72c.04.35,5.83,1.44,6.84,1.95l-3.6-28.26ZM906.94,434.7l-8.69-1.72,3.9,30.57c.06.44,7.61,1.87,8.69,1.72l-3.9-30.57ZM878.65,427l-9.38.25,3.96,31.04c.14,1.1,8.07,1.77,9.68,2.06l-4.25-33.35ZM845.63,426.5l-9.38.25,4.13,32.43c.06.49,9.38-.3,9.21-1.64l-3.96-31.04ZM813.78,427.74l-9.26,1.18,4.02,31.5,9.26-1.18-4.02-31.5ZM782.04,429.9c-3.43.64-8.54-.49-7.93,4.31l4.08,31.96c1.08-.65,8.27-1.57,8.22-1.99l-4.37-34.28ZM754.72,437.15c-1.54.2-8.41.52-8.16,2.45l4.19,32.89c1.54-.2,8.41-.52,8.16-2.45l-4.19-32.89ZM730.41,445.9c-1.65.11-6.12,1.32-6.76,2.7-.15.33-.5,6.81-.46,7.16l3.25,25.48c1.53,0,8.21-2.08,8.04-3.38l-4.08-31.96ZM710.05,456.03c-1.72.32-5.61,2.66-5.91,4.2l2.75,30.1c.96.77,7.1-3.39,6.99-4.18l-3.84-30.11ZM696.52,468.11c-1.9-.15-7.82,5.16-7.69,6.16l3.37,26.41c1.29-.08,7.79-5.34,7.69-6.16l-3.37-26.41ZM936.86,447.83l3.54,27.79c.05.43,6.58,1.13,7.55,3.74l1.38-.17-3.54-27.79-8.93-3.57ZM696.79,513.83c32.89-28.37,106.79-41.92,149.3-42.05,37.76-.12,83.02,5.38,112.45,30.65,6.28-3.09-.56-8.53-3.52-11.16-28.69-25.44-96.23-28.98-133.13-25.99-38.01,3.08-108.81,18.91-134.6,48.73-1.75,2.03-6.93,9.33-3.25,11.25,1.75.91,10.47-9.46,12.74-11.42ZM946.29,523.59c.8,1.38,5.64,4.67,7,4.99,2.1.5,1.01-1.47,1.1-2.45.44-4.63.01-12.36-1.27-16.77-.94-3.23-5.33-6.09-8.05-7.94-54.06-36.87-182.91-24.14-234.96,11.87-5.4,3.74-17.29,13.02-17.55,19.82-.17,4.57,1.89,10.52,1.95,15.29,8.5-3.48,5.58-6.14,6.8-12.69,1.6-8.53,8.41-6.72,9.63,1.18,10.41-1.53,1.59-14.89,9.79-18.71,9.54-4.44,7.8,6.34,9.52,7.78.27.22,6.3-1.59,6.69-1.76,1.59-.66-1.32-16.44,8.3-18.01,7.72-1.25,9.03,9.24,10.21,9.85.81.43,6.86-1.47,7.09-1.84.34-.55-.46-3.39-.29-4.81.82-6.87,4.1-11.59,11.71-10.24,6.96,1.23,6.36,9.59,6.87,10,.26.22,5.76-.61,6.75-1.05,2.79-1.23,2.03-6.96,3.28-9.98,5.2-12.56,23.26-7.31,22.27,5.97,12.19.61,6.95-5.05,11.69-11.42,6.13-8.25,16.9-4.56,20.14,4.28.53,1.44.7,5.49,1,5.74.36.3,8.97.18,9.31-.24.27-.34-.06-5.68,1.34-8.56,5.11-10.49,16.54-5.01,20.28,3.9.61,1.45.95,5.33,1.17,5.51.36.3,8.97.19,9.3-.23.17-.22-.37-2.61-.02-3.74,3.59-11.35,16.05-5.44,18.81,3.81.48,1.63.52,6.3,1.04,6.76.32.28,7.2.9,8.49.9-2.13-9.8,7.6-13.68,11.66-4.83,3.06,6.67-.56,12.66,8.76,13.48,2.09-.42-.84-11.24,5.42-8.07,4.45,2.25,2.49,8.32,4.75,12.21ZM937.91,522.55c-.11-.9-6.68-2.64-7.93-3.23.84,7.27,1.92,14.53,2.81,21.81.95,7.71-1.43,10.35,8.96,11.53l-3.84-30.11ZM916.05,513.57l-8.69-1.72,4.13,32.43c.06.44,7.44.49,8.69,1.72l-4.13-32.43ZM887.76,505.87l-9.38.25,4.37,34.28c.06.48,8.27.63,9.62,1.6l-4.61-36.13ZM856.48,504.21l-10.19,1.3,4.25,33.35c.07.51,9.14.04,10.31-.37l-4.37-34.28ZM822.65,504.76c-1.73.29-9.35.54-9.09,2.57l4.31,33.82,9.26-1.18-4.49-35.21ZM790.52,511.21c-.26-2.02-9.52-.84-9.27,1.18l4.43,34.74c1.58-1.49,8.86-1.74,9.15-2.11,1.05-1.34-3.73-29.25-4.31-33.82ZM763.02,517.07c-1.46-.31-8.22,1.97-8.04,3.38l4.19,32.89c1.32-1.42,8.27-1.57,8.22-1.99l-4.37-34.28ZM738.6,524.89c-1.33.71-7.55,2.53-7.92,3.06-2.15,3.12,3.43,29.59,3.38,35.17.57.46,9.03-3.02,8.85-4.42l-4.31-33.82ZM717.42,536.06c-1.55-.4-7.1,3.38-7,4.19l4.19,32.89c1.6.1,7-4.21,6.88-5.11l-4.08-31.96ZM701.93,547.46c-1.6-.1-7,4.21-6.88,5.11l3.84,30.11c1.33.28,6.94-4.68,6.88-5.11l-3.84-30.11ZM946.21,528.55l3.48,27.33c.06.5,7.81,4.3,8.99,4.03l-3.66-28.72-8.81-2.64ZM703.99,597.07c54.51-45.66,194.15-59.56,254.91-20.71,2.52,1.61,9.17,7.98,10.97,8.49,2.03.58,1.8-4.93,1.43-6.07-.4-1.23-3.5-4.43-4.65-5.41-31.33-26.9-106.27-30.44-145.6-26.06-34.61,3.85-105.05,20.67-126.98,49.62-1.81,2.38-5.3,10.95-.27,9.84,1.32-.29,8.12-7.96,10.18-9.68ZM957.29,604.34c1.02,1.66,5.85,3.31,7.64,4.68.61-14.16.07-19.64-12-27.11-56.47-34.93-176.17-22.82-230.68,11.75-14.79,9.38-26.12,17.71-20.98,37.23.27,1.04-.12,1.92,1.54,1.18,9.33-4.19,4.38-7.51,6.11-14.48,2.41-9.69,10.04-4.26,8.02,3.28,9.86-2.52,5.57-7.67,7.35-14.77,2.55-10.16,13.79-8.09,13.71,2.69,12.93-.05,4.4-10.23,10.18-16.76,6.45-7.29,14.2-1.34,14.01,7.09,11.2-.66,7.21-3.89,9.42-10.68,2.24-6.89,12.1-10.06,16.26-3.63,2.42,3.74.35,6.48,5.63,5.6,7.67-1.28,4.33-4.31,6.13-9.51,2.65-7.68,13.45-9.14,18.66-3.01,4.72,5.55,1.09,10.93,12.27,7.86-.89-12.56,12.54-20.67,21.32-10.26,2.38,2.83,2.96,7.83,3.96,8.91.28.3,7.85,1.1,8.14.81.23-.23.48-5.03.89-6.42,3.23-10.79,16.72-8.78,20.75.58.75,1.74.32,4.09,1.4,5.74,1.39,2.13,7.7,1.89,10.1,1.53-2.94-11.45,10.44-15.39,16.31-6.52,4.31,6.52-.3,11.69,10.5,13.42,2.28.36.76-3.03,1.2-4.85,1.9-7.83,9.02-7.38,12.2-.61,2.66,5.66.76,13.53,9.63,12.91.07-3.19-.5-7.69,3.3-8.65,5.87-1.49,5.45,9.44,7.03,12.03ZM947.38,604.2c-.08-.63-5.89-2.53-7.01-3.34,1.86,5.72.43,28.88,4.05,31.98.37.32,6.65,2.79,6.91,2.4l-3.96-31.04ZM925.58,595.68c-.13-1.01-7.25-2.17-8.75-2.18l4.19,32.89c.14,1.12,8.18,2.96,8.75,2.18l-4.19-32.89ZM897.35,588.45c-3.23.72-6.43.49-9.49-.67,2.12,5.07,1.47,32.89,4.41,34.76,1.53.97,7.42.98,9.57,1.12l-4.49-35.21ZM865.14,586.91l-9.38.25,4.37,34.28c.06.47,8.38-.46,9.38-.25l-4.37-34.28ZM831.31,587.45l-9.26,1.18,4.37,34.28,9.26-1.18-4.37-34.28ZM798.89,591.59c-1.73.29-9.35.54-9.09,2.57l4.31,33.82c1.73-.29,9.35-.54,9.09-2.57l-4.31-33.82ZM772.96,609.44c-.26-1.62-1.45-9.66-2.26-10.07-1.16-.07-8.22,2.08-8.17,2.5l4.25,33.35c2.19-1.04,8.38-1.36,8.83-3.61.53-2.68-2.02-18.19-2.65-22.18ZM746.45,608.63c-1.08.65-8.27,1.57-8.22,1.99l4.25,33.35c.97-.25,8.16-2.49,8.1-2.92l-4.13-32.43ZM721.01,652.83c.03.24-1.16,1.42-.63,2.43.55.38,7.96-4,7.8-5.23l-3.84-30.11c-1.55-.4-7.1,3.38-7,4.19l3.66,28.72ZM709.66,630.27c-1.29.08-7.79,5.34-7.69,6.16l3.6,28.26c.87-1.47,7.92-4.31,7.87-4.77l-3.78-29.65ZM956.54,609.62l3.84,30.11c.06.5,7.88,2.85,9.05,4.5l-4.08-31.96c-.09-.68-6.62-2.95-7.6-4.19-.27.49-1.25,1.3-1.21,1.55ZM564.83,734.87c1.33,1.91,11.16,1.69,13.85,1.53,30.83-1.74,62.26-6.82,93.23-5.01,1.55.09,10.83.75,11.25,1.13.24.22.14,2.02.36,2.76-33.88,3.94-68.1,5.82-102.18,7.39-1.03.05-4.41-.19-4.03,1.43,38.61,9.53,79.06,12.02,118.77,8.41l-3.99-46.11c-.97-2.97-8.06-3.12-8.75-10.08-.17-1.74.68-6.43,1.22-8.26.51-1.72,4.74-8.38,4.03-8.98-7.31-.95-14.39,1.9-21.35,3.93-21.36,6.25-42,15.05-62.8,22.81.82,1.61,5.6.33,7.04.02,19.93-4.29,36.7-9.99,57.95-11.18,2.97-.17,7.72-.09,3.93,3.12-34.82,7.99-69.84,15.74-102.94,29.33.77,1.98,1.48,1.09,2.71.92,9.24-1.31,19.58-5.73,28.91-7.78,20.51-4.49,50.44-8.84,71.26-7.94,6.62.29,8.42,2.92.83,4.43-34.77,6.94-71.94,9.59-107.18,16.44-.9.17-3.27.01-2.11,1.67ZM613.54,784.71c-20.4-4.92-42.75-8.27-62.73-14.45-4.7-1.45-9.67-3.39-14.11-5.51-1.87-.89-14.61-8.74-15.2-7.86.86,8.88,12.6,15.58,20.01,18.91,16.06,7.23,52.48,12.44,69.97,11.03,1.93-.16,2.73.22,2.06-2.13ZM686.63,804.11c-1.04-2.98-13.64.96-16.03,2.61-3.59,2.49-5.63,7.26-8.21,10.35-1.73,2.07-12,8.98-3.88,10.45,2.73.49,15.35-4.79,16.1-6.84.74-2.01-1.71-1.01-2.5-1.05-2.03-.1-4.1-.12-6.13-.21-.05-1.51,1.27-1.54,2.17-2.07,2.93-1.72,19.92-9.07,18.47-13.25ZM683.08,798.42c-.5-3.98-7.5-4.34-10.26-3.45-.75.24-.42,4.6-.73,5.79l10.99-2.34ZM698.34,785.18l-1.12-15.81c-26.07-.91-52.31-.36-78.3-2.95-15.94-1.59-57.5-7.14-68.42-18.42-11.15-11.51.98-18.94,8.79-27-23.38,6.26-38.3,26.55-10.17,40.65,30.72,15.41,68.86,11.66,101.88,15.12,15.89,1.66,31.67,5.53,47.35,8.4ZM705.7,682.73c56.53-50.68,205.35-64.99,268.02-19.77,2.66,1.92,6.96,8.55,10.2,6.3,6.04-4.2-7.34-13.55-10.46-15.67-63.71-43.2-214.38-29.89-270.56,21.97-5.23,4.83-10.83,10.05-8.72,17.88,1.49,1.21,9.63-9.01,11.52-10.7ZM705.37,718.4c.45-.16,7.97-4.52,8.18-4.95.29-.61-.78-9.39.4-13.47,4.2-14.55,22.05-20.26,25.08-1.89,8.17-1.6,3.92-6.43,4.31-12.11.81-11.56,22.48-23.41,29.71-10.83,2.01,3.51.72,10,6.72,7.43,1.06-.45.66-7.41,1.07-9.34,4.8-23.17,42.26-25.08,43.73,1.7,10.01-.7,6-2.67,6.99-9.21,2.9-18.98,36.03-21.63,45.11-4.71,2.64,4.91,1.03,13.48,8.71,10.87-2.67-15.8,14.44-20.57,26.38-14.14,3.88,2.09,8.94,7.97,10.79,11.96,1.38,2.99,1.74,7.97,3.8,9.11,5.84,3.24,3.95-2.84,4.88-6.12,4.35-15.38,24.97-6.03,30,5.31,1.19,2.68,2.26,9.7,3.47,10.62,2.03,1.54,10.13,1.82,12.83,4.45.56-22.73-19.01-32.06-37.5-38.4-65.55-22.44-168.39-12.42-224.41,29.87-4.9,3.7-12.77,9.01-13.03,15.8-.16,4.14,1.43,11.23,2.01,15.75.04.31-2.04,3.25.77,2.27ZM836.29,678.15c-6.38,1.67-16.26-1.47-13.07,8.26l13.9-1.77-.82-6.49ZM770.52,694.52c.95,4.34,5.22.39,7.33-.22,3.07-.89,6.28-1.49,9.35-2.37,1.26-8.13-17.97-3.27-16.68,2.59ZM750.61,700.37c-3.19-.36-14.5,3.35-15.07,6.3-.27,1.42.16,5.14,2.33,4.33,3.95-1.47,8.68-5.19,13.21-6.08l-.48-4.55ZM704.58,730.72c2.19-.66,16.36-7.06,16.75-7.91.5-1.09-.62-3.97-.56-5.45-2.05-1.61-19.31,7.33-16.18,13.36ZM722.98,793.81l-7.74-60.69-8.09,3.49c1.84,16.97,4.1,34,5.66,51,.23,2.47-.33,4.83-.07,7.49.19,1.93-.35,3.38,1.85,3.11,1.73-.22,8.58-2.87,8.38-4.4ZM743.58,785.54l-11.46-89.87c-.43-3.36-7.6.63-9.03,3.26-.33.6-2,6.27-1.95,6.62l10.81,84.77c3.75-1.39,8.75-2.26,11.63-4.78ZM754.46,782.27l-8.8-69.02c-.89.57-6.41,1.43-6.37,1.75l8.86,69.49c1.33-.01,6.52-.58,6.31-2.22ZM780.79,774.67l-9.48-74.61c-.3-2.36-2.46-3.85-2.77-6.2-.65-4.94,5.31-9.87-1.79-14.88-5.79-4.08-11.71.24-14.21,5.77-3.27,7.23.56,12.52,1.44,19.43.39,3.06-.27,5.73.03,8.43,2.53,22.43,6.04,44.79,8.61,67.21l18.17-5.15ZM792.61,771.28l-9.21-72.27c-.79.17-6.41,1.43-6.37,1.75l9.1,71.34,6.49-.83ZM829.32,763.78c-2.79-23.65-6.33-47.25-9.08-70.91-.93-7.96.57-15.53-3.44-23.52-6.72-13.42-30.35-4.15-30.18,10.05.06,5.1,2.91,9.15,3.54,13.59,1.53,10.78,1.93,22.63,3.29,33.43,1.77,14.07,3.7,28.13,5.42,42.19l4.64-.6-4.78-37.52c-.1-.79.93-6.26,1.44-7.23,2.11-3.98,9.6-6.17,13.75-4.84.71.23,5.48,4.36,5.53,4.72l5.26,41.23,4.64-.59ZM842.11,760.74l-8.8-69.02-7.41.94,9.1,71.34c1.83.32,7.37-1.29,7.12-3.26ZM896.95,755.16l-8.21-64.39c-.23-1.79-6.1-.72-7.59-.44l8.39,65.78,7.41-.94ZM923.07,739.88l-6.8-54.53c1.29-5.99,2-10.47-2.11-15.55-7.84-9.69-27.45-8.48-21.7,4.31.62,1.38,6.08,4.23,4.42,6.68-.3.45-6.79-2.43-8.3-2.75-4.68-.98-11.26-1.38-15.44,1.07-.92-2.47,0-5.54-.41-7.8-3.64-19.77-33.78-16.61-34.43.47l11.4,89.41,33.35-4.25-9.33-73.19c2.52-1.12,20.4-.38,20.87.74l9.78,69.74c5.3.64,5.76-3.75,8.68-6.23,2.4-2.04,9.58-5.45,10.02-8.11ZM939.65,691.33c.96-6.42-19.18-8.73-20.63-6.78.33,1.13.1,3.99.67,4.53.74.69,17.52,2.39,19.96,2.25ZM940.21,732.12c-1.22-4.4-3.39-33.8-5.04-34.67-.95-.5-7.46-1.35-8.01-.75-.22,1.08,1.12,1.8,1.22,2.19,2.76,11.17,2.21,25.12,4.67,36.6l7.16-3.37ZM957.11,687.66c-1.08-5-4.55-12.68-9.68-14.46-5.68-1.97-11.59.03-10.78,6.92.48,4.08,4.73,5.84,5.54,8.6.44,1.5-1.39,1.27-1.74,2.89-.86,4.03,1.39,9.32,1.89,13,.94,6.95,1.64,13.95,2.62,20.88,2.62-.25,3.9-2.95,6.06-4.07,3.07-1.59,9.5-1.49,9.74-4.99.32-4.82-2.47-23.35-3.64-28.76ZM987.77,706.85c-6.19-7.13-17.22-12.4-26.79-10.7-1.79,6.57,7.14,4.63,8.54,7.86,1.62,3.75.78,12.72,2.19,17.14,1.8-1.87,4.83-3.57,6.26-5.59,3.11-4.39,1.16-8.31,9.81-8.7ZM265.82,173.67c-8.34,2.5-7.57,36,4.39,34.82,10.04-1,8.82-38.78-4.39-34.82ZM302.65,32.63c2.76.81,4.65,6.51,9.31,8.17,3.02,1.07,7.29.67,9.4,1.99,1.43.89,2.75,6.19,4.63,7.9,10.47,9.53,27.74-8.47,11.21-19.95-1.6-1.11-3.86-.95-5.41-2.17-2.56-2.02-2.75-6.32-8.45-7.37-5.27-.97-9.38,3.1-12.32,3.03-1.85-.04-3.54-2.69-5.7-3.57-6.44-2.64-14.75-.16-14.76,7.69,0,6.76,7.57,2.97,12.09,4.29ZM554.56,434.67c-24.82,6.86-16.18,48.02,12.46,41.37,26-6.04,18.09-49.82-12.46-41.37ZM512.75,168.82c21.52.86,46.69,7.41,67.89,6.67,1.29-.05,6.78-2.59,4.99-4.33-26.92-10.18-56.17-15.68-84.7-19.67-32.88-4.6-66.31-6.98-99.53-7.16-2.86,2.95,11,15.1,12.49,18.67l98.85,5.82ZM426.81,184.81c28.04,5.97,61.35,7.44,90.42,12.18,15.58,2.54,38.47,9.6,52.72,10.32,6.51.33,10.63-4.88,8.54-10.94-1.2-3.48-33.69-9.85-39.28-10.87-39.35-7.17-79.79-9.29-119.57-13.11-2.72.76-1.08,7.46-.14,9.23,1.23,2.31,4.86,2.67,7.3,3.19ZM796.9,678.98c-.49.59-2.28,4.68-2.24,4.95l2.78,21.77,19.34-3.41-2.66-20.85c-.87-6.79-12.86-7.7-17.21-2.46ZM352.81,985.28c-3.64.66-9.12,1.43-12.4,2.6-5.19,1.85,3.85,2.99,6.07,3.15,8.94.65,21.37-.19,29.81-3.26,1.01-.37,7.37-2.95,5.72-4.77-1.96-2.15-24.83,1.49-29.21,2.28ZM31.68,939.82c-2.8-1.85-9.03-11.15-12.17-4.83-5.4,10.84,26,15.47,27.5,14,.52-.51.06-2.55-1.04-3.45-2.53-2.08-10.24-3.04-14.29-5.71ZM110.51,187.47c4.2-.78,5.23-9.77-1.11-10.55-17.33-2.13-44.04.24-61.86,1.21-13.88.75-27.94.41-41.36,4.72-.44.62.77,5.29,1.32,5.63l103.02-1ZM162.06,309.65c5.94,1.33,29.8-1.99,37.05-3.27,7.57-1.34-4.66-11.44-7.91-13.03-4.55-2.23-8.42-.59-10.12-1.45-2.55-1.29-3.89-7.48-7.33-9.16-3.76-1.82-8.74,2.07-12.53-.23-3.23-1.95-1.56-12.02-9.78-11.1-3.09.34-4.99,3.85-8.51.82-1.45-1.24-1.89-4.48-4.69-5.29-3.8-1.09-7.85,2.47-11.98.41-2.05-1.02-3.88-6.91-6.57-7.42-2.11-.4-4.06,2.56-5.95,3.08-7.56,2.11-7.97-6.84-11.58-7.77-2.97-.76-6.32,3.23-10.91,1.71-3.93-1.3-4.41-7-8.76-7.71-4.53-.73-7.95,2.56-11.53,2.32-4.04-.27-6.31-5.08-9.65-5.61-3.49-.55-7.84,3.18-11.23,2.98-2.66-.16-4.76-2.65-7.24-3.11-4.27-.78-9.68.69-13.87-.12-2.71-.52-4.14-3.2-6.98-3.3-1.54-.06-16.38,1.58-16.98,2.19-.59.6-.06,4.24,2.01,4.4,46.77,11.25,93.22,25.67,135.6,48.62,4.64,2.51,15.65,11.16,19.46,12.02ZM57.02,960.99c-.89,3.55,2.05,3.61,4.74,4.75,14.78,6.25,53.12,13.37,68.49,10.96.87-.14,5.84-.95,3.77-2.7l-77-13ZM998,761.08c-14.17.07-32.92,3.62-47.42,5.17-64.05,6.84-125.67,18.97-186.66,40.04l-28.42,11.81c13.86-3.17,27.68-6.94,41.57-9.99,46.04-10.11,93.26-18.55,139.83-25.41,25.21-3.71,54.4-4.78,78.78-10.02,3.36-.72,12.87-3.09,11.82-7.59-.57-2.45-7.11-4.02-9.5-4.01ZM614.72,808.99c.41-.62-.91-4.51-1.79-5.17-1.6-1.21-29-1.7-34.4-2.49-4.97-.72-33.73-8.65-35.29-6.72.99,5.23,7.12,8.26,11.56,10.41,16.94,8.22,42.27,10.83,59.92,3.98ZM482.23,920.7c-33.33,8.52-69.52.77-103.21,7.29-.25,1.49,1.87,1.24,2.98,1.49,22.73,5.2,47.66,1.55,70.47.46,3.9-.19,18.15-.66,20.88.2.56.18,1.56.94,1.65,1.36.99,4.45-23.65,11.16-27.79,12.19-7.35,1.83-29.57,4.14-34.22,6.78-.48.27-1.29,1.28-.99,1.5,10.79.2,21.79-.51,32.51,1,1.28.18,3.5,1.35,1.51,2.53-1.8,1.07-11.81,2.29-14.53,2.47-20.05,1.35-40.54-1.8-60.48,2.02-.06,1.45,3.6,1.51,4.79,1.7,12.58,1.98,25.53,2.24,38.21,3.3-6.38,5.82-19.93,8.26-28.52,8.97-30.31,2.51-49.69-11.83-81.71-4.71-1.6.36-7.56,1.24-6.77,3.72l38.99,4.01c.13.92.1,1.27-.48,2.01-7.84,10.05-71.45,4.07-85.51,3.99-.24,1.53,1.86,1.18,3,1.47,3.8.97,8.74,1.53,12.26,2.57,3.3.97,8.62,2.95,13.28,3.89,1.76.36,3.67-.05,5.46.06-4.28,4.7-13.38,2.86-19.49,3-23.92.54-53.6-.38-76.94-7.08-1.35-.39-9.24-2.57-9.56-2.96-.24-.29.11-2.14-.02-2.96l25.55.04,11.45-2.03c-17.35-2.38-34.81-2.68-52.19-5.32-23.21-3.53-50.14-8.74-73.05-13.95-2.09-.47-9.15-2.04-7.23-4.74,2.48-1.75,19.55.94,23.93,1.03,12.46.28,28.64.19,40.76-2.35,1.71-.36,4.47-.05,3.77-2.69-19.73.27-39.71,2.54-59.36-.14-12.32-1.68-43.25-9.06-50.08-19.91-4.39-6.97,2.97-10.72,1.45-12.94-12.99-1.76-49.03-14.43-17.01-22.52,9.37-2.37,20.38-3.5,30-3.5.52-2.85-.7-1.64-2.2-2.25-4.59-1.87-20.31-7.57-19.87-13.23.53-6.76,18.11,1.58,21.81,2.24,1.75.31,3.49.33,5.25.24-8.64-18.5-11.42-40.82-3.76-60.25,2.5-6.34,8.93-16.95,17.01-15.57,3.78.65,17.25,10.13,22.39,12.69,17.29,8.58,33.6,11.84,52.1,15.91l24.26,1.23c.25,6.74-1.87,12.21-.55,19.06,1.05,5.46,2.09,5.44,7.55,4.94-4.92-32.16,11.98-79.94,50.01-81,.86-3.74-2.17-5.1-3.54-7.96-1.96-4.09-2.66-7.72-4.29-11.71-2.24-5.49-5.62-7.12-5.25-13.85,1.04-18.91,38.62-29.74,46.09-9.48,2.43.45,2.27-2.03,4.26-3.31,13.89-8.88,16.64,15.01.72,15.32,2.68,8.79,5.16,18.78-.57,26.92-6.53,9.27-17.65,2.23-19.43,4.08-2.58,2.67,6.61,5.6,8.68,6.82,7.02,4.17,13.4,9.67,20.63,13.37,7.58,3.87,16.06,5.89,23.76,9.41,1.11,5.12-14.75,15.41-19.25,16.74-6.57,1.94-8.81-3.64-14.81-4.34-.07,4.66,3.87,8.24,2.99,12.99-1.34,1.4-7.81-3.51-9-4.78-10.26-11.01-15.46-34.38-32.99-38.21l10.8,16.69c6.56,10.74,15.78,35.14,31.6,33.28,2.03-.24,14.64-8.21,17.12-9.95,4.92-3.44,16.13-11.51,17.04-16.99.23-1.4-.61-2.73-.51-3.41.1-.7,1.5-.66,1.86-1.41,1.29-2.69.99-4.62,4.12-6.69,6.77-4.48,12.07-.66,16.97-1.96,2.66-.7,14.88-9.59,14.81-11.89-.15-4.74-3.72-2.83.79-9.6,4.36-6.55,19.29-19.48,25.93-25.07,7.65-6.44,12-9.96,22.46-6.52,11.02,3.63,17.46,15.8,10,25.99-3.5,4.78-31.54,24.63-36.96,26.03-2.67.69-10.3.02-11.85-1.77-.53-.61.02-2.45-.23-2.69-2.71-2.61-12.68,8.65-15,10.4-1.25.94-3.81,1.41-3.94,1.57-.54.7,2.11,4.91,1.8,7.23-.81,6.21-9.27,10.4-14.76,11.28-4.32.69-8.92-.24-12.77,1.23-3.41,1.3-18.74,11.99-22.22,14.78-9.96,8.01,13.44-1.44,14.56-1.52,9.43-.68,15.36,7.18,19.57,14.28,3.35,5.65,1.29,10.28,10.82,8.68.01-3.21-.88-6.45-2.11-9.39-.84-2.01-8.42-12.09-7.88-12.61,4.49,1.08,9.03,2.27,13.64,2.85,25.49,3.24,67.34,5.32,91.64-3.08,15.24-5.27,24.15-16.3,35.88,3.56,8.91,15.08,8.6,37.27,3.12,53.45-2.34,6.91-6.61,12.72-11.29,18.21,13.42-.04,26.9-1.22,39.99-4l-9.46-4.02c-3.39-1.22-7.19-1.17-10.53-2.52-1.61-.65-2.44.12-2-2.45,4.99.38,10.6-.52,15.5,0,2.3.24,14.91,3.49,16.45,4.55,11.05,7.59-16.23,15.02-20.74,16.17ZM72.03,853.99c1.55,21.7,14.24,40.33,33.96,49.53,4.3,2.01,12.89,5.93,17.04,2.99,1.65-1.17.56-1.59-.65-2.38-20.61-13.46-27.89-13.89-42.38-36.62l-7.97-13.52ZM58.02,914.98c-1.62-2.81-5.29-3.85-.72-6.21,6-3.1,18.13-4.36,25.49-7.51,1.24-.53,2.96-.53,3.23-2.27h-28.5c-4.76,1.73-31.76,3.9-18.4,11.35,5.4,3.01,12.69,5.21,18.9,4.64ZM122.02,940.98c-.56-2-3.25-2.18-4.95-2.54-8.17-1.73-16.74-1.72-25.06-3.94-19.54-5.22-12.8-9.01,1.03-14.99,3.07-1.33,10.26-2.75,12.36-4.44,1.14-.92.53-1.89.62-3.07-10.27,2.18-40.61.07-43.6,13-1.76,7.6,15.06,12.97,20.77,14.32,12.54,2.97,26.12,3.59,38.82,1.66ZM169.39,940.86c4.31-.34,23.62-3.66,26.64-5.36.48-.27,1.29-1.29.99-1.5-3.54.26-7.03-.42-10.48-1.05-1.4-.25-2.95.96-2.51-1.45,13.49-10.68,24.24-25.26,29.99-41.51-3.01-3.15-22.5,23.78-24.48,26.01-3.25,3.65-14.54,15.48-18.48,16.52-6.94,1.82-23.52-1.89-30.32-4.74-4.21-1.76-9.37-4.64-5.4-9.5,1.97-2.42,12.17-9.83,15.36-12.12,8.88-6.36,25.93-18.13,36.82-17.18,4.24.37,8.13,4.08,9.96,4.07.52,0,.62-1.46,1.3-2.01,6.67-5.4,38.71-30.95,44.71-31.07,5.1-.1,9.16,2.88,15.8,1.78,2.94-.49,12.68-5.83,13.72-8.27.86-2.01-1.37-1.36-2.33-1.62-10.83-2.89-8.17,4.13-15.14,4.23-15.22.23-24.97-10.5-34.5-20.62l-13.01-22.48c-2.18,11.94,5.15,27.41,13.02,36.47,2.65,3.05,11.06,7.97,7.75,10.84-1.37,1.19-15.19,9.58-16.32,9.66-36.49-7.11-78.73-14.51-110.76-34.16-9.22-5.66-16.4-13.63-24.77-19.23-1.21-.81-2.29-1.85-3.91-1.58,5,23.73,34.2,39.02,55.01,47.48,22.99,9.35,42.01,10.34,65.01,15.98,1.6.39,6.79,1.1,5.97,3.53h-20.5c-4.37,0-30.69,15.68-35.81,19.18-4.03,2.76-25.71,19.55-26.54,22.54-1.13,4.06,3.16,6.81,6.15,8.49,11.49,6.44,34.03,9.7,47.07,8.66ZM211.01,964c-3.92-3.9-45.33-4.12-53-3,.43,1.9,2.51,1.97,4,2.49,13.04,4.57,34.32,6.49,47.55,2.53,1.09-.33,3.11-.38,1.45-2.02ZM233.4,952.87c2.05-.33,5.71-.65,6.61-2.88-23.61-6.93-47.8-5.74-71.99-3-.24,1.44,1.76,1.4,2.79,1.68,17.2,4.79,45.07,7.05,62.59,4.19ZM220.02,937.98c18.46,5.06,35.94,9.4,55.23,5.74,2.49-.47,18.51-5.07,9.27-6.72-6.03-1.08-16.3.27-23.03.03-2.37-.08-4.55-1.02-6.92-1.08-9.32-.24-24.32-1.08-33.06.04-1.38.18-2.99.61-1.48,1.99ZM284.01,966c-12.72-3.67-26.18-5.99-39.53-5.05-1.87.13-22.54,2.92-19.46,7.03,16.66,5.79,35.23,4.71,52.2.72,1.72-.4,5.92-1.17,6.79-2.69ZM332.02,951c-11.47-1.22-22.73-4.69-34.54-4.05-2.36.13-24.51,4.28-24.47,5.54,12.76,3.96,26.13,5.55,39.55,4.54,5.8-.44,15.35-1.99,19.46-6.03ZM363.47,933.95c-3.89,1.15-42.47,4.39-42.46,6.54,28.41,7.54,61.18,9.51,89.85,1.84,2.06-.55,6.12-1.26,7.16-3.33l-54.54-5.05ZM438.01,875.99c-5.15,4.08-8.61,9.56-13.52,13.97-46.99,42.26-137.4,29.6-195.93,27.99-6.05-.17-14.01-.79-19.43,1.66-.99.45-4.77,2.6-4.11,4.38,44.94,5.46,92.29,7.35,137.5,3,34.98-3.37,86.57-10.08,95.5-50.99ZM440.01,838.99c-53.78,26.18-119.82,36.1-179.54,34.04-12.49-.43-12.77-5-23.92,4-1.04.84-6.67,4.79-5.53,5.96,1.16-.39,2-1.05,3.36-.93,18.09,1.61,33.66,3.63,52.17,2.97,36.98-1.3,119.21-13.48,147.94-37.06,2.74-2.25,6.27-5.14,5.52-8.97ZM151.04,176.08c1.47,5.04,7.06,12.79,12.24,7.6,4.67-4.67,3.39-28-2-33-11.66-10.81-12.33,18.25-10.25,25.4ZM23.02,217.74c-5.27.4-23.97,3.42-11.29,7.89,12.48,4.39,39.53,5.1,54.28,7.51,65.91,10.79,138.72,24.98,193.99,63.68l37.64-3.25c2.16-1.76-9.72-9.94-10.81-10.75-49.07-36.23-135.18-54.37-195.3-61.22-19.77-2.25-48.48-5.38-68.51-3.87ZM136.73,126.24c1.19-2.76-2.37-.46-4.29-1.38-9.71-4.67-3.37-16.8,4.06-21,12.42-7.02,29.56-9.6,43.23-13.32.64-.99.5-21.95-.04-23.55-1.11-3.26-11.51-3.77-5.72-11.94,2.49-3.52,17.76-8.82,22.49-10.15,21.75-6.15,67.26-10.37,87.83-.9,2.42,1.11,11.5,7.71,8.68,10.55-.92.92-6.37-3.5-7.05,1.79l4.73,32.02,13.99.02c-.53-6.49.77-13.96-.11-20.31-.88-6.34-7.97-14.1,7.42-10.91,14.66,3.04,7.27,23.9,9.02,34.69,15.54,3.03,39.45,5.09,53.28,12.6,12.86,6.98,6.99,30.36,8.7,42.6.79,2.3,7.49,4.76,9.72,6.61,17.39,14.39,21.59,34.47,15.45,56.25-.97,3.42-4.51,5.7-3.19,10.21,2.99-3.29,8.6-2.37,11.98-.05,2.09,1.43,2.15,5.26,6.15,5.89,4.07.64,9.15-2.55,11.46-2.11,3.41.66,1.9,8.64,10.49,7.89,2.61-.23,5.68-2.74,8.06-2.13,2.59.66,5.78,6.9,8.64,7.75,4.4,1.31,10.81-1.07,15.24,1.08,3.22,1.57,2.58,6.31,5.75,7.17,3.9,1.06,9.63-3.6,15.48.75,1.66,1.24,2.23,3.47,3.57,4.58,4.43,3.65,7.72.57,12.18.55,6.47-.02,24.75,10.76,17.29,15.36l-46.18,6.64c-39.41-20.33-81.15-40.67-126.77-40.54l38.1,13.77c8.23,4.44,17.34,7.42,25.65,11.67,2.72,1.39,20.53,11,21.14,12.05.38.65.45,2.79.17,3.25-.82,1.31-28.1,4.72-30.58,4.49-3.18-.3-25.68-13.72-31.54-16.28-28.38-12.41-60.78-20.15-91.72-21.94l39.27,14.93c13,6.53,26.31,12.71,38.05,21.41,1.81,1.34,11.69,8.07,10.12,10.27-4.83.6-12.11,2.7-16.75,2.29-6.03-.53-9.71-6.08-14.35-9.07-16.21-10.46-48.69-28.91-66.8-33.47-3.24-.82-6.68.07-8.66-.47-1.12-.3-.66-2.87-1.85-4.14-3.96-4.23-16.56,2.06-22.17.56,4.04-16.02-18.22-6.2-26.05-8.11-.96-.24-1.84-6.1-7.74-7.66-6.62-1.74-11.44,1.24-15.72.66-1.99-.27-8.21-5.31-11.82-5.86-3.99-.61-9.41,1.73-14.95,1.04-4.59-.57-10.17-4.54-14.05-4.59-6.02-.08-8.41,5.07-14.69-.5-1.31-1.16-1.94-3.52-3.06-4.19-3.79-2.27-14.48-.75-19.58-1.11-22.48-1.57-45.07-3.78-67.59-4.7-6.08-.25-40.31,1.88-41.43-2.88-.64-2.72,6.04-4.5,7.87-4.94,19.68-4.75,54.71-2.91,75.45-2.57,11.15.18,22.16.68,33.27,1.1-7.16-21.9-6.69-44.23,4.87-64.5,1.28-2.24,4.77-5.26,5.61-7.22ZM393.26,209.61c3.01.55,2.07-.53,2.87-2.31,3.02-6.71,3.76-18.89,2.86-26.15-.13-1.07-1.94-7.43-2.25-7.67-4.99-3.95-2.29,11.01-2.26,12.18.18,8.11-.99,15.91-1.22,23.95ZM241.69,164.14l1.34-1.24c-.78.18-1.64,0-1.34,1.24ZM263.51,163.26c-23.12,4.81-18.32,60.28,6.43,58.92,26.51-1.46,24.46-65.35-6.43-58.92ZM293.61,146.66c4.36-.68.51-5.53-1.2-7.01-9.37-8.05-21.63-3.82-32.07-1.16v-16.91c0-3.34-6.12-3.8-7-2.92-.22.22,0,4.46-.32,6.09-2.13,10.94-5.06,27.02-8.99,37.2l8.24-7.63c6.5-4.69,11.96-8.29,20.26-8.88,7.13-.51,14.71,2.19,21.08,1.21ZM295.33,174.64c2.88-2.32,12.42-2.49,9.11-7.98-.9-1.49-7.4-3.22-9.79-1.43-3.51,2.62,1.14,5.82.68,9.41ZM294.16,214.29c.59,1.82-1.74,5.13-.07,6.38,2.01,1.5,9.39,2.31,10.55.59,2.47-3.67-7.45-7.96-10.48-6.98ZM308.72,197.96c-7.23-1.25-11.44-1.03-11.08,6.99,3.38.16,7.57,2.2,10.92,1.02,2.18-.77,4.94-7.18.15-8.01ZM310.31,178.3c-1.68-1.04-11.8,1.24-12.5,2.33-.62.97-.4,6.99.34,8.07,1.54,2.24,10.75,1.15,13.31-.24.82-1.31-.08-9.5-1.16-10.17ZM324.58,195.75l-3.62,12.69,25.65,4.68c2.16-16.53-8.03-18.76-22.04-17.37ZM320.97,165.31c.39,3,2.61,4.59,3.23,7.85.39,2.08-.04,8.19.26,8.48.4.39,9.27.23,11.08,1.26l42.56-4.76v-12.83h-57.14ZM358.68,128.18c-1.3-.41-15.03-.74-15.57-.17-.28.3.19,3.52,0,4.65,3.79-1.18,13.44,2.71,16.14.99,1.12-.71,2.07-4.63-.57-5.47ZM359.44,139.66c-1.2-.81-13.53.6-16.32,0-.83,8.1,12.04,3.54,17.48,4.66.22-.2-.96-4.52-1.16-4.66ZM341.95,155.98c.68.64,16.25,1.25,18.66,1.18v-5.84h-16.91c-1.25,0-2.43,4.02-1.75,4.66ZM371.06,155.2c.33,1.5,4.39,2.03,5.86,1.95-.54-4.69-.61-32.08-2.26-33.29-4.01-2.94-4.55,2.58-4.79,5.84-.47,6.42-.18,19.34,1.18,25.5ZM253.35,107.61c9.95.9,50.14,6.21,55.97,12.81,4.14,4.69,1.63,38.37,5.36,39.15,2.6.55,4.14-.65,5.66-2.46,3.23-3.84,11.57-22.44,9.4-26.78-.99-1.98-9.31-4.78-6.33-9.22,3.01-4.47,35.51,2.39,40.65-1.89,6.71-5.59-3.61-8.84-8.16-10.4-7.65-2.64-18.45-4.63-26.56-6.09-23.98-4.33-54.41-8.47-76,4.88ZM231.19,86.03l3.63-9.78c4.29-9.02,15.03-4.22,15.03-1.29v22.74l26.01-7.23,1.79-1.48-6.15-28.68c-.26-.4-7.64-2.25-8.24-2.25h-32.06v27.98ZM238.02,197.79c.94-1.5.55-7.07-1.74-7.83-2.24-.73-12.3-.89-13.16,1.71-2.36,7.18,13.57,8.23,14.9,6.12ZM167.86,140.03c-5.22-4.4-12.57-4.59-18.24-.9-16.96,11.07-12.68,56.94,7.6,59.95,24.28,3.61,25.97-46.13,10.63-59.05ZM214.86,193.3h-26.82c1.67,10.65,25.19,11.51,26.82,0ZM214.25,175.84c-2.61-.49-15.88-1.45-18.65-1.29-2.68.16-7.19.89-5.07,4.61,1.84,3.22,12.95,5.18,16.81,4.86,6.24-.51,15.98-6.47,6.9-8.19ZM192.97,159.26c2.59,4.49,24.2,8.06,24.27.83.01-1.46-.63-2.32-1.98-2.75-4.84-1.51-16.6.41-22.55-1.35.09,1.06-.31,2.28.26,3.27ZM194.98,91.34c.58,4.82,10.6,7.77,15.14,11.68,2.23,1.92,3.11,4.49,5.35,6.32.99.44,2.9-1.39,2.9-1.74v-48.39l-22.81,4.59c-.81,1.12-.94,24.46-.57,27.55ZM137.92,116.34c5.21,1.05,9.11-2.09,13.92-2.97,16.9-3.09,31.48-.06,39.74,16.35,2.89,5.74,2.3,14.61,9.88,14.61h16.91c-8.89-31.75-28.4-50.54-62.97-40.24-2.39.71-22.06,7.86-17.47,12.25ZM853.56,669.32c-3.7.58-9.2,5.68-8.75,9.16l2.54,19.92c7.14-.88,14.23-2.21,21.43-1.79l-2.78-21.77c-.46-3.59-9.06-6.05-12.44-5.52ZM292.88,273.26c5.64,3.53,20.51,15.94,24.63,17.34,3.46,1.17,6.93.54,10.44.63.42-2.4-.27-3.08-1.73-4.67-3.57-3.9-18.34-13.16-23.55-16.09-13.31-7.49-27.98-12.66-42.34-17.7-.41,2.08,1.01,2.91,2.39,4.01,6.61,5.25,21.79,11.26,30.15,16.49ZM170.28,271.11c17.41,9.51,36.16,16.07,50.43,31.19l16.3.6c2.18-2.15-6.06-7.83-7.77-9.13-4.63-3.5-10.8-6.88-15.93-9.73-14.64-8.13-31.77-16.05-48.58-17.28.7,1.61,4.01,3.5,5.55,4.34ZM14.82,168.88c15.14-.16,33.49-3.62,49.06-4.72,7.35-.52,42.33-.37,45.5-3.47,1.94-1.91,4.74-13.78.96-15.03-2.21-.73-9.76-.31-12.71-.21-22.14.75-61.06,6.28-81.59,14.02-2.92,1.1-10.74,2.91-8.56,6.86.54.97,5.63,2.57,7.33,2.55ZM330.44,426.52l-20.75,67.17,26.38,119.52c2.51,18.04-10.29,32.62-28.16,33.38-56.63-15.14-112.5-34.53-168.83-51.3-14.42-7-20.87-23.88-13.6-38.59,28.66-31.9,62.56-59.07,93.11-89.26l22.33-71.38c-.12-.22-3.37-1.31-4.55-2.21-12.98-9.9-5.39-29.73,10.59-28.68l96.11,29.53c12.9,6.24,12.38,25.26-2.08,29.51-4.1,1.2-8.49-.58-10.54,2.29ZM302.33,612.94c-3.86-23.83-10.43-47.18-15.44-70.74-1.81-8.5-10.92-46.32-9.23-51.78l23.47-75.71-28.58-8.86c-.11-.03-1.94.93-1.97,1.04l-23.63,76.22c-1.31,4.21-29.48,29.56-34.97,34.78-14.75,14.02-39.61,33.07-51.59,47.81-.73.9-1.33,1.54-1.47,2.79l143.41,44.46Z" fill="#6a6a6a"/>
  <path d="M892.46,674.1c.62,1.38,6.08,4.23,4.42,6.68-.3.45-6.79-2.43-8.3-2.75-4.68-.98-11.26-1.38-15.44,1.07-.92-2.47,0-5.54-.41-7.8-3.64-19.77-33.78-16.61-34.43.47l11.4,89.41,33.35-4.25-9.33-73.19c2.52-1.12,20.4-.38,20.87.74l9.78,69.74c5.3.64,5.76-3.75,8.68-6.23,2.4-2.04,9.58-5.45,10.02-8.11l-6.8-54.53c1.29-5.99,2-10.47-2.11-15.55-7.84-9.69-27.45-8.48-21.7,4.31ZM868.77,696.61c-7.2-.42-14.29.91-21.43,1.79l-2.54-19.92c-.44-3.48,5.06-8.58,8.75-9.16,3.37-.53,11.98,1.93,12.44,5.52l2.78,21.77ZM564.83,734.87c-1.16-1.66,1.22-1.5,2.11-1.67,35.25-6.85,72.41-9.51,107.18-16.44,7.6-1.52,5.79-4.15-.83-4.43-20.82-.9-50.75,3.45-71.26,7.94-9.33,2.04-19.68,6.46-28.91,7.78-1.23.17-1.94,1.06-2.71-.92,33.09-13.59,68.12-21.34,102.94-29.33,3.78-3.21-.96-3.29-3.93-3.12-21.25,1.2-38.02,6.9-57.95,11.18-1.44.31-6.22,1.59-7.04-.02,20.8-7.76,41.44-16.55,62.8-22.81,6.95-2.04,14.04-4.88,21.35-3.93.71.6-3.52,7.26-4.03,8.98-.54,1.82-1.39,6.52-1.22,8.26.69,6.96,7.78,7.11,8.75,10.08l3.99,46.11c-39.7,3.6-80.15,1.12-118.77-8.41-.38-1.62,3.01-1.39,4.03-1.43,34.08-1.57,68.3-3.45,102.18-7.39-.22-.74-.12-2.54-.36-2.76-.41-.38-9.7-1.04-11.25-1.13-30.97-1.81-62.4,3.27-93.23,5.01-2.69.15-12.52.38-13.85-1.53ZM680.12,368.99c.2-2.33,4.52-6.78,6.33-8.46,46.04-42.59,192.51-56.63,243.62-17.77,7.17,5.45,6.5,13.43,6.53,21.8,0,1.05.58,1.85-1.2,1.53-7.91-1.4-5.92-5.59-7.68-10.58-2.77-7.82-9.66-1.9-6.72,4.9-9.45-2.88-5.86-4.76-8.24-11.46-3.21-9.03-15.38-6.42-12.51,3.75-1.26-.34-7.28-.75-7.56-1.01-.93-.88-1.08-10.18-6.63-14.63-9.16-7.35-15.41,1.94-15.14,10.93-12.15,1.22-7.94-6.36-13.53-12.73-5.76-6.56-16.51-5.24-18.41,3.86-.5,2.41.89,6.47-1.25,6.45-1.3-.01-6.74.09-7.04-.09-.49-.3-2.52-7.82-4.85-10.35-5.62-6.09-16.55-5.6-19.24,3.15-.6,1.95-.39,6.37-.6,6.64-.29.37-8.87,1.52-9.23,1.22-.19-.16-.32-3.56-.83-4.86-3.97-10.13-17.74-9.13-20.85,1.02-.54,1.75-.43,6.34-1.16,6.78-.76.46-7.27,2.11-7.59,1.87-1.69-1.28-.57-11.55-10.25-10.06-10.54,1.63-6.63,10.43-8.85,14.74-.55,1.07-6.46,2.92-7.25,2.39-2.55-1.69-.72-12.51-11.75-8.54-8.96,3.22.32,18.48-12.61,17.37.66-9.17-9.36-12.73-12.18-3.17-1.76,5.95,2.1,10.92-6.33,13.05.05-7.85-6.98-9.5-8.3-1.82-1.13,6.6,2.65,7.96-6.4,12.17.1-5.32-2.73-13.13-2.3-18.07ZM964.93,609.02c-1.79-1.38-6.62-3.02-7.64-4.68-1.58-2.59-1.16-13.52-7.03-12.03-3.8.96-3.24,5.46-3.3,8.65-8.87.62-6.97-7.25-9.63-12.91-3.18-6.77-10.3-7.22-12.2.61-.44,1.82,1.07,5.22-1.2,4.85-10.79-1.73-6.18-6.91-10.5-13.42-5.87-8.87-19.25-4.93-16.31,6.52-2.4.37-8.71.61-10.1-1.53-1.08-1.65-.65-4-1.4-5.74-4.03-9.36-17.53-11.37-20.75-.58-.42,1.39-.66,6.2-.89,6.42-.29.29-7.86-.5-8.14-.81-1-1.08-1.58-6.08-3.96-8.91-8.78-10.41-22.21-2.3-21.32,10.26-11.18,3.07-7.56-2.31-12.27-7.86-5.2-6.12-16.01-4.66-18.66,3.01-1.79,5.2,1.54,8.23-6.13,9.51-5.28.88-3.21-1.86-5.63-5.6-4.16-6.42-14.03-3.25-16.26,3.63-2.2,6.78,1.78,10.01-9.42,10.68.2-8.43-7.56-14.38-14.01-7.09-5.78,6.53,2.75,16.71-10.18,16.76.09-10.78-11.16-12.85-13.71-2.69-1.78,7.1,2.51,12.25-7.35,14.77,2.01-7.54-5.61-12.97-8.02-3.28-1.74,6.98,3.22,10.3-6.11,14.48-1.66.74-1.27-.14-1.54-1.18-5.14-19.52,6.19-27.85,20.98-37.22,54.51-34.56,174.21-46.68,230.68-11.75,12.07,7.46,12.61,12.94,12,27.11ZM954.39,526.13c-.09.98,1,2.95-1.1,2.45-1.36-.32-6.2-3.61-7-4.99-2.26-3.9-.31-9.96-4.75-12.21-6.26-3.17-3.34,7.65-5.42,8.07-9.32-.82-5.7-6.81-8.76-13.48-4.06-8.85-13.8-4.97-11.66,4.83-1.29,0-8.17-.61-8.49-.9-.52-.46-.55-5.14-1.04-6.76-2.75-9.25-15.22-15.17-18.81-3.81-.36,1.13.18,3.53.02,3.74-.33.42-8.95.53-9.3.23-.22-.18-.56-4.07-1.17-5.51-3.74-8.91-15.17-14.39-20.28-3.9-1.4,2.88-1.07,8.23-1.34,8.56-.34.42-8.95.53-9.31.24-.3-.25-.47-4.29-1-5.74-3.24-8.84-14.01-12.53-20.14-4.28-4.74,6.37.49,12.03-11.69,11.42.99-13.28-17.08-18.53-22.27-5.97-1.25,3.02-.5,8.75-3.28,9.98-.99.43-6.49,1.26-6.75,1.05-.51-.41.1-8.77-6.87-10-7.61-1.34-10.89,3.38-11.71,10.24-.17,1.42.62,4.26.29,4.81-.23.37-6.28,2.27-7.09,1.84-1.17-.61-2.48-11.11-10.21-9.85-9.62,1.56-6.71,17.34-8.3,18.01-.39.16-6.43,1.98-6.69,1.76-1.73-1.44.01-12.22-9.52-7.78-8.2,3.82.62,17.18-9.79,18.71-1.22-7.9-8.03-9.71-9.63-1.18-1.23,6.55,1.7,9.21-6.8,12.69-.06-4.76-2.12-10.72-1.95-15.29.26-6.81,12.14-16.08,17.55-19.82,52.04-36.01,180.9-48.74,234.96-11.87,2.72,1.86,7.11,4.72,8.05,7.94,1.28,4.41,1.71,12.13,1.27,16.77ZM945.43,448.62c-9.84-2.23-8.06-7.09-10.46-14-2.39-6.89-10.41-1.6-7.64,5-10.39.82-6.06-17.47-15.28-18.63-5.41-.68-5.31,6.28-5.67,9.54-.12,1.11.89,1.62-1.19,1.57-2.14-.05-4.56-1.91-7.15-1.02,1.71-15.5-20.39-26.89-19.63-5.93-.23.32-6.92.11-7.84-.12-1.85-.46-3.61-9.1-7.32-12.12-7.05-5.73-16.58-1.9-18.25,6.85-.22,1.17.42,3.77.28,3.96-.28.38-8.98.5-9.34.21-.32-.26-.43-4.29-.97-5.76-2.52-6.88-13.75-10.6-18.92-4.55-2.83,3.31-1.91,9.34-3.05,11.41-.32.58-7.44,2.16-7.77,1.92-.39-.28-1.72-6.63-3.54-8.94-2.11-2.68-6.52-4.81-9.99-4.46-9.66.97-9.55,14.25-10.44,14.61-.96.4-6.12.88-6.97.43-1.27-.67-.98-6.21-6.26-8.09-5.96-2.13-11.8.73-13.51,6.87-1.34,4.82,1.32,6.86-5.25,8.5-4.58,1.14-2.53-.5-4.65-3.45-6.78-9.45-13.72-2.41-14.84,6.72-.17,1.42.63,4.26.29,4.81-.24.4-6.7,2.29-7.16,1.94-.91-.69-.12-8.1-6.18-7.75-9.82.56-6.05,14.73-7.98,16.87-.38.42-4.03,1.83-4.23,1.72-1.07-.59-.99-7.51-6.3-5.3-5.87,2.44-2.17,11.79-3.13,13.89-.15.32-4.96,3.29-5.97,3.73l-2.3-18.07c-.13-1.03,8.53-10.02,10.1-11.39,46.93-40.54,183.81-52.35,236.2-17.68,1.63,1.08,9.87,7.44,10.02,8.63l2.3,18.07ZM831.57,665.73c-1,6.54,3.02,8.51-7,9.21-1.47-26.78-38.94-24.87-43.73-1.7-.4,1.93,0,8.89-1.07,9.34-6,2.57-4.71-3.93-6.72-7.43-7.23-12.58-28.9-.73-29.71,10.83-.4,5.68,3.86,10.51-4.31,12.11-3.04-18.38-20.89-12.66-25.08,1.89-1.18,4.08-.11,12.86-.4,13.47-.2.43-7.73,4.79-8.18,4.95-2.81.98-.73-1.96-.77-2.27-.58-4.52-2.16-11.61-2.01-15.75.26-6.8,8.13-12.11,13.03-15.8,56.02-42.29,158.86-52.31,224.41-29.87,18.49,6.33,38.06,15.66,37.5,38.4-2.7-2.64-10.8-2.91-12.83-4.45-1.21-.92-2.28-7.94-3.47-10.62-5.03-11.34-25.65-20.69-30-5.31-.93,3.28.96,9.36-4.87,6.12-2.07-1.15-2.42-6.12-3.8-9.11-1.84-3.99-6.91-9.87-10.79-11.96-11.95-6.43-29.05-1.66-26.38,14.14-7.68,2.61-6.07-5.96-8.71-10.87-9.09-16.92-42.22-14.28-45.11,4.71ZM862.07,264.36c-10.57.15-6.99-4.59-10.72-10.9-5.31-8.99-17.98-11.47-25.98-4.22-3.41,3.09-5.59,10.95-6.5,11.67-.97.77-7.08,1.64-7.37,1.4-.22-.18-.47-4.02-1.12-5.57-6.37-15.12-24.48-13.16-28.99,1.88-.68,2.26-.3,6.81-1.98,7.65-7.93,3.97-8.84-5.56-13.7-9-8.73-6.17-18.9-.49-22.71,8.39-1,2.32-1.9,11.1-2.73,11.41-7.11,2.63-5.32-.73-7.64-4.03-5.05-7.19-13.24-2.91-16.1,3.86-2.72,6.45,1.06,12.1-8.63,14.61.2-3.95-2.35-10.91-1.83-14.36.37-2.46,11.33-11.71,13.94-13.43,38.91-25.64,122.61-34.13,165.64-15.74,4.52,1.93,9.74,3.48,10.88,8.6.75,3.36.98,12.14,1.04,15.95.02,1.29.69,1.6-1.12,1.43-13.04-1.23-7.89-10.4-14.99-18.41-9.05-10.21-18.6-2.85-19.38,8.79ZM983.92,669.26c-3.24,2.25-7.54-4.38-10.2-6.3-62.68-45.22-211.49-30.91-268.02,19.77-1.89,1.69-10.02,11.91-11.52,10.7-2.11-7.83,3.49-13.05,8.72-17.88,56.18-51.86,206.84-65.17,270.56-21.97,3.12,2.12,16.5,11.47,10.46,15.67ZM694.08,596.91c21.93-28.95,92.36-45.77,126.98-49.62,39.33-4.38,114.27-.84,145.6,26.06,1.15.99,4.25,4.18,4.65,5.42.37,1.14.6,6.65-1.43,6.07-1.8-.52-8.45-6.88-10.97-8.49-60.76-38.84-200.4-24.94-254.91,20.71-2.06,1.72-8.86,9.39-10.18,9.68-5.03,1.11-1.54-7.45.27-9.84ZM678.21,441.68c-.47-6.01,16.38-19.25,21.45-22.5,52.18-33.55,194.5-48.99,244.59-6.8,1.92,1.62,9.16,8.49,6.37,11.02-2.55,2.32-8.49-4.79-11.1-6.53-54.91-36.58-200.65-25.9-249.06,17.73-2.49,2.24-8.39,10.34-9.52,11.01-1.62.95-2.66-3.11-2.72-3.93ZM687.3,514c25.79-29.82,96.59-45.65,134.6-48.73,36.9-2.99,104.44.55,133.13,25.99,2.96,2.63,9.8,8.07,3.52,11.16-29.44-25.27-74.69-30.76-112.45-30.65-42.51.13-116.41,13.69-149.3,42.05-2.27,1.96-10.99,12.33-12.74,11.42-3.68-1.92,1.5-9.22,3.25-11.25ZM618.91,766.42c25.99,2.59,52.23,2.04,78.3,2.95l1.12,15.81c-15.68-2.87-31.46-6.74-47.35-8.4-33.01-3.45-71.16.29-101.87-15.12-28.12-14.11-13.21-34.4,10.17-40.65-7.82,8.06-19.94,15.49-8.79,27,10.92,11.28,52.48,16.83,68.42,18.42ZM768.55,693.85c.31,2.35,2.47,3.84,2.77,6.2l9.48,74.61-18.17,5.15c-2.57-22.42-6.08-44.77-8.61-67.21-.3-2.7.35-5.37-.03-8.43-.88-6.91-4.71-12.2-1.44-19.43,2.5-5.53,8.42-9.85,14.21-5.77,7.11,5.01,1.15,9.94,1.79,14.88ZM816.79,669.35c-6.72-13.43-30.35-4.15-30.18,10.05.06,5.1,2.91,9.15,3.54,13.58,1.53,10.78,1.93,22.63,3.29,33.43,1.77,14.07,3.7,28.13,5.42,42.19l4.64-.6-4.78-37.52c-.1-.79.93-6.26,1.44-7.23,2.11-3.98,9.6-6.17,13.75-4.84.71.23,5.48,4.36,5.53,4.72l5.26,41.23,4.64-.59c-2.79-23.65-6.33-47.25-9.08-70.91-.93-7.96.57-15.53-3.44-23.52ZM816.77,702.29l-19.34,3.41-2.78-21.77c-.03-.27,1.76-4.36,2.24-4.95,4.35-5.24,16.35-4.33,17.21,2.46l2.66,20.85ZM699.16,270.98c-2.96-5.29,2.02-8.74,5.58-11.55,42.34-33.44,129.4-40.49,180.07-25.47,7.63,2.26,23.23,6.49,22.13,16.18l-20.38-9.8c-40.14-12.45-86.7-11.41-127.17-.41-22.09,6-43.33,15.44-60.23,31.06ZM732.12,695.67l11.46,89.87c-2.88,2.52-7.89,3.38-11.63,4.78l-10.81-84.77c-.04-.34,1.62-6.01,1.95-6.62,1.43-2.63,8.6-6.61,9.03-3.26ZM837.11,262.07c-15.8.75-10.56,20.11-9.93,30.32-1.06,2.03-9.88,1.7-12.45,2.46-.48-.96.67-2.14.63-2.43l-3.6-28.26c1.73-1.23,9.04.09,9.37-.25.21-.22-.12-3.41,1-4.9,2.18-2.9,9.09-7.07,12.89-7.19,11.31-.38,13.81,10.78,20.27,13.82,1.98.93,7.59.66,7.74,1.87l3.48,27.33-13.22-1.26c-2.4-10.78.24-32.29-16.18-31.51ZM746.87,283.69c-.17,3.77,1.91,18.75.87,20.72-.61,1.16-8.54,2.91-10.37,4.08l-3.54-27.79c-.05-.42,6.65-1.25,8.15-2.46.83-.67,3.54-8.31,6.12-11.13,1.85-2.02,4.74-4.59,7.46-5.14,12.16-2.47,12.92,11.74,24.7,6.23l3.66,28.72-12.97,1.65-2.42-18.99c-.21-1.68-4.87-6.73-6.83-7.36-8.48-2.7-14.44,3.23-14.82,11.48ZM957.11,687.66c1.17,5.41,3.96,23.94,3.64,28.76-.23,3.5-6.67,3.4-9.74,4.99-2.16,1.12-3.43,3.82-6.06,4.07-.98-6.93-1.68-13.93-2.62-20.88-.5-3.67-2.75-8.97-1.89-13,.35-1.63,2.18-1.39,1.74-2.89-.81-2.76-5.06-4.52-5.54-8.6-.81-6.88,5.11-8.88,10.78-6.92,5.13,1.78,8.6,9.47,9.68,14.46ZM611.48,786.84c-17.49,1.4-53.92-3.8-69.97-11.03-7.41-3.33-19.15-10.04-20.01-18.91.59-.87,13.34,6.97,15.2,7.86,4.44,2.12,9.41,4.05,14.11,5.51,19.99,6.17,42.34,9.53,62.73,14.45.67,2.35-.13,1.97-2.06,2.13ZM712.81,787.62c-1.55-17-3.82-34.03-5.66-51l8.09-3.49,7.74,60.69c.19,1.52-6.65,4.18-8.38,4.4-2.2.27-1.66-1.18-1.85-3.11-.26-2.66.29-5.02.07-7.49ZM825.9,692.66l7.41-.94,8.8,69.02c.25,1.97-5.29,3.58-7.12,3.26l-9.1-71.34ZM888.74,690.77l8.21,64.39-7.41.94-8.39-65.78c1.49-.27,7.36-1.34,7.59.44ZM641.53,864c.43,1.67-1.87,1.05-2.89,1.04-10.76-.01-39.16-6.77-42.47-18.59-2.62-9.36,11.96-19.93,19.42-23.42.65.53-6.03,12.55-6.26,15.6-1.16,15.45,20.28,22.4,32.2,25.36ZM777.03,700.77c-.04-.33,5.58-1.58,6.37-1.75l9.21,72.27-6.49.83-9.1-71.34ZM739.3,715c-.04-.33,5.48-1.19,6.37-1.75l8.8,69.02c.21,1.64-4.98,2.21-6.31,2.22l-8.86-69.49ZM846.29,505.51l10.19-1.3,4.37,34.28c-1.17.42-10.24.88-10.31.37l-4.25-33.35ZM887.86,587.78c3.06,1.16,6.27,1.39,9.49.67l4.49,35.21c-2.16-.14-8.05-.14-9.57-1.12-2.93-1.87-2.29-29.69-4.41-34.76ZM774.78,350.8l4.31,33.82c.18,1.39-8.81,4.76-9.15,2.11l-4.31-33.82c-.06-.48,7.81-2.37,9.15-2.11ZM790.52,511.21c.58,4.57,5.36,32.47,4.31,33.82-.29.37-7.57.62-9.15,2.11l-4.43-34.74c-.26-2.02,9.01-3.2,9.26-1.18ZM878.38,506.13l9.38-.25,4.61,36.13c-1.35-.97-9.56-1.11-9.62-1.6l-4.37-34.28ZM822.65,504.76l4.49,35.21-9.26,1.18-4.31-33.82c-.26-2.03,7.36-2.28,9.09-2.57ZM798.89,591.59l4.31,33.82c.26,2.03-7.36,2.28-9.09,2.57l-4.31-33.82c-.26-2.03,7.36-2.28,9.09-2.57ZM734.06,563.13c.05-5.59-5.53-32.05-3.38-35.17.37-.54,6.58-2.35,7.92-3.06l4.31,33.82c.18,1.4-8.28,4.88-8.85,4.42ZM855.76,587.16l9.38-.25,4.37,34.28c-1-.21-9.32.72-9.38.25l-4.37-34.28ZM797.01,347.96l9.26-1.18,4.37,34.28-9.26,1.18-4.37-34.28ZM822.05,588.63l9.26-1.18,4.37,34.28-9.26,1.18-4.37-34.28ZM770.7,599.37c.81.41,2,8.45,2.26,10.07.63,3.98,3.18,19.5,2.65,22.18-.45,2.25-6.63,2.57-8.83,3.61l-4.25-33.35c-.05-.42,7.01-2.57,8.17-2.5ZM839.36,347.74l4.08,31.96-9.26,1.18-4.25-33.35c1.75-.16,9.18-1.82,9.44.21ZM862.12,349.08l9.5.67,4.25,33.35c-1.43-.88-9.44-.2-9.5-.67l-4.25-33.35ZM869.27,427.26l9.38-.25,4.25,33.35c-1.61-.29-9.54-.96-9.68-2.06l-3.96-31.04ZM836.25,426.76l9.38-.25,3.96,31.04c.17,1.34-9.14,2.13-9.21,1.64l-4.13-32.43ZM804.51,428.92l9.26-1.18,4.02,31.5-9.26,1.18-4.02-31.5ZM782.04,429.9l4.37,34.28c.05.42-7.14,1.34-8.22,1.99l-4.08-31.96c-.61-4.79,4.5-3.66,7.93-4.31ZM754.72,437.15l4.19,32.89c.25,1.93-6.62,2.26-8.16,2.45l-4.19-32.89c-.25-1.93,6.62-2.26,8.16-2.45ZM790.1,315.89l-22.24,2.83-1.53-12.04c7.22-2.06,14.65-2.91,22.11-3.77l1.65,12.97ZM763.02,517.07l4.37,34.28c.05.42-6.9.57-8.22,1.99l-4.19-32.89c-.18-1.41,6.59-3.69,8.04-3.38ZM925.58,595.68l4.19,32.89c-.57.78-8.61-1.06-8.75-2.18l-4.19-32.89c1.5,0,8.62,1.17,8.75,2.18ZM739.41,361.43c1.67-2.38,5.44-1.96,8.04-3.38l4.19,32.89c.17,1.36-6.54,2.98-8.04,3.38l-4.19-32.89ZM686.63,804.11c1.45,4.18-15.54,11.53-18.47,13.25-.9.53-2.22.56-2.17,2.07,2.03.08,4.09.11,6.13.21.79.04,3.23-.96,2.5,1.05-.75,2.05-13.36,7.33-16.1,6.84-8.12-1.46,2.14-8.38,3.88-10.45,2.58-3.08,4.63-7.86,8.21-10.35,2.39-1.66,14.99-5.59,16.03-2.61ZM940.21,732.12l-7.16,3.37c-2.46-11.47-1.9-25.43-4.67-36.6-.1-.39-1.44-1.11-1.22-2.19.55-.6,7.06.25,8.01.75,1.65.87,3.82,30.26,5.04,34.67ZM738.23,610.62c-.05-.42,7.14-1.34,8.22-1.99l4.13,32.43c.05.43-7.13,2.67-8.1,2.92l-4.25-33.35ZM987.77,706.85c-8.64.39-6.69,4.31-9.81,8.7-1.43,2.02-4.46,3.73-6.26,5.59-1.4-4.42-.57-13.39-2.19-17.14-1.39-3.23-10.32-1.29-8.54-7.86,9.57-1.7,20.6,3.57,26.79,10.7ZM730.41,445.9l4.08,31.96c.17,1.3-6.52,3.39-8.04,3.38l-3.25-25.48c-.05-.36.3-6.84.46-7.16.64-1.38,5.11-2.59,6.76-2.7ZM907.36,511.85l8.69,1.72,4.13,32.43c-1.26-1.23-8.64-1.28-8.69-1.72l-4.13-32.43ZM740.42,325.05c.14-2.62-2.04-9.36-1.02-11.24,1.12-2.06,17.3-4.56,20.44-6.31l1.65,12.97-21.08,4.58ZM965.35,612.26l4.08,31.96c-1.16-1.65-8.98-3.99-9.05-4.5l-3.84-30.11c-.03-.25.95-1.06,1.21-1.55.98,1.24,7.51,3.51,7.6,4.19ZM716.12,369.71l7.03-2.91,4.08,31.96c.16,1.29-6.51,3.39-8.04,3.38-1.88-10.75-2.13-21.6-3.07-32.43ZM892.84,353.64l7.64.9,4.25,33.35c-1.65-.11-6.89-1.47-7.84-2.28-3.47-3-2.67-26.3-4.06-31.98ZM845.24,312.63c-3.51-.3-17.73,1.27-19.81.23-2-1-1.71-9.92-2.47-12.46,3.73.58,17.49-1.39,19.81-.23,2,1,1.71,9.92,2.47,12.46ZM733.37,328.36l-18.98,6.6c-.07-1.96-1-12.17-.6-12.99.39-.78,14.32-5.81,16.25-6.28.78-.19,1.17-1.13,2.16,0,.82,2.29,2.65,11.36,1.17,12.66ZM898.24,432.98l8.69,1.72,3.9,30.57c-1.08.15-8.64-1.28-8.69-1.72l-3.9-30.57ZM816.36,300.3c-.11,3.28,1.9,8.52,1.33,11.46-.63,3.23-5.47,1.39-7.68,1.59-4.18.38-8.34,1.15-12.5,1.59l-1.53-12.05,20.38-2.6ZM717.42,536.06l4.08,31.96c.12.9-5.28,5.22-6.88,5.11l-4.19-32.89c-.1-.81,5.45-4.58,7-4.19ZM746.16,872.32c1.68,1.56-3.57,4-4.68,4.29-6.7,1.78-22.96,2.75-28.46-1.94-.95-.81-1.87-1.09-1.72-2.62,6.91-3.77,15.22-4.25,22.94-3.21,1.82.24,11.08,2.7,11.93,3.48ZM691.29,870.35c.36,2.91-16.09,4.67-18.61,4.64-2.1-.02-14.38-3.61-15.25-4.58-.63-.7.08-1.75.58-2.45,4.96-6.98,27-2.68,33.28,2.39ZM709.66,630.27l3.78,29.65c.06.46-7,3.29-7.87,4.77l-3.6-28.26c-.1-.82,6.4-6.08,7.69-6.16ZM871.88,314.88l-19-1.34-1.65-12.97c2.79.1,17.63.3,18.59,1.33,1.54,1.65,1.18,10.23,2.06,12.98ZM901.16,300.79l-10.66-2.41-3.07-24.09,10.66,2.41,3.07,24.09ZM946.21,528.55l8.81,2.64,3.66,28.72c-1.18.27-8.92-3.53-8.99-4.03l-3.48-27.33ZM724.35,619.92l3.84,30.11c.16,1.22-7.26,5.61-7.8,5.23-.53-1.01.66-2.18.63-2.43l-3.66-28.72c-.1-.81,5.45-4.58,7-4.19ZM703.71,376.81l4.02,31.5c.05.38-6.38,2.42-7.18,2.8l-4.02-31.5c-.05-.38,6.21-2.65,7.18-2.8ZM932.79,541.13c-.89-7.27-1.97-14.54-2.81-21.81,1.26.59,7.82,2.33,7.93,3.23l3.84,30.11c-10.39-1.18-8.01-3.82-8.96-11.53ZM701.93,547.46l3.84,30.11c.06.44-5.55,5.39-6.88,5.11l-3.84-30.11c-.12-.9,5.28-5.22,6.88-5.11ZM876.96,302.94c.52-.71,15.37,1.39,17.32,2.97l1.71,13.43c-3.16-1.15-14.38-1.91-16.42-3.06-2.18-1.22-1.77-10.6-2.61-13.34ZM689.71,385.18l3.84,30.11c.14,1.06-5.68,4.86-6.76,6.04l-3.96-31.04c-.11-.89,5.81-4.24,6.88-5.11ZM696.52,468.11l3.37,26.41c.1.82-6.4,6.08-7.69,6.16l-3.37-26.41c-.13-1,5.79-6.31,7.69-6.16ZM936.86,447.83l8.93,3.57,3.54,27.79-1.38.17c-.97-2.61-7.5-3.31-7.55-3.74l-3.54-27.79ZM940.37,600.86c1.12.81,6.93,2.71,7.01,3.34l3.96,31.04c-.26.39-6.54-2.08-6.91-2.4-3.63-3.1-2.2-26.26-4.05-31.98ZM692.46,333.44c1.05-1.93,13.87-8.91,15.06-7.97l.81,13.98c-5.38,1.19-10.21,4.89-14.99,7.6.08-3.66-2.53-10.57-.87-13.61ZM710.05,456.03l3.84,30.11c.1.79-6.03,4.95-6.99,4.18l-2.75-30.1c.3-1.54,4.19-3.87,5.91-4.2ZM932.06,387.75c-.78-6.97-1.94-13.91-2.7-20.88l6.83,1.95,4.13,32.43c-10.31-3.54-7.35-5.21-8.27-13.5ZM768.8,218.77c4.3,3.72,12.84-.44,15.31-4.81,2.22-3.95.75-7.67,1.63-9.59.9-1.97,3.25-.57,3.34.08l2.13,16.68c.01.1-1.11,1.55-1.21,1.57l-22.7,2.89-1.29-10.19c1.59-.13,1.54,2.29,2.8,3.38ZM921.42,363.64l3.84,30.11c-.48.71-6.82-1.82-6.9-2.42l-3.96-31.04c1.08-.62,6.95,2.82,7.02,3.34ZM796.21,208.71l15.88-1.08,1.53,12.05c-4.19.05-9.42,1.87-13.43,1.71-4.44-.18-2.76-9.09-3.97-12.68ZM916.75,327.05l-13.8-4.83-1.89-14.82c2.05.6,13.67,3.85,13.86,5.3l1.83,14.36ZM927.75,442.87l3.6,28.26c-1.01-.51-6.79-1.6-6.84-1.95l-3.66-28.72c1.22.74,6.78,1.47,6.9,2.42ZM839.42,207.91c12.18-.25,16.86-1.43,16.71,12.94-.56.72-14.56-.42-15.07-1.03-1.05-1.25-.83-9.58-1.64-11.91ZM746.81,218.49c2.83-1.68,9.11-2.48,12.46-4.12l1.65,12.97-13.66,3.63c.27-2.77-2.78-11.1-.45-12.48ZM877.46,225.66l-14.49-2.86-1.65-12.97,14.49,2.86,1.65,12.97ZM710.13,308.7c-.75-8.36-5.3-15.46,5.18-18.12l2.95,23.16c.05.4-6.56,1.38-7.62,2.87-1.33.19-.39-6.55-.51-7.91ZM820.22,219.77l-1.55-12.04c10.64.24,15.09-4.49,15.31,8.93.1,6.17-9.28,1.61-13.76,3.11ZM728.39,238.08l-1.65-12.97,12.61-4.43c3.13,13.55,1.15,13.54-10.96,17.41ZM711.5,245.87c-2.81-10.53-.86-15.11,10.03-17.28,3.01,11.56.63,13.73-10.03,17.28ZM678.64,357.4c-2.07-8.4-1.52-16.95,7.82-19.82,2.49,10.07,1.68,14.92-7.82,19.82ZM885.35,228.42l-1.65-12.97c.29-.42,9.42,2.64,9.81,2.98,2.41,2.11,1.65,10.03,2.62,13.33-1.37-1.35-10.7-2.77-10.77-3.33ZM923.65,329.46l-1.83-14.36c1.3-.5,9.04,4.43,9.11,4.96l1.83,14.36-1.38.17c-.93-1.48-7.64-4.41-7.73-5.13ZM750.77,177.33c2.59-1.62,12.43.96,13.42,3.17,2.24,5.01,2.64,18.53-1.58,23.09l-2.66-20.85c-.28-2.19-8.85-2.08-9.17-5.41ZM720.77,717.35c-.06,1.48,1.07,4.36.56,5.45-.39.84-14.55,7.25-16.75,7.91-3.12-6.03,14.13-14.97,16.18-13.36ZM939.65,691.33c-2.44.14-19.22-1.56-19.96-2.25-.58-.54-.34-3.41-.67-4.53,1.46-1.95,21.59.36,20.63,6.78ZM836.29,678.15l.82,6.49-13.9,1.77c-3.18-9.73,6.7-6.59,13.07-8.26ZM787.2,691.93c-3.07.88-6.28,1.49-9.35,2.37-2.11.61-6.38,4.56-7.33.22-1.29-5.86,17.94-10.72,16.68-2.59ZM750.61,700.37l.48,4.55c-4.54.89-9.27,4.61-13.21,6.08-2.17.81-2.61-2.91-2.33-4.33.57-2.95,11.87-6.66,15.07-6.3ZM699.48,254.94c-.99-7.35-3.5-13.39,4.35-17.5.59,7.19,4.42,14.31-4.35,17.5ZM683.08,798.42l-10.99,2.34c.31-1.19-.01-5.56.73-5.79,2.76-.89,9.76-.53,10.26,3.45ZM122.31,932.19c-2.99-1.68-7.28-4.42-6.15-8.49.83-2.99,22.51-19.78,26.54-22.54,5.13-3.51,31.44-19.19,35.81-19.19h20.5c.82-2.43-4.37-3.14-5.97-3.53-23-5.64-42.02-6.64-65.01-15.98-20.81-8.46-50.01-23.75-55.01-47.48,1.62-.27,2.7.77,3.91,1.58,8.38,5.6,15.56,13.57,24.77,19.23,32.03,19.65,74.27,27.06,110.76,34.16,1.13-.08,14.96-8.47,16.32-9.66,3.31-2.87-5.1-7.79-7.75-10.84-7.87-9.06-15.2-24.52-13.02-36.47l13.01,22.48c9.53,10.12,19.27,20.85,34.5,20.62,6.97-.1,4.31-7.12,15.14-4.23.97.26,3.19-.39,2.33,1.62-1.04,2.44-10.79,7.78-13.72,8.27-6.64,1.1-10.7-1.88-15.8-1.78-6,.12-38.04,25.67-44.71,31.07-.69.56-.79,2.01-1.3,2.01-1.83,0-5.72-3.7-9.96-4.07-10.89-.95-27.94,10.82-36.82,17.18-3.2,2.29-13.39,9.7-15.36,12.12-3.97,4.86,1.2,7.74,5.4,9.5,6.8,2.85,23.38,6.56,30.32,4.74,3.95-1.04,15.23-12.86,18.48-16.52,1.99-2.23,21.47-29.16,24.48-26.01-5.75,16.24-16.5,30.83-29.99,41.51-.43,2.41,1.11,1.2,2.51,1.45,3.45.62,6.94,1.3,10.48,1.05.3.21-.51,1.23-.99,1.5-3.02,1.7-22.33,5.02-26.64,5.36-13.05,1.04-35.58-2.22-47.07-8.66ZM440.01,838.99c.75,3.83-2.78,6.72-5.52,8.97-28.72,23.58-110.95,35.76-147.94,37.06-18.51.65-34.08-1.37-52.17-2.97-1.36-.12-2.2.54-3.36.93-1.14-1.17,4.49-5.12,5.53-5.96,11.15-9,11.43-4.43,23.92-4,59.72,2.06,125.75-7.86,179.54-34.04ZM438.01,875.99c-8.93,40.91-60.51,47.63-95.5,50.99-45.21,4.35-92.56,2.46-137.5-3-.66-1.78,3.12-3.93,4.11-4.38,5.42-2.44,13.38-1.82,19.43-1.66,58.53,1.62,148.94,14.28,195.93-27.99,4.91-4.41,8.37-9.9,13.52-13.97ZM363.47,933.95l54.54,5.05c-1.04,2.07-5.09,2.77-7.16,3.33-28.66,7.67-61.44,5.7-89.85-1.84,0-2.15,38.57-5.39,42.46-6.54ZM122.02,940.98c-12.71,1.93-26.29,1.31-38.82-1.66-5.71-1.35-22.53-6.71-20.77-14.32,2.99-12.93,33.32-10.82,43.6-13-.09,1.18.53,2.14-.62,3.07-2.1,1.69-9.3,3.12-12.36,4.44-13.83,5.99-20.57,9.77-1.03,14.99,8.32,2.22,16.89,2.21,25.06,3.94,1.7.36,4.39.54,4.95,2.54ZM284.01,966c-.86,1.52-5.07,2.29-6.79,2.69-16.97,3.99-35.54,5.08-52.2-.72-3.08-4.11,17.58-6.89,19.46-7.03,13.35-.94,26.81,1.38,39.53,5.05ZM72.03,853.99l7.97,13.52c14.5,22.72,21.77,23.16,42.38,36.62,1.21.79,2.3,1.21.65,2.38-4.15,2.95-12.74-.98-17.04-2.99-19.72-9.2-32.41-27.82-33.96-49.53ZM233.4,952.87c-17.52,2.85-45.39.59-62.59-4.19-1.03-.29-3.03-.25-2.79-1.68,24.2-2.74,48.39-3.93,71.99,3-.9,2.23-4.56,2.54-6.61,2.88ZM220.02,937.98c-1.5-1.39.11-1.82,1.48-1.99,8.74-1.11,23.74-.28,33.06-.04,2.36.06,4.55,1,6.92,1.08,6.74.23,17-1.11,23.03-.03,9.24,1.65-6.78,6.25-9.27,6.72-19.28,3.66-36.77-.68-55.23-5.74ZM332.02,951c-4.11,4.04-13.66,5.59-19.46,6.03-13.42,1.01-26.79-.58-39.55-4.54-.04-1.25,22.11-5.41,24.47-5.54,11.81-.64,23.07,2.83,34.54,4.05ZM58.02,914.98c-6.21.57-13.5-1.63-18.9-4.64-13.36-7.45,13.64-9.62,18.4-11.35h28.5c-.27,1.74-1.99,1.75-3.23,2.27-7.36,3.15-19.49,4.41-25.49,7.51-4.57,2.36-.9,3.4.72,6.21ZM211.01,964c1.65,1.64-.37,1.69-1.45,2.02-13.23,3.96-34.51,2.04-47.55-2.53-1.49-.52-3.57-.59-4-2.49,7.67-1.12,49.07-.89,53,3ZM253.35,107.61c21.58-13.35,52.01-9.21,76-4.88,8.11,1.46,18.91,3.46,26.56,6.09,4.55,1.57,14.87,4.81,8.16,10.4-5.14,4.28-37.64-2.58-40.65,1.89-2.98,4.43,5.34,7.24,6.33,9.22,2.18,4.34-6.17,22.94-9.4,26.78-1.51,1.8-3.06,3-5.66,2.46-3.73-.79-1.22-34.46-5.36-39.15-5.83-6.6-46.02-11.9-55.97-12.81ZM149.63,139.14c-16.96,11.07-12.68,56.94,7.6,59.95,24.28,3.61,25.97-46.13,10.63-59.05-5.22-4.4-12.57-4.59-18.24-.9ZM163.29,183.68c-5.19,5.19-10.77-2.56-12.24-7.6-2.08-7.14-1.41-36.2,10.25-25.4,5.39,5,6.66,28.33,2,33ZM263.51,163.26c-23.12,4.81-18.32,60.28,6.43,58.92,26.51-1.46,24.46-65.35-6.43-58.92ZM270.21,208.49c-11.96,1.19-12.73-32.32-4.39-34.82,13.21-3.96,14.43,33.82,4.39,34.82ZM137.92,116.34c-4.59-4.39,15.08-11.54,17.47-12.25,34.58-10.3,54.08,8.49,62.97,40.24h-16.91c-7.58,0-6.98-8.87-9.88-14.61-8.27-16.41-22.84-19.45-39.74-16.35-4.81.88-8.71,4.02-13.92,2.97ZM234.81,76.25l-3.63,9.78v-27.98h32.06c.6,0,7.98,1.86,8.24,2.25l6.15,28.68-1.79,1.48-26.01,7.23v-22.74c0-2.93-10.74-7.73-15.03,1.29ZM194.98,91.34c-.37-3.08-.23-26.43.57-27.55l22.81-4.59v48.39c0,.36-1.91,2.18-2.9,1.74-2.24-1.84-3.11-4.4-5.35-6.32-4.54-3.91-14.56-6.86-15.14-11.68ZM320.97,165.31h57.13v12.83s-42.56,4.76-42.56,4.76c-1.81-1.03-10.68-.87-11.08-1.26-.31-.29.13-6.4-.26-8.48-.61-3.26-2.84-4.85-3.23-7.85ZM243.03,162.89l-1.34,1.24c-.3-1.25.56-1.06,1.34-1.24ZM243.03,162.89l1.01-.93c-.02.06-.04.12-.06.17-.19.49-.56.67-.94.76ZM272.53,145.46c-8.3.59-13.76,4.19-20.26,8.88l-8.24,7.63c3.93-10.18,6.86-26.26,8.99-37.2.32-1.63.1-5.87.32-6.09.88-.88,7-.42,7,2.92v16.91c10.44-2.66,22.7-6.89,32.07,1.16,1.71,1.47,5.56,6.33,1.2,7.01-6.36.99-13.95-1.71-21.08-1.21ZM346.62,213.12l-25.65-4.68,3.62-12.69c14-1.39,24.2.84,22.04,17.37ZM207.35,184.03c-3.86.31-14.98-1.64-16.81-4.86-2.12-3.72,2.39-4.45,5.07-4.61,2.77-.16,16.04.79,18.65,1.29,9.08,1.72-.66,7.68-6.9,8.19ZM371.06,155.2c-1.36-6.16-1.65-19.08-1.18-25.5.24-3.26.77-8.78,4.79-5.84,1.65,1.21,1.72,28.6,2.26,33.29-1.47.08-5.53-.45-5.86-1.95ZM188.05,193.3h26.82c-1.63,11.51-25.15,10.65-26.82,0ZM393.26,209.61c.22-8.04,1.39-15.84,1.22-23.95-.03-1.17-2.73-16.13,2.26-12.18.31.25,2.12,6.6,2.25,7.67.9,7.26.16,19.44-2.86,26.15-.8,1.78.14,2.86-2.87,2.31ZM192.71,155.99c5.95,1.76,17.71-.17,22.55,1.35,1.35.42,1.99,1.29,1.98,2.75-.06,7.23-21.68,3.66-24.27-.83-.57-.99-.17-2.2-.26-3.27ZM311.47,188.47c-2.56,1.4-11.78,2.48-13.31.24-.74-1.08-.96-7.1-.34-8.07.7-1.09,10.81-3.38,12.5-2.33,1.08.67,1.98,8.86,1.16,10.17ZM223.12,191.67c.86-2.6,10.92-2.44,13.16-1.71,2.3.75,2.68,6.33,1.74,7.83-1.33,2.12-17.26,1.06-14.9-6.12ZM343.7,151.32h16.91v5.84c-2.41.07-17.97-.54-18.66-1.18-.69-.64.5-4.66,1.75-4.66ZM297.64,204.95c-.36-8.01,3.85-8.24,11.08-6.99,4.78.83,2.02,7.24-.15,8.01-3.35,1.18-7.54-.86-10.92-1.02ZM359.25,133.65c-2.7,1.72-12.35-2.17-16.14-.99.2-1.13-.28-4.36,0-4.65.54-.56,14.26-.24,15.57.17,2.65.84,1.7,4.76.57,5.47ZM294.64,165.23c2.4-1.79,8.89-.06,9.79,1.43,3.31,5.49-6.22,5.66-9.11,7.98.45-3.58-4.19-6.79-.68-9.41ZM359.44,139.66c.2.13,1.38,4.46,1.16,4.66-5.44-1.12-18.32,3.44-17.48-4.66,2.8.6,15.12-.81,16.32,0ZM294.16,214.29c3.03-.98,12.94,3.3,10.48,6.98-1.15,1.72-8.54.91-10.55-.59-1.67-1.25.66-4.57.07-6.38ZM286.89,542.2l-74.9-24.32c-14.75,14.02-39.61,33.07-51.59,47.81-.73.9-1.33,1.54-1.47,2.79l143.41,44.46c-3.86-23.83-10.43-47.18-15.44-70.74ZM202.77,566.92c-4.46-1.38-6.95-6.12-5.57-10.57,1.38-4.46,6.12-6.95,10.57-5.57s6.95,6.12,5.57,10.57c-1.38,4.46-6.12,6.95-10.57,5.57ZM244.28,564.22c-6.25-1.94-9.75-8.58-7.81-14.83s8.58-9.75,14.83-7.81c6.25,1.94,9.75,8.58,7.81,14.83-1.94,6.25-8.58,9.75-14.83,7.81ZM269.52,593.13c-3.13-.97-4.87-4.29-3.9-7.41s4.29-4.87,7.41-3.9,4.87,4.29,3.9,7.41-4.29,4.87-7.41,3.9Z" fill="#fff" opacity=".9"/>
</svg>