<?xml version="1.0" encoding="UTF-8"?>
<svg id="a" data-name="Слой 1" xmlns="http://www.w3.org/2000/svg" width="1024" height="1024" viewBox="0 0 1024 1024">
  <rect x="5.96" y="535.6" width="1012.09" height="23.05" fill="#828282"/>
  <path d="M42.88,408.51l1.27.64h130.49l1.33-.71c5.65-3.01,6.49-7.38,6.49-9.72s-.84-6.71-6.49-9.72l-1.33-.71H44.16l-1.28.64c-4.07,2.04-6.41,5.61-6.41,9.79v7.79h3.46c.84.77,1.83,1.44,2.95,2Z" fill="#828282"/>
  <path d="M200.91,457.99l.27.19c1.36.91,2.67,1.04,4.36,1.13,1.72.09,4.83.15,10.4.21,7.42.07,18.57.11,33.16.11,43.52,0,46.04-.15,46.93-.25,16.65-1.44,30.92-7.68,42.4-18.52,11.74-11.09,17.7-22.99,17.7-35.36v-.09c-.18-9.75-3.95-18.02-11.21-24.57-2.5-2.25-5.26-4.2-8.26-5.85,5.94-2.89,11.48-6.58,16.55-11.04,9.81-8.63,14.78-18.65,14.78-29.8v-.09c-.18-10.14-4.09-18.46-11.61-24.73-6.97-5.8-15.71-9.58-25.99-11.21h-.08c-1.14-.17-3.5-.51-60.79-.51-9.41,0-16.6.02-21.34.05-3.51.03-5.39.04-6.55.1-1.05.05-2.6.12-4.04,1.1-5.06,3.19-5.06,9.99-5.06,12.25,0,5.27,3.07,7.76,5.95,8.34.85.17,2.17.33,8.1.34,2.44.09,4.29.2,5.68.32-1.45,6.59-5.08,21.95-14.06,57.6-11.02,43.76-14.26,55.92-15.2,59.18-4.42.39-8.49.59-12.09.59h-1.32c-2.21,0-3.64.12-4.76.4l-.16.04-.46.15-.16.06c-3.43,1.37-4.81,4.95-5.78,8.62-.43,1.54-.65,3.11-.65,4.67,0,2.62,1.2,5.02,3.29,6.59ZM289.48,437.28h-.09c-.52.05-3.49.18-20.22.18-5.63-.16-9.93-.28-12.97-.35l2.26-8.79c2.63-10.22,5.22-20.67,7.71-31.05,1.37-5.7,2.21-9.26,2.74-11.54,3.59-.04,9.99-.07,21.25-.07,14.03,0,16.83.12,17.38.16h.03c3.84.52,6.87,2.24,9.25,5.24,2.48,3.13,3.74,7.26,3.74,12.27,0,8.95-3.23,16.66-9.61,22.91-6.59,6.46-13.82,10.18-21.48,11.04ZM307.5,385.81s-.09-.01-.12-.02l.12.02ZM323.6,354.1h0c-5.93,6.06-12.72,9.76-20.17,11-.52.08-3.47.36-19.43.36h-10.08l4.92-20c.2-.66.33-1.33.4-2.01,3.82-14.77,5.47-20.91,6.17-23.44h1.89l.46-.02c1.74-.13,4.17-.2,7.22-.2h9.18c15.07.18,18.27.43,18.89.51,4.39,1.04,6.03,3.12,6.88,4.6,1.64,2.84,2.48,5.95,2.49,9.23-.13,7.42-3.1,14.14-8.81,19.97Z" fill="#828282"/>
  <path d="M426.38,438.78l-1.28.64c-4.07,2.04-6.41,5.61-6.41,9.79s2.34,7.75,6.41,9.79l1.27.64h142.78l1.33-.71c5.65-3.01,6.49-7.38,6.49-9.72s-.84-6.71-6.49-9.72l-1.33-.71h-60.9v-47.86h60.73l1.21-.57c4.31-2.01,6.78-5.6,6.78-9.86,0-2.34-.84-6.71-6.49-9.72l-1.33-.71h-60.9v-47.44c-.21-9.55-.68-12.53-1.06-14.07-1.11-4.45-4.79-7.21-9.59-7.21-4.11,0-7.45,2.14-9.19,5.86-.59,1.23-.72,2.34-.84,7-.13,5.14-.19,14.69-.19,29.18v26.67h-61.03l-1.28.64c-4.07,2.04-6.41,5.61-6.41,9.79v7.79h3.46c.84.77,1.83,1.44,2.95,2l1.27.64h61.03v47.86h-61.03Z" fill="#828282"/>
  <path d="M646.59,404.74s0,0,0,0c2.37,2.37,4.77,3.52,7.34,3.52,2.25,0,3.78-1,7.57-3.84,1.45-1.08,2.88-2.18,4.28-3.27l18,39.37c9.45,20.67,15.57,33.99,18.72,40.72,3.12,6.68,3.23,6.79,4.02,7.58,2.43,2.43,5.8,2.43,6.9,2.43,5.62,0,8.22-2.49,9.41-4.57l.11-.19,51.69-106.9,47.28-98.01h182.96v-23.05h-192.76v1.85c-2.43.97-4.4,2.85-5.65,5.48-.78,1.33-3.7,7.03-23.62,48.8-15,31.46-30.21,63.14-45.21,94.15-7.62,15.75-13.36,27.59-17.18,35.41l-13.4-29.16c-1.73-3.74-4.01-8.81-6.77-15.07l-.03-.07c-6.71-14.59-10.71-23.25-11.88-25.73-.93-1.97-3.39-7.2-8.54-7.2h-.22c-1.83,0-3.58.64-4.94,1.81-.89.67-3.5,2.67-8.16,6.23-4.93,3.77-9.79,7.46-14.44,10.94-6.89,5.17-9.84,8.18-9.14,12.41.36,2.17,1.56,4.25,3.66,6.35Z" fill="#828282"/>
  <path d="M843.85,436.88c-4.42.39-8.49.59-12.09.59h-.32c-4.54.25-6.16.66-7.43,1.3-3.1,1.55-4.16,4.88-4.91,7.89-.72,2.89-.84,3.7-.84,4.54v.43l.06.42c.48,3.39,2.76,5.98,6.07,6.93,1.65.47,4.18.67,8.46.67h36.02l42.6-.22h.33s3.55-.5,3.55-.5l.15-.02c11.3-1.87,22-5.74,31.82-11.51,9.75-5.73,18.86-13.46,27.09-23,8.25-9.56,14.54-19.92,18.69-30.77,4.16-10.89,6.27-22.55,6.27-34.66v-.05c-.16-16.54-4.38-30.06-12.53-40.18-8.11-10.05-18.17-16.57-29.92-19.39-3.42-1.01-6.9-1.52-10.34-1.52-2.91,0-16.71-.07-41.02-.22h-.03c-14.36,0-25.32.02-32.58.05-5.57.03-8.47.06-10,.1-1.59.05-2.62.1-3.81.7l-.88.44-.69.69c-1.18,1.18-2.05,2.82-3,5.65-.8,2.4-1.19,4.46-1.19,6.3,0,4.18,2.7,7.38,6.72,7.95.91.13,2.56.28,7.33.28,2.44.09,4.29.2,5.68.32-1.45,6.59-5.08,21.94-14.06,57.6-11.02,43.76-14.26,55.92-15.2,59.18ZM906.89,320.13c1.07-.17,2.89-.34,5.88-.34h9.25c2.4.15,4.9.22,7.43.22h8.93c2.32.4,4.61.86,6.81,1.38,1.92.45,4.36,1.47,7.05,2.94,2.59,1.41,4.77,3.11,6.49,5.06,1.69,1.91,3.22,4.74,4.57,8.4,1.36,3.7,2.05,8.03,2.05,12.85,0,6.93-1.42,16.03-4.21,27.06-2.82,11.12-5.85,20.12-9.03,26.75-3.05,6.38-7.02,12.02-11.78,16.78-10.71,10.71-24.54,16.17-41.11,16.23-1.59-.15-3.45-.22-5.55-.22h-4.12c-5.09-.08-9.09-.13-11.96-.17,1.87-7.65,5.88-23.81,14.03-56.43,10.24-40.95,13.97-55.6,15.27-60.51Z" fill="#828282"/>
  <path d="M457.33,718c-1.63,8.3-2.69,12.53-3.3,14.64-3.42.23-11.86.55-32.55.55l-1.81-.02,2.19-2.08c9.25-8.82,16.56-15.55,21.74-20,7.71-6.68,13.75-12.27,17.96-16.62,4.49-4.65,8.38-10.16,11.57-16.37,3.35-6.54,5.06-13.53,5.06-20.77v-.06c-.17-14.7-5.4-26.88-15.57-36.21-10.04-9.21-22.64-13.88-37.45-13.88-13.15,0-24.32,4.42-33.21,13.14-8.92,8.75-13.44,19.29-13.44,31.31,0,5.31,1.69,9.91,5.04,13.67,3.48,3.91,8.3,5.98,13.95,5.98h.21c5.87-.21,10.61-2.17,14.07-5.85,3.37-3.58,5.15-8.2,5.15-13.36,0-8.33-3.6-12.73-6.63-14.96-1.06-.78-2.12-1.45-3.19-2.02.9-.82,2.09-1.77,3.66-2.84,2.62-1.78,5.76-2.69,9.34-2.69,7.36,0,12.58,2.43,16.44,7.65,4.17,5.64,6.28,12.48,6.28,20.34,0,2.34-.18,4.36-.52,5.98-.42,1.97-.92,4.12-1.49,6.39-.45,1.81-1.21,3.67-2.26,5.53-1.39,2.47-2.57,4.76-3.51,6.8-.46,1.01-1.51,2.83-3.87,5.81-2.23,2.83-3.98,5.11-5.19,6.78-.73,1.01-2.33,3.04-5.82,7.05-2.89,3.32-5.01,5.74-6.3,7.17-1.29,1.43-3.78,4.14-7.41,8.06-3.66,3.95-6.2,6.71-7.53,8.2l-.05.05c-3.04,3.47-6.71,7.58-10.91,12.22l-.03.04c-3.71,4.17-5.9,6.74-6.9,8.07-1.68,2.23-2.52,4.56-2.52,6.92v12.84h93.52v-5.69c.52-1.91,1.33-6.37,3.24-20.39,2-14.65,2.55-18.32,2.71-19.21l.2-.6v-7.68h-20.86v6.11Z" fill="#828282"/>
  <path d="M643.61,743.89c-2.11-.6-4.24-.6-5.26-.6-4.49,0-7.18-.23-8.71-.45-.59-5.64-2.13-21.92-6.13-68.02l-6.13-70.77c-.1-1.84-1-3.18-2.32-5.17l-1.79-2.69h-8.72c-4.56,0-8.23,1.93-10.37,5.44-.54.84-3.55,5.81-39.19,66.71-31.67,54.11-37.95,64.33-39.09,66.04l-.1.1-.32.47c-3.56,5.23-9.3,7.96-17.54,8.34h-4.9l-1.59,1.15c-3.15,2.29-4.89,6.25-5.32,12.12l-.02.45c0,3.03,1.89,5.27,3.31,6.68l1.77,1.77h4.38l.48-.03c1.87-.19,6.75-.41,19.38-.41,5.74,0,10.38.07,13.8.21,3.58.15,6.17.22,7.72.22h2.63c3.46,0,6.05-1.11,7.68-3.29,1.03-1.38,1.73-3.21,2.39-6.31l.05-.27c.5-2.99.52-3.3.52-3.85,0-4.14-3-8.33-9.69-8.45-2-.19-3.22-.49-3.93-.74.79-1.78,2.77-5.74,7.72-14.08l5.73-9.77h43.22l1.89,23.57c-1.44.37-3.88.79-7.9,1.02h-6.23l-3.32,2.49-.57.86c-.57.86-1.12,2.01-2.06,5.08l-.15.49-.07.5c-.45,3.41-.49,4.21-.49,4.75,0,2.83,1.76,4.92,3.08,6.24l1.77,1.77h5.55c4.09-.3,13.03-.44,26.59-.44,6.48,0,11.8.07,15.81.22,4.15.15,7.1.22,8.78.22h3.33l.25-.02c1.66-.14,5.54-.46,7.6-3.55.81-1.22,1.31-2.73,1.97-5.97.69-2.78.8-3.58.8-4.4,0-3.66-2.34-6.51-6.27-7.63ZM591.31,696.48c-3.29.03-8.37.05-16.16.05l-12.12-.12,14.43-24.38c4.38-7.45,7.86-13.36,10.4-17.68.33,3.82.73,8.5,1.21,14.25,1.07,12.95,1.82,22.28,2.23,27.88Z" fill="#828282"/>
</svg>