<?xml version="1.0" encoding="UTF-8"?>
<svg id="a" data-name="Слой 1" xmlns="http://www.w3.org/2000/svg" width="512" height="512" viewBox="0 0 512 512">
  <circle cx="256" cy="256" r="223" fill="#8c8c8c" opacity=".05"/>
  <circle cx="256" cy="256" r="161.43" fill="#8c8c8c" opacity=".08"/>
  <circle cx="256" cy="257.27" r="108.09" fill="#8c8c8c" opacity=".12"/>
  <path d="M189.72,338.99c.92.74,1.07,2.08.33,3-.42.53-1.04.8-1.67.8-.47,0-.94-.15-1.34-.47-3.07-2.46-6.04-5.13-8.83-7.92-2.66-2.66-5.22-5.5-7.61-8.45-.74-.92-.6-2.26.31-3,.92-.75,2.26-.61,3.01.31,2.29,2.83,4.76,5.56,7.32,8.12,2.68,2.68,5.53,5.24,8.48,7.61ZM209.6,161.88c1.06-.52,1.5-1.79.99-2.86-.52-1.06-1.8-1.5-2.86-.99l-1.72.85c-5.2,2.67-10.14,5.7-14.7,9-1.09.8-2.17,1.62-3.24,2.46-.93.73-1.09,2.07-.36,3,.42.54,1.05.82,1.68.82.46,0,.93-.15,1.32-.46,1.03-.81,2.07-1.6,3.12-2.36,4.37-3.17,9.13-6.09,14.12-8.65l1.65-.82ZM155.5,289.36c-.89-2.73-1.68-5.54-2.34-8.33-.27-1.15-1.41-1.87-2.57-1.59-1.15.27-1.86,1.42-1.59,2.57.69,2.91,1.51,5.83,2.43,8.68,1.44,4.45,3.21,8.89,5.26,13.2.37.77,1.13,1.22,1.93,1.22.31,0,.62-.07.92-.21,1.07-.51,1.52-1.78,1.01-2.85-1.97-4.15-3.67-8.42-5.06-12.7ZM172.97,191.43c.73-.93.57-2.27-.35-3s-2.27-.57-3,.35c-.88,1.12-1.74,2.25-2.58,3.4-3.3,4.55-6.33,9.49-9.01,14.71l-.76,1.54c-.52,1.06-.08,2.34.98,2.86.3.15.62.22.93.22.79,0,1.55-.44,1.92-1.2l.73-1.47c2.57-5,5.49-9.76,8.65-14.13.8-1.1,1.63-2.19,2.48-3.26ZM150.34,256.11c.03-5.28.47-10.62,1.31-15.9.32-2.07.72-4.18,1.18-6.26.25-1.15-.47-2.29-1.62-2.55-1.16-.24-2.29.48-2.55,1.62-.48,2.17-.89,4.37-1.23,6.52-.87,5.48-1.33,11.04-1.36,16.53,0,1.18.94,2.14,2.12,2.15h.01c1.17,0,2.13-.95,2.14-2.12ZM257.57,149.05c0-1.18-.96-2.13-2.14-2.13h0c-5.57.03-11.2.48-16.71,1.36-2.1.32-4.23.72-6.34,1.18-1.15.25-1.88,1.39-1.63,2.54.22,1,1.1,1.68,2.08,1.68.15,0,.3-.02.46-.05,2.03-.44,4.07-.82,6.09-1.14,5.31-.85,10.72-1.29,16.07-1.31,1.18,0,2.13-.97,2.13-2.15ZM232.05,359.57c-2.97-.69-5.93-1.5-8.79-2.42-4.13-1.35-8.26-2.99-12.27-4.88-1.06-.51-2.34-.04-2.84,1.02s-.04,2.34,1.02,2.84c4.17,1.96,8.47,3.67,12.78,5.07,2.98.96,6.06,1.81,9.14,2.52.16.04.32.06.48.06.97,0,1.85-.67,2.08-1.66.27-1.15-.45-2.29-1.6-2.56ZM360.83,234.75c.16,0,.32-.02.48-.05,1.15-.26,1.87-1.41,1.6-2.56-.71-3.12-1.57-6.25-2.56-9.34-1.38-4.24-3.06-8.48-4.99-12.6-.5-1.07-1.78-1.53-2.84-1.03-1.07.5-1.53,1.77-1.03,2.84,1.86,3.95,3.47,8.02,4.79,12.09.95,2.96,1.78,5.98,2.46,8.98.23.99,1.11,1.66,2.08,1.66ZM363.69,253.8c-2.01,0-2.17,2-2.23,2.78,0,.03,0,.06,0,.09v.1c0,5.49-.44,11.03-1.31,16.47-.3,1.89-.66,3.79-1.07,5.67-.25,1.15.48,2.29,1.64,2.54.15.03.3.05.45.05.98,0,1.87-.68,2.09-1.69.42-1.96.79-3.93,1.1-5.9.85-5.31,1.3-10.71,1.36-16.06.09-.23.14-.48.15-.74v-.38c0-2.43-1.19-2.94-2.19-2.94ZM353.8,301.64c-1.07-.51-2.34-.08-2.86.98-.33.68-.67,1.36-1.02,2.05-2.48,4.9-5.39,9.65-8.66,14.13-.67.94-1.36,1.86-2.07,2.78-.72.93-.55,2.27.38,3,.39.3.85.45,1.3.45.64,0,1.27-.28,1.69-.83.74-.96,1.46-1.93,2.16-2.89,3.4-4.66,6.43-9.61,9-14.7.36-.7.71-1.4,1.06-2.11.52-1.06.08-2.34-.98-2.86ZM279.11,359.71c-2.24.5-4.5.94-6.71,1.29-5.1.81-10.29,1.25-15.43,1.3-1.18.01-2.13.98-2.11,2.16.01,1.17.97,2.11,2.14,2.11h.02c5.35-.06,10.76-.51,16.06-1.36,2.3-.36,4.65-.82,6.98-1.34,1.15-.26,1.87-1.4,1.61-2.55s-1.4-1.88-2.55-1.61ZM304.21,160.49c.51-1.07.06-2.34-1.01-2.85-4.37-2.08-8.87-3.88-13.38-5.34-2.78-.91-5.64-1.71-8.49-2.39-1.15-.28-2.3.43-2.57,1.58-.27,1.15.44,2.3,1.58,2.57,2.74.65,5.49,1.42,8.16,2.3,4.33,1.41,8.66,3.13,12.86,5.14.29.14.61.21.92.21.8,0,1.57-.45,1.93-1.22ZM341.25,191.06c.92-.74,1.07-2.08.33-3-2.49-3.11-5.19-6.13-8.04-8.97-2.61-2.61-5.4-5.13-8.3-7.49-.92-.75-2.26-.61-3.01.31-.74.92-.61,2.26.31,3.01,2.78,2.26,5.46,4.69,7.97,7.2,2.73,2.74,5.34,5.64,7.73,8.62.42.53,1.04.8,1.67.8.47,0,.94-.15,1.34-.47ZM321.56,339.39c-1.19.94-2.4,1.86-3.63,2.74-4.47,3.27-9.22,6.18-14.13,8.66l-1.08.55c-1.06.53-1.49,1.81-.96,2.87.38.75,1.13,1.18,1.91,1.18.32,0,.65-.07.95-.23l1.11-.56c5.1-2.58,10.05-5.61,14.7-9,1.27-.92,2.53-1.87,3.77-2.85.92-.73,1.08-2.08.35-3-.73-.92-2.08-1.08-3-.35Z" fill="#8c8c8c" opacity=".8"/>
  <path d="M177.49,398.92c-.39.69-1.12,1.08-1.86,1.08-.36,0-.72-.09-1.05-.28-4.14-2.35-8.22-4.92-12.12-7.62-2.41-1.66-4.8-3.4-7.09-5.16-.93-.72-1.11-2.06-.39-3,.72-.93,2.06-1.11,3-.39,2.23,1.72,4.55,3.41,6.9,5.03,3.81,2.64,7.77,5.13,11.8,7.42,1.03.58,1.39,1.89.8,2.91ZM150.62,130.36c-1.29,1.07-2.55,2.16-3.81,3.26-4.48,3.98-8.8,8.26-12.84,12.71-.79.87-.73,2.22.14,3.02.41.37.92.55,1.44.55.58,0,1.16-.24,1.58-.7,3.94-4.34,8.15-8.5,12.51-12.38,1.22-1.07,2.45-2.13,3.7-3.17.91-.75,1.03-2.1.28-3.01s-2.1-1.03-3.01-.28ZM221.1,413.13c-1.18-.26-2.37-.53-3.54-.82-6.01-1.48-12.06-3.36-17.99-5.59-1.1-.41-2.34.14-2.75,1.25-.41,1.1.14,2.34,1.25,2.75,6.09,2.28,12.3,4.21,18.48,5.74,1.21.29,2.42.58,3.64.85.15.03.31.05.46.05.98,0,1.87-.68,2.08-1.68.25-1.15-.48-2.29-1.63-2.55ZM239.8,93.06c-1.25.12-2.49.26-3.72.41-6.3.75-12.7,1.91-19.02,3.45-1.15.28-1.85,1.44-1.57,2.58.24.98,1.11,1.63,2.07,1.63.17,0,.34-.02.51-.06,6.16-1.5,12.39-2.63,18.52-3.36,1.21-.15,2.41-.28,3.63-.4,1.17-.12,2.03-1.16,1.91-2.34-.12-1.17-1.16-2.04-2.34-1.91ZM192.41,105.01c-4.45,1.86-8.81,3.92-12.95,6.1-2.55,1.33-5.13,2.77-7.66,4.27-1.01.6-1.35,1.91-.74,2.93.4.67,1.11,1.04,1.84,1.04.37,0,.75-.1,1.09-.3,2.46-1.46,4.97-2.86,7.46-4.16,4.04-2.13,8.28-4.13,12.61-5.94,1.09-.46,1.6-1.71,1.15-2.8-.46-1.09-1.71-1.6-2.8-1.15ZM135.96,362.99c-3.92-4.44-7.59-9.08-10.92-13.8-.68-.97-2.01-1.19-2.98-.51-.96.68-1.19,2.01-.51,2.98,3.41,4.84,7.18,9.6,11.21,14.16,1.11,1.25,2.23,2.48,3.38,3.7.42.45.99.67,1.55.67.53,0,1.05-.19,1.46-.58.86-.81.9-2.16.09-3.02-1.12-1.18-2.22-2.39-3.29-3.6ZM95.71,259.71c-.02-1.18-1.03-2.15-2.18-2.1-1.18.02-2.12,1-2.1,2.18.11,5.6.5,11.25,1.18,16.79.24,2.06.53,4.13.86,6.19.17,1.05,1.08,1.8,2.11,1.8.11,0,.23,0,.34-.03,1.17-.19,1.96-1.28,1.77-2.45-.32-2-.6-4.01-.84-6.02-.66-5.39-1.05-10.9-1.15-16.35ZM94.83,236.31c.1.01.2.02.3.02,1.05,0,1.97-.77,2.11-1.84.74-5.33,1.78-10.74,3.11-16.07.48-1.98,1-3.95,1.56-5.9.32-1.13-.33-2.32-1.47-2.64-1.13-.32-2.32.33-2.64,1.47-.58,2.02-1.11,4.04-1.6,6.06-1.35,5.47-2.43,11.02-3.19,16.5-.16,1.17.65,2.25,1.82,2.41ZM121.09,166.26c-.99-.64-2.31-.37-2.96.62-2.85,4.36-5.5,8.89-7.88,13.43-1.17,2.21-2.28,4.46-3.34,6.73-.5,1.07-.04,2.34,1.03,2.84.29.14.6.2.9.2.8,0,1.57-.45,1.94-1.23,1.03-2.21,2.12-4.39,3.26-6.55,2.31-4.43,4.9-8.83,7.67-13.08.65-.99.37-2.31-.62-2.96ZM106.08,313.57c-.86-2.28-1.68-4.58-2.44-6.92-.37-1.12-1.58-1.74-2.69-1.37-1.12.37-1.73,1.57-1.37,2.7.78,2.39,1.62,4.76,2.51,7.11,1.9,4.97,3.99,9.77,6.21,14.26.37.75,1.13,1.19,1.92,1.19.32,0,.64-.07.94-.22,1.06-.52,1.49-1.8.97-2.86-2.16-4.37-4.19-9.05-6.05-13.89ZM373.52,141.78c-2.79-2.86-5.67-5.6-8.57-8.16-2.82-2.49-5.74-4.9-8.68-7.16-.94-.72-2.28-.54-3,.39-.72.93-.55,2.28.39,3,2.86,2.2,5.71,4.55,8.46,6.98,2.81,2.49,5.62,5.16,8.33,7.94.42.43.97.64,1.53.64s1.08-.2,1.49-.61c.85-.82.86-2.18.04-3.02ZM411.7,302.42c-1.12-.34-2.32.29-2.67,1.41-1,3.25-2.12,6.53-3.33,9.73-1.44,3.79-3.03,7.56-4.76,11.23-.5,1.07-.04,2.34,1.02,2.84.29.14.6.2.91.2.8,0,1.57-.45,1.94-1.23,1.77-3.76,3.42-7.64,4.89-11.54,1.24-3.29,2.39-6.65,3.42-9.98.35-1.13-.29-2.32-1.41-2.67ZM268.6,416.45c-4.22.33-8.46.5-12.6.5-3.28-.1-6.6-.1-9.87-.3-1.19-.07-2.19.83-2.26,2-.07,1.18.82,2.19,2,2.26,3.33.2,6.7.3,10.03.3h.1c4.25,0,8.6-.17,12.93-.51,1.18-.09,2.06-1.12,1.96-2.3-.09-1.18-1.12-2-2.3-1.96ZM420.33,253.54c-.02-1.18-1.07-2.15-2.18-2.1-1.18.02-2.12,1-2.1,2.18.02,1.05.03,2.09.03,3.14,0,6.36-.39,12.86-1.15,19.31-.13,1.03-.27,2.07-.41,3.1-.17,1.17.64,2.25,1.81,2.42.1.02.21.02.31.02,1.05,0,1.96-.77,2.11-1.83.15-1.06.29-2.12.43-3.2.78-6.63,1.18-13.29,1.18-19.82,0-1.07-.01-2.14-.03-3.22ZM388.42,346.75l-.69,1c-3.69,5.36-7.69,10.48-11.91,15.23l-1.29,1.43c-.79.87-.73,2.23.15,3.02.41.37.92.55,1.44.55.58,0,1.16-.24,1.58-.7l1.32-1.47c4.33-4.88,8.45-10.14,12.24-15.64l.7-1.02c.67-.97.42-2.3-.55-2.97s-2.3-.42-2.97.55ZM416.06,230.2c1.16-.21,1.93-1.32,1.72-2.48-.62-3.44-1.35-6.91-2.18-10.32-.98-4-2.15-8.05-3.47-12.04-.37-1.12-1.58-1.72-2.7-1.36-1.12.37-1.73,1.58-1.36,2.7,1.28,3.89,2.42,7.83,3.37,11.72.81,3.32,1.52,6.7,2.13,10.06.19,1.03,1.09,1.76,2.1,1.76.13,0,.25-.01.38-.03ZM402.1,181.42l-.58-1.1c-3.04-5.82-6.5-11.54-10.28-17l-1.11-1.6c-.68-.96-2.01-1.2-2.98-.52-.97.68-1.2,2.01-.52,2.98l1.09,1.57c3.68,5.32,7.05,10.89,10.01,16.55l.57,1.09c.38.73,1.12,1.15,1.9,1.15.33,0,.67-.08.98-.24,1.05-.54,1.45-1.83.91-2.88ZM288.61,95.56c-4.3-.87-8.64-1.58-12.88-2.08-3.29-.41-6.65-.71-9.99-.92-1.09-.05-2.19.82-2.26,2-.07,1.18.83,2.19,2.01,2.26,3.25.2,6.52.5,9.73.89,4.14.49,8.36,1.18,12.55,2.03.14.03.29.04.43.04.99,0,1.89-.7,2.09-1.71.23-1.16-.51-2.28-1.67-2.52ZM356.12,381.74c-2.98,2.39-6.09,4.69-9.24,6.85-2.98,2.06-6.09,4.06-9.24,5.93-1.02.6-1.35,1.91-.75,2.93.4.67,1.11,1.05,1.84,1.05.37,0,.75-.1,1.09-.3,3.24-1.92,6.44-3.97,9.49-6.09,3.23-2.22,6.42-4.58,9.49-7.04.92-.74,1.07-2.08.33-3-.73-.92-2.08-1.07-3-.33ZM314.97,405.67c-.75.3-1.5.59-2.26.88-6.04,2.28-12.25,4.22-18.46,5.76l-.71.18c-1.15.29-1.84,1.45-1.55,2.59.24.97,1.11,1.62,2.07,1.62.17,0,.35-.02.52-.06l.69-.17c6.38-1.58,12.76-3.57,18.95-5.91.78-.29,1.55-.6,2.33-.9,1.1-.44,1.63-1.68,1.2-2.78-.44-1.1-1.68-1.63-2.78-1.2ZM334.54,112.29c-.74-.4-1.48-.8-2.21-1.18-5.59-2.96-11.68-5.71-18.11-8.18l-.65-.24c-1.11-.41-2.34.14-2.75,1.24s.14,2.34,1.24,2.75l.65.24c6.25,2.4,12.18,5.07,17.64,7.96.72.38,1.44.76,2.16,1.15.33.18.68.26,1.02.26.76,0,1.49-.4,1.88-1.11.56-1.04.18-2.33-.85-2.9Z" fill="#8c8c8c" opacity=".6"/>
  <path d="M107.14,88.24c.79.87.78,2.17-.08,2.96-5.65,5.1-11,10.42-16.01,15.94-.42.46-1,.7-1.58.7-.51,0-1.03-.18-1.44-.56-.87-.79-.94-2.14-.14-3.02,5.11-5.62,10.55-11.04,16.19-16.13.87-.79,2.27-.77,3.06.1ZM143.77,59.53l-1.31.75c-6.11,3.51-12.19,7.42-18.08,11.61-.96.68-1.19,2.02-.5,2.98.42.59,1.08.9,1.74.9.43,0,.86-.13,1.24-.39,5.78-4.11,11.75-7.95,17.74-11.39l1.28-.73c1.03-.58,1.39-1.88.81-2.91-.58-1.03-1.89-1.39-2.91-.81ZM133.16,442.44c-2.71-1.79-5.44-3.68-8.11-5.6-3.41-2.49-6.8-5.11-10.06-7.78-.91-.74-2.26-.61-3.01.3-.75.91-.61,2.26.3,3.01,3.32,2.71,6.77,5.38,10.26,7.92,2.72,1.96,5.5,3.89,8.27,5.71.36.24.77.35,1.18.35.69,0,1.37-.34,1.78-.96.65-.98.38-2.31-.61-2.96ZM221.95,476.73c-4.14-.64-8.3-1.39-12.35-2.25-3.24-.69-6.52-1.46-9.74-2.3-1.15-.3-2.31.39-2.61,1.53-.3,1.14.39,2.31,1.53,2.61,3.29.86,6.63,1.65,9.93,2.35,4.14.88,8.37,1.65,12.59,2.3.11.02.22.03.33.03,1.04,0,1.95-.76,2.11-1.81.18-1.17-.62-2.26-1.79-2.44ZM175.71,464.39c-3.48-1.35-6.96-2.79-10.34-4.3-3.48-1.55-6.93-3.2-10.27-4.89-1.05-.53-2.34-.11-2.87.94-.53,1.05-.11,2.34.94,2.87,3.39,1.72,6.91,3.4,10.46,4.98,3.45,1.54,7,3.02,10.54,4.39.25.1.51.14.77.14.86,0,1.66-.52,1.99-1.37.43-1.1-.12-2.34-1.22-2.76ZM236.4,30.72c-1.41.12-2.82.26-4.23.41-6.23.66-12.47,1.58-18.55,2.72-1.16.22-1.92,1.34-1.7,2.5.19,1.03,1.09,1.74,2.1,1.74.13,0,.27-.01.4-.04,5.97-1.13,12.09-2.03,18.21-2.67,1.38-.14,2.76-.28,4.14-.4,1.18-.1,2.05-1.13,1.95-2.31-.1-1.18-1.13-2.07-2.31-1.95ZM188.53,40.11c-.91.28-1.83.57-2.73.87-6.38,2.07-12.72,4.45-18.85,7.06-1.08.46-1.59,1.72-1.13,2.8.35.81,1.14,1.3,1.97,1.3.28,0,.56-.05.84-.17,6.02-2.57,12.24-4.9,18.49-6.93.89-.29,1.78-.57,2.68-.85,1.13-.35,1.76-1.54,1.41-2.67-.35-1.13-1.54-1.76-2.67-1.41ZM90.46,405.7c-3.12-3.47-6.16-7.08-9.05-10.74-.73-.92-2.08-1.08-3-.35-.92.73-1.08,2.08-.35,3,2.94,3.72,6.04,7.4,9.22,10.94,1.94,2.14,3.92,4.26,5.94,6.34.42.43.97.65,1.53.65s1.07-.2,1.49-.6c.85-.82.87-2.18.04-3.02-1.99-2.04-3.93-4.12-5.83-6.22ZM31.88,238.55c.07,0,.13,0,.2,0,1.09,0,2.02-.83,2.13-1.94.09-1.04.2-2.09.31-3.13.69-6.46,1.65-12.92,2.87-19.21.22-1.16-.53-2.28-1.69-2.5-1.16-.23-2.28.53-2.5,1.69-1.24,6.4-2.22,12.99-2.92,19.57-.11,1.06-.22,2.13-.32,3.19-.11,1.18.76,2.21,1.93,2.32ZM71.64,124.39c-4.42,6.15-8.53,12.52-12.21,18.92l-.24.41c-.59,1.02-.23,2.33.79,2.92.34.19.7.28,1.06.28.74,0,1.46-.39,1.86-1.07l.23-.4c3.62-6.29,7.65-12.53,11.99-18.57.69-.96.47-2.29-.49-2.98-.96-.69-2.29-.47-2.98.49ZM44.19,325.54c-1.69-5.22-3.23-10.64-4.56-16.11-.28-1.15-1.44-1.85-2.58-1.57-1.15.28-1.85,1.44-1.57,2.58,1.36,5.57,2.92,11.1,4.65,16.41.61,1.88,1.25,3.75,1.91,5.62.31.88,1.13,1.42,2.01,1.42.24,0,.48-.04.71-.12,1.11-.39,1.69-1.62,1.3-2.73-.65-1.83-1.28-3.67-1.88-5.52ZM473.62,210.46c.92,4.35,1.73,8.85,2.41,13.36.16,1.06,1.07,1.82,2.11,1.82.11,0,.21,0,.32-.02,1.17-.18,1.97-1.26,1.79-2.43-.69-4.6-1.51-9.17-2.45-13.61-.63-2.99-1.33-5.97-2.09-8.93-.29-1.14-1.47-1.84-2.6-1.54-1.14.29-1.83,1.46-1.54,2.6.74,2.91,1.43,5.83,2.05,8.76ZM50.41,165.74c-1.09-.47-2.34.03-2.81,1.11-2.79,6.44-5.3,13.11-7.47,19.81l-.56,1.74c-.36,1.12.27,2.33,1.39,2.68.21.07.43.1.64.1.91,0,1.75-.58,2.04-1.49l.55-1.71c2.13-6.57,4.6-13.11,7.33-19.43.47-1.08-.03-2.34-1.11-2.81ZM63.12,368.03c-2.56-4.45-4.99-9.02-7.23-13.57-.52-1.06-1.8-1.49-2.86-.98-1.06.52-1.5,1.8-.98,2.86,2.28,4.64,4.75,9.29,7.36,13.82,1.22,2.12,2.47,4.22,3.76,6.3.4.65,1.1,1.01,1.82,1.01.39,0,.77-.1,1.13-.32,1-.62,1.31-1.94.69-2.94-1.26-2.04-2.49-4.1-3.68-6.18ZM33.36,261.98c-.03-1.18-.94-2.09-2.18-2.09-1.18.03-2.11,1.01-2.09,2.18.14,6.19.54,12.37,1.18,18.37.16,1.52.34,3.04.53,4.56.14,1.08,1.06,1.87,2.12,1.87.09,0,.18,0,.27-.02,1.17-.15,2-1.22,1.85-2.39-.19-1.49-.36-2.98-.52-4.48-.63-5.89-1.01-11.95-1.15-18.02ZM460.95,348.69c-1.06-.49-2.34-.02-2.83,1.05-2.9,6.3-6.09,12.45-9.47,18.3l-.98,1.69c-.6,1.02-.26,2.33.75,2.92.34.2.71.3,1.08.3.73,0,1.44-.38,1.84-1.05l1-1.73c3.45-5.95,6.7-12.23,9.66-18.65.49-1.07.02-2.34-1.05-2.83ZM439.44,123.39c-2.34-3.21-4.78-6.38-7.26-9.44-.74-.92-2.09-1.06-3.01-.31-.92.74-1.06,2.09-.31,3,2.44,3.01,4.84,6.13,7.13,9.26,2.14,2.97,4.21,5.98,6.16,8.96.41.63,1.09.97,1.79.97.4,0,.8-.11,1.17-.35.99-.64,1.27-1.97.62-2.96-1.98-3.04-4.09-6.11-6.28-9.14ZM407.69,88.14c-3.29-2.95-6.7-5.84-10.13-8.58-.91-.73-2.26-.59-3,.34-.74.92-.59,2.27.34,3,3.37,2.69,6.71,5.52,9.94,8.41,2.36,2.13,4.7,4.33,6.95,6.54.41.41.96.61,1.5.61s1.11-.21,1.52-.64c.83-.84.82-2.19-.03-3.02-2.29-2.25-4.68-4.49-7.08-6.67ZM433.57,390.83c-3.94,5.22-8.06,10.22-12.25,14.86-.74.82-1.48,1.63-2.23,2.44-.8.87-.75,2.22.12,3.02.41.38.93.57,1.45.57.57,0,1.15-.23,1.57-.69.76-.82,1.52-1.65,2.26-2.48,4.27-4.74,8.48-9.84,12.49-15.15.71-.94.52-2.28-.42-2.99-.95-.71-2.28-.53-2.99.42ZM269.78,478.9c-4.54.28-9.17.43-13.75.43-2.95.04-5.87-.05-8.81-.16-1.09-.09-2.17.87-2.22,2.05-.04,1.18.87,2.17,2.05,2.21,2.99.12,5.98.16,8.98.17,4.67,0,9.39-.14,14.02-.43,1.18-.08,2.07-1.09,2-2.27-.08-1.18-1.03-2.07-2.27-2ZM475.88,302.72c-1.12-.24-2.29.48-2.54,1.63-1.54,7.05-3.48,14.18-5.75,21.17l-.2.61c-.35,1.12.27,2.32,1.4,2.68.21.07.43.1.64.1.91,0,1.75-.58,2.04-1.5l.18-.56c2.32-7.15,4.29-14.41,5.86-21.6.25-1.15-.48-2.29-1.63-2.54ZM467.88,175.99c-1.47-3.85-3.07-7.73-4.75-11.51-1.43-3.21-2.95-6.42-4.51-9.53-.53-1.05-1.81-1.48-2.87-.95-1.05.53-1.48,1.81-.95,2.87,1.54,3.06,3.02,6.21,4.43,9.36,1.65,3.71,3.22,7.51,4.66,11.29.33.85,1.14,1.38,2,1.38.25,0,.51-.04.76-.14,1.1-.42,1.66-1.65,1.24-2.76ZM482.67,254.82c-.03-.73-.06-1.57-.09-2.49l-.11-3.37c-.04-1.18-1.03-2.1-2.21-2.06-1.18.04-2.1,1.03-2.06,2.21l.12,3.36c.06,1.8.11,3.3.16,4.33,0,7.6-.38,15.16-1.14,22.48-.12,1.17.73,2.23,1.91,2.34.08,0,.15.01.22.01,1.08,0,2.01-.82,2.12-1.92.71-6.93,1.1-14.08,1.15-21.27.18-.62.18-1.29.18-1.71,0-.47,0-1.25-.25-1.93ZM316.96,470.8c-4.91,1.4-9.88,2.64-14.79,3.68-2.39.5-4.78.97-7.19,1.4-1.16.21-1.94,1.32-1.73,2.48.18,1.03,1.08,1.76,2.1,1.76.13,0,.25-.01.38-.03,2.45-.44,4.9-.91,7.33-1.43,5-1.06,10.07-2.32,15.08-3.75,1.13-.32,1.79-1.5,1.47-2.64-.32-1.13-1.48-1.8-2.64-1.47ZM332.6,43.24c-2.19-.79-4.39-1.54-6.6-2.26-4.98-1.62-10.17-3.1-15.41-4.4-1.13-.28-2.3.41-2.59,1.56-.29,1.14.41,2.3,1.55,2.59,5.14,1.28,10.23,2.73,15.12,4.32,2.17.71,4.33,1.45,6.48,2.22.24.08.48.13.72.13.88,0,1.7-.54,2.01-1.41.4-1.11-.18-2.33-1.29-2.73ZM285.18,31.78c-1.86-.24-3.72-.46-5.59-.66-5.66-.6-11.49-.99-17.34-1.15-1.22-.09-2.16.9-2.19,2.08-.03,1.18.9,2.16,2.08,2.19,5.73.16,11.45.54,17,1.13,1.83.19,3.66.41,5.49.65.09.01.19.02.28.02,1.06,0,1.97-.78,2.12-1.86.15-1.17-.68-2.24-1.84-2.39ZM400.79,425.72c-4.44,3.8-9.17,7.54-14.07,11.12-1.25.9-2.51,1.8-3.78,2.68-.97.67-1.21,2.01-.53,2.97.41.6,1.08.92,1.76.92.42,0,.85-.13,1.22-.38,1.29-.9,2.58-1.81,3.85-2.73,4.99-3.64,9.82-7.45,14.34-11.33.9-.77,1-2.12.23-3.01s-2.11-1-3.01-.23ZM361.31,452.78c-4.81,2.59-9.81,5.05-14.88,7.3-1.82.82-3.66,1.6-5.51,2.37-1.09.45-1.6,1.7-1.15,2.79.34.82,1.13,1.32,1.97,1.32.28,0,.55-.05.82-.16,1.88-.78,3.76-1.59,5.61-2.41,5.16-2.3,10.26-4.8,15.16-7.44,1.04-.56,1.43-1.86.87-2.89-.56-1.04-1.85-1.43-2.89-.87ZM376.48,64.58c-2.36-1.48-4.76-2.92-7.17-4.3-4.24-2.44-8.58-4.76-12.9-6.91-1.06-.53-2.34-.09-2.86.97s-.09,2.34.97,2.86c4.24,2.1,8.5,4.38,12.67,6.78,2.37,1.36,4.72,2.77,7.04,4.22.35.22.74.33,1.13.33.71,0,1.41-.35,1.81-1,.63-1,.32-2.32-.68-2.94Z" fill="#8c8c8c" opacity=".5"/>
  <g>
    <path d="M258.63,260.92l-7.54,7.07-9.19,9.14,16.83,22c.86,1.1,1.29,2.19,1.29,3.25,0,1.34-.51,2.53-1.55,3.56-1.03,1.03-2.2,1.55-3.51,1.55s-2.5-.64-3.56-1.91c-3.17-3.68-8.74-10.77-16.73-21.27l-10.07,10.38c-2.03,1.82-4.99,4.66-8.88,8.52-1.1,1.24-2.29,1.86-3.56,1.86s-2.47-.51-3.49-1.55c-1.02-1.03-1.52-2.22-1.52-3.56,0-1.07.43-2.15,1.29-3.25.96-1.27,2.46-2.8,4.49-4.6,2.37-2.1,3.94-3.54,4.7-4.34l11-11.52-6.76-9.76c-2.72-3.89-5.09-6.73-7.13-8.52-1.31-1.17-1.96-2.44-1.96-3.82s.49-2.6,1.47-3.67c.98-1.07,2.11-1.6,3.38-1.6,2.03,0,5.09,2.65,9.19,7.95l8.93,12.34,10.12-9.29c4.2-3.96,7.04-7.06,8.52-9.29,1.1-1.62,2.41-2.43,3.92-2.43,1.34,0,2.53.5,3.56,1.5,1.03,1,1.55,2.15,1.55,3.46,0,1.89-1.6,4.49-4.8,7.8Z" fill="#8c8c8c"/>
    <path d="M300.49,258.71c-.5,0-1.21-.15-2.12-.47s-1.61-.47-2.09-.47c-1.02,0-2.56.06-4.6.18-2.05.12-3.59.18-4.64.18-.78,0-1.94.1-3.47.3s-2.69.3-3.48.3c-.22,0-.54-.04-.96-.12-.42-.08-.74-.12-.96-.12-1.39,0-2.29-.67-2.71-2.02-.24-.7-.36-1.91-.36-3.61,0-4.67,1.27-8.44,3.82-11.28,1.17-1.3,4.3-3.71,9.42-7.22,2.87-1.97,4.78-3.5,5.75-4.6,1.72-1.92,2.59-4.18,2.59-6.77,0-1.28-.83-2.43-2.5-3.43-1.47-.9-2.9-1.35-4.31-1.35-1.84,0-3.6.53-5.27,1.6l-4.3,3.37c-.86.68-1.55,1.02-2.08,1.02-2.07,0-3.1-.82-3.1-2.47,0-.94.38-1.76,1.14-2.44,2.35-2.21,4.38-3.8,6.11-4.78,2.43-1.38,4.92-2.08,7.49-2.08,3.25,0,6.15.88,8.7,2.65,2.85,1.99,4.27,4.53,4.27,7.64,0,2.05-.29,3.93-.87,5.66-.58,1.73-1.47,3.3-2.65,4.72-1.5,1.81-4.05,3.82-7.64,6.05-3.77,2.37-6.25,4.16-7.44,5.39-2.23,2.31-3.32,5.11-3.28,8.4l6.2-.57c4.25-.24,7.29-.36,9.12-.36,1.52,0,2.97.26,4.33.78,1.81.7,2.71,1.67,2.71,2.92,0,.78-.27,1.48-.82,2.09-.54.61-1.21.92-2.01.92Z" fill="#8c8c8c"/>
  </g>
  <g>
    <animateTransform
      attributeName="transform"
      type="rotate"
      dur="12s"
      repeatCount="indefinite"
      values="
        0 256 256;
        360 256 256;
      "
    />

    <path d="M202.56,163.52c1.13,1.13,2.18,2.38,3.08,3.69.93,1.33,1.73,2.74,2.42,4.19.66,1.43,1.23,2.96,1.65,4.51.4,1.53.68,3.14.83,4.73.14,1.59.14,3.24,0,4.83-.14,1.59-.42,3.2-.83,4.73-.42,1.55-.99,3.08-1.65,4.51-.68,1.45-1.49,2.86-2.42,4.19-.91,1.31-1.95,2.56-3.08,3.69s-2.38,2.18-3.71,3.1c-1.31.91-2.72,1.71-4.17,2.4-1.45.68-2.96,1.23-4.51,1.65-1.55.42-3.16.7-4.75.85-1.59.14-3.22.12-4.81-.02-1.59-.14-3.2-.42-4.73-.83-1.55-.42-3.08-.99-4.53-1.63-1.45-.68-2.86-1.49-4.17-2.44-1.31-.91-2.56-1.95-3.69-3.08s-2.18-2.38-3.1-3.71c-.93-1.29-1.73-2.7-2.42-4.15-.66-1.47-1.21-2.98-1.63-4.53-.42-1.55-.7-3.16-.85-4.75-.14-1.59-.14-3.2,0-4.79.14-1.59.42-3.2.85-4.75.42-1.55.97-3.06,1.63-4.53.68-1.45,1.49-2.86,2.42-4.15.93-1.33,1.97-2.58,3.1-3.71s2.38-2.18,3.69-3.08c1.31-.95,2.72-1.75,4.17-2.44,1.45-.64,2.98-1.21,4.53-1.63,1.53-.4,3.14-.68,4.73-.83,1.59-.14,3.22-.16,4.81-.02,1.59.14,3.2.42,4.75.85,1.55.42,3.06.97,4.51,1.65,1.45.68,2.86,1.49,4.17,2.4,1.33.93,3.08,2.6,3.71,3.1.6.52-.52-.6,0,0" fill="#e8e8e8"/>
    <path d="M203.57,203.6c-1.2,1.2-2.51,2.3-3.9,3.26-1.36.94-2.83,1.79-4.38,2.52-1.48.7-3.07,1.28-4.75,1.74-1.61.44-3.29.74-5,.89-1.6.14-3.31.14-5.07-.02-1.67-.15-3.34-.44-4.97-.87-1.57-.43-3.16-1-4.75-1.71-1.64-.77-3.11-1.64-4.42-2.58-1.35-.93-2.65-2.02-3.86-3.23s-2.29-2.51-3.26-3.9c-.93-1.29-1.78-2.76-2.54-4.36-.7-1.55-1.28-3.15-1.72-4.76-.44-1.61-.74-3.29-.89-5-.15-1.67-.15-3.37,0-5.05.15-1.7.45-3.39.89-5,.44-1.62,1.02-3.21,1.71-4.74.77-1.63,1.62-3.1,2.56-4.4,1.92-2.75,4.4-5.23,7.13-7.13,1.28-.93,2.76-1.79,4.37-2.55,1.62-.72,3.21-1.29,4.76-1.72,1.64-.43,3.32-.72,4.98-.87,1.76-.16,3.46-.16,5.06-.02,1.7.15,3.39.45,5,.89,1.67.46,3.27,1.04,4.74,1.74,1.54.73,3.01,1.57,4.37,2.51.88.61,1.89,1.49,2.69,2.2l.1-.09,2.12,2.1-.04.06c.83.91,1.6,1.88,2.29,2.88.95,1.36,1.8,2.84,2.53,4.39.71,1.53,1.3,3.13,1.74,4.75.43,1.64.72,3.32.87,4.98.15,1.66.15,3.42,0,5.08-.15,1.67-.44,3.35-.87,4.97-.44,1.63-1.03,3.22-1.74,4.75-.74,1.56-1.59,3.04-2.54,4.4-.95,1.37-2.04,2.67-3.24,3.88ZM164.5,164.53c-1.08,1.08-2.07,2.26-2.94,3.51-.84,1.17-1.61,2.5-2.3,3.94-.62,1.37-1.14,2.82-1.54,4.3-.4,1.45-.66,2.97-.8,4.5-.13,1.51-.13,3.04,0,4.54.14,1.54.41,3.06.8,4.51.4,1.47.93,2.93,1.55,4.32.67,1.42,1.44,2.74,2.28,3.91.89,1.27,1.87,2.45,2.95,3.53s2.26,2.07,3.49,2.92c1.19.86,2.52,1.64,3.97,2.32,1.43.64,2.88,1.16,4.3,1.54,1.46.38,2.97.65,4.48.78,1.59.14,3.13.15,4.56.02,1.54-.14,3.06-.41,4.51-.8,1.51-.41,2.95-.94,4.28-1.57,1.41-.66,2.74-1.43,3.97-2.28,2.5-1.74,4.72-3.97,6.43-6.43.86-1.24,1.63-2.58,2.3-3.99.64-1.37,1.17-2.81,1.57-4.28.38-1.46.65-2.97.78-4.49.13-1.5.13-3.08,0-4.58-.13-1.51-.4-3.02-.78-4.5-.4-1.45-.92-2.89-1.57-4.27-.66-1.41-1.44-2.75-2.29-3.98-.84-1.22-1.81-2.37-2.87-3.45-.17-.14-.48-.41-.84-.73-.79-.7-1.87-1.66-2.72-2.26-1.23-.85-2.56-1.61-3.96-2.28-1.32-.63-2.76-1.15-4.28-1.57-1.45-.4-2.97-.66-4.5-.8-1.44-.13-2.97-.12-4.56.02-1.51.13-3.02.4-4.5.78-1.4.38-2.86.91-4.31,1.56-1.42.67-2.75,1.45-3.91,2.29-1.25.87-2.43,1.85-3.51,2.93Z" fill="#8c8c8c"/>
    <path d="M180.62,189.25l1.76,3.9c.34.77.62,1.37.85,1.83s.42.77.61.95c.17.17.35.26.53.26.18,0,.39-.07.63-.21l1.87-1.03.83.74c-1.49,1.43-2.7,2.61-3.61,3.52s-2.03,2.07-3.23,3.33l-.83-.68,1.13-2.1c.27-.49.37-.96.29-1.4-.07-.44-.26-1.03-.57-1.78l-10.81-25.87,1.39-1.87,24.9,11.87c.96.45,1.66.7,2.12.74.45.04.93-.07,1.42-.35l1.92-1.04.8.71c-1.39,1.33-2.78,2.69-4.16,4.07-1.82,1.82-3.59,3.62-5.29,5.38l-.83-.68,1.06-1.94c.14-.26.21-.48.21-.66,0-.18-.09-.36-.27-.54-.2-.2-.52-.42-.94-.64-.43-.23-1.01-.51-1.73-.86l-3.84-1.84-6.2,6.2ZM175.21,177.31c.34.71.69,1.45,1.04,2.22l3.4,7.54,5.05-5.05-7.32-3.6c-.77-.38-1.49-.75-2.18-1.12Z" fill="#595959"/>
  </g>
  <g>
    <animateTransform
      attributeName="transform"
      type="rotate"
      dur="10s"
      repeatCount="indefinite"
      values="
        0 256 256;
        -360 256 256;
      "
    />

    <path d="M389.68,161.37c-1.13,1.13-2.38,2.18-3.69,3.08-1.33.93-2.74,1.73-4.19,2.42-1.43.66-2.96,1.23-4.51,1.65-1.53.4-3.14.68-4.73.83-1.59.14-3.24.14-4.83,0-1.59-.14-3.2-.42-4.73-.83-1.55-.42-3.08-.99-4.51-1.65-1.45-.68-2.86-1.49-4.19-2.42-1.31-.91-2.56-1.95-3.69-3.08s-2.18-2.38-3.1-3.71c-.91-1.31-1.71-2.72-2.4-4.17-.68-1.45-1.23-2.96-1.65-4.51-.42-1.55-.7-3.16-.85-4.75-.14-1.59-.12-3.22.02-4.81.14-1.59.42-3.2.83-4.73.42-1.55.99-3.08,1.63-4.53.68-1.45,1.49-2.86,2.44-4.17.91-1.31,1.95-2.56,3.08-3.69s2.38-2.18,3.71-3.1c1.29-.93,2.7-1.73,4.15-2.42,1.47-.66,2.98-1.21,4.53-1.63,1.55-.42,3.16-.7,4.75-.85,1.59-.14,3.2-.14,4.79,0,1.59.14,3.2.42,4.75.85,1.55.42,3.06.97,4.53,1.63,1.45.68,2.86,1.49,4.15,2.42,1.33.93,2.58,1.97,3.71,3.1s2.18,2.38,3.08,3.69c.95,1.31,1.75,2.72,2.44,4.17.64,1.45,1.21,2.98,1.63,4.53.4,1.53.68,3.14.83,4.73.14,1.59.16,3.22.02,4.81-.14,1.59-.42,3.2-.85,4.75-.42,1.55-.97,3.06-1.65,4.51-.68,1.45-1.49,2.86-2.4,4.17-.93,1.33-2.6,3.08-3.1,3.71-.52.6.6-.52,0,0" fill="#e8e8e8"/>
    <path d="M349.6,162.37c-1.2-1.2-2.3-2.51-3.26-3.9-.94-1.36-1.79-2.83-2.52-4.38-.7-1.48-1.28-3.07-1.74-4.75-.44-1.61-.74-3.29-.89-5-.14-1.6-.14-3.31.02-5.07.15-1.67.44-3.34.87-4.97.43-1.57,1-3.16,1.71-4.75.77-1.64,1.64-3.11,2.58-4.42.93-1.35,2.02-2.65,3.23-3.86s2.51-2.29,3.9-3.26c1.29-.93,2.76-1.78,4.36-2.54,1.55-.7,3.15-1.28,4.76-1.72,1.61-.44,3.29-.74,5-.89,1.67-.15,3.37-.15,5.05,0,1.7.15,3.39.45,5,.89,1.62.44,3.21,1.02,4.74,1.71,1.63.77,3.1,1.62,4.4,2.56,2.75,1.92,5.23,4.4,7.13,7.13.93,1.28,1.79,2.76,2.55,4.37.72,1.62,1.29,3.21,1.72,4.76.43,1.64.72,3.32.87,4.98.16,1.76.16,3.46.02,5.06-.15,1.7-.45,3.39-.89,5-.46,1.67-1.04,3.27-1.74,4.74-.73,1.54-1.57,3.01-2.51,4.37-.61.88-1.49,1.89-2.2,2.69l.09.1-2.1,2.12-.06-.04c-.91.83-1.88,1.6-2.88,2.29-1.36.95-2.84,1.8-4.39,2.53-1.53.71-3.13,1.3-4.75,1.74-1.64.43-3.32.72-4.98.87-1.66.15-3.42.15-5.08,0-1.67-.15-3.35-.44-4.97-.87-1.63-.44-3.22-1.03-4.75-1.74-1.56-.74-3.04-1.59-4.4-2.54-1.37-.95-2.67-2.04-3.88-3.24ZM388.67,123.3c-1.08-1.08-2.26-2.07-3.51-2.94-1.17-.84-2.5-1.61-3.94-2.3-1.37-.62-2.82-1.14-4.3-1.54-1.45-.4-2.97-.66-4.5-.8-1.51-.13-3.04-.13-4.54,0-1.54.14-3.06.41-4.51.8-1.47.4-2.93.93-4.32,1.55-1.42.67-2.74,1.44-3.91,2.28-1.27.89-2.45,1.87-3.53,2.95s-2.07,2.26-2.92,3.49c-.86,1.19-1.64,2.52-2.32,3.97-.64,1.43-1.16,2.88-1.54,4.3-.38,1.46-.65,2.97-.78,4.48-.14,1.59-.15,3.13-.02,4.56.14,1.54.41,3.06.8,4.51.41,1.51.94,2.95,1.57,4.28.66,1.41,1.43,2.74,2.28,3.97,1.74,2.5,3.97,4.72,6.43,6.43,1.24.86,2.58,1.63,3.99,2.3,1.37.64,2.81,1.17,4.28,1.57,1.46.38,2.97.65,4.49.78,1.5.13,3.08.13,4.58,0,1.51-.13,3.02-.4,4.5-.78,1.45-.4,2.89-.92,4.27-1.57,1.41-.66,2.75-1.44,3.98-2.29,1.22-.84,2.37-1.81,3.45-2.87.14-.17.41-.48.73-.84.7-.79,1.66-1.87,2.26-2.72.85-1.23,1.61-2.56,2.28-3.96.63-1.32,1.15-2.76,1.57-4.28.4-1.45.66-2.97.8-4.5.13-1.44.12-2.97-.02-4.56-.13-1.51-.4-3.02-.78-4.5-.38-1.4-.91-2.86-1.56-4.31-.67-1.42-1.45-2.75-2.29-3.91-.87-1.25-1.85-2.43-2.93-3.51Z" fill="#8c8c8c"/>
    <path d="M371.78,122.31c1.37,1.45,2.8,2.92,4.29,4.41.56.53,1.45,1.35,2.65,2.46,1.2,1.12,2.01,1.9,2.45,2.33,2.55,2.55,4.06,4.88,4.54,7s-.06,3.95-1.6,5.49c-2.42,2.42-5.53,2.66-9.31.73,1.43,1.89,2.13,3.76,2.11,5.59-.03,1.83-.73,3.44-2.12,4.83-2.02,2.02-4.39,2.76-7.11,2.24-2.73-.52-5.57-2.27-8.55-5.24-.59-.59-1.18-1.21-1.79-1.88-.61-.67-1.39-1.49-2.35-2.44-1.47-1.47-2.91-2.88-4.32-4.23l.68-.83,2.59,1.47c.32.18.61.16.88-.06.41-.39.87-.84,1.38-1.33.5-.49,1.06-1.04,1.66-1.65l12.05-12.05c.5-.5.96-.97,1.37-1.38.41-.42.78-.8,1.11-1.16.25-.27.3-.56.14-.86l-1.44-2.61.73-.82ZM369.41,138.62c.5.52.99,1.02,1.45,1.48,1.29,1.29,2.55,1.94,3.79,1.94,1.24,0,2.6-.74,4.08-2.22,1.39-1.39,2.07-2.71,2.03-3.95-.04-1.25-.66-2.47-1.87-3.68-.19-.19-.42-.41-.7-.65-.27-.24-.58-.5-.94-.77l-7.86,7.86ZM368.05,139.98l-9.04,9.04c.47.65,1.02,1.29,1.65,1.92,1.38,1.38,2.83,2.03,4.35,1.94,1.52-.09,3.03-.89,4.56-2.41s2.29-3.02,2.31-4.48c.02-1.47-.79-3.01-2.41-4.63-.47-.47-.94-.93-1.4-1.38Z" fill="#595959"/>
  </g>
  <g>
    <animateTransform
      attributeName="transform"
      type="rotate"
      dur="11s"
      repeatCount="indefinite"
      values="
        0 256 256;
        360 256 256;
      "
    />

    <path d="M228.39,476.48c0-1.6.14-3.22.43-4.79.28-1.6.71-3.16,1.25-4.67.54-1.48,1.22-2.96,2.02-4.36.8-1.37,1.74-2.71,2.76-3.93,1.03-1.22,2.19-2.39,3.42-3.42,1.22-1.03,2.56-1.97,3.93-2.76,1.4-.8,2.88-1.48,4.36-2.02,1.51-.54,3.08-.97,4.67-1.25,1.57-.28,3.19-.43,4.79-.43s3.22.14,4.81.43c1.57.28,3.13.71,4.64,1.25,1.51.54,2.96,1.22,4.36,2.02,1.4.8,2.73,1.74,3.96,2.76,1.22,1.03,2.36,2.19,3.39,3.42,1.03,1.22,1.97,2.56,2.76,3.93.8,1.4,1.48,2.88,2.05,4.36.54,1.51.97,3.08,1.22,4.67.28,1.57.43,3.19.43,4.79s-.14,3.22-.43,4.81c-.26,1.57-.68,3.13-1.22,4.64-.57,1.51-1.25,2.96-2.05,4.36-.8,1.4-1.74,2.73-2.76,3.96-1.03,1.22-2.16,2.36-3.39,3.39-1.22,1.03-2.56,1.97-3.96,2.76-1.4.8-2.85,1.48-4.36,2.05-1.51.54-3.08.97-4.64,1.22-1.6.28-3.22.43-4.81.43s-3.22-.14-4.79-.43c-1.6-.26-3.16-.68-4.67-1.22-1.48-.57-2.96-1.25-4.36-2.05-1.37-.8-2.71-1.74-3.93-2.76-1.22-1.03-2.39-2.16-3.42-3.39-1.03-1.22-1.97-2.56-2.76-3.96-.8-1.4-1.48-2.85-2.02-4.36-.54-1.51-.97-3.08-1.25-4.64-.28-1.6-.34-4.02-.43-4.81-.06-.8-.06.8,0,0" fill="#e8e8e8"/>
    <path d="M256.02,447.43c1.69,0,3.4.15,5.06.45,1.63.3,3.26.74,4.87,1.31,1.54.55,3.08,1.27,4.58,2.13,1.45.83,2.85,1.81,4.17,2.91,1.24,1.03,2.44,2.24,3.57,3.6,1.08,1.29,2.05,2.67,2.9,4.13.81,1.41,1.53,2.94,2.15,4.56.61,1.7,1.04,3.36,1.3,4.96.29,1.61.45,3.31.45,5.01s-.15,3.4-.45,5.06c-.26,1.57-.69,3.21-1.29,4.87-.6,1.59-1.32,3.13-2.15,4.58-.83,1.45-1.81,2.85-2.91,4.17-1.08,1.29-2.28,2.49-3.57,3.57-1.31,1.1-2.71,2.08-4.17,2.91-1.46.83-2.99,1.55-4.56,2.15-1.69.61-3.34,1.04-4.92,1.3-3.3.59-6.81.59-10.08,0-1.56-.25-3.22-.68-4.9-1.29-1.65-.63-3.18-1.36-4.58-2.15-1.47-.86-2.86-1.83-4.14-2.91-1.35-1.13-2.56-2.33-3.59-3.57-1.1-1.31-2.08-2.71-2.91-4.17-.86-1.51-1.58-3.05-2.13-4.58-.58-1.61-1.02-3.24-1.31-4.87-.19-1.06-.28-2.39-.35-3.46h-.13s-.01-2.98-.01-2.98l.08-.02c.06-1.23.2-2.46.42-3.65.29-1.63.73-3.28,1.31-4.9.58-1.59,1.29-3.13,2.13-4.58.86-1.47,1.83-2.86,2.91-4.14,1.07-1.28,2.31-2.52,3.6-3.6,1.29-1.08,2.68-2.06,4.13-2.9,1.47-.84,3.01-1.55,4.59-2.13,1.63-.58,3.27-1.03,4.91-1.32,1.64-.3,3.33-.45,5.03-.45ZM256.02,502.69c1.53,0,3.06-.14,4.56-.4,1.43-.23,2.91-.62,4.41-1.16,1.41-.53,2.8-1.19,4.13-1.95,1.31-.75,2.57-1.63,3.75-2.62,1.16-.97,2.24-2.05,3.21-3.21.99-1.19,1.87-2.45,2.62-3.75.76-1.33,1.41-2.72,1.95-4.15.53-1.48.92-2.96,1.15-4.37.27-1.52.41-3.06.41-4.58s-.14-3.06-.4-4.53c-.24-1.45-.63-2.94-1.17-4.45-.56-1.46-1.22-2.86-1.95-4.13-.76-1.3-1.64-2.56-2.62-3.72-1.03-1.22-2.11-2.31-3.21-3.24-1.19-.99-2.45-1.87-3.75-2.62-1.36-.78-2.75-1.42-4.13-1.92-1.46-.52-2.95-.93-4.42-1.19-3-.53-6.15-.53-9.09,0-1.48.27-2.98.67-4.45,1.19-1.42.52-2.81,1.17-4.13,1.92-1.3.76-2.56,1.64-3.72,2.62-1.15.97-2.27,2.09-3.24,3.24-.97,1.16-1.86,2.42-2.63,3.73-.75,1.31-1.39,2.7-1.91,4.13-.52,1.46-.92,2.96-1.19,4.43-.27,1.46-.4,2.96-.4,4.47.02.22.05.63.08,1.11.06,1.05.15,2.5.33,3.52.27,1.47.67,2.95,1.19,4.41.49,1.38,1.14,2.77,1.92,4.13.75,1.31,1.63,2.57,2.62,3.75.92,1.11,2.02,2.19,3.24,3.21,1.16.97,2.42,1.86,3.74,2.63,1.26.72,2.66,1.38,4.15,1.95,1.48.53,2.97.92,4.39,1.15,1.5.27,3.03.41,4.56.41Z" fill="#8c8c8c"/>
    <path d="M247.14,483.51l1.18-.19,1.62,6.14c1.13.36,2.34.53,3.66.53,3.15,0,5.59-1.18,7.31-3.54s2.59-5.45,2.59-9.27c0-4.08-1.02-7.33-3.05-9.75-2.03-2.42-4.85-3.63-8.45-3.63-2.01,0-4.13.41-6.35,1.22l-.28-1.22c2.85-1.94,6.07-2.91,9.66-2.91,4.66,0,8.43,1.4,11.3,4.21,2.87,2.81,4.31,6.51,4.31,11.1,0,4.89-1.57,8.76-4.72,11.61s-7.26,4.28-12.34,4.28c-2.51,0-5.07-.29-7.7-.88l-.13-.21,1.39-7.48Z" fill="#595959"/>
  </g>
</svg>